/* XPM */
static char *gradnormmodule_xpm[] = {
/* width height num_colors chars_per_pixel */
"    40    40      256            2",
/* colors */
"`` c #120604",
"`. c #0486a4",
"`# c #9c0234",
"`a c #bc9214",
"`b c #8cc3d3",
"`c c #1442ec",
"`d c #e8c614",
"`e c #183aec",
"`f c #500204",
"`g c #874429",
"`h c #c45a34",
"`i c #44b2b4",
"`j c #91e2c9",
"`k c #512409",
"`l c #4482b4",
"`m c #8c6a14",
"`n c #a6c5f0",
"`o c #31260a",
"`p c #702423",
"`q c #c76d26",
"`r c #a4422c",
"`s c #c88618",
"`t c #ccc6f4",
"`u c #68ce98",
"`v c #c7e7f8",
"`w c #e47544",
"`x c #49a1cd",
"`y c #84dbae",
"`z c #310504",
"`A c #584410",
"`B c #c67a1c",
"`C c #e6f4fc",
"`D c #779ccf",
"`E c #71b5cb",
"`F c #ade4db",
"`G c #86530c",
"`H c #71341b",
"`I c #513612",
"`J c #6ab5d8",
"`K c #dcaa18",
"`L c #caf9fb",
"`M c #2ca0b4",
"`N c #311304",
"`O c #844434",
"`P c #86d4de",
"`Q c #87a5d7",
"`R c #aad4f4",
"`S c #e7843e",
"`T c #0c62c4",
"`U c #38360e",
"`V c #47adbc",
"`W c #88bdd7",
"`X c #87c4e1",
"`Y c #a7552b",
"`Z c #acf3f1",
"`0 c #6e3334",
"`1 c #501b0f",
"`2 c #69c2d7",
"`3 c #d86e42",
"`4 c #714613",
"`5 c #111314",
"`6 c #974425",
"`7 c #9dbde9",
"`8 c #2788bc",
".` c #502838",
".. c #40240c",
".# c #96d3e3",
".a c #85331e",
".b c #da7936",
".c c #703c10",
".d c #f79241",
".e c #b45326",
".f c #af6319",
".g c #72ccd1",
".h c #3c72ec",
".i c #99c4f4",
".j c #883230",
".k c #d6e9fb",
".l c #87b4ef",
".m c #714f0f",
".n c #a4f2fc",
".o c #642517",
".p c #68acce",
".q c #60340c",
".r c #fa8450",
".s c #b07414",
".t c #6e2e19",
".u c #c8d7f4",
".v c #400404",
".w c #b8e5f9",
".x c #c7652d",
".y c #ca6f3a",
".z c #e67c46",
".A c #411504",
".B c #bad4f4",
".C c #58aad3",
".D c #671d19",
".E c #3c86e0",
".F c #210304",
".G c #b9c5e4",
".H c #77b8d5",
".I c #dafafc",
".J c #d87c46",
".K c #b16333",
".L c #9be2e6",
".M c #7486f4",
".N c #59a0cc",
".O c #0c7e94",
".P c #89cce4",
".Q c #44292c",
".R c #9adce4",
".S c #873c21",
".T c #c8f0f8",
".U c #310c07",
".V c #e9fbfc",
".W c #6cbea4",
".X c #945334",
".Y c #ec8a3c",
".Z c #954c29",
".0 c #78abf1",
".1 c #844e0c",
".2 c #4787e9",
".3 c #79d79c",
".4 c #7bc1dc",
".5 c #7c3d24",
".6 c #b8523c",
".7 c #8dbbef",
".8 c #d6e0f8",
"#` c #aeedf6",
"#. c #045cc4",
"## c #f1b61c",
"#a c #fca23c",
"#b c #2456e8",
"#c c #1c92b4",
"#d c #db8244",
"#e c #3cacb4",
"#f c #58bcbc",
"#g c #4494d0",
"#h c #2793bf",
"#i c #297ed1",
"#j c #1878ae",
"#k c #8c7a0c",
"#l c #fcfecc",
"#m c #9a522c",
"#n c #9cd6cc",
"#o c #d88428",
"#p c #221406",
"#q c #963b36",
"#r c #3c94d4",
"#s c #7cbec9",
"#t c #1c85bc",
"#u c #7ccbe9",
"#v c #4f92e7",
"#w c #a84444",
"#x c #623236",
"#y c #5cb5dc",
"#z c #5d0404",
"#A c #9fe6cf",
"#B c #fa7a58",
"#C c #62242a",
"#D c #88cec4",
"#E c #c45254",
"#F c #f1735b",
"#G c #0874b8",
"#H c #74a2ec",
"#I c #54323c",
"#J c #549aec",
"#K c #a4721c",
"#L c #8b4b38",
"#M c #b5fefc",
"#N c #6c3c48",
"#O c #387ee0",
"#P c #661d2e",
"#Q c #7cd7b4",
"#R c #3894cc",
"#S c #f4fdfc",
"#T c #3c9ec4",
"#U c #5c1b1f",
"#V c #7c4f0c",
"#W c #d46244",
"#X c #9c5634",
"#Y c #322c0c",
"#Z c #8cdcda",
"#0 c #abdbef",
"#1 c #aa5b2b",
"#2 c #b66e18",
"#3 c #bc7e14",
"#4 c #89d9c9",
"#5 c #c8783e",
"#6 c #7496ec",
"#7 c #c9d1f4",
"#8 c #7c341a",
"a` c #74ce91",
"a. c #7c490c",
"a# c #7ccfd7",
"aa c #548ae4",
"ab c #3ca6cc",
"ac c #522d0c",
"ad c #8caee4",
"ae c #412c0c",
"af c #f89e38",
"ag c #622b12",
"ah c #5f3c11",
"ai c #f88e44",
"aj c #401b0b",
"ak c #b7dcf3",
"al c #b9cbf3",
"am c #241b18",
"an c #67c2c1",
"ao c #7cbacc",
"ap c #349dc9",
"aq c #745329",
"ar c #c8633e",
"as c #7bb3f3",
"at c #bc6531",
"au c #0c4cdc",
"av c #a6cbf4",
"aw c #a64e22",
"ax c #086eb4",
"ay c #b55c29",
"az c #9accef",
"aA c #b45e34",
"aB c #d48e1c",
"aC c #077daf",
"aD c #bcf4f8",
"aE c #acbaf4",
"aF c #7c2d1b",
"aG c #a4e3e0",
"aH c #145adc",
"aI c #5492bc",
"aJ c #944d34",
"aK c #7c3a34",
"aL c #eca61c",
"aM c #44350c",
"aN c #d45a4c",
"aO c #510d07",
"aP c #8c5c14",
"aQ c #843e2c",
"aR c #d8f1f6",
"aS c #ccdff8",
"aT c #1f0c06",
"aU c #301c04",
"aV c #a3fdfc",
"aW c #342620",
"aX c #4ca2e0",
"aY c #644313",
"aZ c #bce6dc",
"a0 c #743527",
"a1 c #84d2f4",
"a2 c #4cacce",
"a3 c #94bed4",
"a4 c #743a27",
"a5 c #94b3ec",
"a6 c #8c5654",
"a7 c #8b4a2b",
"a8 c #bcebfc",
/* pixels */
".o.o.o.o.oag.ta4a7`g`O`H.t#C.o.o.D`p.D`pa0a3.R.R.#.#.#`b.H.H.P.#.#.R.R.R.R.L#Z#Z",
"ag.o.o.o.oag`Ha4.5a7a7.5a4.t.o.o.D.o.D.D`0.i.##0.R.#az`Xao.Hao`X.#.R.R.R.L#Z.L#Z",
".o.oag.oagaga4.5`ga7#L#L#LaK.t#C.o.D.D.D`0a3.R.#.#az`X`W.H.H`E`E#s.#.R.R.R.R.L.L",
".t.o.tag.t`H.5`ga7a7`g#L.X#LaKa0.t#C#C.D`0a3.#.#.#.P`X.H.H`E.p.pao#s#D.##4.R.L.L",
".oag`H.5`Ha4.5a7.X.Xa7a7#L`g`Oa0`p#P.o#U#x`b.P`X`X`X`W.H.p.p`E`Eaoao`b.R.R.R.R#A",
"ag.tag`H.5.S.1.Z.X#X.X.X`g.5a0.U`z#z`1#U`0a3.#az.4`W.H.p.p.p.pao#s`b.T`LaV`F.LaG",
".t.t.t`H.5a7a7a7#X#X#X#maJ`Oaj.F`f`f`f#U#x`W.P.P`W`J`J.p.C.p.p.p#s.w.I#MaV#MaG.R",
".t.t.tag`H`H`g`g#m#1#XaJaJ`g.F.F`f.v`f#U#x`Waz.#.P`X`X.H.p.N`E`E`E.I.I#M#M`Z`F#n",
".t.t`H`H.t`H`H.5`ga7#Xa7aQ#C.F.F`f.v#z`z#N`W.P.Paz.P`X`X.4`J`Jao.R.V.I#M`LaV`L#n",
"aF.t.t#8#8.5.Z.Z.Za7`g`g.SaO.F.F.v#z.v.F#I`W.P.P`X#u`J.p.p`E.H.4`Z.I.V#MaV#M.I`F",
"aFaFaFaF`H.S.Z#m.Z.Z.Z`g.S`f.F.F`z#z.v.F#I#s.Pa1.P.4.p.p.p`J.H.4#M.I.V`LaV#M.I`F",
".S.a#8.a.a.S.Z.f#m.S.S#8.t.v.F```z#z`f.F.`.H#u.P.4#u.paX.C.4.P`PaD.I.I`LaV#M.IaZ",
".Z.Z`g.Z.Z.Z#m`Y.faA`Y.S.t#z.F.F.v#z.v.F.Q.N`#`J`J`J.C.C.NaX.4a1.n.I.V#MaV#M.V.T",
"#m#m.f`Y.Z.S.Zaw`Y#1aA#1`6aO.F.F`f`f`z.F.`.N`#`#.p`J`J.C.C`x`x`2#`.I.I#M#M`L.I`F",
".K.K.Kat.f#1aw#1`Yaw`Y`Y`r.D.F.F`f.v`z`z#LaI`##l`#.N#yaX.C.C.C`J.L.I.VaV#M`L`L#s",
"#5.y.y#2aA.K.fay`q.x`3.JaA.a`z.F`f`f.F#Ua6`l`##l#l`#.NaX#r#R`8#T#u`L.I#M#M.I`F`E",
"#5#d#5#d#5at.eat.b.J.z.z.b`#`#`#`#`#`#`#`#`#`##l#l#l`##g`8#t#t`8as`Z.I#M#M.I#D.W",
"#d#d#d`S`S.Y`S`S`S.Y.r.z`w`##l#l#l#l#l#l#l#l#l#l#l#l#l`##j#G#j#t#g.L.I`L`L`La`a`",
".J#d#d.Y.Yai.d.d.Y`S.b`3aA`##l#l#l#l#l#l#l#l#l#l#l#l#l#l`##j#h#Ta2a1.I#M.I`j.3.3",
"#d#d.J.J.b`S.Y`q`q.x.x`h#W`##l#l#l#l#l#l#l#l#l#l#l#l#l#l#l`#apapa2#u#`aD`Z`y`j`y",
".J.J.z.b.y`q`q.x`q.e.e`h#W`##l#l#l#l#l#l#l#l#l#l#l#l#l#l`#aXab#h#c`i`PaD`u`ua`.3",
"ar.y.y.J.b.b#o`B#2.f.eaw.e`##l#l#l#l#l#l#l#l#l#l#l#l#l`#.2aX.Ca2#e`i#f#A#D.3.3.3",
".y.y`3.yayay#2`B`B#o`B`h`6`#`#`#`#`#`#`#`#`#`##l#l#l`##O#O#iaX`2`2.g#4.T`y`y`y`y",
"ar`3`3`3.x`q`B`B#3#2.faw`6#qaF`p.U#P.D#P.``l`##l#l`#.E#O.2.2#y#y.ga#`P`L.R`j#A#A",
"#F#F#B.z.b`q#2.s#2.f.faw.S.aaFaF`p.D#U#U.`ax`##l`#.E.E.2#v#J#y`2.4a#`P#Z`jaG#A`F",
"#F#F#B.raiafaL`K`K`s#3.x.e#q.a.j`p`p.U`zaW.O`#`#ax`TaH#b#b.h#ra2`2a#.g#4#ZaR.T`v",
"#F#F#B.rai#a####`d`aaB`q.e`r`r.j.j#PaT```5.O`#.Oax#.au`c`e.h#ra2#y`2an.g#naR.V.V",
"#F#F#B#Baiaf##`d#kaM#K`S`3#WaN#E#w.`aT```5.O`.#Gax#.au`e.MaE#i#c`M`M`i#fak`C.V#S",
"`3`w`3`w.z.b#K`m`A#Y`o`q.x`h.6#w#qaT#p```5#j#h#t#t#iaa#6aEal#rapap`i#fanaR.k`C#S",
"aqaq.5aY`4`4ae`o#Y`o#p`4aqaYah#xaTaTam```5`Dao`7`W.7al.u.u#7a5ada3`7`naR`C.8#S#S",
"`U`oaUae`UaU#p..aM#YaeaU`U`U#Y`o`````5``am.G.8.u.GaSaR.ual#7aS#7`t#7.u`C#S`C`C#S",
"`o..#p`oaM`oaUaU`UaM`o`Nae`oam`5````````am.G.k#7al.8aSaSalalaSal.u.8`C.V#S`C#S`C",
"`Iae`IaM`I`4`I`AaeaUaT#paUae...F``.FaT``am`7`nal.G.lala5#7.k.k`v.u.B.V`C`C`C`C.V",
"aY`4`A`4ah`Iahah.m..`N#p`kaeaT.F.FaTaUaT`o`Q`7a5.i`n`n`7ad.B.kakal.I.I.V.IaSaR.k",
"`I#V.mah.qac.qacaY.q...A`Naj`zaT.U.U`N..`I#6ad`7avavav`R.i`n.w`v`vaR.I.TaR`vakak",
"ac.maP#Vah.c.q`k`k`N.U.A..`N.U.A`z.Fac.qac`Q#H.l.i.7azak#0`v.wak.T.T`v.I.I`Rav.B",
"#V.1aP.c.1a..qa..q`k`kac`k.U.U`z.U.U`kacaW#6#H.7as.7azasaz`R`Rak.T`L`L.T.T`R`R`v",
".c`4`G`G.1a..1.1.c.Aagag`1.U.U`z`z.v.A.qaj`Q.0.0asas.0as.i.waz.w.TaR.I`L.Ta8az.T",
"a.`G`G`Ga.`4.ca.`1`1.c.q.A.A.A.U.U.U`k`kah#H#H.0as.7.ias.w#0aza8#`.w`L.T`L`R#0`R",
"`G.1`G.c`k.c.c`k.U`1`k.A`z.v.U.A`z.v`4ag.Q`D.0.7#0az.7#0a8a8.T`L.T.Ta8`L`L.7aza8"
};
