/* XPM */
static char * effectvholomodule_xpm[] = {
"40 40 135 2",
"  	c #040404",
". 	c #050505",
"+ 	c #696969",
"@ 	c #7A7A7A",
"# 	c #505050",
"$ 	c #0A0A0A",
"% 	c #000000",
"& 	c #4C4C4C",
"* 	c #7D7D7D",
"= 	c #2B2B2B",
"- 	c #2D2D2D",
"; 	c #818181",
"> 	c #202020",
", 	c #010101",
"' 	c #6D6D6D",
") 	c #020202",
"! 	c #1F1F1F",
"~ 	c #727272",
"{ 	c #1C1C1C",
"] 	c #080808",
"^ 	c #464646",
"/ 	c #252525",
"( 	c #4B4B4B",
"_ 	c #5B5B5B",
": 	c #060606",
"< 	c #5E5E5E",
"[ 	c #0E0E0E",
"} 	c #4D4D4D",
"| 	c #232323",
"1 	c #393939",
"2 	c #646464",
"3 	c #030303",
"4 	c #434343",
"5 	c #5A5A5A",
"6 	c #0C0C0C",
"7 	c #717171",
"8 	c #838383",
"9 	c #303030",
"0 	c #070707",
"a 	c #6F6F6F",
"b 	c #6C6C6C",
"c 	c #676767",
"d 	c #5F5F5F",
"e 	c #777777",
"f 	c #090909",
"g 	c #121212",
"h 	c #7C7C7C",
"i 	c #191919",
"j 	c #1B1B1B",
"k 	c #484848",
"l 	c #181818",
"m 	c #494949",
"n 	c #3E3E3E",
"o 	c #161616",
"p 	c #666666",
"q 	c #0F0F0F",
"r 	c #323232",
"s 	c #545454",
"t 	c #151515",
"u 	c #707070",
"v 	c #868686",
"w 	c #2A2A2A",
"x 	c #3F3F3F",
"y 	c #383838",
"z 	c #7E7E7E",
"A 	c #171717",
"B 	c #848484",
"C 	c #141414",
"D 	c #313131",
"E 	c #101010",
"F 	c #444444",
"G 	c #282828",
"H 	c #5C5C5C",
"I 	c #212121",
"J 	c #1A1A1A",
"K 	c #454545",
"L 	c #1E1E1E",
"M 	c #747474",
"N 	c #757575",
"O 	c #292929",
"P 	c #343434",
"Q 	c #3B3B3B",
"R 	c #353535",
"S 	c #3A3A3A",
"T 	c #363636",
"U 	c #6A6A6A",
"V 	c #0B0B0B",
"W 	c #555555",
"X 	c #515151",
"Y 	c #585858",
"Z 	c #404040",
"` 	c #535353",
" .	c #3D3D3D",
"..	c #131313",
"+.	c #373737",
"@.	c #424242",
"#.	c #626262",
"$.	c #242424",
"%.	c #1D1D1D",
"&.	c #2E2E2E",
"*.	c #808080",
"=.	c #111111",
"-.	c #2F2F2F",
";.	c #525252",
">.	c #686868",
",.	c #4E4E4E",
"'.	c #272727",
").	c #565656",
"!.	c #0D0D0D",
"~.	c #262626",
"{.	c #333333",
"].	c #2C2C2C",
"^.	c #3C3C3C",
"/.	c #787878",
"(.	c #737373",
"_.	c #575757",
":.	c #656565",
"<.	c #414141",
"[.	c #858585",
"}.	c #5D5D5D",
"|.	c #636363",
"1.	c #222222",
"2.	c #797979",
"3.	c #474747",
"4.	c #7F7F7F",
"5.	c #616161",
"6.	c #606060",
"7.	c #6E6E6E",
"8.	c #7B7B7B",
"9.	c #595959",
"0.	c #767676",
"a.	c #6B6B6B",
"b.	c #4A4A4A",
"c.	c #4F4F4F",
"d.	c #828282",
"  . + @ # $ % & * = . - ; > , & ' ) ! ~ { & ] ^ = / (   _ : < [ } | 1 2 3 4 5 % ",
"% . 6 7 8 9   0 a b % % c d , 9 e f g h i 4 j = k 3 & l m i n o #   p q r s . 4 ",
"3 . % t u v l , w @ x ) y @ 3 [ z A   B C 1 D E F | G m 3 s [ H $ H I J + : K H ",
"f %   % L ' M 6 % & N E 0 N w % 7 O % ; g P Q [ R S o Q w O Q I T S l U V W X = ",
"3 % % 0 % > * Y % t ' Z % } < % `  .% M ..r +.I i @./ i } C x l m A #.f _ m - $.",
"% : % % ) V %.v K % &.*.t =.N ] -.;., >.A &.-.r j { @.= C ,.. # '.).!.).y T ~.y ",
"  % % f % % % &.* G % Y 4 . < w o 2 % 2 j ~.= r = / J Z 9 E K C ( %.F {.R - - ].",
"^.  . % % ) . % S /.o !.(.A ~._.$ a % :.L L w = {.1 O q n 9 t m i <.^.G O w r Q ",
"[.}.L % % . % % % ^ 2 $ D _.. |.$ # E m | / j > I 1.1 r %.]. .! k - O &.$.{.w 9 ",
"2.z @ k . %   % % f } 3.[ 5 J & - S $.k | > i %.j ].J ~.y T $.@.D L -.'.P ].T 9 ",
"z N /.4.5.| % , 3 % ] 6.{.I W , W ~.x ^ $.1.$.= &.t O ~.G -.^ O | '.O {.- -.P -.",
",.z 8 7.z ; F % % % =.. 5.t Z w 4 ..<.+.l j L | $.&.~.w J 1 D I ~.P ~.T O 9 P 9 ",
"% 3 1 M 4.e M a I % , % !._ g ( I J S - [ o t o j / w I n > %.9 w -.&.O y =  .r ",
"0 . % , w >.[.8./.;., 0 % !.k J / R 9 ~.f l J > %.j / 4 O $.I -.= 9 - -.y {.P r ",
"% % % 3 . % o 9.[.0.a ! E   ]  .= D L 1.!.i l 1.{ - 1 - T G '.O 9 R ].y r Q '.T ",
"}.x ! . % ) $ % !.<.@ z k ] : t / %.l {.~./ o J 1.y T 9 r R w = R - +.].Q P &.Z ",
"h * 8.~ H Q i ) % % $ 1 U a.R % t | i ..- / A | ^.Q 1 1  .n +.-.9 {.y Q +.{.1 4 ",
"2.@ 8.h 8.@ 0.M _ ^...% 6 - b.9.g J 6 g @.^ D r Q <.F <.Q +.R r Q 1 D -.S K x 9 ",
"<.k W #.7.e * ; M 4.8 u c.D I j & t E T  . .F F n  .Q 1 S ^.S T 9 Z k  .D 9 r 9 ",
"% % % % % % : $ > / - y K ;._._.k k ].D S F D 1 } k x +.R 1 ^.^. .S ^.<.K 3.} s ",
"% % , % % ,   ] 0 E i > ~.9 1 n @.# F +.C C ..1.E j 1.> L G  .} s  .G ~.r Q x <.",
"^ & W < :.U ' 7.e @ 8.@ @ @ /.N ( 1.+.^.t % V % % . f   % % 0 !.] 6 f ) 0 l / ~.",
"z @ e N /.* d.[.; h 2.z z >.S ..] k M O n % % : % % % % % , % % % % % % % ]   % ",
"h h z *.; 4.2.N /.; @ s I , % : 9.8.h . 6.: ) % , ) , % % , ) ,   , , 3 , % % ) ",
"4.h z 2.M z d.~ b n [ % , % l :.z e }.) H = % 3 , , , , % % % % % % % % % % % % ",
"e /.*.d.*.2.5 - 6 % % f % $.M *.z 4.1   }.c., 3 , , , , % % % % % % % % % % % % ",
"z e 8.(.F q % % % 3 3 % 1 e 0.*.2.*.E . 9.u $   , , , , % % % % % % % % % % % % ",
"d.6.&.0 % f V % 0     b.d.z 4.e e a % : ).h |   , , , , % % % % % % % % % % % % ",
"t ) % )   % % ] % : _.4.@ ; h z 4.& % 3 5 * k 3 , , , , % % % % % % % % % % % % ",
"% 0 , % % : , % > b 4.@ /.N z e 4.$.% % < 8.p f , , , , % % % % % % % % % % % % ",
"% % % . : %   G * (.z 4.h h 0.8 7 6 ) % }.h e | , , , , % % % % % % % % % % % % ",
"% 3 ) % % 3 +.* /.z h @ 2.z *.N |.] 6 f H *.z @., , , , % % % % % % % % % % % % ",
"% , , % ] b.z e h 4.2.B N h *.2.+.. , % ).e * u % ) % % ) % % % % % % % , , , , ",
") 0 % . < 4.M B h * h z 8.4.h * ! % % % )./.z e J % % % ) , % ) % % % % , , , , ",
"  % g (.* h d.8.* h z 2.*.4./.7 : % , % W @ z * <.% , % , ) %   % % % % , , , , ",
"% '.h e * h 8.N 4.h * @ z 8.h ,.% %   % ` h h * |.) , % % 3 %   , , , , % % % % ",
"{.B * * M 4.z * * h @ *.8.@ d./ % ,   % c.* 8.8.0.t % % , ) % , , , , , % % % % ",
"v c B * z 2.z 4.8.8.2.B 2.* /.V % % % % m h h 8.* y , % ) % % % ) , , , % % % % ",
"/.B N 4.@ z * 0.8.@ h ; 2.*._.3 ) % % ) K 8.4.h 4.6.3 ) ) % 3 % ) ) , , % % % % ",
"* 8.; h * /.2.d.* 2.4.8.2.*.+.3   % , 0 4 @ *.* 4.8..   ) % 0 % ) ) , , % % % % "};
