/* XPM */
static char * y4minmodule_xpm[] = {
"40 40 1019 2",
"  	c #C6C6C6",
". 	c #4A4A4A",
"+ 	c #7A7A7A",
"@ 	c #DCDCDC",
"# 	c #616161",
"$ 	c #6A6A6A",
"% 	c #797979",
"& 	c #484848",
"* 	c #D1D1D1",
"= 	c #929292",
"- 	c #454544",
"; 	c #BEBEBC",
"> 	c #ABABA9",
", 	c #454545",
"' 	c #A5A5A5",
") 	c #C7C7C7",
"! 	c #8C8C8C",
"~ 	c #DBDBDB",
"{ 	c #4E4E4E",
"] 	c #6D6D6D",
"^ 	c #D9D9D9",
"/ 	c #676767",
"( 	c #545454",
"_ 	c #D8D8D8",
": 	c #868686",
"< 	c #494949",
"[ 	c #CCCCCC",
"} 	c #A1A1A1",
"| 	c #464646",
"1 	c #B0B0B0",
"2 	c #B7B7B7",
"3 	c #A0A0A0",
"4 	c #CFCFCF",
"5 	c #474747",
"6 	c #7F7F7F",
"7 	c #CECECE",
"8 	c #585858",
"9 	c #646464",
"0 	c #BDBDBD",
"a 	c #DDDDDD",
"b 	c #DADADA",
"c 	c #898989",
"d 	c #5C5C5C",
"e 	c #666666",
"f 	c #585857",
"g 	c #626260",
"h 	c #6C6C6B",
"i 	c #515151",
"j 	c #656565",
"k 	c #555555",
"l 	c #5B5B5B",
"m 	c #606060",
"n 	c #636363",
"o 	c #5A5A5A",
"p 	c #595959",
"q 	c #525252",
"r 	c #6F6F6F",
"s 	c #838383",
"t 	c #E0E0E0",
"u 	c #C9C9C9",
"v 	c #D0D0D0",
"w 	c #5D5D5D",
"x 	c #B4B4B4",
"y 	c #DEDEDE",
"z 	c #D7D7D7",
"A 	c #787878",
"B 	c #595958",
"C 	c #60605E",
"D 	c #696968",
"E 	c #565656",
"F 	c #656564",
"G 	c #696969",
"H 	c #686868",
"I 	c #686867",
"J 	c #575757",
"K 	c #666665",
"L 	c #5F5F5F",
"M 	c #D3D3D3",
"N 	c #E3E3E2",
"O 	c #E2E2E2",
"P 	c #E1E1E1",
"Q 	c #BFBFBF",
"R 	c #535353",
"S 	c #414141",
"T 	c #838382",
"U 	c #CDCDCB",
"V 	c #80807E",
"W 	c #81817F",
"X 	c #858583",
"Y 	c #C2C2C0",
"Z 	c #B8B8B6",
"` 	c #5C5C5A",
" .	c #6B6B69",
"..	c #5F5F5D",
"+.	c #666664",
"@.	c #6D6D6B",
"#.	c #595957",
"$.	c #6C6C6A",
"%.	c #AFAFAD",
"&.	c #D4D4D2",
"*.	c #D7D7D5",
"=.	c #CFCFCD",
"-.	c #AEAEAC",
";.	c #888886",
">.	c #6E6E6C",
",.	c #6A6A68",
"'.	c #656563",
").	c #5E5E5C",
"!.	c #B1B1AF",
"~.	c #B2B2B0",
"{.	c #848482",
"].	c #8E8E8C",
"^.	c #E6E6E4",
"/.	c #8D8D8B",
"(.	c #5B5B59",
"_.	c #BCBCBA",
":.	c #3B3B3B",
"<.	c #505050",
"[.	c #9A9A99",
"}.	c #4B4B49",
"|.	c #494947",
"1.	c #40403E",
"2.	c #B9B9B7",
"3.	c #D9D9D7",
"4.	c #555553",
"5.	c #646462",
"6.	c #61615F",
"7.	c #686866",
"8.	c #787876",
"9.	c #C9C9C7",
"0.	c #D0D0CE",
"a.	c #676765",
"b.	c #757573",
"c.	c #71716F",
"d.	c #767674",
"e.	c #CCCCCA",
"f.	c #7C7C7A",
"g.	c #A1A19F",
"h.	c #3C3C3A",
"i.	c #464644",
"j.	c #51514F",
"k.	c #E5E5E3",
"l.	c #A7A7A5",
"m.	c #565654",
"n.	c #B8B8B8",
"o.	c #A2A2A0",
"p.	c #D6D6D4",
"q.	c #41413F",
"r.	c #3D3D3B",
"s.	c #31312F",
"t.	c #DCDCDA",
"u.	c #B5B5B3",
"v.	c #E1E1E0",
"w.	c #D3D3D1",
"x.	c #6F6F6D",
"y.	c #636361",
"z.	c #6D6D6C",
"A.	c #E3E3E1",
"B.	c #BABAB8",
"C.	c #70706E",
"D.	c #5D5D5B",
"E.	c #D5D5D3",
"F.	c #30302E",
"G.	c #41413E",
"H.	c #484946",
"I.	c #E4E4E2",
"J.	c #D4D4D4",
"K.	c #848483",
"L.	c #C1C1BF",
"M.	c #5A5A58",
"N.	c #BFBFBD",
"O.	c #525250",
"P.	c #E6E6E6",
"Q.	c #E1E1DF",
"R.	c #CACAC8",
"S.	c #CECECD",
"T.	c #CACACA",
"U.	c #E2E2E1",
"V.	c #BDBDBB",
"W.	c #9E9E9C",
"X.	c #5C5D5A",
"Y.	c #666762",
"Z.	c #E5E5E1",
"`.	c #90908D",
" +	c #3A3A38",
".+	c #6E6E6D",
"++	c #CECECC",
"@+	c #DADAD8",
"#+	c #8C8C8A",
"$+	c #A0A09E",
"%+	c #8A8A88",
"&+	c #868684",
"*+	c #797977",
"=+	c #777775",
"-+	c #7A7A78",
";+	c #828280",
">+	c #828281",
",+	c #A6A6A4",
"'+	c #CFCFCE",
")+	c #CCCCCB",
"!+	c #747472",
"~+	c #A9A9A7",
"{+	c #373737",
"]+	c #5B5B5A",
"^+	c #DFDFE3",
"/+	c #979896",
"(+	c #5D5E5C",
"_+	c #4D4D51",
":+	c #858284",
"<+	c #E5E0DE",
"[+	c #6A6868",
"}+	c #656363",
"|+	c #4E4C4D",
"1+	c #4D4D49",
"2+	c #5D5B5D",
"3+	c #4F4F4F",
"4+	c #50504E",
"5+	c #5B5A55",
"6+	c #4A4D4A",
"7+	c #4D4F4D",
"8+	c #585A56",
"9+	c #484C49",
"0+	c #4B4C4C",
"a+	c #5C5E5E",
"b+	c #606361",
"c+	c #DDE0DE",
"d+	c #8A8C8A",
"e+	c #4D4E4A",
"f+	c #636360",
"g+	c #8E8F8A",
"h+	c #DDDDD7",
"i+	c #E5E6E4",
"j+	c #D5D5D4",
"k+	c #6F6F6E",
"l+	c #4E4E4C",
"m+	c #A8A8A8",
"n+	c #BEBEBE",
"o+	c #C4C4C4",
"p+	c #C1C1C1",
"q+	c #C9C7CD",
"r+	c #DDDCC5",
"s+	c #CFD47C",
"t+	c #C2C873",
"u+	c #C4CA75",
"v+	c #C1C36D",
"w+	c #A9D6A8",
"x+	c #8DE7DD",
"y+	c #75CBC1",
"z+	c #74CAC0",
"A+	c #6DC5B9",
"B+	c #6FC289",
"C+	c #76C375",
"D+	c #74C271",
"E+	c #6FC36E",
"F+	c #71C576",
"G+	c #BC84BD",
"H+	c #BE7EC0",
"I+	c #BD7DBF",
"J+	c #C081BB",
"K+	c #BD7CAA",
"L+	c #BD7972",
"M+	c #C07C74",
"N+	c #C07D75",
"O+	c #DA9490",
"P+	c #B48CA4",
"Q+	c #7275B7",
"R+	c #787BBF",
"S+	c #747AB9",
"T+	c #8085CA",
"U+	c #8287A1",
"V+	c #696967",
"W+	c #727270",
"X+	c #E3E3E3",
"Y+	c #E0DFE0",
"Z+	c #E1E0BD",
"`+	c #E0E55D",
" @	c #E0E45C",
".@	c #E1E55D",
"+@	c #DEE45B",
"@@	c #A0E59C",
"#@	c #59E5DA",
"$@	c #58E6DC",
"%@	c #59E7DD",
"&@	c #58E8DE",
"*@	c #62E589",
"=@	c #63E25A",
"-@	c #61E35B",
";@	c #63E15B",
">@	c #61E15C",
",@	c #D479CD",
"'@	c #E070E0",
")@	c #E06FE0",
"!@	c #DD6DE2",
"~@	c #E06AC1",
"{@	c #DF675E",
"]@	c #E26762",
"^@	c #E1675F",
"/@	c #E2685E",
"(@	c #AD6792",
"_@	c #5E6AE1",
":@	c #5D66DE",
"<@	c #5F69E1",
"[@	c #5C68E2",
"}@	c #50567E",
"|@	c #4F4F4D",
"1@	c #4D4D4B",
"2@	c #4C4C4A",
"3@	c #363635",
"4@	c #8B8B8B",
"5@	c #E0E1E1",
"6@	c #DFE1C3",
"7@	c #E0E65C",
"8@	c #DEE459",
"9@	c #E0E65B",
"0@	c #E1E75B",
"a@	c #9EE598",
"b@	c #58E8DB",
"c@	c #58E6DB",
"d@	c #58E8DD",
"e@	c #5CE48A",
"f@	c #62E25D",
"g@	c #61E359",
"h@	c #60E258",
"i@	c #62E060",
"j@	c #D679D2",
"k@	c #E06DDD",
"l@	c #E06EDE",
"m@	c #DF6EDF",
"n@	c #DE6DBD",
"o@	c #E06863",
"p@	c #E2675D",
"q@	c #DC6867",
"r@	c #B36590",
"s@	c #5F67E0",
"t@	c #6167E0",
"u@	c #6066E1",
"v@	c #5F6BDC",
"w@	c #545383",
"x@	c #4C4C4B",
"y@	c #4D4D4C",
"z@	c #4B4B4A",
"A@	c #D6D6D6",
"B@	c #DFDFDF",
"C@	c #DFE0E1",
"D@	c #DFE2BE",
"E@	c #DEE955",
"F@	c #E1E65A",
"G@	c #E2E555",
"H@	c #9CE599",
"I@	c #53E9DA",
"J@	c #58E7DA",
"K@	c #59E8DE",
"L@	c #5DE487",
"M@	c #5FE059",
"N@	c #5FE159",
"O@	c #5EE359",
"P@	c #60E15A",
"Q@	c #DA76D7",
"R@	c #DF6EE2",
"S@	c #DF6EE1",
"T@	c #DD6DDF",
"U@	c #E06CC0",
"V@	c #E0675D",
"W@	c #DF695F",
"X@	c #E0695D",
"Y@	c #DE695F",
"Z@	c #AF6A95",
"`@	c #5D68DF",
" #	c #5F68DF",
".#	c #6169E0",
"+#	c #5E68E0",
"@#	c #53577E",
"##	c #4D4D4D",
"$#	c #4C4C4C",
"%#	c #D0D0CF",
"&#	c #5E5E5E",
"*#	c #636365",
"=#	c #686A55",
"-#	c #787D3B",
";#	c #7A7C3C",
">#	c #7B7D3D",
",#	c #878848",
"'#	c #6A8A6A",
")#	c #488C84",
"!#	c #4D8E88",
"~#	c #4E8C8B",
"{#	c #5F9B6E",
"]#	c #669F66",
"^#	c #669F65",
"/#	c #6FA96C",
"(#	c #72B071",
"_#	c #AC7CAD",
":#	c #B382B6",
"<#	c #C08FC3",
"[#	c #C28FC5",
"}#	c #C691B6",
"|#	c #CE9C93",
"1#	c #CD9D95",
"2#	c #CF9F96",
"3#	c #E2B0A7",
"4#	c #CBB2C3",
"5#	c #ADB2E4",
"6#	c #B0B4E6",
"7#	c #B1B5E7",
"8#	c #B1B4E8",
"9#	c #525564",
"0#	c #272727",
"a#	c #282828",
"b#	c #838381",
"c#	c #181818",
"d#	c #141414",
"e#	c #1A1A1A",
"f#	c #171718",
"g#	c #1E1E1E",
"h#	c #38363D",
"i#	c #363636",
"j#	c #373635",
"k#	c #4B4D51",
"l#	c #4C4C4F",
"m#	c #4D4B47",
"n#	c #4E5354",
"o#	c #545155",
"p#	c #686765",
"q#	c #746F72",
"r#	c #6E7172",
"s#	c #817D7D",
"t#	c #8A878B",
"u#	c #86898C",
"v#	c #939190",
"w#	c #A9A9A9",
"x#	c #AAA6A9",
"y#	c #ABAEA6",
"z#	c #BFC1BF",
"A#	c #BDC1C3",
"B#	c #C5C3C0",
"C#	c #DEDEE3",
"D#	c #DEDFDF",
"E#	c #E1DEDF",
"F#	c #E4E3E5",
"G#	c #E6E5E4",
"H#	c #E6E6E3",
"I#	c #545457",
"J#	c #101010",
"K#	c #0E0E0E",
"L#	c #2F2F2E",
"M#	c #949494",
"N#	c #2A2A2A",
"O#	c #2F2F2F",
"P#	c #2D2D2D",
"Q#	c #323232",
"R#	c #3F3F3F",
"S#	c #4C494C",
"T#	c #4C724D",
"U#	c #786877",
"V#	c #6A736A",
"W#	c #667766",
"X#	c #7B6C7C",
"Y#	c #687F67",
"Z#	c #74746F",
"`#	c #809A6B",
" $	c #799B95",
".$	c #8D9C7A",
"+$	c #91A58E",
"@$	c #87AD97",
"#$	c #A0AA8C",
"$$	c #91B39F",
"%$	c #A6BFA5",
"&$	c #ADC29C",
"*$	c #9FB7B0",
"=$	c #AFA0B2",
"-$	c #B79FA5",
";$	c #A6A2B9",
">$	c #CDB1B3",
",$	c #BBB2C5",
"'$	c #BFB1C7",
")$	c #CFB9B9",
"!$	c #B6B4B7",
"~$	c #ABABAB",
"{$	c #2C2C2C",
"]$	c #6E6E6E",
"^$	c #4B4B4B",
"/$	c #7E6C7D",
"($	c #79CC7A",
"_$	c #BC90B9",
":$	c #A0A89C",
"<$	c #8DBB8C",
"[$	c #BA90BA",
"}$	c #86C080",
"|$	c #A5A4A0",
"1$	c #B3E762",
"2$	c #80E6B7",
"3$	c #AEE88C",
"4$	c #A7E98D",
"5$	c #84E2BA",
"6$	c #BEE67E",
"7$	c #83E8B6",
"8$	c #9DE599",
"9$	c #C0E585",
"0$	c #7ECFB3",
"a$	c #A36896",
"b$	c #AF6898",
"c$	c #8468BD",
"d$	c #C0677F",
"e$	c #9567B1",
"f$	c #9567AD",
"g$	c #BD6C89",
"h$	c #6D6584",
"i$	c #CDCDCD",
"j$	c #707070",
"k$	c #626262",
"l$	c #727272",
"m$	c #717171",
"n$	c #636564",
"o$	c #9F889E",
"p$	c #8FC58C",
"q$	c #C5A7C2",
"r$	c #AFB8B0",
"s$	c #A2C4A0",
"t$	c #C5A5C1",
"u$	c #A2C49C",
"v$	c #B1B4AF",
"w$	c #A2C171",
"x$	c #7BB99D",
"y$	c #95B884",
"z$	c #95BE88",
"A$	c #7EB797",
"B$	c #A1BE7F",
"C$	c #80BF9C",
"D$	c #88BA8C",
"E$	c #9CBA7C",
"F$	c #7AA398",
"G$	c #81617D",
"H$	c #885D77",
"I$	c #706094",
"J$	c #935F66",
"K$	c #775C88",
"L$	c #7C5E86",
"M$	c #996272",
"N$	c #73728C",
"O$	c #4F4E4E",
"P$	c #8B908A",
"Q$	c #A6A2A1",
"R$	c #B4B8B6",
"S$	c #B8B8B2",
"T$	c #B9B6B9",
"U$	c #B3B9B7",
"V$	c #B9B7B4",
"W$	c #B8BBB8",
"X$	c #716D6F",
"Y$	c #484E4E",
"Z$	c #494E4E",
"`$	c #5E5C5D",
" %	c #515149",
".%	c #5C5958",
"+%	c #605D5E",
"@%	c #504D4F",
"#%	c #494D49",
"$%	c #413F3F",
"%%	c #0E110E",
"&%	c #101013",
"*%	c #0F170C",
"=%	c #181516",
"-%	c #141C15",
";%	c #161817",
">%	c #111512",
",%	c #3A3B39",
"'%	c #383838",
")%	c #B1B1B1",
"!%	c #7D797A",
"~%	c #717174",
"{%	c #7B7878",
"]%	c #7D7E7F",
"^%	c #7C7775",
"/%	c #7E7E7F",
"(%	c #7C7E80",
"_%	c #5A5B56",
":%	c #534F4D",
"<%	c #504C4A",
"[%	c #696868",
"}%	c #626269",
"|%	c #6E6E71",
"1%	c #6B686B",
"2%	c #514E50",
"3%	c #524D4F",
"4%	c #434841",
"5%	c #3E393A",
"6%	c #454440",
"7%	c #3E3D41",
"8%	c #393836",
"9%	c #3E3B39",
"0%	c #383837",
"a%	c #393638",
"b%	c #545558",
"c%	c #3C3C3C",
"d%	c #454348",
"e%	c #2E2D2C",
"f%	c #0F0E10",
"g%	c #131516",
"h%	c #151615",
"i%	c #191817",
"j%	c #181718",
"k%	c #121213",
"l%	c #393C3B",
"m%	c #4C4C4D",
"n%	c #60605F",
"o%	c #54534E",
"p%	c #5F5E5C",
"q%	c #5C6060",
"r%	c #4A4E4D",
"s%	c #4F4B4D",
"t%	c #676266",
"u%	c #B3B6B2",
"v%	c #B5B4B5",
"w%	c #B3B4B1",
"x%	c #B4B7B4",
"y%	c #B4B6B3",
"z%	c #B3B6B4",
"A%	c #989A97",
"B%	c #CBCBCB",
"C%	c #737373",
"D%	c #646364",
"E%	c #5A5D5F",
"F%	c #424D61",
"G%	c #363F51",
"H%	c #334248",
"I%	c #2F4546",
"J%	c #2D4646",
"K%	c #2E4A47",
"L%	c #2F4849",
"M%	c #516863",
"N%	c #5A766E",
"O%	c #5B7768",
"P%	c #67836D",
"Q%	c #5C7A5D",
"R%	c #668166",
"S%	c #6E8368",
"T%	c #6A7759",
"U%	c #68775C",
"V%	c #81896C",
"W%	c #C3C3A7",
"X%	c #C2C3A8",
"Y%	c #C2BEAD",
"Z%	c #BFBBA9",
"`%	c #C1B7AA",
" &	c #BCB1A9",
".&	c #C1A9A8",
"+&	c #A49694",
"@&	c #646461",
"#&	c #727172",
"$&	c #454C81",
"%&	c #0726D2",
"&&	c #0A4DDE",
"*&	c #0976D9",
"=&	c #0A9FDA",
"-&	c #0CC4DC",
";&	c #0AE1D3",
">&	c #09E6C5",
",&	c #0AE3A4",
"'&	c #0AE57B",
")&	c #0BE451",
"!&	c #09E429",
"~&	c #09E60B",
"{&	c #0EE109",
"]&	c #2DE507",
"^&	c #56E509",
"/&	c #80E50B",
"(&	c #ABE20C",
"_&	c #CFE10C",
":&	c #D5DF05",
"<&	c #D8BE06",
"[&	c #D69408",
"}&	c #D96A09",
"|&	c #DA4306",
"1&	c #D81B06",
"2&	c #A03D3B",
"3&	c #5D5B5C",
"4&	c #C0C0C0",
"5&	c #51566A",
"6&	c #1E37C8",
"7&	c #1A56C8",
"8&	c #1976CA",
"9&	c #1999CD",
"0&	c #0EADBE",
"a&	c #11C9B6",
"b&	c #11C9B4",
"c&	c #10CA95",
"d&	c #12C979",
"e&	c #10C951",
"f&	c #15D333",
"g&	c #16D31C",
"h&	c #1ACF17",
"i&	c #34D017",
"j&	c #55D016",
"k&	c #6DC80E",
"l&	c #96C80F",
"m&	c #B4C60F",
"n&	c #BABF10",
"o&	c #BEA50E",
"p&	c #BE8710",
"q&	c #C96A18",
"r&	c #C84D1C",
"s&	c #CF2B21",
"t&	c #84504E",
"u&	c #424242",
"v&	c #858585",
"w&	c #8B8B8A",
"x&	c #959593",
"y&	c #929291",
"z&	c #777883",
"A&	c #76787F",
"B&	c #777D80",
"C&	c #6D7778",
"D&	c #626D6B",
"E&	c #505D57",
"F&	c #525F5E",
"G&	c #53605A",
"H&	c #515D55",
"I&	c #69756C",
"J&	c #707E72",
"K&	c #707F6F",
"L&	c #747E75",
"M&	c #767E72",
"N&	c #747C72",
"O&	c #6A7262",
"P&	c #585D4E",
"Q&	c #5C5F53",
"R&	c #5C5F54",
"S&	c #56574B",
"T&	c #78736B",
"U&	c #7F7B74",
"V&	c #827973",
"W&	c #817878",
"X&	c #6D6B6C",
"Y&	c #959595",
"Z&	c #8A8A8A",
"`&	c #888888",
" *	c #8F8F8E",
".*	c #979894",
"+*	c #98988E",
"@*	c #686864",
"#*	c #7D7E75",
"$*	c #7D7F77",
"%*	c #7C7F76",
"&*	c #737874",
"**	c #58595B",
"=*	c #585C59",
"-*	c #585C56",
";*	c #545752",
">*	c #666965",
",*	c #787B79",
"'*	c #777D75",
")*	c #7D787F",
"!*	c #807981",
"~*	c #7D747C",
"{*	c #645F64",
"]*	c #5B5759",
"^*	c #5D5955",
"/*	c #605857",
"(*	c #575452",
"_*	c #6C6764",
":*	c #7B7677",
"<*	c #79797E",
"[*	c #747A80",
"}*	c #67696B",
"|*	c #6D6E74",
"1*	c #858687",
"2*	c #909090",
"3*	c #939393",
"4*	c #878787",
"5*	c #AEAEAE",
"6*	c #B3B3B3",
"7*	c #B5B4B4",
"8*	c #BBBD93",
"9*	c #D5DA1D",
"0*	c #CCD516",
"a*	c #D0DA18",
"b*	c #CFD818",
"c*	c #7FC463",
"d*	c #1EB5C2",
"e*	c #18B4B9",
"f*	c #17B3B7",
"g*	c #19B6B7",
"h*	c #13CC4F",
"i*	c #13D513",
"j*	c #13D511",
"k*	c #17D916",
"l*	c #17D814",
"m*	c #C35BC4",
"n*	c #D052CE",
"o*	c #CF51CD",
"p*	c #CC4FC8",
"q*	c #CE41A7",
"r*	c #CF1414",
"s*	c #CE1311",
"t*	c #D01210",
"u*	c #D01411",
"v*	c #891658",
"w*	c #111AD0",
"x*	c #0F1BD0",
"y*	c #0D1AD0",
"z*	c #0A18CD",
"A*	c #181A5B",
"B*	c #1D1D1D",
"C*	c #1C1C1C",
"D*	c #3E3E3E",
"E*	c #BBBBBB",
"F*	c #B9B8B7",
"G*	c #BEC38A",
"H*	c #D9E504",
"I*	c #DDE303",
"J*	c #DCE202",
"K*	c #DBE305",
"L*	c #79D25A",
"M*	c #0AC0C7",
"N*	c #0BBFCA",
"O*	c #0CC0CA",
"P*	c #0CC1C8",
"Q*	c #06DA4C",
"R*	c #05E706",
"S*	c #05E806",
"T*	c #08E605",
"U*	c #03EA05",
"V*	c #C957CD",
"W*	c #D94CE4",
"X*	c #D84BE2",
"Y*	c #D74BDD",
"Z*	c #DE3FB3",
"`*	c #E50908",
" =	c #E60805",
".=	c #E50708",
"+=	c #E40903",
"@=	c #8A0A58",
"#=	c #0210E8",
"$=	c #0210E7",
"%=	c #010FE7",
"&=	c #0211E5",
"*=	c #070F55",
"==	c #111111",
"-=	c #B2B2B2",
";=	c #B9B8BA",
">=	c #BFC28F",
",=	c #DAE304",
"'=	c #DDE604",
")=	c #DBE403",
"!=	c #DDE405",
"~=	c #79D15A",
"{=	c #0AC2C6",
"]=	c #0CBFC9",
"^=	c #0DBFC9",
"/=	c #0EC0CB",
"(=	c #07DA4C",
"_=	c #04E603",
":=	c #05E703",
"<=	c #05E603",
"[=	c #06E705",
"}=	c #CA57D1",
"|=	c #DA4CDF",
"1=	c #D94BDF",
"2=	c #DB4ADD",
"3=	c #D93DB5",
"4=	c #E60709",
"5=	c #E80507",
"6=	c #E90609",
"7=	c #E50A06",
"8=	c #8D0B5A",
"9=	c #0210EA",
"0=	c #010FEA",
"a=	c #020FE8",
"b=	c #020DE7",
"c=	c #0A0F55",
"d=	c #0F0F0F",
"e=	c #161616",
"f=	c #B5B6B9",
"g=	c #C4C591",
"h=	c #D9E112",
"i=	c #D9DF06",
"j=	c #DAE107",
"k=	c #DDE30D",
"l=	c #7FD06C",
"m=	c #14C5CC",
"n=	c #0FC1C5",
"o=	c #10C2C7",
"p=	c #15C3CD",
"q=	c #0DDA4F",
"r=	c #0BE60C",
"s=	c #0DE80B",
"t=	c #0DE90C",
"u=	c #11E115",
"v=	c #CB62CB",
"w=	c #DC52DE",
"x=	c #D84EDA",
"y=	c #DC51E0",
"z=	c #E243B3",
"A=	c #E30E10",
"B=	c #E71411",
"C=	c #E61210",
"D=	c #E51013",
"E=	c #93145F",
"F=	c #0E1BE6",
"G=	c #0A17E4",
"H=	c #0B15E6",
"I=	c #0B18E3",
"J=	c #161C62",
"K=	c #191919",
"L=	c #212121",
"M=	c #3D3D3D",
"N=	c #9E9FA0",
"O=	c #DDDED1",
"P=	c #CECCA0",
"Q=	c #60633F",
"R=	c #494D29",
"S=	c #E4E5C2",
"T=	c #BECEBA",
"U=	c #C2E2E1",
"V=	c #425A61",
"W=	c #50696F",
"X=	c #C8E0E4",
"Y=	c #517057",
"Z=	c #3C5E39",
"`=	c #C3E5C2",
" -	c #638763",
".-	c #1D4617",
"+-	c #DCCCE1",
"@-	c #AF9BB4",
"#-	c #402C45",
"$-	c #C4ACC4",
"%-	c #BFABC1",
"&-	c #40221E",
"*-	c #AA8A8B",
"=-	c #D9B8B5",
"--	c #462925",
";-	c #82727B",
">-	c #C7CCE8",
",-	c #3B405D",
"'-	c #3D415F",
")-	c #ABB0C7",
"!-	c #C8C8D2",
"~-	c #303030",
"{-	c #6C6C6C",
"]-	c #E4E4E4",
"^-	c #E2E3E3",
"/-	c #E2E4E1",
"(-	c #E2E2E5",
"_-	c #CAC9C8",
":-	c #3A3837",
"<-	c #E2E3E1",
"[-	c #7F8281",
"}-	c #B0B2AF",
"|-	c #363938",
"1-	c #4B4E4D",
"2-	c #DFE3E2",
"3-	c #4E5050",
"4-	c #353934",
"5-	c #DEE2DE",
"6-	c #646764",
"7-	c #140F14",
"8-	c #DADAD7",
"9-	c #9E9F9F",
"0-	c #101111",
"a-	c #B9B9BB",
"b-	c #B8B4B3",
"c-	c #121111",
"d-	c #959494",
"e-	c #CDCED0",
"f-	c #3B3431",
"g-	c #CCCBCC",
"h-	c #E5E3E3",
"i-	c #434241",
"j-	c #C0BFBD",
"k-	c #E4E3E4",
"l-	c #E2E4E6",
"m-	c #9B9B9B",
"n-	c #747474",
"o-	c #D5D5D5",
"p-	c #7E7E7E",
"q-	c #ADADAD",
"r-	c #757575",
"s-	c #C5C5C5",
"t-	c #777777",
"u-	c #AAAAAA",
"v-	c #818181",
"w-	c #808080",
"x-	c #8E8E8E",
"y-	c #393939",
"z-	c #B5B5B5",
"A-	c #E5E5E5",
"B-	c #7B7B7B",
"C-	c #828282",
"D-	c #D2D2D2",
"E-	c #7D7D7D",
"F-	c #8F8F8F",
"G-	c #9F9F9F",
"H-	c #9E9E9E",
"I-	c #A3A3A3",
"J-	c #404040",
"K-	c #B9B9B9",
"L-	c #7C7C7C",
"M-	c #C3C3C3",
"N-	c #A2A2A2",
"O-	c #B6B6B6",
"P-	c #BCBCBC",
"Q-	c #767676",
"R-	c #979797",
"S-	c #969696",
"T-	c #C2C2C2",
"U-	c #C8C8C8",
"V-	c #848484",
"W-	c #ACACAC",
"X-	c #A6A6A6",
"Y-	c #9D9D9D",
"Z-	c #9C9C9C",
"`-	c #232323",
" ;	c #333333",
".;	c #202020",
"+;	c #252525",
"@;	c #242424",
"#;	c #222222",
"$;	c #1F1F1F",
"%;	c #434343",
"  . + @ # $ @ % & * = - ; > , ' ) . ! ~ { ] ^ / ( _ : < [ } | 1 2 & 3 4 5 6 ~ _ ",
"7 8 9 / 0 a b c # d e f g h i j j k 9 l m n o # # l n p # e q r s 4 t u e 9 o < ",
"v w j x y @ a z A 8 e B C D E F # p G w H I J n K E F L l F E + M N O P Q D R S ",
"i 8 T U V W X Y Z `  ...+.@.#.$.X %.U &.*.=.-.;.>.` ,.'.g $.).!.~.{.;.].^./.(._.",
":.<.[.U }.|.1.2.3.4.5.#.6.7.8.9.0.a.b.a.c.d.7.0.e.f.'...(.'.4.=.g.h.i.j.k.l.m.0.",
"n.# o.p.q.r.s.Z t.).@.g $.u.v.N w.5.x.y.$.z.g 0.k.A.B.C.5.@.D.E.l.F.G.H.I.> ` #.",
"J.p K.L.+.D.M.B.N.O.5.#.u.I.P.P.Q.e.U R.S.v T.U.^.^.^.V.` g O.2.W.D.X.Y.Z.`.O. +",
"9 d .+9.=.++++@+#+..>.$+%+&+A A W *+=+-+;+A A >+8.=+{.X ,+@.D.%+*.U 0.'+)+!+).~+",
"{+5 ]+K '+k.^+/+(+_+:+<+[+}+|+1+2+3+|+4+5+6+7+8+9+0+a+b+c+d+e+f+g+h+i+j+k+D.l+=.",
"m+n+o+p+q+r+s+t+u+v+w+x+y+z+A+B+C+D+E+F+G+H+I+J+K+L+M+N+O+P+Q+R+S+T+U+>.'.V+y.W+",
"X+P t t Y+Z+`+ @.@+@@@#@$@%@&@*@=@-@;@>@,@'@)@!@~@{@]@^@/@(@_@:@<@[@}@|@1@2@}.3@",
"4@^ t t 5@6@7@8@9@0@a@b@c@%@d@e@f@g@h@i@j@k@l@m@n@o@^@p@q@r@s@t@u@v@w@x@y@z@y@/.",
"| A@t B@C@D@E@F@F@G@H@I@J@b@K@L@M@N@O@P@Q@R@S@T@U@V@W@X@Y@Z@`@ #.#+#@#####$#$#%#",
"s &## 9 *#=#-#;#>#,#'#)#!#!#~#{#]#^#/#(#_#:#<#[#}#|#1#2#3#4#5#6#7#8#9#0#0#a#0#b#",
"v c#d#e#f#g#h#i#j#k#l#m#n#o#R p#q#r#s#t#u#v#w#x#y#z#A#B#C#D#E#F#G#H#I#J#J#K#J#L#",
"M#N#O#P#Q#{+R#S#T#U#V#W#X#Y#Z#`# $.$+$@$#$$$%$&$*$=$-$;$>$,$'$)$!$~$J {$a#P#0#]$",
"{+5 l ^$w d ##/$($_$:$<$[$}$|$1$2$3$4$5$6$7$8$9$0$a$b$c$d$e$f$g$h$##&#o { &###i$",
"$ n j$k$l$m$n$o$p$q$r$s$t$u$v$w$x$y$z$A$B$C$D$E$F$G$H$I$J$K$L$M$N$9 l$j$e m$n ' ",
"J.q d ##w d O$P$Q$R$S$T$U$V$W$X$Y$Z$`$ %.%+%@%#%$%%%&%*%=%-%;%>%,%^$d 8 3+d ^$'%",
")%9 ]$m r ]$# !%~%{%]%% ^%/%(%_%:%<%[%}%|%1%2%3%4%5%6%7%8%9%0%a%b%# r ]$j r # m ",
"c%$#&#<.m &#<.d%e%f%g%h%i%j%k%l%m%x@n%o%p%q%r%s%t%u%v%x w%x%y%z%A%|@m l q L q B%",
"<.m l$n C%j$D%E%F%G%H%I%J%K%L%M%N%O%P%Q%R%S%T%U%V%W%X%Y%Z%`% &.&+&@&#&]$j j$j 0 ",
"J.( d ##&#d { $&%&&&*&=&-&;&>&,&'&)&!&~&{&]&^&/&(&_&:&<&[&}&|&1&2&|@3&o i w $#'%",
"4&<.H p e V+D.5&6&7&8&9&0&a&b&c&d&e&f&g&h&i&j&k&l&m&n&o&p&q&r&s&t&R / / # e o $#",
"u&/ = v&w&x&y&h z&A&B&C&D&E&F&G&H&I&J&K&L&M&N&O&P&Q&R&S&T&U&V&W&X&+ c M#Y&Z&! B%",
"S w M#`& *.*+*@*#*$*%*&*a+**=*-*;*>*,*'*)*!*~*{*]*^*/*(*_*:*<*[*}*|*1*2*3*4*c [ ",
"J.5*6*x 7*8*9*0*a*b*c*d*e*f*g*h*i*j*k*l*m*n*o*p*q*r*s*t*u*v*w*x*y*z*A*B*B*C*C*D*",
"z E*2 n.F*G*H*I*J*K*L*M*N*O*P*Q*R*S*T*U*V*W*X*Y*Z*`* =.=+=@=#=$=%=&=*=J#J#===='%",
"p -=n.n.;=>=,='=)=!=~={=]=^=/=(=_=:=<=[=}=|=1=2=3=4=5=6=7=8=9=0=a=b=c=J#d===e=x ",
"| 6*n.n.f=g=h=i=j=k=l=m=n=o=p=q=r=s=t=u=v=w=x=y=z=A=B=C=D=E=F=G=H=I=J=c#c#K=L=B%",
"4&~ 3*M=N=O=P=Q=R=S=T=U=V=W=X=Y=Z=`= -.-+-@-#-$-%-&-*-=---;->-,-'-)-!-M#~-m$T.{-",
"X+]-6 ! ^-/-(-_-:-<-[-}-|-1-2-3-4-5-6-7-8-9-0-a-b-c-d-e-f-g-h-i-j-k-l-X+m-C%O ##",
"/ n-`&o-Z&6 p-o+q-r-n-{-2 4 ]-v B%X+M   O b   y y s-_ M r s t-u-p+v-w-4*P x-t-~$",
"'%$#M#E*< S y-z-M <.k$k t-* P.A-J.B-s B-C-C-% D-]-]-z E-E # <.T.F-c%u&$#]-G-q v ",
"H-# I-o-J-c%P#K-y # r 9 $ L-u-B@* n m$n ] j$# * O )%p-H j r &#J.w#P#M=| ]-5*m j$",
"o-R : M-r l$n-0 o+{ w q 8 # ##+ 3 N-z--=O-x N-' B-3+d ( ( &#{ P-} G ]$r-O F-$#'%",
"6 9 Q-7 o+M-s-z R-e n-H ]$Q-k$m$]$] c v&4@c ]$j$C%9 j${-/ m$k$S-o-T-M-U-J.L-k$2*",
"{+& d n-^ A-]-w## { L R 8 k$##w o i w 3+l &#<.o d { L 8 ( &###G G-P ]-@ 6 w 3+v ",
"V-( A u-B-m-v + l m+v&k G-M#R 3*I-J v&W-&#m$W-$ k$~$p-o X-! R Y-Z-t-E*n+( E-u-2*",
"l$`-u&A ~- ;+ R#L=A ^$`-G l .;o {-+;$#L-@;y-B-Q#{$A | +;m$( #;k$n $;R j$`-%;+ P#"};
