/* XPM */
static char *texmodule_xpm[] = {
/* width height num_colors chars_per_pixel */
"    40    40      256            2",
/* colors */
"`` c #161215",
"`. c #8c8a47",
"`# c #bcca9c",
"`a c #444e28",
"`b c #bc9c5c",
"`c c #7f6038",
"`d c #b4aa52",
"`e c #7c7737",
"`f c #9c8d3b",
"`g c #fcea8c",
"`h c #1c2e2c",
"`i c #c1b35f",
"`j c #a38c65",
"`k c #9c7a44",
"`l c #44725c",
"`m c #9c9a54",
"`n c #44321c",
"`o c #604f28",
"`p c #dcb85c",
"`q c #dce8dc",
"`r c #ecece8",
"`s c #b4c6bc",
"`t c #7c8684",
"`u c #838243",
"`v c #bcb294",
"`w c #ac8b47",
"`x c #5c6230",
"`y c #211f13",
"`z c #7c6c38",
"`A c #bca074",
"`B c #204038",
"`C c #44411e",
"`D c #bcbe68",
"`E c #bca752",
"`F c #8c7841",
"`G c #a49a64",
"`H c #9c834a",
"`I c #ecf8fb",
"`J c #8c6d3c",
"`K c #dfc65f",
"`L c #e3f4fc",
"`M c #c8d8c4",
"`N c #2c2018",
"`O c #ad9b49",
"`P c #dcd67c",
"`Q c #ac9344",
"`R c #6c602e",
"`S c #ccb664",
"`T c #d4e7fb",
"`U c #93784e",
"`V c #9c8d54",
"`W c #d0aa4c",
"`X c #6c4e24",
"`Y c #5f4527",
"`Z c #9c8456",
"`0 c #ccd9ef",
"`1 c #949b57",
"`2 c #3c625c",
"`3 c #372f11",
"`4 c #8c843d",
"`5 c #ac9c6c",
"`6 c #fcfaf8",
"`7 c #e4e9f2",
"`8 c #251a16",
".` c #716f36",
".. c #dcc684",
".# c #b1a44a",
".a c #716831",
".b c #ccb270",
".c c #c9c08e",
".d c #816d44",
".e c #393f19",
".f c #c3a966",
".g c #8e724d",
".h c #ecc664",
".i c #af9558",
".j c #d3dfe7",
".k c #afa26c",
".l c #141718",
".m c #4c562c",
".n c #a0b288",
".o c #ac906a",
".p c #44371f",
".q c #61572b",
".r c #f4c25c",
".s c #f2f2ea",
".t c #1c2814",
".u c #312812",
".v c #8c864c",
".w c #798b8c",
".x c #dcbd7a",
".y c #444a24",
".z c #8e7e40",
".A c #f3fefc",
".B c #8e7240",
".C c #dfd17c",
".D c #9c9254",
".E c #7c6647",
".F c #9c7e56",
".G c #7c7238",
".H c #ac8654",
".I c #344834",
".J c #d4a244",
".K c #ae8d56",
".L c #f4f8f8",
".M c #dceefc",
".N c #937e4e",
".O c #a48558",
".P c #343a24",
".Q c #748488",
".R c #71683f",
".S c #d1ba79",
".T c #dce1e7",
".U c #948c46",
".V c #bda067",
".W c #826637",
".X c #7c7a50",
".Y c #a19544",
".Z c #9e7e47",
".0 c #ccb384",
".1 c #846b38",
".2 c #c2ac7a",
".3 c #ccbe5c",
".4 c #947741",
".5 c #ac844b",
".6 c #dec96f",
".7 c #b0a458",
".8 c #1c1916",
"#` c #31281d",
"#. c #94baa4",
"## c #547e58",
"#a c #d4d6ac",
"#b c #7c9a6c",
"#c c #c4cec4",
"#d c #ecd880",
"#e c #4f5e31",
"#f c #5c6e44",
"#g c #747f49",
"#h c #d0ca84",
"#i c #3c4e4c",
"#j c #b4aa6c",
"#k c #a4a68c",
"#l c #acba94",
"#m c #b4aa8c",
"#n c #87a374",
"#o c #2c2f1d",
"#p c #244a34",
"#q c #bccee4",
"#r c #ccd2d4",
"#s c #5c6e6c",
"#t c #dcd2a4",
"#u c #d4c18f",
"#v c #ccae74",
"#w c #d4dbd4",
"#x c #6c5829",
"#y c #f4d274",
"#z c #d4c6a4",
"#A c #dcc161",
"#B c #41593f",
"#C c #b0b470",
"#D c #dcdaa0",
"#E c #a49367",
"#F c #a1a564",
"#G c #543020",
"#H c #2c3e44",
"#I c #544228",
"#J c #cdad6b",
"#K c #afa47f",
"#L c #543a24",
"#M c #bcae94",
"#N c #d4c07c",
"#O c #8c9254",
"#P c #1c3634",
"#Q c #bcba74",
"#R c #c4ba98",
"#S c #5f4a21",
"#T c #74763c",
"#U c #54492a",
"#V c #94924c",
"#W c #ccba94",
"#X c #bfa24c",
"#Y c #7f7e3f",
"#Z c #a4a25c",
"#0 c #dceedc",
"#1 c #646634",
"#2 c #c0ae54",
"#3 c #d0ba5d",
"#4 c #505a34",
"#5 c #ecde84",
"#6 c #54765c",
"#7 c #848e5c",
"#8 c #bfb671",
"a` c #808450",
"a. c #22201d",
"a# c #ccd6dc",
"aa c #b19b5a",
"ab c #362f1d",
"ac c #6c724c",
"ad c #ccc09f",
"ae c #393f27",
"af c #d3e2fa",
"ag c #5f593a",
"ah c #745838",
"ai c #e4fafc",
"aj c #82724a",
"ak c #c2ae68",
"al c #b19669",
"am c #5c865c",
"an c #a4c29c",
"ao c #bccebc",
"ap c #fcfefb",
"aq c #e4eef7",
"ar c #eef2f7",
"as c #dcc26c",
"at c #2c361c",
"au c #604a30",
"av c #ecca7c",
"aw c #7c9e84",
"ax c #847644",
"ay c #a48e34",
"az c #24301c",
"aA c #a47a44",
"aB c #a49c55",
"aC c #e4ba5c",
"aD c #e4eae4",
"aE c #f4eee4",
"aF c #c4b48c",
"aG c #64602f",
"aH c #4c4125",
"aI c #c4a65c",
"aJ c #a4854b",
"aK c #946e3c",
"aL c #b49547",
"aM c #746032",
"aN c #d4b45c",
"aO c #dce8f9",
"aP c #a48b56",
"aQ c #745234",
"aR c #d4dae6",
"aS c #44664c",
"aT c #94863e",
"aU c #b49b69",
"aV c #d4b472",
"aW c #54542c",
"aX c #4c3724",
"aY c #242917",
"aZ c #948455",
"a0 c #a49554",
"a1 c #3c4624",
"a2 c #3c381f",
"a3 c #d4bf64",
"a4 c #cccab4",
"a5 c #f4d678",
"a6 c #e4c254",
"a7 c #bca67c",
"a8 c #b4b284",
/* pixels */
"`VaZ.O.o.KaPaPaP.o.OaP`U.F`Z.F.N.B`U`U`U`U`U`U`U.g.g.g`k`U.g.g.B`k`U`U.g`U`U.B.E",
".K.1aJaAaJ.5.5aJaA.Z.5.O.5.O.5.5.H.5`w.5.K.K.K.K.5`w.K.K.K.5.5.HaAaA`k`k.BaK.B.R",
".OaK.V#8#N#N#N.b.S.baV.b.x#J#J#vaV#v.f#v#J#JaVaV#J#v#J#J#J#J#J#J.f#JaI#vaI.f`Z.d",
".K.B`w.2.2.V`A.V`A`AaUal.o`j`j.O`Z`j.O`j.O`j`j`j.O`j`Z`j#E.O.o`j.o.o.o.oal`H`Z.a",
".K.B.kapapap`6aD.Lapap`6.L`r`r`rarar`6`6apapap`6.L.L.jaf.T`I.L`I`7.jaR.j.j#K`Uah",
".K`J.0`6apapap.s`rapapapap.s`r.sar#w.Tapapapap`6.L`6.T`0af.jaq.Lar`7.jaRa##K`kaM",
".K.1a7apapapapap`6.sapapapapap.s`r`r.j.japapapap`6`6.L`7`0#q`0`L`6.Lar.T#w#m.FaM",
".K`Ua7apapapapapapapapapapapap`6.s.L`r`7.Lapapapapapapap.A.L`I`6apapar`7aRa7`Uah",
".K`J.2apapapapapapapapapapapapap`6.L.sar`6apapapapapapapapapapapapapap.L.T#M`Z.d",
".K.1.2ap`6apapapapapapapapapapapap`6`6`I`6apapapapapapapapapapapapapap`6aqaF`Zaj",
".K`J.0apapapapapap`6`6apapapapapapapap.sapapapapapapapapapapapapapapapapap#R.N.d",
".i`JaF`6apapapapap`6apapapapapapapapapap.L.Aapapapapapapap`6`6apapapapapap#W`H.W",
".i`J.0apap`6.L`6ap`6apapapapapapapapapapap.L.A.A`I`I.L.A.L`I`6apapapapapapad.O.1",
"aaaK#u.L`I.L`L`7.L`6apap`6apap`6.L.L`6.Lap`I.L.L`Lai`I.A.A.A.Aapapapapapapad.K.B",
".iaK#W.Laq`LaO`TaO`Iap.L`7aq`I`LaraOaOafaqap.L.L`Iaq`L`L`I`I`Iapapapapapap#uaP`J",
"aa`k.c.s.L`LaO`TafafaO`Lar`7afafaOaO.M`T`Tar.A.A.L`I`L.MaO.M`L`I.Lapapapap#RaP`J",
".VaK#u`r`r.L.L`L`T.M`TaO`T.M`7`Taf`T`T`Taf`TaO`L.L`I`I.L`Iar`L`I.A.Aap`6apad.K.N",
"aI.B#WaD`r.s.s`I`L.M.M.M.M.M.M`T`T`T`T`T`Tafafafaf`TaO.MaO`L`L.M`L`L.LaEapadal`J",
".V`k#u.s.A.L.Lar`7.MaO`L`L.M.M.M.M.M.MaO.Mafafaf`T`Taf`T`0aO.M`Lai`I.s#0`qa8.iaK",
"aaaK#N#t#z`v`##waD.A.L`I`I`I`I`L`L`L`L`L`L`q`M#c#r#r`0#D.c#wao`s`M#a.c`##l#j.i`k",
"`b`k`5.m#4#Bae`B`h`h#H#i#s.Q.Q`t.w.w.Q#kaB`O#Z#V`ua``.`QaT`u#g.n#7#n#ban.n.z.K.g",
".i.Z.k#p#.aw`l`2#p#p#B`2#6####am#b#n#F.U`fayaT`e#YaT.U`f`.`4#T#T#f.m#1ac.G`FaU`J",
".V.Z.k.Paeat.t.e#O#Q#C#F`1#j#Q#N#3.#aB.#`Q`Q`f`O`f`eaGaW`a#4#e.m#e#YaB.D`o.d.i.4",
".V`Ha0.lazaeag.X.a`F`o`3.R.`ag`zaM.a.a`u`4.7a0.q`3#o.taz.y`x#g.U`d`i.7`R`C.zaP.4",
"aU.4.k.l.l````a2agau`C.R`.`UaH.WaTax`ma`ag#4aY#oae`a`x#Y`O#2#3asav`OaM.p#Ta0`w`U",
"aa`k#j``````.l.8a.`y#o.ua2a2`3ae.`a`#h`F#`.yaG.v`Ea3#3`W`p`W`paL.4ah`n`z.#`QaU`J",
"aa`k#K.l.la.a.#`a2#S`oaMaGaW.e`CaG`e.7.7.7`m`da3`K.r.J`p#X`w`J`o.4#UaT#X.Y.Baa`F",
".V.4#K.l`ya.`N`C.a.4`waLaL#2.6#d#5`P#ya5`K`Ka6#A.6.6.6`baKaB`kaX`oay`faT`R.d.i.4",
".V`w#K.l.8a.`N#o`C.a`4`Q.#`P`ga5`i#2#A#A.6a3aN#A#d.C#E`Faa#x`o#U.z`iak.q.p.E.i.d",
".V.4#K.8.8.8`8.paH`Y#x.`#xaT.3.6.#.Y.7.#.Y`O`f`Q.1`X`R`f`c.q`u`m`O.a#U#SaH.EaU.1",
"al.Z.k#o.Pag.8`o.X.R#S`YaX#I.X`e.D#Z.#.UaT`J#S`Yah.p.R#g.q`..U`4`z#Uab`oaH.d.i`H",
"alaJ`5.l#`.Pa2ae#oaY#`.u#`.u.u.u`n#x.q.q`c.WaQau.paH#1`.#j.7`1.UaZ#T.R.W.4.4`O`J",
".i.4#E.l``a.a..l.8`8.8`y`8`8`8aX#I.p#`ab#UaK#G#G`Y.a#VaB`O`Z`U.`#x.`.z`Q.#`w.V.1",
".iaP#Ea..la..l.8.8.8aG`N.8ab```y`8ab#`#U.p`o.B`i#D`D`P`d.7ak#3#h`i.#.##2#3`O.i`J",
"aP.N`j.8.8`y`y.8.l`8`n````#`.l.8`8aYaY#o`yab.q#Y`R`R`D#Q.G.7`D`d.##2#3a3a3aL`b.B",
"aP.ZaZ.8.8a.#`.l.8.8`8````.l.l.8#`#o#``y`NaX.W.W#x`RaGaG.``4.#.#`O#Xa3`Ka3`Q.i.4",
"aP.i.iaZ.O.F.F.Z.N.g`J.W.E.1`c`c.Eah`cah`c.E`c`c.W`c`J.1.1.1`J`JaK`J.1`J.1.W.i.d",
".iaaak...S#N.S.b#N#v#N#v.xaV#v#JaN.baV.b#J.2.Va7aV#JaN.x.xaNaN#J`WaVaI.x#J`E.V.W",
"`V.F`Z.OaP.KaP.K.O.H.K.O.i.OaPaP.K.KaP.O.OaP`Z.O.K.K.K.K.i.K.K.K.5`HaJ.4`H`F`F.d",
"aj`J`U.B`F.g.g`U.g`U.g.g.g.g.gaj`U.gaj`Zaj`U.N`U`Z.F`U`U`U`Z.Z`Z.Z`Z`H.N.N.4`U.d"
};
