/* XPM */
static char * frboutmodule_xpm[] = {
"40 40 168 2",
"  	c None",
". 	c #FCFEFC",
"+ 	c #FCFAF4",
"@ 	c #FCFAFC",
"# 	c #FCFEF4",
"$ 	c #F4F6F4",
"% 	c #F4F2EC",
"& 	c #ECEEEC",
"* 	c #ECEEE4",
"= 	c #ECEAE4",
"- 	c #E4E6E4",
"; 	c #E4EAE4",
"> 	c #F4F6EC",
", 	c #FCF2EC",
"' 	c #CCCAC4",
") 	c #CCCECC",
"! 	c #BCBAB4",
"~ 	c #B4BAB4",
"{ 	c #BCBEB4",
"] 	c #BCBEBC",
"^ 	c #C4C2BC",
"/ 	c #BCC2BC",
"( 	c #C4C2C4",
"_ 	c #C4C6C4",
": 	c #C4CAC4",
"< 	c #D4D2CC",
"[ 	c #CCD2CC",
"} 	c #D4D6D4",
"| 	c #DCDED4",
"1 	c #DCDEDC",
"2 	c #E4E2DC",
"3 	c #F4EEEC",
"4 	c #A49E9C",
"5 	c #DCD2D4",
"6 	c #CCCEC4",
"7 	c #BCBABC",
"8 	c #C4C6BC",
"9 	c #CCC6C4",
"0 	c #DCDAD4",
"a 	c #D4DAD4",
"b 	c #DCDADC",
"c 	c #DCE2DC",
"d 	c #E4E6DC",
"e 	c #C4B6B4",
"f 	c #E4DEDC",
"g 	c #B4B6B4",
"h 	c #B4B2B4",
"i 	c #B4B2AC",
"j 	c #ACAEAC",
"k 	c #ACAAAC",
"l 	c #A4A6A4",
"m 	c #A4A2A4",
"n 	c #9C9E9C",
"o 	c #9C9A9C",
"p 	c #949694",
"q 	c #949294",
"r 	c #8C8E8C",
"s 	c #848684",
"t 	c #CCCACC",
"u 	c #9CA29C",
"v 	c #2C2E2C",
"w 	c #1C1E24",
"x 	c #1C1E1C",
"y 	c #1C1A1C",
"z 	c #141614",
"A 	c #141214",
"B 	c #0C0E0C",
"C 	c #0C0A0C",
"D 	c #0C0A04",
"E 	c #040A04",
"F 	c #04060C",
"G 	c #0C060C",
"H 	c #040204",
"I 	c #04020C",
"J 	c #444644",
"K 	c #0C0E14",
"L 	c #0C0A14",
"M 	c #040604",
"N 	c #343634",
"O 	c #ECF2F4",
"P 	c #0C0614",
"Q 	c #14161C",
"R 	c #1C1624",
"S 	c #1C1A24",
"T 	c #14121C",
"U 	c #2C2A2C",
"V 	c #E4EAEC",
"W 	c #F4FAFC",
"X 	c #B4B6AC",
"Y 	c #2C262C",
"Z 	c #2C2E34",
"` 	c #343234",
" .	c #2C2A34",
"..	c #242224",
"+.	c #34363C",
"@.	c #3C3E44",
"#.	c #4C464C",
"$.	c #444A44",
"%.	c #444244",
"&.	c #3C3A44",
"*.	c #24222C",
"=.	c #1C161C",
"-.	c #F4F2F4",
";.	c #44464C",
">.	c #545254",
",.	c #54565C",
"'.	c #5C5A5C",
").	c #4C4A54",
"!.	c #D4D2D4",
"~.	c #D4D6CC",
"{.	c #ACB2AC",
"].	c #544E54",
"^.	c #5C5E64",
"/.	c #646264",
"(.	c #4C4A4C",
"_.	c #242624",
":.	c #ECEAEC",
"<.	c #646664",
"[.	c #4C4E4C",
"}.	c #24262C",
"|.	c #000000",
"1.	c #ACAEA4",
"2.	c #5C5E5C",
"3.	c #241E24",
"4.	c #140E14",
"5.	c #ACAAA4",
"6.	c #5C565C",
"7.	c #545654",
"8.	c #A4AAA4",
"9.	c #3C3A34",
"0.	c #A4A29C",
"a.	c #ACA6A4",
"b.	c #54524C",
"c.	c #9C9E94",
"d.	c #A4A69C",
"e.	c #645E5C",
"f.	c #B4AEAC",
"g.	c #5C625C",
"h.	c #7C7A74",
"i.	c #E4E2E4",
"j.	c #747274",
"k.	c #3C3E34",
"l.	c #747674",
"m.	c #8C8A8C",
"n.	c #6C6A64",
"o.	c #7C7E7C",
"p.	c #8C8A84",
"q.	c #9C9A94",
"r.	c #A4AA9C",
"s.	c #84827C",
"t.	c #6C6A6C",
"u.	c #94928C",
"v.	c #8C8684",
"w.	c #94968C",
"x.	c #9C9694",
"y.	c #44423C",
"z.	c #84867C",
"A.	c #6C6E6C",
"B.	c #2C2E24",
"C.	c #4C4A44",
"D.	c #646A64",
"E.	c #242A2C",
"F.	c #5C5A54",
"G.	c #848A8C",
"H.	c #443E44",
"I.	c #74726C",
"J.	c #8C928C",
"K.	c #ECF2EC",
". . . . + @ # $ % & * & = - = = = ; = - - = - = ; = = & * & % > $ + + . @ , + . ",
". . . @ ' ) ) ! ! ~ ! ~ { ] ] ^ / ( _ ' : ' ' ) < [ } | 1 2 - ; & $ # . 3 4 5 @ ",
". . . . _ 6 ) { ! ! ! 7 ! ! ] / ^ 8 _ 8 9 : : 6 [ < 0 a b c d = % $ + @ 3 e f . ",
". . . . 6 ) < g ~ ! ~ ^ ( _ 8 ( _ ^ ( ] ! ! g h i h j k l m n o p q r s q + % . ",
". . . . t < 6 g g ! u v w x y z z A B C B C D E F C F F G H F H H I F F J $ $ . ",
". . . . 6 ) < g g ~ m G F G F F G C K K L C L F G F G F F G F F I M G M N O & @ ",
". . . . < ) 6 ! g ! l L F F P L K Q R S Q Q T K L C C F G F G F G F I F U V V W ",
". . . . < ) ' ] X X k C F G L Q S Y Z ` Z  ...R T K K C C F G F H F G M ..- = $ ",
"+ = 1 0 _ ' ' / g X h K F C A ..+.@.#.$.#.%.&.v *.x =.Q A L C F G M F F =.0 c -.",
"} ] { ] ^ : ' ] i i h A G K S ` ;.>.,.'.'.>.).%.`  .*.w S z K C I F G H B !.1 & ",
"~.] ] ^ / 9 : ] i {.i Q C A *.@.].'.^././.^.,.(.&.Z Y _...S A L G M I G C : b :.",
"} { ^ ] ^ : ' ] {.j j x C K _.%.>.^./.<././.'.[.@.` Z Y }.w =.K C |.F M E ^ 1 - ",
"0 ] ] / ^ _ ' ] i 1.j v D A }.` [.2.2./.<./.2.[.@.` ` U U 3.Q 4.F |.|.G E ] 0 - ",
"0 ] { ^ ^ 8 ' ^ j 1.k N G B U U >.2.2.2.2.2.'.[.@.` ` U U Y y A F |.|.H D ! !.- ",
"1 { ] ^ / _ : 8 5.j 5.N E |.U U (.6.2.2.2.'.7.@.@.` ` Y }.Y K K G |.|.M D j [ f ",
"1 { ] ^ ^ 8 t _ 5.5.8.9.|.|.K Y &.(.,.'.6.,.#.@.` `  .U }.Y K 4.F |.|.G M l < a ",
"d ! ] / ^ ( : ' 8.8.5.J |.|.K y  .@.;.(.(.;.@.` ` U  .Y _.Y K C G |.|.H M 5.6 0 ",
"= ! ] ^ / 8 : ' l 5.l [.|.|.K K y U @.@.` +.` ` U Y }...w K K |.F |.|.M M 0.6 } ",
"& 7 { / ^ ^ ' t a.a.a.b.M |.|.G K =.x U U Y U U U 3.w y Q |.|.|.G |.|.M M 0.) } ",
"& ~ { ^ / ^ : ' a.5.l [.M |.|.F G C 4.K K Q =.K K A A A K |.|.|.H |.|.G H c.) ~.",
"$ ! ] ^ ^ ^ t ' 5.a.m >.M M |.|.|.C C K K K |.K K K L C |.|.G M F |.|.M M c.) } ",
"@ 7 { / ^ / ' ' a.l 0.7.G M G |.|.|.|.|.|.|.|.|.|.|.|.|.|.|.I F G |.|.M M 0.' } ",
"@ -./ ^ / ^ : 9 5.a.m 7.M M H F |.|.|.|.|.|.F H F G H F G I G H F H F G M d.t ~.",
". . t g ^ / ' 9 a.m 0.e.M G F G F G F G I G M G I M G H F M F F G F M G M 1.' a ",
". . !.! ~ ( ' 9 j a.0.^.G M M I M I M F M I F F G F F F G F G F G F G F E g ) 0 ",
". . !.7 { _ : ' f.0.m /.M M F G F G G I G F G I M I G M I M G F M G F =.g.' _ c ",
". . } ] ] ^ ' ' j l 0.<.M G F G F P F P F G F G F G F C =.U &.].<.h.p 5.r ! 8 f ",
". . i.7 ] 8 : ' {.d.m j.E G M G F I F G K A U k.'.l.r l g g g 7 ] ] ] { g 6 ( a ",
". . @ ) { 9 : ' j l d.m._._.%.[.2.n.o.p.q.l j {.1.j ! j i X ! / 8 d.5.r.g { _ 2 ",
". . . @ 1 8 ' : i l l 0.s.t.e.u.a.a.k 5.m 5.1.i i 0.0.c.0.g g i X ^ ^ : 9 ] ( $ ",
". . . . + } ' t X l a.4 j.h.v.a.f.i a.o 0.0.c.w.w.l {.X ! ! { ] ] / ] ! _ - @ . ",
". . . . . } 6 ) ! {.1.0.x.x.4 q.u.q q.a.f.j 1.1.X g g ! g ~ ! ] j 5.6 $ . . . . ",
". . . . . 0 6 ' 5.p p q.a.f.1.5.5.5.k 5.1.f.j i ! X g X 5.7 _ < = + . @ . . . . ",
". . . . + - _ ' {.0.d.a.8.5.1.k 5.j 1.5.5.l m p o.'.y.k.[.s.6 W + . . . . . . . ",
". . . . 0 ^ ^ / r z.h.t.A.o.A.^.'.[.%.N v _.3.z z x B.N C.D.z.5.1 @ . . . . . . ",
". . . . & ' : X 5.s.C.v Q A K C C L C K y 3.E.N J F.j.G.c.j h ] _ !.. . . . . . ",
". . . . . -.' g d.w.D.H.}.y z A x ..U N %.F.A.v.c.k ~ ^ ^ ^ ] _ 5 & . . . . . . ",
". . . . . . $ 0 g 5.p o.<.F.2.<.I.o.J.4 j X ! ~ ! { 9 !.1 :.$ . . . . . . . . . ",
". . . . . . . @ K.' X 1.i i g X i i g ~ ^ ) ~.& + @ . @ . . . . . . . . . . . . ",
". . . . . . . . . + ; ' ~ ( 6 a - % + . # @ . @ . . . . . . . . . . . . . . . . "};
