/* XPM */
static char * numenvmodule_xpm[] = {
"40 40 696 2",
"  	c None",
". 	c #FFFFFF",
"+ 	c #FEFEFE",
"@ 	c #FDFDFD",
"# 	c #FCFDFD",
"$ 	c #F6F8F9",
"% 	c #EFFAF8",
"& 	c #F4FCFB",
"* 	c #FBF9FB",
"= 	c #FCFCFC",
"- 	c #EDEEEE",
"; 	c #ACDCCD",
"> 	c #91D9C1",
", 	c #ACE2D0",
"' 	c #DAE6E3",
") 	c #FBFBFB",
"! 	c #A3BBB3",
"~ 	c #94EBCF",
"{ 	c #7BC9AF",
"] 	c #72BAA0",
"^ 	c #C0E2D7",
"/ 	c #FDFDFE",
"( 	c #ECE9EC",
"_ 	c #82C0AA",
": 	c #76B9A1",
"< 	c #81CEB3",
"[ 	c #98EFD0",
"} 	c #83B6A3",
"| 	c #F9F9F9",
"1 	c #D1D1D2",
"2 	c #85D1B6",
"3 	c #76C2A6",
"4 	c #76B79F",
"5 	c #7ABDA4",
"6 	c #5C9680",
"7 	c #E4E5E4",
"8 	c #C1C2C2",
"9 	c #67A68F",
"0 	c #89D5BA",
"a 	c #80CEB1",
"b 	c #82D1B4",
"c 	c #77BAA1",
"d 	c #D6D6D6",
"e 	c #FCFCFD",
"f 	c #D1CFD0",
"g 	c #406758",
"h 	c #5F9A84",
"i 	c #99EED0",
"j 	c #9DEFD2",
"k 	c #385B4D",
"l 	c #E1E1E1",
"m 	c #FAFCFC",
"n 	c #EAECEC",
"o 	c #5B7F72",
"p 	c #1F2A24",
"q 	c #518671",
"r 	c #609A87",
"s 	c #639987",
"t 	c #F4F4F4",
"u 	c #F8F9F9",
"v 	c #8B898A",
"w 	c #30443C",
"x 	c #8FE8C8",
"y 	c #9BF6D7",
"z 	c #98F3D6",
"A 	c #617F75",
"B 	c #F7F7F7",
"C 	c #FEFFFE",
"D 	c #FFFEFF",
"E 	c #F3F3F3",
"F 	c #7C9B91",
"G 	c #254C3D",
"H 	c #131A16",
"I 	c #6EB098",
"J 	c #9DF2D4",
"K 	c #6EAD98",
"L 	c #192822",
"M 	c #8B8A8A",
"N 	c #FEFFFF",
"O 	c #FCFBFC",
"P 	c #FDFCFD",
"Q 	c #FAF9F9",
"R 	c #FBFCFC",
"S 	c #F1F1F0",
"T 	c #6C8F81",
"U 	c #306B57",
"V 	c #444D4A",
"W 	c #3B5C4F",
"X 	c #97EECF",
"Y 	c #95E7CA",
"Z 	c #5B8F7E",
"` 	c #323030",
" .	c #4D4D4C",
"..	c #999B9A",
"+.	c #F7F4F6",
"@.	c #FDFEFE",
"#.	c #FBFDFD",
"$.	c #FBFBFC",
"%.	c #FEFDFE",
"&.	c #FEFBFD",
"*.	c #F5F6F6",
"=.	c #CDD3D1",
"-.	c #F6F5F6",
";.	c #92AAA0",
">.	c #2C5A49",
",.	c #737977",
"'.	c #817A7D",
").	c #466458",
"!.	c #9AF9D7",
"~.	c #95F8D6",
"{.	c #4C7566",
"].	c #5F6060",
"^.	c #A5ABA9",
"/.	c #5D8E7D",
"(.	c #515E59",
"_.	c #D8D9D9",
":.	c #FAFBFB",
"<.	c #E9EEED",
"[.	c #82AEA0",
"}.	c #6FAB97",
"|.	c #75807C",
"1.	c #577C6E",
"2.	c #8AD6BB",
"3.	c #828987",
"4.	c #C7C8C7",
"5.	c #5C625F",
"6.	c #76B69E",
"7.	c #82C3AB",
"8.	c #5D6562",
"9.	c #E6E8E8",
"0.	c #8F9492",
"a.	c #94E5CA",
"b.	c #8EDCC2",
"c.	c #4E655C",
"d.	c #CACBCB",
"e.	c #A0ABA7",
"f.	c #A0A4A3",
"g.	c #FAFAFA",
"h.	c #F5F5F5",
"i.	c #FEFDFC",
"j.	c #FBFDFB",
"k.	c #FCFFFC",
"l.	c #FAFDFC",
"m.	c #FCFDF9",
"n.	c #F5FAFA",
"o.	c #FCFAF9",
"p.	c #B5C4BF",
"q.	c #90E6CA",
"r.	c #77BCA5",
"s.	c #365755",
"t.	c #569799",
"u.	c #509293",
"v.	c #96A09F",
"w.	c #FCFDFE",
"x.	c #DCD9D9",
"y.	c #646B68",
"z.	c #707774",
"A.	c #E3E2E2",
"B.	c #B9B9BB",
"C.	c #54826F",
"D.	c #85CFB1",
"E.	c #6CA18F",
"F.	c #32413A",
"G.	c #6FB098",
"H.	c #75B8A2",
"I.	c #C0C4C2",
"J.	c #FBFBFE",
"K.	c #CEBECE",
"L.	c #943591",
"M.	c #A92CA4",
"N.	c #B232AF",
"O.	c #98869E",
"P.	c #EBEEEB",
"Q.	c #A9B6B9",
"R.	c #727E85",
"S.	c #425E6E",
"T.	c #7A8797",
"U.	c #F8F8F7",
"V.	c #F9FAFB",
"W.	c #97A4A3",
"X.	c #7BC5A5",
"Y.	c #5F9A8D",
"Z.	c #49A5D6",
"`.	c #4CA9DE",
" +	c #398EBE",
".+	c #708DA2",
"++	c #FEFCF8",
"@+	c #FDFCFC",
"#+	c #F9F9F5",
"$+	c #883985",
"%+	c #C708CD",
"&+	c #DD06E0",
"*+	c #CD06CA",
"=+	c #5E887E",
"-+	c #8CDBBE",
";+	c #A0B0AB",
">+	c #F8FCF6",
",+	c #B14DAA",
"'+	c #F806F6",
")+	c #F706F8",
"!+	c #F404F7",
"~+	c #7C2679",
"{+	c #FCFBFB",
"]+	c #798C94",
"^+	c #4699C6",
"/+	c #4AB1E6",
"(+	c #47B7F1",
"_+	c #3B8FB3",
":+	c #D7DADA",
"<+	c #F7FDFB",
"[+	c #D3D1D7",
"}+	c #3A767E",
"|+	c #4496C7",
"1+	c #45B7EE",
"2+	c #3BA3DA",
"3+	c #4AAEE1",
"4+	c #7D95A6",
"5+	c #FCFDFA",
"6+	c #F0F2F3",
"7+	c #B225B2",
"8+	c #F802F6",
"9+	c #F904F6",
"0+	c #FA04F8",
"a+	c #A011A9",
"b+	c #444650",
"c+	c #BCBCBD",
"d+	c #E2E3E9",
"e+	c #D00ED2",
"f+	c #F605F6",
"g+	c #FA05FC",
"h+	c #F903F5",
"i+	c #754F78",
"j+	c #FEFDFB",
"k+	c #7896A5",
"l+	c #49B7F2",
"m+	c #4AB4F0",
"n+	c #4EB5F1",
"o+	c #4EB0ED",
"p+	c #89979D",
"q+	c #F8FCFC",
"r+	c #B9C9CF",
"s+	c #4BAAE0",
"t+	c #44B7EC",
"u+	c #4DABE6",
"v+	c #4CADE1",
"w+	c #469BCD",
"x+	c #B6B9BD",
"y+	c #F9FCFD",
"z+	c #F6F9F5",
"A+	c #A636A1",
"B+	c #D408D3",
"C+	c #DB04DD",
"D+	c #F805FD",
"E+	c #FC02F7",
"F+	c #C403C2",
"G+	c #B2B3B5",
"H+	c #C597C7",
"I+	c #F803F5",
"J+	c #FE01FE",
"K+	c #FB04F7",
"L+	c #D705D7",
"M+	c #99989C",
"N+	c #FCFEFD",
"O+	c #9CA5A9",
"P+	c #47AADF",
"Q+	c #4DB6F0",
"R+	c #4CB5EF",
"S+	c #4CB3F2",
"T+	c #51809A",
"U+	c #F6F6F3",
"V+	c #78A5C1",
"W+	c #4DB3F0",
"X+	c #49B5F6",
"Y+	c #3B9DCC",
"Z+	c #41A9E1",
"`+	c #4882A4",
" @	c #EDEFEF",
".@	c #F9FAFA",
"+@	c #987F9B",
"@@	c #D305D4",
"#@	c #D105CF",
"$@	c #FF01FC",
"%@	c #FF01FD",
"&@	c #F701F6",
"*@	c #936C96",
"=@	c #BC40B9",
"-@	c #FF00FE",
";@	c #F903FD",
">@	c #8B178E",
",@	c #EBEFE6",
"'@	c #FBFDFE",
")@	c #E4E1DF",
"!@	c #3B82A8",
"~@	c #4AB3ED",
"{@	c #4BB6F1",
"]@	c #4EB4EF",
"^@	c #3E98C7",
"/@	c #B0B8B9",
"(@	c #4DA2D1",
"_@	c #4BB9F2",
":@	c #4EB2E9",
"<@	c #32739D",
"[@	c #4AB1ED",
"}@	c #7F9DAB",
"|@	c #FAF9FB",
"1@	c #C5C7C2",
"2@	c #C204C5",
"3@	c #EA04E7",
"4@	c #FD02FE",
"5@	c #FF00FD",
"6@	c #FC00FA",
"7@	c #7F197F",
"8@	c #CE0BCA",
"9@	c #F203F2",
"0@	c #7D5981",
"a@	c #FBFBFD",
"b@	c #5B8096",
"c@	c #4CB6EF",
"d@	c #4CB6F1",
"e@	c #49B3E8",
"f@	c #37627D",
"g@	c #4AB3E8",
"h@	c #48B4F0",
"i@	c #4BB5F3",
"j@	c #46ABE1",
"k@	c #47A0CF",
"l@	c #BCC1BD",
"m@	c #FEFEFD",
"n@	c #FFFEFE",
"o@	c #F9FBFB",
"p@	c #F8F8F9",
"q@	c #AB38A5",
"r@	c #F803F8",
"s@	c #F801F7",
"t@	c #FF03FE",
"u@	c #D807D2",
"v@	c #F004F5",
"w@	c #FF01FB",
"x@	c #FE00FD",
"y@	c #AD08AD",
"z@	c #BDBEBC",
"A@	c #A2AEB5",
"B@	c #47A7DE",
"C@	c #4CB7F0",
"D@	c #4BB5EF",
"E@	c #47A8DC",
"F@	c #4BB6EC",
"G@	c #48B5EE",
"H@	c #4BB5E9",
"I@	c #46B6ED",
"J@	c #477E9E",
"K@	c #F7F6F3",
"L@	c #FAFDFD",
"M@	c #F9FBFC",
"N@	c #FBFCF8",
"O@	c #F8F9FC",
"P@	c #FAF8FB",
"Q@	c #B98CBD",
"R@	c #B806B9",
"S@	c #E302E4",
"T@	c #FD01FA",
"U@	c #FE01FF",
"V@	c #FB03F7",
"W@	c #F703F6",
"X@	c #864A82",
"Y@	c #F6F6F6",
"Z@	c #ECECEB",
"`@	c #4A8FB5",
" #	c #49B5F1",
".#	c #48B6F2",
"+#	c #49B6F1",
"@#	c #4DB2F0",
"##	c #3279A1",
"$#	c #455E78",
"%#	c #98A2AD",
"&#	c #FBFBF9",
"*#	c #FBFBF6",
"=#	c #FBF9F6",
"-#	c #F9FCF9",
";#	c #F6FAF7",
">#	c #E5E4E6",
",#	c #9A1C93",
"'#	c #F904F7",
")#	c #FE00FE",
"!#	c #FD02F9",
"~#	c #BC04B7",
"{#	c #B1B5B2",
"]#	c #FCFCFB",
"^#	c #7DA1B0",
"/#	c #4AB6EE",
"(#	c #4CB3EE",
"_#	c #45B8EF",
":#	c #47B0E9",
"<#	c #527889",
"[#	c #F2F3F0",
"}#	c #FBFDFC",
"|#	c #B5C9D5",
"1#	c #AAB8C1",
"2#	c #FBF8F8",
"3#	c #C8AECE",
"4#	c #CAC1D0",
"5#	c #DADBDB",
"6#	c #971A93",
"7#	c #FD02FC",
"8#	c #FF01FE",
"9#	c #F003F0",
"0#	c #FD02FB",
"a#	c #F803F9",
"b#	c #7D337C",
"c#	c #F7F7F5",
"d#	c #FCFEFB",
"e#	c #BDC5D0",
"f#	c #47A7DB",
"g#	c #49B7EF",
"h#	c #44A6E3",
"i#	c #5D7F91",
"j#	c #F8F8F6",
"k#	c #F5F5F4",
"l#	c #EDF0EC",
"m#	c #9FB3BD",
"n#	c #4BA6D5",
"o#	c #94A0A7",
"p#	c #FAF7F4",
"q#	c #A866A6",
"r#	c #C315C3",
"s#	c #A477A0",
"t#	c #AE80AE",
"u#	c #B627B4",
"v#	c #A105A1",
"w#	c #F103F4",
"x#	c #F003F2",
"y#	c #F001EF",
"z#	c #F104E9",
"A#	c #F102F2",
"B#	c #A8A2AA",
"C#	c #FCFEFC",
"D#	c #FEFDFF",
"E#	c #F3F7F1",
"F#	c #4886AA",
"G#	c #4AB5F1",
"H#	c #47A5DE",
"I#	c #355F7A",
"J#	c #63859E",
"K#	c #5E95B5",
"L#	c #4C96BE",
"M#	c #4BA8E5",
"N#	c #47B5EC",
"O#	c #5098BE",
"P#	c #9EB4C2",
"Q#	c #B145AC",
"R#	c #D606D6",
"S#	c #E804E4",
"T#	c #F304F3",
"U#	c #EA05E6",
"V#	c #6C076F",
"W#	c #F205F0",
"X#	c #F103EE",
"Y#	c #94059C",
"Z#	c #F403F4",
"`#	c #E103DD",
" $	c #961B95",
".$	c #ECEBED",
"+$	c #FEFDFD",
"@$	c #FCFCF9",
"#$	c #7492A2",
"$$	c #4BB4EE",
"%$	c #46B7EE",
"&$	c #48B4ED",
"*$	c #4CB4ED",
"=$	c #4BAFE4",
"-$	c #4090B7",
";$	c #3C86AC",
">$	c #4BABDC",
",$	c #3991C1",
"'$	c #647C81",
")$	c #B21CB5",
"!$	c #E703E8",
"~$	c #B23DB5",
"{$	c #B089B2",
"]$	c #AE91AF",
"^$	c #7F4B80",
"/$	c #F705FA",
"($	c #F103F9",
"_$	c #C905C5",
":$	c #BF04BE",
"<$	c #E103E5",
"[$	c #8A488B",
"}$	c #F9FCFA",
"|$	c #FDFDFC",
"1$	c #FAFAFC",
"2$	c #6D8795",
"3$	c #4BB3EF",
"4$	c #49B1E8",
"5$	c #3186B3",
"6$	c #385E72",
"7$	c #949C9E",
"8$	c #D2D5D8",
"9$	c #FAF8F8",
"0$	c #A7B4BF",
"a$	c #758390",
"b$	c #E7E4E1",
"c$	c #C8C4CE",
"d$	c #81617E",
"e$	c #E8E5E6",
"f$	c #FEFEF9",
"g$	c #FAFBFA",
"h$	c #9F45A2",
"i$	c #F802FC",
"j$	c #FA02F6",
"k$	c #F105F4",
"l$	c #C004BF",
"m$	c #E006E4",
"n$	c #8D718D",
"o$	c #FCFFFE",
"p$	c #F4F3F1",
"q$	c #3E7999",
"r$	c #47B6EF",
"s$	c #4EB3EA",
"t$	c #408DBC",
"u$	c #E7EAE6",
"v$	c #FDFFFF",
"w$	c #F9F8F6",
"x$	c #A52DA4",
"y$	c #FC03FB",
"z$	c #F904F8",
"A$	c #D904DD",
"B$	c #E603E6",
"C$	c #D804D5",
"D$	c #848285",
"E$	c #B5B9BB",
"F$	c #44A5D7",
"G$	c #4AB4EF",
"H$	c #46AEE7",
"I$	c #96A3A4",
"J$	c #FFFFFE",
"K$	c #EDECEC",
"L$	c #B411B4",
"M$	c #FD02F5",
"N$	c #D404D4",
"O$	c #F204F1",
"P$	c #B001B6",
"Q$	c #9B9C9A",
"R$	c #FEFCFE",
"S$	c #7796A7",
"T$	c #4AB3EC",
"U$	c #4CB6ED",
"V$	c #4BB6EE",
"W$	c #4CB6EC",
"X$	c #4BB5ED",
"Y$	c #4AB5EE",
"Z$	c #4A7E9A",
"`$	c #F6F5F5",
" %	c #FCFEFE",
".%	c #E2E2E4",
"+%	c #C508C6",
"@%	c #FC01F7",
"#%	c #F703F8",
"$%	c #B302B3",
"%%	c #C003BF",
"&%	c #BA03BB",
"*%	c #ABA9AA",
"=%	c #F4F4F3",
"-%	c #5190B1",
";%	c #4FB3F2",
">%	c #49B4EA",
",%	c #4DB5EF",
"'%	c #4CB7EF",
")%	c #4FB3EE",
"!%	c #3E95C0",
"~%	c #B3B8BC",
"{%	c #F9FCFB",
"]%	c #D2C8D1",
"^%	c #DD02DF",
"/%	c #FD02FD",
"(%	c #FC01FC",
"_%	c #D602D5",
":%	c #DB06DA",
"<%	c #B802B4",
"[%	c #B1B2B1",
"}%	c #CBD1D1",
"|%	c #429CD0",
"1%	c #336D93",
"2%	c #48A7DB",
"3%	c #4CB5EE",
"4%	c #48B5EF",
"5%	c #4FB4EB",
"6%	c #46AFE9",
"7%	c #648597",
"8%	c #FDFDFB",
"9%	c #BCA1BD",
"0%	c #F504F0",
"a%	c #FC03F9",
"b%	c #FE01FD",
"c%	c #FF01FF",
"d%	c #FB02FA",
"e%	c #B7B7B7",
"f%	c #90A6B1",
"g%	c #49B2EE",
"h%	c #49B6ED",
"i%	c #48A4D8",
"j%	c #6F787A",
"k%	c #5D92B5",
"l%	c #4DB5EE",
"m%	c #49B8F0",
"n%	c #48B7ED",
"o%	c #4DB0F0",
"p%	c #397BA0",
"q%	c #DFDFDF",
"r%	c #AB85B1",
"s%	c #FC02FA",
"t%	c #FB01FE",
"u%	c #9D049D",
"v%	c #BAB9B9",
"w%	c #F7F6F2",
"x%	c #4F90B1",
"y%	c #4CB3F3",
"z%	c #44ACE2",
"A%	c #326887",
"B%	c #D9D8D3",
"C%	c #B0B8BC",
"D%	c #41A1D3",
"E%	c #4EB4ED",
"F%	c #4CB6EE",
"G%	c #3C8BB6",
"H%	c #85969A",
"I%	c #B463B4",
"J%	c #F904F4",
"K%	c #FB03F8",
"L%	c #FB02FB",
"M%	c #FA03FB",
"N%	c #F406F1",
"O%	c #940392",
"P%	c #B8B9B9",
"Q%	c #C1C8C8",
"R%	c #43A3D6",
"S%	c #4EB6ED",
"T%	c #4AB5EC",
"U%	c #4AAAE0",
"V%	c #3980AA",
"W%	c #60727A",
"X%	c #F6FBFB",
"Y%	c #F4F3F3",
"Z%	c #527E8F",
"`%	c #46B4F2",
" &	c #4AB6F2",
".&	c #49B5F2",
"+&	c #4196C9",
"@&	c #517F99",
"#&	c #B65FBA",
"$&	c #FF03FD",
"%&	c #E607E0",
"&&	c #950399",
"*&	c #BEBEBE",
"=&	c #FEFCFD",
"-&	c #929DA3",
";&	c #419FCE",
">&	c #3FACE2",
",&	c #40A4D7",
"'&	c #3283B0",
")&	c #306380",
"!&	c #D0CFD2",
"~&	c #F8FBFB",
"{&	c #B3B7BB",
"]&	c #2E5E74",
"^&	c #336C8B",
"/&	c #376F8E",
"(&	c #3C6987",
"_&	c #566F7A",
":&	c #C3B8BB",
"<&	c #A4189F",
"[&	c #CF07CF",
"}&	c #DF03DC",
"|&	c #E702E4",
"1&	c #D804DC",
"2&	c #81177C",
"3&	c #DAE0DC",
"4&	c #EAEAE9",
"5&	c #7B8488",
"6&	c #5F6B74",
"7&	c #5A6169",
"8&	c #626565",
"9&	c #BEB9B6",
"0&	c #FDFEFC",
"a&	c #FFFEFD",
"b&	c #C9C5C5",
"c&	c #C2C4C2",
"d&	c #D5D6D4",
"e&	c #ECE8E7",
"f&	c #F9FAF8",
"g&	c #FDFDFF",
"h&	c #FDFCFE",
"i&	c #8C8B8D",
"j&	c #827884",
"k&	c #928093",
"l&	c #A6A1A7",
"m&	c #D5D7D2",
". . . . . . . . . . . . . . . . + @ # $ % & * . . . . . . . . . . . . . . . . . ",
". . . . . . . . . . . . . . . . = @ - ; > , ' . . . . . . . . . . . . . . . . . ",
". . . . . . . . . . . . . . . . @ ) ! ~ { ] ^ . . . . . . . . . . . . . . . . . ",
". . . . . . . . . . . . . . . . / ( _ : < [ } | + + . . . . . . . . . . . . . . ",
". . . . . . . . . . . . . . . . = 1 2 3 4 5 6 7 + . . . . . . . . . . . . . . . ",
". . . . . . . . . . . . . . . . # 8 9 0 a b c d + . . . . . . . . . . . . . . . ",
". . . . . . . . . . . . . . + . e f g h i j k l = + . . . . . . . . . . . . . . ",
". . . . . . . . . . . . . . + + m n o p q r s t = + . . . . . . . . . . . . . . ",
". . . . . . . . . . . . . . + @ u v w x y z A B @ + . . . . . . . . . . . . . . ",
". . . . . . . . . . C . D . @ E F G H I J K L M ) N . . D . . . . . . . . . . . ",
". . . . . . . . . O = P Q R S T U V W X Y Z `  ...+.@.#.P $.+ + + + + . . . . . ",
". . . . . . . . . %.&.*.=.-.;.>.,.'.).!.~.{.].^./.(._.= :.P @ + . . @ + . . . . ",
". . . . . . . . . P <.[.}.|.1.2.3.4.5.6.7.8.9.0.a.b.c.d.e.f.g.@ + | h.) + . . . ",
". . i.# j.k.l.m.n.o.p.q.r.s.t.u.v.w.x.y.z.A.= B.C.D.E.F.G.H.I.J.K.L.M.N.O.g.+ . ",
". . = P.Q.R.S.T.U.V.W.X.Y.Z.`. +.+++@+= @ ) @ #+$+%+&+*+=+-+;+>+,+'+)+!+~+h.@ . ",
". . {+]+^+/+(+_+:+<+[+}+|+1+2+3+4+5+@ + @ @ + 6+7+8+9+0+a+b+c+d+e+f+g+h+i++ + . ",
". . j+k+l+m+n+o+p+q+r+s+t+u+v+w+x+y++ + + @ . z+A+B+C+D+E+F+G+H+I+J+K+L+M+@ + . ",
". . N+O+P+Q+R+S+T+U+V+W+X+Y+Z+`+ @= + . . . . .@+@@@#@$@%@&@*@=@-@-@;@>@,@. . . ",
". . '@)@!@~@{@]@^@/@(@_@:@<@[@}@N++ + . . . . |@1@2@3@4@5@6@7@8@-@-@9@0@a@. . . ",
". . j+R b@R+c@d@e@f@g@h@i@j@k@l@= @ m@n@@.@.C o@p@q@r@s@5@t@u@v@w@x@y@z@$.. . . ",
". . @ = A@B@C@D@D@E@F@G@H@I@J@K@# = L@M@N@O@P@. . Q@R@S@-@-@T@U@V@W@X@Y@+ . . . ",
". . . @ Z@`@ #D@D@.#+#@###$#%#&#= @ *#=#o@-#;#. . >#,#'#-@-@)#)#!#~#{#+ @ . . . ",
". . + + ]#^#m+D@D@/#(#_#:#<#[#}#@ = |#1#2#3#4#. . 5#6#7#-@8#9#0#a#b#c#@ = . . . ",
". . . . d#e#f#D@D@D@D@g#h#i#j#k#l#m#n#o#p#q#r#s#t#u#v#w#x#y#z#A#L+B#C#. . . . . ",
". . . . D#E#F#D@D@D@D@G#H#I#J#K#L#M#N#O#P#Q#R#S#T#U#V#W#X#Y#Z#`# $.$5+. . . . . ",
". . . . +$@$#$D@D@D@D@$$%$&$*$=$-$;$>$,$'$)$!$~${$]$^$/$($_$:$<$[$}$|$. . . . . ",
". . . . C#1$2$D@D@D@D@3$4$5$6$7$8$9$0$a$b$c$d$e$f$g$h$i$j$k$l$m$n$-#@ . . . . . ",
". . . . o$p$q$D@D@D@D@R+r$s$t$u$v$. . @ + = = . . w$x$y$z$A$B$C$D$@ . . . . . . ",
". . . . D#E$F$D@D@D@D@G$G@{@H$I$J$. + = = = = . . K$L$M$W@N$O$P$Q$+ + . . . . . ",
". . . + R$S$T$D@D@U$V$ #W$X$Y$Z$`$ %+$+ @ . = . . .%+%@%#%$%%%&%*%@ + . . . . . ",
". . + + =%-%;%D@D@>%,%'%X$'%)%!%~%{%+$. . . . . . ]%^%/%(%_%:%<%[%+ . . . . . . ",
". . @ @ }%|%G$D@D@G$1%2%3%4%5%6%7%8%N . . . . . . 9%0%a%b%c%d%v#e%+ + . . . . . ",
". . @ ) f%g%h%D@D@i%j%k%l%m%n%o%p%q%@.. . . . . . r%8+s%4@t%z$u%v%@ . . . . . . ",
". . d#w%x%G$y%,%z%A%B%C%D%E%F%X$G%H%P . . . . . . I%J%K%L%M%N%O%P%. + . . . . . ",
". . / Q%R%S%T%U%V%W%X%Y%Z%`% &.&+&@&g.. . . . . . #&L%z$$&y$%&&&*&. + . . . . . ",
". . =&-&;&>&,&'&)&!&@+~&{&]&^&/&(&_&| . . . . . . :&<&[&}&|&1&2&3&+ + . . . . . ",
". . @.4&5&6&7&8&9&0&a&R$}#b&c&d&e&f&g&. . . . . . h&!&i&j&k&l&m&N . . . . . . . ",
". . + = @ + + = @ . . . . . . . . . . . . . . . . + @ @ + + @ + + . . . . . . . ",
". . + = + + + + . . . . . . . . . . . . . . . . . + = = + + @ + . . . . . . . . ",
". . + + . . + + + . . . . . . . . . . . . . . . . . . . + + @ + . . . . . . . . "};
