/* XPM */
static char * ifsgenmodule_xpm[] = {
"40 40 804 2",
"  	c None",
". 	c #FFFFFF",
"+ 	c #FFFDFF",
"@ 	c #FBFDFA",
"# 	c #FCFBFA",
"$ 	c #FDF8FD",
"% 	c #D9EFD1",
"& 	c #E0F0E0",
"* 	c #FCFAFB",
"= 	c #FEFCFC",
"- 	c #FAFCF9",
"; 	c #FEFCFE",
"> 	c #FFFBFF",
", 	c #C5E5BF",
"' 	c #A8D7B2",
") 	c #F6F5F8",
"! 	c #F8F9FB",
"~ 	c #FBFFFD",
"{ 	c #F7FAFA",
"] 	c #CAEBCB",
"^ 	c #6FB770",
"/ 	c #E3EEE0",
"( 	c #F6FCFE",
"_ 	c #F7FCFB",
": 	c #FFFEFE",
"< 	c #FEFDFD",
"[ 	c #FDFAFF",
"} 	c #C9E9CA",
"| 	c #4CAA48",
"1 	c #A9D3A6",
"2 	c #F9FBFB",
"3 	c #F9FDF7",
"4 	c #FBFCF9",
"5 	c #FFFEFF",
"6 	c #FFFDFE",
"7 	c #FBFEFB",
"8 	c #FFFBFB",
"9 	c #FCFEFE",
"0 	c #F9FCF5",
"a 	c #DFF1E3",
"b 	c #4FAF4F",
"c 	c #53AD4F",
"d 	c #EAF4E9",
"e 	c #FDFEFE",
"f 	c #FFFFFE",
"g 	c #FEFEFC",
"h 	c #FBFEFD",
"i 	c #FFFBFE",
"j 	c #F7FCFA",
"k 	c #C5E5C6",
"l 	c #7ABE7F",
"m 	c #30A12F",
"n 	c #9DD59C",
"o 	c #F8FBF8",
"p 	c #FEFEFE",
"q 	c #FCFDFB",
"r 	c #FAFEFE",
"s 	c #F9FBF6",
"t 	c #D3EED6",
"u 	c #7EBC81",
"v 	c #4EBA51",
"w 	c #41AA41",
"x 	c #C8E1C8",
"y 	c #FCFCFC",
"z 	c #FDFDFE",
"A 	c #ECF5F0",
"B 	c #E0F1DA",
"C 	c #7DBC7B",
"D 	c #6CB268",
"E 	c #42AB41",
"F 	c #71BA73",
"G 	c #DEEFDE",
"H 	c #FDFEFD",
"I 	c #FEFEFD",
"J 	c #FCFEFC",
"K 	c #FAFBFA",
"L 	c #C7E6C8",
"M 	c #B9DFB8",
"N 	c #4CA547",
"O 	c #69BD65",
"P 	c #45A644",
"Q 	c #9ED299",
"R 	c #EAF3EB",
"S 	c #FEFFFD",
"T 	c #FDFBFB",
"U 	c #FEFAFE",
"V 	c #D7E6D6",
"W 	c #E0F1E0",
"X 	c #BBE3BF",
"Y 	c #64B464",
"Z 	c #69C067",
"` 	c #53B451",
" .	c #5EB661",
"..	c #AED5A8",
"+.	c #E6F1E7",
"@.	c #FDFFFC",
"#.	c #FBFBF8",
"$.	c #FBF7FB",
"%.	c #F9F9F9",
"&.	c #CCE7CA",
"*.	c #87C888",
"=.	c #B4E2B9",
"-.	c #329B30",
";.	c #65B168",
">.	c #45A444",
",.	c #70BF75",
"'.	c #C9E6C4",
").	c #E9F1E7",
"!.	c #F5FBF2",
"~.	c #C8E1C3",
"{.	c #ECF9EA",
"].	c #D8EDDA",
"^.	c #41A33F",
"/.	c #8FCF8E",
"(.	c #85D183",
"_.	c #81C485",
":.	c #71C472",
"<.	c #74C578",
"[.	c #B4D3AF",
"}.	c #F6F8F6",
"|.	c #FEFFFE",
"1.	c #FBFEF8",
"2.	c #FEFCFB",
"3.	c #FEF9FF",
"4.	c #FAFBF8",
"5.	c #97C694",
"6.	c #A4D9A4",
"7.	c #E9F2E7",
"8.	c #58B453",
"9.	c #3BA03A",
"0.	c #7BC16D",
"a.	c #4CA84F",
"b.	c #3CA037",
"c.	c #BCD5BF",
"d.	c #E0F0DC",
"e.	c #D5ECD3",
"f.	c #FBFEF9",
"g.	c #FFF9FD",
"h.	c #FAFEF8",
"i.	c #CDE5CC",
"j.	c #F2FDF4",
"k.	c #FAF8F9",
"l.	c #C1E8C1",
"m.	c #46A647",
"n.	c #A4DBA0",
"o.	c #8CC990",
"p.	c #72BB7A",
"q.	c #72B874",
"r.	c #75C57F",
"s.	c #9ED0A7",
"t.	c #7DCF7A",
"u.	c #8FC78F",
"v.	c #EBFBF1",
"w.	c #FDFDFD",
"x.	c #FDFCFD",
"y.	c #FEFEFF",
"z.	c #FCFEFD",
"A.	c #FCFDFE",
"B.	c #FEFCFF",
"C.	c #F5FCF6",
"D.	c #A6D0A8",
"E.	c #A7DBA9",
"F.	c #F9FBF8",
"G.	c #E1EFE2",
"H.	c #55AF57",
"I.	c #3AA532",
"J.	c #90C683",
"K.	c #CEE7C0",
"L.	c #98CC95",
"M.	c #6DB05B",
"N.	c #35AD2E",
"O.	c #A1C8A5",
"P.	c #F4FBF7",
"Q.	c #E0EEE2",
"R.	c #F0F2F1",
"S.	c #FFFDFD",
"T.	c #FDFBF9",
"U.	c #FDFFFD",
"V.	c #F5FCF8",
"W.	c #FAFEFC",
"X.	c #F9FCF8",
"Y.	c #FEFDFE",
"Z.	c #D4EFD7",
"`.	c #54A456",
" +	c #A3D2A1",
".+	c #E1F2DF",
"++	c #90C591",
"@+	c #49A744",
"#+	c #40AB49",
"$+	c #55B462",
"%+	c #58AF5D",
"&+	c #45AC4B",
"*+	c #AFD3AE",
"=+	c #DBEDDD",
"-+	c #8DCD88",
";+	c #B9DEB3",
">+	c #FAFBF9",
",+	c #F8FDF8",
"'+	c #DAEDDC",
")+	c #D8E9D8",
"!+	c #F8FFF7",
"~+	c #FDF7FD",
"{+	c #F1FAF3",
"]+	c #84CC84",
"^+	c #40A13B",
"/+	c #83C07D",
"(+	c #B8E1B4",
"_+	c #A8D19D",
":+	c #B2DBB1",
"<+	c #ABD9AD",
"[+	c #C2E2B2",
"}+	c #99CC94",
"|+	c #77C274",
"1+	c #4CAA4F",
"2+	c #B7DCB7",
"3+	c #F6F7FA",
"4+	c #F9FCF6",
"5+	c #F5FBF5",
"6+	c #FBFDFC",
"7+	c #FDFCFF",
"8+	c #FBFBF9",
"9+	c #FDFDFF",
"0+	c #F9FDFB",
"a+	c #E2F9E2",
"b+	c #85BD82",
"c+	c #C5E7C5",
"d+	c #FDF7FE",
"e+	c #FBFBFC",
"f+	c #C0EAC2",
"g+	c #50AF57",
"h+	c #39A540",
"i+	c #67BA6B",
"j+	c #9ED5A2",
"k+	c #B1E2B1",
"l+	c #86C48A",
"m+	c #59B556",
"n+	c #44AB42",
"o+	c #4FB357",
"p+	c #C2E9C7",
"q+	c #FBF9F8",
"r+	c #E5F3E2",
"s+	c #C1D9C2",
"t+	c #E4F3E9",
"u+	c #F8FDFC",
"v+	c #FAFDFB",
"w+	c #FDFFFF",
"x+	c #FBFCFD",
"y+	c #FDFCFE",
"z+	c #FAFEFB",
"A+	c #A8DFA7",
"B+	c #55A154",
"C+	c #B3DDB6",
"D+	c #E9F9EA",
"E+	c #E8F7E6",
"F+	c #87BE85",
"G+	c #4FB04C",
"H+	c #4CA94B",
"I+	c #65AE65",
"J+	c #52B355",
"K+	c #62B062",
"L+	c #49AB4B",
"M+	c #6AC06B",
"N+	c #C8E8C3",
"O+	c #EAF2DE",
"P+	c #A5DBB1",
"Q+	c #82C787",
"R+	c #D1EAD9",
"S+	c #FDFBFD",
"T+	c #F5FBFB",
"U+	c #FCFFFF",
"V+	c #FAFCFD",
"W+	c #F3F7F2",
"X+	c #DEF1DE",
"Y+	c #F5FDF5",
"Z+	c #EFF9EF",
"`+	c #7ABD7A",
" @	c #33A533",
".@	c #7CC27E",
"+@	c #BEDABE",
"@@	c #BDE6BA",
"#@	c #89C68B",
"$@	c #A2DDA5",
"%@	c #90C791",
"&@	c #9CD497",
"*@	c #C9EFCB",
"=@	c #ACD7AA",
"-@	c #B1D6B4",
";@	c #88CD94",
">@	c #5AAE55",
",@	c #6BB667",
"'@	c #DBF0D8",
")@	c #FCFDF9",
"!@	c #F7F9F3",
"~@	c #F7FAF7",
"{@	c #FEFFFF",
"]@	c #F1FAEF",
"^@	c #B2D8AF",
"/@	c #C4DFC2",
"(@	c #F6FEF5",
"_@	c #FCFEFA",
":@	c #FDFDFC",
"<@	c #C4E5C4",
"[@	c #57B35A",
"}@	c #3EA541",
"|@	c #5BAF5A",
"1@	c #95D094",
"2@	c #B9DBBE",
"3@	c #D1E7D5",
"4@	c #DFF4DF",
"5@	c #B7E2BD",
"6@	c #95CB9B",
"7@	c #71C06F",
"8@	c #54AB51",
"9@	c #43AC43",
"0@	c #73C882",
"a@	c #E5F5E4",
"b@	c #FAF8FD",
"c@	c #F9F9F5",
"d@	c #D1ECD5",
"e@	c #C4E3C9",
"f@	c #F0F9F2",
"g@	c #FCFCFA",
"h@	c #FBFDF9",
"i@	c #FBFBFA",
"j@	c #E1F3DE",
"k@	c #76B872",
"l@	c #8DC48B",
"m@	c #DEF3DE",
"n@	c #F5FAF5",
"o@	c #FDFAFC",
"p@	c #E9F6EA",
"q@	c #A2D99F",
"r@	c #5CB25A",
"s@	c #54B054",
"t@	c #62BA61",
"u@	c #6EB46C",
"v@	c #78BB72",
"w@	c #9CCF98",
"x@	c #5AAD5B",
"y@	c #52B453",
"z@	c #4DB14D",
"A@	c #58AE55",
"B@	c #9FD4A0",
"C@	c #ECFAED",
"D@	c #F8FCF7",
"E@	c #D3F0D7",
"F@	c #90CF92",
"G@	c #98CD9D",
"H@	c #EBF5E5",
"I@	c #FEFAFA",
"J@	c #FCFBFC",
"K@	c #FBFCFC",
"L@	c #FBFFFF",
"M@	c #FFFBFD",
"N@	c #FEFBFC",
"O@	c #FAFEFA",
"P@	c #FDF9FE",
"Q@	c #C8EDC9",
"R@	c #55A552",
"S@	c #5BB657",
"T@	c #ACDBAF",
"U@	c #E9F3EC",
"V@	c #F1F6F1",
"W@	c #C8DEC8",
"X@	c #83C87F",
"Y@	c #57B751",
"Z@	c #5BB358",
"`@	c #84C487",
" #	c #50A952",
".#	c #65BA66",
"+#	c #9FD29E",
"@#	c #97CC92",
"##	c #61AF66",
"$#	c #8FCF8B",
"%#	c #D4F1DC",
"&#	c #D3E8CD",
"*#	c #9ACC92",
"=#	c #48AB4B",
"-#	c #8DCB89",
";#	c #EDF3E6",
">#	c #F9FBFD",
",#	c #F6FCF8",
"'#	c #F9FAF6",
")#	c #FDFCFB",
"!#	c #FEFFFA",
"~#	c #F7FBF9",
"{#	c #EAF4E8",
"]#	c #F4FCF1",
"^#	c #F9FDFA",
"/#	c #FCFEFB",
"(#	c #FDFCFC",
"_#	c #F7F6F9",
":#	c #AED9AE",
"<#	c #4BAD48",
"[#	c #43A644",
"}#	c #76C075",
"|#	c #ABD8AA",
"1#	c #CBE1CF",
"2#	c #CEE8D1",
"3#	c #ADD4AB",
"4#	c #B6D6AF",
"5#	c #E2F4E2",
"6#	c #A3D0A2",
"7#	c #C4EAC3",
"8#	c #EBF4EB",
"9#	c #D0F1DC",
"0#	c #C5E1C4",
"a#	c #ADDFB0",
"b#	c #7CBF71",
"c#	c #49B04E",
"d#	c #4AA950",
"e#	c #A4D499",
"f#	c #F5F7F4",
"g#	c #FCF9F8",
"h#	c #F7FEF8",
"i#	c #FAF6FC",
"j#	c #E7F2E3",
"k#	c #DEE8DB",
"l#	c #FAF9F9",
"m#	c #FDFEFB",
"n#	c #FAFCF7",
"o#	c #C4E5C9",
"p#	c #ADD3B2",
"q#	c #EAF5E7",
"r#	c #FCFBFB",
"s#	c #FDFEFC",
"t#	c #FAFDF9",
"u#	c #FAFDF7",
"v#	c #EAF8EA",
"w#	c #A4D2A6",
"x#	c #56AB58",
"y#	c #4CB44E",
"z#	c #5AB459",
"A#	c #5CAD5F",
"B#	c #A6E4A6",
"C#	c #9CC8A0",
"D#	c #DFF3E0",
"E#	c #CBE2CC",
"F#	c #E3F8E4",
"G#	c #D6EAD7",
"H#	c #8EC489",
"I#	c #93CE8F",
"J#	c #62B967",
"K#	c #45A543",
"L#	c #4DAB53",
"M#	c #66BC65",
"N#	c #B3E2B0",
"O#	c #F5F6F5",
"P#	c #F7FAF4",
"Q#	c #F6F5F5",
"R#	c #B8E7BB",
"S#	c #9ED59E",
"T#	c #DCF2DB",
"U#	c #F9FBFA",
"V#	c #FEFDFF",
"W#	c #FCFDFC",
"X#	c #FCFFFA",
"Y#	c #ADD1AC",
"Z#	c #68B968",
"`#	c #BBE3BD",
" $	c #F1FAF1",
".$	c #FAFBFC",
"+$	c #F6FCF9",
"@$	c #D1EDD3",
"#$	c #94C98B",
"$$	c #42B24F",
"%$	c #7ABE6A",
"&$	c #32A347",
"*$	c #85C777",
"=$	c #36A43C",
"-$	c #BADBBF",
";$	c #6AB76B",
">$	c #C2E7C8",
",$	c #64BA63",
"'$	c #66B35D",
")$	c #4EA94E",
"!$	c #7CC97C",
"~$	c #50B14E",
"{$	c #79C377",
"]$	c #C8E6C4",
"^$	c #F3F7F1",
"/$	c #F8FEF9",
"($	c #F6F9EE",
"_$	c #C6EBC4",
":$	c #77B978",
"<$	c #7AC177",
"[$	c #E8F7E8",
"}$	c #F9FEFD",
"|$	c #FBFEFC",
"1$	c #FCFFFD",
"2$	c #F3FEF3",
"3$	c #AAD4AC",
"4$	c #37A03D",
"5$	c #6BBA69",
"6$	c #C0E4BB",
"7$	c #E9F8EB",
"8$	c #F9FAFC",
"9$	c #FDFBFF",
"0$	c #F3F8F7",
"a$	c #DDF3D9",
"b$	c #AED3AD",
"c$	c #67BE65",
"d$	c #88C882",
"e$	c #84BE85",
"f$	c #4FAD46",
"g$	c #31A72E",
"h$	c #6FBD70",
"i$	c #75BE76",
"j$	c #B3DDB2",
"k$	c #70B96F",
"l$	c #499A4C",
"m$	c #77BC79",
"n$	c #C7DCC8",
"o$	c #E9F5EA",
"p$	c #DDF3E0",
"q$	c #B5DDB9",
"r$	c #60B66D",
"s$	c #3AA141",
"t$	c #8ED78F",
"u$	c #F0F9F0",
"v$	c #F8FDFD",
"w$	c #FAFEFF",
"x$	c #FDFEFF",
"y$	c #F9FDF8",
"z$	c #F9FFF9",
"A$	c #F0FAF2",
"B$	c #B1D9AB",
"C$	c #4AA654",
"D$	c #3AAA47",
"E$	c #74BB69",
"F$	c #A3CE9D",
"G$	c #D4EED6",
"H$	c #EBF9EE",
"I$	c #D1EBD5",
"J$	c #B6DBAC",
"K$	c #76C886",
"L$	c #69AB62",
"M$	c #4BB656",
"N$	c #B3E0AC",
"O$	c #B9DCBB",
"P$	c #63AF63",
"Q$	c #99CD9B",
"R$	c #E2F5E4",
"S$	c #F2F7F1",
"T$	c #DCE7D2",
"U$	c #D1F7D2",
"V$	c #CFE7C9",
"W$	c #BCE6BA",
"X$	c #9FD9A0",
"Y$	c #6BB96B",
"Z$	c #429E40",
"`$	c #4AAC3E",
" %	c #ACD3A6",
".%	c #F8F6F4",
"+%	c #FFFAFF",
"@%	c #FDFEF8",
"#%	c #E5F3E1",
"$%	c #D9E7DA",
"%%	c #FAFAFB",
"&%	c #FEFCFD",
"*%	c #FFFDFC",
"=%	c #EDFBF4",
"-%	c #B2DDAD",
";%	c #6AB65F",
">%	c #4BAD4C",
",%	c #3DA743",
"'%	c #70C171",
")%	c #86BC88",
"!%	c #A1DDA9",
"~%	c #DAE6D6",
"{%	c #D5EFD8",
"]%	c #D9EFDC",
"^%	c #EFF7F5",
"/%	c #F3F4EE",
"(%	c #F4FBF3",
"_%	c #E4F5E5",
":%	c #E0EEDF",
"<%	c #9DD6A0",
"[%	c #D7EAD2",
"}%	c #7FC28A",
"|%	c #90CC8E",
"1%	c #56AB55",
"2%	c #43A345",
"3%	c #54B554",
"4%	c #62B95C",
"5%	c #B8E0BD",
"6%	c #F0FBF2",
"7%	c #EEFAF2",
"8%	c #B4DEB5",
"9%	c #A4CEA3",
"0%	c #E9F6E8",
"a%	c #E5F7E3",
"b%	c #B4DEB1",
"c%	c #76BD76",
"d%	c #65B363",
"e%	c #4EB247",
"f%	c #61AE62",
"g%	c #75C57A",
"h%	c #57B75C",
"i%	c #CFE5C1",
"j%	c #5DB967",
"k%	c #E6EFE6",
"l%	c #BFDABB",
"m%	c #B4E0B5",
"n%	c #F3FAF3",
"o%	c #E3EBE0",
"p%	c #93CF8D",
"q%	c #71B66F",
"r%	c #71C574",
"s%	c #5BAC58",
"t%	c #6FBA70",
"u%	c #4EAD4A",
"v%	c #6CBC69",
"w%	c #8DC489",
"x%	c #CAE9C4",
"y%	c #F1F9F3",
"z%	c #F7FCF7",
"A%	c #FCFBFD",
"B%	c #F1F6F3",
"C%	c #C1E4BD",
"D%	c #6BB86A",
"E%	c #91C995",
"F%	c #F7FDF6",
"G%	c #DDF4DD",
"H%	c #B0DFB1",
"I%	c #82C482",
"J%	c #58B655",
"K%	c #75C474",
"L%	c #5DAD5C",
"M%	c #58AB59",
"N%	c #B1D6AB",
"O%	c #239C26",
"P%	c #9AC89A",
"Q%	c #ABE3AB",
"R%	c #57A04F",
"S%	c #CCE9BC",
"T%	c #8DC58D",
"U%	c #31A940",
"V%	c #88C885",
"W%	c #62B361",
"X%	c #64B260",
"Y%	c #8ACF8A",
"Z%	c #6EC577",
"`%	c #A5DEAC",
" &	c #CAE3CE",
".&	c #EFF5F1",
"+&	c #FBF9FD",
"@&	c #F9F9FC",
"#&	c #B7E2BB",
"$&	c #68B964",
"%&	c #47AD4F",
"&&	c #A4D6A2",
"*&	c #F1F9F0",
"=&	c #F9FEFE",
"-&	c #F6FBF6",
";&	c #DFF3DE",
">&	c #B9E2BB",
",&	c #96D297",
"'&	c #77B976",
")&	c #6BB268",
"!&	c #99DA95",
"~&	c #90D299",
"{&	c #37A730",
"]&	c #8FC792",
"^&	c #9DD99B",
"/&	c #369D35",
"(&	c #62C166",
"_&	c #8FD18F",
":&	c #82BC7A",
"<&	c #D1ECD9",
"[&	c #A3D9A7",
"}&	c #59AE5C",
"|&	c #5FB562",
"1&	c #80C07F",
"2&	c #AFD4AF",
"3&	c #D9EDD7",
"4&	c #EBF9E9",
"5&	c #C7E9C9",
"6&	c #A6D6A9",
"7&	c #79C07B",
"8&	c #4CAA4C",
"9&	c #56AF5A",
"0&	c #B5DDB2",
"a&	c #ECFAF2",
"b&	c #EBF1E9",
"c&	c #C6E2C3",
"d&	c #A7D4A4",
"e&	c #7CC678",
"f&	c #5FB85C",
"g&	c #60B059",
"h&	c #4FAA63",
"i&	c #84C176",
"j&	c #DAEDDA",
"k&	c #AAD4A7",
"l&	c #52AC54",
"m&	c #73BC73",
"n&	c #CBE3CB",
"o&	c #F4F9ED",
"p&	c #FAFAF8",
"q&	c #E8EFDE",
"r&	c #D4EFD1",
"s&	c #DBEDD9",
"t&	c #CFE8CC",
"u&	c #DCF0DD",
"v&	c #A5CAAA",
"w&	c #8DC990",
"x&	c #76BF7C",
"y&	c #43A642",
"z&	c #4CB246",
"A&	c #6DB567",
"B&	c #C0E0BC",
"C&	c #EFF6EC",
"D&	c #FCFCFD",
"E&	c #F9FAFA",
"F&	c #E3F1E4",
"G&	c #D9EAD7",
"H&	c #CAE2D0",
"I&	c #EFF8EB",
"J&	c #F2FBF2",
"K&	c #D1EBD3",
"L&	c #D2EBD0",
"M&	c #EDF6EF",
"N&	c #C4E9C7",
"O&	c #B6DBB8",
"P&	c #E7F3EA",
"Q&	c #82C181",
"R&	c #BEE0B7",
"S&	c #5BAD52",
"T&	c #7FCB82",
"U&	c #2EA437",
"V&	c #64BD66",
"W&	c #60B15C",
"X&	c #8ECA89",
"Y&	c #CAE5CB",
"Z&	c #F6FBF4",
"`&	c #FBFFFC",
" *	c #FEFDFB",
".*	c #EBF4E7",
"+*	c #EAF7E7",
"@*	c #D4EBCE",
"#*	c #65AD65",
"$*	c #B8E3BB",
"%*	c #84C082",
"&*	c #56AB57",
"**	c #95CDA0",
"=*	c #2F9534",
"-*	c #94D793",
";*	c #75B463",
">*	c #78BB74",
",*	c #A1D59D",
"'*	c #D1ECCD",
")*	c #EFF7F0",
"!*	c #E4F4E6",
"~*	c #C3EDC6",
"{*	c #60B05E",
"]*	c #56B759",
"^*	c #A6CDA5",
"/*	c #3CA73B",
"(*	c #69BF6A",
"_*	c #BFE1AE",
":*	c #55B055",
"<*	c #4BAC54",
"[*	c #63B764",
"}*	c #93C796",
"|*	c #C4E4C5",
"1*	c #E8F3EA",
"2*	c #F7FCFC",
"3*	c #DCEDDF",
"4*	c #77B97A",
"5*	c #40A941",
"6*	c #71C076",
"7*	c #D0E8C8",
"8*	c #56B05B",
"9*	c #58B259",
"0*	c #77BE7E",
"a*	c #76BB7A",
"b*	c #9AD499",
"c*	c #C6DFC2",
"d*	c #D5F4D8",
"e*	c #EFFDEF",
"f*	c #F9FBFC",
"g*	c #F8FBFE",
"h*	c #E8F4E6",
"i*	c #BCE5B9",
"j*	c #8FC78D",
"k*	c #CCEBD1",
"l*	c #EFF9ED",
"m*	c #B7E0BD",
"n*	c #7BBC7B",
"o*	c #81C37F",
"p*	c #9BCF97",
"q*	c #ABD7A8",
"r*	c #CBE9CC",
"s*	c #E8F2E6",
"t*	c #E4F1E4",
"u*	c #E9F7E8",
"v*	c #F5FFF4",
"w*	c #F0FEEB",
"x*	c #F4FFF5",
"y*	c #FCFFFC",
"z*	c #EDF4EE",
"A*	c #F3F7F4",
"B*	c #FFFCFF",
"C*	c #FDFBFE",
". . . . . . . . . . . . . . . . . . . . . . . . . + @ @ # $ % & * = . . . . . . ",
". . . . . . . . . . . . . . . . . . . . . . . . . - ; > ; , ' ) ! ~ . . . . . . ",
". . . . . . . . . . . . . . . . . . . . . . . . . @ > { ] ^ / ( _ : . . . . . . ",
". . . . . . . . . . . . . . . . . . . . . . . . . < [ } | 1 2 3 4 5 . . . . . . ",
". . . . . . . . . . . . . . . . . . . . 6 = 7 8 9 0 a b c d e f : . . . . . . . ",
". . . . . . . . . . . . . . . . . . . . : g h i j k l m n o p . . . . . . . . . ",
". . . . . . . . . . . . . . . . . . . . f q r s t u v w x y . . . . . . . . . . ",
". . . . . . . . . . . . . . . . . . . . : z A B C D E F G H . . . . . . . . . . ",
". . . . . . . . . . . . . . . . < I @ J K $ L M N O P Q R p . . . . . . . . . . ",
". . . . . . . . . . . . . . . . S T U z V W X Y Z `  ...+.p . . . . . . . . . . ",
". . . . . . . . . . . . . . . . @.#.$.%.&.*.=.-.;.>.,.'.).p . . . . . . . . . . ",
". . . . . . . . . . . . . . . . 5 !.~.{.].^./.(._.:.<.[.}.|.. . . . . . . . . . ",
". . . . . . . . . 5 + 5 1.6 2.@ 3.4.5.6.7.8.9.0.a.b.c.d.e.J p . . . . . . . . . ",
". . . . . . . . + 5 5 + f.g.h.i.j.k.l.m.n.o.p.q.r.s.t.u.v.w.. . p . . . . . . . ",
". . . . . . . . 5 x.y.z.A.B.C.D.E.F.G.H.I.J.K.L.M.N.O.P.Q.R.p p w.. . . . . . . ",
". . . . . . . . S.T.U.V.W.X.Y.Z.`. +.+++@+#+$+%+&+*+=+-+;+>+. . p . . . . . . . ",
". . . . y.p S p < 2.,+'+)+!+~+{+]+^+/+(+_+:+<+[+}+|+1+2+3+4+5+6+S.: . . . . . . ",
". . . . 7+p 8+z 9+7+0+a+b+c+d+e+f+g+h+i+j+k+l+m+n+o+p+q+r+s+t+u+v+I . . . . . . ",
". . . . w+Y.; x+z.y+B.z+A+B+C+D+E+F+G+H+I+J+K+L+M+N+O+P+Q+R+0+S+T+U+. . . . . . ",
". . . . V+y+W+X+Y+|.: y+Z+`+ @.@+@@@#@$@%@&@*@=@-@;@>@,@'@8+)@!@~@e . . . . . . ",
": p {@I w.x.]@^@/@(@q _@:@<@[@}@|@1@2@3@4@5@6@7@8@9@0@a@b@c@d@e@f@e {@{@. 5 . . ",
"q w.x.g@h@< i@j@k@l@m@n@o@p@q@r@s@t@u@v@w@x@y@z@A@B@C@D@E@F@G@H@I@J@K@9 |.y.. . ",
"L@M@N@9 O@Y.P@J Q@R@S@T@U@V@W@X@Y@Z@`@ #.#+#@###$#%#&#*#=#-#;#>#,#'#)#< !#@.. . ",
"~#{#]#^#/#(#+ ; _#:#<#[#}#|#1#2#3#4#5#6#7#8#9#0#a#b#c#d#e#f#g#h#i#j#k#l#m#S . . ",
"n#o#p#q#r#s#/#t#u#v#w#x#y#z#A#B#C#D#E#F#G#H#I#J#K#L#M#N#O#P#! Q#R#S#T#U#V#p . . ",
"W#X#Y#Z#`# $S+w..$+$@$#$$$%$&$*$=$-$;$>$,$'$)$!$~${$]$^$/$($_$:$<$[$e W.}$w+|$|$",
"1$r#2$3$4$5$6$7$8$9$0$a$b$c$d$e$f$F@g$h$i$j$k$l$m$n$o$p$q$r$s$t$u$v$w$x$y.y$z$e ",
"|$5 w.A$B$C$D$E$F$G$H$I$J$K$L$M$N$O$P$Q$R$S$T$U$V$W$X$Y$Z$`$ %.%j z.+%+%@%#%$%%%",
"x$&%*%|.=%-%;%>%,%'%)%!%~%{%]%^%/%(%_%:%S$<%[%}%|%1%2%3%4%5%6%J@i@z.x$7%8%9%0%B.",
". . . . !+a%b%c%d%e%f%g%h%i%j%k%l%m%n%o%p%q%r%s%t%u%v%w%x%y%z%W#A%B%C%D%E%Z+|.5 ",
". . . . I F%G%H%I%J%K%L%M%N%O%P%Q%R%S%T%U%V%W%X%Y%Z%`% &.&+&@&t+#&$&%&&&*&=&. . ",
". . . . Y.Y.-&;&>&,&'&)&!&~&{&]&^&/&(&_&:&<&[&}&|&1&2&3&4&5&6&7&8&9&0&a&V+M@. . ",
". . . . 6+z y b&c&d&e&f&g&h&i&j&k&l&m&n&o&p&q&r&s&t&u&v&w&x&y&z&A&B&C&x.D&< . . ",
". . . . |.p p |.p E&Z+F&G&H&I&:@J&K&L&M&~#N&O&P&Q&R&S&T&U&V&W&X&Y&Z&`&I 5 {@. . ",
". . . . . . . . . . . . p p . p &% *.*+*@*#*$*%*&***=*-*;*>*,*'*)*e . . . . . . ",
". . . . . . . . . . . . p w.w.p p |$!*~*{*]*^*/*(*_*:*<*[*}*|*1*2*{@. . . . . . ",
". . . . . . . . . . . . . . . . U.z.3*4*5*6*7*8*9*0*a*b*c*d*e*f*g*w+. . . . . . ",
". . . . . . . . . . . . . . . . : y h*i*j*k*l*m*n*o*p*q*r*s*4 + S.. . . . . . . ",
". . . . . . . . . . . . . . . . . 1$t*u*v* *+%q w*x*z$`&D&. . . . . . . . . . . ",
". . . . . . . . . . . . . . . . p y*z*A*D&U.B*> < C*V#. . . . . . . . . . . . . "};
