/* XPM */
static char * audioaddmodule_xpm[] = {
"40 40 538 2",
"  	c None",
". 	c #FFFFFF",
"+ 	c #F2F2F2",
"@ 	c #F3F3F3",
"# 	c #F1F3F2",
"$ 	c #EBEFED",
"% 	c #EDE9F2",
"& 	c #BCBBBB",
"* 	c #8C8989",
"= 	c #8D8A87",
"- 	c #8D7277",
"; 	c #A55D5C",
"> 	c #C0535D",
", 	c #989E9A",
"' 	c #E1E2E2",
") 	c #EEEFF0",
"! 	c #F2F1F2",
"~ 	c #EBEBEB",
"{ 	c #EEEEEE",
"] 	c #F4F4F4",
"^ 	c #EFEFEF",
"/ 	c #FDFCFB",
"( 	c #EAE8EB",
"_ 	c #8D8179",
": 	c #B39B9A",
"< 	c #ECBCC0",
"[ 	c #F3BFC5",
"} 	c #F6DFDC",
"| 	c #F6F0ED",
"1 	c #EADFDC",
"2 	c #D19C9B",
"3 	c #8C8385",
"4 	c #BCBCBE",
"5 	c #F9F9F8",
"6 	c #FDFDFD",
"7 	c #FEFEFE",
"8 	c #F6F6F6",
"9 	c #F9F9F9",
"0 	c #FCFCFC",
"a 	c #E1DCDB",
"b 	c #7B8082",
"c 	c #D67072",
"d 	c #EBC1C3",
"e 	c #EFEFE8",
"f 	c #F3F3F2",
"g 	c #F2EEF2",
"h 	c #F2EFF5",
"i 	c #E8EAEA",
"j 	c #E9ECE9",
"k 	c #EBBCBD",
"l 	c #A7918D",
"m 	c #9E9F9E",
"n 	c #E9E9E9",
"o 	c #EDEDED",
"p 	c #F0F0F0",
"q 	c #F1F1F1",
"r 	c #F3F4F3",
"s 	c #F8FAFA",
"t 	c #ECEDF0",
"u 	c #848282",
"v 	c #E5BABE",
"w 	c #F0DFDA",
"x 	c #F9F9FD",
"y 	c #F5F5F5",
"z 	c #FDFCFD",
"A 	c #FEFBF9",
"B 	c #EFD2D1",
"C 	c #AD8B88",
"D 	c #AAABAF",
"E 	c #F4FAF7",
"F 	c #FEFDFE",
"G 	c #FAFAFA",
"H 	c #F1F0F1",
"I 	c #8A8989",
"J 	c #D8BBB9",
"K 	c #EACDCC",
"L 	c #E6EBEF",
"M 	c #F6F2F3",
"N 	c #F5F3F4",
"O 	c #F3F5F5",
"P 	c #F0F3F5",
"Q 	c #EDCECF",
"R 	c #AC3839",
"S 	c #CAC7CA",
"T 	c #F5F6F6",
"U 	c #F8F7F7",
"V 	c #F3F2F2",
"W 	c #B7B5B6",
"X 	c #B9ACAF",
"Y 	c #EBC7CB",
"Z 	c #F8F5F5",
"` 	c #EEF2F1",
" .	c #F8FDFC",
"..	c #FCFDFD",
"+.	c #FCFDFC",
"@.	c #FCFCFA",
"#.	c #F9F7F5",
"$.	c #E2D0CF",
"%.	c #876764",
"&.	c #DBDDDD",
"*.	c #CCC3C4",
"=.	c #E3E0E2",
"-.	c #8D8782",
";.	c #EDB7B9",
">.	c #F7F5F3",
",.	c #F7F7F7",
"'.	c #FBF8F6",
").	c #EBEEF0",
"!.	c #DAB9B8",
"~.	c #BCA1A1",
"{.	c #F1F5F2",
"].	c #F8F8F8",
"^.	c #F8F7F8",
"/.	c #F3F6F4",
"(.	c #E8ECEE",
"_.	c #DBD6D7",
":.	c #C7C4C7",
"<.	c #B0B2AC",
"[.	c #D59FA3",
"}.	c #F6F3F1",
"|.	c #F6F9FD",
"1.	c #FBFBFB",
"2.	c #FDFBFA",
"3.	c #F0F6F8",
"4.	c #FAFBFC",
"5.	c #CC9C9A",
"6.	c #E6E1E3",
"7.	c #F7F7F8",
"8.	c #D1D8D0",
"9.	c #E1DEDF",
"0.	c #D9D9D4",
"a.	c #ED9898",
"b.	c #EFD6D3",
"c.	c #F1F4F7",
"d.	c #F1F3F1",
"e.	c #F5F6F5",
"f.	c #F0ECEB",
"g.	c #E8E8E3",
"h.	c #BC8283",
"i.	c #F2F1F0",
"j.	c #ECECEC",
"k.	c #F7F4F2",
"l.	c #D2CECF",
"m.	c #C76D6D",
"n.	c #D3D0D2",
"o.	c #C9C7C2",
"p.	c #F1D3D1",
"q.	c #FBFCFD",
"r.	c #C8BCBA",
"s.	c #B98D8F",
"t.	c #F1F2F5",
"u.	c #F4F9F6",
"v.	c #F4F8F8",
"w.	c #F6F6F8",
"x.	c #F2F8FA",
"y.	c #F8F9FB",
"z.	c #F8EFF0",
"A.	c #BE8489",
"B.	c #EED0D1",
"C.	c #FAFCFC",
"D.	c #FDFBFE",
"E.	c #EBF3F3",
"F.	c #F6F8FA",
"G.	c #8C7372",
"H.	c #DE9A98",
"I.	c #F4EFF0",
"J.	c #F4F2F5",
"K.	c #F2F4F2",
"L.	c #F5F6F7",
"M.	c #F2E5E6",
"N.	c #A56E6E",
"O.	c #D3CDCC",
"P.	c #EAEFF1",
"Q.	c #FAFEFC",
"R.	c #F2EFEE",
"S.	c #F7F8F8",
"T.	c #F6F4F4",
"U.	c #E5E7E3",
"V.	c #954F50",
"W.	c #E9B5B5",
"X.	c #F4F3F3",
"Y.	c #F6F7F7",
"Z.	c #F0F2F2",
"`.	c #F0D7D3",
" +	c #B38889",
".+	c #A9A9A9",
"++	c #F4F6F6",
"@+	c #EDEFF0",
"#+	c #D5D2D4",
"$+	c #8B7D7B",
"%+	c #E2B8BD",
"&+	c #FAEEF0",
"*+	c #F8F8FB",
"=+	c #FBF9FC",
"-+	c #F9F9FB",
";+	c #FAFBFD",
">+	c #F6EAE8",
",+	c #ECB8BB",
"'+	c #BC999C",
")+	c #A09C9B",
"!+	c #FBFBFC",
"~+	c #EAEAEA",
"{+	c #E5ECEE",
"]+	c #D2CCD0",
"^+	c #857F7F",
"/+	c #D6A4A7",
"(+	c #E8D7D8",
"_+	c #ECECEF",
":+	c #EDEDEF",
"<+	c #EBF1F0",
"[+	c #F2E2E1",
"}+	c #ECC7C7",
"|+	c #E7A5A8",
"1+	c #9F6C6A",
"2+	c #9F9D9D",
"3+	c #EEEEF0",
"4+	c #F3F2F4",
"5+	c #F6F5F5",
"6+	c #F1F2F2",
"7+	c #F3FBF9",
"8+	c #EBE6E9",
"9+	c #9A9492",
"0+	c #926D6D",
"a+	c #DBABA8",
"b+	c #EED3D2",
"c+	c #E8BABE",
"d+	c #E7C2C0",
"e+	c #BCB0AF",
"f+	c #818484",
"g+	c #C2BFC0",
"h+	c #FDFAFB",
"i+	c #FAFAF8",
"j+	c #F1F2F1",
"k+	c #F2F0F1",
"l+	c #F5F4F5",
"m+	c #F3F1F2",
"n+	c #F4F0F2",
"o+	c #DBE2E1",
"p+	c #CC9493",
"q+	c #BA7A79",
"r+	c #959293",
"s+	c #9A9898",
"t+	c #BDBDBD",
"u+	c #D2D2D2",
"v+	c #C6C4C5",
"w+	c #C2BCBE",
"x+	c #BBB5B7",
"y+	c #BDBABB",
"z+	c #BEBCBD",
"A+	c #B4B2B3",
"B+	c #D8D4D6",
"C+	c #BBB6B8",
"D+	c #BBB6B7",
"E+	c #D6D4D5",
"F+	c #B8B6B7",
"G+	c #C9C7C7",
"H+	c #C1BBB8",
"I+	c #C5C0C3",
"J+	c #CDCECB",
"K+	c #F7FEFA",
"L+	c #FAFAFC",
"M+	c #F8FAF8",
"N+	c #E2E2E2",
"O+	c #E8E8E8",
"P+	c #DFDEDE",
"Q+	c #E8E7E8",
"R+	c #EAE9EA",
"S+	c #EBEAEA",
"T+	c #DCDBDB",
"U+	c #E8E7E7",
"V+	c #EDEBEC",
"W+	c #E8E5E8",
"X+	c #E9E8E9",
"Y+	c #FDFBFB",
"Z+	c #FDFEFC",
"`+	c #FFFEFE",
" @	c #FEFFFE",
".@	c #F9FAF9",
"+@	c #FEF8F8",
"@@	c #FEFDFB",
"#@	c #FEFFFF",
"$@	c #F0EEEF",
"%@	c #EFEEEF",
"&@	c #D6D6D8",
"*@	c #AB847F",
"=@	c #D57A7C",
"-@	c #B2888D",
";@	c #E16B6B",
">@	c #B29095",
",@	c #B26A69",
"'@	c #EE9D9F",
")@	c #EBF2F4",
"!@	c #F1ECF1",
"~@	c #F2F2F4",
"{@	c #F3F1F3",
"]@	c #F6F7F3",
"^@	c #F1F3F3",
"/@	c #989A94",
"(@	c #9F747B",
"_@	c #DBB9BB",
":@	c #F5F1ED",
"<@	c #F8F8F9",
"[@	c #F1F3E9",
"}@	c #F6F3F2",
"|@	c #C4C7C5",
"1@	c #826B5F",
"2@	c #C6999F",
"3@	c #EEF1EB",
"4@	c #FBFBFE",
"5@	c #F7F9FA",
"6@	c #FBF9F9",
"7@	c #F4F4F3",
"8@	c #E0E1E1",
"9@	c #838386",
"0@	c #CA5756",
"a@	c #EAD2CF",
"b@	c #F3EFF2",
"c@	c #EDEEEF",
"d@	c #F2F6F1",
"e@	c #EAEDF1",
"f@	c #F3F3F1",
"g@	c #F3F0EF",
"h@	c #EBE7E7",
"i@	c #9A908B",
"j@	c #E17277",
"k@	c #F4F5EE",
"l@	c #F4F1F4",
"m@	c #EFF3F1",
"n@	c #F5FAFA",
"o@	c #F4F3EF",
"p@	c #81797C",
"q@	c #CDA7A7",
"r@	c #F0D7D6",
"s@	c #F9FCFC",
"t@	c #D69A9D",
"u@	c #C9C0BE",
"v@	c #F7F8FA",
"w@	c #FAF9FA",
"x@	c #F9F3F5",
"y@	c #9D8783",
"z@	c #CE7678",
"A@	c #F6EBEC",
"B@	c #E9EAE7",
"C@	c #F4F6F5",
"D@	c #EDE8E6",
"E@	c #986268",
"F@	c #D7D3D3",
"G@	c #F3F4F4",
"H@	c #FDFEFD",
"I@	c #FBFCFB",
"J@	c #F4F5F4",
"K@	c #C5C2C3",
"L@	c #A57775",
"M@	c #F1DFDD",
"N@	c #F7FBFB",
"O@	c #EFEFF2",
"P@	c #F7FAF7",
"Q@	c #EDF1F4",
"R@	c #ECD2CC",
"S@	c #836569",
"T@	c #F3F2F3",
"U@	c #F0F1F0",
"V@	c #FBFAFB",
"W@	c #F3F4F5",
"X@	c #C6C3C2",
"Y@	c #E6E7E5",
"Z@	c #8B7B7A",
"`@	c #E9C3C2",
" #	c #F0EDED",
".#	c #C37877",
"+#	c #C0A7A5",
"@#	c #F7F4F6",
"##	c #EEEFEC",
"$#	c #F8F9F9",
"%#	c #ECEFEF",
"&#	c #F1F5F1",
"*#	c #EDC1C2",
"=#	c #EDECEA",
"-#	c #B9ACAE",
";#	c #B2B3B0",
">#	c #C9959B",
",#	c #F3F5F2",
"'#	c #ECF0F1",
")#	c #F6D9D6",
"!#	c #BC7C7B",
"~#	c #EAE5E5",
"{#	c #EEEDEE",
"]#	c #EFF2F2",
"^#	c #F6E4E0",
"/#	c #D98E92",
"(#	c #ECECEB",
"_#	c #BFC0BE",
":#	c #E5BFC5",
"<#	c #EDC9C9",
"[#	c #F6F6FA",
"}#	c #EDEFED",
"|#	c #F9FBF8",
"1#	c #F1F5F4",
"2#	c #E6E2E0",
"3#	c #9E696C",
"4#	c #EDC7C7",
"5#	c #FAFBFB",
"6#	c #FCFAFB",
"7#	c #EFF2F1",
"8#	c #CEA3A8",
"9#	c #9F9793",
"0#	c #E8E4E8",
"a#	c #B2B5B2",
"b#	c #F2AFAE",
"c#	c #F3E3E1",
"d#	c #F2F2F5",
"e#	c #EEECEE",
"f#	c #EEF1F1",
"g#	c #ABA8A0",
"h#	c #C1595C",
"i#	c #ECEDE9",
"j#	c #F0F1EF",
"k#	c #EBECEA",
"l#	c #F2F5F6",
"m#	c #F3F1F5",
"n#	c #ECD7D6",
"o#	c #896065",
"p#	c #DFE5E3",
"q#	c #F9FDFD",
"r#	c #F7F8FB",
"s#	c #FAFDFC",
"t#	c #FFFAFD",
"u#	c #F1F5F6",
"v#	c #F7F4F5",
"w#	c #EEF6F6",
"x#	c #837675",
"y#	c #E5BEC0",
"z#	c #F4F4F2",
"A#	c #F8FAFC",
"B#	c #F9F5F6",
"C#	c #B67C80",
"D#	c #C1BFBA",
"E#	c #EEF1F4",
"F#	c #FCFCFD",
"G#	c #F2F0F3",
"H#	c #F5F3F7",
"I#	c #EDECEF",
"J#	c #F1F1F2",
"K#	c #F3F3F6",
"L#	c #D1D3CF",
"M#	c #8A5F5E",
"N#	c #E9DCDD",
"O#	c #F2EDF1",
"P#	c #EEEEED",
"Q#	c #EBEDED",
"R#	c #F7F3F7",
"S#	c #D6A8A5",
"T#	c #D48A8C",
"U#	c #F3F4F6",
"V#	c #EEEFEE",
"W#	c #CCC4C5",
"X#	c #C1898A",
"Y#	c #F2F3F6",
"Z#	c #F7FBFA",
"`#	c #F4F4EF",
" $	c #FAFEFD",
".$	c #F0EEF1",
"+$	c #F7FAFC",
"@$	c #F0F3F2",
"#$	c #D9B2B6",
"$$	c #957577",
"%$	c #F1F6F9",
"&$	c #EAA09D",
"*$	c #C17D7F",
"=$	c #F1EBEF",
"-$	c #F6F5F6",
";$	c #F9F4F4",
">$	c #E8EEEF",
",$	c #D7656D",
"'$	c #977A77",
")$	c #E8F2F3",
"!$	c #F5F8F5",
"~$	c #F0F2F4",
"{$	c #E5C0C2",
"]$	c #8F615F",
"^$	c #ABB0AB",
"/$	c #EAE8EA",
"($	c #F4F1F1",
"_$	c #FEFDFD",
":$	c #D1CEC9",
"<$	c #BD8E91",
"[$	c #B5A6A2",
"}$	c #F7F6F4",
"|$	c #EDECEC",
"1$	c #F1F0F0",
"2$	c #EDECED",
"3$	c #EEEFEF",
"4$	c #EACCCD",
"5$	c #BE4A54",
"6$	c #91595B",
"7$	c #BB4E4B",
"8$	c #A45F5A",
"9$	c #9A4B47",
"0$	c #B5464E",
"a$	c #E9DCD9",
"b$	c #ECEAEE",
"c$	c #F0EFEF",
"d$	c #F9F7F8",
"e$	c #F9F8F9",
"f$	c #FCFBFC",
"g$	c #F9FAFA",
"h$	c #F8FAF9",
"i$	c #F8F5F8",
"j$	c #F9F6EC",
"k$	c #F5F3F0",
"l$	c #F2EDEF",
"m$	c #F7F8FC",
"n$	c #F5F3ED",
"o$	c #F9FBFA",
"p$	c #FBFDFD",
"q$	c #DFDFDF",
"r$	c #CDCACB",
"s$	c #B3AFB0",
"t$	c #B1ACAE",
"u$	c #A9A2A5",
"v$	c #B3ACAE",
"w$	c #BCB5B8",
"x$	c #CAC3C5",
"y$	c #AFA8AB",
"z$	c #CBC4C7",
"A$	c #C1BBBD",
"B$	c #B1AAAD",
"C$	c #C4C4C4",
"D$	c #B0A9A8",
"E$	c #B7B6B6",
"F$	c #E5E8E7",
"G$	c #FCFCFE",
"H$	c #FDFCFA",
"I$	c #F6FBF9",
"J$	c #FCFBFD",
"K$	c #FBFDFE",
"L$	c #EFECED",
"M$	c #F4F1F2",
". . + @ @ # $ % & * = - ; > , ' ) ! ~ + + + + { ] + @ @ ^ + + @ + + ^ + + + @ ^ ",
". . @ . . / ( _ : < [ } | 1 2 3 4 5 ] 6 7 7 7 8 7 7 7 . 9 9 7 7 7 0 9 7 7 7 6 @ ",
". . + ] ] a b c d e f g h i j k l m n + ] ] ] o ] ] ] ] ^ p ] ] @ q ^ ] ] ] ] ^ ",
"7 6 r s t u v w x . . 7 0 y z A B C D E F . . y 7 6 . . 9 G 7 7 7 0 G . . 7 7 ] ",
"7 . ^ H I J K L M y y y @ ~ N O P Q R S T y y ~ ] ] ] y ^ p ] ] ] + p y y y y q ",
"0 U V W X Y Z `  .7 7 7 6 ] ..+.@.#.$.%.8 7 7 y 7 6 7 7 9 G 7 7 6 0 G 7 7 6 6 @ ",
"&.*.=.-.;.>.8 { ,.9 9 9 ,.^ 9 9 9 '.).!.~.{.T ^ ].].,.].+ ] ].9 ].y + 9 9 ^./.(.",
"_.:.<.[.}.|.6 ] 6 6 6 6 1.] 6 6 6 2.3.4.5.6.G ] 6 0 6 6 ].9 6 7 6 1.].6 6 / 7.8.",
"9.0.a.b.c.d.8 { 8 8 8 8 y o 8 8 8 e.f.>.g.h.i.j.e.y ,.,.q q 8 ,.,.] q 8 8 k.l.m.",
"n.o.p.1.. 7 7 8 7 7 7 7 0 ] 7 7 7 7 y 6 q.r.s.t.u.v.7 7 G G 7 7 7 1.w.x.y.z.A.B.",
"C.D.E.G 9 G 1.+ 1.1.1.1.].q 1.1.1.G q G F.r G.H.I.J.G 1.y 8 G G G ].K.L.M.N.O.P.",
"..Q.R.].].].9 p 9 9 9 9 ,.p 9 9 9 9 p ].S.T.U.V.W.] 9 9 X.y 9 9 9 Y.Z.`. +.+++@+",
". . ] 6 6 6 6 y 6 6 6 6 1.@ 6 6 6 6 y 6 6 6 6 #+$+%+&+++++*+=+-+;+>+,+'+)+!+7 ] ",
"7 . ^ ] ] @ @ ~ @ ] ] ] + ~+] ] ] ] j.] ] ] ] {+]+^+/+(+_+:+<+[+}+|+1+2+3+4+] { ",
". 7 ] 7 7 7 6 8 7 7 7 7 0 ] 7 7 7 7 5+6 7 7 7 6+7+8+9+0+a+b+c+d+e+f+g+h+i++.7 @ ",
"7 . ,.y y y 8 @ ] y y y ,.^ @ j+y N k+l+@ y ] m+N m+n+o+p+q+r+s+t+p @ y y ] ,.8 ",
"7 7 7 . . . 7 7 . . . 7 7 u+v+w+x+y+z+A+B+C+D+E+F+G+H+I+J+K+L+M+0 6 7 . . . 7 . ",
"6 . 7 . . . 7 . . . . . 6 + { N+O+P+Q+R+S+T+~ k+U+V+W+X+H Y+Z+..6 6 6 . . . . 7 ",
". . . . . . . . . . . . . . . . . . . . . . . . . . . . . . . . . . . . . . . . ",
". . . . . . . . . . . . . . . . . . . . . . . . . . . . . . . . . . . . . . . . ",
". . . . . . `+ @. 7 2..@+@7 @@@@#@. #@. . . . . . . . . . . . . . . . . . . . . ",
"7 7 8 ] y $@d.%@&@*@=@-@;@>@,@'@)@!@~@{@@ ] p @ q + ] ^ ] ^ ] 8 { ] p ] @ p ] @ ",
"7 . ] 7 6 ]@^@/@(@_@:@<@[@}@|@1@2@3@4@5@6@6 ] 7 ,.G 7 8 7 ] 7 0 ] 7 y 6 1.8 7 ] ",
"6 7 @ y 7@8@9@0@a@b@c@d@e@f@g@h@i@j@k@l@m@,.o 8 p @ y o 8 o ,.8 o 8 o y ] { 8 ^ ",
"7 . y n@o@p@q@r@s@G ,.7 8 7 ,.9 0 t@u@v@w@7 @ 7 ,.G 7 8 7 y 7 6 y 7 y 6 0 8 7 y ",
"7 . 7@x@y@z@A@B@C@] q ].p ].q ] ,.D@E@F@G@].o ].q ] ].p ].^ ,.,.{ ].^ ,.8 q ].@ ",
"H@I@J@K@L@M@N@O@P@,.] 0 @ 1.y ,.1.Q@R@S@T@0 U@1.] ].1.] 1.+ 1.1.+ 1.+ G G ] V@W@",
"f@X@Y@Z@`@^ 9 o 9 y + 9 p ,.+ ] ]. #T..#+#@###$#q y ].q ].^ ].,.^ ].^ ].,.%#&#*#",
"=#-#;#>#,#i.1.^ 1.8 @ G q 9 ] 8 G '#^.)#!#~#{#1.@ ,.G @ 1.q G 9 q G + G ].]#^#/#",
"(#_#:#<#[#f@1.q 0 ,.y 1.@ 1.y ,.1.}#|#1#2#3#4#5#y ].1.] 1.+ 1.G + 1.] 6#w@7#8#9#",
"0#a#b#c#d#e#y ~ 8 q ^ y o ] { q y j.y + f#g#h#i#c@j#] o y j.] y { 8 k#l#m#n#o#p#",
"q#r#1#s#t#u#7 ] 7 G ,.7 8 6 ,.G 7 @ 7 G v#w#x#y#T.,.7 8 7 8 7 7 y 7 z#A#B#C#D#E#",
"F#C.G#H#J@I#,.o ].@ q ,.^ ,.q @ ,.j.,.@ J#K#L#M#N#O#8 P#,.{ 8 8 j.] Q#R#S#T#U#V#",
"7 . y 6 7 ] 6 + 7 9 8 6 y 6 ,.9 6 + 6 9 9 7 + W#X#Y#Z#`#F#y 6  $.$+$@$#$$$Z.6 ] ",
"7 . ] 8 ,.{ ,.~ ,.@ p ,.{ 8 q + 8 j.,.@ + ,.j.%$&$*$n =$-${ ,.;$>${ ,$'$)$}#8 q ",
"7 7 y 7 . y 7 @ 7 G ,.7 8 6 ].G 6 @ 7 G 9 7 @ !$~${$]$^$/$($_$O :$<$[$}$w@5+7 y ",
"7 7 y q + { @ j.q p { @ j.q o ^ @ |$V %@1$+ 2$q o 3$4$5$6$7$8$9$0$a$b$+ + { @ q ",
". 7 7 7 7 7 7 . 7 7 7 7 6 q c$d$e$f$1.q g$1.$#].S.h$i$j$k$l$m$S.n$o$p$7 7 7 7 7 ",
". . . . 7 7 . 7 . . . 6 7 q$F+r$s$t$u$v$w$x$y$z$A$B$C$D$E$F$G$H$I$J$K$. . 7 . . ",
". . . . . . . . . . . . . 6 8 ,.y ].O+8 N L$M$9 ].8 ] 8 y 0 6 7 . . . . . . . . "};
