/* XPM */
static char * capturemodule_xpm[] = {
"40 40 947 2",
"  	c None",
". 	c #FFFFFF",
"+ 	c #FCFCFC",
"@ 	c #FCFCFB",
"# 	c #FEFEFC",
"$ 	c #FCFDFE",
"% 	c #FCFEFC",
"& 	c #F6F8F5",
"* 	c #F0F1F1",
"= 	c #F2F3F2",
"- 	c #F6F7F6",
"; 	c #F9FAF8",
"> 	c #F9FBF7",
", 	c #FBFDFA",
"' 	c #FBFCFA",
") 	c #FDFEFA",
"! 	c #FEFEFB",
"~ 	c #FDFDFB",
"{ 	c #FEFEFD",
"] 	c #FEFEFE",
"^ 	c #FDFDFD",
"/ 	c #FBFBFC",
"( 	c #FCFCFD",
"_ 	c #FAFCFD",
": 	c #E6E9EC",
"< 	c #9EA0A7",
"[ 	c #646772",
"} 	c #5A6070",
"| 	c #8C92A2",
"1 	c #989EAE",
"2 	c #8D909E",
"3 	c #C3C5CE",
"4 	c #E4E7EA",
"5 	c #F9FCFA",
"6 	c #FDFDFC",
"7 	c #FCFCFA",
"8 	c #FCFBFE",
"9 	c #DDDBE3",
"0 	c #8C909A",
"a 	c #545964",
"b 	c #4C515E",
"c 	c #4F5362",
"d 	c #545B6D",
"e 	c #636A7C",
"f 	c #656C7E",
"g 	c #585D70",
"h 	c #75798B",
"i 	c #676B79",
"j 	c #9196A0",
"k 	c #E0E0E6",
"l 	c #FBFBFD",
"m 	c #FBFBF9",
"n 	c #FDFDFA",
"o 	c #FEFFFC",
"p 	c #FFFEFF",
"q 	c #FEFEFF",
"r 	c #FDFEFB",
"s 	c #F0F2F0",
"t 	c #9E9FA7",
"u 	c #525164",
"v 	c #4C5268",
"w 	c #5A6176",
"x 	c #555D6D",
"y 	c #434B58",
"z 	c #4D5061",
"A 	c #4E5162",
"B 	c #585B6C",
"C 	c #585C6D",
"D 	c #5F6375",
"E 	c #65697C",
"F 	c #676B7F",
"G 	c #646271",
"H 	c #BDBEC8",
"I 	c #F8FAF9",
"J 	c #FCFCF5",
"K 	c #FFFFFE",
"L 	c #FEFEF9",
"M 	c #E9EBEE",
"N 	c #686D74",
"O 	c #555868",
"P 	c #6A6B83",
"Q 	c #70748B",
"R 	c #474C60",
"S 	c #363B4C",
"T 	c #323747",
"U 	c #44475A",
"V 	c #4A4D60",
"W 	c #4F5264",
"X 	c #515465",
"Y 	c #646778",
"Z 	c #7F8293",
"` 	c #6F7088",
" .	c #52586D",
"..	c #A5ACB5",
"+.	c #F7F9F8",
"@.	c #FBFBFB",
"#.	c #FAFAF5",
"$.	c #E5E4E4",
"%.	c #666775",
"&.	c #6B6D85",
"*.	c #7C7F93",
"=.	c #65687A",
"-.	c #464757",
";.	c #4A4B5B",
">.	c #3A3A4A",
",.	c #393A4C",
"'.	c #3E4154",
").	c #56596C",
"!.	c #737689",
"~.	c #888B9D",
"{.	c #8C8FA0",
"].	c #858899",
"^.	c #AAADBE",
"/.	c #8B91AC",
"(.	c #656B84",
"_.	c #5C6377",
":.	c #B5BAC9",
"<.	c #FBFAFD",
"[.	c #FEFDFF",
"}.	c #FCFBFC",
"|.	c #EEEEEC",
"1.	c #716F7E",
"2.	c #7E7C96",
"3.	c #A0A2B7",
"4.	c #9093A5",
"5.	c #787B8A",
"6.	c #6F7282",
"7.	c #828598",
"8.	c #A5A7BE",
"9.	c #B4B6CE",
"0.	c #BBBED1",
"a.	c #B3B6C9",
"b.	c #A7AABB",
"c.	c #A0A3B4",
"d.	c #989BAC",
"e.	c #8A8D9E",
"f.	c #7F8596",
"g.	c #AAAAB7",
"h.	c #A3A4B4",
"i.	c #6D7185",
"j.	c #D3D1DB",
"k.	c #FEFFFE",
"l.	c #F9F9FA",
"m.	c #9D9CA7",
"n.	c #7D7D91",
"o.	c #9A9DB0",
"p.	c #8E94A3",
"q.	c #82889A",
"r.	c #787E93",
"s.	c #788093",
"t.	c #828AA0",
"u.	c #ADB5C6",
"v.	c #DCE4EB",
"w.	c #EAECF3",
"x.	c #DDE0E9",
"y.	c #CDD0E0",
"z.	c #C0C2DA",
"A.	c #ADB0C1",
"B.	c #9DA1AD",
"C.	c #9195A3",
"D.	c #898C9B",
"E.	c #888B95",
"F.	c #D2D5DC",
"G.	c #888C98",
"H.	c #F2F5F7",
"I.	c #FCFDFD",
"J.	c #D7D7DC",
"K.	c #7C7C8D",
"L.	c #989AAE",
"M.	c #7A7E91",
"N.	c #545A6A",
"O.	c #444B57",
"P.	c #3E454E",
"Q.	c #444C56",
"R.	c #515869",
"S.	c #636980",
"T.	c #7D8396",
"U.	c #DBDFE4",
"V.	c #F9FCFD",
"W.	c #F0F3F9",
"X.	c #DBDDEB",
"Y.	c #C1C5D3",
"Z.	c #AAAEBA",
"`.	c #999DA9",
" +	c #8F929E",
".+	c #818590",
"++	c #878B94",
"@+	c #B8BCC7",
"#+	c #666A7C",
"$+	c #C6CAD0",
"%+	c #FBFDFC",
"&+	c #FAFAFA",
"*+	c #9B9DA8",
"=+	c #9294A7",
"-+	c #6E7386",
";+	c #434857",
">+	c #575A66",
",+	c #73777D",
"'+	c #767B79",
")+	c #727A7A",
"!+	c #6F767C",
"~+	c #55596C",
"{+	c #5F637F",
"]+	c #73798A",
"^+	c #E6EAED",
"/+	c #F1F3F5",
"(+	c #D5DAE3",
"_+	c #B8BCC9",
":+	c #A1A5B0",
"<+	c #92969E",
"[+	c #878B95",
"}+	c #787C88",
"|+	c #8A8E9C",
"1+	c #7C8091",
"2+	c #888C96",
"3+	c #FFFFFD",
"4+	c #EAEAEC",
"5+	c #8B8F9E",
"6+	c #797D91",
"7+	c #474D5E",
"8+	c #666B74",
"9+	c #6E7176",
"0+	c #323637",
"a+	c #1E2221",
"b+	c #1B201F",
"c+	c #3B403E",
"d+	c #92969D",
"e+	c #686B7F",
"f+	c #5A607B",
"g+	c #9FA3AE",
"h+	c #F9F9F8",
"i+	c #FAFDFB",
"j+	c #E2E7EE",
"k+	c #C3C6D5",
"l+	c #A9ACB8",
"m+	c #9599A0",
"n+	c #898D96",
"o+	c #7E828D",
"p+	c #6B6F7C",
"q+	c #767B8B",
"r+	c #6D707E",
"s+	c #E1E3E3",
"t+	c #FCFEFA",
"u+	c #C4C4CB",
"v+	c #8B92A1",
"w+	c #5A5F74",
"x+	c #5B5D6A",
"y+	c #5E6266",
"z+	c #26292F",
"A+	c #1E2225",
"B+	c #181C1D",
"C+	c #17191B",
"D+	c #1A1B1E",
"E+	c #525358",
"F+	c #A1A2AC",
"G+	c #5B6176",
"H+	c #666A7B",
"I+	c #ECEFF4",
"J+	c #F9FEFB",
"K+	c #E5EAF0",
"L+	c #C7CBD9",
"M+	c #ABAEBC",
"N+	c #999BA7",
"O+	c #8A8D97",
"P+	c #808389",
"Q+	c #6F737A",
"R+	c #626979",
"S+	c #5D6270",
"T+	c #C7CACD",
"U+	c #FCFEFD",
"V+	c #B2B2BA",
"W+	c #777E8D",
"X+	c #565A6F",
"Y+	c #6E707E",
"Z+	c #272A2E",
"`+	c #2A2D33",
" @	c #24282B",
".@	c #202425",
"+@	c #1D1E20",
"@@	c #1E1F22",
"#@	c #29292F",
"$@	c #A1A2AB",
"%@	c #596072",
"&@	c #4A4E60",
"*@	c #D1D5DB",
"=@	c #FAFEFE",
"-@	c #E2E6EE",
";@	c #C2C6D4",
">@	c #ABAFBA",
",@	c #989BA4",
"'@	c #8A8D94",
")@	c #818589",
"!@	c #73787E",
"~@	c #575D6D",
"{@	c #4F5462",
"]@	c #ACB0B3",
"^@	c #FDFFFE",
"/@	c #FDFDFF",
"(@	c #9998A1",
"_@	c #6F7685",
":@	c #666A7F",
"<@	c #656875",
"[@	c #1B1F23",
"}@	c #23262C",
"|@	c #26292D",
"1@	c #1D2122",
"2@	c #1B1C1E",
"3@	c #232427",
"4@	c #28292E",
"5@	c #84868F",
"6@	c #4F5665",
"7@	c #454A5A",
"8@	c #BCBEC8",
"9@	c #EFF3F8",
"0@	c #D5D9E4",
"a@	c #BABDCA",
"b@	c #A5AAB1",
"c@	c #94979E",
"d@	c #878B8F",
"e@	c #808486",
"f@	c #73787D",
"g@	c #535A69",
"h@	c #4B505E",
"i@	c #9FA3A6",
"j@	c #E4E4E6",
"k@	c #929198",
"l@	c #707785",
"m@	c #76798E",
"n@	c #71717E",
"o@	c #212325",
"p@	c #292C32",
"q@	c #333541",
"r@	c #333640",
"s@	c #32333D",
"t@	c #44474A",
"u@	c #2A2C32",
"v@	c #747686",
"w@	c #474D5D",
"x@	c #3C424E",
"y@	c #B2B7C1",
"z@	c #DBE0EA",
"A@	c #C4C9D4",
"B@	c #AEB3BD",
"C@	c #9CA2A8",
"D@	c #8E9398",
"E@	c #868A8E",
"F@	c #7F8384",
"G@	c #73787A",
"H@	c #505462",
"I@	c #434654",
"J@	c #9DA0A7",
"K@	c #C1C0C3",
"L@	c #919096",
"M@	c #727882",
"N@	c #7D7F92",
"O@	c #A0A0AD",
"P@	c #272A2C",
"Q@	c #32353B",
"R@	c #4C4E5B",
"S@	c #747683",
"T@	c #838593",
"U@	c #2B2E33",
"V@	c #3A3E44",
"W@	c #5E5F72",
"X@	c #3F4352",
"Y@	c #3C4249",
"Z@	c #B1B6BF",
"`@	c #B4B9C1",
" #	c #A2A7AD",
".#	c #94999D",
"+#	c #8C8F92",
"@#	c #86898B",
"##	c #808482",
"$#	c #717474",
"%#	c #4A4D58",
"&#	c #414350",
"*#	c #9C9EA6",
"=#	c #FDFEFF",
"-#	c #ACABAE",
";#	c #939397",
">#	c #757878",
",#	c #7A7B8B",
"'#	c #A6A9B8",
")#	c #474B52",
"!#	c #22252B",
"~#	c #2E3138",
"{#	c #3A3C45",
"]#	c #3D4049",
"^#	c #33363E",
"/#	c #595B66",
"(#	c #494B59",
"_#	c #3B3D44",
":#	c #55585B",
"<#	c #B5B7BE",
"[#	c #B2B4BC",
"}#	c #A6A9AD",
"|#	c #999D9E",
"1#	c #909493",
"2#	c #8C8E8C",
"3#	c #878985",
"4#	c #858680",
"5#	c #70726F",
"6#	c #41444C",
"7#	c #3E404B",
"8#	c #9EA2A6",
"9#	c #FDFEFE",
"0#	c #B1B0B4",
"a#	c #99989C",
"b#	c #7F817A",
"c#	c #737581",
"d#	c #6B7080",
"e#	c #9297A3",
"f#	c #46494F",
"g#	c #2A2E2F",
"h#	c #3C3F46",
"i#	c #565963",
"j#	c #4A4C59",
"k#	c #3E3F4A",
"l#	c #404142",
"m#	c #848684",
"n#	c #B0B1B6",
"o#	c #A5A6AC",
"p#	c #9D9F9F",
"q#	c #959794",
"r#	c #8F918D",
"s#	c #8E8F89",
"t#	c #8A8B84",
"u#	c #8A8B81",
"v#	c #70736B",
"w#	c #35383F",
"x#	c #373A43",
"y#	c #A4A7AA",
"z#	c #E2E2E2",
"A#	c #A2A1A1",
"B#	c #97948A",
"C#	c #767874",
"D#	c #626774",
"E#	c #575C72",
"F#	c #676C7D",
"G#	c #656B79",
"H#	c #606671",
"I#	c #595E65",
"J#	c #474956",
"K#	c #3D3D47",
"L#	c #403F40",
"M#	c #6B6B63",
"N#	c #A7A79F",
"O#	c #A4A49C",
"P#	c #A0A097",
"Q#	c #9A9A91",
"R#	c #94948C",
"S#	c #919189",
"T#	c #909182",
"U#	c #929384",
"V#	c #919282",
"W#	c #76776A",
"X#	c #40403F",
"Y#	c #3F3E43",
"Z#	c #B4B4B5",
"`#	c #D5D5D4",
" $	c #A5A39A",
".$	c #96988B",
"+$	c #71756D",
"@$	c #52565A",
"#$	c #4D515C",
"$$	c #474B55",
"%$	c #444850",
"&$	c #3E4148",
"*$	c #3C3D41",
"=$	c #41413C",
"-$	c #6B6B5F",
";$	c #A3A397",
">$	c #A9A99E",
",$	c #A7A89C",
"'$	c #9E9F93",
")$	c #9B9C90",
"!$	c #97978B",
"~$	c #949488",
"{$	c #969686",
"]$	c #989988",
"^$	c #999A88",
"/$	c #888A7A",
"($	c #585953",
"_$	c #444346",
":$	c #C4C4C6",
"<$	c #F3F3F3",
"[$	c #B5B5AB",
"}$	c #A7A898",
"|$	c #A1A293",
"1$	c #818279",
"2$	c #595D56",
"3$	c #424440",
"4$	c #3D403E",
"5$	c #464744",
"6$	c #5D5F52",
"7$	c #898876",
"8$	c #A9A896",
"9$	c #ACAD9C",
"0$	c #ABAC9B",
"a$	c #A6A796",
"b$	c #A3A493",
"c$	c #9FA08F",
"d$	c #9D9E8D",
"e$	c #9EA08C",
"f$	c #9FA18D",
"g$	c #AEB0A3",
"h$	c #9B9B9A",
"i$	c #E0E0E2",
"j$	c #FCFDFC",
"k$	c #CECFC7",
"l$	c #B2B3A5",
"m$	c #ACAC9E",
"n$	c #86867B",
"o$	c #7D8173",
"p$	c #818477",
"q$	c #808377",
"r$	c #8D8E85",
"s$	c #989A8C",
"t$	c #A5A597",
"u$	c #A8A69C",
"v$	c #AEB09D",
"w$	c #AEB09C",
"x$	c #AAAB97",
"y$	c #AAAC97",
"z$	c #A7A995",
"A$	c #A5A793",
"B$	c #A4A692",
"C$	c #A1A38D",
"D$	c #A1A38E",
"E$	c #D3D4CB",
"F$	c #FBFBFA",
"G$	c #F2F2F0",
"H$	c #BCBEB2",
"I$	c #AAAD9F",
"J$	c #595A53",
"K$	c #1D1E1D",
"L$	c #1E1E1D",
"M$	c #212221",
"N$	c #2A2B26",
"O$	c #2F302B",
"P$	c #3B3C36",
"Q$	c #4C4D46",
"R$	c #8C8D7F",
"S$	c #ABAC9D",
"T$	c #B1B2A0",
"U$	c #AEAF9C",
"V$	c #AFB19C",
"W$	c #AEB09B",
"X$	c #ACAE99",
"Y$	c #A9AA98",
"Z$	c #A6A892",
"`$	c #B3B3AB",
" %	c #F5F5F5",
".%	c #E0E0DB",
"+%	c #B2B4A9",
"@%	c #A4A696",
"#%	c #797C6A",
"$%	c #4D4F41",
"%%	c #393B31",
"&%	c #35372D",
"*%	c #35362C",
"=%	c #404237",
"-%	c #5A5B51",
";%	c #9E9E91",
">%	c #ACAD9D",
",%	c #AEAF9D",
"'%	c #B2B3A0",
")%	c #B2B49F",
"!%	c #B0B29D",
"~%	c #B3B3A5",
"{%	c #EAE9E5",
"]%	c #D9DAD2",
"^%	c #ADB09F",
"/%	c #9DA08D",
"(%	c #9B9E89",
"_%	c #979A84",
":%	c #8C8E7E",
"<%	c #97998B",
"[%	c #A1A495",
"}%	c #A7A89A",
"|%	c #AAAB9E",
"1%	c #ADAE9C",
"2%	c #B1B39E",
"3%	c #ADAF9A",
"4%	c #B4B6A2",
"5%	c #E0E1D7",
"6%	c #FDFCFC",
"7%	c #FAFAF9",
"8%	c #DBDCD7",
"9%	c #AAABA2",
"0%	c #9D9E95",
"a%	c #9EA096",
"b%	c #9C9D93",
"c%	c #A4A59B",
"d%	c #A5A69C",
"e%	c #A9ABA1",
"f%	c #ABAEA2",
"g%	c #A7AA9D",
"h%	c #AAAD9D",
"i%	c #A6AA96",
"j%	c #A9AC97",
"k%	c #A6A996",
"l%	c #A4A796",
"m%	c #A9AB9D",
"n%	c #DFE0D6",
"o%	c #E2E3DD",
"p%	c #B3B4AE",
"q%	c #92938D",
"r%	c #858989",
"s%	c #8D9193",
"t%	c #A3A7A9",
"u%	c #ABAFB1",
"v%	c #AAACAD",
"w%	c #A5A7A2",
"x%	c #9EA295",
"y%	c #A0A393",
"z%	c #A0A293",
"A%	c #999B8E",
"B%	c #B4B5AB",
"C%	c #E7E8DF",
"D%	c #FDFEF8",
"E%	c #F7F7F4",
"F%	c #CBCBC8",
"G%	c #6F7273",
"H%	c #636769",
"I%	c #787D7E",
"J%	c #86898A",
"K%	c #8C8E8D",
"L%	c #898B88",
"M%	c #8E908A",
"N%	c #9A9C94",
"O%	c #B1B2AB",
"P%	c #E1E2DE",
"Q%	c #FBFCF9",
"R%	c #DEDEDA",
"S%	c #5F605A",
"T%	c #555750",
"U%	c #575953",
"V%	c #52544E",
"W%	c #565A4D",
"X%	c #696C60",
"Y%	c #C6C8C3",
"Z%	c #F0F1EF",
"`%	c #FAFBF8",
" &	c #FEFFFB",
".&	c #DEDEDC",
"+&	c #8B908F",
"@&	c #93989A",
"#&	c #959A9E",
"$&	c #8E9297",
"%&	c #767972",
"&&	c #6E7363",
"*&	c #DEE0DB",
"=&	c #F9FAFB",
"-&	c #FAFBFA",
";&	c #EAEBED",
">&	c #CECFD5",
",&	c #A8A7B2",
"'&	c #85898F",
")&	c #90959A",
"!&	c #989DA1",
"~&	c #969BA0",
"{&	c #8E9197",
"]&	c #727676",
"^&	c #8E9296",
"/&	c #BEBFC7",
"(&	c #E9EAEE",
"_&	c #D5D6D9",
":&	c #B2B4B4",
"<&	c #ABACAF",
"[&	c #BFC0C3",
"}&	c #D8D9DA",
"|&	c #EEEEEF",
"1&	c #FDFEF9",
"2&	c #EBEAEF",
"3&	c #C5C5D0",
"4&	c #ACAFBC",
"5&	c #A7A9B6",
"6&	c #8B8D9A",
"7&	c #858995",
"8&	c #8D919B",
"9&	c #A3A8AD",
"0&	c #AFB4B9",
"a&	c #9FA5AF",
"b&	c #90969D",
"c&	c #92989C",
"d&	c #9A9EA2",
"e&	c #898A8D",
"f&	c #3B3D3A",
"g&	c #3D3F38",
"h&	c #545954",
"i&	c #75797A",
"j&	c #8B8E95",
"k&	c #8D8E99",
"l&	c #9896A2",
"m&	c #D8D7DB",
"n&	c #FDFDF9",
"o&	c #F6F8F7",
"p&	c #D2D4D8",
"q&	c #ABACB8",
"r&	c #9FA1B0",
"s&	c #9EA2B1",
"t&	c #9B9FAA",
"u&	c #9A9EA7",
"v&	c #9CA1AA",
"w&	c #B6BCC4",
"x&	c #CAD0D7",
"y&	c #C1C7CF",
"z&	c #ADB2BB",
"A&	c #979DA1",
"B&	c #909795",
"C&	c #8D918E",
"D&	c #6A6B68",
"E&	c #21221D",
"F&	c #21231B",
"G&	c #212320",
"H&	c #686F6E",
"I&	c #9FA5AC",
"J&	c #888A96",
"K&	c #4F4F56",
"L&	c #545459",
"M&	c #999A9B",
"N&	c #E8E7E8",
"O&	c #FBFAFC",
"P&	c #FDFDFE",
"Q&	c #FDFCFE",
"R&	c #FCFDFB",
"S&	c #FCFCFE",
"T&	c #FAFBFC",
"U&	c #F2F2F5",
"V&	c #B7BAC1",
"W&	c #9496A1",
"X&	c #9495A5",
"Y&	c #9496A5",
"Z&	c #9498A4",
"`&	c #9599A3",
" *	c #969BA2",
".*	c #979CA3",
"+*	c #999EA4",
"@*	c #9FA4AA",
"#*	c #A8ACB3",
"$*	c #9FA1A6",
"%*	c #939797",
"&*	c #848883",
"**	c #636560",
"=*	c #30312C",
"-*	c #22231E",
";*	c #20211B",
">*	c #21211E",
",*	c #3E4445",
"'*	c #A2A9AE",
")*	c #878990",
"!*	c #414243",
"~*	c #383A3B",
"{*	c #444647",
"]*	c #6E6F70",
"^*	c #C9C9CA",
"/*	c #FAFDFC",
"(*	c #EAECF0",
"_*	c #E5E7EA",
":*	c #DBDDE0",
"<*	c #C9CBCF",
"[*	c #BEC0C4",
"}*	c #9B9DA2",
"|*	c #7A7D86",
"1*	c #666872",
"2*	c #666873",
"3*	c #848792",
"4*	c #9195A1",
"5*	c #9EA0AA",
"6*	c #A8AAB1",
"7*	c #B9BBBF",
"8*	c #9A9D9D",
"9*	c #7C7D7A",
"0*	c #50524D",
"a*	c #343630",
"b*	c #292B24",
"c*	c #26271F",
"d*	c #23241C",
"e*	c #24251D",
"f*	c #292A21",
"g*	c #3A4041",
"h*	c #979EA4",
"i*	c #7B7F7F",
"j*	c #3B3D3B",
"k*	c #303231",
"l*	c #343634",
"m*	c #3D3E3D",
"n*	c #5B5B5A",
"o*	c #B6B6B5",
"p*	c #DEE0E1",
"q*	c #B0B4BA",
"r*	c #A7AAB3",
"s*	c #575C5C",
"t*	c #3D4245",
"u*	c #575B61",
"v*	c #4A4E54",
"w*	c #2A2D31",
"x*	c #222528",
"y*	c #222627",
"z*	c #3C4046",
"A*	c #898D99",
"B*	c #9598A2",
"C*	c #999EA5",
"D*	c #B2B3BD",
"E*	c #C0C0C6",
"F*	c #868787",
"G*	c #5F615B",
"H*	c #4E4F46",
"I*	c #575851",
"J*	c #676861",
"K*	c #64655D",
"L*	c #4D4F45",
"M*	c #37392E",
"N*	c #2A2C21",
"O*	c #313226",
"P*	c #6C7174",
"Q*	c #899195",
"R*	c #696D69",
"S*	c #31332F",
"T*	c #373935",
"U*	c #333531",
"V*	c #353632",
"W*	c #3F403C",
"X*	c #7F7F7C",
"Y*	c #F6F6F3",
"Z*	c #FBFCFD",
"`*	c #F4F6F4",
" =	c #A2A3A5",
".=	c #767780",
"+=	c #787B84",
"@=	c #8B8E96",
"#=	c #787B83",
"$=	c #707177",
"%=	c #696A6F",
"&=	c #3B3C41",
"*=	c #212226",
"==	c #202221",
"-=	c #1E201F",
";=	c #1F2120",
">=	c #222428",
",=	c #7C7E8C",
"'=	c #9495A6",
")=	c #ADAFBB",
"!=	c #BBBCC2",
"~=	c #7A7C79",
"{=	c #4F514A",
"]=	c #90928E",
"^=	c #F7F7F7",
"/=	c #E9EAE3",
"(=	c #AEAFA4",
"_=	c #797A7D",
":=	c #919296",
"<=	c #7F8081",
"[=	c #474847",
"}=	c #363733",
"|=	c #383932",
"1=	c #3A3C31",
"2=	c #4A4C3F",
"3=	c #898B81",
"4=	c #E4E5E1",
"5=	c #FAFBFB",
"6=	c #A5A7A3",
"7=	c #353737",
"8=	c #3A3C42",
"9=	c #5B5E63",
"0=	c #686C71",
"a=	c #6A6D72",
"b=	c #55575A",
"c=	c #36373A",
"d=	c #27282A",
"e=	c #1D1F1E",
"f=	c #202325",
"g=	c #727580",
"h=	c #999BA9",
"i=	c #C0C2CC",
"j=	c #767879",
"k=	c #4A4D46",
"l=	c #61645C",
"m=	c #E7E8E6",
"n=	c #F9F9F9",
"o=	c #F7F7F9",
"p=	c #C6C5CB",
"q=	c #939498",
"r=	c #7D7F80",
"s=	c #545654",
"t=	c #41423B",
"u=	c #73746C",
"v=	c #C9CBC3",
"w=	c #F9F9F4",
"x=	c #F4F6F3",
"y=	c #676A63",
"z=	c #393B38",
"A=	c #3A3C3F",
"B=	c #353939",
"C=	c #3A3E3E",
"D=	c #313534",
"E=	c #2E3030",
"F=	c #2D2F2F",
"G=	c #292B2A",
"H=	c #272828",
"I=	c #212322",
"J=	c #222526",
"K=	c #71737D",
"L=	c #AAACB9",
"M=	c #A3A6AE",
"N=	c #41443F",
"O=	c #53564B",
"P=	c #9DA098",
"Q=	c #FDFEFD",
"R=	c #F6F6F6",
"S=	c #C2C1C5",
"T=	c #828384",
"U=	c #505250",
"V=	c #2E302C",
"W=	c #373932",
"X=	c #494B41",
"Y=	c #9B9B95",
"Z=	c #F1F2ED",
"`=	c #D4D6D2",
" -	c #7F807F",
".-	c #474849",
"+-	c #404340",
"@-	c #393B39",
"#-	c #323432",
"$-	c #2C2E2D",
"%-	c #2B2D2C",
"&-	c #2A2C2B",
"*-	c #242624",
"=-	c #1F211F",
"--	c #1E201E",
";-	c #242728",
">-	c #74767F",
",-	c #B7BAC5",
"'-	c #808388",
")-	c #353830",
"!-	c #5E6156",
"~-	c #E4E6E0",
"{-	c #919293",
"]-	c #848584",
"^-	c #515352",
"/-	c #30312E",
"(-	c #363831",
"_-	c #4D4F47",
":-	c #B7B8B1",
"<-	c #F9F9F6",
"[-	c #FEFDFE",
". . . . . . . . . . . . . . . + @ # $ $ % & * = - ; > , ' ) ! ~ { . . . . . . . ",
". . . . . . . . . . . . . . ] ^ / ( _ : < [ } | 1 2 3 4 5 { 6 ~ 7 . . . . . . . ",
". . . . . . . . . . . . . . 6 ^ 8 9 0 a b c d e f g h i j k l m n . . . . . . . ",
". . . . . . . . . . . o p q r s t u v w x y z A B C D E F G H I J K { . . . . . ",
". . . . . . . . . . . L n @ M N O P Q R S T U V V W X Y Z `  ...+.] ] ^ . . . . ",
". . . . . . . . . . . @.#.$.%.&.*.=.-.;.>.,.'.).!.~.{.].^./.(._.:.<.[.^ . . . . ",
". . . . . . . . . . . }.|.1.2.3.4.5.6.7.8.9.0.0.a.b.c.d.e.f.g.h.i.j.[.{ k.. . . ",
". . . . . . . . . . K l.m.n.o.p.q.r.s.t.u.v.w.x.y.z.A.B.C.D.E.F.G.].H.I.k.. . . ",
". . . . . . . . . . ] J.K.L.M.N.O.P.Q.R.S.T.U.V.W.X.Y.Z.`. +.+++@+#+$+%+k.. . . ",
". . . . . . . . . . &+*+=+-+;+>+,+'+)+!+~+{+]+^+r /+(+_+:+<+[+}+|+1+2+I 3+. . . ",
". . . . . . . . K ^ 4+5+6+7+8+9+0+a+b+c+d+e+f+g+h+i+j+k+l+m+n+o+p+q+r+s+t+. . . ",
". . . . . . . q { + u+v+w+x+y+z+A+B+C+D+E+F+G+H+I+J+K+L+M+N+O+P+Q+R+S+T+U+. . . ",
". . . . . . . p m ^ V+W+X+Y+Z+`+ @.@+@@@#@$@%@&@*@=@-@;@>@,@'@)@!@~@{@]@^@. . . ",
". . . . . . . /@{ @.(@_@:@<@[@}@|@1@2@3@4@5@6@7@8@9@0@a@b@c@d@e@f@g@h@i@^@. . . ",
". . . . . . . p ^ j@k@l@m@n@o@p@q@r@s@t@u@v@w@x@y@z@A@B@C@D@E@F@G@H@I@J@^@. . . ",
". . . . . . . . ] K@L@M@N@O@P@Q@R@S@T@U@V@W@X@Y@Z@A@`@ #.#+#@###$#%#&#*#=#. . . ",
". . . . . . . ] ^ -#;#>#,#'#)#!#~#{#]#^#/#(#_#:#<#[#}#|#1#2#3#4#5#6#7#8#9#. . . ",
". . . . . . . ] q 0#a#b#c#d#e#f#g#p@h#i#j#k#l#m#n#o#p#q#r#s#t#u#v#w#x#y#^@. . . ",
". . . . . . . ] ] z#A#B#C#D#E#F#G#H#I#J#K#L#M#N#O#P#Q#R#S#T#U#V#W#X#Y#Z#6 . . . ",
". . . . . . . ] ] ] `# $.$+$@$#$$$%$&$*$=$-$;$>$,$'$)$!$~${$]$^$/$($_$:$. . . . ",
". . . . . . . ] ] &+<$[$}$|$1$2$3$4$5$6$7$8$9$9$0$a$b$c$d$e$e$f$e$g$h$i$q . . . ",
". . . . . . . . . ] j$k$l$m$n$o$p$q$r$s$t$u$9$v$w$x$y$z$A$B$C$D$b$E$F$( ] . . . ",
". . . . . . . . . . . G$H$I$J$K$L$M$N$O$P$Q$R$S$T$U$V$W$X$Y$Z$B$`$ %+ + ] . . . ",
". . . . . . . . . . . ~ .%+%@%#%$%%%&%*%=%-%;%>%,%'%)%)%!%U$x$~%{%] ] ^ . . . . ",
". . . . . . . . . . . @ @.]%^%/%(%_%:%<%[%}%|%>%1%U$!%2%!%3%4%5%6%] ^ ] ] . . . ",
". . . . . . . . . . . ^ ] 7%8%9%0%a%b%c%d%e%f%g%h%i%j%k%l%m%n%~ q . ] . . . . . ",
". . . . . . . . . . . ] ] . n o%p%q%r%s%t%u%v%w%x%y%z%A%B%C%D%{ q . . . . . . . ",
". . . . . . . . . . . . ^ ] ~ 7 E%F%G%H%I%J%K%L%M%N%O%P%~ ~ @ 6 ] . . . . . . . ",
". . . . . . . . . . . ] K { 6 @ Q%R%S%T%U%V%W%X%Y%Z%`%] ] { ^ ^ 6 K K ] . . . . ",
". . . . . . . . . . . # ~  &7 @ @ .&+&@&#&$&%&&&*&=&% -&%+{ { ] 6 @ + ^ ^ . . . ",
". . . . . . . . . . K ~ 3+^ ] ;&>&,&'&)&!&~&{&]&^&/&(&_&:&<&[&}&|&[.q ^ ] . . . ",
". . . . . . . . . . . 1&/ 2&3&4&5&6&7&8&9&0&a&b&c&d&e&f&g&h&i&j&k&l&m&F${ . . . ",
"] . . q ] n&{ ] q ] ^ o&p&q&r&s&t&u&v&w&x&y&z&A&B&C&D&E&F&G&H&I&J&K&L&M&N&O&P&Q&",
"^ . . ^ R&~ / l S&T&U&V&W&X&Y&Z&`& *.*+*@*#*$*%*&***=*-*;*>*,*'*)*!*~*{*]*^*@.] ",
"] ^ . { /*(*_*:*<*[*}*|*1*2*3*4*`&.*5*6*7*8*9*0*a*b*c*d*e*f*g*h*i*j*k*l*m*n*o*F$",
"] ] @.p*q*r*s*t*u*,+v*w*x*y*z*A*B*C*D*E*F*G*H*I*J*K*L*M*N*O*P*Q*R*S*T*U*V*W*X*Y*",
"Z*`* =.=+=@=#=$=%=&=*===-=;=>=,='=)=!=~={=]=^=] ^ / + /=(=_=:=<=[=}=|=1=2=3=4=( ",
"5=6=7=8=9=0=a=b=c=d=3@;=e=e=f=g=h=i=j=k=l=m=] ^ ^ { n=o=p=q=r=s=U*P$t=u=v=w=~ + ",
"x=y=z=A=B=C=D=E=F=G=H=I=-=e=J=K=L=M=N=O=P=Q=] . . 6 R=S=k@T=U=V=W=X=Y=Z=F$+ @.&+",
"' `= -.-+-@-#-$-%-&-$-*-=---;->-,-'-)-!-~-( ] + ] ( :${-]-^-/-(-_-:-<-3+[-] ^ ^ "};
