/* XPM */
static char * rangeconvertmodule_xpm[] = {
"40 40 234 2",
"  	c None",
". 	c #FFFFFF",
"+ 	c #FDFDFD",
"@ 	c #858585",
"# 	c #FCFCFC",
"$ 	c #FEFEFE",
"% 	c #FBFBFB",
"& 	c #838383",
"* 	c #E6E6E6",
"= 	c #B7B7B7",
"- 	c #818181",
"; 	c #737373",
"> 	c #A3A3A3",
", 	c #C0C0C0",
"' 	c #DEDEDE",
") 	c #F3F3F3",
"! 	c #D1D1D1",
"~ 	c #5F5F5F",
"{ 	c #7C7C7C",
"] 	c #333333",
"^ 	c #0C0C0C",
"/ 	c #060606",
"( 	c #151515",
"_ 	c #2E2E2E",
": 	c #535353",
"< 	c #999999",
"[ 	c #CECECE",
"} 	c #EDEDED",
"| 	c #F4F4F4",
"1 	c #878787",
"2 	c #868686",
"3 	c #E7E7E7",
"4 	c #FAFAFA",
"5 	c #F6F6F6",
"6 	c #DADADA",
"7 	c #A4A4A4",
"8 	c #606060",
"9 	c #050505",
"0 	c #020202",
"a 	c #070707",
"b 	c #2B2B2B",
"c 	c #262626",
"d 	c #040404",
"e 	c #030303",
"f 	c #111111",
"g 	c #4C4C4C",
"h 	c #A6A6A6",
"i 	c #B9B9B9",
"j 	c #0F0F0F",
"k 	c #191919",
"l 	c #8F8F8F",
"m 	c #EFEFEF",
"n 	c #F9F9F9",
"o 	c #D0D0D0",
"p 	c #121212",
"q 	c #080808",
"r 	c #7F7F7F",
"s 	c #B4B4B4",
"t 	c #222222",
"u 	c #373737",
"v 	c #909090",
"w 	c #D2D2D2",
"x 	c #E8E8E8",
"y 	c #F7F7F7",
"z 	c #F2F2F2",
"A 	c #4A4A4A",
"B 	c #787878",
"C 	c #646464",
"D 	c #7B7B7B",
"E 	c #303030",
"F 	c #2C2C2C",
"G 	c #8B8B8B",
"H 	c #B3B3B3",
"I 	c #DDDDDD",
"J 	c #1D1D1D",
"K 	c #3B3B3B",
"L 	c #EBEBEB",
"M 	c #F8F8F8",
"N 	c #AAAAAA",
"O 	c #828282",
"P 	c #E5E5E5",
"Q 	c #313131",
"R 	c #F1F1F1",
"S 	c #5E5E5E",
"T 	c #AFAFAF",
"U 	c #A1A1A1",
"V 	c #848484",
"W 	c #EAEAEA",
"X 	c #272727",
"Y 	c #363636",
"Z 	c #3C3C3C",
"` 	c #959595",
" .	c #B0B0B0",
"..	c #C9C9C9",
"+.	c #DBDBDB",
"@.	c #CFCFCF",
"#.	c #676767",
"$.	c #ACACAC",
"%.	c #E9E9E9",
"&.	c #A0A0A0",
"*.	c #181818",
"=.	c #6F6F6F",
"-.	c #898989",
";.	c #CDCDCD",
">.	c #F5F5F5",
",.	c #808080",
"'.	c #9E9E9E",
").	c #727272",
"!.	c #3A3A3A",
"~.	c #8E8E8E",
"{.	c #969696",
"].	c #ABABAB",
"^.	c #D5D5D5",
"/.	c #BCBCBC",
"(.	c #3F3F3F",
"_.	c #585858",
":.	c #CCCCCC",
"<.	c #9F9F9F",
"[.	c #E2E2E2",
"}.	c #1F1F1F",
"|.	c #0A0A0A",
"1.	c #0E0E0E",
"2.	c #323232",
"3.	c #A7A7A7",
"4.	c #C4C4C4",
"5.	c #C1C1C1",
"6.	c #D9D9D9",
"7.	c #DFDFDF",
"8.	c #BEBEBE",
"9.	c #B1B1B1",
"0.	c #C6C6C6",
"a.	c #B8B8B8",
"b.	c #E4E4E4",
"c.	c #C2C2C2",
"d.	c #0B0B0B",
"e.	c #E3E3E3",
"f.	c #CACACA",
"g.	c #2F2F2F",
"h.	c #171717",
"i.	c #A8A8A8",
"j.	c #E0E0E0",
"k.	c #525252",
"l.	c #888888",
"m.	c #515151",
"n.	c #BFBFBF",
"o.	c #949494",
"p.	c #393939",
"q.	c #6E6E6E",
"r.	c #5B5B5B",
"s.	c #636363",
"t.	c #989898",
"u.	c #5A5A5A",
"v.	c #494949",
"w.	c #141414",
"x.	c #D4D4D4",
"y.	c #8D8D8D",
"z.	c #9D9D9D",
"A.	c #EEEEEE",
"B.	c #1A1A1A",
"C.	c #4D4D4D",
"D.	c #3E3E3E",
"E.	c #BDBDBD",
"F.	c #242424",
"G.	c #D6D6D6",
"H.	c #565656",
"I.	c #B6B6B6",
"J.	c #939393",
"K.	c #BABABA",
"L.	c #4B4B4B",
"M.	c #666666",
"N.	c #1E1E1E",
"O.	c #131313",
"P.	c #090909",
"Q.	c #404040",
"R.	c #B2B2B2",
"S.	c #9C9C9C",
"T.	c #A5A5A5",
"U.	c #9A9A9A",
"V.	c #232323",
"W.	c #B5B5B5",
"X.	c #929292",
"Y.	c #545454",
"Z.	c #161616",
"`.	c #0D0D0D",
" +	c #383838",
".+	c #343434",
"++	c #AEAEAE",
"@+	c #A9A9A9",
"#+	c #7E7E7E",
"$+	c #2A2A2A",
"%+	c #D8D8D8",
"&+	c #767676",
"*+	c #797979",
"=+	c #464646",
"-+	c #6D6D6D",
";+	c #DCDCDC",
">+	c #ECECEC",
",+	c #4E4E4E",
"'+	c #1B1B1B",
")+	c #777777",
"!+	c #757575",
"~+	c #ADADAD",
"{+	c #6A6A6A",
"]+	c #C3C3C3",
"^+	c #717171",
"/+	c #7D7D7D",
"(+	c #282828",
"_+	c #979797",
":+	c #5D5D5D",
"<+	c #BBBBBB",
"[+	c #CBCBCB",
"}+	c #616161",
"|+	c #F0F0F0",
"1+	c #474747",
"2+	c #101010",
"3+	c #696969",
"4+	c #1C1C1C",
"5+	c #7A7A7A",
"6+	c #484848",
"7+	c #8A8A8A",
"8+	c #919191",
"9+	c #6B6B6B",
"0+	c #747474",
"a+	c #292929",
"b+	c #202020",
"c+	c #212121",
"d+	c #C7C7C7",
"e+	c #656565",
"f+	c #444444",
"g+	c #8C8C8C",
"h+	c #9B9B9B",
"i+	c #707070",
"j+	c #E1E1E1",
"k+	c #D3D3D3",
". . . . . . . + + + @ # + + # + + $ + # . . . . . . . . . . . . . . . . . . . . ",
". . . . . . . $ $ $ @ # # # % + # + + + . . . . . . . . . . . . . . . . . . . . ",
". . . . . . . . . # & * = - ; > , ' ) $ . . . . . . . . . . . . . . . . . . . . ",
". . . . + $ # $ # ! ~ { ] ^ / ( _ : < [ } # + | 1 2 3 4 % # $ . . . . . . . . . ",
". . . $ # # 5 6 7 8 9 0 a b c d 0 e f g h # + i j f k l m # n . . . . . . . . . ",
". . . . 4 # o : p e d e q r s t u v w x y # z A b B C D 7 % % . . . . . . . . . ",
". . . $ # + # | [ < E _ a F G ] H # # + # # I J K L M N < # $ . . . . . . . . . ",
". . . . . . . $ + # O P Q d 9 q & % % n 5 R & f S } R T U $ 4 . . . . . . . . . ",
". . . . . . . $ + # V W F ^ X Y Z `  ...+.@.` #.$.%., 7 &.+ % . . . . . . . . . ",
". . . . . . . . # % @ 7 q *.=.E -.;.P + + # >.' ,.P z $.'.$ + . . . . . . . . . ",
". . . . . . . . % $ @ T e ( ).!.~.{.].^.W /.8 (._.:.P H <.+ % . . . . . . . . . ",
". . . . . . . . + . V [.}.^ |.1.2.O 3.4.5.6.<.G - 7.8.7 &.# n . . . . . . . . . ",
". . . . . . . . . $ @ + &./ j C +.4 ~.9.0.a.b.4 T ) z c.&.$ + . . . . . . . . . ",
". . . . . . . . . . 2 . :.d.E e.$ f.g.h.i.j.4 M ].) } i < % + . . . . . . . . . ",
". . . . . . . . . . 2 . +.*.k...l.m.1.- # % + % H z n.T o.4 + . . . . . . . . . ",
". . . . . . . . . . 2 . , q _ F p.2.q.5 # 4 4 # N y M ..< n # . . . . . . . . . ",
". . . . $ . # $ 4 + @ x r.^ |.Q _ s.) # . . . 4 t.R m ;.t.+ # . . . . . . . . . ",
". . . . + + . . 4 + u.v.b ( ^ w.j x.% $ . . . % y.} ..H z.4 4 . . . . . . . . . ",
". . . + % $ $ . A.s.k K B.d.C.D.( +.4 $ . . . 4 {.L R E.` # % . . . . . . . . . ",
"+ $ #  .@ >.# +  .F.|.1.1.F.G.[.H.I.n $ . . . + J.L A.K.'.+ + . . . . . . . . . ",
"$ $ $ l f L.3.M.N.O.P.d.d.Q.| n ) R.5 $ . . . # S.L 4.T.U.# $ . . . . . . . . . ",
"$ + # h J q d d w.X e j B.V./.4 | i 4 $ . . . + z.* W W.X.# $ . . . . . . . . . ",
"+ . % $.Y.Z.`.P.P.P.0 d `. +.+K.% n.* $ . . . $ &.* R /.` + + . . . . . . . . . ",
"+ # $ ++<.c N.p d.a e / ( g.N.t 0.+.s $ . . . + h x ^.@+{.# # . . . . . . . . . ",
"$ $ + 6.;.#+ +$+X ^ / 1._ %+&+f !.5.++. . . . $ i.P } i *+n $ . . . . . . . . . ",
"$ $ $ | W.@.=+( 1.P.q d.l.M | ~.h. +0.n + . . $ z.j.W R.-+M + . . . . . . . . . ",
". . . . ;+&.F.w.p 1.j : >+n % j.,+}.'+@+M # + $ '.! 8.z.)+4 $ . . . . . . . . . ",
". . . . M ++g Z.X ~.!+R 4 4 } h 2  .( '+{.# 4 $ '.G.I ~+{+4 + . . . . . . . . . ",
". . . $ + ]+w X...>.r z W 9.^+/+y.6.R.(+Z.~.y # _+o 7.7 :+>.. . . . . . . . . . ",
". . . $ M <+} G.D m.$+=+Q ( q.%.G 5.n [+p.w.B | ` ^.++S.}+M 4 . . . . . . . . . ",
". . . $ z  .>+M |+c.Q.1+|.2+k.3+4+_.5+)+{+Q `.6+s.!.N.-.r.>.4 . . . . . . . . . ",
". . . . } 7+8+@ ' a.c 9+B r.r.v.X L.0+#+t.,.k.^ q a+@+h S y $ . . . . . . . . . ",
". . . $ # $.1.e b+w./ c+- n.L # 4 R I ++++d+' #+f P.p.K h % $ . . . . . . . . . ",
". . . $ y <.e+9 k H.d./ f+g+T.= M % # $ $ . $ >+h+7+X.H z % + . . . . . . . . . ",
". . . . A.U.r O.d.N v.j /  +,.7+w % % % $ . $ + # 4 4 n # % + . . . . . . . . . ",
". . . $ W 5+q.i+u ,+a+H.7+R j+k+m $ + + . . . . $ $ $ $ $ $ . . . . . . . . . . ",
". . . $ # 4 n # >.$.A @ z # # $ . $ $ . . . . . . . . . . . . . . . . . . . . . ",
". . . $ + % # % % n O 5 + + # + $ . $ $ . . . . . . . . . . . . . . . . . . . . ",
". . . . . $ + $ . $ @ # $ $ $ $ . . . . . . . . . . . . . . . . . . . . . . . . ",
". . . . . . . . . . 2 . . . . . . . . . . . . . . . . . . . . . . . . . . . . . "};
