/* XPM */
static char * noisemodule_xpm[] = {
"40 40 251 2",
"  	c None",
". 	c #101010",
"+ 	c #FFFFFF",
"@ 	c #A5A5A5",
"# 	c #BFBFBF",
"$ 	c #A8A8A8",
"% 	c #DEDEDE",
"& 	c #8E8E8E",
"* 	c #CACACA",
"= 	c #9D9D9D",
"- 	c #242424",
"; 	c #E4E4E4",
"> 	c #000000",
", 	c #080808",
"' 	c #171717",
") 	c #ACACAC",
"! 	c #B1B1B1",
"~ 	c #666666",
"{ 	c #151515",
"] 	c #C3C3C3",
"^ 	c #444444",
"/ 	c #565656",
"( 	c #ECECEC",
"_ 	c #707070",
": 	c #939393",
"< 	c #9C9C9C",
"[ 	c #262626",
"} 	c #3A3A3A",
"| 	c #797979",
"1 	c #E0E0E0",
"2 	c #595959",
"3 	c #020202",
"4 	c #878787",
"5 	c #2B2B2B",
"6 	c #ADADAD",
"7 	c #8B8B8B",
"8 	c #686868",
"9 	c #141414",
"0 	c #6D6D6D",
"a 	c #EFEFEF",
"b 	c #ABABAB",
"c 	c #7E7E7E",
"d 	c #B4B4B4",
"e 	c #B7B7B7",
"f 	c #9A9A9A",
"g 	c #777777",
"h 	c #848484",
"i 	c #BABABA",
"j 	c #313131",
"k 	c #404040",
"l 	c #A9A9A9",
"m 	c #888888",
"n 	c #393939",
"o 	c #E7E7E7",
"p 	c #767676",
"q 	c #545454",
"r 	c #828282",
"s 	c #050505",
"t 	c #626262",
"u 	c #F3F3F3",
"v 	c #E9E9E9",
"w 	c #CFCFCF",
"x 	c #282828",
"y 	c #6F6F6F",
"z 	c #515151",
"A 	c #D7D7D7",
"B 	c #DADADA",
"C 	c #9E9E9E",
"D 	c #4B4B4B",
"E 	c #A1A1A1",
"F 	c #353535",
"G 	c #656565",
"H 	c #C6C6C6",
"I 	c #E2E2E2",
"J 	c #646464",
"K 	c #575757",
"L 	c #E6E6E6",
"M 	c #D1D1D1",
"N 	c #2F2F2F",
"O 	c #BEBEBE",
"P 	c #B0B0B0",
"Q 	c #929292",
"R 	c #989898",
"S 	c #AAAAAA",
"T 	c #BBBBBB",
"U 	c #0D0D0D",
"V 	c #505050",
"W 	c #8D8D8D",
"X 	c #E3E3E3",
"Y 	c #CCCCCC",
"Z 	c #292929",
"` 	c #0C0C0C",
" .	c #363636",
"..	c #A6A6A6",
"+.	c #585858",
"@.	c #909090",
"#.	c #3B3B3B",
"$.	c #9B9B9B",
"%.	c #3F3F3F",
"&.	c #F4F4F4",
"*.	c #717171",
"=.	c #CBCBCB",
"-.	c #5F5F5F",
";.	c #D5D5D5",
">.	c #D6D6D6",
",.	c #8A8A8A",
"'.	c #979797",
").	c #DCDCDC",
"!.	c #060606",
"~.	c #C9C9C9",
"{.	c #2D2D2D",
"].	c #B2B2B2",
"^.	c #1E1E1E",
"/.	c #D4D4D4",
"(.	c #AFAFAF",
"_.	c #A7A7A7",
":.	c #232323",
"<.	c #AEAEAE",
"[.	c #2C2C2C",
"}.	c #6B6B6B",
"|.	c #5B5B5B",
"1.	c #6C6C6C",
"2.	c #E5E5E5",
"3.	c #202020",
"4.	c #191919",
"5.	c #121212",
"6.	c #636363",
"7.	c #949494",
"8.	c #181818",
"9.	c #606060",
"0.	c #474747",
"a.	c #2A2A2A",
"b.	c #FDFDFD",
"c.	c #B3B3B3",
"d.	c #1A1A1A",
"e.	c #A0A0A0",
"f.	c #FCFCFC",
"g.	c #DFDFDF",
"h.	c #272727",
"i.	c #BCBCBC",
"j.	c #1B1B1B",
"k.	c #525252",
"l.	c #C1C1C1",
"m.	c #898989",
"n.	c #696969",
"o.	c #7D7D7D",
"p.	c #A4A4A4",
"q.	c #727272",
"r.	c #454545",
"s.	c #6E6E6E",
"t.	c #7B7B7B",
"u.	c #747474",
"v.	c #B8B8B8",
"w.	c #D8D8D8",
"x.	c #E8E8E8",
"y.	c #F0F0F0",
"z.	c #090909",
"A.	c #383838",
"B.	c #616161",
"C.	c #858585",
"D.	c #7A7A7A",
"E.	c #303030",
"F.	c #0B0B0B",
"G.	c #D0D0D0",
"H.	c #424242",
"I.	c #4F4F4F",
"J.	c #212121",
"K.	c #222222",
"L.	c #D3D3D3",
"M.	c #343434",
"N.	c #414141",
"O.	c #0A0A0A",
"P.	c #BDBDBD",
"Q.	c #6A6A6A",
"R.	c #8F8F8F",
"S.	c #DDDDDD",
"T.	c #9F9F9F",
"U.	c #4A4A4A",
"V.	c #EEEEEE",
"W.	c #5A5A5A",
"X.	c #C0C0C0",
"Y.	c #787878",
"Z.	c #8C8C8C",
"`.	c #5E5E5E",
" +	c #EAEAEA",
".+	c #C2C2C2",
"++	c #070707",
"@+	c #F5F5F5",
"#+	c #D9D9D9",
"$+	c #818181",
"%+	c #0F0F0F",
"&+	c #B9B9B9",
"*+	c #D2D2D2",
"=+	c #E1E1E1",
"-+	c #DBDBDB",
";+	c #B6B6B6",
">+	c #FAFAFA",
",+	c #F2F2F2",
"'+	c #2E2E2E",
")+	c #969696",
"!+	c #A3A3A3",
"~+	c #333333",
"{+	c #4C4C4C",
"]+	c #111111",
"^+	c #A2A2A2",
"/+	c #676767",
"(+	c #373737",
"_+	c #C7C7C7",
":+	c #7F7F7F",
"<+	c #494949",
"[+	c #C8C8C8",
"}+	c #161616",
"|+	c #1D1D1D",
"1+	c #F9F9F9",
"2+	c #3E3E3E",
"3+	c #EDEDED",
"4+	c #737373",
"5+	c #5D5D5D",
"6+	c #F1F1F1",
"7+	c #B5B5B5",
"8+	c #323232",
"9+	c #959595",
"0+	c #535353",
"a+	c #757575",
"b+	c #7C7C7C",
"c+	c #434343",
"d+	c #040404",
"e+	c #F6F6F6",
"f+	c #3D3D3D",
"g+	c #868686",
"h+	c #F8F8F8",
"i+	c #919191",
"j+	c #EBEBEB",
"k+	c #C4C4C4",
"l+	c #3C3C3C",
"m+	c #464646",
"n+	c #C5C5C5",
"o+	c #808080",
"p+	c #F7F7F7",
"q+	c #1F1F1F",
"r+	c #CDCDCD",
"s+	c #252525",
"t+	c #CECECE",
"u+	c #555555",
"v+	c #131313",
"w+	c #999999",
"x+	c #4D4D4D",
"y+	c #FBFBFB",
"z+	c #838383",
"A+	c #4E4E4E",
"B+	c #010101",
". + @   #   $ % & * +   = - + ; >   ,     ' @ + ) ! ~ + { + , +   + + + ~   ] ^ ",
"  / (   + = _ : <   ' [ + } | > 1 2 3 +   . + 4 5 6 7 8 9 + 0 a   b + c d   e + ",
"  f + g     h 4 >     | i j > k   @ l m n o p q r s   > t u v w x + +   y z + > ",
"A + + B + C D ^ E >   F > G H I > J + K +   u ) + L h   {   M     e + N O P A 3 ",
"+ Q R + +   S T   > U ] V W X     + g + >   + Y Z + + ` + W R k    ...B +.B @.> ",
"#.$.    +   %.  j &.> *.=.      + t -.;.>.  - ,.A '.).+ !.~.+ {.].^.  /.  (.+ m ",
"_.  :.+ {.<.[.  &  .}.|./ > : + + + F + X 1.>   :.  2.>   3.4.5./.  A   '.}.6.> ",
"7.Z       8.+   M > y 0 M   `   > 9.0.Y a.b.    a.> c.+   + d.  5 e.+ ! ..f.g.> ",
"/  .f   b.    h.+ + S +   1.+ + 1 s > i.+ > j.k.) + l.m.  n.o._.[.> + O Y     p.",
"  i.*.- L _.  e U c > o.  + + ! + L ^.V &.[   B {   ^   8.x } q.).+.[ ..6.8 r.s.",
"  t.u.v.4.+ w.8 k.j x.y.s z.3 V ).! + , + A.> /.B.~ b g [ C.D.E.F.+ G z G.'     ",
"H.  F ~   I.{.( + J.K.*   L.V S   h.  / M.  r.C + N.q.  P O.q P.p.  r Q.+ +   R.",
").S.> ^ > 3.,.# 7.+ + + x x.] 3.;.z.+ T.U.N V.V W.e.> A l.6.+ ( + 2.>. .~.X.I.+ ",
"* + 9.k Y.0.k   n.Z.+ + v 9.J M.`.< P. ++ 1 _ * ...+:.++    @++ P.#+4   B.Q ] $+",
"p.X.  %+O.&+s N.+ *+* ; 5 =++ -+  +   + b.;+N.Z   >+      0.+ ,+  ,+& + e   *+p.",
"+ m X.  C.A.'+)+N.!++ + y   + #+  P.-+E ~++ 7 {+]+: ` 6.  + &+e.+ + ^+Z.;+  + + ",
"e % 1.+ 7.  /+A.z i.H + u.S.  + / &+m +   (+S.9 + + Q.+ 7 V._+P.- - + q.C + c._.",
" +L + > Q.> 2.+ :+/+  + *.X./+O +   <.#.+ + > +   W.s.#+^.N <+H U   d ].[+  +   ",
"}++ }.|+    e.[.1+2+3+4+  &++ 0.g.% 5+  c 5+'.c.+ T.6+V J.x   h   E C.7+W w [.o.",
"e.& !+,.+ 4 Z 9 + |++ C.8+9+|   0++ a+j   /+b+3+{+  + j + i F i { U.> J   m.1+b+",
"  p P &+c+> s > + + s.-+  d+a.e+G   +   f+0.>.8+8+  2.+   }.g+3.8+B.  x.} k h+O ",
"    z 8+  3 m e.> l.q.+ j.  d i+  Q p p.+ j+5++ + + `.  + D -.k+{+] 9.  + +   D.",
"p } {+  > Q > >   j+l+  K.m+3.+ 7 n+% o+~+  V.+   + ) v.+ ) + V.> E.+ + Z T.+ q.",
"E x   } @.F.J.p+E.-.j -.`.+   p._ X     z   t o+].+ @.}.R _ s > [ + > `   q+Q.+ ",
"| r+!+  1 + > 9 `   ].x.{ + +   + n+7.A.+   %.d : a.(.s++ /   ]+!++ + +   m p # ",
" .t+  ~+u++ + :.B.*++ q.m+i.b+L.$+l ; + q.@.+ d P.;.  % a.2+r+* N.r+s+p.B.U.   +",
"@ } b+Z.+ d.| (+e {+  u+8+,+o+2+b     0     n+  9+Q.!++ J C.  <.  v+R } + t [++ ",
"I.K.c.* l 9+> %.y +   :+R./.o.0.1 +   o.+ |.:+    b+  > %   . > + &+w+n+  n.  ! ",
"D + Q + + V.o._+8 !+s     :+  m.+       u+b G.; L   5.A ^.> + + { e - o.M x+b+A.",
"H +     + = + + R.Y   '+  ^.    @+<.  @ ]++ ).  W c z }+> x+( z.'   s.w.G.+ f 2 ",
"c X     q+$.+ + )++ . c+K + 0   + G.6.Y s++ > [ > #+|.+ .+Q.(+i w.+ + m b.+     ",
"A.+ +.  + (+(+A.y+  +   j ^+  7 [.Q.  ;.  J > ; o.= :+b+u+#+x e   *.h++ $ #+7.t+",
"h   (++ + L.5 '.+   <+; z+A+6+7 l l + |.    o.+ b > k.  r.q.+ +   + ,.+   Q K 1 ",
"H [.n+    c.{. +7+2++ + + D.K.+   + R.+ `.  _+> >   > E ,+$+u.z+l+B d a j h x ^ ",
"w + 7+y++ y.+ + j.P.  h.q++ a }.d   + _.-+u.I.    Z.a 9.+ + ;. ++ g+a+m.  h + 1.",
"Y.2+C + r+  +   + + + :+  4 x + + |++ )+..X.Y.u.  B p.[+w.o.  + +   w.  2.q+  6+",
"> 8 + B.+ a+  $+d + p.m + (+%.+ e.+   3 k z+B   C.+ +   + 6 + +   u+  + o.>   z ",
"q+J.W.N.  u + + 2 + w++ t g+= + ~.    _.> ; B++ b.9.;+q++ * F ] j+$ d   8 + E x ",
"T.  u.z P.p+'.f+A.:   p++ S.+ +   w (.y+L.  +   K w.8 j K.1+n Z b+>.+   O z + {.",
"t b |+L R.  @.[+j+  4+E L.}   & ].  + L.+   D.5 h n.+ m + x+5 + y + k.E ,.+ h.+ "};
