/* XPM */
static char * midinotedecmodule_xpm[] = {
"40 40 678 2",
"  	c None",
". 	c #FDFDFD",
"+ 	c #FEFEFE",
"@ 	c #FFFFFF",
"# 	c #FDFDFC",
"$ 	c #FEFCFE",
"% 	c #FEFDFC",
"& 	c #FEFDFA",
"* 	c #FEFDFE",
"= 	c #FDFCFD",
"- 	c #FEFDFD",
"; 	c #FEFEFC",
"> 	c #FEFCFC",
", 	c #FCFEFE",
"' 	c #FFFDFD",
") 	c #FDFDFE",
"! 	c #FEFCFD",
"~ 	c #FCFDFE",
"{ 	c #FDFEFE",
"] 	c #FDFEFD",
"^ 	c #FDFEFC",
"/ 	c #FCFDFD",
"( 	c #FEFEFD",
"_ 	c #FBFCFE",
": 	c #F8FCFD",
"< 	c #F9FDFD",
"[ 	c #FBFEFE",
"} 	c #FAFBFE",
"| 	c #F9FCFC",
"1 	c #F7F9FC",
"2 	c #FBFCFD",
"3 	c #F8FDFD",
"4 	c #F9FBFD",
"5 	c #FAFCFC",
"6 	c #F8FDFC",
"7 	c #F9FDFC",
"8 	c #FAFCFB",
"9 	c #FAFDFC",
"0 	c #F8FDFE",
"a 	c #F8FBFD",
"b 	c #FAFBFD",
"c 	c #FAFAFB",
"d 	c #F8FAFC",
"e 	c #FAFBFB",
"f 	c #F9FCFB",
"g 	c #F8FBFB",
"h 	c #FAFDFD",
"i 	c #FBFBFD",
"j 	c #A8A8A8",
"k 	c #141517",
"l 	c #0F0E17",
"m 	c #131215",
"n 	c #101011",
"o 	c #0D0E0E",
"p 	c #0F1010",
"q 	c #1B181C",
"r 	c #19141B",
"s 	c #181819",
"t 	c #101111",
"u 	c #121113",
"v 	c #141112",
"w 	c #131413",
"x 	c #131114",
"y 	c #110F14",
"z 	c #1B191C",
"A 	c #0D0D0E",
"B 	c #121213",
"C 	c #140F14",
"D 	c #131316",
"E 	c #0D0D0D",
"F 	c #0F0D0E",
"G 	c #131419",
"H 	c #0D0D10",
"I 	c #141314",
"J 	c #C2C2C2",
"K 	c #A2A3A3",
"L 	c #607088",
"M 	c #5865C8",
"N 	c #6768BE",
"O 	c #424446",
"P 	c #000000",
"Q 	c #272829",
"R 	c #9099C1",
"S 	c #5B4BAD",
"T 	c #9095B3",
"U 	c #212324",
"V 	c #2F3031",
"W 	c #695DB4",
"X 	c #7E6FAE",
"Y 	c #7A7987",
"Z 	c #586A89",
"` 	c #6B6AA0",
" .	c #A7A0C6",
"..	c #4F5866",
"+.	c #483A9D",
"@.	c #4E4C9A",
"#.	c #807C90",
"$.	c #606477",
"%.	c #5A5872",
"&.	c #6A468B",
"*.	c #7B6C80",
"=.	c #6A83A5",
"-.	c #4C4D81",
";.	c #6D6876",
">.	c #BEBEBE",
",.	c #A0A1A1",
"'.	c #3E5C6E",
").	c #1B32B3",
"!.	c #30348C",
"~.	c #24272A",
"{.	c #222527",
"].	c #6884C1",
"^.	c #5446C0",
"/.	c #5865A0",
"(.	c #141D1F",
"_.	c #303031",
":.	c #4D6DC0",
"<.	c #5C3BB3",
"[.	c #807F88",
"}.	c #425A7E",
"|.	c #2F38A0",
"1.	c #646BAF",
"2.	c #3B4751",
"3.	c #3E41B1",
"4.	c #4945B7",
"5.	c #474674",
"6.	c #556479",
"7.	c #3F4080",
"8.	c #533892",
"9.	c #585376",
"0.	c #5D728D",
"a.	c #4949A6",
"b.	c #757379",
"c.	c #898990",
"d.	c #9E9F9F",
"e.	c #64739F",
"f.	c #0A38AD",
"g.	c #2A3C7E",
"h.	c #252A2C",
"i.	c #272929",
"j.	c #48569E",
"k.	c #1C34BD",
"l.	c #354363",
"m.	c #040E1A",
"n.	c #302F31",
"o.	c #5255BD",
"p.	c #755EC2",
"q.	c #7E7E8F",
"r.	c #5E7684",
"s.	c #3C3FA2",
"t.	c #585B95",
"u.	c #465254",
"v.	c #4958AB",
"w.	c #3A4CA9",
"x.	c #46475C",
"y.	c #3B4E5B",
"z.	c #192898",
"A.	c #252099",
"B.	c #373841",
"C.	c #586D7F",
"D.	c #352392",
"E.	c #70707A",
"F.	c #858687",
"G.	c #808080",
"H.	c #6E77AF",
"I.	c #001D9D",
"J.	c #2C497B",
"K.	c #1F272A",
"L.	c #252729",
"M.	c #496FBF",
"N.	c #0C1FA0",
"O.	c #313D6C",
"P.	c #041518",
"Q.	c #2F2F30",
"R.	c #3554C3",
"S.	c #6952C6",
"T.	c #7C7986",
"U.	c #405389",
"V.	c #080D8F",
"W.	c #53668A",
"X.	c #464D53",
"Y.	c #3F69BC",
"Z.	c #010A70",
"`.	c #585E77",
" +	c #4F525B",
".+	c #1A43AE",
"++	c #140E76",
"@+	c #4B5076",
"#+	c #474E5F",
"$+	c #2927AC",
"%+	c #807993",
"&+	c #6A6B74",
"*+	c #6B6B6B",
"=+	c #4E688F",
"-+	c #000791",
";+	c #2D3973",
">+	c #1B282A",
",+	c #262829",
"'+	c #40519D",
")+	c #000481",
"!+	c #2E3A79",
"~+	c #000D17",
"{+	c #2E2F31",
"]+	c #3E4FC1",
"^+	c #5C45C8",
"/+	c #83788E",
"(+	c #54718A",
"_+	c #000477",
":+	c #385987",
"<+	c #1C1E24",
"[+	c #485AA3",
"}+	c #011274",
"|+	c #3B467D",
"1+	c #3E4C4E",
"2+	c #39339D",
"3+	c #000036",
"4+	c #394567",
"5+	c #47515C",
"6+	c #3B3986",
"7+	c #575674",
"8+	c #555656",
"9+	c #676767",
"0+	c #3B4D8D",
"a+	c #00016B",
"b+	c #323A8B",
"c+	c #161F25",
"d+	c #262729",
"e+	c #3945AA",
"f+	c #000072",
"g+	c #333E88",
"h+	c #00111A",
"i+	c #2845C5",
"j+	c #5E5CCD",
"k+	c #6B6989",
"l+	c #426D8A",
"m+	c #000148",
"n+	c #304B7E",
"o+	c #1D1F1F",
"p+	c #44548C",
"q+	c #000042",
"r+	c #333E71",
"s+	c #252727",
"t+	c #2B538D",
"u+	c #000049",
"v+	c #35366A",
"w+	c #2C2E2E",
"x+	c #5569A7",
"y+	c #514692",
"z+	c #67686D",
"A+	c #525353",
"B+	c #3A4053",
"C+	c #00017F",
"D+	c #333C78",
"E+	c #051C1E",
"F+	c #3B40B0",
"G+	c #000062",
"H+	c #343C81",
"I+	c #000B0E",
"J+	c #4072C6",
"K+	c #4F63C8",
"L+	c #76747F",
"M+	c #526B7C",
"N+	c #00005B",
"O+	c #47588E",
"P+	c #000001",
"Q+	c #151B1D",
"R+	c #44509A",
"S+	c #000057",
"T+	c #353B7A",
"U+	c #111F24",
"V+	c #131A1C",
"W+	c #4D66A9",
"X+	c #00003C",
"Y+	c #333868",
"Z+	c #0E1518",
"`+	c #161819",
" @	c #496DB6",
".@	c #7F67B1",
"+@	c #535157",
"@@	c #505153",
"#@	c #4C558C",
"$@	c #000079",
"%@	c #384697",
"&@	c #000607",
"*@	c #27292A",
"=@	c #3E68C3",
"-@	c #000876",
";@	c #343A54",
">@	c #00050D",
",@	c #2E3031",
"'@	c #5F74C1",
")@	c #3563B7",
"!@	c #6C6487",
"~@	c #798499",
"{@	c #011279",
"]@	c #39488A",
"^@	c #2E2E32",
"/@	c #697A9F",
"(@	c #041371",
"_@	c #32385A",
":@	c #292B2E",
"<@	c #6883BC",
"[@	c #000055",
"}@	c #142F4D",
"|@	c #182025",
"1@	c #6C8CAF",
"2@	c #73579A",
"3@	c #424749",
"4@	c #E2ECED",
"5@	c #525354",
"6@	c #555DAD",
"7@	c #1F49B0",
"8@	c #546B8E",
"9@	c #25282A",
"0@	c #526FC2",
"a@	c #335EB0",
"b@	c #353A69",
"c@	c #000011",
"d@	c #557CC9",
"e@	c #2B4DB9",
"f@	c #8E86B2",
"g@	c #8A8D9A",
"h@	c #362E8A",
"i@	c #364496",
"j@	c #363738",
"k@	c #747F9B",
"l@	c #3C4AAA",
"m@	c #263B66",
"n@	c #3E5CA0",
"o@	c #362FAF",
"p@	c #121246",
"q@	c #252730",
"r@	c #636A8A",
"s@	c #423D90",
"t@	c #686366",
"u@	c #DADCDC",
"v@	c #505151",
"w@	c #7183C3",
"x@	c #2F58B6",
"y@	c #7D90B0",
"z@	c #3C4B51",
"A@	c #3F76C1",
"B@	c #5273CB",
"C@	c #6C7FBF",
"D@	c #040405",
"E@	c #487CCC",
"F@	c #3E5BC1",
"G@	c #A3A5BF",
"H@	c #556E8C",
"I@	c #4F47A0",
"J@	c #7277C7",
"K@	c #353636",
"L@	c #070A0A",
"M@	c #6A8DBB",
"N@	c #3445AC",
"O@	c #5056BB",
"P@	c #49454A",
"Q@	c #688CAA",
"R@	c #6B6DCF",
"S@	c #51428C",
"T@	c #464B54",
"U@	c #5C8BBA",
"V@	c #756BBF",
"W@	c #806A82",
"X@	c #B8C3C3",
"Y@	c #546B69",
"Z@	c #5373B2",
"`@	c #3E72C9",
" #	c #6B7FBA",
".#	c #515968",
"+#	c #282829",
"@#	c #656F8D",
"##	c #2460C1",
"$#	c #306BC1",
"%#	c #637FCB",
"&#	c #404051",
"*#	c #414F53",
"=#	c #4B5B88",
"-#	c #3263C2",
";#	c #133FBE",
">#	c #9B9EB7",
",#	c #616C75",
"'#	c #4462A1",
")#	c #3E73B9",
"!#	c #575A77",
"~#	c #60616A",
"{#	c #3B3F42",
"]#	c #4E72C1",
"^#	c #4162BE",
"/#	c #3D4FB4",
"(#	c #747287",
"_#	c #282929",
":#	c #506072",
"<#	c #3559B7",
"[#	c #4E55C4",
"}#	c #4D53BC",
"|#	c #747273",
"1#	c #274453",
"2#	c #48516F",
"3#	c #6172C0",
"4#	c #4644BC",
"5#	c #6D6C6F",
"6#	c #A4A4A4",
"7#	c #FAFAFA",
"8#	c #545858",
"9#	c #3B64BF",
"0#	c #6D95D2",
"a#	c #3F85CC",
"b#	c #4F67B5",
"c#	c #515053",
"d#	c #97A6CE",
"e#	c #4E93CE",
"f#	c #429ACB",
"g#	c #558CC5",
"h#	c #83858D",
"i#	c #6F7698",
"j#	c #5481BF",
"k#	c #4D8CCB",
"l#	c #517CCA",
"m#	c #A7ABCD",
"n#	c #64676A",
"o#	c #1C35A5",
"p#	c #1E5FCA",
"q#	c #5D5DC1",
"r#	c #8F8ABF",
"s#	c #4F5162",
"t#	c #4870C3",
"u#	c #2C7DC9",
"v#	c #4781CA",
"w#	c #6177A6",
"x#	c #4D4E4F",
"y#	c #688FD1",
"z#	c #5A7ACB",
"A#	c #3464BF",
"B#	c #6371B8",
"C#	c #7F828C",
"D#	c #50576D",
"E#	c #4559B1",
"F#	c #485FC2",
"G#	c #5B76B9",
"H#	c #80768D",
"I#	c #9FA1A2",
"J#	c #F9F9F9",
"K#	c #545758",
"L#	c #3A76B2",
"M#	c #4492CB",
"N#	c #4398CB",
"O#	c #5477B0",
"P#	c #505253",
"Q#	c #8292BA",
"R#	c #4C80CF",
"S#	c #65ABCF",
"T#	c #69A3D0",
"U#	c #7E898D",
"V#	c #6C737E",
"W#	c #5296C8",
"X#	c #6C8ECD",
"Y#	c #5986C6",
"Z#	c #ACADC3",
"`#	c #616669",
" $	c #417CC3",
".$	c #3E94D0",
"+$	c #6788CA",
"@$	c #8E9AC8",
"#$	c #585B5F",
"$$	c #5A88C0",
"%$	c #2B6BC5",
"&$	c #5D79CF",
"*$	c #6B84C8",
"=$	c #5A5A5E",
"-$	c #6A99C3",
";$	c #398EC7",
">$	c #4571B0",
",$	c #3852B1",
"'$	c #737586",
")$	c #646A78",
"!$	c #4051C4",
"~$	c #4471C3",
"{$	c #4566C3",
"]$	c #938EC0",
"^$	c #6D6E6F",
"/$	c #F9F9FA",
"($	c #545658",
"_$	c #5481C4",
":$	c #4D86CB",
"<$	c #377CCB",
"[$	c #738EC6",
"}$	c #505254",
"|$	c #8C95AF",
"1$	c #4679CC",
"2$	c #66A9CA",
"3$	c #5284C7",
"4$	c #818A8F",
"5$	c #74818F",
"6$	c #5CA0D1",
"7$	c #60A1D3",
"8$	c #5596CE",
"9$	c #ACB7CA",
"0$	c #64686A",
"a$	c #3B5BAA",
"b$	c #4D8BC8",
"c$	c #6393C8",
"d$	c #87ABCA",
"e$	c #545555",
"f$	c #8292C1",
"g$	c #5786C2",
"h$	c #7AA9CE",
"i$	c #5F94C4",
"j$	c #78797E",
"k$	c #687F9A",
"l$	c #5086CA",
"m$	c #5384CB",
"n$	c #7287C4",
"o$	c #707C9A",
"p$	c #76829F",
"q$	c #3A5EC9",
"r$	c #4D78BD",
"s$	c #4966C5",
"t$	c #8A8BAE",
"u$	c #696A6B",
"v$	c #F8F8F7",
"w$	c #535554",
"x$	c #A9BECE",
"y$	c #B0C4D6",
"z$	c #AEC8D8",
"A$	c #C1CFDB",
"B$	c #515453",
"C$	c #C4CEDA",
"D$	c #B6C7DF",
"E$	c #CFD5DC",
"F$	c #C3D1DA",
"G$	c #88908E",
"H$	c #9EA09E",
"I$	c #BEC9D7",
"J$	c #C4CFDA",
"K$	c #C6D3DB",
"L$	c #C9CBCD",
"M$	c #686A6B",
"N$	c #AFC1D6",
"O$	c #BDC4DB",
"P$	c #C1D1DF",
"Q$	c #BFD0D8",
"R$	c #535453",
"S$	c #BBC0DA",
"T$	c #CBD4DD",
"U$	c #D5CEDF",
"V$	c #BBC4D6",
"W$	c #7F7B7F",
"X$	c #AAAEB0",
"Y$	c #BAC2D1",
"Z$	c #B9CBDE",
"`$	c #CED3D7",
" %	c #AAABAE",
".%	c #74757B",
"+%	c #B7B7D0",
"@%	c #BBCACF",
"#%	c #B0D6D3",
"$%	c #DEDFDC",
"%%	c #676867",
"&%	c #F7F8F3",
"*%	c #575858",
"=%	c #EBEAE1",
"-%	c #EAEADE",
";%	c #EBEDE1",
">%	c #E6E9D6",
",%	c #525552",
"'%	c #E6E8E6",
")%	c #ECEBE3",
"!%	c #EBE9DA",
"~%	c #EBEBD7",
"{%	c #91938C",
"]%	c #ADAFA7",
"^%	c #EDEDDC",
"/%	c #EBE9D9",
"(%	c #EDECE0",
"_%	c #D8DAD1",
":%	c #6A6B67",
"<%	c #EAE9DB",
"[%	c #EFEDDA",
"}%	c #EEEDD7",
"|%	c #F5F1E5",
"1%	c #545454",
"2%	c #ECE9D2",
"3%	c #F1EDE4",
"4%	c #EDEEDC",
"5%	c #EBEAD8",
"6%	c #7F7E7D",
"7%	c #C3C5BC",
"8%	c #EEEFD8",
"9%	c #F1F0DD",
"0%	c #F0EDD8",
"a%	c #CDCBBF",
"b%	c #818272",
"c%	c #F1E9D4",
"d%	c #F3EDDA",
"e%	c #F0ECDB",
"f%	c #F0EAE0",
"g%	c #5E6161",
"h%	c #FAFAF8",
"i%	c #575856",
"j%	c #D1D6AD",
"k%	c #E1DFCF",
"l%	c #DDDDC9",
"m%	c #E2E3C8",
"n%	c #515351",
"o%	c #E0E2CD",
"p%	c #E4E3D0",
"q%	c #E4E3CD",
"r%	c #E2E2BD",
"s%	c #92928A",
"t%	c #A8AA9B",
"u%	c #E1E3C6",
"v%	c #E5E4C6",
"w%	c #EAE8D4",
"x%	c #D9D7CB",
"y%	c #6C6C6A",
"z%	c #DBD9BE",
"A%	c #E8E1C5",
"B%	c #EAE4CE",
"C%	c #EAEAD7",
"D%	c #545453",
"E%	c #EAEDDA",
"F%	c #E2E6CD",
"G%	c #E6E3C5",
"H%	c #E8E2C1",
"I%	c #80807A",
"J%	c #BBBAB2",
"K%	c #E8E6CC",
"L%	c #ECE5D3",
"M%	c #EBE6D8",
"N%	c #B8C3AE",
"O%	c #A7AFA2",
"P%	c #E2E6CB",
"Q%	c #E7E8D0",
"R%	c #E8EAD2",
"S%	c #DDDECF",
"T%	c #696F6B",
"U%	c #E1E1E1",
"V%	c #313333",
"W%	c #7C8580",
"X%	c #848F89",
"Y%	c #829493",
"Z%	c #84877B",
"`%	c #2E302E",
" &	c #868C8B",
".&	c #828580",
"+&	c #8A8B87",
"@&	c #898A80",
"#&	c #616660",
"$&	c #868A86",
"%&	c #868783",
"&&	c #858783",
"*&	c #7D7E7B",
"=&	c #3C3E3D",
"-&	c #878B82",
";&	c #89897E",
">&	c #898983",
",&	c #363636",
"'&	c #8A8C88",
")&	c #878985",
"!&	c #898B86",
"~&	c #454A48",
"{&	c #6C7871",
"]&	c #8A8D88",
"^&	c #888A84",
"/&	c #8A8A85",
"(&	c #666E6D",
"_&	c #656868",
":&	c #898A88",
"<&	c #8D8E8A",
"[&	c #8B8C87",
"}&	c #828180",
"|&	c #535354",
"1&	c #F1F1F1",
"2&	c #C4C4C4",
"3&	c #D0D0D0",
"4&	c #FEFFFF",
"5&	c #FCFCFC",
". + + . . + + . . + + + . + . . . + . . + + + . + + . . . + + . + . + . + + + + ",
"+ + . . + + . . . + . + . . + . . + . . . + . + + . + . + + . . + + . . . + + . ",
". . . + . . + + . . . + . + . . . . . + + . . . . + . . . . . . . . . + . + . + ",
"+ + . + + + + . . . + + . + + + . + + + + + + . . . + + + + . + . + + + . . + + ",
"+ + + . + . + . + + . . + . + + + . + + + . + . + . . . . + . + . . + + + + . . ",
"@ @ # . $ % & * = = + . - % * + % ; > , ' # ) ! + ~ { ) ] # . . # . ^ ) = / * ( ",
"@ @ _ : < [ } | 1 2 < 3 4 5 6 7 8 9 | 0 7 | a b c d _ : e f g e f h i e 4 4 , @ ",
"@ @ j k l m n o p q r s p o t u v w x y z o A B C A D o E B A A F A A G H I J @ ",
"@ @ K L M N O P Q R S T U P V W X Y Z `  .P P ..+.@.#.P P $.%.&.*.P P =.-.;.>.@ ",
"@ @ ,.'.).!.~.P {.].^./.(.P _.:.<.[.}.|.1.P P 2.3.4.5.P P 6.7.8.9.P P 0.a.b.c.@ ",
"@ @ d.e.f.g.h.P i.j.k.l.m.P n.o.p.q.r.s.t.P P u.v.w.x.P P y.z.A.B.P P C.D.E.F.@ ",
"@ @ G.H.I.J.K.P L.M.N.O.P.P Q.R.S.T.U.V.W.P P X.Y.Z.`.P P  +.+++@+P P #+$+%+&+@ ",
"@ @ *+=+-+;+>+P ,+'+)+!+~+P {+]+^+/+(+_+:+P P <+[+}+|+P P 1+2+3+4+P P 5+6+7+8+@ ",
"@ @ 9+0+a+b+c+P d+e+f+g+h+P V i+j+k+l+m+n+P P o+p+q+r+P P s+t+u+v+P P w+x+y+z+@ ",
"@ @ A+B+C+D+E+P i.F+G+H+I+P V J+K+L+M+N+O+P+P Q+R+S+T+U+P V+W+X+Y+Z+P `+ @.@+@+ ",
"@ @ @@#@$@%@&@P *@=@-@;@>@P ,@'@)@!@~@{@]@^@P P /@(@_@:@P P <@[@}@|@P P 1@2@3@4@",
"@ @ 5@6@7@8@P P 9@0@a@b@c@P V d@e@f@g@h@i@j@P P k@l@m@:@P P n@o@p@q@P P r@s@t@u@",
"@ + v@w@x@y@P P z@A@B@C@D@P V E@F@G@H@I@J@K@P L@M@N@O@P@P P Q@R@S@T@P P U@V@W@X@",
"@ / Y@Z@`@ #.#+#@###$#%#&#*#=#-#;#>#,#'#)#!#~#{#]#^#/#(#_#:#<#[#}#|#1#2#3#4#5#6#",
"@ 7#8#9#0#a#b#c#d#e#f#g#h#i#j#k#l#m#n#o#p#q#r#s#t#u#v#w#x#y#z#A#B#C#D#E#F#G#H#I#",
"@ J#K#L#M#N#O#P#Q#R#S#T#U#V#W#X#Y#Z#`# $.$+$@$#$$$%$&$*$=$-$;$>$,$'$)$!$~${$]$^$",
"@ /$($_$:$<$[$}$|$1$2$3$4$5$6$7$8$9$0$a$b$c$d$e$f$g$h$i$j$k$l$m$n$o$p$q$r$s$t$u$",
"@ v$w$x$y$z$A$B$C$D$E$F$G$H$I$J$K$L$M$N$O$P$Q$R$S$T$U$V$W$X$Y$Z$`$ %.%+%@%#%$%%%",
"@ &%*%=%-%;%>%,%'%)%!%~%{%]%^%/%(%_%:%<%[%}%|%1%2%3%4%5%6%7%8%9%0%a%b%c%d%e%f%g%",
"@ h%i%j%k%l%m%n%o%p%q%r%s%t%u%v%w%x%y%z%A%B%C%D%E%F%G%H%I%J%K%L%M%N%O%P%Q%R%S%T%",
"@ U%V%W%X%Y%Z%`% &.&+&@&,%#&$&%&&&*&=&-&Z%;&>&,&'&)&!&'&~&{&]&^&/&(&_&:&<&[&}&|&",
"@ 1&2&2&2&2&2&2&2&2&2&2&2&2&2&2&2&2&2&2&2&2&2&2&2&2&2&2&2&2&2&2&2&2&2&2&2&2&2&3&",
"@ @ @ @ @ @ @ @ @ @ @ @ @ @ @ @ @ @ @ @ @ @ @ @ @ @ @ @ @ @ @ @ @ @ @ @ @ @ @ @ ",
"@ @ @ @ @ @ @ @ @ @ @ @ @ @ @ @ @ @ @ @ @ @ @ @ @ @ @ @ @ @ @ @ @ @ @ @ @ @ @ @ ",
"@ @ @ @ @ @ @ @ @ @ @ @ @ @ @ @ @ @ @ @ @ @ @ @ @ @ @ @ @ @ @ @ @ @ @ @ @ @ @ @ ",
"@ ) . . + + @ 4&@ @ @ + + @ @ @ @ @ @ @ @ @ @ @ @ @ @ @ @ @ @ @ @ @ @ @ @ @ @ @ ",
"@ ) . . . . . ] . . + + . + + + . + + + + + . . . . + + + + + @ + @ + @ + + + + ",
"+ + + + + . + . + + . . + + . + + . { + + . . . + . . . . + + + . . + + + . . . ",
". . . . . . . . . . + . + + + + . { { . + . + + + . + + . . + . . . + . . . . . ",
". . . + + + + + . . . + . + . + . + . + . . + + + . . . . + . . + . + + + + . . ",
". + . . + . + . + . . . . + + . . . . . . . + . + + + . . . . . + . + . . . . . ",
". . + + + + + + . + . + + . . + . . + + + + . + . . . . . . + . + + + + . + . . ",
". + . + . . . . + . . + + . + + + + . . . + + + . + . + . . + . + . + . + . . + ",
". + . + . + + + . 5&. + . + + . + + + . . + + + + + . . . + . + . + + + . . . + ",
". . . . + + + + . . + . . + . + + + . . + + + . + . + + . . . . + + + + . . . . "};
