/* XPM */
static char * flipflopmodule_xpm[] = {
"40 40 123 2",
"  	c None",
". 	c #FFFFFF",
"+ 	c #FEFEFE",
"@ 	c #FDFDFD",
"# 	c #FBFBFB",
"$ 	c #FCFCFC",
"% 	c #FAFAFA",
"& 	c #F7F7F7",
"* 	c #818181",
"= 	c #8A8A8A",
"- 	c #8B8B8B",
"; 	c #898989",
"> 	c #858585",
", 	c #8D8D8D",
"' 	c #888888",
") 	c #848484",
"! 	c #C0C0C0",
"~ 	c #797979",
"{ 	c #DEDEDE",
"] 	c #E4E4E4",
"^ 	c #E7E7E7",
"/ 	c #E6E6E6",
"( 	c #E3E3E3",
"_ 	c #B5B5B5",
": 	c #A4A4A4",
"< 	c #7E7E7E",
"[ 	c #CDCDCD",
"} 	c #A3A3A3",
"| 	c #F8F8F8",
"1 	c #7D7D7D",
"2 	c #CCCCCC",
"3 	c #A2A2A2",
"4 	c #F4F4F4",
"5 	c #ADADAD",
"6 	c #A6A6A6",
"7 	c #B2B2B2",
"8 	c #EBEBEB",
"9 	c #F6F6F6",
"0 	c #A0A0A0",
"a 	c #ABABAB",
"b 	c #F3F3F3",
"c 	c #7F7F7F",
"d 	c #F5F5F5",
"e 	c #7A7A7A",
"f 	c #C5C5C5",
"g 	c #AEAEAE",
"h 	c #C9C9C9",
"i 	c #909090",
"j 	c #C6C6C6",
"k 	c #A7A7A7",
"l 	c #CFCFCF",
"m 	c #EDEDED",
"n 	c #868686",
"o 	c #EEEEEE",
"p 	c #676767",
"q 	c #EFEFEF",
"r 	c #838383",
"s 	c #BFBFBF",
"t 	c #A1A1A1",
"u 	c #6B6B6B",
"v 	c #F9F9F9",
"w 	c #F1F1F1",
"x 	c #E9E9E9",
"y 	c #BDBDBD",
"z 	c #C8C8C8",
"A 	c #5B5B5B",
"B 	c #E8E8E8",
"C 	c #E0E0E0",
"D 	c #BABABA",
"E 	c #B1B1B1",
"F 	c #939393",
"G 	c #616161",
"H 	c #F0F0F0",
"I 	c #AFAFAF",
"J 	c #D4D4D4",
"K 	c #A5A5A5",
"L 	c #808080",
"M 	c #747474",
"N 	c #6F6F6F",
"O 	c #717171",
"P 	c #B4B4B4",
"Q 	c #CECECE",
"R 	c #CBCBCB",
"S 	c #7C7C7C",
"T 	c #4D4D4D",
"U 	c #C1C1C1",
"V 	c #E2E2E2",
"W 	c #EAEAEA",
"X 	c #E5E5E5",
"Y 	c #595959",
"Z 	c #878787",
"` 	c #C2C2C2",
" .	c #ACACAC",
"..	c #8E8E8E",
"+.	c #B9B9B9",
"@.	c #B0B0B0",
"#.	c #D0D0D0",
"$.	c #B7B7B7",
"%.	c #B3B3B3",
"&.	c #757575",
"*.	c #727272",
"=.	c #DDDDDD",
"-.	c #BCBCBC",
";.	c #969696",
">.	c #AAAAAA",
",.	c #737373",
"'.	c #989898",
").	c #D5D5D5",
"!.	c #949494",
"~.	c #CACACA",
"{.	c #565656",
"].	c #959595",
"^.	c #696969",
"/.	c #767676",
"(.	c #DFDFDF",
"_.	c #E1E1E1",
":.	c #F2F2F2",
"<.	c #7B7B7B",
"[.	c #656565",
"}.	c #A8A8A8",
"|.	c #A9A9A9",
"1.	c #C4C4C4",
"2.	c #C7C7C7",
". . . . + @ # $ $ + . . . . . . . . . . . . . . . . . . . % @ $ $ @ . . . . . . ",
". . . . . @ @ + % + . . . . . . . . . . . . . . . . . . + $ + . % . . . . . . . ",
". . . . . @ # # # # @ @ @ @ @ @ @ @ @ @ @ @ @ @ @ @ @ @ $ @ # @ $ + . . . . . . ",
". . . . . & * = - - ; ; ; ; ; ; ; ; ; ; ; ; ; ; ; ; ; ; ; > , ' ) ! . . . . . . ",
". . . . . & ~ { ] ^ ^ ^ ^ ^ ^ ^ ^ ^ ^ ^ ^ ^ ^ ^ ^ ^ ^ ^ / / / ( _ : . . . . . . ",
". . . . . & < & + + . . . . . . . . . . . . . . . . . . . + . @ [ } . . . . . . ",
". . . . . & < & + + . . . . . . . . . . . . . . . . . . . + . @ [ } . . . . . . ",
". . . . . & < & + + . . . . . . . . . . . . . . . . . . . + . @ [ } . . . . . . ",
". . . . . & < & + + . . . . . . . . . . . . . . . . . . . + . @ [ } . . . . . . ",
". . . . + | 1 & + + @ + + . + @ @ @ . . . . . . % + # + . + . @ 2 3 . . . . . . ",
". . . . + | 1 & + @ 4 5 6 7 8 # @ + $ . . . . . 9 0 a 7 b . . @ [ } . . . . . . ",
"+ + + + + & c d + @ ( e f g ; 9 . + $ . . . . . h i j k ! . . @ l } + + + + + + ",
"+ + + + @ m > 4 + @ ( n | o p q $ . @ . . . . @ r ^ $ s 7 + . + [ t + + + + + + ",
"' ' ' ' ' n u d + # ^ - v b c w $ + @ . . . . @ r x @ y 7 + . . z A ' ' ' ' ' ' ",
"B B B B B C 1 9 + + ( = + d e q | @ + . . . . + > x % D E # @ . h F B B B B B B ",
". . . . . & < & + + C - $ [ G H + # + . . . . + I y J p a % + # [ K . . . . . . ",
". . . . . & < & + @ 8 L M ) / # $ + $ + . . . . w N O r P q + + 2 t . . . . . . ",
". . . . . & < & + $ @ v % # v $ @ % + . . . . . v $ $ # $ + $ # Q : . . . . . . ",
". . . . . & < & + @ # # & # @ $ @ + $ + . . . . @ # % % # + . . R : . . . . . . ",
". . . . . d c d . @ . + . + . . . . . . . . . . . . + . . + . @ [ } . . . . . . ",
". . . . @ 9 S & | . . . . . . . . . . . . . . . . . . . . + . @ [ } . . . . . . ",
". . . . . | S d + $ . . . . . . . . . . . . . . . . . . . + . @ [ } . . . . . . ",
". . . . . d > 4 & @ . . . . . . . . . . . . . . . . . . . + . @ [ } . . . . . . ",
". . . . . & T U H $ . . . @ . . . . . . . . . . @ ( V W @ + + o [ } . . . . . . ",
"+ + + + + d S 0 ; ! 9 @ $ 9 @ . . . . . . . . . X Y Z n J $ `  .2 3 + + + + + + ",
"+ + + + + 4 < & o I ..+.m % + . . . . . . . . @ ; ] 9 y @.+ D b #.3 + + + + + + ",
"$.$.$.$.$.%.&.d | $ x : *.=.$ . . . . . . . . @ r x % -.5 @ % $ h &.$.$.$.$.$.$.",
"$.$.$.$.$.7 M d . 4 ! ;.>.B . . . . . . . . . @ ' B $ -.%.+ @ | l ,.$.$.$.$.$.$.",
". . . . + | S X U ;.5 W & @ + . . . . . . . . + '.).b ' !.& # % ~.: . . . . . . ",
". . . . . 4 {.].a ^ v + $ . + . . . . . . . . + V ^.' > '.2 + v [ 6 . . . . . . ",
". . . . . & /.(.% @ $ @ + . . . . . . . . . . . # _.(.X :.4 # . R 3 . . . . . . ",
". . . . . 9 1 b . . + . + + . . . . . . . . . . + | @ $ $ $ @ + ~.K . . . . . . ",
". . . . . | 1 d $ @ @ $ @ + + . . . . . . . . + $ $ $ v @ $ v @ R : . . . . . . ",
". . . . . d * | $ . . . . + @ . . . . . . . . . + . + @ @ + # + [ t . . . . . . ",
". . . . . | S d . @ . . . . . . . . . . . . . . . . . . + # . $ R : . . . . . . ",
". . . . + & <.& $ @ + + + + + + + + + + + + + + + + + + + + # $ R t . . . . . . ",
". . . . . 9 [.0 }.: }.}.}.}.}.}.}.}.}.}.}.}.}.}.}.}.}.}.}.k >.|.n } . . . . . . ",
". . . . + $ j 1.~.f z z z z z z z z z z z z z z z z z z z 2.f 2.~.8 . . . . . . ",
". . . . . + + . + . . . . . . . . . . . . . . . . . . . . . . . + . . . . . . . ",
". . . . . . . . . . . . . . . . . . . . . . . . . . . . . . . . . . . . . . . . "};
