/* XPM */
static char * ifsmodule_xpm[] = {
"40 40 798 2",
"  	c None",
". 	c #000000",
"+ 	c #010000",
"@ 	c #030203",
"# 	c #020205",
"$ 	c #141908",
"% 	c #35521A",
"& 	c #0A1405",
"* 	c #050009",
"= 	c #040103",
"- 	c #010100",
"; 	c #01010A",
"> 	c #22390A",
", 	c #74BB25",
"' 	c #5E8E22",
") 	c #18200E",
"! 	c #030309",
"~ 	c #000101",
"{ 	c #020305",
"] 	c #030405",
"^ 	c #334919",
"/ 	c #6CAE23",
"( 	c #6AA921",
"_ 	c #4F8315",
": 	c #2C3F12",
"< 	c #050304",
"[ 	c #010103",
"} 	c #020101",
"| 	c #000100",
"1 	c #040306",
"2 	c #364E16",
"3 	c #31560F",
"4 	c #538127",
"5 	c #6FA61F",
"6 	c #73B324",
"7 	c #4F7728",
"8 	c #090C05",
"9 	c #080F05",
"0 	c #050103",
"a 	c #000400",
"b 	c #050307",
"c 	c #1C3410",
"d 	c #689F1A",
"e 	c #5B8C23",
"f 	c #2C4C10",
"g 	c #578E19",
"h 	c #52891D",
"i 	c #2F5112",
"j 	c #4C7027",
"k 	c #060608",
"l 	c #020402",
"m 	c #010001",
"n 	c #020501",
"o 	c #192707",
"p 	c #020503",
"q 	c #020505",
"r 	c #0D0D0E",
"s 	c #43661B",
"t 	c #7ABA36",
"u 	c #4A7817",
"v 	c #538C1E",
"w 	c #69A823",
"x 	c #6FAC26",
"y 	c #5D961A",
"z 	c #070C09",
"A 	c #010304",
"B 	c #000001",
"C 	c #030104",
"D 	c #020200",
"E 	c #000002",
"F 	c #050305",
"G 	c #101A0C",
"H 	c #69A029",
"I 	c #37521B",
"J 	c #05040B",
"K 	c #0E1108",
"L 	c #38571A",
"M 	c #588F22",
"N 	c #4D7E11",
"O 	c #66A725",
"P 	c #5D9A19",
"Q 	c #578D17",
"R 	c #56872B",
"S 	c #07070C",
"T 	c #05060D",
"U 	c #020504",
"V 	c #05010C",
"W 	c #040501",
"X 	c #000007",
"Y 	c #030305",
"Z 	c #080E09",
"` 	c #508619",
" .	c #6CA826",
"..	c #344917",
"+.	c #0B100F",
"@.	c #354F16",
"#.	c #58841F",
"$.	c #416116",
"%.	c #508618",
"&.	c #669C26",
"*.	c #47691F",
"=.	c #315015",
"-.	c #050409",
";.	c #091103",
">.	c #365317",
",.	c #0D140E",
"'.	c #020306",
").	c #000003",
"!.	c #010501",
"~.	c #060708",
"{.	c #335314",
"].	c #6DA824",
"^.	c #69A821",
"/.	c #304C12",
"(.	c #04030B",
"_.	c #13170C",
":.	c #0C0D0F",
"<.	c #436818",
"[.	c #43681C",
"}.	c #102004",
"|.	c #3D5A20",
"1.	c #2C4613",
"2.	c #4E7B1A",
"3.	c #609517",
"4.	c #1C2F0D",
"5.	c #000105",
"6.	c #010200",
"7.	c #020001",
"8.	c #010004",
"9.	c #010102",
"0.	c #010105",
"a.	c #040105",
"b.	c #030101",
"c.	c #212911",
"d.	c #355310",
"e.	c #50851A",
"f.	c #73B421",
"g.	c #609B1F",
"h.	c #364D18",
"i.	c #1D3505",
"j.	c #233111",
"k.	c #517E21",
"l.	c #598A1E",
"m.	c #4E781E",
"n.	c #639D18",
"o.	c #579120",
"p.	c #67A022",
"q.	c #619320",
"r.	c #1A270F",
"s.	c #010202",
"t.	c #030100",
"u.	c #040104",
"v.	c #131C08",
"w.	c #152009",
"x.	c #040205",
"y.	c #040201",
"z.	c #020206",
"A.	c #020202",
"B.	c #050805",
"C.	c #385023",
"D.	c #4B7E15",
"E.	c #6AA828",
"F.	c #61A51C",
"G.	c #598727",
"H.	c #558919",
"I.	c #71A835",
"J.	c #345F0C",
"K.	c #4D7A19",
"L.	c #548B1C",
"M.	c #61A11B",
"N.	c #79B830",
"O.	c #5C9512",
"P.	c #538018",
"Q.	c #0E160B",
"R.	c #030201",
"S.	c #03050E",
"T.	c #4D761B",
"U.	c #639826",
"V.	c #060E09",
"W.	c #030307",
"X.	c #060308",
"Y.	c #0C1009",
"Z.	c #2D4316",
"`.	c #59911C",
" +	c #588F1E",
".+	c #355314",
"++	c #395E0D",
"@+	c #6FAC24",
"#+	c #426A12",
"$+	c #45701A",
"%+	c #5F961B",
"&+	c #588F19",
"*+	c #5A8D1B",
"=+	c #52801C",
"-+	c #486F1A",
";+	c #080B0B",
">+	c #060401",
",+	c #020207",
"'+	c #010104",
")+	c #060204",
"!+	c #040409",
"~+	c #3F6710",
"{+	c #72B02B",
"]+	c #365313",
"^+	c #050808",
"/+	c #010101",
"(+	c #17220C",
"_+	c #273A10",
":+	c #2F4419",
"<+	c #305210",
"[+	c #619622",
"}+	c #4A7B13",
"|+	c #4C781B",
"1+	c #487710",
"2+	c #71AF23",
"3+	c #579216",
"4+	c #4C7920",
"5+	c #4F8015",
"6+	c #4A7616",
"7+	c #4B7A1A",
"8+	c #528B17",
"9+	c #284112",
"0+	c #040407",
"a+	c #040304",
"b+	c #010201",
"c+	c #030209",
"d+	c #233814",
"e+	c #64A022",
"f+	c #81BD2A",
"g+	c #355018",
"h+	c #030502",
"i+	c #030303",
"j+	c #1D2412",
"k+	c #54821A",
"l+	c #5C9A1F",
"m+	c #56821C",
"n+	c #508016",
"o+	c #508115",
"p+	c #487915",
"q+	c #406D1C",
"r+	c #5C8F22",
"s+	c #5F9C20",
"t+	c #609C1D",
"u+	c #63991C",
"v+	c #66A326",
"w+	c #69A91B",
"x+	c #5C8B20",
"y+	c #22360C",
"z+	c #02030B",
"A+	c #030004",
"B+	c #070608",
"C+	c #273C11",
"D+	c #10180B",
"E+	c #020106",
"F+	c #070A03",
"G+	c #324218",
"H+	c #4F7C1C",
"I+	c #5FA31A",
"J+	c #74B222",
"K+	c #283F13",
"L+	c #141B0D",
"M+	c #030403",
"N+	c #060304",
"O+	c #151E0B",
"P+	c #2D4317",
"Q+	c #4A6F1A",
"R+	c #497519",
"S+	c #36561E",
"T+	c #324B1C",
"U+	c #364C18",
"V+	c #35570F",
"W+	c #4E811B",
"X+	c #5A921C",
"Y+	c #466A1E",
"Z+	c #5F9529",
"`+	c #5E9418",
" @	c #0D1A0A",
".@	c #010204",
"+@	c #000301",
"@@	c #020605",
"#@	c #19280D",
"$@	c #558712",
"%@	c #44641D",
"&@	c #020302",
"*@	c #020104",
"=@	c #1B290C",
"-@	c #4D771F",
";@	c #579019",
">@	c #76BC22",
",@	c #6AAB1E",
"'@	c #669B25",
")@	c #1C3209",
"!@	c #030308",
"~@	c #040302",
"{@	c #060309",
"]@	c #030702",
"^@	c #344A1C",
"/@	c #2C4113",
"(@	c #141F0A",
"_@	c #020304",
":@	c #0E0908",
"<@	c #335615",
"[@	c #63991A",
"}@	c #609027",
"|@	c #1A2909",
"1@	c #0D1409",
"2@	c #0C120A",
"3@	c #020706",
"4@	c #030409",
"5@	c #040403",
"6@	c #0A0F0B",
"7@	c #374C16",
"8@	c #2A4F0D",
"9@	c #5B8B1E",
"0@	c #13180A",
"a@	c #040408",
"b@	c #030402",
"c@	c #030204",
"d@	c #000103",
"e@	c #050101",
"f@	c #01000A",
"g@	c #1B2212",
"h@	c #2A4114",
"i@	c #5A8E1E",
"j@	c #6BAC24",
"k@	c #6AAC1E",
"l@	c #6A9F22",
"m@	c #334717",
"n@	c #060202",
"o@	c #030107",
"p@	c #040109",
"q@	c #030202",
"r@	c #1C2F0E",
"s@	c #70A928",
"t@	c #1C350C",
"u@	c #070805",
"v@	c #06010F",
"w@	c #0E1507",
"x@	c #3C5518",
"y@	c #0F160F",
"z@	c #0C1209",
"A@	c #081507",
"B@	c #476F12",
"C@	c #5F9326",
"D@	c #4A8316",
"E@	c #52871B",
"F@	c #426120",
"G@	c #010403",
"H@	c #020203",
"I@	c #060B04",
"J@	c #172B0A",
"K@	c #14200D",
"L@	c #1A2B0C",
"M@	c #5B8522",
"N@	c #6AA31C",
"O@	c #6BA821",
"P@	c #7DC624",
"Q@	c #5E931B",
"R@	c #1F300F",
"S@	c #020403",
"T@	c #152108",
"U@	c #080D04",
"V@	c #010205",
"W@	c #020204",
"X@	c #020303",
"Y@	c #0B0E0B",
"Z@	c #659D24",
"`@	c #223910",
" #	c #050506",
".#	c #070905",
"+#	c #294111",
"@#	c #53881B",
"##	c #4C7B1C",
"$#	c #5C8320",
"%#	c #264212",
"&#	c #466F1A",
"*#	c #578A1A",
"=#	c #437112",
"-#	c #4D7B1D",
";#	c #4F8318",
">#	c #071106",
",#	c #04010A",
"'#	c #081006",
")#	c #456F1E",
"!#	c #5E8F1F",
"~#	c #699C1E",
"{#	c #477414",
"]#	c #629318",
"^#	c #5A9214",
"/#	c #72B825",
"(#	c #6DB21D",
"_#	c #679C26",
":#	c #253F0D",
"<#	c #465E22",
"[#	c #395D18",
"}#	c #314E16",
"|#	c #080C0E",
"1#	c #252C11",
"2#	c #060D0D",
"3#	c #0A0409",
"4#	c #42681C",
"5#	c #4B7912",
"6#	c #243617",
"7#	c #567E1F",
"8#	c #47741C",
"9#	c #528118",
"0#	c #4F7E1A",
"a#	c #5A9117",
"b#	c #4A7919",
"c#	c #527F1C",
"d#	c #487311",
"e#	c #487116",
"f#	c #4F7F1A",
"g#	c #568E17",
"h#	c #1E300C",
"i#	c #010203",
"j#	c #040202",
"k#	c #070305",
"l#	c #040308",
"m#	c #131D09",
"n#	c #2C4018",
"o#	c #3A6017",
"p#	c #4F8213",
"q#	c #49771D",
"r#	c #5C9222",
"s#	c #68A71B",
"t#	c #6EB21E",
"u#	c #5D981C",
"v#	c #578E17",
"w#	c #578F22",
"x#	c #53811E",
"y#	c #324E1B",
"z#	c #6B9A22",
"A#	c #436E1B",
"B#	c #3C4F17",
"C#	c #19300D",
"D#	c #538320",
"E#	c #406617",
"F#	c #537F1F",
"G#	c #2C520D",
"H#	c #345315",
"I#	c #528218",
"J#	c #599121",
"K#	c #538A18",
"L#	c #6DA528",
"M#	c #447512",
"N#	c #436E12",
"O#	c #4C7B19",
"P#	c #477816",
"Q#	c #537024",
"R#	c #090E03",
"S#	c #020103",
"T#	c #010002",
"U#	c #040307",
"V#	c #040209",
"W#	c #060206",
"X#	c #060C07",
"Y#	c #3D571C",
"Z#	c #4E761A",
"`#	c #42691C",
" $	c #466D1E",
".$	c #6DA724",
"+$	c #5C971B",
"@$	c #6BA525",
"#$	c #558B14",
"$$	c #649820",
"%$	c #5C9716",
"&$	c #4C771B",
"*$	c #467512",
"=$	c #63A121",
"-$	c #3C6D12",
";$	c #2B3D12",
">$	c #274511",
",$	c #355811",
"'$	c #406716",
")$	c #467117",
"!$	c #315312",
"~$	c #477419",
"{$	c #548E15",
"]$	c #5E9C1F",
"^$	c #73B526",
"/$	c #5F9A1C",
"($	c #517E1B",
"_$	c #4B7818",
":$	c #436F15",
"<$	c #3C5C17",
"[$	c #070C0B",
"}$	c #040101",
"|$	c #050705",
"1$	c #0D100D",
"2$	c #050E0C",
"3$	c #4E741E",
"4$	c #579018",
"5$	c #67A11F",
"6$	c #548817",
"7$	c #598C18",
"8$	c #609B1B",
"9$	c #5F911A",
"0$	c #4C7B1B",
"a$	c #5E951A",
"b$	c #54831A",
"c$	c #244007",
"d$	c #24360A",
"e$	c #1D310E",
"f$	c #273E12",
"g$	c #5A921D",
"h$	c #477412",
"i$	c #58911C",
"j$	c #67A023",
"k$	c #578E18",
"l$	c #6CAA22",
"m$	c #518715",
"n$	c #365811",
"o$	c #365416",
"p$	c #4E7B1D",
"q$	c #2D4214",
"r$	c #030304",
"s$	c #010301",
"t$	c #03080C",
"u$	c #3B4F1C",
"v$	c #233B0F",
"w$	c #325311",
"x$	c #507E12",
"y$	c #68A323",
"z$	c #7ABF2F",
"A$	c #6BB020",
"B$	c #5E971F",
"C$	c #5F9824",
"D$	c #48810D",
"E$	c #6FA92A",
"F$	c #588C14",
"G$	c #294A0C",
"H$	c #233C0C",
"I$	c #344F14",
"J$	c #558E16",
"K$	c #537F1A",
"L$	c #4B7A15",
"M$	c #538617",
"N$	c #467A17",
"O$	c #59901F",
"P$	c #4D761A",
"Q$	c #568816",
"R$	c #5C8A1E",
"S$	c #273E17",
"T$	c #060B09",
"U$	c #030108",
"V$	c #36571C",
"W$	c #4A7519",
"X$	c #304B0F",
"Y$	c #2C4A07",
"Z$	c #45701D",
"`$	c #5C9515",
" %	c #5D8F22",
".%	c #30550C",
"+%	c #436A15",
"@%	c #3E6712",
"#%	c #659B24",
"$%	c #629C1D",
"%%	c #385B14",
"&%	c #213B06",
"*%	c #2F4811",
"=%	c #528A19",
"-%	c #4C7619",
";%	c #3B6110",
">%	c #528119",
",%	c #609725",
"'%	c #6AA525",
")%	c #4E7F14",
"!%	c #456B17",
"~%	c #426C13",
"{%	c #365916",
"]%	c #273615",
"^%	c #040405",
"/%	c #04040B",
"(%	c #000203",
"_%	c #101907",
":%	c #66952D",
"<%	c #507A1C",
"[%	c #4B721C",
"}%	c #46691A",
"|%	c #426217",
"1%	c #355213",
"2%	c #264507",
"3%	c #3C5E14",
"4%	c #4A7319",
"5%	c #3E6713",
"6%	c #2C4F0F",
"7%	c #496F10",
"8%	c #4D7D1A",
"9%	c #4A7517",
"0%	c #3A5E0E",
"a%	c #3C5F11",
"b%	c #5A9018",
"c%	c #69A61E",
"d%	c #3E6710",
"e%	c #253B0A",
"f%	c #3A621A",
"g%	c #649C1B",
"h%	c #3A600F",
"i%	c #34570B",
"j%	c #4C701E",
"k%	c #30530D",
"l%	c #416616",
"m%	c #3A6112",
"n%	c #507F1C",
"o%	c #508915",
"p%	c #619C1E",
"q%	c #324A11",
"r%	c #03020C",
"s%	c #162808",
"t%	c #4B7C1A",
"u%	c #4C7916",
"v%	c #507F16",
"w%	c #4F7F1C",
"x%	c #497319",
"y%	c #476F13",
"z%	c #4E7D18",
"A%	c #558812",
"B%	c #517F19",
"C%	c #4F7A1C",
"D%	c #416911",
"E%	c #517C19",
"F%	c #457210",
"G%	c #52801B",
"H%	c #4E7F1B",
"I%	c #416F18",
"J%	c #385C11",
"K%	c #2C4B08",
"L%	c #32590C",
"M%	c #4A771A",
"N%	c #3C6317",
"O%	c #4D761D",
"P%	c #466F11",
"Q%	c #426915",
"R%	c #477117",
"S%	c #598B1D",
"T%	c #5F9624",
"U%	c #669B24",
"V%	c #3C5B19",
"W%	c #030806",
"X%	c #010300",
"Y%	c #010106",
"Z%	c #010107",
"`%	c #040006",
" &	c #0D0E13",
".&	c #13210B",
"+&	c #3C5D1E",
"@&	c #4B731C",
"#&	c #375C10",
"$&	c #466D1B",
"%&	c #446F14",
"&&	c #4B7713",
"*&	c #507C17",
"=&	c #385D12",
"-&	c #466C16",
";&	c #588A1A",
">&	c #507C16",
",&	c #456A1A",
"'&	c #3C5B18",
")&	c #456919",
"!&	c #436C12",
"~&	c #518219",
"{&	c #5C9320",
"]&	c #4E8415",
"^&	c #588C25",
"/&	c #518813",
"(&	c #5A9416",
"_&	c #649F1A",
":&	c #5F981E",
"<&	c #67A121",
"[&	c #74B31F",
"}&	c #3A6419",
"|&	c #0C1606",
"1&	c #070707",
"2&	c #030503",
"3&	c #070804",
"4&	c #181C0D",
"5&	c #101506",
"6&	c #0E1208",
"7&	c #162309",
"8&	c #3E6418",
"9&	c #49731C",
"0&	c #4C751C",
"a&	c #2D4914",
"b&	c #222F11",
"c&	c #1C2A11",
"d&	c #2A4016",
"e&	c #3F5F1B",
"f&	c #395A1A",
"g&	c #1A2A0B",
"h&	c #070C0A",
"i&	c #2B4310",
"j&	c #568A1F",
"k&	c #467511",
"l&	c #4F7E16",
"m&	c #5F921E",
"n&	c #58881A",
"o&	c #56901F",
"p&	c #50811C",
"q&	c #63991D",
"r&	c #355615",
"s&	c #020308",
"t&	c #030A02",
"u&	c #4D6E22",
"v&	c #467813",
"w&	c #467411",
"x&	c #4C7515",
"y&	c #2B4114",
"z&	c #050105",
"A&	c #040502",
"B&	c #10160F",
"C&	c #3A4E13",
"D&	c #374C1A",
"E&	c #315513",
"F&	c #5D8A20",
"G&	c #2F530A",
"H&	c #43691D",
"I&	c #4B7C14",
"J&	c #3B6311",
"K&	c #3B5D13",
"L&	c #0F1606",
"M&	c #141B07",
"N&	c #050906",
"O&	c #030102",
"P&	c #14190E",
"Q&	c #20320E",
"R&	c #203210",
"S&	c #17240D",
"T&	c #293818",
"U&	c #020201",
"V&	c #020102",
"W&	c #060303",
"X&	c #05050B",
"Y&	c #213414",
"Z&	c #4F7A16",
"`&	c #38590F",
" *	c #3B5617",
".*	c #385B0E",
"+*	c #50831A",
"@*	c #5D8F24",
"#*	c #243512",
"$*	c #040208",
"%*	c #03010A",
"&*	c #030302",
"**	c #13250B",
"=*	c #538121",
"-*	c #253D10",
";*	c #223513",
">*	c #4C7213",
",*	c #4E801D",
"'*	c #436D1C",
")*	c #06070B",
"!*	c #050301",
"~*	c #000102",
"{*	c #030001",
"]*	c #1B2F0D",
"^*	c #507E1C",
"/*	c #18270C",
"(*	c #040707",
"_*	c #24350A",
":*	c #42631A",
"<*	c #435F20",
"[*	c #060602",
"}*	c #060404",
"|*	c #000204",
"1*	c #060302",
"2*	c #293E14",
"3*	c #497815",
"4*	c #0D150A",
"5*	c #030003",
"6*	c #030009",
"7*	c #070308",
"8*	c #030206",
"9*	c #020301",
"0*	c #304A10",
"a*	c #5C8D21",
"b*	c #0A1106",
"c*	c #395A16",
"d*	c #69A423",
"e*	c #091102",
"f*	c #060209",
"g*	c #294412",
"h*	c #5F9322",
"i*	c #0A1104",
"j*	c #050404",
"k*	c #141F0F",
"l*	c #679E23",
"m*	c #0B1505",
"n*	c #000004",
"o*	c #0C1307",
"p*	c #63951C",
"q*	c #152109",
"r*	c #010006",
"s*	c #020508",
"t*	c #4C711C",
"u*	c #1F290F",
"v*	c #131A0A",
"w*	c #080B05",
". . . . . . . . . . . . . . . + @ # $ % & * = - . . . . . . . . . . . . . . . . ",
". . . . . . . . . . . . . . . + = ; > , ' ) ! ~ . . . . . . . . . . . . . . . . ",
". . . . . . . . . . . . . . . . { ] ^ / ( _ : < [ } | . . . . . . . . . . . . . ",
". . . . . . . . . . . . . . . + 1 2 3 4 5 6 7 8 9 0 a . . . . . . . . . . . . . ",
". . . . . . . . . . . . . . . + b c d e f g h i j k l . . . . . . . . . . . . . ",
". . . . . . . . . . . . m n o p q r s t u v w x y z A B C D E . . . . . . . . . ",
". . . . . . . . . . . . F G H I J K L M N O P Q R S T U V W X . . . . . . . . . ",
". . . . . . . . . . . . Y Z `  ...+.@.#.$.%.&.*.=.-.;.>.,.'.E . . . . . . . . . ",
". + ).~ | | - m . . . . !.~.{.].^./.(._.:.<.[.}.|.1.2.3.4.5.6.. . . . . . . . . ",
". 7.8.9.0.a.b.9.- . . . 9.c.d.e.f.g.h.i.j.k.l.m.n.o.p.q.r.s.9.. . . . . . . . . ",
". [ t.u.v.w.x.y.z.. . . A.B.C.D.E.F.G.H.I.J.K.L.M.N.O.P.Q.R.0.. . . . . . . . . ",
". E = S.T.U.V.F [ . . . W.X.Y.Z.`. +.+++@+#+$+%+&+*+=+-+;+>+,+. B . . . . . . . ",
". '+)+!+~+{+]+^+Y . /+/+(+_+:+<+[+}+|+1+2+3+4+5+6+7+8+9+0+a+!.u.] C m . . . . . ",
". b+x.c+d+e+f+g+h+i+. A.j+k+l+m+n+o+p+q+r+s+t+u+v+w+x+y+z+A+@ B+C+D+B . . . . . ",
". - E+F+G+H+I+J+K+L+M+[ N+O+P+Q+R+S+T+U+V+W+X+Y+Z+`+ @!+.@+@@@#@$@%@&@B - m . . ",
". | *@&@=@-@;@>@,@'@)@!@~@{@]@^@/@(@_@:@<@[@}@|@1@2@3@4@5@6@7@8@`.9@0@a@b@c@. . ",
". d@} e@f@g@h@i@j@k@l@m@U } n@o@a.p@W.q@r@s@t@u@v@w@x@y@z@A@B@C@D@E@F@G@C A.. . ",
". /+H@I@J@K@L@M@N@O@P@Q@R@S@n T@U@V@W@X@Y@Z@`@ #.#+#@###$#%#&#*#=#-#;#>#p@/+. . ",
". b+,#'#)#!#~#{#]#^#/#(#_#:#<#[#}#|#1#2#3#4#5#6#7#8#9#0#a#b#c#d#e#f#g#h#.@i#. . ",
". H@j#k#l#m#n#o#p#q#r#s#t#u#v#w#x#y#z#A#B#C#D#E#F#G#H#I#J#K#L#M#N#O#P#Q#R#S#. . ",
". T#W@U#V#W#X#Y#Z#`# $.$+$@$#$$$%$&$*$=$-$;$>$,$'$)$!$~${$]$^$/$($_$:$<$[$}$. . ",
". . . . . . . . |$1$2$3$4$5$6$7$8$9$0$a$b$c$d$e$f$g$h$i$j$k$l$m$n$o$p$6+q$r$. . ",
". . . . . . . . s$t$u$v$w$x$y$z$A$B$C$D$E$F$G$H$I$J$K$L$M$N$O$2.P$Q$R$S$T$~@. . ",
". . . . . . . . U$9 V$W$X$Y$Z$`$ %.%+%@%#%$%%%&%*%=%-%;%>%,%'%)%!%~%{%]%^%/%. . ",
". (%1 _%:%<%[%}%|%1%2%3%4%5%6%7%8%9%0%a%b%c%d%e%f%g%h%i%j%k%l%m%n%o%p%q%r%.@. . ",
". [ a+] s%t%O#u%v%w%x%y%z%A%B%C%D%E%F%G%H%I%J%K%L%M%N%O%P%Q%R%S%T%U%V%W%X%Y%. . ",
". z.s$Z%`% &.&+&@&#&$&%&&&*&=&-&;&>&,&'&)&!&~&{&]&^&/&(&_&:&<&[&}&|&1&2&U$} . . ",
". . . . . *@3&4&5&6&7&8&9&0&a&b&c&d&e&f&g&h&i&j&k&l&m&n&o&i$p&q&r&] m . B . . . ",
". . . . . /+B [ s&t&u&v&w&x&y&i+z&F A&B&C&D&E&F&G&H&I&J&K&y&L&M&N&O&+ . . . . . ",
". . . . . /+/+A.r$P&Q&R&S&T&'#S#U&A.V&W&X&Y&Z&`& *.*+*@*#*$*%*X.&*9.. . . . . . ",
". . . . . . . . . B . B m + . + . . . /+z&**=*-*;*>*,*'*)*!*.@. | . . . . . . . ",
". . . . . . . . . . . . . . . . . . . ~*{*]*^*/*(*_*:*<*[*}*).. . . . . . . . . ",
". . . . . . . . . . . . . . . . . . . |*1*2*3*4*5*6*|*{ 7*8*9*. . . . . . . . . ",
". . . . . . . . . . . . . . . . . . . /+= 0*a*b*+ + . . + m . . . . . . . . . . ",
". . . . . . . . . . . . . . . . . . . | A.c*d*e*. . . . . . . . . . . . . . . . ",
". . . . . . . . . . . . . . . . . . . - f*g*h*i*. . . . . . . . . . . . . . . . ",
". . . . . . . . . . . . . . . . . . . m j*k*l*m*[ n*9.. . . . . . . . . . . . . ",
". . . . . . . . . . . . . . . . . . . . V&o*p*q*[ n*9.. . . . . . . . . . . . . ",
". . . . . . . . . . . . . . . . . . . 6.r*s*t*u*S#n*9.. . . . . . . . . . . . . ",
". . . . . . . . . . . . . . . . . . . /+E [ v*w*B B . . . . . . . . . . . . . . "};
