/* XPM */
static char * signalgenmodule_xpm[] = {
"40 40 282 2",
"  	c None",
". 	c #FEFDFE",
"+ 	c #EFEAEC",
"@ 	c #FCFBFC",
"# 	c #827A7C",
"$ 	c #C9C2C5",
"% 	c #9F9799",
"& 	c #B0A9AB",
"* 	c #C1BABC",
"= 	c #B1A9AC",
"- 	c #F5F2F4",
"; 	c #DCD7D9",
"> 	c #FEFCFD",
", 	c #8A8083",
"' 	c #231C1D",
") 	c #F3EFF1",
"! 	c #231E1F",
"~ 	c #030101",
"{ 	c #CFC9CB",
"] 	c #C5BEC1",
"^ 	c #010000",
"/ 	c #9F989A",
"( 	c #979092",
"_ 	c #191112",
": 	c #9E9799",
"< 	c #585153",
"[ 	c #807579",
"} 	c #060203",
"| 	c #F3F0F2",
"1 	c #1A1515",
"2 	c #8A8386",
"3 	c #2F2829",
"4 	c #B7AFB2",
"5 	c #020101",
"6 	c #8C8588",
"7 	c #474042",
"8 	c #766E70",
"9 	c #040202",
"0 	c #9A9396",
"a 	c #FDFCFD",
"b 	c #3F383A",
"c 	c #5F5255",
"d 	c #90878A",
"e 	c #71696B",
"f 	c #625B5D",
"g 	c #F4F0F3",
"h 	c #120D0D",
"i 	c #998E91",
"j 	c #91888A",
"k 	c #8C8688",
"l 	c #D5CFD1",
"m 	c #1A1415",
"n 	c #D3CBCF",
"o 	c #A8A1A4",
"p 	c #363032",
"q 	c #DFD9DC",
"r 	c #514A4C",
"s 	c #FEFCFE",
"t 	c #5D5658",
"u 	c #373132",
"v 	c #181314",
"w 	c #F8F4F7",
"x 	c #FBF9FA",
"y 	c #81777A",
"z 	c #605759",
"A 	c #F9F6F8",
"B 	c #E7E2E5",
"C 	c #EEEAEC",
"D 	c #FCFAFB",
"E 	c #FDFBFD",
"F 	c #191415",
"G 	c #E0DBDE",
"H 	c #C4BDBF",
"I 	c #877E81",
"J 	c #1C1517",
"K 	c #130E0F",
"L 	c #2D2527",
"M 	c #312A2C",
"N 	c #C0BABC",
"O 	c #54494C",
"P 	c #161011",
"Q 	c #1D1617",
"R 	c #B2AAAD",
"S 	c #FBF9FB",
"T 	c #92888B",
"U 	c #2F292A",
"V 	c #6A6163",
"W 	c #F6F3F5",
"X 	c #D4CED0",
"Y 	c #7B7476",
"Z 	c #E1DCDE",
"` 	c #8D8688",
" .	c #10090A",
"..	c #867F81",
"+.	c #EDE9EB",
"@.	c #272021",
"#.	c #AAA1A4",
"$.	c #41393B",
"%.	c #B5ABAF",
"&.	c #352D2F",
"*.	c #C0B9BC",
"=.	c #020000",
"-.	c #2C2324",
";.	c #786F72",
">.	c #0B0707",
",.	c #8F8588",
"'.	c #83797D",
").	c #070404",
"!.	c #8C8084",
"~.	c #0A0606",
"{.	c #A8A1A3",
"].	c #968F91",
"^.	c #6D6063",
"/.	c #453D3F",
"(.	c #FBFAFB",
"_.	c #A0999B",
":.	c #040101",
"<.	c #D8D2D4",
"[.	c #433A3C",
"}.	c #463B3D",
"|.	c #E8E4E6",
"1.	c #857B7E",
"2.	c #383032",
"3.	c #71686B",
"4.	c #130B0B",
"5.	c #151112",
"6.	c #F4EEF1",
"7.	c #0E0A0A",
"8.	c #82797C",
"9.	c #E6E2E5",
"0.	c #B8B0B3",
"a.	c #6A6264",
"b.	c #C7BFC2",
"c.	c #7D7376",
"d.	c #938589",
"e.	c #070303",
"f.	c #D7CFD2",
"g.	c #E6E1E3",
"h.	c #473F41",
"i.	c #BEB5B8",
"j.	c #372E30",
"k.	c #CAC1C5",
"l.	c #2B2224",
"m.	c #898082",
"n.	c #5F5558",
"o.	c #554C4E",
"p.	c #847D7F",
"q.	c #756C6F",
"r.	c #403A3B",
"s.	c #827C7E",
"t.	c #4F4345",
"u.	c #F6F1F4",
"v.	c #140E0F",
"w.	c #2E2527",
"x.	c #150E10",
"y.	c #221A1C",
"z.	c #32292B",
"A.	c #241B1D",
"B.	c #0B0708",
"C.	c #201A1C",
"D.	c #40393B",
"E.	c #251E1F",
"F.	c #20191A",
"G.	c #3F3739",
"H.	c #050202",
"I.	c #342A2C",
"J.	c #100A0B",
"K.	c #362C2E",
"L.	c #0D0809",
"M.	c #291F21",
"N.	c #0A0506",
"O.	c #060202",
"P.	c #090304",
"Q.	c #120D0E",
"R.	c #40383A",
"S.	c #F9F7F9",
"T.	c #898184",
"U.	c #090606",
"V.	c #E5DFE2",
"W.	c #695F61",
"X.	c #D8D1D4",
"Y.	c #CEC8CB",
"Z.	c #9E9598",
"`.	c #706769",
" +	c #080505",
".+	c #C8C0C3",
"++	c #E4DFE1",
"@+	c #665E60",
"#+	c #1A1516",
"$+	c #EEE9EB",
"%+	c #41383A",
"&+	c #E6E0E3",
"*+	c #5F5557",
"=+	c #DDD4D8",
"-+	c #1C1718",
";+	c #F0ECEE",
">+	c #AAA2A5",
",+	c #0F0A0B",
"'+	c #F9F5F8",
")+	c #766B6E",
"!+	c #FBF8FA",
"~+	c #A9A1A3",
"{+	c #9F979A",
"]+	c #B6AFB2",
"^+	c #252021",
"/+	c #FAF7F9",
"(+	c #B4ADAF",
"_+	c #1B1617",
":+	c #F0EBEE",
"<+	c #E8E3E6",
"[+	c #62575A",
"}+	c #BBB1B5",
"|+	c #181213",
"1+	c #E4DEE1",
"2+	c #D8D3D5",
"3+	c #110B0C",
"4+	c #44393C",
"5+	c #8E8689",
"6+	c #BEB7B9",
"7+	c #7B7376",
"8+	c #463F40",
"9+	c #EBE6E8",
"0+	c #0D0808",
"a+	c #312A2B",
"b+	c #302627",
"c+	c #675E60",
"d+	c #140F10",
"e+	c #D0C7CB",
"f+	c #4D4244",
"g+	c #FCFAFC",
"h+	c #DFDADC",
"i+	c #3E3739",
"j+	c #746C6E",
"k+	c #FDFBFC",
"l+	c #383132",
"m+	c #9C9497",
"n+	c #2E292A",
"o+	c #151011",
"p+	c #E2DDDF",
"q+	c #272123",
"r+	c #B7AEB1",
"s+	c #776D6F",
"t+	c #D4CDD1",
"u+	c #1C1516",
"v+	c #D0C9CC",
"w+	c #7A7174",
"x+	c #645A5D",
"y+	c #3B3133",
"z+	c #C4BABE",
"A+	c #8E8587",
"B+	c #564E50",
"C+	c #7A7073",
"D+	c #776C6F",
"E+	c #90888A",
"F+	c #ACA2A5",
"G+	c #F7F4F6",
"H+	c #1E1517",
"I+	c #342C2D",
"J+	c #F6F2F5",
"K+	c #ABA2A5",
"L+	c #231B1C",
"M+	c #675F61",
"N+	c #4A3C40",
"O+	c #585052",
"P+	c #C9C3C5",
"Q+	c #9D9799",
"R+	c #ADA5A8",
"S+	c #F1EDF0",
"T+	c #080404",
"U+	c #615A5C",
"V+	c #0F0A0A",
"W+	c #D3CBCE",
"X+	c #5C5557",
"Y+	c #2A2325",
"Z+	c #756B6E",
"`+	c #DAD4D7",
" @	c #362D2F",
".@	c #241E1F",
"+@	c #3B3234",
"@@	c #E8E3E5",
"#@	c #C6BFC2",
"$@	c #F8F5F7",
". . + @ . . . . . . . . . . . . . . . . . . . . . . . . . . . . . . . . . . . . ",
". . # $ . . . . . . . . . . . . . . . . . . . . . . . . . . . . . . . . . . . . ",
". . % & . . . . . . . . . . . . . . . . . . . . . . . . . . . . . . . . . . . . ",
". . * = . . . . . . . . . . . . . . . . . . . . . . . . . . . . . . . . . . . . ",
". . * = . . . . . . . . . . . . . . . . . . . . . . . . . . . . . . . . . . . . ",
". . * = . . . . . . . . . . . . . . . . . . . . . . . . . . . . . . . . . . . . ",
". . * = . . . . . . . . . . . . . . . . . . . . . . . . . . . . . . . . . . . . ",
". . * = . . . . . . . . . . . . . . . . . . . . . . . . . . . . . . . . . . . . ",
". . * = . . . . . . . . . . . . . . . . . . . - ; . . . . . . . . . . . . . . . ",
". . * = . . . . . . . . . . . . . . . . . . > , ' ) . . . . . . . . . . . . . . ",
". . * = . . . . . . . . . . . . . . . . . . - ! ~ { . . . . . . . . . . . . . . ",
". . * = . . . . . . . . . . . . . . . . . . ] ~ ^ / . . . . . . . . . . . . . . ",
". . * = . . . . . . . . . . . . . . . . . . ( _ ~ : . . . . . . . . . . . . . . ",
". . * = . . . . . . . . . . . . . . . . . . < [ } : . . . . . . . . . . . . . . ",
". . * = . . . . . . . . . . . . . . . . . | 1 2 3 : . . . . . . . . . . . . . . ",
". . * = . . . . . . . . . . . . . . . . . 4 5 6 7 : . . . . . . . . . . . . . . ",
". . * = . . . . . . . . . . . . . . . . . 8 9 6 7 0 . . . . . . . . . . . . . . ",
". . * = . . . . . . . . . . . . . . . . a b c d e f . . . . . . . . . . . . . . ",
". . * = . . . . . . . . . . . . . . . . g h i j k < . . . . . . . . . . . . . . ",
". . * = . . . . . . . . . . . . . . . . l m n j k < . . . . . . . . . . . . . . ",
". . * = . . . . . . . . . . . . . . . . o p q j k r s . . . . . . . . . s a . . ",
". . * = . . . . . . . . . . . . . . . > t u q j k v w . . . . . . . . x y z g A ",
". . * & B C . . . a D E . . . . . . . C F f G j k 9 H . . . . . . . . I J K L M ",
". . N O P Q R . S T U V W . . . . . . X ~ Y Z j `  .... . . . . . . +.@.#.$.%.&.",
". . *.=.-.;.>.,.'.).!.~.{.. . . . . . ].^ Y Z j j ^./.(.. . . . . . _.:.<.[.B }.",
"|.|.1.^ 2.3.4.=.=.5.6.7.8.|.|.|.|.9.0.[.^ a.b.c.c.d.e.f.|.|.|.|.|.g.h.~ i.j.k.l.",
"m.m.n.o.p.q.r.r s.t.u.v.~ w.x.y.z.A.B.^ C.D.E.F.D.G.B.H.I.J.K.L.M.N.~ O.P.Q.R.b ",
". . * = . . a a . S.. T.U.V.W.X.Y.Z.`. +.+a ++q a @ @+#+$+%+&+*+=+-+8.;+;+| E a ",
". . * = . . . . . . . >+,+'+)+!+~+{+]+^+/+. . . . . (+_+:+[.<+[+}+|+1+. . . . . ",
". . * = . . . . . . . 2+3+u.4+!+5+6+7+8+E . . . . . 9+0+X [.g.a+b+c+. . . . . . ",
". . * = . . . . . . . g.d+e+f+g+j h+i+j+. . . . . . k+l+m+[.&+n+o+p+. . . . . . ",
". . * = . . . . . . . x q+r+s+. j t+u+v+. . . . . . . w+x+y+z+o+A+s . . . . . . ",
". . * = . . . . . . . a B+C+D+. E+F+F.G+. . . . . . . &+F.=.H+I+J+. . . . . . . ",
". . * = . . . . . . . . K+L+M+. x+N+O+> . . . . . . . . P+Q+R+/+. . . . . . . . ",
". . * = . . . . . . . . S+T+U+. 7 V+W+. . . . . . . . . . . . . . . . . . . . . ",
". . * = . . . . . . . . @ h.X+W Y+Z+a . . . . . . . . . . . . . . . . . . . . . ",
". . * = . . . . . . . . . `+ @.@+@@@. . . . . . . . . . . . . . . . . . . . . . ",
". . * = . . . . . . . . . . ) #@$@. . . . . . . . . . . . . . . . . . . . . . . ",
". . * = . . . . . . . . . . . . . . . . . . . . . . . . . . . . . . . . . . . . ",
". . * = . . . . . . . . . . . . . . . . . . . . . . . . . . . . . . . . . . . . "};
