/* XPM */
static char * numbermodule_icon_xpm[] = {
"40 40 816 2",
"  	c None",
". 	c #000000",
"+ 	c #5E1A1A",
"@ 	c #E84E4E",
"# 	c #E75859",
"$ 	c #E96666",
"% 	c #EA6160",
"& 	c #EE5150",
"* 	c #601A1A",
"= 	c #E04549",
"- 	c #EA968F",
"; 	c #EBC6C0",
"> 	c #F7D4D5",
", 	c #F4DCDA",
"' 	c #F3EDE5",
") 	c #F4EAE1",
"! 	c #F5DFD8",
"~ 	c #F2D1CC",
"{ 	c #E9BFBB",
"] 	c #E8958E",
"^ 	c #E96465",
"/ 	c #F63F47",
"( 	c #E16F69",
"_ 	c #FBC4BD",
": 	c #F9F6EB",
"< 	c #F3FCFA",
"[ 	c #FEF9FE",
"} 	c #F9FAFB",
"| 	c #FDFFFE",
"1 	c #FEFEFE",
"2 	c #FFFFFF",
"3 	c #FCFCFC",
"4 	c #F8FEF6",
"5 	c #F0F9EB",
"6 	c #E3DBCA",
"7 	c #E9ADA1",
"8 	c #ED666C",
"9 	c #BE3236",
"0 	c #1F0606",
"a 	c #ED8583",
"b 	c #F5E0DC",
"c 	c #F7FCF5",
"d 	c #EFFFFA",
"e 	c #F8FCFE",
"f 	c #FEFAFF",
"g 	c #FBFEFD",
"h 	c #FEFFFE",
"i 	c #FDFDFD",
"j 	c #FEF3FD",
"k 	c #FBF9FE",
"l 	c #F8FDFC",
"m 	c #F8FAFA",
"n 	c #F4ECEB",
"o 	c #EAC8BF",
"p 	c #EB7A78",
"q 	c #5F1A1A",
"r 	c #E77C74",
"s 	c #F9E7DE",
"t 	c #F6FCFF",
"u 	c #FAFBFD",
"v 	c #FAFAFD",
"w 	c #FCF6FD",
"x 	c #FEFBFF",
"y 	c #F8FFFD",
"z 	c #FDFEFE",
"A 	c #F5FFFE",
"B 	c #F4FCF9",
"C 	c #FBFAFC",
"D 	c #FFF8FB",
"E 	c #FEFBFB",
"F 	c #FDFCFD",
"G 	c #F3F0ED",
"H 	c #E5C5B2",
"I 	c #E47A69",
"J 	c #E96A67",
"K 	c #F5E4DB",
"L 	c #F2FDFD",
"M 	c #FBF9FF",
"N 	c #F7FAFC",
"O 	c #F5F2F5",
"P 	c #C5C2C3",
"Q 	c #E7E8E8",
"R 	c #FCFAFD",
"S 	c #FCFBFC",
"T 	c #FAFBFB",
"U 	c #EFF3F1",
"V 	c #F0F8F2",
"W 	c #FAFEF9",
"X 	c #F4FAF5",
"Y 	c #FEFDFE",
"Z 	c #F2F0E9",
"` 	c #E89E99",
" .	c #D73E3F",
"..	c #E96A6A",
"+.	c #F9D7CB",
"@.	c #F6FCF7",
"#.	c #F7F9FC",
"$.	c #FCFBFD",
"%.	c #F6F8F8",
"&.	c #B1B2B1",
"*.	c #272726",
"=.	c #C1C2C2",
"-.	c #FDFBFD",
";.	c #B1AFB0",
">.	c #6C6768",
",.	c #888586",
"'.	c #F6F6F5",
").	c #FDFDF8",
"!.	c #FFFEFD",
"~.	c #FCF9FD",
"{.	c #FFFCFF",
"].	c #F7F4F1",
"^.	c #E4B2A9",
"/.	c #E14647",
"(.	c #ECBBBB",
"_.	c #EDECE7",
":.	c #E8ECEE",
"<.	c #FDF6FB",
"[.	c #F7FAF6",
"}.	c #CECECE",
"|.	c #2D2D2D",
"1.	c #2F2F2F",
"2.	c #D3D3D3",
"3.	c #E3E3E3",
"4.	c #2A2A2A",
"5.	c #131313",
"6.	c #0F0F0F",
"7.	c #848484",
"8.	c #F6F6F6",
"9.	c #F9F9F9",
"0.	c #FFFAF9",
"a.	c #EFBBB2",
"b.	c #EA5F5A",
"c.	c #E06B61",
"d.	c #F3EAEA",
"e.	c #919999",
"f.	c #6E6E73",
"g.	c #E9E2E7",
"h.	c #F6FEF8",
"i.	c #939493",
"j.	c #191919",
"k.	c #696969",
"l.	c #F1F1F1",
"m.	c #D8D8D8",
"n.	c #272727",
"o.	c #0D0D0D",
"p.	c #121212",
"q.	c #373737",
"r.	c #DDDDDD",
"s.	c #FBFBFB",
"t.	c #F9FAFC",
"u.	c #EAF2EB",
"v.	c #ECAEA7",
"w.	c #E94749",
"x.	c #E64E49",
"y.	c #F4C6BA",
"z.	c #B6C0C0",
"A.	c #262E2F",
"B.	c #525155",
"C.	c #EDECED",
"D.	c #F7FAF7",
"E.	c #737473",
"F.	c #323232",
"G.	c #D4D4D4",
"H.	c #FAFAFA",
"I.	c #EAEAEA",
"J.	c #3E3E3E",
"K.	c #111111",
"L.	c #F0F8FB",
"M.	c #F3F7F8",
"N.	c #EEE8E4",
"O.	c #E7777A",
"P.	c #E4998B",
"Q.	c #F4F2EE",
"R.	c #636361",
"S.	c #181514",
"T.	c #999C99",
"U.	c #EFF4F1",
"V.	c #FCF9FA",
"W.	c #D7D6D7",
"X.	c #F2F2F2",
"Y.	c #F5F5F5",
"Z.	c #AFAFAF",
"`.	c #353535",
" +	c #202020",
".+	c #555555",
"++	c #E2E2E2",
"@+	c #E9E9E9",
"#+	c #D3CDCC",
"$+	c #E4E1E3",
"%+	c #F1F6F7",
"&+	c #EDC3BD",
"*+	c #E55050",
"=+	c #A0272F",
"-+	c #EAD7CC",
";+	c #F5F6FA",
">+	c #2B2626",
",+	c #44403F",
"'+	c #D8DAD7",
")+	c #AEB1B0",
"!+	c #DDDADB",
"~+	c #F4F4F4",
"{+	c #F7F7F7",
"]+	c #ECECEC",
"^+	c #C5C5C5",
"/+	c #AAAAAA",
"(+	c #DFDFDF",
"_+	c #8B8B8B",
":+	c #433135",
"<+	c #4C5A52",
"[+	c #C7C6C4",
"}+	c #F2F2E7",
"|+	c #E38B80",
"1+	c #F6777A",
"2+	c #ECF5EC",
"3+	c #FBFBFD",
"4+	c #999999",
"5+	c #C6C6C6",
"6+	c #7C7C7C",
"7+	c #C8C8C8",
"8+	c #F8F8F8",
"9+	c #727272",
"0+	c #7E7E7E",
"a+	c #D6D6D6",
"b+	c #F3F3F3",
"c+	c #190C13",
"d+	c #0A1B12",
"e+	c #504645",
"f+	c #ECF5EF",
"g+	c #E8B9B0",
"h+	c #5E181A",
"i+	c #EEBDB1",
"j+	c #EDFCF5",
"k+	c #F7F9F9",
"l+	c #262626",
"m+	c #3F3F3F",
"n+	c #DEDEDE",
"o+	c #737373",
"p+	c #0E0E0E",
"q+	c #5F5F5F",
"r+	c #E5E5E5",
"s+	c #292929",
"t+	c #141114",
"u+	c #0C1910",
"v+	c #271B1D",
"w+	c #D6DFE3",
"x+	c #EADEDB",
"y+	c #E75A60",
"z+	c #F4595C",
"A+	c #EDE9DA",
"B+	c #FBFAFE",
"C+	c #FCF5F6",
"D+	c #828282",
"E+	c #F0F0F0",
"F+	c #585858",
"G+	c #1C1C1C",
"H+	c #AEAEAE",
"I+	c #676767",
"J+	c #121517",
"K+	c #080E07",
"L+	c #251D1C",
"M+	c #D5DCE0",
"N+	c #ECF3F3",
"O+	c #EC8F8F",
"P+	c #E79C8C",
"Q+	c #F7F7F1",
"R+	c #FCF7FE",
"S+	c #FAF9F4",
"T+	c #767676",
"U+	c #515151",
"V+	c #EFEFEF",
"W+	c #6E6E6E",
"X+	c #161616",
"Y+	c #9E9E9E",
"Z+	c #CCCCCC",
"`+	c #56595C",
" @	c #272622",
".@	c #595A54",
"+@	c #EBEFF2",
"@@	c #F0F0F2",
"#@	c #ECADA8",
"$@	c #DE3D3F",
"%@	c #D8403F",
"&@	c #E6D2BE",
"*@	c #F6FAF9",
"=@	c #F6F1F6",
"-@	c #818181",
";@	c #909090",
">@	c #383838",
",@	c #0C0C0C",
"'@	c #2E2E2E",
")@	c #B9B9B9",
"!@	c #ECEDF0",
"~@	c #D2D1CF",
"{@	c #E6EAE5",
"]@	c #EDEEEF",
"^@	c #F5F1F2",
"/@	c #E3C9BF",
"(@	c #D84949",
"_@	c #E55A56",
":@	c #F4E7DE",
"<@	c #F2F4F6",
"[@	c #DCD8D8",
"}@	c #7E7C7C",
"|@	c #313131",
"1@	c #181818",
"2@	c #EDEDED",
"3@	c #CBCBCB",
"4@	c #9C9C9C",
"5@	c #C0C0C0",
"6@	c #444444",
"7@	c #949494",
"8@	c #DDDACF",
"9@	c #DA5153",
"0@	c #EA7874",
"a@	c #F9F0EA",
"b@	c #F2F5F7",
"c@	c #5F5E5C",
"d@	c #1A1718",
"e@	c #A2A2A2",
"f@	c #1F1F1F",
"g@	c #5D5D5D",
"h@	c #858585",
"i@	c #DADADA",
"j@	c #868686",
"k@	c #242424",
"l@	c #C4C4C4",
"m@	c #EEEEEE",
"n@	c #E0DDD3",
"o@	c #D95053",
"p@	c #F1A6A3",
"q@	c #F5F3F0",
"r@	c #A7A8AA",
"s@	c #151914",
"t@	c #464244",
"u@	c #BABABA",
"v@	c #B7B7B7",
"w@	c #232323",
"x@	c #C9C9C9",
"y@	c #7A7A7A",
"z@	c #DCD9CE",
"A@	c #D44B4E",
"B@	c #E9BAB6",
"C@	c #EDF0F0",
"D@	c #6E6D70",
"E@	c #161E17",
"F@	c #9E989B",
"G@	c #EBEBEB",
"H@	c #959595",
"I@	c #151515",
"J@	c #A6A6A6",
"K@	c #141414",
"L@	c #747474",
"M@	c #DBD8CD",
"N@	c #EACCC5",
"O@	c #EBEFEE",
"P@	c #7A767A",
"Q@	c #6D756F",
"R@	c #EAE6EB",
"S@	c #F5F5F7",
"T@	c #EBEAEE",
"U@	c #EFEEF2",
"V@	c #EBEAED",
"W@	c #E9E9EB",
"X@	c #E6E6E7",
"Y@	c #E9E9EA",
"Z@	c #A1A1A1",
"`@	c #101010",
" #	c #5A5A5A",
".#	c #E4E4E4",
"+#	c #7B7B7B",
"@#	c #313235",
"##	c #B9B4B4",
"$#	c #EEF6F0",
"%#	c #F3ECEE",
"&#	c #D3CEBD",
"*#	c #DB484B",
"=#	c #E0C2B8",
"-#	c #EEF5F4",
";#	c #DAD7DC",
">#	c #E5EBE7",
",#	c #F2F1F5",
"'#	c #F3F4EF",
")#	c #F1F2EF",
"!#	c #ECECEE",
"~#	c #E6E6EA",
"{#	c #DEDDE2",
"]#	c #DDDCE1",
"^#	c #DEDEE1",
"/#	c #E1E1E3",
"(#	c #E4E4E6",
"_#	c #7D7D7D",
":#	c #E1E1E1",
"<#	c #C3C3C3",
"[#	c #C6CAD0",
"}#	c #F6ECEE",
"|#	c #E8F4E9",
"1#	c #EFEEF1",
"2#	c #F2E7EB",
"3#	c #C9B6A0",
"4#	c #7A2023",
"5#	c #E2B2AF",
"6#	c #EBF3F4",
"7#	c #F5F4FB",
"8#	c #ECF0ED",
"9#	c #F4F3F3",
"0#	c #F1F2EE",
"a#	c #F3F3F1",
"b#	c #ECECEA",
"c#	c #DEDEDD",
"d#	c #D2D2D2",
"e#	c #D6D6D7",
"f#	c #D9D9DB",
"g#	c #DBDBDD",
"h#	c #DBDBDC",
"i#	c #787878",
"j#	c #525252",
"k#	c #888888",
"l#	c #EEF2F5",
"m#	c #F3E9EA",
"n#	c #F2EFEF",
"o#	c #F3F2FB",
"p#	c #E7E8E7",
"q#	c #C79686",
"r#	c #E6938F",
"s#	c #E9ECE8",
"t#	c #F2F2F7",
"u#	c #ECEDEB",
"v#	c #EDECF2",
"w#	c #E4E3E8",
"x#	c #D2D1D6",
"y#	c #C4C3C7",
"z#	c #C1C0C4",
"A#	c #C4C5C0",
"B#	c #C6C7C4",
"C#	c #C9C9C8",
"D#	c #CCCCCD",
"E#	c #CDCDD0",
"F#	c #D2D2D3",
"G#	c #DBDBDB",
"H#	c #8A8A8A",
"I#	c #E9EAEA",
"J#	c #F2F0EF",
"K#	c #F5ECF2",
"L#	c #EBEDF6",
"M#	c #DAD2CA",
"N#	c #CD6A60",
"O#	c #DD6559",
"P#	c #E0D8CB",
"Q#	c #EEECED",
"R#	c #F0EBE9",
"S#	c #E8ECE8",
"T#	c #CDCEC9",
"U#	c #BEBEB9",
"V#	c #AEAFA8",
"W#	c #ACAEA4",
"X#	c #B1B3A7",
"Y#	c #B2B3AA",
"Z#	c #B5B6B0",
"`#	c #BCBCB9",
" $	c #C0C0C1",
".$	c #C2C1C6",
"+$	c #CFCFCF",
"@$	c #BEBEBE",
"#$	c #3B3B3B",
"$$	c #E0DCDD",
"%$	c #EEF6F1",
"&$	c #F0EDF2",
"*$	c #E9F1F1",
"=$	c #CCAC9B",
"-$	c #D6443A",
";$	c #E14736",
">$	c #BBA687",
",$	c #C8C5B0",
"'$	c #BDBEA9",
")$	c #A9B09C",
"!$	c #ABB287",
"~$	c #AAB288",
"{$	c #A9B186",
"]$	c #A8B181",
"^$	c #A6AF7C",
"/$	c #9EA483",
"($	c #A0A48A",
"_$	c #A3A795",
":$	c #A6A89E",
"<$	c #A8A9A5",
"[$	c #B2B1B5",
"}$	c #B4B4B8",
"|$	c #CDCDCE",
"1$	c #E0E0DF",
"2$	c #EFEFED",
"3$	c #F2F2F1",
"4$	c #343434",
"5$	c #141412",
"6$	c #080908",
"7$	c #383937",
"8$	c #D0C9C8",
"9$	c #E8F3EF",
"0$	c #E8EBF0",
"a$	c #CBD9CE",
"b$	c #BC8066",
"c$	c #D99A6F",
"d$	c #B9C987",
"e$	c #B7C085",
"f$	c #B6C188",
"g$	c #B6C479",
"h$	c #B9C67E",
"i$	c #B9C781",
"j$	c #B1BF76",
"k$	c #B7C678",
"l$	c #B4C276",
"m$	c #B1BD78",
"n$	c #ABB67C",
"o$	c #A7B081",
"p$	c #A5AC86",
"q$	c #A2A594",
"r$	c #A2A498",
"s$	c #A8A9A1",
"t$	c #BDBEBA",
"u$	c #EEEEED",
"v$	c #EDEDEA",
"w$	c #EFF0EC",
"x$	c #F3F4F0",
"y$	c #F0F1ED",
"z$	c #EBEBEC",
"A$	c #808080",
"B$	c #1A1B19",
"C$	c #131412",
"D$	c #60605E",
"E$	c #E4E3E2",
"F$	c #E3E9EB",
"G$	c #E0DFE3",
"H$	c #BCAB9C",
"I$	c #662A23",
"J$	c #E55745",
"K$	c #B4CC81",
"L$	c #C3C984",
"M$	c #B9CC81",
"N$	c #B9C681",
"O$	c #BFCD82",
"P$	c #B7C577",
"Q$	c #B3C077",
"R$	c #B0BC79",
"S$	c #B2C06E",
"T$	c #B2C170",
"U$	c #B3C173",
"V$	c #B1BF75",
"W$	c #AFBC75",
"X$	c #ABB770",
"Y$	c #A5AF71",
"Z$	c #959D73",
"`$	c #959A82",
" %	c #ACAEA6",
".%	c #D3D3CF",
"+%	c #E5E5E1",
"@%	c #ECEDE8",
"#%	c #EDEEE9",
"$%	c #F2F3EF",
"%%	c #EBECEA",
"&%	c #B6B6B7",
"*%	c #9B9B9E",
"=%	c #ECECF4",
"-%	c #D4D9D7",
";%	c #B9A38F",
">%	c #C46E5D",
",%	c #4D1413",
"'%	c #C48C59",
")%	c #BED080",
"!%	c #BBC878",
"~%	c #B8C778",
"{%	c #B3C272",
"]%	c #B1BF74",
"^%	c #AEBB73",
"/%	c #ADBA73",
"(%	c #AEBB74",
"_%	c #AFBC74",
":%	c #AEBB72",
"<%	c #ACB970",
"[%	c #ABBA6E",
"}%	c #ADBB72",
"|%	c #ADB978",
"1%	c #A6B177",
"2%	c #9BA572",
"3%	c #9DA190",
"4%	c #BBBCB6",
"5%	c #DBDBDA",
"6%	c #E8E7EA",
"7%	c #EBEAF0",
"8%	c #E9EAE6",
"9%	c #EAEAE7",
"0%	c #E8E8EA",
"a%	c #E1E2DE",
"b%	c #D3D2D0",
"c%	c #999685",
"d%	c #71312A",
"e%	c #59241F",
"f%	c #B5362B",
"g%	c #BAB370",
"h%	c #BAC479",
"i%	c #AEBB6E",
"j%	c #8D985E",
"k%	c #747D54",
"l%	c #9CA575",
"m%	c #A9B574",
"n%	c #ACB976",
"o%	c #ACB875",
"p%	c #ACB975",
"q%	c #ADBA75",
"r%	c #ACBB76",
"s%	c #A9B872",
"t%	c #A9B972",
"u%	c #AEBE74",
"v%	c #ADBD72",
"w%	c #A6AE7F",
"x%	c #9A9F7D",
"y%	c #9CA08A",
"z%	c #AFB1A8",
"A%	c #C4C4C5",
"B%	c #D2D3CD",
"C%	c #D7D8D3",
"D%	c #D5D5D5",
"E%	c #BFC0B9",
"F%	c #B0B39F",
"G%	c #787B63",
"H%	c #2D1611",
"I%	c #3C100F",
"J%	c #C27E56",
"K%	c #B8A269",
"L%	c #A0AE6E",
"M%	c #424A29",
"N%	c #191B17",
"O%	c #21241A",
"P%	c #484F30",
"Q%	c #97A463",
"R%	c #A7B56B",
"S%	c #A2AF6B",
"T%	c #929D63",
"U%	c #99A36B",
"V%	c #A7B76F",
"W%	c #ABBB72",
"X%	c #A8B871",
"Y%	c #A9B874",
"Z%	c #B0BC75",
"`%	c #A5B074",
" &	c #939B70",
".&	c #949981",
"+&	c #949984",
"@&	c #9DA091",
"#&	c #979A8D",
"$&	c #9A9F87",
"%&	c #6D7356",
"&&	c #461A18",
"*&	c #702121",
"=&	c #1D0807",
"-&	c #5A1F17",
";&	c #A66E4A",
">&	c #A68552",
",&	c #A7BD75",
"'&	c #8B9861",
")&	c #54573B",
"!&	c #202117",
"~&	c #0B100E",
"{&	c #586135",
"]&	c #A0AE66",
"^&	c #7C874D",
"/&	c #2F341F",
"(&	c #303327",
"_&	c #4D552F",
":&	c #858F5B",
"<&	c #A7B46C",
"[&	c #ADBA71",
"}&	c #A9B875",
"|&	c #A8B969",
"1&	c #A8B86F",
"2&	c #A4B179",
"3&	c #9BA872",
"4&	c #9DAA76",
"5&	c #9EAA78",
"6&	c #A7B47A",
"7&	c #4E492E",
"8&	c #651E1E",
"9&	c #361212",
"0&	c #251910",
"a&	c #908F4A",
"b&	c #94AF4C",
"c&	c #98AE58",
"d&	c #95A45F",
"e&	c #919F61",
"f&	c #8B9B5C",
"g&	c #99A668",
"h&	c #A0AF64",
"i&	c #9FAC6B",
"j&	c #576039",
"k&	c #232912",
"l&	c #101217",
"m&	c #191E12",
"n&	c #7D8852",
"o&	c #A8B672",
"p&	c #7B884B",
"q&	c #424C25",
"r&	c #404A2B",
"s&	c #818B67",
"t&	c #9FAC76",
"u&	c #AFC072",
"v&	c #ACBC74",
"w&	c #A7B674",
"x&	c #503524",
"y&	c #722C28",
"z&	c #945434",
"A&	c #708A2B",
"B&	c #728A37",
"C&	c #7F9543",
"D&	c #869B43",
"E&	c #8B9E4A",
"F&	c #889C47",
"G&	c #94A752",
"H&	c #92A358",
"I&	c #808F55",
"J&	c #667154",
"K&	c #59653A",
"L&	c #90A159",
"M&	c #A1B26A",
"N&	c #7A8853",
"O&	c #252D15",
"P&	c #141914",
"Q&	c #1A201A",
"R&	c #3E4728",
"S&	c #A5B56B",
"T&	c #A4AD67",
"U&	c #8F3E35",
"V&	c #230909",
"W&	c #290B0A",
"X&	c #31180E",
"Y&	c #922F2E",
"Z&	c #8C402F",
"`&	c #546527",
" *	c #617525",
".*	c #697C33",
"+*	c #70852E",
"@*	c #748B29",
"#*	c #7D913F",
"$*	c #7C913F",
"%*	c #879D45",
"&*	c #8EA44B",
"**	c #8FA450",
"=*	c #99AD60",
"-*	c #89975F",
";*	c #5D6742",
">*	c #363E25",
",*	c #454F29",
"'*	c #97A565",
")*	c #A7B76E",
"!*	c #6C7042",
"~*	c #852B2B",
"{*	c #1F0808",
"]*	c #010100",
"^*	c #090202",
"/*	c #250C0A",
"(*	c #2B190D",
"_*	c #2B1B0B",
":*	c #7D3D29",
"<*	c #864631",
"[*	c #3A4C10",
"}*	c #475D0D",
"|*	c #526720",
"1*	c #576E1B",
"2*	c #667D2A",
"3*	c #667D2B",
"4*	c #738A32",
"5*	c #78922C",
"6*	c #859B3A",
"7*	c #8A9D48",
"8*	c #8D9D55",
"9*	c #91A25D",
"0*	c #92A25C",
"a*	c #7B5F3F",
"b*	c #080202",
"c*	c #040402",
"d*	c #110B0C",
"e*	c #180F08",
"f*	c #2E1212",
"g*	c #2F1413",
"h*	c #0D160C",
"i*	c #5F2D24",
"j*	c #712F27",
"k*	c #4B1513",
"l*	c #32370E",
"m*	c #384410",
"n*	c #4B1C13",
"o*	c #4C4818",
"p*	c #58701B",
"q*	c #637B22",
"r*	c #728B32",
"s*	c #617330",
"t*	c #2F140E",
"u*	c #531A1A",
"v*	c #040506",
"w*	c #141111",
"x*	c #131210",
"y*	c #0F100B",
"z*	c #21150D",
"A*	c #27160E",
"B*	c #25110E",
"C*	c #0F130D",
"D*	c #0F0C06",
"E*	c #431211",
"F*	c #190706",
"G*	c #040503",
"H*	c #101412",
"I*	c #0F0F0D",
"J*	c #0F0E11",
"K*	c #100F14",
"L*	c #100E15",
"M*	c #111017",
"N*	c #121117",
"O*	c #020202",
". . . . . . . . . . . . . . + @ # $ % & * . . . . . . . . . . . . . . . . . . . ",
". . . . . . . . . . . . = - ; > , ' ) ! ~ { ] ^ / . . . . . . . . . . . . . . . ",
". . . . . . . . . . . ( _ : < [ } | 1 1 2 3 4 5 6 7 8 9 0 . . . . . . . . . . . ",
". . . . . . . . . . a b c d e f g h i 3 1 2 j k l m n o p q . . . . . . . . . . ",
". . . . . . . . . r s t u v w x y z 2 2 2 2 A B C D E F G H I . . . . . . . . . ",
". . . . . . . . J K L M N O P Q R 3 1 1 i 1 S T U V W X Y N Z `  .. . . . . . . ",
". . . . . . . ..+.@.#.$.%.&.*.=.-.Y 2 1 i 2 T ;.>.,.'.).!.~.{.].^./.. . . . . . ",
". . . . . . . (._.:.<.[.}.|.1.2.3 1 2 2 1 2 3.4.5.6.7.8.1 i 9.3 0.a.b.. . . . . ",
". . . . . . c.d.e.f.g.h.i.j.k.l.3 1 2 1 i 1 m.n.o.p.q.r.s.1 1 s.t.u.v.w.. . . . ",
". . . . . x.y.z.A.B.C.D.E.F.G.H.H.i 2 1 3 i I.J.K.K.1.G.1 1 s.s.L.M.N.O.. . . . ",
". . . . . P.Q.R.S.T.U.V.W.G.H.X.i 1 2 1 s.3 Y.Z.`. +.+++2 1 1 @+#+$+%+&+*+. . . ",
". . . . =+-+;+>+,+'+)+!+Y.~+{+9.i s.1 i H.H.Y.]+^+/+(+i 3 9.i _+:+<+[+}+|+. . . ",
". . . . 1+2+3+4+5+6+1.7+8+9.8+3 i i s.3 3 G.9+0+a+b+8.i 3 1 8.F.c+d+e+f+g+h+. . ",
". . . . i+j+k+8+7+l+m+n+b+8.l.3 1 2 1 3 b+o+K.p+q+r+s.i i s.l.s+t+u+v+w+x+y+. . ",
". . . z+A+B+C+9.0+5.D+~+E+8.8+i i i s.X.{+F+p+K.G+H+i s.i 3 X.I+J+K+L+M+N+O+. . ",
". . . P+Q+R+S+Y.T+U+7+0+/+V+9.H.1 s.H.8+l.W+X+6.5.Y+H.i H.{+l.Z+`+ @.@+@@@#@$@. ",
". . %@&@*@=@X 9.m.++-@5.;@8+H.3 3 H.b+s.Y.5+>@,@'@)@3 8+9.8+3.++!@~@{@]@^@/@(@. ",
". . _@:@<@[@}@r+8+a+|@1@5+i 3 3 i s.H.Y.~+2@3@4@5@E+8+i 8.m.U+6@7@~+8+l.Y.8@9@. ",
". . 0@a@b@c@d@@+b+e@f@g@b+{+H.8+1 i b+~+Z.h@i@b+8.9.9.8+H.j@6.K.k@l@b+m@8.n@o@. ",
". . p@q@r@s@t@m@~+u@k.i@X.~+V+Y.s.8+8.v@w@K.>@x@8+b+8+{+Y.y@p+p.p+y@E+m@V+z@A@. ",
". . B@C@D@E@F@X.X.I.G@V+2@b+I.E+V+H.8+H@6.K.I@6+V+s.~+8.~+J@p+K@p+L@m@X.l.M@A@. ",
". . N@O@P@Q@R@Y.X.S@T@U@V@W@X@Y@@+l.Y.Z@X+`@`@ #G@9.b+9.]+.#+#w@@###$#X.%#&#*#. ",
". . =#-#;#>#,#'#)#E+!#~#{#]#^#/#(#]+E+}.U+p.I@_#V+8+b+~+m@(+:#<#[#}#|#1#2#3#4#. ",
". . 5#6#7#8#9#0#a#b#c#G.d#2.e#f#g#h#E+E+G.i#7.G.8.l.{+]+7@j#k#3.l#m#n#o#p#q#. . ",
". . r#s#t#q@u#v#w#x#y#z#A#B#C#D#E#F#G#E+E+]+@+X.{+Y.b+x@w@6.5.H#I#J#K#L#M#N#. . ",
". . O#P#Q#R#S#T#U#V#W#X#Y#Z#`# $.$5++$3.X.E+2@X.m@E+X.@$`@`@`@#$$$%$&$*$=$-$. . ",
". . ;$>$,$'$)$!$~${$]$^$/$($_$:$<$[$}$|$1$2$3$m@X.l.2@h#4$5$6$7$8$9$0$a$b$. . . ",
". . . c$d$e$f$g$h$i$j$k$l$m$n$o$p$q$r$s$t$++u$v$w$x$y$z$A$B$C$D$E$F$G$H$I$. . . ",
". . . J$K$L$M$N$O$P$Q$R$S$T$U$V$W$X$Y$Z$`$ %.%+%@%@%#%$%%%&%*%/#=%-%;%>%,%. . . ",
". . . . '%)%!%~%{%k$]%^%/%(%_%:%<%[%}%|%1%2%3%4%5%6%7%8%9%0%Y@a%b%c%d%e%. . . . ",
". . . . f%g%h%i%j%k%l%m%n%o%p%p%q%r%s%t%u%v%w%x%y%z%A%B%C%D%E%F%G%H%I%. . . . . ",
". . . . . J%K%L%M%N%O%P%Q%R%S%T%U%V%W%t%X%Y%}%Z%`% &.&+&@&#&$&%&&&*&=&. . . . . ",
". . . . -&;&>&,&'&)&!&~&{&]&^&/&(&_&:&o%<&[&}&W%|&1&2&3&4&5&6&7&8&9&. . . . . . ",
". . . . . 0&a&b&c&d&e&f&g&h&i&j&k&l&m&n&o&p&q&r&s&t&u&v&w&L%x&,%. . . . . . . . ",
". . . . . . y&z&A&B&C&D&E&F&G&H&I&J&K&L&M&N&O&P&Q&R&S&u&T&U&V&W&. . . . . . . . ",
". . . . . . . . X&Y&Z&`& *.*+*@*#*$*%*&***=*-*;*>*,*'*)*!*~*{*. . . . . . . ]*. ",
". . . . . . . . ^*/*(*_*:*<*[*}*|*1*2*3*4*5*6*7*8*9*0*a*9&b*b*. . . . . . . c*. ",
". . . . . . . . . . d*e*f*g*h*i*j*k*l*m*n*o*p*q*r*s*t*u*9&. . . . . . . . . ]*. ",
". . . . . . . . . . v*p.w*x*y*z*A*B*C*D*E*F*. . . . . . . . . . . . . . . ]*. . ",
". . . . . . . . . . G*H*I*p+J*K*L*M*N*O*. . . . . . . . . . . . . . . . . . . . "};
