/* XPM */
static char * effectvfiremodule_xpm[] = {
"40 40 423 2",
"  	c None",
". 	c #000000",
"+ 	c #010000",
"@ 	c #070305",
"# 	c #040405",
"$ 	c #040304",
"% 	c #050404",
"& 	c #000100",
"* 	c #0C0608",
"= 	c #1D1013",
"- 	c #331619",
"; 	c #2E1918",
"> 	c #1B1111",
", 	c #0B0607",
"' 	c #010101",
") 	c #0B080A",
"! 	c #301811",
"~ 	c #6A3724",
"{ 	c #A15135",
"] 	c #85432C",
"^ 	c #462221",
"/ 	c #130C0B",
"( 	c #030303",
"_ 	c #3B1E21",
": 	c #88442D",
"< 	c #C57C37",
"[ 	c #DBA64F",
"} 	c #E2963A",
"| 	c #A96131",
"1 	c #31191E",
"2 	c #040102",
"3 	c #341716",
"4 	c #CB9148",
"5 	c #F6DD89",
"6 	c #F5EEB5",
"7 	c #F9F098",
"8 	c #ECBD5C",
"9 	c #866234",
"0 	c #0C0709",
"a 	c #040302",
"b 	c #524130",
"c 	c #FAEEB4",
"d 	c #FBFEEF",
"e 	c #FDFEF5",
"f 	c #FEFEF0",
"g 	c #F9F5B3",
"h 	c #C19358",
"i 	c #291E17",
"j 	c #0F0808",
"k 	c #83795E",
"l 	c #FEFCEF",
"m 	c #FEFDF9",
"n 	c #FDFEFC",
"o 	c #FEFFFB",
"p 	c #FCFEF0",
"q 	c #E8CE91",
"r 	c #1E130D",
"s 	c #010100",
"t 	c #1F1110",
"u 	c #A07C64",
"v 	c #FDFEF8",
"w 	c #FAF8F2",
"x 	c #EFE6D8",
"y 	c #FFFFFD",
"z 	c #ECE7C3",
"A 	c #160F0C",
"B 	c #0D0B0A",
"C 	c #572F1C",
"D 	c #D2B38D",
"E 	c #FDFBEF",
"F 	c #EEC672",
"G 	c #E8BC61",
"H 	c #ECD8A9",
"I 	c #FDFEF6",
"J 	c #DED8B7",
"K 	c #100C0E",
"L 	c #020101",
"M 	c #080607",
"N 	c #0B090B",
"O 	c #16100F",
"P 	c #040306",
"Q 	c #674D2F",
"R 	c #EFE2B6",
"S 	c #FCFEF1",
"T 	c #FAF2BA",
"U 	c #FDFAB2",
"V 	c #F7EB8E",
"W 	c #FDFBE6",
"X 	c #E2D6B2",
"Y 	c #170C0B",
"Z 	c #020304",
"` 	c #1B1011",
" .	c #2B1718",
"..	c #1D1010",
"+.	c #0D0708",
"@.	c #252523",
"#.	c #F1F0DA",
"$.	c #FCFCF0",
"%.	c #FEFEF9",
"&.	c #FDFEEE",
"*.	c #FCFCE8",
"=.	c #FEFEF2",
"-.	c #DBD3A8",
";.	c #19120E",
">.	c #22130C",
",.	c #512A25",
"'.	c #6D3C2F",
").	c #251417",
"!.	c #030202",
"~.	c #020403",
"{.	c #0E080C",
"].	c #26191E",
"^.	c #EAE9E0",
"/.	c #FEFDE8",
"(.	c #FDFEEA",
"_.	c #FAF7F0",
":.	c #EEEADA",
"<.	c #FFFFFA",
"[.	c #A3A088",
"}.	c #000003",
"|.	c #36201A",
"1.	c #894934",
"2.	c #BB7643",
"3.	c #604132",
"4.	c #080606",
"5.	c #2E1B17",
"6.	c #462721",
"7.	c #C1B4A7",
"8.	c #FAF8E8",
"9.	c #FEFFF1",
"0.	c #F8F5CD",
"a.	c #F9F5E0",
"b.	c #FEFEF6",
"c.	c #64645B",
"d.	c #000102",
"e.	c #46211B",
"f.	c #BC975E",
"g.	c #EED286",
"h.	c #705B37",
"i.	c #050203",
"j.	c #060303",
"k.	c #090909",
"l.	c #271216",
"m.	c #5D2D2A",
"n.	c #894D32",
"o.	c #AE6835",
"p.	c #DCCD9F",
"q.	c #FEFEF7",
"r.	c #FEFCF4",
"s.	c #E7E8E3",
"t.	c #181617",
"u.	c #000201",
"v.	c #0E0A08",
"w.	c #714430",
"x.	c #EBE7C3",
"y.	c #F4F1C5",
"z.	c #403529",
"A.	c #0A0607",
"B.	c #140E12",
"C.	c #4C261F",
"D.	c #8F4F31",
"E.	c #C47435",
"F.	c #E6AD4D",
"G.	c #F8E997",
"H.	c #FDFCEA",
"I.	c #FEFFF9",
"J.	c #FFFEF8",
"K.	c #FDFEFE",
"L.	c #A18A87",
"M.	c #351F1E",
"N.	c #020201",
"O.	c #030203",
"P.	c #0B0909",
"Q.	c #2B1C1A",
"R.	c #CCC6B5",
"S.	c #9A988D",
"T.	c #040303",
"U.	c #301913",
"V.	c #C37637",
"W.	c #DCA852",
"X.	c #F5E285",
"Y.	c #FCF6B2",
"Z.	c #FDFDE0",
"`.	c #FEFFF7",
" +	c #FEFEFA",
".+	c #FEFEF8",
"++	c #FEFCEE",
"@+	c #E6B159",
"#+	c #91552B",
"$+	c #0A0809",
"%+	c #090203",
"&+	c #562D2C",
"*+	c #775E43",
"=+	c #534C3D",
"-+	c #0D0A08",
";+	c #070A09",
">+	c #000001",
",+	c #0D0A0B",
"'+	c #734B2D",
")+	c #EFD276",
"!+	c #FBF3B4",
"~+	c #FCFEE6",
"{+	c #FEFFFA",
"]+	c #FFFFFC",
"^+	c #FFFCE3",
"/+	c #F2D687",
"(+	c #98613C",
"_+	c #341C18",
":+	c #0F0A0A",
"<+	c #040203",
"[+	c #040201",
"}+	c #180F15",
"|+	c #83442C",
"1+	c #835B3C",
"2+	c #2D2620",
"3+	c #080808",
"4+	c #020100",
"5+	c #37211C",
"6+	c #A28054",
"7+	c #FDFCD6",
"8+	c #FDFDF7",
"9+	c #FEFFF8",
"0+	c #FFFFFB",
"a+	c #FEFDFA",
"b+	c #FDFFF5",
"c+	c #FBF8D2",
"d+	c #CD8F42",
"e+	c #8F492B",
"f+	c #452324",
"g+	c #170E10",
"h+	c #0D0B0C",
"i+	c #150E0C",
"j+	c #542F21",
"k+	c #CA984D",
"l+	c #CDA751",
"m+	c #0B070A",
"n+	c #010001",
"o+	c #0A0606",
"p+	c #523225",
"q+	c #DEBD88",
"r+	c #FAFAF0",
"s+	c #FEFDEE",
"t+	c #F1D778",
"u+	c #DDA752",
"v+	c #7D3A29",
"w+	c #542D25",
"x+	c #020203",
"y+	c #020003",
"z+	c #020202",
"A+	c #43211B",
"B+	c #6B3523",
"C+	c #74442A",
"D+	c #F0DB9E",
"E+	c #AFA476",
"F+	c #090908",
"G+	c #030001",
"H+	c #150A0A",
"I+	c #B07A40",
"J+	c #F8F1C5",
"K+	c #FCFFFA",
"L+	c #FEFEFC",
"M+	c #FDFBD2",
"N+	c #E4CB7E",
"O+	c #DFA445",
"P+	c #9B4C2F",
"Q+	c #472125",
"R+	c #150F10",
"S+	c #0C070B",
"T+	c #060507",
"U+	c #13090B",
"V+	c #150C0B",
"W+	c #884F35",
"X+	c #C28A48",
"Y+	c #BB844D",
"Z+	c #F3F2E8",
"`+	c #8C887F",
" @	c #010002",
".@	c #170A0C",
"+@	c #040402",
"@@	c #1B1214",
"#@	c #8F532E",
"$@	c #E6C376",
"%@	c #FDF9EC",
"&@	c #FFFDF9",
"*@	c #FEFDF8",
"=@	c #FFFEF9",
"-@	c #FFFFFE",
";@	c #FCFFF9",
">@	c #FDF9DD",
",@	c #F0E395",
"'@	c #DA9C48",
")@	c #995128",
"!@	c #552625",
"~@	c #472428",
"{@	c #391A1C",
"]@	c #53292C",
"^@	c #643025",
"/@	c #9C6038",
"(@	c #E2D9A9",
"_@	c #EDCA70",
":@	c #EFE1B7",
"<@	c #3B2F27",
"[@	c #592C27",
"}@	c #221518",
"|@	c #080706",
"1@	c #120A0F",
"2@	c #B8874B",
"3@	c #EEE2CA",
"4@	c #FDFEFA",
"5@	c #FCFDE6",
"6@	c #F3E495",
"7@	c #DBA049",
"8@	c #C87A36",
"9@	c #965030",
"0@	c #803B30",
"a@	c #A05129",
"b@	c #D58C3A",
"c@	c #EEDC9D",
"d@	c #FCFCE5",
"e@	c #F7F1B3",
"f@	c #E9DBA5",
"g@	c #0E0906",
"h@	c #BA7B36",
"i@	c #934C26",
"j@	c #35191E",
"k@	c #37251F",
"l@	c #CEC092",
"m@	c #FAFCF5",
"n@	c #FEFEF5",
"o@	c #FFFFF9",
"p@	c #FEFFFD",
"q@	c #FDFDE8",
"r@	c #F6E99D",
"s@	c #EED064",
"t@	c #E4B554",
"u@	c #D99F43",
"v@	c #E5B254",
"w@	c #F9E698",
"x@	c #FBFDE9",
"y@	c #FBFDF7",
"z@	c #C2C2B6",
"A@	c #D8CD87",
"B@	c #D1964A",
"C@	c #80452E",
"D@	c #93663A",
"E@	c #F7F4DD",
"F@	c #FEFFF5",
"G@	c #FEFFF6",
"H@	c #FDFEEF",
"I@	c #FCFBCE",
"J@	c #FDFABB",
"K@	c #FAF5A3",
"L@	c #F8F1B4",
"M@	c #FDFEF3",
"N@	c #7A7978",
"O@	c #DFDEC5",
"P@	c #F8E58B",
"Q@	c #BB7436",
"R@	c #DFB66D",
"S@	c #FEFEFB",
"T@	c #FBFAED",
"U@	c #FFFEF1",
"V@	c #FDFEF9",
"W@	c #FFFFF3",
"X@	c #CDCDC9",
"Y@	c #DEDFD9",
"Z@	c #F9F5C8",
"`@	c #EED27C",
" #	c #F9F6D8",
".#	c #FFFEFC",
"+#	c #FFFFF7",
"@#	c #FFFEFE",
"##	c #F7F8F3",
"$#	c #41413E",
"%#	c #DFDED8",
"&#	c #FCFDF3",
"*#	c #F9FBCC",
"=#	c #FEFDF6",
"-#	c #8A8A88",
";#	c #030302",
">#	c #070707",
",#	c #DEDFDB",
"'#	c #FFFEFB",
")#	c #FEFEF4",
"!#	c #9D9D9D",
"~#	c #EBEBE7",
"{#	c #D2C5BC",
"]#	c #E1E2DD",
"^#	c #FBFBF6",
"/#	c #FCFCF9",
"(#	c #FCFCFA",
"_#	c #F0F1EB",
":#	c #8A8A86",
"<#	c #DDDDDC",
"[#	c #42423D",
"}#	c #E5D2A1",
"|#	c #E5E6DD",
"1#	c #0A0B0A",
"2#	c #070706",
"3#	c #2A2B2A",
"4#	c #3F3F3F",
"5#	c #555553",
"6#	c #39393A",
"7#	c #111111",
"8#	c #B7B7B7",
"9#	c #0C0D0A",
"0#	c #B6B295",
"a#	c #FEFFF4",
"b#	c #FFFFF6",
"c#	c #B6B8B2",
"d#	c #707070",
"e#	c #000002",
"f#	c #656662",
"g#	c #AAA9A8",
"h#	c #A9A9A8",
"i#	c #A9A9AB",
"j#	c #A9AAA6",
"k#	c #A9AAA8",
"l#	c #A9A9A9",
"m#	c #AAAAA5",
"n#	c #A9AAA5",
"o#	c #A9AAA7",
"p#	c #5B5B5C",
". . . . . . . . . . . . . . . . . . . . . . . . . . . . . . . . . . . . . . . . ",
". . . . . . . . . . . . . . . . . . . . . . . . . . . . . . . . . . . . . . . . ",
". . . . . . . . . . . . . . . . . . . . . . . . . . . . . . . . . . . . . . . . ",
". . . . . . . . . . . . . . . . . . . . . . . . . . . . . . . . . . . . . . . . ",
". . . . . . . . . . . . . . . . . . . . . . . . . . . . . . . . . . . . . . . . ",
". . . . . . . . . . . . . . . . . . . . . . . . . . . . . . . . . . . . . . . . ",
". . . . . . . . . . . . . . . . . . . . . . . . . . . . . . . . . . . . . . . . ",
". . . . . . . . . . . . . . . . . . . . . . . . . . . . . . . . . . . . . . . . ",
". . . . . . . . . . . . + + @ # $ % & . . . . . . . . . . . . . . . . . . . . . ",
". . . . . . . . . . . . $ * = - ; > , . . . . . . . . . . . . . . . . . . . . . ",
". . . . . . . . . . . ' ) ! ~ { ] ^ / ' . . . . . . . . . . . . . . . . . . . . ",
". . . . . . . . . . . ( _ : < [ } | 1 2 . . . . . . . . . . . . . . . . . . . . ",
". . . . . . . . . . . ( 3 4 5 6 7 8 9 0 . . . . . . . . . . . . . . . . . . . . ",
". . . . . . . . . . . a b c d e f g h i . . . . . . . . . . . . . . . . . . . . ",
". . . . . . . . . . . j k l m n o p q r . . . . . . . . . . . . . . . . . . . . ",
". . . . . . . . . . s t u v w x y y z A . . . . . . . . . . . . . . . . . . . . ",
". . . . . . . . . . B C D E F G H I J K . . . . . . . . . . . . L M N O . . . . ",
". . . . . . . . . . P Q R S T U V W X Y . . . . . . . . . . . . Z `  .... . . . ",
". . . . . . . . . + +.@.#.$.%.&.*.=.-.;.. . . . . . . . . . . . >.,.'.).!.. . . ",
". . . . . . . . & ~.{.].^./.(._.:.<.[.}.. . . . . . . . . . . . |.1.2.3.4.& . . ",
". . . . . . . ' !.+.5.6.7.8.9.0.a.b.c.d.. . . . . . . . . . . ( e.f.g.h.+ & . . ",
". . . . . i.j.k.l.m.n.o.p.q.%.r.q.s.t.u.. . . . . . . . . . . v.w.x.y.z.+ . . . ",
". . . . . A.B.C.D.E.F.G.H.I.J.q.K.L.M.N.. . . . . . . . . . O.P.Q.R.S.T.. . . . ",
". . . . . 2 U.V.W.X.Y.Z.`. +J..+++@+#+$+. . . . . . . . . . %+&+*+=+-+;+. . . . ",
". . . . >+,+'+)+!+~+<.{+`.y ]+q.^+/+(+_+:+<+. . . . . . [+4.}+|+1+2+3+. . . . . ",
". . . . 4+5+6+7+8+9+9+.+0+I.a+.+b+c+d+e+f+g+. . . . . . h+i+j+k+l+m+' . . . . . ",
">+n++ & o+p+q+v q.q.`.`.]+9+r+=.{+s+t+u+v+w+$+x+L ' y+z+A+B+C+D+E+F+. . . . . . ",
"n+n+& G+H+I+J+K+ + +0+0+0+{+%.%.L+`.M+N+O+P+Q+R+S+T+U+V+W+X+Y+Z+`+ @. . . . . . ",
".@+@z+@@#@$@%@&@L+y 0+0+0+{+*@=@]+-@;@>@,@'@)@!@~@{@]@^@/@(@_@:@<@L . . . . . . ",
"[@}@|@1@2@3@%.{+{+0+y 0+0+{+`.<.]+{+9+4@5@6@7@8@9@0@a@b@c@d@e@f@g@n+. . . . . . ",
"h@i@j@k@l@m@y y {+{+n@<.o@I.I.0+0+o {+{+p@q@r@s@t@u@v@w@x@L+y@z@. . . . . . . . ",
"A@B@C@D@E@{+]+y {+{+]+0+F@G@y `.{+0+0+0+0+.+H@I@J@K@L@M@0+ +J.N@. . . . . . ( . ",
"O@P@Q@R@G@S@9+{+T@U@0+{+s+$.V@<.0+0+`..+0+0+0+{+W@W@9+]+{+{+X@k.. . . . . . . . ",
"Y@Z@`@ #9+]+0+b.L+y {+{+.+.#L+y 0+0+{+G@{+{+0+{++#@#G@-@0+##$#' . . . . . . ( . ",
"%#&#*#=#{+]+y -@-@]+{+0+I {+I.o@<.0+9+{+{+{+<.I.=@`.]+]+S@-#;#. . . . . . ' >#. ",
",#{+G@'#y y y y ]+9+.+]+%.)#<.%.9+]+-@]+{+{+9+9+S@`.<.<.!#( . . . . . . . k.. . ",
",#~#{#]+y y y y o@]+o@]+y `.e G@o@]+S@q.]#^#S@/# +(#_#:#. . . . . . . . . . . . ",
"<#[#}#p@{+]+I.<.<.F@9+]+0+S@o@9+`.y  +|#1#2#3#4#5#6#7#z+. . . . . . . . . . . . ",
"8#9#0#o@{+-@{+<.<.n@{+a#b#e ]+o F@<.`.c#. . . . . . . . . . . . . . . . . . . . ",
"d#e#f#g#h#i#h#h#j#j#k#l#m#n#l#l#l#h#o#p#. . . . . . . . . . . . . . . . . . . . "};
