/* XPM */
static char* font3dmodule_xpm[] = {
"40 40 4 1 14 16",
"  c None",
"! c #000000",
"# c #000080",
"$ c #0066FF",
"                                        ",
"                                        ",
"                                        ",
"                                        ",
"                                        ",
"                                        ",
"                                        ",
"$$$$$$$$$ $$$$$$$$$  $$     $$ $$$$$$$$$",
"$$$$$$$$$#$$$$$$$$$ #$$$   $$$#$$$$$$$$$",
"###$$    #$$######  ##$$  #$$ #####$$## ",
"  #$$    #$$         ##$$ $$  #####$$## ",
"  #$$    #$$          #$$$$$      #$$   ",
"  #$$    #$$$$$$$$$   ##$$$       #$$   ",
"  #$$    #$$$$$$$$$    #$$$       #$$   ",
"  #$$    #$$######     $$$$$      #$$   ",
"  #$$    #$$          #$$#$$      #$$   ",
"  #$$    #$$          $$ ##$$     #$$   ",
"  #$$    #$$$$$$$$$  $$$  #$$$    #$$   ",
"  #$$    #$$$$$$$$$ #$$   ##$$    #$$   ",
"  ##     #########  ##     ##     ##    ",
"                                        ",
"                                        ",
"             $$$$$   $$$$$$$            ",
"           $$$$$$$$ #$$$$$$$$$          ",
"          #$$####$$ #$$#####$$          ",
"          ###   #$$ #$$    ##$$         ",
"              $$$$  #$$     #$$         ",
"             #$$$$  #$$     #$$         ",
"             ###$$$ #$$     #$$         ",
"               ##$$ #$$     #$$         ",
"           $$   #$$ #$$     #$$         ",
"          #$$$ #$$$ #$$    #$$          ",
"          ##$$$$$$  #$$$$$$$$$          ",
"           ##$$$$   #$$$$$$$#           ",
"            ####    ########            ",
"                                        ",
"                                        ",
"                                        ",
"                                        ",
"                                        "};