/* XPM */
static char * effectvshagadelicmodule_xpm[] = {
"53 40 641 2",
"  	c None",
". 	c #000000",
"+ 	c #00001C",
"@ 	c #010004",
"# 	c #60479F",
"$ 	c #8F96B3",
"% 	c #411F21",
"& 	c #71001E",
"* 	c #365EE3",
"= 	c #004079",
"- 	c #00000C",
"; 	c #070003",
"> 	c #6800A1",
", 	c #000012",
"' 	c #443111",
") 	c #A6BDC1",
"! 	c #7856C2",
"~ 	c #300222",
"{ 	c #01D41D",
"] 	c #10E1CF",
"^ 	c #690BE6",
"/ 	c #CE3C2D",
"( 	c #FFF925",
"_ 	c #C1C4E4",
": 	c #460CC1",
"< 	c #000D0A",
"[ 	c #3B8B73",
"} 	c #165298",
"| 	c #212F32",
"1 	c #5D7812",
"2 	c #012170",
"3 	c #000005",
"4 	c #000E1E",
"5 	c #100079",
"6 	c #738A10",
"7 	c #AAFE26",
"8 	c #E71DCF",
"9 	c #FF3FEF",
"0 	c #E1FF45",
"a 	c #8B660E",
"b 	c #2909BB",
"c 	c #00DEEE",
"d 	c #3DD52C",
"e 	c #B51227",
"f 	c #FF2CEE",
"g 	c #BCDDA5",
"h 	c #2EFC02",
"i 	c #099DA5",
"j 	c #8630E7",
"k 	c #FB001A",
"l 	c #B4005D",
"m 	c #130085",
"n 	c #00002D",
"o 	c #383A00",
"p 	c #889B52",
"q 	c #5F00E6",
"r 	c #2FB8E3",
"s 	c #03DF42",
"t 	c #010008",
"u 	c #3390A5",
"v 	c #86F3FB",
"w 	c #DF0B55",
"x 	c #FF770A",
"y 	c #BDF9BD",
"z 	c #4B2EE5",
"A 	c #002B1E",
"B 	c #3DEE43",
"C 	c #CAD6FA",
"D 	c #FB3370",
"E 	c #88000E",
"F 	c #0835DB",
"G 	c #398BB4",
"H 	c #E0C601",
"I 	c #E2E8B3",
"J 	c #34F1D4",
"K 	c #00B905",
"L 	c #000400",
"M 	c #1D1367",
"N 	c #A7F5AD",
"O 	c #D09122",
"P 	c #F70010",
"Q 	c #FFCDA9",
"R 	c #F3BCFC",
"S 	c #B40075",
"T 	c #68C501",
"U 	c #17AE8A",
"V 	c #0101FB",
"W 	c #47DF54",
"X 	c #B5930F",
"Y 	c #FF0AD1",
"Z 	c #CAD8D1",
"` 	c #3DC00A",
" .	c #020F78",
"..	c #6831F8",
"+.	c #EFC232",
"@.	c #D6FF3C",
"#.	c #2DF3FD",
"$.	c #12C15A",
"%.	c #B6A222",
"&.	c #F695F5",
"*.	c #529670",
"=.	c #001500",
"-.	c #000512",
";.	c #0C0000",
">.	c #0E014B",
",.	c #00FFD5",
"'.	c #009DF5",
").	c #04006A",
"!.	c #2CD401",
"~.	c #67AE72",
"{.	c #AD00FB",
"].	c #F4E091",
"^.	c #FA7B01",
"/.	c #B02D8B",
"(.	c #47FFFA",
"_.	c #002543",
":.	c #34801F",
"<.	c #B8DFEB",
"[.	c #FF119E",
"}.	c #A66102",
"|.	c #17F3BC",
"1.	c #1FBED3",
"2.	c #C24C05",
"3.	c #F50595",
"4.	c #5D00E6",
"5.	c #04000D",
"6.	c #910087",
"7.	c #FE00EC",
"8.	c #65000D",
"9.	c #00007A",
"0.	c #00001D",
"a.	c #303737",
"b.	c #F766AF",
"c.	c #FF0031",
"d.	c #F6E206",
"e.	c #D6B682",
"f.	c #AB00FC",
"g.	c #75BFA8",
"h.	c #37B609",
"i.	c #030058",
"j.	c #0BEAF8",
"k.	c #586190",
"l.	c #BE5D01",
"m.	c #FFD7A7",
"n.	c #CB08ED",
"o.	c #4BEC1F",
"p.	c #00474C",
"q.	c #4B5CFF",
"r.	c #DFF252",
"s.	c #EC5B22",
"t.	c #4F04F5",
"u.	c #034A76",
"v.	c #889B13",
"w.	c #FECBEF",
"x.	c #89E281",
"y.	c #01DE12",
"z.	c #7CC4EC",
"A.	c #FD9579",
"B.	c #634B15",
"C.	c #0005AF",
"D.	c #24B537",
"E.	c #40A0C6",
"F.	c #4900FD",
"G.	c #60B192",
"H.	c #84E608",
"I.	c #B10042",
"J.	c #E794EE",
"K.	c #FFD8C4",
"L.	c #EB000F",
"M.	c #9AD559",
"N.	c #3A66FC",
"O.	c #006F73",
"P.	c #30A90A",
"Q.	c #AA44D2",
"R.	c #FFCDC6",
"S.	c #BF2004",
"T.	c #2AE99A",
"U.	c #0D3EE6",
"V.	c #9A4410",
"W.	c #FEDC7D",
"X.	c #8FEFF1",
"Y.	c #04AF17",
"Z.	c #5E9076",
"`.	c #F882F2",
" +	c #A19B14",
".+	c #03C585",
"++	c #72F9EA",
"@+	c #FDFF08",
"#+	c #5DE699",
"$+	c #003C70",
"%+	c #2A003E",
"&+	c #6ADA41",
"*+	c #6AE500",
"=+	c #61025E",
"-+	c #486BEF",
";+	c #23FFCF",
">+	c #012B20",
",+	c #005129",
"'+	c #2AFDE8",
")+	c #7815C4",
"!+	c #D1A408",
"~+	c #FF8774",
"{+	c #CD5FFB",
"]+	c #57993F",
"^+	c #02722A",
"/+	c #387AF7",
"(+	c #CC9877",
"_+	c #F76511",
":+	c #766BE9",
"<+	c #01DF8C",
"[+	c #5A5D0A",
"}+	c #C208E7",
"|+	c #54007F",
"1+	c #4A0DEC",
"2+	c #F8047C",
"3+	c #A20016",
"4+	c #020EF8",
"5+	c #886460",
"6+	c #FAD630",
"7+	c #2D46A9",
"8+	c #960082",
"9+	c #EA80FF",
"0+	c #EAFFAE",
"a+	c #F44219",
"b+	c #FF1521",
"c+	c #FFF7D1",
"d+	c #F08CE2",
"e+	c #B8082E",
"f+	c #70EB2A",
"g+	c #1F6DEE",
"h+	c #0053A6",
"i+	c #37CA02",
"j+	c #A934AD",
"k+	c #FDB4E0",
"l+	c #CF7C0E",
"m+	c #3F4C79",
"n+	c #02C3F4",
"o+	c #724A1C",
"p+	c #F8BB6A",
"q+	c #BA26F6",
"r+	c #15891F",
"s+	c #19C872",
"t+	c #3857DC",
"u+	c #00000E",
"v+	c #001C53",
"w+	c #4BE7E0",
"x+	c #F8B906",
"y+	c #965EA6",
"z+	c #0208C4",
"A+	c #A60400",
"B+	c #A12CCA",
"C+	c #00002C",
"D+	c #001204",
"E+	c #001900",
"F+	c #001B45",
"G+	c #00F7D9",
"H+	c #00B6E9",
"I+	c #100042",
"J+	c #38930C",
"K+	c #69F2C3",
"L+	c #A71AE3",
"M+	c #ED711F",
"N+	c #FEE143",
"O+	c #BF0FFC",
"P+	c #55D866",
"Q+	c #023513",
"R+	c #2AC6E8",
"S+	c #B56091",
"T+	c #F85F07",
"U+	c #957CDD",
"V+	c #0EAD9E",
"W+	c #345505",
"X+	c #DFC9DE",
"Y+	c #DD6C92",
"Z+	c #282B0B",
"`+	c #070AEE",
" @	c #150076",
".@	c #004A95",
"+@	c #51C652",
"@@	c #FDFF44",
"#@	c #73DEFF",
"$@	c #094C23",
"%@	c #9B0076",
"&@	c #00004B",
"*@	c #3A484F",
"=@	c #BF8EC1",
"-@	c #BF0030",
";@	c #BF8C0C",
">@	c #B3FFA8",
",@	c #9647F9",
"'@	c #6D104D",
")@	c #37E30D",
"!@	c #05B3D0",
"~@	c #0404CE",
"{@	c #49BE08",
"]@	c #AF9D86",
"^@	c #FD3CF3",
"/@	c #D5C01F",
"(@	c #51615A",
"_@	c #003993",
":@	c #3F2B00",
"<@	c #401B2E",
"[@	c #724399",
"}@	c #308322",
"|@	c #14686F",
"1@	c #C5B6F3",
"2@	c #EAE20E",
"3@	c #35E990",
"4@	c #027BCD",
"5@	c #000002",
"6@	c #050039",
"7@	c #0700AB",
"8@	c #714103",
"9@	c #FCD9E8",
"0@	c #42FF77",
"a@	c #007923",
"b@	c #000036",
"c@	c #3C6426",
"d@	c #95F9C4",
"e@	c #9528FA",
"f@	c #950C6F",
"g@	c #A1DD02",
"h@	c #C1E68E",
"i@	c #EC19F9",
"j@	c #FF3343",
"k@	c #F0F322",
"l@	c #A496EF",
"m@	c #480F90",
"n@	c #03C207",
"o@	c #2496D7",
"p@	c #A44EAB",
"q@	c #533700",
"r@	c #694710",
"s@	c #516F10",
"t@	c #094CF5",
"u@	c #AE2466",
"v@	c #F11D31",
"w@	c #1C41FF",
"x@	c #000020",
"y@	c #000008",
"z@	c #7780E7",
"A@	c #001A0B",
"B@	c #A80A9B",
"C@	c #E8A8C6",
"D@	c #178C00",
"E@	c #053B09",
"F@	c #15FC01",
"G@	c #15CC78",
"H@	c #1506FD",
"I@	c #072F8A",
"J@	c #00EE02",
"K@	c #00CDA8",
"L@	c #2617E9",
"M@	c #6D3619",
"N@	c #C2E45F",
"O@	c #FEB3FB",
"P@	c #D92031",
"Q@	c #63744D",
"R@	c #02A2E5",
"S@	c #000001",
"T@	c #0B0903",
"U@	c #F57206",
"V@	c #5C71A6",
"W@	c #07B2C1",
"X@	c #BAE300",
"Y@	c #C480B3",
"Z@	c #030059",
"`@	c #9E9CD6",
" #	c #6EEB4D",
".#	c #0E3A55",
"+#	c #CF02FB",
"@#	c #2F1E0E",
"##	c #640064",
"$#	c #FF849D",
"%#	c #FFFF08",
"&#	c #FFA660",
"*#	c #FF02FD",
"=#	c #E43571",
"-#	c #B4EB0C",
";#	c #77DFD9",
">#	c #2C3CAF",
",#	c #001001",
"'#	c #298CC6",
")#	c #9BE5B3",
"!#	c #FAA401",
"~#	c #CF63C2",
"{#	c #030204",
"]#	c #001219",
"^#	c #7F7C4D",
"/#	c #FCB551",
"(#	c #5B6DFD",
"_#	c #0E2416",
":#	c #A0888C",
"<#	c #00002E",
"[#	c #5E15C1",
"}#	c #F9CB8E",
"|#	c #30F514",
"1#	c #2534FF",
"2#	c #000048",
"3#	c #1E0035",
"4#	c #4001ED",
"5#	c #409BC1",
"6#	c #40FF09",
"7#	c #50A875",
"8#	c #750AF9",
"9#	c #A71C33",
"0#	c #E7B644",
"a#	c #FFFEFE",
"b#	c #D1AF41",
"c#	c #634B45",
"d#	c #050FFE",
"e#	c #25352F",
"f#	c #B85464",
"g#	c #762976",
"h#	c #010000",
"i#	c #604B8B",
"j#	c #019699",
"k#	c #884E0E",
"l#	c #F993FA",
"m#	c #42A556",
"n#	c #000E20",
"o#	c #00000A",
"p#	c #010791",
"q#	c #C116C8",
"r#	c #D0DF00",
"s#	c #049EDB",
"t#	c #00007D",
"u#	c #0E2200",
"v#	c #6A1D2F",
"w#	c #6A02EC",
"x#	c #6A8EA0",
"y#	c #57FF02",
"z#	c #2FD5C1",
"A#	c #053CC4",
"B#	c #020000",
"C#	c #3D3BBB",
"D#	c #9F9BB8",
"E#	c #F9D801",
"F#	c #DFFBD8",
"G#	c #53E290",
"H#	c #00C40D",
"I#	c #6783F7",
"J#	c #B95D5A",
"K#	c #7A3418",
"L#	c #0B4480",
"M#	c #39741C",
"N#	c #FA6D83",
"O#	c #936BDA",
"P#	c #01B900",
"Q#	c #8D3CC7",
"R#	c #7B4194",
"S#	c #050B00",
"T#	c #004D5C",
"U#	c #2314F7",
"V#	c #E63305",
"W#	c #040BA9",
"X#	c #000069",
"Y#	c #050501",
"Z#	c #D7C50B",
"`#	c #EA2C4A",
" $	c #EA00FF",
".$	c #FB4E4A",
"+$	c #FFE334",
"@$	c #F4FFFF",
"#$	c #B1BB42",
"$$	c #565E4E",
"%$	c #061EFD",
"&$	c #20001F",
"*$	c #9F007D",
"=$	c #FE14E4",
"-$	c #AC5301",
";$	c #10B8BA",
">$	c #356EA2",
",$	c #E5A307",
"'$	c #CD72F7",
")$	c #11665E",
"!$	c #536845",
"~$	c #FCC5FE",
"{$	c #723016",
"]$	c #009C92",
"^$	c #020072",
"/$	c #000D25",
"($	c #2CAB30",
"_$	c #0F9DFF",
":$	c #5F0026",
"<$	c #07006F",
"[$	c #008950",
"}$	c #00F303",
"|$	c #006DAA",
"1$	c #0402CE",
"2$	c #290800",
"3$	c #6666C2",
"4$	c #B6C4A6",
"5$	c #FCFC07",
"6$	c #E5FFEE",
"7$	c #69FC6D",
"8$	c #03F735",
"9$	c #42F4FF",
"0$	c #E5A62A",
"a$	c #DA2F7B",
"b$	c #279BDC",
"c$	c #256C00",
"d$	c #E4B6C4",
"e$	c #C54393",
"f$	c #0A9016",
"g$	c #749EFF",
"h$	c #C23543",
"i$	c #14071A",
"j$	c #12404B",
"k$	c #020F98",
"l$	c #96790B",
"m$	c #88FCFE",
"n$	c #00174B",
"o$	c #0B172B",
"p$	c #B0E152",
"q$	c #BFFF38",
"r$	c #A5D3FF",
"s$	c #785A30",
"t$	c #36086C",
"u$	c #0100EE",
"v$	c #1B0A04",
"w$	c #7D31B0",
"x$	c #5C3CAA",
"y$	c #C82904",
"z$	c #2806F6",
"A$	c #17405D",
"B$	c #C6C949",
"C$	c #E994FF",
"D$	c #2F420D",
"E$	c #25B69D",
"F$	c #EE5EBA",
"G$	c #9C8901",
"H$	c #001CC7",
"I$	c #000024",
"J$	c #285497",
"K$	c #0053BB",
"L$	c #521A00",
"M$	c #4970BF",
"N$	c #00000F",
"O$	c #550E51",
"P$	c #958600",
"Q$	c #B3EFE6",
"R$	c #E5FF76",
"S$	c #FFF230",
"T$	c #DDB5FF",
"U$	c #718A28",
"V$	c #09767F",
"W$	c #002F8B",
"X$	c #200100",
"Y$	c #7277D3",
"Z$	c #0E9C73",
"`$	c #0A6628",
" %	c #B61DFF",
".%	c #A6A62E",
"+%	c #00307A",
"@%	c #272470",
"#%	c #150700",
"$%	c #0E1C38",
"%%	c #235A82",
"&%	c #0005D2",
"*%	c #000015",
"=%	c #000BB5",
"-%	c #00599F",
";%	c #2FA60B",
">%	c #90D5FF",
",%	c #F5F149",
"'%	c #E1F961",
")%	c #46D7F1",
"!%	c #003500",
"~%	c #000017",
"{%	c #000003",
"]%	c #000739",
"^%	c #070707",
"/%	c #00000B",
"(%	c #303919",
"_%	c #EEF6F9",
":%	c #140735",
"<%	c #001577",
"[%	c #00008D",
"}%	c #540091",
"|%	c #A600A8",
"1%	c #670004",
"2%	c #0C00FF",
"3%	c #18004E",
"4%	c #A7005E",
"5%	c #FE00F4",
"6%	c #800000",
"7%	c #012EB7",
"8%	c #449386",
"9%	c #6C6C09",
"0%	c #2C0E5D",
"a%	c #000516",
"b%	c #222B12",
"c%	c #251346",
"d%	c #000E00",
"e%	c #90B391",
"f%	c #9F4488",
"g%	c #04611E",
"h%	c #41CFFF",
"i%	c #0C0435",
"j%	c #040019",
"k%	c #773A04",
"l%	c #D182FF",
"m%	c #687F4E",
"n%	c #018B5E",
"o%	c #64A8F4",
"p%	c #FCDD00",
"q%	c #91FFB7",
"r%	c #02DE9B",
"s%	c #A74F11",
"t%	c #E905FF",
"u%	c #18A042",
"v%	c #63EF6A",
"w%	c #FB1CE7",
"x%	c #2E6F00",
"y%	c #50F3C4",
"z%	c #820D8E",
"A%	c #062019",
"B%	c #0000A5",
"C%	c #21215B",
"D%	c #6C7825",
"E%	c #71D76F",
"F%	c #0EDFE6",
"G%	c #59A500",
"H%	c #FC52C3",
"I%	c #6D058F",
"J%	c #0D1B1C",
"K%	c #DBADFF",
"L%	c #ABFA39",
"M%	c #024771",
"N%	c #5900D2",
"O%	c #263500",
"P%	c #002F7A",
"Q%	c #090053",
"R%	c #3D00BF",
"S%	c #560167",
"T%	c #003F2F",
"U%	c #2948E3",
"V%	c #322D1D",
"W%	c #00001E",
"X%	c #000007",
". . . . . . . . . . . . . . . . . . . . . . . . . . . . . . . . . . . . . . . . . . . . . . . . . . . . . ",
". . . . . . . . . . . . . . . . . . . . . . . . . . . . . . . . . . . . . . . . . . . . . . . . . . . . . ",
". . . . . . . . . . . . . . . . . . . . . . . . . . . . . . . . . . . . . . . . . . . . . . . . . . . . . ",
". . . . . . . . . . . . . . . . . . . . . . . . . . . . . . . . . . . . . . . . . . . . . . . . . . . . . ",
". . . . . . . . . . . . . . . . . . . . . . . . . . . . . . . . . . . . . . . . . . . . . . . . . . . . . ",
". . . . . . . . . . . . . . . . . . . . . . . . . + . . . . . . . . . . . . . . . . . . . . . . . . . . . ",
". . . . . . . . . . . . . . . . . . . . @ # $ % & * = - ; > , . . . . . . . . . . . . . . . . . . . . . . ",
". . . . . . . . . . . . . . . . . ' ) ! ~ { ] ^ / ( _ : < [ } | 1 2 3 . . . . . . . . . . . . . . . . . . ",
". . . . . . . . . . . . . . . 4 5 6 7 8 9 0 a b c d e f g h i j k l m n . . . . . . . . . . . . . . . . . ",
". . . . . . . . . . . . . . o p q r s t u v w x y z A B C D E F G H I J K L . . . . . . . . . . . . . . . ",
". . . . . . . . . . . . . M N O P Q R S T U V W X Y Z `  ...+.@.#.$.%.&.*.=.-.. . . . . . . . . . . . . . ",
". . . . . . . . . . . . ;.>.,.'.).!.~.{.].^./.(._.:.<.[.}.|.1.2.3.4.5.6.7.8.9.0.. . . . . . . . . . . . . ",
". . . . . . . . . . . a.b.c.d.e.f.g.h.i.j.k.l.m.n.o.p.q.r.s.t.u.v.w.x.y.z.A.B.C.. . . . . . . . . . . . . ",
". . . . . . . . . . . D.E.F.G.H.I.J.K.L.M.N.O.P.Q.R.S.T.U.V.W.X.Y.Z.`. +.+++@+#+$+. . . . . . . . . . . . ",
". . . . . . . . . . %+&+*+=+-+;+>+,+'+)+!+~+{+]+^+/+(+_+:+<+[+}+|+- 1+2+3+4+5+6+7+. . . . . . . . . . . . ",
". . . . . . . . . . 8+9+0+a+b+c+d+e+f+g+h+i+j+k+l+m+n+o+p+q+r+s+t+u+v+w+x+y+z+A+B+C+. . . . . . . . . . . ",
". . . . . . . . . D+E+F+G+H+I+J+K+L+M+N+O+P+Q+R+S+T+U+V+W+X+Y+Z+`+ @. .@+@@@#@$@%@&@. . . . . . . . . . . ",
". . . . . . . . . *@=@-@;@>@,@'@)@!@~@{@]@^@/@(@_@:@<@[@}@|@1@2@3@4@5@6@7@8@9@0@a@b@. . . . . . . . . . . ",
". . . . . . . . . c@d@e@f@g@h@i@j@k@l@m@n@o@p@q@. . . . r@s@t@u@v@w@x@y@z@A@B@C@D@5@. . . . . . . . . . . ",
". . . . . . . . . E@F@G@H@I@J@K@L@M@N@O@P@Q@R@S@. . . . T@U@V@W@X@Y@Z@. `@ #.#+#@#. . . . . . . . . . . . ",
". . . . . . . . . ##$#%#&#*#=#-#;#>#,#'#)#!#~#{#. . . . ]#^#/#(#_#:#<#. [#}#|#1#2#. . . . . . . . . . . . ",
". . . . . . . . . 3#4#5#6#7#8#9#0#a#b#c#d#e#f#g#. . . h#i#j#k#l#m#n#o#. p#q#r#s#t#. . . . . . . . . . . . ",
". . . . . . . . . u#v#w#x#y#z#A#B#C#D#E#F#G#H#I#J#K#L#M#N#O#P#Q#R#S#. . T#U#V#W#X#. . . . . . . . . . . . ",
". . . . . . . . . Y#Z#`# $.$+$@$#$$$%$&$*$=$-$;$>$,$'$)$!$~${$]$^$. . /$($_$:$<$n . . . . . . . . . . . . ",
". . . . . . . . . . [$}$|$1$2$3$4$5$6$7$8$9$0$a$b$c$d$e$f$g$h$i$. . j$k$l$m$n$. . . . . . . . . . . . . . ",
". . . . . . . . . . o$p$q$r$s$t$u$v$w$x$y$z$A$B$C$D$E$F$G$H$I$. . B#J$K$L$M$N$. . . . . . . . . . . . . . ",
". . . . . . . . . . . O$P$Q$R$S$T$U$V$W$X$Y$Z$`$ %.%+%@%#%. . . $%x@%%&%. *%. . . . . . . . . . . . . . . ",
". . . . . . . . . . . 3 . =%-%;%>%,%'%)%!%~%S@{%]%^%*%. . . /%(%_%:%<%[%. . . . . . . . . . . . . . . . . ",
". . . . . . . . . . . . . }%|%1%2%3%4%5%6%7%8%9%0%a%b%c%d%e%f%g%h%i%*%. . . . . . . . . . . . . . . . . . ",
". . . . . . . . . . . . . . j%k%l%m%n%o%p%q%r%s%t%u%v%w%x%y%z%A%B%/%. . . . . . . . . . . . . . . . . . . ",
". . . . . . . . . . . . . . . . C%D%E%F%G%H%I%J%K%L%M%N%O%P%&@. . . . . . . . . . . . . . . . . . . . . . ",
". . . . . . . . . . . . . . . . . . ~%Q%. R%S%T%U%V%W%X%. . . . . . . . . . . . . . . . . . . . . . . . . ",
". . . . . . . . . . . . . . . . . . . . . . . . u+. . . . . . . . . . . . . . . . . . . . . . . . . . . . ",
". . . . . . . . . . . . . . . . . . . . . . . . . . . . . . . . . . . . . . . . . . . . . . . . . . . . . ",
". . . . . . . . . . . . . . . . . . . . . . . . . . . . . . . . . . . . . . . . . . . . . . . . . . . . . ",
". . . . . . . . . . . . . . . . . . . . . . . . . . . . . . . . . . . . . . . . . . . . . . . . . . . . . ",
". . . . . . . . . . . . . . . . . . . . . . . . . . . . . . . . . . . . . . . . . . . . . . . . . . . . . ",
". . . . . . . . . . . . . . . . . . . . . . . . . . . . . . . . . . . . . . . . . . . . . . . . . . . . . ",
". . . . . . . . . . . . . . . . . . . . . . . . . . . . . . . . . . . . . . . . . . . . . . . . . . . . . ",
". . . . . . . . . . . . . . . . . . . . . . . . . . . . . . . . . . . . . . . . . . . . . . . . . . . . . "};
