/* XPM */
static char * inter_xpm[] = {
"40 44 2 1",
" 	c None",
".	c #000000",
"                                        ",
"                                        ",
"                                        ",
"                                        ",
"                                        ",
"                                        ",
"                                        ",
"                                        ",
"                                        ",
"                                        ",
"          ..................            ",
"          ..................            ",
"          ..................            ",
"          ..................            ",
"          ..................            ",
"          ..................            ",
"          ..................            ",
"          ..................            ",
"          ..................            ",
"          ..................            ",
"          ..................            ",
"          ..................            ",
"          ..................            ",
"          ..................            ",
"          ..................            ",
"          ..................            ",
"          ..................            ",
"          ..................            ",
"          ..................            ",
"          ..................            ",
"          ..................            ",
"          ..................            ",
"          ..................            ",
"          ..................            ",
"                                        ",
"                                        ",
"                                        ",
"                                        ",
"                                        ",
"                                        ",
"                                        ",
"                                        ",
"                                        ",
"                                        "};
