/* XPM */
static char * posnummodule_xpm[] = {
"40 40 605 2",
"  	c None",
". 	c #FFFFFF",
"+ 	c #FFFFFC",
"@ 	c #FCFEFF",
"# 	c #FEFCFF",
"$ 	c #FBFFFE",
"% 	c #FAFDFE",
"& 	c #FDFEFE",
"* 	c #FBEAE3",
"= 	c #FCEAE9",
"- 	c #F9FEFE",
"; 	c #FEFFFF",
"> 	c #FEFBFD",
", 	c #FFFCFF",
"' 	c #FBFCFD",
") 	c #FEFCFE",
"! 	c #F7FDFF",
"~ 	c #FCFDFC",
"{ 	c #FFFCFC",
"] 	c #FCFDFF",
"^ 	c #FCFFFF",
"/ 	c #FBFFFF",
"( 	c #FBFCFF",
"_ 	c #FBFEFE",
": 	c #FDFBFD",
"< 	c #FDFBFB",
"[ 	c #FDFDFD",
"} 	c #FDFDFE",
"| 	c #FDFCFF",
"1 	c #FCFCFF",
"2 	c #F9FBF9",
"3 	c #FCFAFD",
"4 	c #F4FDFB",
"5 	c #F7F9FA",
"6 	c #FEE9E5",
"7 	c #F98986",
"8 	c #F32529",
"9 	c #FD5D61",
"0 	c #F7F6F5",
"a 	c #F3FDFB",
"b 	c #F4FBFB",
"c 	c #FBCFCD",
"d 	c #F8C3C0",
"e 	c #FAC1C1",
"f 	c #F7CAC4",
"g 	c #FFFBFD",
"h 	c #F7F2F1",
"i 	c #FCC3C4",
"j 	c #FCC4BE",
"k 	c #FCC2C1",
"l 	c #FEC2C0",
"m 	c #F4C6C1",
"n 	c #F5F5F1",
"o 	c #FCFCFD",
"p 	c #F8FDFD",
"q 	c #F5F5F2",
"r 	c #F8C4C0",
"s 	c #FCC6C1",
"t 	c #F9D7D5",
"u 	c #FAFAFE",
"v 	c #FDFCFE",
"w 	c #FEFBFF",
"x 	c #F6FCFD",
"y 	c #FBE7E6",
"z 	c #F97F80",
"A 	c #F01E23",
"B 	c #F60704",
"C 	c #F70703",
"D 	c #EF0A07",
"E 	c #F7C3C6",
"F 	c #FEFEFF",
"G 	c #FCF9FB",
"H 	c #FBE1E1",
"I 	c #F71E26",
"J 	c #F70B0E",
"K 	c #F80B0A",
"L 	c #FB606E",
"M 	c #FDFCFB",
"N 	c #FCE8ED",
"O 	c #FA2532",
"P 	c #FB080A",
"Q 	c #F90A11",
"R 	c #F70A0C",
"S 	c #FA0A13",
"T 	c #F9B9B4",
"U 	c #F7FEFE",
"V 	c #FDFAFD",
"W 	c #FBFBFC",
"X 	c #F9B8B1",
"Y 	c #F60D11",
"Z 	c #F40908",
"` 	c #F79495",
" .	c #FCFCFE",
"..	c #F9FDFA",
"+.	c #F6FFFD",
"@.	c #F9D7DA",
"#.	c #F61113",
"$.	c #F90502",
"%.	c #F90302",
"&.	c #FA0305",
"*.	c #FB0203",
"=.	c #F44346",
"-.	c #FBF4F2",
";.	c #FEFEFE",
">.	c #FAFEFC",
",.	c #F37C7A",
"'.	c #F70603",
").	c #F80401",
"!.	c #F91E20",
"~.	c #EFDED9",
"{.	c #FFFDFE",
"].	c #F9FEFC",
"^.	c #F4655E",
"/.	c #FC0400",
"(.	c #F80201",
"_.	c #F90501",
":.	c #FB0202",
"<.	c #F96D6F",
"[.	c #F8FDF8",
"}.	c #FBFBFD",
"|.	c #F6FCF7",
"1.	c #F36E69",
"2.	c #F80300",
"3.	c #FD0A0A",
"4.	c #FBD5D4",
"5.	c #FCFDFA",
"6.	c #F9FEFD",
"7.	c #FFFCFD",
"8.	c #FBFEFA",
"9.	c #F47F7D",
"0.	c #FA0303",
"a.	c #F80301",
"b.	c #FA0201",
"c.	c #FC0302",
"d.	c #FC0303",
"e.	c #F7A2A2",
"f.	c #FCFDF8",
"g.	c #FADFE0",
"h.	c #F8171A",
"i.	c #F80202",
"j.	c #F70605",
"k.	c #F29F9C",
"l.	c #FAF6FB",
"m.	c #FAFEFE",
"n.	c #FBFCFA",
"o.	c #F3B6B5",
"p.	c #F80608",
"q.	c #FD0205",
"r.	c #FC0102",
"s.	c #F90402",
"t.	c #F52F2E",
"u.	c #F7F5F0",
"v.	c #F8FCF7",
"w.	c #FBEDEC",
"x.	c #FC2329",
"y.	c #F50504",
"z.	c #F13F43",
"A.	c #F7F8F7",
"B.	c #FBFDFA",
"C.	c #FAE3E0",
"D.	c #F5292B",
"E.	c #F90200",
"F.	c #FD0000",
"G.	c #FE0000",
"H.	c #FA292D",
"I.	c #F9E6E3",
"J.	c #F8F8F9",
"K.	c #F9787B",
"L.	c #F93D3E",
"M.	c #FDF0F1",
"N.	c #FAFBFC",
"O.	c #FDFFFF",
"P.	c #FBFDFC",
"Q.	c #FAECEA",
"R.	c #F82727",
"S.	c #FC0100",
"T.	c #FB0C0D",
"U.	c #FACBCE",
"V.	c #FAFAF7",
"W.	c #F5C6C5",
"X.	c #F80808",
"Y.	c #F90307",
"Z.	c #FB8784",
"`.	c #FDFBFC",
" +	c #FEFDFE",
".+	c #F8FAFA",
"++	c #F79E9E",
"@+	c #F90603",
"#+	c #FD0402",
"$+	c #FB8180",
"%+	c #EFD7D2",
"&+	c #F81916",
"*+	c #F80501",
"=+	c #F61212",
"-+	c #FBBFB8",
";+	c #FBFAFE",
">+	c #F9FEFB",
",+	c #FFFEFF",
"'+	c #F9F9F8",
")+	c #F86C6C",
"!+	c #FD0300",
"~+	c #FB0103",
"{+	c #F48E8C",
"]+	c #F87D7A",
"^+	c #FB0304",
"/+	c #FC0C14",
"(+	c #FCD0CB",
"_+	c #FAFEFD",
":+	c #FCFDFD",
"<+	c #FEFDFD",
"[+	c #FCFBFB",
"}+	c #FDF0EF",
"|+	c #F13B3C",
"1+	c #FE0100",
"2+	c #FB0402",
"3+	c #FA1619",
"4+	c #FB5852",
"5+	c #F60503",
"6+	c #F76D6C",
"7+	c #F9F8F7",
"8+	c #F7FCFC",
"9+	c #FCFCF9",
"0+	c #F8FEFD",
"a+	c #FABBBD",
"b+	c #FB0404",
"c+	c #FA4947",
"d+	c #F8F5F3",
"e+	c #FA3231",
"f+	c #F60606",
"g+	c #F53537",
"h+	c #F9F4F2",
"i+	c #FFFDFD",
"j+	c #FFFEFC",
"k+	c #FDFAF8",
"l+	c #F6B3B2",
"m+	c #FA0A0E",
"n+	c #F80209",
"o+	c #F60803",
"p+	c #FC0000",
"q+	c #FD0201",
"r+	c #F60501",
"s+	c #F72526",
"t+	c #F8E5D9",
"u+	c #FCFEFD",
"v+	c #FFFEFD",
"w+	c #FDFEFC",
"x+	c #FAFAFD",
"y+	c #F6F2EC",
"z+	c #F42328",
"A+	c #FA0204",
"B+	c #F40501",
"C+	c #F70403",
"D+	c #FA0B10",
"E+	c #F9C1BC",
"F+	c #F70C10",
"G+	c #F50403",
"H+	c #FA7578",
"I+	c #FBFCFB",
"J+	c #FFFEFE",
"K+	c #FFFFFE",
"L+	c #FEFCFB",
"M+	c #F6FEFE",
"N+	c #F6F8F4",
"O+	c #FC5257",
"P+	c #F80801",
"Q+	c #F80606",
"R+	c #FA0707",
"S+	c #FC9A9D",
"T+	c #F2FBFA",
"U+	c #FFFCFE",
"V+	c #FEFDFC",
"W+	c #F8FCFD",
"X+	c #F66F6D",
"Y+	c #F90202",
"Z+	c #FA0301",
"`+	c #FA0402",
" @	c #FC0405",
".@	c #F6484B",
"+@	c #F80303",
"@@	c #F70506",
"#@	c #F9C5C0",
"$@	c #FAFEFF",
"%@	c #F8FEFB",
"&@	c #FEFBFE",
"*@	c #F8CFCB",
"=@	c #F81411",
"-@	c #F60506",
";@	c #F91E1D",
">@	c #F8F1E9",
",@	c #F6FAFC",
"'@	c #F7FFFE",
")@	c #F5BEBB",
"!@	c #F90806",
"~@	c #FD0304",
"{@	c #F70503",
"]@	c #FA0407",
"^@	c #FA0500",
"/@	c #F52025",
"(@	c #FAF3EF",
"_@	c #FCFDFE",
":@	c #FCFCFB",
"<@	c #FBFDFB",
"[@	c #F6F9FB",
"}@	c #F97675",
"|@	c #F60603",
"1@	c #FD0001",
"2@	c #F70807",
"3@	c #F7A6A8",
"4@	c #FBF8FA",
"5@	c #FDFFFE",
"6@	c #FAFCFE",
"7@	c #F9FBFC",
"8@	c #FAFCFB",
"9@	c #FAF0EF",
"0@	c #F82C29",
"a@	c #F90404",
"b@	c #FA0304",
"c@	c #FC0200",
"d@	c #F90205",
"e@	c #F66C65",
"f@	c #F9FCFB",
"g@	c #FFFDFC",
"h@	c #FAFEFB",
"i@	c #F8FCF8",
"j@	c #F7F6FB",
"k@	c #F97775",
"l@	c #F90406",
"m@	c #FB0204",
"n@	c #FA0205",
"o@	c #F90305",
"p@	c #F52A2E",
"q@	c #F8EDE6",
"r@	c #FDFAFB",
"s@	c #F6FEF9",
"t@	c #FDFDFC",
"u@	c #FBFDFD",
"v@	c #FBFAFB",
"w@	c #FA7577",
"x@	c #FA0400",
"y@	c #F80304",
"z@	c #FA0202",
"A@	c #FC0608",
"B@	c #F8B5B4",
"C@	c #FBFBFE",
"D@	c #FCFAFF",
"E@	c #F7CCC6",
"F@	c #F61210",
"G@	c #FA0502",
"H@	c #FC0204",
"I@	c #F20505",
"J@	c #F70203",
"K@	c #F68382",
"L@	c #FBFCFC",
"M@	c #FDF9FE",
"N@	c #F8FAFB",
"O@	c #FCFAFC",
"P@	c #FDFAF5",
"Q@	c #F9F9FA",
"R@	c #F8FAFD",
"S@	c #F9FDFC",
"T@	c #FBCCC5",
"U@	c #F80402",
"V@	c #FC0201",
"W@	c #FB1E21",
"X@	c #FEEDE7",
"Y@	c #F9F7F5",
"Z@	c #F9494E",
"`@	c #F10C11",
" #	c #FA2028",
".#	c #FB0201",
"+#	c #F70204",
"@#	c #F40500",
"##	c #F61920",
"$#	c #F9DAD5",
"%#	c #F6FDFE",
"&#	c #FDFCFD",
"*#	c #FEFBF6",
"=#	c #F4FDFD",
"-#	c #FAF6F6",
";#	c #F8DEDA",
">#	c #FAE9E5",
",#	c #F5FAFB",
"'#	c #F8F6F4",
")#	c #FA2B31",
"!#	c #FB0102",
"~#	c #F65F62",
"{#	c #F5FBFA",
"]#	c #FAFDFC",
"^#	c #F9FAFA",
"/#	c #F7FBFB",
"(#	c #F7ABAE",
"_#	c #FA080C",
":#	c #FA0404",
"<#	c #F45758",
"[#	c #F9ABA3",
"}#	c #FA090B",
"|#	c #F20201",
"1#	c #FA0405",
"2#	c #F90506",
"3#	c #F45F67",
"4#	c #F5FDF7",
"5#	c #F8FDFC",
"6#	c #F9EFE9",
"7#	c #F56461",
"8#	c #F31110",
"9#	c #F83233",
"0#	c #F5BEB8",
"a#	c #FBFFFD",
"b#	c #FDFEFB",
"c#	c #F5FBFD",
"d#	c #FC7C7C",
"e#	c #FB0403",
"f#	c #F90300",
"g#	c #F70708",
"h#	c #F5ADAB",
"i#	c #F4FCFF",
"j#	c #F7ECE9",
"k#	c #F92F34",
"l#	c #FA0401",
"m#	c #FB070A",
"n#	c #F8C5BF",
"o#	c #FAF3F4",
"p#	c #F45256",
"q#	c #F80404",
"r#	c #F70C0D",
"s#	c #F7C6C6",
"t#	c #F8FAF9",
"u#	c #FAA7A4",
"v#	c #FB0505",
"w#	c #FC332F",
"x#	c #F9FCF9",
"y#	c #F8C7C9",
"z#	c #FD0B0A",
"A#	c #FC1C1E",
"B#	c #FCE8E6",
"C#	c #F8F8FC",
"D#	c #F67F7F",
"E#	c #FB0506",
"F#	c #FA0503",
"G#	c #FA4546",
"H#	c #F7FBF9",
"I#	c #F8CBC7",
"J#	c #F90F13",
"K#	c #FD0100",
"L#	c #FC484C",
"M#	c #F4F1F5",
"N#	c #F9FCFC",
"O#	c #FC6D6E",
"P#	c #FB0401",
"Q#	c #FB0207",
"R#	c #F9070B",
"S#	c #FEFEFB",
"T#	c #F7DBD3",
"U#	c #FA0E0D",
"V#	c #F85755",
"W#	c #FFFAF8",
"X#	c #F8D2CB",
"Y#	c #FD191D",
"Z#	c #F90403",
"`#	c #F5090C",
" $	c #F9B2B0",
".$	c #FDFBFE",
"+$	c #FCFAFA",
"@$	c #F9696E",
"#$	c #F70809",
"$$	c #F5AAAA",
"%$	c #FDFAFC",
"&$	c #F8807F",
"*$	c #FA0302",
"=$	c #F50502",
"-$	c #FB1516",
";$	c #FDFFFD",
">$	c #FDFDFB",
",$	c #F9FAFE",
"'$	c #FE9998",
")$	c #FC0404",
"!$	c #FBA0A0",
"~$	c #FCFEFE",
"{$	c #FFFAFD",
"]$	c #FB5152",
"^$	c #FE0205",
"/$	c #F73D41",
"($	c #FCFDFB",
"_$	c #FBDBDB",
":$	c #FA1E21",
"<$	c #F80400",
"[$	c #FB0100",
"}$	c #F80603",
"|$	c #F74750",
"1$	c #F8F6F6",
"2$	c #FBCBC7",
"3$	c #F61618",
"4$	c #F90401",
"5$	c #F42E2D",
"6$	c #FEFDFA",
"7$	c #F1F9F9",
"8$	c #FC5956",
"9$	c #F60C09",
"0$	c #FAE6E1",
"a$	c #F9FEFF",
"b$	c #FDFCFC",
"c$	c #F6EAEF",
"d$	c #FC8585",
"e$	c #FB7C7C",
"f$	c #FD7D7E",
"g$	c #FBBEBB",
"h$	c #F4FFFA",
"i$	c #FCFBFE",
"j$	c #FCFCFC",
"k$	c #F78988",
"l$	c #F4090E",
"m$	c #F72D31",
"n$	c #FC6567",
"o$	c #F7B1AC",
"p$	c #F9DFDE",
"q$	c #FBF8F6",
"r$	c #F2FBF7",
"s$	c #FABFBD",
"t$	c #F96769",
"u$	c #F62421",
"v$	c #F7474B",
"w$	c #FEFEFC",
"x$	c #FBEFED",
"y$	c #F7191A",
"z$	c #F74340",
"A$	c #F8FDFB",
"B$	c #F9FCFF",
"C$	c #F7D2CB",
"D$	c #F5F6FA",
"E$	c #F8FCFE",
"F$	c #F9FDFB",
"G$	c #FCF7F7",
"H$	c #FDF9FD",
"I$	c #F9FAF9",
"J$	c #F95654",
"K$	c #FB5D5D",
"L$	c #FBB1B2",
"M$	c #F70505",
"N$	c #FA9494",
"O$	c #F8FDFF",
"P$	c #FCFBFC",
"Q$	c #F8FDF9",
"R$	c #FEFAFF",
"S$	c #FBFEFF",
"T$	c #F7FCF9",
"U$	c #F2FCFF",
"V$	c #F5FEFA",
"W$	c #FCFCF6",
"X$	c #FBFDF5",
"Y$	c #F2FEFC",
"Z$	c #F6FDFA",
"`$	c #FAFCF6",
" %	c #F3FBF8",
".%	c #F95858",
"+%	c #FD766F",
"@%	c #FDFEFF",
"#%	c #FDF8F6",
"$%	c #FA4D52",
"%%	c #F50601",
"&%	c #F41919",
"*%	c #FBDADA",
"=%	c #FFFDFF",
"-%	c #FBFEFD",
";%	c #FEFDFF",
">%	c #FAFFFE",
",%	c #FFFDFB",
"'%	c #FDFDFF",
")%	c #F35A56",
"!%	c #F49797",
"~%	c #FAFDFD",
"{%	c #FFFAF9",
"]%	c #F6A9A8",
"^%	c #F90C0E",
"/%	c #F8686B",
"(%	c #F7FEFB",
"_%	c #F7FAFB",
":%	c #FAACB9",
"<%	c #F6BBB4",
"[%	c #FB6563",
"}%	c #F6847B",
"|%	c #F45F5E",
"1%	c #F91317",
"2%	c #EE0A04",
"3%	c #FC1D26",
"4%	c #FCD9D1",
"5%	c #FAFAFC",
"6%	c #F9F4F0",
"7%	c #F42D2C",
"8%	c #F90604",
"9%	c #F71C1F",
"0%	c #FAB4B2",
"a%	c #F7FDFB",
"b%	c #FCFAFE",
"c%	c #F9FDF4",
"d%	c #FCF7FD",
"e%	c #F6CBC7",
"f%	c #FB7E82",
"g%	c #F85861",
"h%	c #F7767E",
"i%	c #F7CCC9",
"j%	c #F2FCF9",
"k%	c #FEF8FB",
"l%	c #FCFFFD",
"m%	c #FEFFFC",
"n%	c #FDFFFC",
". . . . . . . . . . . . . . . . . . . . . . . . . . . . . . . . . . . . . . . . ",
". . . . . . . . . . . . . . . . . . . . . . . . . . . . . . . . . . . . . . . . ",
". . . . . . . . . . . . . . . . . . . . . . . . . . . . . . . . . . . . . . . . ",
". . . . . . . . . . . . . . . . . . . . . . . . . . . . . . . . . . . . . . . . ",
". . . . . . . . . . . . . . . . . . . . . . . . . . . . . . . . . . . . . . . . ",
". . . . . . . . . . . . . . . . . . . . . . . . . . . . . . . . . . . . . . . . ",
". . . . . . . . . . . . . . . . . . . . . . . . . . . . . . . . . . . . . . . . ",
"+ @ # $ % & * = - ; . . > , ' ) ! ~ ; . . . . . { ] ^ / ( _ : < [ } | @ 1 % _ ^ ",
"2 3 4 5 6 7 8 9 0 [ . . a b c d e f g . . . . . h i j k l m n o ' p q r s t u v ",
"w x y z A B C D E F . . G H I J K L M . . . . . N O P Q R S T U V W X Y Z `  ...",
"~ +.@.#.$.%.&.*.=.-.. ;.>.,.'.).!.~.{.. . . . . ].^./.(._.:.<.[.}.|.1.2.3.4.5.6.",
">.7.8.9.0.a.b.c.d.e.~ f.g.h.i.j.k.l.m.. . . . . n.o.p.q.r.s.t.u.v.w.x.y.z.A.B.} ",
". . . C.D.E.F.G.G.H.I.J.K.2.c.L.M.N.O.. . . . . P.Q.R.S.G.G.T.U.V.W.X.Y.Z.`._  +",
". . . .+++@+G.G.G.#+$+%+&+*+=+-+;+>+,+. . . . . ] '+)+!+G.G.~+{+}.]+^+/+(+_+:+<+",
". . . [+}+|+1+G.G.2+3+4+5+5+6+7+8+9+; . . . . . v 0+a+b+G.G.:.c+d+e+f+g+h+} i+j+",
". . . k+].l+m+n+o+:.p+q+r+s+t+) u+v+; . . . . . w+x+y+z+A+B+C+D+E+F+G+H+I+,+J+K+",
". . . L+M+N+O+P+Q+1+G.G.R+S+T+U+. . . . . . . . V+W+< X+Y+Z+`+ @.@+@@@#@$@. . . ",
". . . %@&@ .*@=@-@S.G.G.;@>@,@J+. . . . . . . . M '@w )@!@~@(.{@]@^@/@(@# . . . ",
". . . _@:@<@[@}@|@1@G.G.2@3@4@5@. . . . . . . . 6@7@8@9@0@a@q+b@c@d@e@f@g@. . . ",
". . . :+h@i@j@k@l@m@n@o@{@p@q@r@s@t@6@' u@7@v v@6.. . [ w@x@y@2+z@A@B@ .~ . . . ",
". . . :@C@D@E@F@o@b.G@H@I@J@K@L@M@6.N@O@P@Q@R@S@8@. . / T@@@b+U@V@W@X@%@' . . . ",
". . . L+U Y@Z@d.`@ #.#y@+#@###$#%#&#*#=#-#;#>#,#w . . {.'#)#!#).d.~#{#]#_@. . . ",
". . . ^#/#(#_#:#<#[#}#|#{@1#2#3#4#4@5#6#7#8#9#0#a#. . b#c#d#e#f#g#h#i#< _ . . . ",
". . . `.j#k#l#m#n#o#p#q#r.G.G.r#s#t#V u#v#y@&.w#_ . . _@x#y#z#`+A#B#. . . . . . ",
". . . C#D#E#F#G#H#W+I#J#K#G.G.d.L#M#N#O#P#Q#a@R#S#. . o x+T#U#P#V#W#. . . . . . ",
". . . X#Y#Z#`# $.$u@+$@$:.G.G..##$$$%$&$*$q#=$-$;$. . >$,$'$)$P#!$_@. . . . . . ",
"; ~${$]$0.^$/$u.($t@%@_$:$<$[$}$A+|$1$2$3$4$m@5$g@. . 6$7$8$l@9$0$a$. . . . . . ",
"b$~$c$d$e$f$g$h$i$; . j$k$l$m$n$o$p$q$r$s$t$u$v$h@. . w$x$y$m@z$8@;$. . . . . . ",
"U+:+&#&@U+U+A$B$p ,+;.. w.C$w.D$E$F$G$H$N#I$J$K$$@. . u@L$M$*$N$O$<+. . . . . . ",
"P$;.& h@h@Q$v R$S$; . . u T$U$V$W$X$Y$Z$`$ %.%+%@%. . #%$%%%&%*%v # . . . . . . ",
"O.. . =%, , ]#-%;%. . . >%,%;%U+/ O.U+=%'%r@)%!%~%) {%]%^%s./%(%<@O.. . . . . . ",
". . . . . . . . . . . . . . . . . . . . . _%:%<%[%}%|%1%2%3%4%. ;.. . . . . . . ",
". . . . . . . . . . . . . . . . . . . . . 5%7@6%7%*$c.8%9%0%a%. ;.. . . . . . . ",
". . . . . . . . . . . . . . . . . . . . . b%c%d%e%f%g%h%i%j%k%;.. . . . . . . . ",
". . . . . . . . . . . . . . . . . . . . . @%_ ;.g@l%m%n%% ^ ,+. . . . . . . . . ",
". . . . . . . . . . . . . . . . . . . . . . . . . . . . . . . . . . . . . . . . ",
". . . . . . . . . . . . . . . . . . . . . . . . . . . . . . . . . . . . . . . . ",
". . . . . . . . . . . . . . . . . . . . . . . . . . . . . . . . . . . . . . . . ",
". . . . . . . . . . . . . . . . . . . . . . . . . . . . . . . . . . . . . . . . ",
". . . . . . . . . . . . . . . . . . . . . . . . . . . . . . . . . . . . . . . . "};
