/* XPM */
static char * color2numbermodule_xpm[] = {
"40 40 593 2",
"  	c None",
". 	c #000000",
"+ 	c #010001",
"@ 	c #000201",
"# 	c #040100",
"$ 	c #060000",
"% 	c #010100",
"& 	c #000100",
"* 	c #030000",
"= 	c #000101",
"- 	c #040000",
"; 	c #020002",
"> 	c #020106",
", 	c #020202",
"' 	c #000200",
") 	c #010006",
"! 	c #010002",
"~ 	c #000007",
"{ 	c #000006",
"] 	c #060301",
"^ 	c #030204",
"/ 	c #010409",
"( 	c #01020A",
"_ 	c #010007",
": 	c #020008",
"< 	c #010309",
"[ 	c #060100",
"} 	c #010103",
"| 	c #030202",
"1 	c #050402",
"2 	c #010204",
"3 	c #010109",
"4 	c #010602",
"5 	c #050309",
"6 	c #02040A",
"7 	c #020508",
"8 	c #030508",
"9 	c #030402",
"0 	c #070401",
"a 	c #07030A",
"b 	c #020107",
"c 	c #020203",
"d 	c #070408",
"e 	c #120202",
"f 	c #320302",
"g 	c #590301",
"h 	c #6A0201",
"i 	c #680101",
"j 	c #560400",
"k 	c #1D0503",
"l 	c #080107",
"m 	c #030105",
"n 	c #090308",
"o 	c #040105",
"p 	c #060300",
"q 	c #070B09",
"r 	c #071E08",
"s 	c #042604",
"t 	c #042905",
"u 	c #092206",
"v 	c #0B1209",
"w 	c #03050A",
"x 	c #040304",
"y 	c #040200",
"z 	c #090201",
"A 	c #540502",
"B 	c #B70504",
"C 	c #E60505",
"D 	c #F80404",
"E 	c #F90302",
"F 	c #F90402",
"G 	c #F60301",
"H 	c #DC030B",
"I 	c #9A0301",
"J 	c #380201",
"K 	c #070704",
"L 	c #031501",
"M 	c #046305",
"N 	c #04AF05",
"O 	c #04E206",
"P 	c #03F703",
"Q 	c #03FA04",
"R 	c #05EC07",
"S 	c #05CE09",
"T 	c #048605",
"U 	c #052808",
"V 	c #030103",
"W 	c #030104",
"X 	c #020101",
"Y 	c #1A0204",
"Z 	c #9C0200",
"` 	c #F30101",
" .	c #FE0101",
"..	c #FC0000",
"+.	c #FD0100",
"@.	c #FE0000",
"#.	c #FD0000",
"$.	c #F90303",
"%.	c #DE0602",
"&.	c #6B3806",
"*.	c #0FB804",
"=.	c #01F604",
"-.	c #06FC03",
";.	c #04FE02",
">.	c #00FF01",
",.	c #02FE02",
"'.	c #03FD01",
").	c #01FF03",
"!.	c #08DC0B",
"~.	c #046E02",
"{.	c #010F01",
"].	c #050206",
"^.	c #070102",
"/.	c #0A0404",
"(.	c #AA0602",
"_.	c #FA0205",
":.	c #F30405",
"<.	c #F60305",
"[.	c #F73C04",
"}.	c #EFDA04",
"|.	c #6DFC01",
"1.	c #04FD01",
"2.	c #0EFA06",
"3.	c #00FF02",
"4.	c #00FE01",
"5.	c #02FE05",
"6.	c #04FE07",
"7.	c #08F204",
"8.	c #088306",
"9.	c #070A04",
"0.	c #000903",
"a.	c #060200",
"b.	c #860308",
"c.	c #FC0600",
"d.	c #FB0301",
"e.	c #FB270D",
"f.	c #F7D304",
"g.	c #FDFA07",
"h.	c #ECFD03",
"i.	c #45FB07",
"j.	c #01FD05",
"k.	c #00FF03",
"l.	c #03FB0A",
"m.	c #03F700",
"n.	c #056C06",
"o.	c #08040C",
"p.	c #010000",
"q.	c #360404",
"r.	c #E90203",
"s.	c #F70302",
"t.	c #FB0101",
"u.	c #F80904",
"v.	c #F89702",
"w.	c #FBFB09",
"x.	c #FDFD07",
"y.	c #FAFB02",
"z.	c #BCFD02",
"A.	c #16FB05",
"B.	c #01FF04",
"C.	c #01FF00",
"D.	c #01FD01",
"E.	c #05FE03",
"F.	c #04FA08",
"G.	c #08E105",
"H.	c #082D06",
"I.	c #010201",
"J.	c #040102",
"K.	c #030102",
"L.	c #860305",
"M.	c #F70409",
"N.	c #F70400",
"O.	c #F80400",
"P.	c #FB2302",
"Q.	c #F9E506",
"R.	c #F9FE03",
"S.	c #FFFE04",
"T.	c #FCFE06",
"U.	c #EEFD01",
"V.	c #42FE02",
"W.	c #07FE01",
"X.	c #05FE06",
"Y.	c #04FC03",
"Z.	c #067B08",
"`.	c #050102",
" +	c #010401",
".+	c #020000",
"++	c #010301",
"@+	c #060203",
"#+	c #0B0201",
"$+	c #C60303",
"%+	c #FA0201",
"&+	c #F90500",
"*+	c #FD0202",
"=+	c #FC6001",
"-+	c #FEFB05",
";+	c #FDFE01",
">+	c #FFFD03",
",+	c #FDFE03",
"'+	c #FBFD01",
")+	c #7BFE05",
"!+	c #01FE01",
"~+	c #05FD04",
"{+	c #03FD02",
"]+	c #03CB0A",
"^+	c #010800",
"/+	c #050103",
"(+	c #010101",
"_+	c #080203",
":+	c #220503",
"<+	c #DF0104",
"[+	c #FC0102",
"}+	c #FE0303",
"|+	c #FC0201",
"1+	c #FE0100",
"2+	c #FA8F06",
"3+	c #FBFC06",
"4+	c #FBFE03",
"5+	c #FBFD00",
"6+	c #FAFD04",
"7+	c #FFFC01",
"8+	c #A4FE0B",
"9+	c #01FF01",
"0+	c #01FE06",
"a+	c #03FD05",
"b+	c #01FE07",
"c+	c #03EB04",
"d+	c #031905",
"e+	c #010102",
"f+	c #070000",
"g+	c #020703",
"h+	c #090203",
"i+	c #2A0604",
"j+	c #E10407",
"k+	c #F50404",
"l+	c #FA0203",
"m+	c #F90301",
"n+	c #FBA306",
"o+	c #FAFC08",
"p+	c #F9FB06",
"q+	c #F9FD01",
"r+	c #FAFE09",
"s+	c #FEFC02",
"t+	c #B1FF0C",
"u+	c #04FB04",
"v+	c #03FC0A",
"w+	c #07F202",
"x+	c #052608",
"y+	c #060005",
"z+	c #010302",
"A+	c #010603",
"B+	c #070103",
"C+	c #1E0403",
"D+	c #DC0202",
"E+	c #F90100",
"F+	c #FB0503",
"G+	c #FB0001",
"H+	c #FD9B05",
"I+	c #FAF903",
"J+	c #FCFC04",
"K+	c #FCFE02",
"L+	c #FBFE04",
"M+	c #FFFD01",
"N+	c #A2FE09",
"O+	c #02FF01",
"P+	c #03FD03",
"Q+	c #08FD04",
"R+	c #01F101",
"S+	c #041F05",
"T+	c #050005",
"U+	c #000300",
"V+	c #010404",
"W+	c #030001",
"X+	c #0A0201",
"Y+	c #C30403",
"Z+	c #FC0301",
"`+	c #FE0104",
" @	c #FB740D",
".@	c #FEFD09",
"+@	c #F9FC05",
"@@	c #FFFE05",
"#@	c #FDFD02",
"$@	c #FAFE00",
"%@	c #73FE03",
"&@	c #02FE01",
"*@	c #01FE02",
"=@	c #04FC04",
"-@	c #04FD00",
";@	c #06DC09",
">@	c #020F02",
",@	c #020004",
"'@	c #020300",
")@	c #000002",
"!@	c #020100",
"~@	c #020200",
"{@	c #810203",
"]@	c #FA0107",
"^@	c #FC0100",
"/@	c #FE0001",
"(@	c #FE0004",
"_@	c #F63D27",
":@	c #F9F631",
"<@	c #F5FD30",
"[@	c #FCFC22",
"}@	c #FAFC0C",
"|@	c #EEFE02",
"1@	c #3DFE06",
"2@	c #00FF04",
"3@	c #03FA02",
"4@	c #03FD09",
"5@	c #0CA50F",
"6@	c #020201",
"7@	c #010105",
"8@	c #070300",
"9@	c #000103",
"0@	c #280103",
"a@	c #E30404",
"b@	c #F60402",
"c@	c #FA0404",
"d@	c #FD0107",
"e@	c #FD0201",
"f@	c #FE010A",
"g@	c #FD0303",
"h@	c #FD0224",
"i@	c #FC0277",
"j@	c #FF01CD",
"k@	c #FA13EC",
"l@	c #FCBDFA",
"m@	c #F9FBF5",
"n@	c #F7FBF6",
"o@	c #FEFAC7",
"p@	c #ADFE7B",
"q@	c #0EFD21",
"r@	c #02FE04",
"s@	c #02FE08",
"t@	c #00FE06",
"u@	c #05FA06",
"v@	c #06F402",
"w@	c #05470A",
"x@	c #76020B",
"y@	c #F80504",
"z@	c #FD0103",
"A@	c #FE000F",
"B@	c #FE0407",
"C@	c #FC0262",
"D@	c #FE00D2",
"E@	c #FF01FA",
"F@	c #FB01F7",
"G@	c #FB04FB",
"H@	c #FA4CF6",
"I@	c #FAEBFA",
"J@	c #F8FBF7",
"K@	c #E0FBF7",
"L@	c #37FEFA",
"M@	c #02F8D5",
"N@	c #01FE5E",
"O@	c #00FF07",
"P@	c #03FE08",
"Q@	c #02FF02",
"R@	c #08F906",
"S@	c #01AA06",
"T@	c #0C0A0A",
"U@	c #040001",
"V@	c #090603",
"W@	c #9B0604",
"X@	c #F10406",
"Y@	c #FE000C",
"Z@	c #FE0309",
"`@	c #FD0367",
" #	c #FE01ED",
".#	c #FD00FB",
"+#	c #FE01F4",
"@#	c #FC01F8",
"##	c #FD01F1",
"$#	c #FC08FC",
"%#	c #F884FD",
"&#	c #E6F3F8",
"*#	c #65FCFD",
"=#	c #05FBF5",
"-#	c #05FFF6",
";#	c #03FEEB",
">#	c #01FF6B",
",#	c #00FE07",
"'#	c #02FE03",
")#	c #06FD06",
"!#	c #03CD03",
"~#	c #022A03",
"{#	c #030603",
"]#	c #000202",
"^#	c #050200",
"/#	c #120403",
"(#	c #8C0405",
"_#	c #F30203",
":#	c #FE0251",
"<#	c #FD02E7",
"[#	c #FC03F8",
"}#	c #F902FF",
"|#	c #F801FC",
"1#	c #FD01FA",
"2#	c #F900F5",
"3#	c #FE05F6",
"4#	c #DA0FFC",
"5#	c #5C84F2",
"6#	c #08F0FA",
"7#	c #03FEFE",
"8#	c #03FCFF",
"9#	c #02FEF9",
"0#	c #03FEE3",
"a#	c #01FE51",
"b#	c #02FC04",
"c#	c #0AC309",
"d#	c #063505",
"e#	c #050305",
"f#	c #040206",
"g#	c #0D0204",
"h#	c #380616",
"i#	c #A702C1",
"j#	c #DC03FC",
"k#	c #F501FB",
"l#	c #FB00FD",
"m#	c #FA00FE",
"n#	c #F200FA",
"o#	c #CE02FE",
"p#	c #8001FA",
"q#	c #1F04F8",
"r#	c #0903F9",
"s#	c #074BFA",
"t#	c #05BFF9",
"u#	c #08F2F7",
"v#	c #07F9FC",
"w#	c #07FDF5",
"x#	c #08FABF",
"y#	c #05FA15",
"z#	c #04F703",
"A#	c #05D805",
"B#	c #077809",
"C#	c #021D01",
"D#	c #020402",
"E#	c #020001",
"F#	c #030100",
"G#	c #050055",
"H#	c #0306F2",
"I#	c #2101F5",
"J#	c #4603F7",
"K#	c #5202F8",
"L#	c #5001F8",
"M#	c #3F03F6",
"N#	c #1502F5",
"O#	c #0403FD",
"P#	c #0405FE",
"Q#	c #0705FA",
"R#	c #0304F9",
"S#	c #0708F5",
"T#	c #0239F9",
"U#	c #0471F6",
"V#	c #0193F4",
"W#	c #0697F5",
"X#	c #03834D",
"Y#	c #045803",
"Z#	c #031A05",
"`#	c #030303",
" $	c #040403",
".$	c #050106",
"+$	c #000205",
"@$	c #020395",
"#$	c #0203FA",
"$$	c #0603FC",
"%$	c #0103FB",
"&$	c #0102FD",
"*$	c #0203FD",
"=$	c #0203FC",
"-$	c #0102FB",
";$	c #0501FD",
">$	c #0902FE",
",$	c #0502FB",
"'$	c #0103FA",
")$	c #0403F9",
"!$	c #0406F9",
"~$	c #0503F7",
"{$	c #0204FA",
"]$	c #0405F6",
"^$	c #060398",
"/$	c #09030E",
"($	c #040502",
"_$	c #050203",
":$	c #020302",
"<$	c #00000C",
"[$	c #0201C2",
"}$	c #0002F6",
"|$	c #0302FA",
"1$	c #0001FD",
"2$	c #0000FC",
"3$	c #0000FE",
"4$	c #0001FE",
"5$	c #0002FD",
"6$	c #0001FC",
"7$	c #0000FD",
"8$	c #0101FC",
"9$	c #0201FC",
"0$	c #0001C0",
"a$	c #01020D",
"b$	c #00000E",
"c$	c #0301CA",
"d$	c #0001FB",
"e$	c #0201F9",
"f$	c #0100FE",
"g$	c #0000CB",
"h$	c #010112",
"i$	c #000005",
"j$	c #00010B",
"k$	c #0302C4",
"l$	c #0201FA",
"m$	c #0201FE",
"n$	c #0100FD",
"o$	c #0001C3",
"p$	c #01010F",
"q$	c #010003",
"r$	c #000105",
"s$	c #0302B0",
"t$	c #0001F9",
"u$	c #0202FB",
"v$	c #0101F9",
"w$	c #0102AB",
"x$	c #010207",
"y$	c #010005",
"z$	c #02026B",
"A$	c #0201F6",
"B$	c #0002F8",
"C$	c #0100FC",
"D$	c #0001F5",
"E$	c #0302F6",
"F$	c #01026C",
"G$	c #000228",
"H$	c #0601DC",
"I$	c #0000F9",
"J$	c #0601D9",
"K$	c #000324",
"L$	c #01020B",
"M$	c #01016F",
"N$	c #0301F6",
"O$	c #0002FB",
"P$	c #0201F4",
"Q$	c #010170",
"R$	c #020204",
"S$	c #020112",
"T$	c #0201A9",
"U$	c #0202EF",
"V$	c #0002FC",
"W$	c #0102F5",
"X$	c #0201A3",
"Y$	c #010210",
"Z$	c #010024",
"`$	c #02019D",
" %	c #0200EE",
".%	c #0102FA",
"+%	c #0003FA",
"@%	c #0301F7",
"#%	c #0301F9",
"$%	c #0301F8",
"%%	c #0202F8",
"&%	c #0002FA",
"*%	c #0101FE",
"=%	c #0201F0",
"-%	c #020296",
";%	c #000417",
">%	c #030003",
",%	c #030002",
"'%	c #01015C",
")%	c #0401C6",
"!%	c #0200EF",
"~%	c #0102FE",
"{%	c #0101FD",
"]%	c #0102F8",
"^%	c #0402F0",
"/%	c #0201C3",
"(%	c #01035C",
"_%	c #01040D",
":%	c #03010C",
"<%	c #010209",
"[%	c #000001",
"}%	c #000104",
"|%	c #020108",
"1%	c #00040C",
"2%	c #010341",
"3%	c #02026E",
"4%	c #03027F",
"5%	c #03017F",
"6%	c #02016E",
"7%	c #01043C",
"8%	c #00040E",
"9%	c #010104",
"0%	c #000109",
"a%	c #00010A",
"b%	c #010203",
". . . . . . . . . . . . . . . . . . . . . . . . . . . . . . . . . . . . . . . . ",
". . . . . . . . . . . . . . . . . . . . . . . . . . . . . . . . . . . . . . . . ",
". . . . . . . . . . . . . . . . . . . . . . . . . . . . . . . . . . . . . . . . ",
". . . . . . . . . . . + @ # $ % & * = - ; > , ' ) ! % & @ ~ { @ & . . . . . . . ",
". . . . . . . . . . % ] ^ / ( _ : < [ } | 1 2 3 4 5 6 7 8 9 0 a b . . . . . . . ",
". . . . . . . . . . c d e f g h i j k l m n o p q r s t u v w x y . . . . . . . ",
". . . . . . . . . . z A B C D E F G H I J K L M N O P Q R S T U V . . . . . . . ",
". . . . . . . W X Y Z `  ...+.@.#.@.$.$.%.&.*.=.-.;.>.>.,.'.).!.~.{.].^.. . . . ",
". . . . . . . | /.(._.@.@.@.@.@.@.@.:.<.[.}.|.1.2.3.>.>.4.5.4.6.7.8.9.0.. . . . ",
". . . . . . . a.b.c.F @.@.@.@.@.@.@.d.e.f.g.h.i.j.>.>.>.>.k.k.>.l.m.n.o.. . . . ",
". . . . & p.+ q.r.s.t.@.@.@.@.@.@.@.u.v.w.x.y.z.A.B.>.>.>.C.5.D.E.F.G.H.+ p.& . ",
". . . % I.J.K.L.M.N.O.@.@.@.@.@.@.@.P.Q.R.S.T.U.V.3.>.>.>.>.>.>.W.X.Y.Z.K.`. +.+",
". . . - ++@+#+$+%+&+*+@.@.@.@.@.@.@.=+-+;+>+,+'+)+!+>.>.>.>.>.>.B.~+{+]+^+/+(+.+",
". . . $ 4 _+:+<+[+}+|+@.@.@.@.@.@.1+2+3+4+5+6+7+8+9+>.>.>.>.>.>.0+a+b+c+d+V e+* ",
". . . f+g+h+i+j+k+l+m+@.@.@.@.@.@.1+n+o+p+q+r+s+t+>.>.>.>.>.>.>.u+j.v+w+x+y+z+- ",
". . . $ A+B+C+D+E+F+G+@.@.@.@.@.@.1+H+I+J+K+L+M+N+O+>.>.>.>.>.>.P+'.Q+R+S+T+U+* ",
". . . .+V+W+X+Y+|+Z+`+@.@.@.@.@.@.1+ @.@+@@@#@$@%@&@>.>.>.>.>.>.*@=@-@;@>@,@'@+ ",
". . . )@c !@~@{@]@^@l+@.@.@.@.@./@(@_@:@<@[@}@|@1@2@>.>.>.>.>.>.3@4@).5@6@7@8@9@",
". . . . . . . 0@a@b@c@d@e@f@g@h@i@j@k@l@m@n@o@p@q@b+r@s@t@>.>.>.;.u@v@w@. . . . ",
". . . . . . . p x@N.y@z@A@B@C@D@E@F@G@H@I@J@K@L@M@N@O@P@5.>.>.>.Q@R@S@T@. . . . ",
". . . . . . . U@V@W@X@Y@Z@`@ #.#+#@###$#%#&#*#=#-#;#>#,#'#>.>.>.)#!#~#{#. . . . ",
". . . . . . . ]#^#/#(#_#:#<#[#}#|#1#2#3#4#5#6#7#8#9#0#a#B.3.>.b#c#d#e#f#. . . . ",
". . . . . . . p.& W+g#h#i#j#k#l#m#n#o#p#q#r#s#t#u#v#w#x#y#z#A#B#C#D#].' . . . . ",
". . . . . . . E#p.. F#G#H#I#J#K#L#M#N#O#P#Q#R#S#T#U#V#W#X#Y#Z#`# $.$W  +. . . . ",
". . . . . . . ' & p.+$@$#$$$%$&$*$=$-$;$>$,$'$)$!$~${$]$^$/$($_$e#++:$(+. . . . ",
". . . . . . . . . . <$[$}$|$1$1$1$2$3$3$4$3$5$6$7$8$|$9$0$a$) 6@} & . + . . . . ",
". . . . . . . . . . b$c$d$e$6$3$3$3$3$3$3$3$3$3$3$f$9$f$g$h$i$6@! . . . . . . . ",
". . . . . . . . . . j$k$6$l$d$3$3$3$3$3$3$3$3$3$3$f$m$n$o$p${ 6@q$. . . . . . . ",
". . . . . . . . . . r$s$t$u$6$3$3$3$3$3$3$3$3$3$3$f$e$v$w$x$i$; y$. . . . . . . ",
". . . . . . . . . . = z$A$B$7$3$3$3$3$3$3$3$3$3$3$C$D$E$F$. . . . . . . . . . . ",
". . . . . . . . . . . G$H$I$4$3$3$3$3$3$3$3$3$3$3$2$-$J$K$. . . . . . . . . . . ",
". . . . . . . . . . + L$M$N$O$3$3$3$3$3$3$3$3$3$3$7$P$Q$m . . . . . . . . . . . ",
". . . . . . . . . . )@R$S$T$U$5$V$d$3$2$2$f$C$2$2$W$X$Y$m . . . . . . . . . . . ",
". . . . . . . . . . . 7@W+Z$`$ %.%+%@%#%$%%%&%*%=%-%;%_ @ . . . . . . . . . . . ",
". . . . . . . . . . & (+>%,%a$'%)%!%I$~%{%]%^%/%(%_%:%e+<%. . . . . . . . . . . ",
". . . . . . . . . . [%(+}%}%f#|%1%2%3%4%5%6%7%8%9%0%]#a%b%. . . . . . . . . . . ",
". . . . . . . . . . . . . . . . . . . . . . . . . . . . . . . . . . . . . . . . ",
". . . . . . . . . . . . . . . . . . . . . . . . . . . . . . . . . . . . . . . . ",
". . . . . . . . . . . . . . . . . . . . . . . . . . . . . . . . . . . . . . . . ",
". . . . . . . . . . . . . . . . . . . . . . . . . . . . . . . . . . . . . . . . "};
