/* XPM */
static char * fpsmodule_xpm[] = {
"40 40 931 2",
"  	c None",
". 	c #010200",
"+ 	c #020200",
"@ 	c #060300",
"# 	c #030401",
"$ 	c #010503",
"% 	c #030704",
"& 	c #030705",
"* 	c #000902",
"= 	c #020502",
"- 	c #060201",
"; 	c #040300",
"> 	c #120501",
", 	c #52292A",
"' 	c #E8C5C7",
") 	c #F5D9D6",
"! 	c #FCE3E5",
"~ 	c #FFF3F1",
"{ 	c #FDFBF5",
"] 	c #FBFEF9",
"^ 	c #FDFBFC",
"/ 	c #020102",
"( 	c #020202",
"_ 	c #010300",
": 	c #020204",
"< 	c #07010A",
"[ 	c #0C010D",
"} 	c #0A0208",
"| 	c #020107",
"1 	c #040306",
"2 	c #030204",
"3 	c #020302",
"4 	c #030806",
"5 	c #260709",
"6 	c #621F24",
"7 	c #7F353B",
"8 	c #9C525F",
"9 	c #B07D81",
"0 	c #D19FA0",
"a 	c #EECAC4",
"b 	c #FCF0E6",
"c 	c #000105",
"d 	c #010106",
"e 	c #05030B",
"f 	c #000305",
"g 	c #040401",
"h 	c #0B0100",
"i 	c #0B0103",
"j 	c #030106",
"k 	c #010105",
"l 	c #0A0109",
"m 	c #0A0104",
"n 	c #080300",
"o 	c #050300",
"p 	c #0C0101",
"q 	c #180301",
"r 	c #3B0F15",
"s 	c #6C363B",
"t 	c #9E6669",
"u 	c #010001",
"v 	c #010103",
"w 	c #050307",
"x 	c #390103",
"y 	c #950308",
"z 	c #B70208",
"A 	c #AD010A",
"B 	c #8F0209",
"C 	c #480704",
"D 	c #0E0402",
"E 	c #020001",
"F 	c #080302",
"G 	c #040605",
"H 	c #01050A",
"I 	c #02020B",
"J 	c #040205",
"K 	c #090204",
"L 	c #1A0406",
"M 	c #000000",
"N 	c #010102",
"O 	c #2D0205",
"P 	c #CA0302",
"Q 	c #DF000B",
"R 	c #D6020B",
"S 	c #E20106",
"T 	c #DF0201",
"U 	c #D00B07",
"V 	c #3A0504",
"W 	c #000506",
"X 	c #040204",
"Y 	c #0C0102",
"Z 	c #090101",
"` 	c #050206",
" .	c #000508",
"..	c #050201",
"+.	c #040101",
"@.	c #030305",
"#.	c #010000",
"$.	c #030000",
"%.	c #040000",
"&.	c #020000",
"*.	c #010100",
"=.	c #000200",
"-.	c #000401",
";.	c #000101",
">.	c #000201",
",.	c #010101",
"'.	c #080201",
").	c #9B010C",
"!.	c #B3020B",
"~.	c #300201",
"{.	c #030703",
"].	c #0E0804",
"^.	c #2E0202",
"/.	c #5D000C",
"(.	c #1B0404",
"_.	c #030300",
":.	c #020400",
"<.	c #010500",
"[.	c #030800",
"}.	c #000600",
"|.	c #040200",
"1.	c #020600",
"2.	c #040601",
"3.	c #020401",
"4.	c #010502",
"5.	c #030102",
"6.	c #040001",
"7.	c #000100",
"8.	c #010201",
"9.	c #160201",
"0.	c #BF040D",
"a.	c #430603",
"b.	c #05030C",
"c.	c #09030E",
"d.	c #08030A",
"e.	c #030203",
"f.	c #0B0109",
"g.	c #010908",
"h.	c #090401",
"i.	c #050200",
"j.	c #0A0102",
"k.	c #010403",
"l.	c #080803",
"m.	c #060402",
"n.	c #080503",
"o.	c #070305",
"p.	c #040003",
"q.	c #040103",
"r.	c #2A0103",
"s.	c #D10209",
"t.	c #140203",
"u.	c #14020E",
"v.	c #070406",
"w.	c #070302",
"x.	c #030400",
"y.	c #060001",
"z.	c #050504",
"A.	c #070205",
"B.	c #090103",
"C.	c #060101",
"D.	c #080402",
"E.	c #040201",
"F.	c #010803",
"G.	c #0C0204",
"H.	c #0E0505",
"I.	c #050301",
"J.	c #010C0C",
"K.	c #000302",
"L.	c #000301",
"M.	c #000202",
"N.	c #000403",
"O.	c #000303",
"P.	c #030001",
"Q.	c #300004",
"R.	c #B40305",
"S.	c #060703",
"T.	c #090504",
"U.	c #120202",
"V.	c #000607",
"W.	c #010D09",
"X.	c #030408",
"Y.	c #0B0301",
"Z.	c #0C0C01",
"`.	c #0C0E02",
" +	c #150101",
".+	c #0C0505",
"++	c #050501",
"@+	c #120201",
"#+	c #0D0700",
"$+	c #070A00",
"%+	c #070303",
"&+	c #070001",
"*+	c #010402",
"=+	c #000300",
"-+	c #050002",
";+	c #350106",
">+	c #BA090A",
",+	c #080A05",
"'+	c #030C02",
")+	c #0B0205",
"!+	c #020406",
"~+	c #0B0107",
"{+	c #010306",
"]+	c #0C0205",
"^+	c #070701",
"/+	c #8D010E",
"(+	c #FA0118",
"_+	c #DC0114",
":+	c #300301",
"<+	c #220C04",
"[+	c #8B0403",
"}+	c #D8030F",
"|+	c #F00112",
"1+	c #D30109",
"2+	c #690203",
"3+	c #1F0108",
"4+	c #050001",
"5+	c #000001",
"6+	c #0B0001",
"7+	c #1B0000",
"8+	c #1E0002",
"9+	c #0D0004",
"0+	c #330100",
"a+	c #460101",
"b+	c #640504",
"c+	c #C20404",
"d+	c #530505",
"e+	c #4C0305",
"f+	c #450609",
"g+	c #430700",
"h+	c #3A0400",
"i+	c #070600",
"j+	c #0A0103",
"k+	c #4F0202",
"l+	c #D50002",
"m+	c #7A0404",
"n+	c #3B0201",
"o+	c #B00110",
"p+	c #C1040B",
"q+	c #7E0401",
"r+	c #900601",
"s+	c #8E0402",
"t+	c #CA0312",
"u+	c #85030B",
"v+	c #120103",
"w+	c #020605",
"x+	c #040102",
"y+	c #020206",
"z+	c #270202",
"A+	c #6A0302",
"B+	c #820202",
"C+	c #850106",
"D+	c #5F0404",
"E+	c #240100",
"F+	c #230300",
"G+	c #090100",
"H+	c #9D050D",
"I+	c #DA030D",
"J+	c #D70708",
"K+	c #EB0803",
"L+	c #CC0406",
"M+	c #DA0102",
"N+	c #D40406",
"O+	c #D7030E",
"P+	c #9B050B",
"Q+	c #030306",
"R+	c #030303",
"S+	c #070605",
"T+	c #B80104",
"U+	c #2C0305",
"V+	c #99030D",
"W+	c #A70103",
"X+	c #360404",
"Y+	c #4A0303",
"Z+	c #52020A",
"`+	c #C10605",
" @	c #610407",
".@	c #050807",
"+@	c #050505",
"@@	c #020301",
"#@	c #060203",
"$@	c #040509",
"%@	c #3C0402",
"&@	c #BC0310",
"*@	c #EE020B",
"=@	c #D50103",
"-@	c #CE0408",
";@	c #EA050E",
">@	c #B2010C",
",@	c #A50308",
"'@	c #260003",
")@	c #070902",
"!@	c #550906",
"~@	c #800505",
"{@	c #940305",
"]@	c #D00503",
"^@	c #750805",
"/@	c #790702",
"(@	c #740404",
"_@	c #7E0006",
":@	c #5E0105",
"<@	c #040104",
"[@	c #020203",
"}@	c #050605",
"|@	c #AF0401",
"1@	c #6C0202",
"2@	c #CD0212",
"3@	c #290200",
"4@	c #050405",
"5@	c #0A0106",
"6@	c #560003",
"7@	c #090701",
"8@	c #520905",
"9@	c #C7050C",
"0@	c #1E0105",
"a@	c #060607",
"b@	c #010501",
"c@	c #0A0501",
"d@	c #A90208",
"e@	c #B90307",
"f@	c #450805",
"g@	c #2D0601",
"h@	c #2C0502",
"i@	c #590506",
"j@	c #C6050B",
"k@	c #EE0B09",
"l@	c #2F020B",
"m@	c #110206",
"n@	c #180201",
"o@	c #0C0200",
"p@	c #310603",
"q@	c #BF010E",
"r@	c #110103",
"s@	c #080105",
"t@	c #060405",
"u@	c #070401",
"v@	c #080001",
"w@	c #060106",
"x@	c #B80201",
"y@	c #C30304",
"z@	c #540201",
"A@	c #0A040A",
"B@	c #050308",
"C@	c #010603",
"D@	c #490205",
"E@	c #0B0006",
"F@	c #020809",
"G@	c #0F0201",
"H@	c #990105",
"I@	c #730101",
"J@	c #020607",
"K@	c #040105",
"L@	c #020300",
"M@	c #2C0601",
"N@	c #CC070A",
"O@	c #410000",
"P@	c #080209",
"Q@	c #560202",
"R@	c #ED0101",
"S@	c #300103",
"T@	c #000605",
"U@	c #000706",
"V@	c #020702",
"W@	c #330707",
"X@	c #B90602",
"Y@	c #030301",
"Z@	c #080103",
"`@	c #090203",
" #	c #070207",
".#	c #050207",
"+#	c #010203",
"@#	c #020201",
"##	c #0C0006",
"$#	c #C00301",
"%#	c #C40814",
"&#	c #190401",
"*#	c #02020C",
"=#	c #060403",
"-#	c #420704",
";#	c #040206",
">#	c #09000A",
",#	c #0F0207",
"'#	c #380709",
")#	c #BB0701",
"!#	c #070509",
"~#	c #070408",
"{#	c #0C0100",
"]#	c #450301",
"^#	c #B50406",
"/#	c #010006",
"(#	c #060309",
"_#	c #030810",
":#	c #08090C",
"<#	c #CB0402",
"[#	c #290400",
"}#	c #040302",
"|#	c #020106",
"1#	c #390204",
"2#	c #BE0108",
"3#	c #03040C",
"4#	c #030310",
"5#	c #050508",
"6#	c #090305",
"7#	c #030403",
"8#	c #0D0007",
"9#	c #BC0201",
"0#	c #96020F",
"a#	c #100001",
"b#	c #0A0602",
"c#	c #0C0303",
"d#	c #400605",
"e#	c #030304",
"f#	c #020208",
"g#	c #0C0608",
"h#	c #1E0905",
"i#	c #070204",
"j#	c #100303",
"k#	c #3B0503",
"l#	c #B6080A",
"m#	c #060207",
"n#	c #040400",
"o#	c #070507",
"p#	c #080509",
"q#	c #060510",
"r#	c #790305",
"s#	c #170400",
"t#	c #030201",
"u#	c #030004",
"v#	c #360301",
"w#	c #BA0405",
"x#	c #030407",
"y#	c #110207",
"z#	c #0D0304",
"A#	c #010302",
"B#	c #040100",
"C#	c #0A020B",
"D#	c #AA0801",
"E#	c #6A0506",
"F#	c #040704",
"G#	c #090307",
"H#	c #0B0A0B",
"I#	c #350604",
"J#	c #0B0203",
"K#	c #020307",
"L#	c #050607",
"M#	c #0A0302",
"N#	c #A70113",
"O#	c #470701",
"P#	c #070203",
"Q#	c #110809",
"R#	c #210803",
"S#	c #DA0309",
"T#	c #040608",
"U#	c #080107",
"V#	c #040506",
"W#	c #060606",
"X#	c #0D0208",
"Y#	c #1D0502",
"Z#	c #020100",
"`#	c #020103",
" $	c #350100",
".$	c #BD0106",
"+$	c #020303",
"@$	c #070200",
"#$	c #060003",
"$$	c #020506",
"%$	c #B30200",
"&$	c #400201",
"*$	c #080101",
"=$	c #040705",
"-$	c #250405",
";$	c #020404",
">$	c #020003",
",$	c #100A0D",
"'$	c #06040E",
")$	c #760607",
"!$	c #710207",
"~$	c #030506",
"{$	c #0D0402",
"]$	c #9D0004",
"^$	c #E10102",
"/$	c #A8050B",
"($	c #5E0209",
"_$	c #26060C",
":$	c #160204",
"<$	c #090304",
"[$	c #0B010C",
"}$	c #340000",
"|$	c #BD0107",
"1$	c #010304",
"2$	c #050005",
"3$	c #B30201",
"4$	c #4D0307",
"5$	c #250209",
"6$	c #1E000A",
"7$	c #16000C",
"8$	c #100104",
"9$	c #300202",
"0$	c #110203",
"a$	c #1A0003",
"b$	c #2E0405",
"c$	c #310009",
"d$	c #840202",
"e$	c #75020B",
"f$	c #030205",
"g$	c #020505",
"h$	c #270500",
"i$	c #920100",
"j$	c #C90200",
"k$	c #E80300",
"l$	c #F30706",
"m$	c #E50108",
"n$	c #7E0503",
"o$	c #180406",
"p$	c #010307",
"q$	c #080006",
"r$	c #AD0502",
"s$	c #710203",
"t$	c #620103",
"u$	c #4D0304",
"v$	c #370304",
"w$	c #290403",
"x$	c #450304",
"y$	c #2A0207",
"z$	c #340209",
"A$	c #64070E",
"B$	c #5F0114",
"C$	c #960405",
"D$	c #7B070F",
"E$	c #0E000A",
"F$	c #030804",
"G$	c #0B0308",
"H$	c #340207",
"I$	c #5C0205",
"J$	c #800604",
"K$	c #B30204",
"L$	c #D9060F",
"M$	c #910101",
"N$	c #070502",
"O$	c #0A0007",
"P$	c #AB0300",
"Q$	c #370101",
"R$	c #060304",
"S$	c #030602",
"T$	c #200403",
"U$	c #050202",
"V$	c #0B0703",
"W$	c #050403",
"X$	c #700500",
"Y$	c #790408",
"Z$	c #030100",
"`$	c #0C010A",
" %	c #050107",
".%	c #010108",
"+%	c #050408",
"@%	c #230107",
"#%	c #780608",
"$%	c #E00101",
"%%	c #260600",
"&%	c #020101",
"*%	c #080109",
"=%	c #B20100",
"-%	c #4C0304",
";%	c #260107",
">%	c #040106",
",%	c #060005",
"'%	c #12020F",
")%	c #04060B",
"!%	c #740707",
"~%	c #640303",
"{%	c #070201",
"]%	c #000402",
"^%	c #040305",
"/%	c #040402",
"(%	c #0C020C",
"_%	c #0E0503",
":%	c #AB020C",
"<%	c #600207",
"[%	c #040308",
"}%	c #BB0300",
"|%	c #5D0406",
"1%	c #09020C",
"2%	c #060004",
"3%	c #2D0208",
"4%	c #070104",
"5%	c #060104",
"6%	c #A50007",
"7%	c #2F0404",
"8%	c #070003",
"9%	c #4B0402",
"0%	c #170403",
"a%	c #04000D",
"b%	c #030109",
"c%	c #120408",
"d%	c #71030D",
"e%	c #860106",
"f%	c #070102",
"g%	c #BA0205",
"h%	c #070400",
"i%	c #040202",
"j%	c #010204",
"k%	c #BC0701",
"l%	c #99020A",
"m%	c #1C0301",
"n%	c #330304",
"o%	c #010301",
"p%	c #080501",
"q%	c #230104",
"r%	c #C6000B",
"s%	c #120807",
"t%	c #060503",
"u%	c #140006",
"v%	c #AC020C",
"w%	c #3B0104",
"x%	c #000102",
"y%	c #000203",
"z%	c #000106",
"A%	c #060107",
"B%	c #040403",
"C%	c #11060E",
"D%	c #6B0604",
"E%	c #840501",
"F%	c #0D030B",
"G%	c #020309",
"H%	c #2F0205",
"I%	c #BE0309",
"J%	c #040406",
"K%	c #0A0704",
"L%	c #0C040F",
"M%	c #03010A",
"N%	c #0A0402",
"O%	c #0B0201",
"P%	c #B80601",
"Q%	c #D2010E",
"R%	c #270401",
"S%	c #080211",
"T%	c #0C0403",
"U%	c #4A0409",
"V%	c #02030A",
"W%	c #0A080A",
"X%	c #5C0509",
"Y%	c #AB030A",
"Z%	c #080704",
"`%	c #0B010B",
" &	c #BB0404",
".&	c #640102",
"+&	c #060102",
"@&	c #070106",
"#&	c #020304",
"$&	c #080206",
"%&	c #070608",
"&&	c #A50009",
"*&	c #680402",
"=&	c #080310",
"-&	c #0A0005",
";&	c #2F0103",
">&	c #B70109",
",&	c #110003",
"'&	c #0A0502",
")&	c #080807",
"!&	c #0A0002",
"~&	c #AD0400",
"{&	c #C50611",
"]&	c #71010A",
"^&	c #0C0405",
"/&	c #4A0809",
"(&	c #0B0404",
"_&	c #06030C",
":&	c #0E0A09",
"<&	c #A90502",
"[&	c #5D0A04",
"}&	c #04040C",
"|&	c #0D0406",
"1&	c #C20600",
"2&	c #BA0304",
"3&	c #280302",
"4&	c #02050D",
"5&	c #02020F",
"6&	c #090404",
"7&	c #3B0A00",
"8&	c #DA0214",
"9&	c #2E0002",
"0&	c #220602",
"a&	c #A20006",
"b&	c #A80300",
"c&	c #BA0407",
"d&	c #E80805",
"e&	c #A40508",
"f&	c #AB0403",
"g&	c #A70401",
"h&	c #B70201",
"i&	c #6B0202",
"j&	c #050702",
"k&	c #090008",
"l&	c #A20600",
"m&	c #5B0504",
"n&	c #D10310",
"o&	c #3B0700",
"p&	c #050212",
"q&	c #01050D",
"r&	c #610310",
"s&	c #100202",
"t&	c #0A0906",
"u&	c #800107",
"v&	c #BE010B",
"w&	c #0F0701",
"x&	c #0A020D",
"y&	c #110503",
"z&	c #B60500",
"A&	c #D5040B",
"B&	c #C3010E",
"C&	c #660100",
"D&	c #390102",
"E&	c #340503",
"F&	c #6C0401",
"G&	c #D80205",
"H&	c #940808",
"I&	c #080500",
"J&	c #310500",
"K&	c #BA0109",
"L&	c #C80002",
"M&	c #CE0009",
"N&	c #C70303",
"O&	c #BE040B",
"P&	c #CC0108",
"Q&	c #CC0203",
"R&	c #CB0207",
"S&	c #7F0108",
"T&	c #090102",
"U&	c #070105",
"V&	c #060006",
"W&	c #A60604",
"X&	c #330103",
"Y&	c #750100",
"Z&	c #5D0104",
"`&	c #22050C",
" *	c #5E0310",
".*	c #260900",
"+*	c #7A000A",
"@*	c #D60706",
"#*	c #41030F",
"$*	c #100003",
"%*	c #030402",
"&*	c #110104",
"**	c #6E0203",
"=*	c #5B0306",
"-*	c #B10200",
";*	c #E60201",
">*	c #EF0102",
",*	c #E30505",
"'*	c #E40209",
")*	c #A2030D",
"!*	c #1E0101",
"~*	c #040304",
"{*	c #220403",
"]*	c #220301",
"^*	c #2D0200",
"/*	c #2D0102",
"(*	c #280101",
"_*	c #290303",
":*	c #2A0405",
"<*	c #1C020A",
"[*	c #120406",
"}*	c #070301",
"|*	c #010400",
"1*	c #030103",
"2*	c #AE0201",
"3*	c #2D0608",
"4*	c #120809",
"5*	c #7D030E",
"6*	c #D70208",
"7*	c #BD0205",
"8*	c #B80402",
"9*	c #BC0803",
"0*	c #C50606",
"a*	c #580C00",
"b*	c #08010C",
"c*	c #060306",
"d*	c #030404",
"e*	c #0A0107",
"f*	c #260005",
"g*	c #1D010A",
"h*	c #590206",
"i*	c #790104",
"j*	c #7F0506",
"k*	c #660300",
"l*	c #110901",
"m*	c #080202",
"n*	c #030202",
"o*	c #050104",
"p*	c #0A0206",
"q*	c #000602",
"r*	c #00050A",
"s*	c #070304",
"t*	c #050303",
"u*	c #060200",
"v*	c #050401",
"w*	c #050105",
"x*	c #B50000",
"y*	c #250603",
"z*	c #080408",
"A*	c #170101",
"B*	c #510804",
"C*	c #870508",
"D*	c #9E0308",
"E*	c #7D0206",
"F*	c #430609",
"G*	c #070410",
"H*	c #040708",
"I*	c #020707",
"J*	c #060204",
"K*	c #020709",
"L*	c #010109",
"M*	c #040203",
"N*	c #030200",
"O*	c #040407",
"P*	c #05040C",
"Q*	c #080301",
"R*	c #020601",
"S*	c #080204",
"T*	c #020002",
"U*	c #030002",
"V*	c #020205",
"W*	c #A80903",
"X*	c #220307",
"Y*	c #040008",
"Z*	c #080400",
"`*	c #110101",
" =	c #140102",
".=	c #010005",
"+=	c #010202",
"@=	c #010002",
"#=	c #030104",
"$=	c #030005",
"%=	c #050000",
"&=	c #070405",
"*=	c #B30300",
"==	c #250100",
"-=	c #000400",
";=	c #000501",
">=	c #0A0303",
",=	c #020501",
"'=	c #050100",
")=	c #040905",
"!=	c #B40101",
"~=	c #290301",
"{=	c #070103",
"]=	c #060305",
"^=	c #AE0304",
"/=	c #1D0405",
"(=	c #000404",
"_=	c #090002",
":=	c #0B0002",
"<=	c #000405",
"[=	c #070307",
"}=	c #000003",
"|=	c #030309",
"1=	c #150103",
"2=	c #AE0501",
"3=	c #270302",
"4=	c #0D0202",
"5=	c #070101",
"6=	c #010407",
"7=	c #66010C",
"8=	c #D60700",
"9=	c #960202",
"0=	c #8C0104",
"a=	c #3C0302",
"b=	c #120100",
"c=	c #1D0804",
"d=	c #2F0D0E",
"e=	c #070100",
"f=	c #810311",
"g=	c #BB0C02",
"h=	c #C30407",
"i=	c #BD070B",
"j=	c #050103",
"k=	c #070000",
"l=	c #1C0503",
"m=	c #2A0D0D",
"n=	c #411C1F",
"o=	c #693335",
"p=	c #AF5C61",
"q=	c #F2A7A9",
"r=	c #030101",
"s=	c #120206",
"t=	c #160207",
"u=	c #100206",
"v=	c #040301",
"w=	c #311514",
"x=	c #955F5D",
"y=	c #AB726A",
"z=	c #CA8781",
"A=	c #EBA9AD",
"B=	c #F8D6D7",
"C=	c #FBFAF8",
"D=	c #FFFFFF",
"E=	c #4B0B14",
"F=	c #4D0A11",
"G=	c #50080D",
"H=	c #51070C",
"I=	c #54060C",
"J=	c #56060C",
"K=	c #4F090D",
"L=	c #4C0A12",
"M=	c #4F0A11",
"N=	c #64020C",
"O=	c #813442",
"P=	c #FCE0E6",
"Q=	c #F7F7F4",
"R=	c #F7FDF7",
"S=	c #FBFDFA",
"T=	c #FAFDFD",
"U=	c #F8FDFF",
"V=	c #E4D3CA",
"W=	c #E5D3CC",
"X=	c #E7D3CD",
"Y=	c #E5D2CC",
"Z=	c #E3D2CB",
"`=	c #E4D2CB",
" -	c #E6D2CC",
".-	c #E5D3CB",
"+-	c #E2D3C9",
"@-	c #DCD0C7",
"#-	c #E3D8D5",
"$-	c #FCF9FD",
"%-	c #FBFCFF",
"&-	c #FCF9FF",
"*-	c #FEFAFF",
"=-	c #FEF8FF",
"--	c #FEF9FF",
". . . + @ # $ % & * = - . . . . . . . . . . . . . . . . . . ; > , ' ) ! ~ { ] ^ ",
"/ / / ( _ : < [ } | 1 2 / / / / / / / / / / / / / / / / / / 3 4 5 6 7 8 9 0 a b ",
"c c c d e f # g ; h i j c c c c c c c c c c c c c c c c c c k l m n o p q r s t ",
"u u u v w x y z A B C D u u u u u u u u u u u u u u u u u u E F G H I J j k K L ",
"M / M N O P Q R S T U V W X Y Z `  ...+.@.v #.$.%.&.M M M M M *.=.-.-.;.E >.. #.",
"M ,.M '.).!.~.{.].^./.(._.:.<.[.}.|.1.2.3.4.+.5.#.#.M M M M M >.*.6.+.7.#.7.7.M ",
"#.8.M 9.0.a.b.c.d.e.f.g.h.i.8.j.i.; k.l.m.n.o.3 =.7.#.M M M M =.u p.q.=.#.#.#.M ",
"E >.&.r.s.t.u.v.w.x.y.z.A.B.C.D.E.F.G.H.|.I.J.K.=.L.&.M M M #.E M.N.O.7.M #.E M ",
"P.>.P.Q.R.S.T.U.2 V.W.X.k Y.Z.`. +.+++@+#+$+%+&+*.*+&.M M M #.6.*.=+# -+M 7.u M ",
"P.=.6.;+>+,+'+)+!+~+{+]+^+/+(+_+:+<+[+}+|+1+2+3+4+>.P.M M M 5+N 6+7+8+9+#.=.7.M ",
"'.0+a+b+c+d+e+f+g+h+i+j+3.k+l+m+n+o+p+q+r+s+t+u+v+w+J 7.x+y+x.z+A+B+C+D+E+F+G+M ",
"9.H+I+J+K+L+M+N+O+P+9.Q+R+S+T+U+V+W+X+i Y+Y Z+`+ @.@+@@@#@$@%@&@*@=@-@;@>@,@'@M ",
")@!@~@{@]@^@/@(@_@:@h <@[@}@|@1@2@3@4@5@6@Y 7@8@9@0@a@R+b@c@d@e@f@g@h@i@j@k@l@M ",
"m@n@o@p@q@r@s@t@u@v@>.6.M.w@x@y@z@A@B@C@D@E@F@G@H@I@J@K@L@M@N@O@R+P@j.l Q@R@S@M ",
"T@U@V@W@X@Y@Z@`@ #.#+#@#$ ##$#%#&#*#=#F -#;#>#,#'#)#!#~#{#]#^#/#_.N.(#_#:#<#[#M ",
"}#|#2 1#2#3#4#5#6#y+[@+ 7#8#9#0#a#X.b#c#d#e#f#2 g#y@h#i#j#k#l#m#n#..o#p#q#r#s#M ",
"t#u#[@v#w#x#y#z#m.A#6.B#=#C#D#E#p F#G#H#I#J#K#L#M#N#O#P#Q#R#S#Q@T#U#V#W#X#Y#P@M ",
"Z#`#8. $.$+$@$5.7.7.#.#$$$J %$&$*$C.( =$-$;$>$,$'$)$!$~${$b#]$^$/$($_$:$<$[$#$M ",
"Z#/ 8.}$|$+$i.N M M M 6.1$2$3$4$5$6$7$8$9$0$a$b$c$d$e$f$=+g$h$i$j$k$l$m$n$o$p$M ",
"Z#/ 8.}$|$+$i.N M M M $.8.q$r$s$t$u$v$w$x$y$z$A$B$C$D$x+8.E$F$G$H$I$J$K$L$M$N$M ",
"Z#/ 8.}$|$+$i.N M M M *.Z#O$P$Q$e.R$<$S$T$A#U$V$W$X$Y$Z$N E@`$~# %.%+%@%#%$%%%M ",
"Z#/ 8.}$|$+$i.N M M M 7.&%*%=%-%i#3 7#: ;%>%,%'%)%!%~%{%]%}.^%_.+ +./%(%_%:%<%M ",
"Z#/ 8.}$|$+$i.N M M M 7.v [%}%|%4@K#1%2%3%4%R+` 5%6%7%[@8%9%0%a%b%: b@h.c%d%e%M ",
". ( f%0+g%$ h%q.7.=.=+i%j%` k%l%m%i#N.i.n%@ o%p%q%r%s%t%u%v%w%x%y%z%A%B%C%D%E%M ",
"F%G%O$H%I%J%K%L%M%1 N%O%k.E@P%Q%R%S%$$T%U%%+V%W%X%Y%Z%{%`% &.&+&@&J #&$&%&&&*&M ",
"=&-&+#;&>&,&'&)&$$: j.!&k.O$~&{&]&5#^&h./&(&_&:&<&[&}&K@|&1&2&3&=#4&5&6&7&8&9&M ",
"0&a&b&c&d&e&f&g&h&i&j& %N.k&l&m&n&o&p&q&r&s&t&u&v&w&x&t@y&z&A&B&C&D&E&F&G&H&I&M ",
"J&K&L&M&N&O&P&Q&R&S&T&U&: V&W&X&Y&L+Z&`& *.*+*@*#*$*%*z.&***=*-*;*>*,*'*)*!*$.M ",
"~*{*]*^*/*(*_*:*<*[*}*|*K@1*2*3*4*5*6*7*8*9*0*a*b*c*Y@d*e*f*B@g*h*i*j*k*l*m*n*M ",
"o*.#p*q*J q.r*s*;#t*u*v*w*# x*y*z*A*B*C*D*E*F*G*J#H*Z@>%I*J*K*L*M*N*O*P*Q*R*S*M ",
"&.T*U*;.5+u x%&.#.&.#.%.V*G#W*X*Y*}#Z*`* =Z >$.=&.N E u >.;.+=M #.#.@=#=Z$_ e.$=",
"M M M M M M M M M M M %=U$&=*====.-=;=7.M M M M M M M M M M M M M M M M $.v@>=,=",
"M M M M M M M M M M M '=}*)=!=~=:.+.~*M.M M M M M M M M M M M M M M 7.7.E #${=+.",
"M M M M M M M M M M M P.]=& ^=/=(=_=:=5+M M M M M M M M M M M M M M &.Z#N.<=J%[=",
"M M M M M M M M M M M }=|=1=2=3=4=5=x.7.M M M M M M M M M M M M M M &.+.;=;=J 6=",
"M M M M M M M M M M M x%` 7=8=9=0=a=b@;.M M M M M M M M M M M M M M @=e#Z#b=c=d=",
"7.7.7.7.7.7.7.7.7.7.7.=.e=f=g=h=i=:@j=1*7.7.7.7.7.7.7.7.7.7.7.=.k=b=l=m=n=o=p=q=",
"+.+.+.+.+.+.+.+.+.+.+.r=+=`@s=t=u=P#+=r=+.+.+.+.+.+.+.+.+.+.v=2.w=x=y=z=A=B=C=D=",
"E=E=E=E=E=E=E=E=E=E=E=F=G=H=I=J=I=H=K=L=E=E=E=E=E=E=E=E=E=E=M=N=O=P=Q=R=S=T=U=D=",
"V=V=V=V=V=V=V=V=V=V=V=W=X=Y=Z=Z=`= -X=.-V=V=V=V=V=V=V=V=V=V=+-@-#-$-%-&-*-=---D="};
