/* XPM */
static char *xfademodule_xpm[] = {
/* width height num_colors chars_per_pixel */
"    40    40      256            2",
/* colors */
"`` c #040405",
"`. c #848460",
"`# c #8c1624",
"`a c #2c4250",
"`b c #c1c2a4",
"`c c #440a0c",
"`d c #544234",
"`e c #222329",
"`f c #dce2b4",
"`g c #5b625c",
"`h c #244274",
"`i c #25070c",
"`j c #14323c",
"`k c #a1a37e",
"`l c #944664",
"`m c #f4f5c4",
"`n c #e7d8c9",
"`o c #737357",
"`p c #315361",
"`q c #d0d4a8",
"`r c #11131f",
"`s c #382922",
"`t c #a48e64",
"`u c #c4161c",
"`v c #444639",
"`w c #f3f4eb",
"`x c #565448",
"`y c #f4e8c4",
"`z c #6e6554",
"`A c #2d323c",
"`B c #c4aa9c",
"`C c #18040b",
"`D c #c45244",
"`E c #7d849d",
"`F c #291914",
"`G c #8c2e24",
"`H c #442a1c",
"`I c #2c5a94",
"`J c #6d7394",
"`K c #44465b",
"`L c #d1c8bf",
"`M c #24263c",
"`N c #2c3654",
"`O c #d2d5d4",
"`P c #6c5634",
"`Q c #333a4c",
"`R c #979474",
"`S c #e4e3d9",
"`T c #7a7d56",
"`U c #fcfefc",
"`V c #846e5c",
"`W c #565366",
"`X c #646683",
"`Y c #b4b690",
"`Z c #1c021c",
"`0 c #782a38",
"`1 c #34283c",
"`2 c #dcc294",
"`3 c #4c5348",
"`4 c #11162f",
"`5 c #474c47",
"`6 c #585a48",
"`7 c #ecedd9",
"`8 c #2b2b2f",
".` c #344779",
".. c #a6a598",
".# c #f4f3d9",
".a c #7c735c",
".b c #fcf4eb",
".c c #371724",
".d c #a82028",
".e c #3c0c14",
".f c #6c6a6c",
".g c #c0b990",
".h c #180d10",
".i c #ac3a2c",
".j c #4a392a",
".k c #dcd4cb",
".l c #586a60",
".m c #fcdedc",
".n c #47393c",
".o c #0c0b14",
".p c #8a8b69",
".q c #e7d7d9",
".r c #372e1c",
".s c #f6eee2",
".t c #6e6b54",
".u c #241c2c",
".v c #466178",
".w c #2c231e",
".x c #291111",
".y c #afa389",
".z c #945674",
".A c #1c1a1c",
".B c #3c3434",
".C c #c46474",
".D c #3e4c5a",
".E c #2b2d41",
".F c #3c3d3b",
".G c #344551",
".H c #691f21",
".I c #fcfac1",
".J c #dcdeb1",
".K c #c43e44",
".L c #4c4638",
".M c #dcced8",
".N c #645d5c",
".O c #bcbabc",
".P c #dcdacc",
".Q c #842a3c",
".R c #ccca9c",
".S c #5c4c4c",
".T c #6e746a",
".U c #a6977e",
".V c #34364a",
".W c #94928c",
".X c #9c325c",
".Y c #9c9a78",
".Z c #ece4dc",
".0 c #b47e74",
".1 c #48525c",
".2 c #37557d",
".3 c #ccba9c",
".4 c #7c6c5c",
".5 c #2c1d29",
".6 c #0c040a",
".7 c #646451",
".8 c #24345c",
"#` c #fcf4c4",
"#. c #ec624c",
"## c #e90b0f",
"#a c #f44634",
"#b c #9c629c",
"#c c #f4422c",
"#d c #c4869c",
"#e c #441e18",
"#f c #d47a94",
"#g c #b24968",
"#h c #b45e74",
"#i c #2c5274",
"#j c #6c3e54",
"#k c #ac365c",
"#l c #e4161c",
"#m c #946e84",
"#n c #3c68b0",
"#o c #6c425c",
"#p c #dc0a14",
"#q c #dc5e4c",
"#r c #944264",
"#s c #98242c",
"#t c #757a95",
"#u c #fc0604",
"#v c #546a74",
"#w c #34549c",
"#x c #945254",
"#y c #d6cdaa",
"#z c #a82834",
"#A c #9c6254",
"#B c #d06e84",
"#C c #af4161",
"#D c #94826c",
"#E c #3c5e94",
"#F c #3c3a54",
"#G c #b4b6b4",
"#H c #543620",
"#I c #acaeac",
"#J c #482038",
"#K c #544a2c",
"#L c #ece9be",
"#M c #3c5767",
"#N c #ccb2a4",
"#O c #8c8aac",
"#P c #6f5b4f",
"#Q c #1c1c34",
"#R c #88775c",
"#S c #5c5e74",
"#T c #160e1f",
"#U c #495d64",
"#V c #1f3d5f",
"#W c #8c7a74",
"#X c #ccc6b4",
"#Y c #dcd2b4",
"#Z c #1c1417",
"#0 c #9c2f37",
"#1 c #7c727c",
"#2 c #948e7c",
"#3 c #4c4a5c",
"#4 c #941822",
"#5 c #2c4a74",
"#6 c #446a7c",
"#7 c #acac8c",
"#8 c #8c827c",
"a` c #2c264c",
"a. c #646d59",
"a# c #742224",
"aa c #9b8eac",
"ab c #646a7b",
"ac c #2c4a54",
"ad c #d4cec7",
"ae c #343e6c",
"af c #342e40",
"ag c #bcbe9c",
"ah c #a49e84",
"ai c #4c4254",
"aj c #b4222c",
"ak c #bc3e5c",
"al c #24363c",
"am c #a44a64",
"an c #7c7670",
"ao c #d46274",
"ap c #2c5694",
"aq c #f4eecf",
"ar c #e4dec7",
"as c #3462a4",
"at c #443e34",
"au c #483e44",
"av c #e4dedc",
"aw c #a4426c",
"ax c #4c464c",
"ay c #274364",
"az c #d4d3b9",
"aA c #362a32",
"aB c #3f4447",
"aC c #f4f3f6",
"aD c #555559",
"aE c #dfe6e7",
"aF c #7c7e6c",
"aG c #3c2a54",
"aH c #d8c4ac",
"aI c #5b5e59",
"aJ c #bcbaa4",
"aK c #f9ebed",
"aL c #3c4e6c",
"aM c #544e64",
"aN c #a49a94",
"aO c #841e1c",
"aP c #204a78",
"aQ c #bcb299",
"aR c #848aa4",
"aS c #7c323c",
"aT c #fcfad4",
"aU c #34120c",
"aV c #a43a64",
"aW c #344e84",
"aX c #362e32",
"aY c #344a5c",
"aZ c #a4927c",
"a0 c #ecece8",
"a1 c #fcf5f9",
"a2 c #6c6e84",
"a3 c #dcd5d6",
"a4 c #2c2532",
"a5 c #ccccae",
"a6 c #3c5aac",
"a7 c #544d41",
"a8 c #8c856c",
/* pixels */
"`Q`K#3`X#t#O.Oa1`U`U`U`U`U`UaK#O`E#t#S.N#Qa6a7`e#EaBafat.t`T.t.p`m`sa5a0.b`U.Z.J",
"`Q#F#3`X`E#O#Oa1`U`U`U`U`U`UaK#O`Ea2#SaD`r`h`Ka7aW#S`8`va.`T#R`R#L.w`q.Z.b`U.k#L",
"`A#F`K`X`JaR.Oa1`U`U`U`U`U`U.O#O`J`J#S.N`C#Vae#P.`.vafat.7`T#R.p.I`saza0a1a1`Oaq",
"`A#F#3`X`JaR.Oa1`U`U`U`U`U`UaK#O`Ja2#S.N``.8.`#P`N#6af.F.t`.#D.p.IaX#Ya0aCa1.kaq",
"`A#F#S`X`J`EaK`U`U`U`U`U`U`UaK#O`J`X#SaD.ha`aW`z`8.v`A.F`6.a`R.p.IaA.Pa0.Ma1a3.s",
"`A`K#3`X`J#O`U`U`U`U`U`U`U`Ua1#O`J`X#SaM``.caWaD`xaL`a.F.7`o.Y`R`m`8`7aCada1a3`n",
"`Q#F#3#S`J.O`U`U`U`U`Ua1`U`UaK#O`J`X#Sau.h`0`h`K.t`Kac`A`o.7.y.Yaq`8.ba0a3a1a3.P",
".V#F#3`X`XaK`U`U`U`U`U`U`U`U`U`U`U`U`U#3.6#0ayaL`U`U`U`U`U`U`U`U`ma4.baCa3av.M`L",
"`M#S#S`X`J`U`U`U`U`U#t`U`U`U`U`U`U`X#3#3.6#z`M.2.t.F`U`U`U`U`Uah#`a4`U`w.Z`L.q`L",
".V`K#S`X#O#1aa#I#G.O`X#S#S`U`U`U`U`X#S#3.6.d#J.2`g`z`U`U`UaI`R#2aT.u.b`w.s.MavaQ",
"`QaD#S`X`X#Saba2#t`X`W`Wau`U`U`U`U`J`X#3`C.d#r#V#U.t`U`U`x.7.Ya8`m`ea1`waC`O.q.y",
"#F#3`JaR#S#Sab`X#t#S`K`K#Fa2`U`U`U`J#S`K`C#saw.EaLan`U`U.D.t`ka8`7#Za1.sa1`Oad.U",
"`K`J`J.m#S#S`X`X`J`X#3`W`K`X`X`U`U`U`X#3.6#4aVaGaW`U`U`a#M.N`k`R`m.ha1ava0aE`naZ",
"`K#S`Xaa`W`X#S#S#3`WaM`KaM`X`X#3`U`U`E#S`C`#.X#b`U`U.4.G#M`g.p#7#L.oa1ad.saCaH`n",
"`W`X`J#t#3#F#FaM#3#3#3#3`W`Wa2`W`U`U`U`X.6`#.X`U`U#M.a.F`p#U.7ag.J.haC`Oa0`SaQ.s",
"#3`X#O`X`K`e`M`K`K`K#3ai#3`K#F#I#O`U`U`U.6#4`U`U#J.2ana7`a.l`v`Y`q.o.s.PaC`L.U.Z",
"#3`X`J`K`K.Vaf#F#F`K.Vai#F.V`Qaa#OaR`U`U`U#4`U`U`l`jaD`V`A#v`3#7a5.oa0adaCaZaJ#W",
"`K`J#O#F`Kaf#F`A.V#F.V`A#F`M`Q#3.O#O`U`U`U`U`U#gaw.5#Man.w.v`5`Ra5`ra0a0a0.3.s`F",
"`A`W.O#F#F.V`Q`M`M.V#F`M.E`M`A`KaK.Oaa`U`U`U#z#Caw#o.`.T`dacaBaF`b.oaCaC#X`Y`n`i",
"`Q#3#OaB`K`A.V`M`M#F#F`8#3`M`M`QaK.O#O`U`U`U`U#C#g.z`e#U.aalaB.tag`raC.Z.gaJ`B`i",
"`Q#3#S#3#F`A.V`M.V`Q#F`Q`Q`M`M`AaK.Oaa`U`U`U`Uak#g#h`1`p`.`8.1.l...5`w.P`ka0#A`C",
"#F#S#3#F#3`A`A`M`M`Q`W.B#F`M`M.Va1.O`U`U```U`U`U#g.C#m`ja.`x.D`xaF`8aEazaz.M`G`i",
"#F#S#S#F#S.V`A`M`MaX#F`Q`Q`M`M`M.b`U`U`K```i`U`U`U.C#d`4.1`.`QaB`g.A`O#7ar.0aO`F",
"#3#t.V`X#F.V`M`M`M`M`M`M`M`M`M`M`U`U..#3```Z`U`U`U`U#f#jaY#W`A`5aI`ean`o`7.i.H`s",
"`Eab#3aa#F`K.V`M`M`M`M`M.A`M`M`W`U`UaI`M``#Ta#`U`U`U#B.C#Q#U`vaBaI`a.L`R`O#c#e.j",
"#S#O`Xaa#F`K.F`M`M`M`M`M`M`M#F`U`U#F`K`M#Z.o`Z#s`U`U`Uao.c`K..`aaDaB..aE#x#a.w.j",
"aR`E.O#O`Q`Q`M`M`M`M.A`M`M`M`U`U`A`W`Q`M`C``#T.H#0`U`U`UaS`M.W`Q`5.F#W.saj#.`F#H",
"#taR.O#I#F`Q`M.A.A.A.A.A`M`U`U`Q`A`Q`A`A#T.h.o`C.Q`U`U`U.K.oax.FaxaB.j#N#l#q`s#H",
"`J#O#OaR.F.V`M.A.A.A.A.A`U`U`M`Q#F`Q`A`A`r#Z.6.6.e`0`U`U`U.h.u`gaX`3aN#0##`D`H#e",
"`K#t.O`X#F`Q`M.A.A.A`U`U`U`U`U`A#SaD#3`A#T#Z.h`i.h`U`U`U`U`U`UaB#TaX.N#p#u.H#HaU",
"`K#OaK`X#3.fai.A`U`U`U`U`U`U`U`U`U`Q`A`M`r#Z`F`U`U`U`U`U`U`U`U`U`UaX.c####.e`P.x",
"#O.OaKab`WaDai`M.A.A.A.A.A.A`Q`K`K`M`A`M`4.A#Z#Z#1.h`i.h.xaA.B#1at.j.5`u`#.x`t.x",
"aR.O#3ab`K`WaD.A.A.A.A.A.A.A`M`Q`A`M`K`M#V`4.A.u.N#Z.x`F.wat.a.saQ#X#8.e`iaX`2`C",
"`Eab`A#t#tab`K.A.A.A.A.A.A.A`e.E#Z`A#3.AaP`4#Z#Za4.A.w.B.L.7.4`7`ba3aZ.n`s`d`y.6",
"aR`A`A`Aabab`Q.A.A.A.A.A.A`8`M`Q`M`Q#S`Map`M`M`8.5`e`s.L`x.a#y.#a5a3.Z.4#K.y#```",
"#tab`W`Q#3abaI`M.A.A.A.A.A`M`A`K`M`M#S`M#n.8.E`Aa4a4.Fa7`z#K`f.##XaK.s`L`R#y#```",
"`Aab#S#S#3`W`Q.A.A.A.A.A.A`Q`Q#3`A`X#S`M#n.``N`5`8.E.F`x.n`k.R.s`L`w.kaqar.3`m``",
".A`Aab#3`W`K`Q.A.A.A.A.A.A`vab#t`M`J`Q`Mas#wac.T.B.V`v`xaB`k`qarar`w`S.b`y#Y`Y.6",
".r`AaI`A`W#S`M.A.A.A.A.A`e`W`J`E`M.O#t`Map#w#V.T`A.V.F`v.1`T`f`S.PaCa1.s.baH`b.6",
".r`A`Q`A`QaI`K`e.A.A`e`8`M`J.O.O`Ma1aK#ZaPas.2#v.V`QaB`3.la.`f.P.PaCaC.s`U#L.#`C"
};
