/* XPM */
static char * effectvsimuramodule_xpm[] = {
"40 40 789 2",
"  	c None",
". 	c #3DA29F",
"+ 	c #719698",
"@ 	c #679E99",
"# 	c #0F9890",
"$ 	c #11868C",
"% 	c #138487",
"& 	c #17858A",
"* 	c #138588",
"= 	c #11888C",
"- 	c #15888A",
"; 	c #128688",
"> 	c #118689",
", 	c #13848A",
"' 	c #158886",
") 	c #128789",
"! 	c #138989",
"~ 	c #178889",
"{ 	c #0F8F8A",
"] 	c #10898A",
"^ 	c #5FA89F",
"/ 	c #70AD97",
"( 	c #2A9A99",
"_ 	c #0F888A",
": 	c #128584",
"< 	c #148689",
"[ 	c #15868A",
"} 	c #148588",
"| 	c #148488",
"1 	c #168888",
"2 	c #118886",
"3 	c #128585",
"4 	c #16878E",
"5 	c #118789",
"6 	c #128487",
"7 	c #17888E",
"8 	c #138889",
"9 	c #0F8C8D",
"0 	c #10898C",
"a 	c #14868A",
"b 	c #5AC89F",
"c 	c #6AB49B",
"d 	c #10918F",
"e 	c #148486",
"f 	c #148586",
"g 	c #168688",
"h 	c #118687",
"i 	c #138586",
"j 	c #158789",
"k 	c #128588",
"l 	c #13858C",
"m 	c #13878A",
"n 	c #108689",
"o 	c #128687",
"p 	c #148987",
"q 	c #138A87",
"r 	c #11868A",
"s 	c #118589",
"t 	c #56BCA4",
"u 	c #219793",
"v 	c #148786",
"w 	c #138688",
"x 	c #118489",
"y 	c #17868B",
"z 	c #16858A",
"A 	c #158587",
"B 	c #148685",
"C 	c #158787",
"D 	c #0F888C",
"E 	c #168A89",
"F 	c #108686",
"G 	c #108587",
"H 	c #0C8F8A",
"I 	c #47B4A1",
"J 	c #0D8A88",
"K 	c #108489",
"L 	c #128686",
"M 	c #128987",
"N 	c #0F8C87",
"O 	c #138788",
"P 	c #16898B",
"Q 	c #13868B",
"R 	c #0E8C89",
"S 	c #0C8B8A",
"T 	c #138A8C",
"U 	c #118C8C",
"V 	c #0D8786",
"W 	c #118788",
"X 	c #12888B",
"Y 	c #098B8B",
"Z 	c #4BA4A0",
"` 	c #198D90",
" .	c #18878C",
"..	c #12878C",
"+.	c #0F8789",
"@.	c #0B8A8D",
"#.	c #17898A",
"$.	c #0F9987",
"%.	c #11A88F",
"&.	c #158D8B",
"*.	c #158A8A",
"=.	c #12888A",
"-.	c #0C8A8B",
";.	c #158C92",
">.	c #278D94",
",.	c #238C8D",
"'.	c #138A8B",
").	c #148A89",
"!.	c #138B8E",
"~.	c #0C8C8B",
"{.	c #5EADA0",
"].	c #B47581",
"^.	c #B67A81",
"/.	c #3F9498",
"(.	c #108788",
"_.	c #359994",
":.	c #95939E",
"<.	c #13F28C",
"[.	c #06EC8E",
"}.	c #16DA91",
"|.	c #838F8D",
"1.	c #938789",
"2.	c #319595",
"3.	c #128B94",
"4.	c #338F8E",
"5.	c #908086",
"6.	c #589396",
"7.	c #13898A",
"8.	c #1B9190",
"9.	c #76ABB6",
"0.	c #C34F4F",
"a.	c #C34C51",
"b.	c #A0B0BB",
"c.	c #138890",
"d.	c #9D96B9",
"e.	c #56D292",
"f.	c #07FA8A",
"g.	c #08EF86",
"h.	c #0AE78A",
"i.	c #2BC78C",
"j.	c #5ED18C",
"k.	c #81ABAF",
"l.	c #0E898F",
"m.	c #A57F8A",
"n.	c #C35154",
"o.	c #C44C72",
"p.	c #439A9D",
"q.	c #0B8991",
"r.	c #73A8B6",
"s.	c #6AD3CC",
"t.	c #BC96A6",
"u.	c #CD9CA7",
"v.	c #95DFE6",
"w.	c #238B8E",
"x.	c #85CFC8",
"y.	c #12F788",
"z.	c #07F188",
"A.	c #08F28E",
"B.	c #09E68D",
"C.	c #0CD18A",
"D.	c #25E590",
"E.	c #81D4C1",
"F.	c #3A8D8E",
"G.	c #B789A1",
"H.	c #C4565C",
"I.	c #C183A9",
"J.	c #65B9BC",
"K.	c #2A8987",
"L.	c #68DAC6",
"M.	c #9EA4A7",
"N.	c #B7E4DC",
"O.	c #C668B1",
"P.	c #C7BFDB",
"Q.	c #67C4C1",
"R.	c #73E4BF",
"S.	c #0EE38D",
"T.	c #0CC988",
"U.	c #09E58C",
"V.	c #08F18A",
"W.	c #08EB8A",
"X.	c #13E88E",
"Y.	c #6BE499",
"Z.	c #759396",
"`.	c #B0CECA",
" +	c #C49AC6",
".+	c #B9BBC9",
"++	c #89DAD2",
"@+	c #6B988C",
"#+	c #7EBFA2",
"$+	c #A76358",
"%+	c #C6C9CB",
"&+	c #C6495F",
"*+	c #BC5579",
"=+	c #94C0D2",
"-+	c #67E5BC",
";+	c #13C58E",
">+	c #0DCD87",
",+	c #08EE89",
"'+	c #06FA89",
")+	c #08E789",
"!+	c #12E88A",
"~+	c #29E393",
"{+	c #75C2C5",
"]+	c #7BDCF2",
"^+	c #BBAFAE",
"/+	c #C56078",
"(+	c #8DD7CD",
"_+	c #6DD7C8",
":+	c #8ADCE1",
"<+	c #AF6A6C",
"[+	c #BECEDB",
"}+	c #B9B7C4",
"|+	c #BAA5BB",
"1+	c #71E5EC",
"2+	c #45EFB8",
"3+	c #08F28C",
"4+	c #05F389",
"5+	c #09F08E",
"6+	c #0AEE8C",
"7+	c #0CE68C",
"8+	c #11E686",
"9+	c #34EC93",
"0+	c #69E39E",
"a+	c #56F7E2",
"b+	c #AEC1C2",
"c+	c #C9758F",
"d+	c #A8DDE4",
"e+	c #989CC8",
"f+	c #55EDC1",
"g+	c #B04390",
"h+	c #BDB4D7",
"i+	c #A7E6EB",
"j+	c #A8CCD7",
"k+	c #6DF4D8",
"l+	c #43F098",
"m+	c #0CF588",
"n+	c #10EC89",
"o+	c #0BE88A",
"p+	c #0DEF89",
"q+	c #1BE78A",
"r+	c #3FE68B",
"s+	c #6DE7B9",
"t+	c #68EBC3",
"u+	c #A8CAD3",
"v+	c #B9A5CE",
"w+	c #C383B9",
"x+	c #ABCFDD",
"y+	c #99D5E7",
"z+	c #7BDECD",
"A+	c #A46D75",
"B+	c #C15577",
"C+	c #6FE8B9",
"D+	c #47ECA9",
"E+	c #65F2D7",
"F+	c #45EF8C",
"G+	c #1DED8C",
"H+	c #07EA8B",
"I+	c #08E68B",
"J+	c #22EE8F",
"K+	c #3AE38C",
"L+	c #55B194",
"M+	c #71CDC8",
"N+	c #6DA8A5",
"O+	c #A4C9E4",
"P+	c #BBA0B0",
"Q+	c #BBA4B4",
"R+	c #A5B4C2",
"S+	c #ACCAD0",
"T+	c #7BDECF",
"U+	c #B09782",
"V+	c #B599C2",
"W+	c #65F5A0",
"X+	c #28EF8D",
"Y+	c #16E58D",
"Z+	c #3DED8F",
"`+	c #70F292",
" @	c #1BE789",
".@	c #36E68B",
"+@	c #74E2A6",
"@@	c #7BCBD3",
"#@	c #118A90",
"$@	c #43888A",
"%@	c #6F9896",
"&@	c #6FD2D3",
"*@	c #6EEFE8",
"=@	c #A49ADE",
"-@	c #76C7DC",
";@	c #82E7E3",
">@	c #8BD4E1",
",@	c #8BC5C9",
"'@	c #9DCCD4",
")@	c #70F2B2",
"!@	c #4CF695",
"~@	c #0FEB8A",
"{@	c #1AE68F",
"]@	c #6DE694",
"^@	c #74E791",
"/@	c #67D291",
"(@	c #5DCEB6",
"_@	c #7AAC9D",
":@	c #50888B",
"<@	c #6F8C8D",
"[@	c #64978B",
"}@	c #63ABA4",
"|@	c #7DEDE6",
"1@	c #96D5E5",
"2@	c #66E2DC",
"3@	c #5DEDC0",
"4@	c #67F1C8",
"5@	c #86C2C8",
"6@	c #95D3CA",
"7@	c #62F4A4",
"8@	c #35EC8B",
"9@	c #64F696",
"0@	c #1DE98C",
"a@	c #4DE68E",
"b@	c #75E692",
"c@	c #4BE690",
"d@	c #16D598",
"e@	c #0DA18B",
"f@	c #0F908B",
"g@	c #16998B",
"h@	c #4EBB95",
"i@	c #39A194",
"j@	c #90CFD0",
"k@	c #A3ECDC",
"l@	c #79EACE",
"m@	c #83DCEF",
"n@	c #9AEDEA",
"o@	c #5AC6CF",
"p@	c #61EBB7",
"q@	c #36F0A2",
"r@	c #0ED692",
"s@	c #2FE28E",
"t@	c #5EED93",
"u@	c #20E98C",
"v@	c #6BE395",
"w@	c #6FE790",
"x@	c #22E68F",
"y@	c #09DE8A",
"z@	c #0BD18A",
"A@	c #09D788",
"B@	c #2BE69D",
"C@	c #45B399",
"D@	c #6BA2AB",
"E@	c #B9D3DF",
"F@	c #A3CCC6",
"G@	c #8BCDD2",
"H@	c #74ECDC",
"I@	c #51DAC6",
"J@	c #53F69D",
"K@	c #12F98E",
"L@	c #08EA8A",
"M@	c #0DC38B",
"N@	c #65E68E",
"O@	c #48E68C",
"P@	c #3EE78B",
"Q@	c #39E98D",
"R@	c #63E58B",
"S@	c #51E890",
"T@	c #34E388",
"U@	c #0BE989",
"V@	c #05E790",
"W@	c #34B19D",
"X@	c #4E9193",
"Y@	c #92B8B1",
"Z@	c #B0C9E4",
"`@	c #78D6DF",
" #	c #82EDCA",
".#	c #5AD4C8",
"+#	c #76E8B5",
"@#	c #5DF499",
"##	c #16E88C",
"$#	c #07BE8A",
"%#	c #55BA8A",
"&#	c #76E795",
"*#	c #18E58D",
"=#	c #29E593",
"-#	c #22E491",
";#	c #15E78A",
">#	c #07DF88",
",#	c #09EB88",
"'#	c #1BD28B",
")#	c #21948E",
"!#	c #34908C",
"~#	c #5BEC9C",
"{#	c #87E4CA",
"]#	c #8DEED0",
"^#	c #8DE5D5",
"/#	c #6DD7C2",
"(#	c #88DCCD",
"_#	c #67F198",
":#	c #6BDD8E",
"<#	c #54B09B",
"[#	c #35AA96",
"}#	c #70E496",
"|#	c #15AA8E",
"1#	c #0CAB8C",
"2#	c #29CF8F",
"3#	c #0DEA8B",
"4#	c #0BD189",
"5#	c #33C88F",
"6#	c #2EAE8F",
"7#	c #0D878E",
"8#	c #2F978C",
"9#	c #58ED9B",
"0#	c #A2EEC1",
"a#	c #9DD5E8",
"b#	c #9AD1D2",
"c#	c #67CBD0",
"d#	c #78E1E1",
"e#	c #67E8C1",
"f#	c #60CA94",
"g#	c #65C8C2",
"h#	c #1D9D9C",
"i#	c #4EBA90",
"j#	c #309695",
"k#	c #119594",
"l#	c #0D9F9D",
"m#	c #0D9D88",
"n#	c #0B9F89",
"o#	c #10928D",
"p#	c #0E868C",
"q#	c #1C8789",
"r#	c #369B89",
"s#	c #51E68E",
"t#	c #A6E9D0",
"u#	c #8ED9D7",
"v#	c #5FEBD0",
"w#	c #60DDD7",
"x#	c #59F0E0",
"y#	c #57EDEB",
"z#	c #5EE8CB",
"A#	c #5EEFE8",
"B#	c #5ADAD7",
"C#	c #0F8A94",
"D#	c #148C9A",
"E#	c #118794",
"F#	c #14919D",
"G#	c #11878F",
"H#	c #0F888F",
"I#	c #0A888C",
"J#	c #0C858A",
"K#	c #559192",
"L#	c #75B890",
"M#	c #A8B2A9",
"N#	c #B4F0EA",
"O#	c #9ADCD4",
"P#	c #A1DEE7",
"Q#	c #6ED8DB",
"R#	c #8FDFE8",
"S#	c #57E9E6",
"T#	c #62DEB3",
"U#	c #63EAD5",
"V#	c #59F3EB",
"W#	c #46B4B6",
"X#	c #0A8497",
"Y#	c #0D858E",
"Z#	c #268890",
"`#	c #298C97",
" $	c #288D94",
".$	c #4A8996",
"+$	c #88859F",
"@$	c #C980C9",
"#$	c #C6C8D7",
"$$	c #ACE5EB",
"%$	c #9FDADA",
"&$	c #B9C1D2",
"*$	c #A9D2E0",
"=$	c #72D0DE",
"-$	c #88E3F3",
";$	c #64E4EB",
">$	c #77E4CB",
",$	c #7EE5E6",
"'$	c #88E3EA",
")$	c #79D8E5",
"!$	c #4BC598",
"~$	c #40D595",
"{$	c #48D597",
"]$	c #4ED493",
"^$	c #48B78F",
"/$	c #9D8887",
"($	c #C355A2",
"_$	c #CD7486",
":$	c #A2E3E2",
"<$	c #A9D4D7",
"[$	c #C0BECD",
"}$	c #A0E0DC",
"|$	c #77EAC0",
"1$	c #4DD9CF",
"2$	c #61EDEB",
"3$	c #52E2F3",
"4$	c #66DFDB",
"5$	c #94D2E1",
"6$	c #77E3E6",
"7$	c #78E6E0",
"8$	c #A8EECB",
"9$	c #7EE3A2",
"0$	c #71E0B5",
"a$	c #81E1A9",
"b$	c #8AEAB2",
"c$	c #B6D1B0",
"d$	c #CB84AE",
"e$	c #CEA4BC",
"f$	c #C5A7BF",
"g$	c #B6B6D4",
"h$	c #BEBAC8",
"i$	c #9FCDE0",
"j$	c #7DEAC9",
"k$	c #6FC0CE",
"l$	c #91C0D8",
"m$	c #59EBEE",
"n$	c #62E4E3",
"o$	c #78E6EC",
"p$	c #94DBE9",
"q$	c #A3D1E4",
"r$	c #A1E6E3",
"s$	c #ACD6B1",
"t$	c #CBB8D1",
"u$	c #CACFD3",
"v$	c #B89F92",
"w$	c #C35A75",
"x$	c #C8699D",
"y$	c #C54F66",
"z$	c #CC787C",
"A$	c #BADEE4",
"B$	c #A9ECD8",
"C$	c #8CDFE9",
"D$	c #ADCDD1",
"E$	c #56D3D0",
"F$	c #5EDBCF",
"G$	c #63EDE3",
"H$	c #5BE9E2",
"I$	c #7CEDF1",
"J$	c #9DE2EA",
"K$	c #5FEBC1",
"L$	c #83EEC9",
"M$	c #9FE1DA",
"N$	c #CCC4D8",
"O$	c #C68072",
"P$	c #C3332E",
"Q$	c #C33148",
"R$	c #CE769C",
"S$	c #C97592",
"T$	c #CB8EA5",
"U$	c #C7BED6",
"V$	c #9C9CD2",
"W$	c #A3B8D9",
"X$	c #A2B3CB",
"Y$	c #53D2BA",
"Z$	c #62BB97",
"`$	c #5AEBBD",
" %	c #5FEAEE",
".%	c #8DD7EF",
"+%	c #9DE9E1",
"@%	c #65DD94",
"#%	c #6BD39C",
"$%	c #98EDE3",
"%%	c #B0DEEA",
"&%	c #BE77CF",
"*%	c #C785C7",
"=%	c #D3C2CA",
"-%	c #B3B6D8",
";%	c #D4A3B2",
">%	c #D58DA5",
",%	c #A8AFC7",
"'%	c #AA97C6",
")%	c #8AE1E3",
"!%	c #99DCEA",
"~%	c #4DD4D0",
"{%	c #5ED7AA",
"]%	c #83E0DE",
"^%	c #70E2E5",
"/%	c #6DE3E0",
"(%	c #A4F3F0",
"_%	c #5DCEAE",
":%	c #69E1C6",
"<%	c #AEDBDC",
"[%	c #9EE7E9",
"}%	c #B6B1CF",
"|%	c #C33E8B",
"1%	c #CECBE5",
"2%	c #AADCEC",
"3%	c #CA9AB0",
"4%	c #BF65AD",
"5%	c #B5AECA",
"6%	c #9BF0E5",
"7%	c #A7F3E1",
"8%	c #ACE4E6",
"9%	c #49D1DA",
"0%	c #64CBE1",
"a%	c #71DDE2",
"b%	c #58E5DD",
"c%	c #71C9BF",
"d%	c #A2EDD9",
"e%	c #73DFBD",
"f%	c #9EC2D2",
"g%	c #A9E7EA",
"h%	c #69C7BD",
"i%	c #ADC5CA",
"j%	c #C568A7",
"k%	c #C587C7",
"l%	c #CB7285",
"m%	c #D1A1AA",
"n%	c #CA826E",
"o%	c #B3C3CE",
"p%	c #A6DDE6",
"q%	c #A2F2E4",
"r%	c #C5BEBD",
"s%	c #55D9D0",
"t%	c #54F7EB",
"u%	c #57EEE9",
"v%	c #90D2E8",
"w%	c #7FD0E4",
"x%	c #96E2E4",
"y%	c #AAE9DA",
"z%	c #A5EEE1",
"A%	c #9DE7E9",
"B%	c #C08C8E",
"C%	c #C56CAE",
"D%	c #C74590",
"E%	c #C34F52",
"F%	c #D48E8C",
"G%	c #E5CAD4",
"H%	c #D4D7EA",
"I%	c #9BE1E0",
"J%	c #A3D7E7",
"K%	c #9E9ECC",
"L%	c #9AC7C4",
"M%	c #78CFD8",
"N%	c #60EAEF",
"O%	c #A9D5DD",
"P%	c #7ED5E4",
"Q%	c #59E7CC",
"R%	c #94DEDE",
"S%	c #B1EFEC",
"T%	c #B2E4EC",
"U%	c #BE95B3",
"V%	c #C33C69",
"W%	c #C32F50",
"X%	c #D490A4",
"Y%	c #C65A8B",
"Z%	c #D387A6",
"`%	c #B7B2B9",
" &	c #96D3E8",
".&	c #97D6E8",
"+&	c #ACD6E7",
"@&	c #80EBEA",
"#&	c #55F6ED",
"$&	c #68CFCE",
"%&	c #61DEEE",
"&&	c #9DD8EA",
"*&	c #72F1BF",
"=&	c #61E691",
"-&	c #77D6C1",
";&	c #ADE9EC",
">&	c #AAD6E2",
",&	c #D8C5D5",
"'&	c #D5939B",
")&	c #D097D4",
"!&	c #C2CACD",
"~&	c #E8D0C3",
"{&	c #CF8AA6",
"]&	c #AECCDB",
"^&	c #92CEEA",
"/&	c #A1DEEC",
"(&	c #A4EAED",
"_&	c #88EAF0",
":&	c #A4B6CB",
"<&	c #79C5D5",
"[&	c #6CDEDE",
"}&	c #8FDCE9",
"|&	c #A5E0D7",
"1&	c #62DDA5",
"2&	c #62E4C8",
"3&	c #A1DDE5",
"4&	c #A9DEEA",
"5&	c #CC9DCC",
"6&	c #C89FC2",
"7&	c #D7D5DF",
"8&	c #9FF0EC",
"9&	c #C982D1",
"0&	c #C65FAE",
"a&	c #ABD5E4",
"b&	c #58ECDD",
"c&	c #73F3E7",
"d&	c #9FECEC",
"e&	c #A3C9CF",
"f&	c #BFAC9E",
"g&	c #80C3C6",
"h&	c #70EAD6",
"i&	c #77E6CE",
"j&	c #AEDCE7",
"k&	c #7EC9C1",
"l&	c #9B9CC0",
"m&	c #A9B8B9",
"n&	c #56C7AF",
"o&	c #A29AC0",
"p&	c #C349A6",
"q&	c #CACAE1",
"r&	c #C3AABD",
"s&	c #C270A2",
"t&	c #C4918D",
"u&	c #AAC6D6",
"v&	c #A6EAE1",
"w&	c #9AECDC",
"x&	c #9CEBEF",
"y&	c #ADD0DE",
"z&	c #A6BFC5",
"A&	c #9CC2C1",
"B&	c #C76374",
"C&	c #ACD1CC",
"D&	c #8DE3E7",
"E&	c #A9E7D8",
"F&	c #A9DCDF",
"G&	c #AEF0E3",
"H&	c #AEBAA5",
"I&	c #C3979A",
"J&	c #C3329E",
"K&	c #C34762",
"L&	c #CC6969",
"M&	c #A4D1EB",
"N&	c #8FF1F1",
"O&	c #A4D3ED",
"P&	c #ABDAEB",
"Q&	c #ABB4CC",
"R&	c #A6BBDA",
"S&	c #6EEAD9",
"T&	c #5BE9D0",
"U&	c #89A1B5",
"V&	c #CA346B",
"W&	c #B99A9F",
"X&	c #9DDBDC",
"Y&	c #9CF2EA",
"Z&	c #ADE9EF",
"`&	c #C2C6DD",
" *	c #C53854",
".*	c #DC7594",
"+*	c #C79396",
"@*	c #D9959F",
"#*	c #CA889B",
"$*	c #B1C1DC",
"%*	c #75E5BF",
"&*	c #71E7CA",
"**	c #A8D3EA",
"=*	c #74A5C1",
"-*	c #90C6CE",
";*	c #5CEAE3",
">*	c #5EE3D1",
",*	c #85A9B3",
"'*	c #AA8AA0",
")*	c #B7B6C3",
"!*	c #A7D1DE",
"~*	c #A9CADB",
"{*	c #ABCEDD",
"]*	c #E2B89C",
"^*	c #D13238",
"/*	c #CF545E",
"(*	c #D3C8C2",
"_*	c #ADCADD",
":*	c #C6A0AD",
"<*	c #A5CCCD",
"[*	c #72D8E0",
"}*	c #6BE0D8",
"|*	c #97DAE1",
"1*	c #64F2E5",
"2*	c #7BCDE0",
"3*	c #9BDCE5",
"4*	c #9ADCE4",
"5*	c #7CC5C6",
"6*	c #77E0DA",
"7*	c #8FDFD1",
"8*	c #8CB9BA",
"9*	c #90B3D0",
"0*	c #94C4D4",
"a*	c #BCA3A4",
"b*	c #A99D8C",
"c*	c #9BB7C1",
"d*	c #9BB9CA",
"e*	c #B098B6",
"f*	c #97A4BA",
"g*	c #8CB4C8",
"h*	c #7AC1D5",
"i*	c #78CAD0",
"j*	c #5FD4D5",
"k*	c #81CACA",
"l*	c #92AAB3",
"m*	c #88C9D1",
"n*	c #85BFBD",
". + @ # $ % & * = - ; > , ' ) ! ~ { ] > > ] { ~ ! ) ' , > ; - = * & % $ # @ + . ",
"^ / ( _ : < [ } | 1 2 3 4 5 6 7 8 9 0 a a 0 9 8 7 6 5 4 3 2 1 | } [ < : _ ( / ^ ",
"b c d e f g h i j k l m 8 n o p q r s ) ) s r q p o n 8 m l k j i h g f e d c b ",
"t u ; f v w x y z A B C D n E ; F G > H H > G F ; E n D C B A z y x w v f ; u t ",
"I J K L M N O P Q o 8 R S T U V W W X Y Y X W W V U T S R 8 o Q P O N M L K J I ",
"Z `  ...+.@.#.$.%.&.*.=.-.;.>.,.'.).!.~.~.!.).'.,.>.;.-.=.*.&.%.$.#.@.+... .` Z ",
"{.].^./.(._.:.<.[.}.|.1.2.3.4.5.6.7.0 8.8.0 7.6.5.4.3.2.1.|.}.[.<.:._.(./.^.].{.",
"9.0.a.b.c.d.e.f.g.h.i.j.k.l.m.n.o.p.q.r.r.q.p.o.n.m.l.k.j.i.h.g.f.e.d.c.b.a.0.9.",
"s.t.u.v.w.x.y.z.A.B.C.D.E.F.G.H.I.J.K.L.L.K.J.I.H.G.F.E.D.C.B.A.z.y.x.w.v.u.t.s.",
"M.N.O.P.Q.R.S.T.U.V.W.X.Y.Z.`. +.+++@+#+#+@+++.+ +`.Z.Y.X.W.V.U.T.S.R.Q.P.O.N.M.",
"$+%+&+*+=+-+;+>+,+'+)+!+~+{+]+^+/+(+_+:+:+_+(+/+^+]+{+~+!+)+'+,+>+;+-+=+*+&+%+$+",
"<+[+}+|+1+2+3+4+5+6+7+8+9+0+a+b+c+d+e+f+f+e+d+c+b+a+0+9+8+7+6+5+4+3+2+1+|+}+[+<+",
"g+h+i+j+k+l+m+n+o+p+q+r+s+t+u+v+w+x+y+z+z+y+x+w+v+u+t+s+r+q+p+o+n+m+l+k+j+i+h+g+",
"A+B+C+D+E+F+G+H+I+J+K+L+M+N+O+P+Q+R+S+T+T+S+R+Q+P+O+N+M+L+K+J+I+H+G+F+E+D+C+B+A+",
"U+V+W+X+Y+Z+`+ @.@+@@@#@$@%@&@*@=@-@;@>@>@;@-@=@*@&@%@$@#@@@+@.@ @`+Z+Y+X+W+V+U+",
",@'@)@!@~@{@]@^@/@(@_@:@<@[@}@|@1@2@3@4@4@3@2@1@|@}@[@<@:@_@(@/@^@]@{@~@!@)@'@,@",
"5@6@7@8@9@0@a@b@c@d@e@f@g@h@i@j@k@l@m@n@n@m@l@k@j@i@h@g@f@e@d@c@b@a@0@9@8@7@6@5@",
"o@p@q@r@s@t@u@v@w@x@y@z@A@B@C@D@E@F@G@H@H@G@F@E@D@C@B@A@z@y@x@w@v@u@t@s@r@q@p@o@",
"I@J@K@L@M@N@O@P@Q@R@S@T@U@V@W@X@Y@Z@`@ # #`@Z@Y@X@W@V@U@T@S@R@Q@P@O@N@M@L@K@J@I@",
".#+#@###$#%#&#*#=#-#;#>#,#'#)#!#~#{#]#^#^#]#{#~#!#)#'#,#>#;#-#=#*#&#%#$###@#+#.#",
"/#(#_#:#<#[#}#|#1#2#3#4#5#6#7#8#9#0#a#b#b#a#0#9#8#7#6#5#4#3#2#1#|#}#[#<#:#_#(#/#",
"c#d#e#f#g#h#i#j#k#l#m#n#o#p#q#r#s#t#u#v#v#u#t#s#r#q#p#o#n#m#l#k#j#i#h#g#f#e#d#c#",
"w#x#y#z#A#B#C#D#E#F#G#H#I#J#K#L#M#N#O#P#P#O#N#M#L#K#J#I#H#G#F#E#D#C#B#A#z#y#x#w#",
"Q#R#S#T#U#V#W#X#Y#Z#`# $.$+$@$#$$$%$&$*$*$&$%$$$#$@$+$.$ $`#Z#Y#X#W#V#U#T#S#R#Q#",
"=$-$;$>$,$'$)$!$~${$]$^$/$($_$:$<$[$}$|$|$}$[$<$:$_$($/$^$]${$~$!$)$'$,$>$;$-$=$",
"1$2$3$4$5$6$7$8$9$0$a$b$c$d$e$f$g$h$i$j$j$i$h$g$f$e$d$c$b$a$0$9$8$7$6$5$4$3$2$1$",
"k$l$m$n$o$p$q$r$s$t$u$v$w$x$y$z$A$B$C$D$D$C$B$A$z$y$x$w$v$u$t$s$r$q$p$o$n$m$l$k$",
"E$F$G$H$I$J$K$L$M$N$O$P$Q$R$S$T$U$V$W$X$X$W$V$U$T$S$R$Q$P$O$N$M$L$K$J$I$H$G$F$E$",
"Y$Z$`$ %.%+%@%#%$%%%&%*%=%-%;%>%,%'%)%!%!%)%'%,%>%;%-%=%*%&%%%$%#%@%+%.% %`$Z$Y$",
"~%{%]%^%/%(%_%:%<%[%}%|%1%2%3%4%5%6%7%8%8%7%6%5%4%3%2%1%|%}%[%<%:%_%(%/%^%]%{%~%",
"9%0%a%b%c%d%e%f%g%h%i%j%k%l%m%n%o%p%q%r%r%q%p%o%n%m%l%k%j%i%h%g%f%e%d%c%b%a%0%9%",
"s%t%u%v%w%x%y%z%A%B%C%D%E%F%G%H%I%J%K%L%L%K%J%I%H%G%F%E%D%C%B%A%z%y%x%w%v%u%t%s%",
"M%N%O%P%Q%R%S%T%U%V%W%X%Y%Z%`% &.&+&@&#&#&@&+&.& &`%Z%Y%X%W%V%U%T%S%R%Q%P%O%N%M%",
"$&%&&&*&=&-&;&>&,&'&)&!&~&{&]&^&/&(&_&:&:&_&(&/&^&]&{&~&!&)&'&,&>&;&-&=&*&&&%&$&",
"<&[&}&|&1&2&3&4&5&6&7&8&9&0&a&b&c&d&e&f&f&e&d&c&b&a&0&9&8&7&6&5&4&3&2&1&|&}&[&<&",
"g&h&i&j&k&l&m&n&o&p&q&r&s&t&u&v&w&x&y&z&z&y&x&w&v&u&t&s&r&q&p&o&n&m&l&k&j&i&h&g&",
"A&B&C&D&E&F&G&H&I&J&K&L&M&N&O&P&Q&R&S&T&T&S&R&Q&P&O&N&M&L&K&J&I&H&G&F&E&D&C&B&A&",
"U&V&W&X&Y&Z&`& *.*+*@*#*$*%*&***=*-*;*>*>*;*-*=***&*%*$*#*@*+*.* *`&Z&Y&X&W&V&U&",
",*'*)*!*~*{*]*^*/*(*_*:*<*[*}*|*1*2*3*4*4*3*2*1*|*}*[*<*:*_*(*/*^*]*{*~*!*)*'*,*",
"5*6*7*8*9*0*a*b*c*d*e*f*g*h*i*j*k*l*m*n*n*m*l*k*j*i*h*g*f*e*d*c*b*a*0*9*8*7*6*5*"};
