/* XPM */
static char * effectvrndmmodule_xpm[] = {
"40 40 902 2",
"  	c None",
". 	c #3A3030",
"+ 	c #35251B",
"@ 	c #302A2A",
"# 	c #30302A",
"$ 	c #4A3A3A",
"% 	c #7A503A",
"& 	c #8A5A30",
"* 	c #55504A",
"= 	c #2A2A25",
"- 	c #755A55",
"; 	c #5A4A4A",
"> 	c #202020",
", 	c #503A35",
"' 	c #EA8A85",
") 	c #B55550",
"! 	c #6A5045",
"~ 	c #353025",
"{ 	c #5A4540",
"] 	c #705A55",
"^ 	c #655045",
"/ 	c #654A4A",
"( 	c #655555",
"_ 	c #9F504A",
": 	c #DA8F7A",
"< 	c #BA6A60",
"[ 	c #754040",
"} 	c #4A3530",
"| 	c #B5756A",
"1 	c #AF8F8A",
"2 	c #A55A50",
"3 	c #75403A",
"4 	c #452A25",
"5 	c #A5706A",
"6 	c #CA7565",
"7 	c #9A4535",
"8 	c #805A45",
"9 	c #70504A",
"0 	c #755055",
"a 	c #606055",
"b 	c #40301B",
"c 	c #6A5A5A",
"d 	c #7A6550",
"e 	c #3A2525",
"f 	c #5A2A2A",
"g 	c #CF9575",
"h 	c #BF8565",
"i 	c #753A30",
"j 	c #3A3A2A",
"k 	c #856A65",
"l 	c #7A6A60",
"m 	c #604A40",
"n 	c #5A3535",
"o 	c #8A5A50",
"p 	c #F48F85",
"q 	c #CF7A4A",
"r 	c #BF7A65",
"s 	c #554A40",
"t 	c #70503A",
"u 	c #705555",
"v 	c #502A2A",
"w 	c #653A3A",
"x 	c #553A3A",
"y 	c #955050",
"z 	c #956A50",
"A 	c #B54540",
"B 	c #95504A",
"C 	c #503A30",
"D 	c #AF7065",
"E 	c #9A605A",
"F 	c #854040",
"G 	c #BA655A",
"H 	c #5A3A35",
"I 	c #956060",
"J 	c #8F705A",
"K 	c #BF6550",
"L 	c #AF6A60",
"M 	c #403030",
"N 	c #7A5A55",
"O 	c #453535",
"P 	c #70453A",
"Q 	c #6A504A",
"R 	c #603A3A",
"S 	c #8A5A5A",
"T 	c #A56A60",
"U 	c #805550",
"V 	c #6A5555",
"W 	c #755540",
"X 	c #704540",
"Y 	c #503540",
"Z 	c #7A6055",
"` 	c #6A2A25",
" .	c #B57065",
"..	c #BF655A",
"+.	c #95352A",
"@.	c #604A45",
"#.	c #5A4A40",
"$.	c #40403A",
"%.	c #706565",
"&.	c #554A45",
"*.	c #4A302A",
"=.	c #855A50",
"-.	c #E49560",
";.	c #CA8070",
">.	c #654040",
",.	c #8F4A40",
"'.	c #FABAAA",
").	c #BF8A7A",
"!.	c #75554A",
"~.	c #CF9570",
"{.	c #FFBF9F",
"].	c #954535",
"^.	c #4A3A30",
"/.	c #55452A",
"(.	c #605055",
"_.	c #705550",
":.	c #452520",
"<.	c #5A554A",
"[.	c #603A30",
"}.	c #453A35",
"|.	c #857060",
"1.	c #A57055",
"2.	c #DF705A",
"3.	c #7A6050",
"4.	c #6A3A3A",
"5.	c #605050",
"6.	c #807A75",
"7.	c #AA6A60",
"8.	c #D49A6A",
"9.	c #FFBFBA",
"0.	c #6A4A45",
"a.	c #604545",
"b.	c #60554A",
"c.	c #4A403A",
"d.	c #655550",
"e.	c #8F6A60",
"f.	c #8F5A50",
"g.	c #FAD4DF",
"h.	c #BA7055",
"i.	c #AF7560",
"j.	c #8F5540",
"k.	c #C58F70",
"l.	c #E4BAB5",
"m.	c #8F6A6A",
"n.	c #604A30",
"o.	c #956A5A",
"p.	c #E48F95",
"q.	c #B56A55",
"r.	c #8F7075",
"s.	c #403025",
"t.	c #504A3A",
"u.	c #60453A",
"v.	c #65554A",
"w.	c #8F7055",
"x.	c #705A5A",
"y.	c #70655A",
"z.	c #705050",
"A.	c #DA8F85",
"B.	c #DFCFCA",
"C.	c #B5807A",
"D.	c #755A5A",
"E.	c #3A201B",
"F.	c #65504A",
"G.	c #806A60",
"H.	c #4A4545",
"I.	c #95807A",
"J.	c #DAA5A5",
"K.	c #DF9A7A",
"L.	c #BF7560",
"M.	c #5A3520",
"N.	c #7A605A",
"O.	c #654545",
"P.	c #756A5A",
"Q.	c #80655A",
"R.	c #45252A",
"S.	c #95656A",
"T.	c #9A4550",
"U.	c #BA706A",
"V.	c #DF8070",
"W.	c #CA504A",
"X.	c #AF756A",
"Y.	c #754A4A",
"Z.	c #8A5550",
"`.	c #805045",
" +	c #502A20",
".+	c #8A7570",
"++	c #855A5A",
"@+	c #9F6A65",
"#+	c #A56565",
"$+	c #352525",
"%+	c #454040",
"&+	c #4A352A",
"*+	c #504035",
"=+	c #402A20",
"-+	c #9A5540",
";+	c #B55A4A",
">+	c #A5705A",
",+	c #855050",
"'+	c #D46A60",
")+	c #704040",
"!+	c #75504A",
"~+	c #807565",
"{+	c #806A65",
"]+	c #302525",
"^+	c #6A6A65",
"/+	c #553035",
"(+	c #955A65",
"_+	c #8A655A",
":+	c #6A6060",
"<+	c #756560",
"[+	c #755050",
"}+	c #55403A",
"|+	c #60504A",
"1+	c #9A6A65",
"2+	c #AF6A5A",
"3+	c #BF806A",
"4+	c #9F7565",
"5+	c #CA8A65",
"6+	c #AF8075",
"7+	c #BF6A65",
"8+	c #C55A4A",
"9+	c #9A4545",
"0+	c #9A8570",
"a+	c #805A4A",
"b+	c #B58A75",
"c+	c #E48575",
"d+	c #7A454A",
"e+	c #755A50",
"f+	c #7A5A5A",
"g+	c #3A3025",
"h+	c #70554A",
"i+	c #CF7A7A",
"j+	c #FA9A95",
"k+	c #BA9585",
"l+	c #756550",
"m+	c #80756A",
"n+	c #80705A",
"o+	c #756A55",
"p+	c #8A4A3A",
"q+	c #654A35",
"r+	c #50402A",
"s+	c #9A7065",
"t+	c #AA7A55",
"u+	c #5A4040",
"v+	c #857560",
"w+	c #7A6060",
"x+	c #504540",
"y+	c #654A45",
"z+	c #60403A",
"A+	c #8A6060",
"B+	c #AF7A70",
"C+	c #85605A",
"D+	c #A5807A",
"E+	c #9F453A",
"F+	c #804A45",
"G+	c #7A706A",
"H+	c #9A7560",
"I+	c #5A4545",
"J+	c #7A3A3A",
"K+	c #605045",
"L+	c #40302A",
"M+	c #6A4A35",
"N+	c #7A3A2A",
"O+	c #6A655A",
"P+	c #AA8F80",
"Q+	c #AF6050",
"R+	c #B5605A",
"S+	c #9A6550",
"T+	c #956550",
"U+	c #756A60",
"V+	c #553A35",
"W+	c #553535",
"X+	c #6A6560",
"Y+	c #755555",
"Z+	c #6A4A40",
"`+	c #654530",
" @	c #65453A",
".@	c #8F7570",
"+@	c #6A4040",
"@@	c #55453A",
"#@	c #552A2A",
"$@	c #95605A",
"%@	c #D47555",
"&@	c #CA8F55",
"*@	c #855550",
"=@	c #804A3A",
"-@	c #705545",
";@	c #6A453A",
">@	c #8F8080",
",@	c #955A55",
"'@	c #AA5035",
")@	c #C57555",
"!@	c #C56A65",
"~@	c #9A5545",
"{@	c #756555",
"]@	c #754A40",
"^@	c #705A50",
"/@	c #75655A",
"(@	c #956A60",
"_@	c #806560",
":@	c #403020",
"<@	c #7A5A50",
"[@	c #757060",
"}@	c #554040",
"|@	c #705A60",
"1@	c #8F6A55",
"2@	c #704A45",
"3@	c #D4A59F",
"4@	c #EACACA",
"5@	c #806055",
"6@	c #5A4A45",
"7@	c #7A4A35",
"8@	c #604540",
"9@	c #352A2A",
"0@	c #403535",
"a@	c #454540",
"b@	c #9F8A7A",
"c@	c #8A7065",
"d@	c #BF5A50",
"e@	c #FFEAEA",
"f@	c #AF6A6A",
"g@	c #B57A65",
"h@	c #45201B",
"i@	c #6A5050",
"j@	c #705540",
"k@	c #706055",
"l@	c #65454A",
"m@	c #80605A",
"n@	c #807570",
"o@	c #5A5050",
"p@	c #5A5550",
"q@	c #756565",
"r@	c #9A4A35",
"s@	c #CF8F8A",
"t@	c #9A403A",
"u@	c #9F6A6A",
"v@	c #AA5555",
"w@	c #80402A",
"x@	c #7A5540",
"y@	c #8F7060",
"z@	c #75605A",
"A@	c #504545",
"B@	c #3A3A3A",
"C@	c #5A5045",
"D@	c #502A25",
"E@	c #BA7A60",
"F@	c #8A5A4A",
"G@	c #AA7A7A",
"H@	c #5A3A3A",
"I@	c #604530",
"J@	c #8F7065",
"K@	c #957A65",
"L@	c #7A555A",
"M@	c #806A5A",
"N@	c #804A40",
"O@	c #DF8A95",
"P@	c #CF807A",
"Q@	c #9F6A60",
"R@	c #9F6A5A",
"S@	c #BA7065",
"T@	c #6A4A3A",
"U@	c #504535",
"V@	c #8A807A",
"W@	c #604040",
"X@	c #6A6A60",
"Y@	c #504040",
"Z@	c #DF8A8A",
"`@	c #CA7A60",
" #	c #9A7A75",
".#	c #AA7A75",
"+#	c #704A4A",
"@#	c #505050",
"##	c #856A5A",
"$#	c #7A7055",
"%#	c #653A30",
"&#	c #60503A",
"*#	c #806A50",
"=#	c #8A756A",
"-#	c #806050",
";#	c #656560",
">#	c #604A4A",
",#	c #956565",
"'#	c #BA8F8A",
")#	c #BA8575",
"!#	c #9A6A60",
"~#	c #AF807A",
"{#	c #7A756A",
"]#	c #7A6A55",
"^#	c #655040",
"/#	c #7A6540",
"(#	c #7A6560",
"_#	c #70605A",
":#	c #75706A",
"<#	c #4A4A45",
"[#	c #453A2A",
"}#	c #8F6060",
"|#	c #AA7575",
"1#	c #BA7075",
"2#	c #AA6A6A",
"3#	c #CA9A95",
"4#	c #7A5545",
"5#	c #604A3A",
"6#	c #AA958A",
"7#	c #5A5035",
"8#	c #5A453A",
"9#	c #6A5A55",
"0#	c #3A3A30",
"a#	c #554A4A",
"b#	c #5A5555",
"c#	c #3A251B",
"d#	c #755A45",
"e#	c #855555",
"f#	c #AA6060",
"g#	c #AF705A",
"h#	c #AF6555",
"i#	c #654A3A",
"j#	c #4A3535",
"k#	c #4A3A35",
"l#	c #803A40",
"m#	c #BA6A5A",
"n#	c #BF8060",
"o#	c #DA9F70",
"p#	c #805A5A",
"q#	c #805545",
"r#	c #8A7565",
"s#	c #2A1B1B",
"t#	c #754A45",
"u#	c #353030",
"v#	c #706A65",
"w#	c #45453A",
"x#	c #6A403A",
"y#	c #706560",
"z#	c #7A655A",
"A#	c #AF7570",
"B#	c #CF805A",
"C#	c #FAE4CF",
"D#	c #8F706A",
"E#	c #654535",
"F#	c #958070",
"G#	c #805540",
"H#	c #50454A",
"I#	c #7A5550",
"J#	c #956A65",
"K#	c #DF957A",
"L#	c #EACFBF",
"M#	c #8F554A",
"N#	c #807065",
"O#	c #6A605A",
"P#	c #555045",
"Q#	c #7A6A65",
"R#	c #555050",
"S#	c #807575",
"T#	c #806565",
"U#	c #7A6565",
"V#	c #50352A",
"W#	c #555040",
"X#	c #6A5040",
"Y#	c #8A4A4A",
"Z#	c #DFAAA5",
"`#	c #EA9A9F",
" $	c #BF6A60",
".$	c #7A453A",
"+$	c #504A35",
"@$	c #605A55",
"#$	c #655545",
"$$	c #50504A",
"%$	c #655A50",
"&$	c #A55A4A",
"*$	c #857065",
"=$	c #8A6A6A",
"-$	c #DA8A80",
";$	c #806550",
">$	c #8F8570",
",$	c #856055",
"'$	c #5A504A",
")$	c #554540",
"!$	c #6A6565",
"~$	c #503A3A",
"{$	c #958580",
"]$	c #60352A",
"^$	c #9A7070",
"/$	c #9F7A70",
"($	c #9A7A70",
"_$	c #4A4535",
":$	c #7A504A",
"<$	c #5A5A5A",
"[$	c #453030",
"}$	c #4A4040",
"|$	c #AF4A50",
"1$	c #F48A8A",
"2$	c #B58A85",
"3$	c #BA807A",
"4$	c #504530",
"5$	c #85756A",
"6$	c #50453A",
"7$	c #8A705A",
"8$	c #857570",
"9$	c #706045",
"0$	c #605550",
"a$	c #9A8A75",
"b$	c #755530",
"c$	c #75705A",
"d$	c #AA6A65",
"e$	c #B55A55",
"f$	c #805A3A",
"g$	c #8A7540",
"h$	c #80604A",
"i$	c #957055",
"j$	c #8A7575",
"k$	c #604035",
"l$	c #756A6A",
"m$	c #554545",
"n$	c #754A50",
"o$	c #D49595",
"p$	c #AF6560",
"q$	c #9A6060",
"r$	c #AF8A8A",
"s$	c #5A4530",
"t$	c #805050",
"u$	c #50403A",
"v$	c #605540",
"w$	c #453A3A",
"x$	c #555550",
"y$	c #4A4030",
"z$	c #65403A",
"A$	c #8F7560",
"B$	c #553025",
"C$	c #4A351B",
"D$	c #603035",
"E$	c #705A4A",
"F$	c #756A65",
"G$	c #454545",
"H$	c #303030",
"I$	c #BA6A6A",
"J$	c #655A45",
"K$	c #503A2A",
"L$	c #4A2A25",
"M$	c #6A4A4A",
"N$	c #7A7065",
"O$	c #3A2A25",
"P$	c #605555",
"Q$	c #756060",
"R$	c #6A5A50",
"S$	c #8A4525",
"T$	c #704545",
"U$	c #6A4030",
"V$	c #8A503A",
"W$	c #706060",
"X$	c #75453A",
"Y$	c #A5554A",
"Z$	c #D4B59F",
"`$	c #AA8A80",
" %	c #80453A",
".%	c #403A3A",
"+%	c #554535",
"@%	c #75604A",
"#%	c #957565",
"$%	c #855A55",
"%%	c #8F6A5A",
"&%	c #655A5A",
"*%	c #605A5A",
"=%	c #603535",
"-%	c #CF8F8F",
";%	c #70603A",
">%	c #8A706A",
",%	c #704A3A",
"'%	c #453025",
")%	c #403A35",
"!%	c #655050",
"~%	c #655A55",
"{%	c #706A50",
"]%	c #454030",
"^%	c #7A554A",
"/%	c #9A554A",
"(%	c #BF605A",
"_%	c #856A60",
":%	c #9A5535",
"<%	c #8A5540",
"[%	c #6A3A30",
"}%	c #6A656A",
"|%	c #8F6560",
"1%	c #703535",
"2%	c #656055",
"3%	c #6A5550",
"4%	c #6A654A",
"5%	c #352A25",
"6%	c #656060",
"7%	c #65655A",
"8%	c #957575",
"9%	c #9F8F80",
"0%	c #7A7A55",
"a%	c #C56555",
"b%	c #FF9F85",
"c%	c #9A656A",
"d%	c #805A55",
"e%	c #FA8F75",
"f%	c #C56560",
"g%	c #B58575",
"h%	c #80503A",
"i%	c #605545",
"j%	c #7A7A75",
"k%	c #95806A",
"l%	c #7A7570",
"m%	c #9A8F8A",
"n%	c #756055",
"o%	c #E48F75",
"p%	c #FF8075",
"q%	c #EF8570",
"r%	c #DA9F85",
"s%	c #EA756A",
"t%	c #E4857A",
"u%	c #6A3525",
"v%	c #957A70",
"w%	c #7A5045",
"x%	c #504A45",
"y%	c #755A40",
"z%	c #4A4A40",
"A%	c #85655A",
"B%	c #403530",
"C%	c #5A3A2A",
"D%	c #D46560",
"E%	c #FFAF8A",
"F%	c #FA9585",
"G%	c #CF6055",
"H%	c #BA756A",
"I%	c #D4756A",
"J%	c #DA8A75",
"K%	c #AA5045",
"L%	c #A58580",
"M%	c #65302A",
"N%	c #9F8080",
"O%	c #8A7560",
"P%	c #3A2A20",
"Q%	c #402A2A",
"R%	c #555555",
"S%	c #6A5055",
"T%	c #45352A",
"U%	c #9A6565",
"V%	c #CA604A",
"W%	c #FA9F70",
"X%	c #F4CFAF",
"Y%	c #95554A",
"Z%	c #C57A70",
"`%	c #C56A50",
" &	c #F4C5AF",
".&	c #6A4540",
"+&	c #402A30",
"@&	c #5A403A",
"#&	c #8A5050",
"$&	c #706A55",
"%&	c #4A4035",
"&&	c #3A3530",
"*&	c #857A65",
"=&	c #704A40",
"-&	c #CF655A",
";&	c #FFDAEA",
">&	c #E4AA9F",
",&	c #DA856A",
"'&	c #AA554A",
")&	c #EF8A85",
"!&	c #FFDFEA",
"~&	c #4A4045",
"{&	c #3A3535",
"]&	c #5A3035",
"^&	c #85706A",
"/&	c #6A503A",
"(&	c #65605A",
"_&	c #7A6A6A",
":&	c #554A3A",
"<&	c #454535",
"[&	c #8A6050",
"}&	c #9A353A",
"|&	c #CA6050",
"1&	c #A56A65",
"2&	c #CF8575",
"3&	c #BA502A",
"4&	c #DA7A6A",
"5&	c #D48F7A",
"6&	c #BA7070",
"7&	c #B58075",
"8&	c #757065",
"9&	c #504A40",
"0&	c #8A857A",
"a&	c #452A20",
"b&	c #50503A",
"c&	c #70553A",
"d&	c #7A7560",
"e&	c #40352A",
"f&	c #553A2A",
"g&	c #704A50",
"h&	c #955A4A",
"i&	c #FA7A6A",
"j&	c #AF7075",
"k&	c #BA8A80",
"l&	c #CF7A75",
"m&	c #F47A65",
"n&	c #FA8575",
"o&	c #EA755A",
"p&	c #9A655A",
"q&	c #805040",
"r&	c #403A30",
"s&	c #706A6A",
"t&	c #706555",
"u&	c #5A5A40",
"v&	c #7A6A70",
"w&	c #35352A",
"x&	c #9A7575",
"y&	c #654A40",
"z&	c #D48F95",
"A&	c #A57070",
"B&	c #BF8080",
"C&	c #AF6055",
"D&	c #D48A70",
"E&	c #FF7570",
"F&	c #C58580",
"G&	c #7A403A",
"H&	c #9F5040",
"I&	c #454035",
"J&	c #30150B",
"K&	c #55402A",
"L&	c #857A70",
"M&	c #5A5040",
"N&	c #4A4540",
"O&	c #6A6555",
"P&	c #605040",
"Q&	c #AF7A75",
"R&	c #C5807A",
"S&	c #955555",
"T&	c #DA9F9F",
"U&	c #8F5050",
"V&	c #D47065",
"W&	c #EA8A75",
"X&	c #CA8075",
"Y&	c #8F5045",
"Z&	c #95655A",
"`&	c #353530",
" *	c #4A4A4A",
".*	c #7A7045",
"+*	c #755A4A",
"@*	c #7A4A45",
"#*	c #CA6060",
"$*	c #E4BA7A",
"%*	c #CF9580",
"&*	c #8A605A",
"**	c #9F654A",
"=*	c #BA7555",
"-*	c #FA8060",
";*	c #FAB5A5",
">*	c #C58075",
",*	c #656565",
"'*	c #6A604A",
")*	c #453020",
"!*	c #55302A",
"~*	c #8A7A75",
"{*	c #856A6A",
"]*	c #755045",
"^*	c #DAA59A",
"/*	c #856560",
"(*	c #AA7560",
"_*	c #FFDAC5",
":*	c #F4D4CA",
"<*	c #C57A7A",
"[*	c #4A353A",
"}*	c #8A6A65",
"|*	c #302A25",
"1*	c #706050",
"2*	c #6A6055",
"3*	c #8A7A70",
"4*	c #606060",
"5*	c #7A5555",
"6*	c #9F5A60",
"7*	c #BA5545",
"8*	c #B55A5A",
"9*	c #853525",
"0*	c #BF8570",
"a*	c #D49A85",
"b*	c #8F6055",
"c*	c #655A4A",
"d*	c #8F8580",
"e*	c #80807A",
"f*	c #6A6045",
"g*	c #6A5A4A",
"h*	c #5A5540",
"i*	c #857575",
"j*	c #6A554A",
"k*	c #805A50",
"l*	c #FF7A6A",
"m*	c #DA807A",
"n*	c #BF5555",
"o*	c #EFBA95",
"p*	c #FF8570",
"q*	c #F48075",
"r*	c #DA8A7A",
"s*	c #CA6A60",
"t*	c #DFB5A5",
"u*	c #554030",
"v*	c #757570",
"w*	c #45452A",
"x*	c #453520",
"y*	c #656550",
"z*	c #60605A",
"A*	c #705045",
"B*	c #504A4A",
"C*	c #65555A",
"D*	c #755550",
"E*	c #9A5040",
"F*	c #FF8060",
"G*	c #FF8F80",
"H*	c #C57A80",
"I*	c #AA5A60",
"J*	c #8F5545",
"K*	c #FA655A",
"L*	c #CF7570",
"M*	c #DA8A85",
"N*	c #D47A65",
"O*	c #AA6065",
"P*	c #5A5A55",
"Q*	c #2A2525",
"R*	c #757560",
"S*	c #606050",
"T*	c #807A7A",
"U*	c #FF8575",
"V*	c #FFA58F",
"W*	c #E4856A",
"X*	c #BFAA9A",
"Y*	c #854A45",
"Z*	c #CF7565",
"`*	c #FA7A5A",
" =	c #F48070",
".=	c #C5857A",
"+=	c #4A453A",
"@=	c #55554A",
"#=	c #252520",
"$=	c #606545",
"%=	c #55503A",
"&=	c #7A7060",
"*=	c #6A6A5A",
"==	c #8F8585",
"-=	c #EA7570",
";=	c #FF9F8F",
">=	c #FAB570",
",=	c #B56A65",
"'=	c #F48A85",
")=	c #F48060",
"!=	c #E4A58F",
"~=	c #856555",
"{=	c #804545",
"]=	c #352020",
"^=	c #6A5A45",
"/=	c #706A60",
"(=	c #707060",
"_=	c #5A4035",
":=	c #807060",
"<=	c #806A55",
"[=	c #453A30",
"}=	c #4A3A40",
"|=	c #8A8A7A",
"1=	c #806A6A",
"2=	c #D48065",
"3=	c #FFCAAA",
"4=	c #FFF4F4",
"5=	c #E49A85",
"6=	c #85554A",
"7=	c #AA5A55",
"8=	c #CF6A55",
"9=	c #FFEFDA",
"0=	c #EFD4CA",
"a=	c #BA8585",
"b=	c #807A6A",
"c=	c #7A5A4A",
"d=	c #604A35",
"e=	c #9F806A",
"f=	c #8A7060",
"g=	c #957A6A",
"h=	c #9A958F",
"i=	c #8A4A45",
"j=	c #D48F9A",
"k=	c #FAB5C5",
"l=	c #CAA59A",
"m=	c #C58575",
"n=	c #9F7070",
"o=	c #DF959A",
"p=	c #CF9595",
"q=	c #C58A80",
"r=	c #8F5555",
"s=	c #403A40",
"t=	c #9A8070",
"u=	c #75756A",
"v=	c #505550",
"w=	c #5A5545",
"x=	c #3A3A35",
"y=	c #858A80",
"z=	c #45403A",
"A=	c #A57060",
"B=	c #9F7065",
"C=	c #BF9A85",
"D=	c #8F4A4A",
"E=	c #BA5A60",
"F=	c #BF706A",
"G=	c #D47565",
"H=	c #503A40",
"I=	c #706A5A",
". + @ # $ % & * = @ - ; > , ' ) ! ~ { ] ^ / ( _ : < [ } | 1 2 3 4 5 6 7 8 9 0 a ",
"b c d e f g h i j k l m n o p q r s t u v w x y z A B C D E F G H I J K L M N O ",
"P ! - Q R S T U V W X Y Z `  ...+.@.0 #.$.%.&.*.=.-.;.>.,.G '.).!./ ~.{.].^./.(.",
"_.:.<.[.}.|.1.2.3.4.s 5.6.U 7.8.9.0.a.b.c.d.e.c f.g.h.i.j.k.l.;.m.n.o.p.q.r.s.t.",
"u.v.w.x.y.z.A.B.C.D.E.F.G.H.I.J.K.L.M.N.O.P.Q.R.S.T.U.V.W.X.Y.Z.`. +.+++@+#+$+%+",
"&+*+=+-+;+>+,+'+)+!+~+{+]+^+%./+(+_+:+s <+[+}+|+1+2+3+4+5+6+7+8+9+0+a+b+c+d+e+f+",
"%.g+h+i+j+k+l+m+n+o+p+U b.q+r+s+t+u+v+w+a.x+F.y+z+A+B+C+D+E+F+G+H+3 H I+J+I+K+L+",
"M+N+O+P+Q+R+S+T+U+c _+V+W+u.* X+Y+Z+Q ! `+ @.@+@@@C+#@$@%@&@*@}+=@-@l Q $ c.( -@",
";@>@R ,@'@)@!@~@{@3.]@^@/@(@N._@a.:@<@[@}@F.{+x.|@1@+@2@3@4@5@6@7@Y.8@h+k 9@0@^ ",
"a@b@c@^ d@e@f@g@h@0@n+i@j@w+k@l@m@]+|.n@o@p@0@q@9 c@r@s@t@u@v@w@x@e+y+y@z@A@B@C@",
"D@Z+E@) F@G@=@]@Q.A@!.k 5.H@I@J@_@c K@%.L@z@M@O.] N@O@P@Q@R@S@T@] E U@V@W@O+X@u+",
"Y@j.Z@`@ #.#+#@###$#%#l+z@&#/ *#( @#b.=#Y+] -#;#>#,#'#)#!#~#I {#]#^#/#(#_#q@:#<#",
"[#}#|#1#2#3#4#v+5#6#7#_.L+8#9#K+d.0#a#i@b#:+c#d#/ e#f#g#h#f+G.^#^#i#~+z+^#j#Y@>#",
"k#l#m#n#o#p#q#8#t.r#s#t#{ M@>#u#&.* v#8#w#x#{+y#z#Y@A#B#C#D#2@E#f+F#G#H#I#] @.v.",
"H@z+J#K#L#M#|.N#O#P#9@Y@}@Q#M %.R#S#y.T#U#V#W#@.+#X#Y#Z#`# $.$^ D.+$@$#$%#$$y#%$",
"h+&$*$=$-$D ;$}+V#>$y#x.4.x.,$j#o@'$)$!$, ~$c {$A@]$o@^$/$($_@_$H :$8@<$[$R#h+}$",
"|$1$2$3$!#} 4$5$6$7$x+l 8$9$0$U+a$K+5.I+G+l 4#( u+b$c$d$U.e$f$g$h$i$j$k$l$m$* O#",
"n$o$p$q$r$w+s$t$u$v$Q#Y@Q Q#w$q@W#x$'$k$6@i#|+y$z$j.Z+T@<@o Q A$B$C$D$E$F$G$^.H$",
"(@I$e#3+0.d.J$K$6$L$M$N$t.d.O$F.x.Y@P$Q$i@6@R$j#^.S$s+y@t#T$U$V$'$} k$5#W$R a.H.",
"X$Y$Z$`$ %k@.%v.{ +%<#a#- V@C@K+O#@%u b#6@_#9##%[#$%N.d %%0.*+]#%.W@} 4$)$&%O#*%",
"=%o.-%Z+(#y.b.;%>%4 R ,%'%I#)%$ !%~%{%]%o@P$u ^%/%(% %_%(#:%<%[%E#-#]$@#u$w+@@}%",
"k@|%] 1%2%z$, 3%<.o@Z 4%5%6%2%%.&%d.S#7%8%9%0%a%b%P@c%*#d%e%f%g%h%O#3..%i%X+N$j%",
"m [%1+k@e.v.k l+_$k%m k@d.o@0$l%<+<.z@y@m%n%{@o%p%q%r%V$R@s%t%d$u%v%w%d.@.x%a#&.",
"[$`+y%y.z%@@^#9#d.d.b.y$0.A%|+u$*%B%_#R#_@C%:.D%E%F%G%/%H%I%J%K%L%M%N%V@L+O%w$}.",
"@@5$W+<@P%X+G+Q%@%w$p@=#O b.R%%.l$_.S%T%5#_@D.U%V%W%X%Y%F Z%`% &5 .&Q#}+( o+} +&",
"@&#.9##&+%c@_@}.$&%&:#R$]#&&<+/ o@*&t.m$_#2%}@=&-&;&>&,&'&U )&!&r$ @'%x$~&9#o@{&",
"c.Q$[.$ ]&:+^&&%/&5.x.(&~%w$(&_#_&:&<&A%N#@.[&}&|&1&B+2&3&4&5&6&7&t#I+R#8&>#p@9&",
"a.0&a&b&c&$&d&c.Q#I+*%[&e&g+<${ O#f&6$g&~+D.h&i&j&k&l&m&n&o&p&|#P@q&r&s !%s&O#$.",
"0.z%t&X+u&:&>.R$m+8@6@w+Q#6%v&w&x%- 3%x&W@y&u@z&A&B&C&D&q%E&F&G&H&u$; j%F$# x.I&",
"J&P#d&{@&%K&N$L&M&N&(#a#>@O&m$~%}@P&{+Q.E$[$Q&R&S&T&U&V&W&n&X&Y&Z&8$O+W#:#`&<# *",
"b#u+%&.*~%S#+%y&+*~%v$W$c.C@e.d.}@}$R$P.z#* @*#*$*%*&***=*-*;*>*_@l$m$X+b#e R ,*",
", G+C '*)*l N.<+!*)$/@k#@$Q#~$~*Q#Y@x+Q#{*y+]*^*e@/*4+>.(*_*:*<*[*}*s&{#0.d.)$|*",
"8@1*u$2*'*&%}$x+m$[@3*V O.u$h+9#x+s 4*u k#5*,@6*#+++7*8*9*0*Z%a*b*c*d*a.:#e*G$0#",
"&.f*E$z+%&g*h*i*X+|+6@6@b.%$j*D.'$] O#V@k*4&l*l&m*n*o*p*q*r*s*t*e.u*U#5$v*H..%<#",
"w*x*y*U@v$u$z*1*A*B*R%C*F.( o@D*b&&%k@w$E*F*G*H*I*J*t%K*L*M*N*O*!$* z*O+P*Q*@#@#",
"I&R*; #$m * G..%V#I&N&z@^+/*s >#S*T*y#z+7*U*V*W*X*Y*Z*`* =.=9#k R#+=2*@=#=!%N&$=",
"9$! C@M@%=y#%$&=c*F.0$P$*%*=8&Y@-@, ==#$}*-=;=>=N*U%,='=)=!=~={=>@]=^=] /=H$(=b#",
"Q*&.s <.C@_=5.2*:=<=O#[=2*o@Y+3%}=P.m%|=1=2=3=4=5=6=7=8=9=0=a=h+x z*7%b=P*)%@#b#",
"s$Z m c=d={&*+S#e=<.{ R#z*f=g=u$P#^ z@h=s&i=j=k=l=m=1&n=o=p=q=r=z@s=C*t=6$<.* u=",
"v$~%W#e&v=g*w$w=~$j*x=}$z#z*%&&.!%W$y=z= @A=Q&1+B=C=D=E=~@F=G=H=x$I&I=V u#<#R#a@"};
