/* XPM */
static char *blurmodule_xpm[] = {
/* width height num_colors chars_per_pixel */
"    40    40      256            2",
/* colors */
"`` c #049acc",
"`. c #947a0c",
"`# c #a4ae54",
"`a c #a4921c",
"`b c #b4be84",
"`c c #c49a14",
"`d c #2c9ecc",
"`e c #ccae24",
"`f c #a4923c",
"`g c #9c860c",
"`h c #aca234",
"`i c #ccba54",
"`j c #1cbacc",
"`k c #b4920c",
"`l c #ccba44",
"`m c #1ca2bc",
"`n c #2cbac4",
"`o c #c4a614",
"`p c #ac8e14",
"`q c #b49a0c",
"`r c #947e0c",
"`s c #d4be84",
"`t c #dcb22c",
"`u c #9c8e2c",
"`v c #049aec",
"`w c #ccae44",
"`x c #a47e04",
"`y c #dcd29c",
"`z c #acae64",
"`A c #4caadc",
"`B c #9c8e24",
"`C c #947e1c",
"`D c #a4a65c",
"`E c #1ca2dc",
"`F c #c4a21c",
"`G c #2caad4",
"`H c #149ac4",
"`I c #9c861c",
"`J c #b4921c",
"`K c #d4aa2c",
"`L c #b49a24",
"`M c #e4deb4",
"`N c #ccb62c",
"`O c #44beac",
"`P c #dcba2c",
"`Q c #c4a624",
"`R c #04a2cc",
"`S c #a4922c",
"`T c #bca224",
"`U c #dcc66c",
"`V c #1ca6d4",
"`W c #9c7e04",
"`X c #bcae5c",
"`Y c #2caaf4",
"`Z c #0c9acc",
"`0 c #c49a24",
"`1 c #d4ae24",
"`2 c #bc920c",
"`3 c #34c2d4",
"`4 c #cca624",
"`5 c #bcae44",
"`6 c #ac9a3c",
"`7 c #bc9a14",
"`8 c #ccb63c",
".` c #b4aa3c",
".. c #a4860c",
".# c #1c9ecc",
".a c #d4ce9c",
".b c #149ee4",
".c c #ecd284",
".d c #9c7e1c",
".e c #a4861c",
".f c #d4dadc",
".g c #dcba44",
".h c #bcaa2c",
".i c #9c7e14",
".j c #b4aa54",
".k c #9c760c",
".l c #b4ae34",
".m c #ac9214",
".n c #c4dabc",
".o c #ccbe7c",
".p c #24bacc",
".q c #b48a14",
".r c #e4b63c",
".s c #a48a2c",
".t c #d4b23c",
".u c #1ca2ec",
".v c #cca21c",
".w c #3caed4",
".x c #bc9a24",
".y c #bca634",
".z c #c4ae74",
".A c #ac9a54",
".B c #dcdad4",
".C c #049ecc",
".D c #c49e14",
".E c #2ca6e4",
".F c #ccb224",
".G c #b4960c",
".H c #d4ba3c",
".I c #2cbacc",
".J c #dcb63c",
".K c #0c9eec",
".L c #e4da9c",
".M c #acb664",
".N c #34aad4",
".O c #bc961c",
".P c #c4aa24",
".Q c #ac922c",
".R c #bca624",
".S c #dcca74",
".T c #9c8204",
".U c #3caef9",
".V c #0c9ed4",
".W c #cc9e24",
".X c #d4ae34",
".Y c #bc9613",
".Z c #3cc2d4",
".0 c #ccaa2a",
".1 c #bc9e1b",
".2 c #249ed4",
".3 c #dcce98",
".4 c #9c821e",
".5 c #24becf",
".6 c #a48e3c",
".7 c #dcdedc",
".8 c #349ed4",
"#` c #9c8a14",
"#. c #ccc284",
"## c #44b2fc",
"#a c #4cb6d4",
"#b c #ccd6dc",
"#c c #ccc264",
"#d c #44b2d4",
"#e c #e4c24c",
"#f c #14a2cc",
"#g c #b4ae4c",
"#h c #b4a224",
"#i c #c4b254",
"#j c #bca644",
"#k c #bca65c",
"#l c #d4c68c",
"#m c #dcc234",
"#n c #d4b64c",
"#o c #ac9644",
"#p c #d4be5c",
"#q c #249eb4",
"#r c #34bebc",
"#s c #24a6f4",
"#t c #b49e4c",
"#u c #b49a1c",
"#v c #a48214",
"#w c #dcd2a4",
"#x c #24a6dc",
"#y c #24a6d4",
"#z c #bcb26c",
"#A c #34aef4",
"#B c #b4a664",
"#C c #d4c27c",
"#D c #a48e22",
"#E c #dcaa34",
"#F c #d4b633",
"#G c #e4ca7c",
"#H c #c4a22c",
"#I c #ac9224",
"#J c #d4b24c",
"#K c #dccea4",
"#L c #2ca2d4",
"#M c #ccbe4c",
"#N c #948214",
"#O c #dcb631",
"#P c #ccb244",
"#Q c #a4820c",
"#R c #dcd694",
"#S c #149ebc",
"#T c #9c8a1c",
"#U c #dcca64",
"#V c #0c9ec9",
"#W c #c49e25",
"#X c #d4b22c",
"#Y c #34c6cc",
"#Z c #a48a14",
"#0 c #1ca2d2",
"#1 c #a48a1c",
"#2 c #9c7a10",
"#3 c #b4b23c",
"#4 c #b48e10",
"#5 c #a48e30",
"#6 c #1ca6f4",
"#7 c #bc9e26",
"#8 c #c4b27c",
"a` c #ac9e4c",
"a. c #2cbed4",
"a# c #ac962c",
"aa c #b4a62c",
"ab c #bcaa4c",
"ac c #a4b254",
"ad c #049eec",
"ae c #acb264",
"af c #94821c",
"ag c #b4961c",
"ah c #b49e24",
"ai c #14a2e4",
"aj c #ecd684",
"ak c #dcbe44",
"al c #9c8214",
"am c #3cc6d4",
"an c #ccdadc",
"ao c #b49e1c",
"ap c #24aad4",
"aq c #049ad4",
"ar c #947a14",
"as c #a49224",
"at c #c49a1c",
"au c #ccae2c",
"av c #9c8614",
"aw c #b49214",
"ax c #ccba4c",
"ay c #c4a61c",
"az c #ac8e1c",
"aA c #947e14",
"aB c #ccae4c",
"aC c #c4a224",
"aD c #2caadc",
"aE c #9c8624",
"aF c #44beb4",
"aG c #dcba34",
"aH c #c4a62c",
"aI c #bca22c",
"aJ c #9c7e0c",
"aK c #bcae64",
"aL c #d4ae2c",
"aM c #bc9214",
"aN c #cca62c",
"aO c #ac9a44",
"aP c #bc9a1c",
"aQ c #a48614",
"aR c #9c7e24",
"aS c #a48624",
"aT c #ac921c",
"aU c #24bad4",
"aV c #cca224",
"aW c #dcdadc",
"aX c #049ed4",
"aY c #c49e1c",
"aZ c #ccb22c",
"a0 c #b49614",
"a1 c #0c9ef4",
"a2 c #acb66c",
"a3 c #34aadc",
"a4 c #bc9624",
"a5 c #c4aa2c",
"a6 c #ac9234",
"a7 c #bca62c",
"a8 c #9c820c",
/* pixels */
".7.7.7.7.7.7.7.7.7.7.7.7.7.7.7.7.7.7.7.7.7.7.7.7.7.7.7.7.7.7.7.7.7.7.7.7.7.7.7.7",
".7.7.7.7.7.7.7.7.7.7.7.7.7.7.7.7.7.7.7.7.7.7.7.7.7.7.7.7.7.7.7.7.7.7.7.7.7.7.7.7",
".7aW.7aW.7aW.7aW.7aW.7aW.7aW.7aW.7aW.7aW.7aW.7aW.7aW.7aW.7aW.7aW.7aW.7aW.7aW.7aW",
".7.7.7.7.7.7.7.7.7.7.7.7.7.7.7.7.7.7.7.7.7.7.7.7.7.7.7.7.7.7.7.7.7.7.7.7.7.7.7.7",
".7aW.7aW.7aW.7aW.7aW.7aW.7aW.7aW.7aW.7aW.7aW.7aW.7aW.7aW.7aW.7aW.7aW.7aW.7aW.7aW",
".7.7.7.7.7.7.7.7.7.7.7.7.7.7.7.7.7.7.7.7.7.7.7.7.7.7.7.7.7.7.7.7.7.7.7.7.7.7.7.7",
".7aW.7aW.7aW.7aW.7aW.7aW.7aW.7aW.7aW.7aW.7aW.7aWaWaWaWaW.7aW.7aW.7aW.7aW.7aW.7aW",
".7.7.7.7.7.7.7.7.7.7.7.7.7.7.7.7.7.7.7.7aW.7aW.B#l.z.o.BaW.7.7.7.7.7.7.7.7.7.7.7",
".7aW.7aW.7aW.7aW.7aW.7aW.7aW.7aW.7aWaWaWaW.3.z#o#D`pas#t#l.BaWaW.7aW.7aW.7aW.7aW",
".7.7.7.7.7.7.7.7.7.7.7.7.7.7.7.7aW.7aW.3#k.s#D.e....#Q`I#TaO`s.BaW.7.7.7.7.7.7.7",
".7aW.7aW.7aW.7aW.7aW.7aW.7aWaWaWaW`s#ta6.eaQ..`gal#v#va8.i#v#5#j#waWaWaW.7aW.7aW",
".7.7.7.7.7.7.7.7.7.7aW.7aW`M#l.z`f#D.eaval.ia8`g#v.i.ia8#2.da8#1#5#i#KaW.7.7.7.7",
".7aW.7aW.7aW.7aWaWaWaW#K.zaO#T`Ialalalalalalalal.i.i.i.i.i.d.i`..i#v#5.BaW.7aW.7",
".7.7.7.7.7aW.7aW#w#8#t.s#Navava8alalav#Nalalal.i.i.iaJ.i.i#2#2aJaJ#2#QaTaW.7.7.7",
".7aW.7aWaWaW`y#k.6.salaJaJal.4.4.4.4afar.iaf.ialal.i.iaJ.i#2`.aJ`WaQ.q`7.BaW.7aW",
".7.7aWaW#l`X#5#TalaJ.T`r#2aR.4.4.4af.4.4.4al.dalal.ia8ar`W`x`W#Q#4.Yaw`7.B.7.7.7",
".7.7aW.za#aQaJaJaA.iaA.iafafaR#Nav.4`I.4`I.4.4alalal.ia8`x.q#4.Y.Y`ka0`7.BaW.7aW",
".7aW.B`w.1.m`gaJ`.#2ar.d#NaAaA.4.4aE.4aEaE#T`I.4alav#Z`p.Y`kaM.Y`kaMaw`7.B.7.7.7",
".7.7.B#PaH`T#u#ZaJ.iar`..d.daA.4.4.4aE`I#T.e#T#Z#D.ma0`7a0aM.Y`2.Y.YaM`7.BaW.7aW",
".7.7aW`w.0`TaH`TazaQ#2`.aA.d.4aE.4aE.4.e#T#DaT#u`T.1`q`7`7`2.Y`7.YataPaY.B.7.7.7",
".7aW.B#JayaH`Q.0#Hag`palav.4.4.4.4aS.e`aaT`L`Tao`q.1`7.Y.Y`7`k`c.Yat.O#W.BaW.7aW",
".7.7aW#n`QaH.0.0.0`4`Fag#Zavav`I.eaT`L#7aI`T.1.1.1aP.OaP`c`7`c.Yat.1aPaC.B.7.7.7",
".7.7.B`l`Q.0.0.0.0`4.0`Q`Q.m`paT`L.x#7#7#7#7a0a0.1`0`0atat`caP`7ahaI#i`UaW.7aW.7",
".7aWaW#M`e.0.0`e`K`e.0`1auauaC#W.xa4.x#W.x#W#7`7#W#W#Wat`c`c#7`h`D`d.n.faW.7.7.7",
".7.7.7#paZ`1`1au`eaLaZaL#X#FaVaP.x`J.x`0#W#W.x#WaCaYaY.WaIaa.j.2.b.u#6#A.f.faWaW",
".7.7aW#Rax.tau#X`e`NaZ#X#X#F`K.xat.O.O#W#W#WaI#H`T`o.R#j`zaF#r`n.CaU.5a..u`Y##.f",
".7.7aW.7.B.S`i.taZ#X#XaZ#F#XaL.xaP#7at#W.1aCaC`T.h.lacaF`E.b.C.C.C.C#VaXaq.V#b.f",
".7.7.7.7aW.B.L#p.H#X#X`t#X#Oau#W#WaPaY.1`FaCa7`5ae`O`m`Z.p.C.C.C.K.p````.V#y.w#a",
".7aW.7.7.7.7.7.B.S.g#O`P#F#O.X#W`0aY`F`o#h#g`b.2`m#V``.C.C#V.5#Yamap#fa1.K#b#ban",
".7.7aW.7.7aW.7.7.7aj#e#m.g.J#E`F.D.1`T#3.M.#.b`n.p`````j.p.C.5#Yan.f.f`G#x`Y##aW",
".7.7.7.7.7.7.7aW.7.7.B#U.g.r`K.v`Taaa2#q`H`Z``.C.C`v`v.C.C.C.C#f#yan.f.f.fa3an.f",
".7aW.7aW.7aW.7.7aW.7aW.7.cak#O`w#C`A#x.#aq`````j````#V`3#y#0#V``#V#0.w.faW.f#d#a",
".7.7.7.7.7.7.7.7.7.7.7aW.7.B.B.B.f.f.f`Y#s.u#0.V````#V#ban#b`3.u#y#s`G.f.faW.f.f",
".7aW.7aW.7aW.7aW.7aW.7.7.7.7.7.7.7.7aW.f.f.f.f`G#f.Va.`V`G.N`Gan#b#b.f#d#d.7aW.7",
".7.7.7.7.7.7.7.7.7.7.7aW.7.7.7.7aW.7.7.7.7.7aW.f.f#y#6.u#san#b#yaD.w.f.f.f#d.f.f",
".7aW.7aW.7aW.7aW.7aW.7.7.7aW.7.7.7.7aW.7aW.7.7.7.7.faDanan.U.U`Y`Y#b.waW.7.f#a#a",
".7.7.7.7.7.7.7.7.7.7.7aW.7.7aW.7aW.7.7.7.7.7.7aW.7aW.f#d.w.f.f.f.f.U.wanaW.f.f.f",
".7aW.7aW.7aW.7aW.7aW.7.7.7.7.7.7.7.7aW.7aW.7.7.7.7.7.7aW.f#d.f.f.f.f.f#d#d.faWaW",
".7.7.7.7.7.7.7.7.7.7.7aW.7aW.7aW.7.7.7.7.7aW.7aW.7.7aW.7aW.f#d#a.f.f.faW.f#d#d.f",
".7aW.7aW.7aW.7aW.7aW.7.7.7.7.7.7aW.7aW.7.7.7.7.7.7.7.7.7.7aW.f#b.w.w#a.faW.f.f.w"
};
