/* XPM */
static char *starfield_xpm[] = {
/* width height num_colors chars_per_pixel */
"    40    40      256            2",
/* colors */
"`` c #040204",
"`. c #545a64",
"`# c #242e34",
"`a c #8c867c",
"`b c #84664c",
"`c c #543e34",
"`d c #6c6e74",
"`e c #141a1c",
"`f c #3c424c",
"`g c #6c5a44",
"`h c #544e4c",
"`i c #a49a74",
"`j c #84766c",
"`k c #3c2e34",
"`l c #6c5a64",
"`m c #040e14",
"`n c #2c1e24",
"`o c #ac8674",
"`p c #6c5254",
"`q c #9c9674",
"`r c #544e5c",
"`s c #9c7a5c",
"`t c #24262c",
"`u c #9c867c",
"`v c #747e84",
"`w c #4c4e54",
"`x c #84767c",
"`y c #3c3a3c",
"`z c #241a24",
"`A c #4c423c",
"`B c #6c6254",
"`C c #140e14",
"`D c #7c6e64",
"`E c #6c666c",
"`F c #343a44",
"`G c #646264",
"`H c #644e44",
"`I c #140a14",
"`J c #8c8694",
"`K c #846a64",
"`L c #847e7c",
"`M c #040a0c",
"`N c #342e39",
"`O c #54424c",
"`P c #4c3a3c",
"`Q c #948e83",
"`R c #1c222c",
"`S c #64565c",
"`T c #14161c",
"`U c #94827e",
"`V c #645a59",
"`W c #94867c",
"`X c #141a2c",
"`Y c #7c5e5c",
"`Z c #545662",
"`0 c #4c4254",
"`1 c #6c6e7c",
"`2 c #6c5a56",
"`3 c #a49aa4",
"`4 c #2c262b",
"`5 c #443a41",
"`6 c #7c6a68",
"`7 c #848294",
"`8 c #0c060f",
".` c #444a54",
".. c #4c362c",
".# c #7c6264",
".a c #9c8e81",
".b c #7c6654",
".c c #7c7684",
".d c #645651",
".e c #544a4e",
".f c #8c6e54",
".g c #444254",
".h c #5c4e49",
".i c #94765c",
".j c #3c363f",
".k c #6c6269",
".l c #0c0e1c",
".m c #746258",
".n c #7c7670",
".o c #6c6a7c",
".p c #847274",
".q c #343641",
".r c #2c2634",
".s c #040214",
".t c #2c2e39",
".u c #8c664c",
".v c #1c1a22",
".w c #aca28c",
".x c #24222b",
".y c #4c4a4c",
".z c #1c121c",
".A c #644e54",
".B c #8c7e84",
".C c #745e56",
".D c #5c5a67",
".E c #8c868c",
".F c #54463c",
".G c #a49a8c",
".H c #9c929c",
".I c #5c4e5c",
".J c #24263c",
".K c #a4867c",
".L c #3c3a4c",
".M c #4c424c",
".N c #141224",
".O c #7c6e74",
".P c #646274",
".Q c #0c0a11",
".R c #343244",
".S c #1c1621",
".T c #645a66",
".U c #94868c",
".V c #5c5660",
".W c #74767c",
".X c #5c4e54",
".Y c #2c2e44",
".Z c #04060c",
".0 c #746e68",
".1 c #44424b",
".2 c #3c323a",
".3 c #745e64",
".4 c #0c0e14",
".5 c #b49284",
".6 c #745654",
".7 c #a49284",
".8 c #ac825c",
"#` c #9c8a84",
"#. c #b4aab4",
"## c #a4826c",
"#a c #948e9c",
"#b c #aca2ac",
"#c c #947e6c",
"#d c #7c7a78",
"#e c #bc9274",
"#f c #4c4a57",
"#g c #5c4a54",
"#h c #74666c",
"#i c #8c6664",
"#j c #5c464c",
"#k c #1c1a2c",
"#l c #74727e",
"#m c #8c7e8c",
"#n c #746674",
"#o c #8c6e6c",
"#p c #342a34",
"#q c #5c4a44",
"#r c #ac9a8c",
"#s c #543e44",
"#t c #6c565c",
"#u c #9c9284",
"#v c #a47e5c",
"#w c #8c7a7c",
"#x c #4c3e4c",
"#y c #443e4c",
"#z c #947a6c",
"#A c #8c6a5c",
"#B c #745a4c",
"#C c #a48e7c",
"#D c #44363c",
"#E c #84665c",
"#F c #141624",
"#G c #54566c",
"#H c #544a5c",
"#I c #6c6274",
"#J c #242234",
"#K c #0c0a1c",
"#L c #7c7a84",
"#M c #8c8a84",
"#N c #141e24",
"#O c #847a6f",
"#P c #6c5e68",
"#Q c #2c222c",
"#R c #6c564c",
"#S c #54525d",
"#T c #242a34",
"#U c #9c8a7a",
"#V c #4c525c",
"#W c #3c3e44",
"#X c #241e29",
"#Y c #4c4644",
"#Z c #6c665c",
"#0 c #141219",
"#1 c #7c7269",
"#2 c #343e44",
"#3 c #64666c",
"#4 c #645248",
"#5 c #84827c",
"#6 c #343239",
"#7 c #54464f",
"#8 c #4c3e40",
"a` c #948a82",
"a. c #6c5e55",
"a# c #2c2a2c",
"aa c #443e44",
"ab c #444655",
"ac c #5c524c",
"ad c #947a64",
"ae c #0c121c",
"af c #74665a",
"ag c #2c2a36",
"ah c #2c323c",
"ai c #1c1e24",
"aj c #8c8280",
"ak c #5c5e69",
"al c #645e6c",
"am c #74726c",
"an c #44464c",
"ao c #0c1214",
"ap c #bc967c",
"aq c #746a68",
"ar c #1c1e2c",
"as c #8c7274",
"at c #ac9e84",
"au c #544234",
"av c #847a7c",
"aw c #4c4654",
"ax c #6c727c",
"ay c #040614",
"az c #8c6a4c",
"aA c #645254",
"aB c #8c8a8c",
"aC c #a49e8c",
"aD c #5c525c",
"aE c #242a3c",
"aF c #3c3e4c",
"aG c #4c464c",
"aH c #7c7274",
"aI c #646674",
"aJ c #948a8c",
"aK c #5c5254",
"aL c #2c3244",
"aM c #8c6a64",
"aN c #8c828c",
"aO c #746a74",
"aP c #9c9684",
"aQ c #04020c",
"aR c #8c8684",
"aS c #846654",
"aT c #141a24",
"aU c #6c5a4c",
"aV c #544e54",
"aW c #3c2e3c",
"aX c #242634",
"aY c #4c4e5c",
"aZ c #3c3a44",
"a0 c #4c4244",
"a1 c #6c625c",
"a2 c #140e1c",
"a3 c #343a4c",
"a4 c #64626c",
"a5 c #644e4c",
"a6 c #846a6c",
"a7 c #847e84",
"a8 c #040a14",
/* pixels */
".Z.Z``````````.Z.Z`8``aQ```````````````M`M``.Q.Z``.Q.Z```C.Z``.Z.1ai`TaQ.Z`T.Z`M",
".Z`8`````e``#0.Z.Q.Q``````aQ``.ZaQ```M.Z`M.Z``````.v.Q`y.4``aQ.Z`C.t`MaQ.ZaQ`M.Z",
".Z``````.1``.t.4``````.Z``aQ.ZaQ`M.Q`m```m.Z.Z``aQ.4.Q#6``aQ.Z````.Z.Q``.Za8.Z.Z",
"````.Z.Z.Q``a#.Q`8.Z````.Z.Z``.Q.Z`M`M.Z#0.Z```M.v.4.Q.4``.Z````.Z.QaoaQa8ao#0ay",
"#0.Z`8#0.Z.Z.Qai.Q``a#`R`C``.Q.Q`8`T.Q.Z`M.Z``#0.x.Z.4``.Z.Z.Q.Z`8.4.4.Z.4.4#Na8",
".Q#0ai.x``aQ.Z`t.Z#0#6a##0``.4.Z.Q.4`m.4````aQ.Z.Z```8.Z.4`8#0`8``.4.Za8`TaQ.Qa8",
"``.Q.4`8.Z.Z.Z`C`y`M.Q.4```M.Z.Z.Q`M#0.Q.Z.Z`M````.Z.Z.Z.Q`8.Q.Z.Qaiae.Q`R`m.Qae",
".Z.Z.Q.Q#0.Z.Z.v#T.Z.Z`e`M.Z``.Z``.Z`e.Z`M`M.Z`M.Z`M.Z.Q.Q.Z`CaQ`CaT`T.Qai.ZaQa8",
".Z`8#6ai#0.Z```R.4.4``a8.Z.Z``.Z.Z`M.4`M.Q`MaQ`T``.Z.Q`M.QaQ.Q.Z.l.Q.Q```M``aoa8",
".Z.Z.v.Qao`T``.Q.Z`maQ`Mae`ea8.Z.4`T.4.Za8.Z.Zaoayaiah`M`8`8aQay#0.v`eao.4ay.4aY",
".Q.4`8`M`C.Q`M.4.Z.Z`M.Qaiay.Za8.Q`Ra8.Z.Q`maya8`M#0.t`M.Qaray.v.WaF.`aray.4.Z`R",
".v.4```C.Z``#0.tai.4.ZaQ.saya8.Qaear.Za8ay.l.Q.l.Q.la8.Q.lae`T#F`R.t.SayaQ.l.l.4",
"#0.4.Z.Q.Q.Qah`t`T.4.Za8ayayae#Fay#KaQa8.S.layaea8.N.l.laY`T`T.4ai.Qayaya8#F#F`R",
"``.QaQ.Q`8.l#3.Z`t.tao.l.4ayay#F.Qa8.N.l.la8#F#0ay.Na8arax#Tah.Z#N`R#F.layay.Qae",
".Q.4`8ay.s.Qae.t`fai.4.l.N.s.Z.lae#F#kae#KaraX.l#Fa8a8ayao`R#W`ma8ae.Nae#K#F#Fae",
"#0.Q#K`8`8.N.4.Z`TaQ`T.l#Fayae#k#K.Nae#KaeaXaX.NaX.l.s#Ka8#NaT`mayay.l#k.l#T.x#0",
"`za2.Q`8`8.Za2.Q#X.4.l.v#FaX.N#FaEaL.N.l.N`d`Rae.Jaya8.l.lag#J#Fahag.lar#FaX`Rar",
"#0`4.S`8a2`8.Q#0.N.t`C#J`m.t#T#0aFag.l`X`R.q.l.l.Q.say.4.l#N#F.labaF#F#6ae.N.taY",
"#Q.Q.zab`z.Q.Q.la2.r.l.x#F#K.laeae.l#K.N.t`w.xa8.l.lae#F#F.lar#0.N#0#Na3.laTaXaF",
"`N#X.x#b.x.S.Qa2`Rag.S.x`X#F#0.l#F.l#F`X.D`.#FaT#kaT#kaT.q#kaFae.l.N`R.r.N#Fae.N",
"`z.z`C.Ma2#0#K#0.x.x.var`T#kaL#Jae#Jar`Rar.q`T#Vag#kar#FaX#Tag.N#FaTararaXaXarar",
"#0.v.za2#0`I#F#0ar.x.xar.N`Rah.vae#k#F#F#FaT#F.qae`Xar#FagaXar#FaraXaraF`R.tar`R",
".S#Q#X.S.v.z#0#0.jaX.z`R#FaraX`X#Fab#kar#F`t.x#kaX#Sai#k`RagaFar.xarar.taraX#kag",
".S.x#X.x#X.Sa2.vaX.v.r#T#karaX.x`R#G#kaLaX.taiaraL.tae.l`R`R.qaraXaXaXaYaX`R#Tag",
"#X.x#X#p#p.v#k#F#0#k`N#TaX`taXaXaga3.JaX.x`RaXah.gaharaX#J#JaE#F.vaE`faZaF.taX#J",
"#Q#X.xa#`4`N#X.Sag#X.jai.q.1a#`taF#TaZaXaX.x#T.qaYag#X.Y#JaT.t#J`R.t`F.q.`ah.t`F",
".z`N`4`4#Q#y#6ag.j`taGai`N.1agag.q#T`tagag.raXagahaF#J#J#J.xabaXagaX.qaLah.q#V.q",
"`z.j.yaa`4aY`y`4aV#6agaZar.V`FagaZ#6aYaX`N.r#6.q.Lab.YaE`Ragah.t.qaLaY.`ah.taF.R",
"`4`Naa.j`4#y.T.eaZ`N`4.j.rabag#6.LaF`EaZ.2.2`r#6.qab.`.raga3.t.q.q`F`F`faFaF.q.R",
"`nag#S`N`N`y.2.j.2#p#p`4`N`0.L`N#y.j#f.T`N#xaG#6.q.j.La3aFa3.q.qaLaZaF`F`Fab.L#W",
".2.2.E#yaa.jaaa0`N`N#D.2`N.j.2#y.2aa.k.B#7#7#g.e.M.1`FanaY.g#f#V.L`faFabab`f`f`5",
"`k.V`3#yaa.2.F.V#8#D`5.j`5aZ.MaaaVaV`S`S#7#s`O.Xawan.oaI.`ab#V`Z.g#V.`.`aY.`#fab",
"aa`E`7#H#S#6#D`5.F.2.2.2#Y`5#Yaa.kaK.I#7.A#j`O.IaD`Z`Z`v#V`Z.D#f.``.#VaYaY.`aYaK",
".h`h#y#yaG`Va0.e#7#8#8#8#Y`A`V.e.h.e#7.A.A#t.A.3#h#S.D`Z.Dak#laI.P`1`.`1#S#V`Z.T",
"#s`2`O#x#D.HaD`O.d`U.h`H..a.`j`H`p.d.haA`p.6`Y.#.T.kalal.Tal.P.D.P.oaI`7aka4al`d",
"`P.h#j#7#7aq`S.e.d#O.m`H`c`g#1`Has.C.C.C#E#iaMa6.k#naO`6.k.k`J.o.o#l.c#la4#L.nam",
"`c.FaA.T.XaKaV`h.h.d`g#B#RaU`2a.a6.m.C`KaM#E#i`Kaq.k.B.Uav.O#.a7#L.c#a#l#daB`L#d",
"au#q`2#h.eacacaca.`g`gaUa..m`V.masaf.baS.f.u.K.K`u`x.UaJ`jaja`ajaj#LajajaR`Q`Q`Q",
"`HaU#g.B`V#1a1.n#Oa.afa..ba1a1.p`Uadad.b`s#v#e.5`Uaj#``u#U.a#`a`a``aa``Q`Q.GaC`q",
"#4af.da`#hamaqaj`D#4`B.m`6a.aq#Oas#z.iaz#v.8#e##`u`W#r#U#U.a.7.aaP`Q.a#uaP.wat`i"
};
