/* XPM */
static char * numxfadermodule_xpm[] = {
"40 40 122 2",
"  	c None",
". 	c #FFFFFF",
"+ 	c #FDFDFD",
"@ 	c #FBFBFB",
"# 	c #7E7E7E",
"$ 	c #A6A6A6",
"% 	c #000000",
"& 	c #636363",
"* 	c #ECECEC",
"= 	c #2E2E2E",
"- 	c #808080",
"; 	c #C4C4C4",
"> 	c #EAEAEA",
", 	c #B9B9B9",
"' 	c #030303",
") 	c #F4F4F4",
"! 	c #747474",
"~ 	c #474747",
"{ 	c #7B7B7B",
"] 	c #797979",
"^ 	c #9D9D9D",
"/ 	c #090909",
"( 	c #B2B2B2",
"_ 	c #E5E5E5",
": 	c #8C8C8C",
"< 	c #DDDDDD",
"[ 	c #F1F1F1",
"} 	c #DCDCDC",
"| 	c #0B0B0B",
"1 	c #EDEDED",
"2 	c #B7B7B7",
"3 	c #6D6D6D",
"4 	c #464646",
"5 	c #919191",
"6 	c #888888",
"7 	c #ABABAB",
"8 	c #0C0C0C",
"9 	c #9E9E9E",
"0 	c #434343",
"a 	c #787878",
"b 	c #BFBFBF",
"c 	c #202020",
"d 	c #EEEEEE",
"e 	c #959595",
"f 	c #696969",
"g 	c #181818",
"h 	c #F7F7F7",
"i 	c #1D1D1D",
"j 	c #8D8D8D",
"k 	c #9A9A9A",
"l 	c #CACACA",
"m 	c #CECECE",
"n 	c #7D7D7D",
"o 	c #191919",
"p 	c #B1B1B1",
"q 	c #4F4F4F",
"r 	c #171717",
"s 	c #BEBEBE",
"t 	c #D4D4D4",
"u 	c #262626",
"v 	c #272727",
"w 	c #626262",
"x 	c #777777",
"y 	c #FEFEFE",
"z 	c #E8E8E8",
"A 	c #141414",
"B 	c #313131",
"C 	c #4B4B4B",
"D 	c #F3F3F3",
"E 	c #F6F6F6",
"F 	c #F2F2F2",
"G 	c #4E4E4E",
"H 	c #838383",
"I 	c #FCFCFC",
"J 	c #535353",
"K 	c #070707",
"L 	c #767676",
"M 	c #A1A1A1",
"N 	c #EBEBEB",
"O 	c #222222",
"P 	c #8E8E8E",
"Q 	c #060606",
"R 	c #484848",
"S 	c #5A5A5A",
"T 	c #DFDFDF",
"U 	c #818181",
"V 	c #969696",
"W 	c #151515",
"X 	c #080808",
"Y 	c #212121",
"Z 	c #E3E3E3",
"` 	c #D5D5D5",
" .	c #F0F0F0",
"..	c #C9C9C9",
"+.	c #C2C2C2",
"@.	c #F8F8F8",
"#.	c #737373",
"$.	c #949494",
"%.	c #EFEFEF",
"&.	c #D8D8D8",
"*.	c #868686",
"=.	c #1E1E1E",
"-.	c #414141",
";.	c #282828",
">.	c #E9E9E9",
",.	c #101010",
"'.	c #898989",
").	c #CBCBCB",
"!.	c #7A7A7A",
"~.	c #2D2D2D",
"{.	c #C5C5C5",
"].	c #939393",
"^.	c #3E3E3E",
"/.	c #3C3C3C",
"(.	c #373737",
"_.	c #121212",
":.	c #BABABA",
"<.	c #8F8F8F",
"[.	c #E6E6E6",
"}.	c #B3B3B3",
"|.	c #3B3B3B",
"1.	c #424242",
". . . . . . . . . . . . . . . . . . . . . . . . . . . . . . . . . . . . . . . . ",
". . . . . . . . . . . . . . . . . . . . . . . . . . . . . . . . . . . . . . . . ",
". . . . . . . . . . . . . . . . . . . . . . . . . . . . . . . . . . . . . . . . ",
". . . . . . . . . . . . . . . . . . . . . . . . . . . . . . . . . . . . . . . . ",
". . . . . . . . . . . . . . . . . . . . . . . . . . . . . . . . . . . . . . . . ",
". . . . . . . . . . . . . . . . . . . . . . . . . . . . . . . . . . . . . . . . ",
". . . + . @ . . # . . . . . . . . . . . . . . . . . . . . . . . . . . . . . . . ",
". . . + . . . $ % & % . . . . . . . . . . . . . . . . . . . . . . . . . . . . . ",
". . . . . * = - ; . > % , . . + . . . . . . . . . . . . . . . . . . . . . . . . ",
". . . . . % ' . . . . ) % ! . . . . . . . . . . . . . . . . . . . . . . . . . . ",
". . . ~ % % { % . . . . . ] % . . . . . . ^ . . . . . . . . . . . . . . . . . . ",
". . / ( . _ : < . . . . . . [ % } . . . % | % 1 . . . . . . . . . . . . . . . . ",
". % 2 . . . . . 3 % % . + . . . % 4 5 % 6 3 7 8 . . . . . . . . . . . . . . . . ",
". 9 % 0 . . . . . a b . . . . . . c d e f g . % . . . . . . . . . . . . . . . . ",
". . h % i . . . . . . . j k . . l % % m n . . % . . . . . . . . . . . . . . . . ",
". . . . o % p . . . . . % % % . q . r $ . . . % . . . . . . . . . . . . . . . . ",
". . . . . e % s . . . . . t % % % . % . . . . l { . . + . . . . . . . . . . . . ",
". . . . . . u v % . . . . . . % % . w x . y . z % . . . . . . . . . . . . . . . ",
". . . . . A | . B % C . . . . 7 D . . C . . . E % % F . . . . . . . . . . . . . ",
". . . . . G % H . . % % . . . % I . . g . . . % J . K q . . . . . . . . . . . . ",
". . . . . . ( % % . . L % M . N % O . ] . 4 % . . . . P % . . . + . . . . . . . ",
". . . . . . . . Q % R . . % | . . S % % % % % b . . . . . % T . . . . . . . . . ",
". . . . . . . . . U % A . . % % F . V % , . o % W . . . . . X Y Z . . . . . . . ",
". . . . . . . + . . . % % ` .  .% c . . . . . ] % % ... . . . +.% @.. . . . . . ",
". . . . . . . . . y . . 9 % % . . % % h . . . . . % % #.. . . . . % q . . . . . ",
". . . . . . . . + . + . . . % % . . l % $.. . . . . % % . . . . . . 6 % %.. . . ",
". . . . . . . . . . . . . . . v % J . . % % . . . . . . . &.p . . . . . % *.. y ",
". . . . . . . . . . . . . . . . p % % . . =.% . . . . . . % % % . . . . . - -.. ",
". . . . . . . . . . . . . . . . . . ;.% >.. . % ,.. . @ . . . . z '.).. . !.% . ",
". . . . . . . . . . . . . . . + . . . V % % . . ~.% . . . . . . % {.% . % % . . ",
". . . . . . . . . . . . . . . . + . . . . % % . . j % ].. . . . !.v % % ^.. . y ",
". . . . . . . . . . . . . . . . . + + . . . /.% (.. . % % . . . . 4 % . . . . . ",
". . . . . . . . . . . . . . . . . . . . . . . . % % . . _.% h + % % . . . . . . ",
". . . . . . . . . . . . . . . . . . . . . . . . h % % :.. <.% % % % [.. . . . . ",
". . . . . . . . . . . . . . . . . . . . . . . . . . }.% % . . |.% ).. . . . . . ",
". . . . . . . . . . . . . . . . . . . . . . . . @ . . . % % % % +.. . . . . . . ",
". . . . . . . . . . . . . . . . . . . . . . . . + + . . . 1.1.. . . . . . . . . ",
". . . . . . . . . . . . . . . . . . . . . . . . . . . . . . . . . . . . . . . . ",
". . . . . . . . . . . . . . . . . . . . . . . . . . . . . . . . . . . . . . . . ",
". . . . . . . . . . . . . . . . . . . . . . . . . . . . . . . . . . . . . . . . "};
