/* XPM */
static char * centermodule_xpm[] = {
"40 44 44 1",
" 	c None",
".	c #FF0000",
"+	c #00FF00",
"@	c #0000FF",
"#	c #000000",
"$	c #060606",
"%	c #0C0C0C",
"&	c #131313",
"*	c #191919",
"=	c #1F1F1F",
"-	c #262626",
";	c #2C2C2C",
">	c #333333",
",	c #393939",
"'	c #3F3F3F",
")	c #464646",
"!	c #4C4C4C",
"~	c #525252",
"{	c #595959",
"]	c #5F5F5F",
"^	c #666666",
"/	c #6C6C6C",
"(	c #727272",
"_	c #797979",
":	c #7F7F7F",
"<	c #858585",
"[	c #8C8C8C",
"}	c #929292",
"|	c #989898",
"1	c #9F9F9F",
"2	c #A5A5A5",
"3	c #ACACAC",
"4	c #B2B2B2",
"5	c #B8B8B8",
"6	c #BFBFBF",
"7	c #C5C5C5",
"8	c #CCCCCC",
"9	c #D2D2D2",
"0	c #D8D8D8",
"a	c #DFDFDF",
"b	c #E5E5E5",
"c	c #EBEBEB",
"d	c #F2F2F2",
"e	c #F8F8F8",
".............++++++++++++++@@@@@@@@@@@@@",
".............++++++++++++++@@@@@@@@@@@@@",
".............++++++++++++++@@@@@@@@@@@@@",
".............++++++++++++++@@@@@@@@@@@@@",
".............++++++++++++++@@@@@@@@@@@@@",
".............++++++++++++++@@@@@@@@@@@@@",
".............++++++++++++++@@@@@@@@@@@@@",
".............++++++++++++++@@@@@@@@@@@@@",
".............++++++++++++++@@@@@@@@@@@@@",
".............++++++++++++++@@@@@@@@@@@@@",
".............++++++++++++++@@@@@@@@@@@@@",
".............++++++++++++++@@@@@@@@@@@@@",
".............++++++++++++++@@@@@@@@@@@@@",
".............++++++++++++++@@@@@@@@@@@@@",
".............++++++++++++++@@@@@@@@@@@@@",
".............++++++++++++++@@@@@@@@@@@@@",
".............++++++++++++++@@@@@@@@@@@@@",
".............++++++++++++++@@@@@@@@@@@@@",
".............++++++++++++++@@@@@@@@@@@@@",
".............++++++++++++++@@@@@@@@@@@@@",
".............++++++++++++++@@@@@@@@@@@@@",
".............++++++++++++++@@@@@@@@@@@@@",
"#$%&*=-;>,')!~{]^/(_:<[}|1234567890abcde",
"#$%&*=-;>,')!~{]^/(_:<[}|1234567890abcde",
"#$%&*=-;>,')!~{]^/(_:<[}|1234567890abcde",
"#$%&*=-;>,')!~{]^/(_:<[}|1234567890abcde",
"#$%&*=-;>,')!~{]^/(_:<[}|1234567890abcde",
"#$%&*=-;>,')!~{]^/(_:<[}|1234567890abcde",
"#$%&*=-;>,')!~{]^/(_:<[}|1234567890abcde",
"#$%&*=-;>,')!~{]^/(_:<[}|1234567890abcde",
"#$%&*=-;>,')!~{]^/(_:<[}|1234567890abcde",
"#$%&*=-;>,')!~{]^/(_:<[}|1234567890abcde",
"#$%&*=-;>,')!~{]^/(_:<[}|1234567890abcde",
"#$%&*=-;>,')!~{]^/(_:<[}|1234567890abcde",
"#$%&*=-;>,')!~{]^/(_:<[}|1234567890abcde",
"#$%&*=-;>,')!~{]^/(_:<[}|1234567890abcde",
"#$%&*=-;>,')!~{]^/(_:<[}|1234567890abcde",
"#$%&*=-;>,')!~{]^/(_:<[}|1234567890abcde",
"#$%&*=-;>,')!~{]^/(_:<[}|1234567890abcde",
"#$%&*=-;>,')!~{]^/(_:<[}|1234567890abcde",
"#$%&*=-;>,')!~{]^/(_:<[}|1234567890abcde",
"#$%&*=-;>,')!~{]^/(_:<[}|1234567890abcde",
"#$%&*=-;>,')!~{]^/(_:<[}|1234567890abcde",
"#$%&*=-;>,')!~{]^/(_:<[}|1234567890abcde"};
