/* XPM */
static char * joystickmodule_xpm[] = {
"40 40 786 2",
"  	c None",
". 	c #FFFFFF",
"+ 	c #FFFEFF",
"@ 	c #FFFFFE",
"# 	c #FFFFFD",
"$ 	c #FEFEFD",
"% 	c #FBF8F5",
"& 	c #F6F1E3",
"* 	c #F5EFD9",
"= 	c #F2EDD2",
"- 	c #F1EBD2",
"; 	c #F3EEDD",
"> 	c #F7F5EF",
", 	c #FDFEFC",
"' 	c #FDFFFE",
") 	c #F6F6F6",
"! 	c #ECEDEC",
"~ 	c #D6D0A9",
"{ 	c #E3D988",
"] 	c #E5DA80",
"^ 	c #E3D779",
"/ 	c #E0D577",
"( 	c #E1D882",
"_ 	c #DCD7A2",
": 	c #ECEBEC",
"< 	c #FDFDFD",
"[ 	c #DEDEDE",
"} 	c #828395",
"| 	c #6E7564",
"1 	c #C2CA79",
"2 	c #E0E68B",
"3 	c #EBED96",
"4 	c #E3EB8F",
"5 	c #CAD786",
"6 	c #879674",
"7 	c #636B82",
"8 	c #FAFBFA",
"9 	c #EEEEEE",
"0 	c #CFCFCF",
"a 	c #66687B",
"b 	c #20356D",
"c 	c #273F7C",
"d 	c #374F8B",
"e 	c #547098",
"f 	c #405D8F",
"g 	c #224082",
"h 	c #1B3B7D",
"i 	c #364468",
"j 	c #FAFAFB",
"k 	c #F8F8F8",
"l 	c #D3D3D3",
"m 	c #CECECE",
"n 	c #76747D",
"o 	c #252F62",
"p 	c #233879",
"q 	c #243E87",
"r 	c #24438D",
"s 	c #24448E",
"t 	c #263F84",
"u 	c #1C3876",
"v 	c #474C6B",
"w 	c #FEFDFD",
"x 	c #E1E1E1",
"y 	c #CDCDCD",
"z 	c #858187",
"A 	c #253160",
"B 	c #213979",
"C 	c #263F83",
"D 	c #24438B",
"E 	c #26448D",
"F 	c #263E83",
"G 	c #1E3874",
"H 	c #545975",
"I 	c #FFFEFE",
"J 	c #F0F0F0",
"K 	c #D0D0D0",
"L 	c #969094",
"M 	c #28315F",
"N 	c #223876",
"O 	c #273F83",
"P 	c #23428A",
"Q 	c #25428B",
"R 	c #233E84",
"S 	c #213874",
"T 	c #666884",
"U 	c #FEFEFF",
"V 	c #FCFCFC",
"W 	c #D7D7D7",
"X 	c #A9A3A4",
"Y 	c #2B335C",
"Z 	c #243A77",
"` 	c #254082",
" .	c #234389",
"..	c #27448C",
"+.	c #243E83",
"@.	c #243A76",
"#.	c #76798F",
"$.	c #FEFFFF",
"%.	c #FEFEFE",
"&.	c #E3E3E3",
"*.	c #BAB5B3",
"=.	c #2D3259",
"-.	c #273975",
";.	c #254183",
">.	c #26438A",
",.	c #263F82",
"'.	c #283A75",
").	c #818397",
"!.	c #F2F2F2",
"~.	c #C9C5C2",
"{.	c #303255",
"].	c #2A3973",
"^.	c #253F81",
"/.	c #224288",
"(.	c #254288",
"_.	c #284081",
":.	c #2C3A75",
"<.	c #8F8EA0",
"[.	c #FEFFFD",
"}.	c #DBDBDB",
"|.	c #D8D5D3",
"1.	c #343452",
"2.	c #2A3B72",
"3.	c #263F80",
"4.	c #244186",
"5.	c #284386",
"6.	c #2A407F",
"7.	c #2C3A73",
"8.	c #9B9AA8",
"9.	c #EBEBEB",
"0.	c #E9E7E2",
"a.	c #373751",
"b.	c #283A6E",
"c.	c #283E7D",
"d.	c #264083",
"e.	c #2A4283",
"f.	c #2C407F",
"g.	c #2C3B6E",
"h.	c #A8A8B0",
"i.	c #FBFBFB",
"j.	c #D4D4D4",
"k.	c #F4F4F0",
"l.	c #454458",
"m.	c #2B3B6C",
"n.	c #283F79",
"o.	c #294182",
"p.	c #2C4382",
"q.	c #2B427E",
"r.	c #313C6D",
"s.	c #BAB9BE",
"t.	c #F1F1F1",
"u.	c #FBFDFA",
"v.	c #7B7883",
"w.	c #313B65",
"x.	c #2A4076",
"y.	c #2D4481",
"z.	c #2E4580",
"A.	c #2D437A",
"B.	c #46486D",
"C.	c #E6E5E6",
"D.	c #E5E5E5",
"E.	c #D5D5D5",
"F.	c #D4CFCF",
"G.	c #3F425D",
"H.	c #2B406C",
"I.	c #2E4378",
"J.	c #314678",
"K.	c #364473",
"L.	c #7B7684",
"M.	c #E2E1E1",
"N.	c #E1E1E3",
"O.	c #E2E2E2",
"P.	c #E0E0E0",
"Q.	c #DEDFDF",
"R.	c #DDDDDD",
"S.	c #D2D2D2",
"T.	c #DCDCDC",
"U.	c #FDFFFF",
"V.	c #F3F2EC",
"W.	c #ECEADF",
"X.	c #ECE8DD",
"Y.	c #ECDFD9",
"Z.	c #EAD9D5",
"`.	c #ECD7D1",
" +	c #EBD6D2",
".+	c #EADBD6",
"++	c #E6DED4",
"@+	c #DACEBF",
"#+	c #58535F",
"$+	c #2D3F6A",
"%+	c #314473",
"&+	c #324874",
"*+	c #3A466C",
"=+	c #9A8F92",
"-+	c #C6C1B7",
";+	c #C4B8AF",
">+	c #C5B2AD",
",+	c #C8B2AF",
"'+	c #C7B5B1",
")+	c #C6BBB8",
"!+	c #CBC6BF",
"~+	c #C8C8C4",
"{+	c #CCC8C7",
"]+	c #CECDCE",
"^+	c #CFCECE",
"/+	c #EFEBE5",
"(+	c #BDB399",
"_+	c #BCAE98",
":+	c #BDA089",
"<+	c #BA6B5E",
"[+	c #B25048",
"}+	c #AF463C",
"|+	c #B14B45",
"1+	c #B46057",
"2+	c #B5907F",
"3+	c #9A7D59",
"4+	c #574951",
"5+	c #314173",
"6+	c #2F477E",
"7+	c #31477F",
"8+	c #384474",
"9+	c #999597",
"0+	c #B8AC9F",
"a+	c #AF695B",
"b+	c #AE4E46",
"c+	c #AE443F",
"d+	c #B14B47",
"e+	c #B5635D",
"f+	c #BE998D",
"g+	c #BEB4A6",
"h+	c #BAB0A0",
"i+	c #C7C3BD",
"j+	c #CCCFCF",
"k+	c #CECECD",
"l+	c #FDFEFE",
"m+	c #C5B7A3",
"n+	c #B1A186",
"o+	c #BDB19F",
"p+	c #BA9380",
"q+	c #B54942",
"r+	c #B84D44",
"s+	c #B94D46",
"t+	c #B73838",
"u+	c #B44742",
"v+	c #B48C81",
"w+	c #A59379",
"x+	c #5A5156",
"y+	c #334576",
"z+	c #324B83",
"A+	c #324A86",
"B+	c #384877",
"C+	c #959595",
"D+	c #B3A299",
"E+	c #AE5D53",
"F+	c #B04F48",
"G+	c #B6423E",
"H+	c #B93836",
"I+	c #B4403F",
"J+	c #BA857C",
"K+	c #BFBBAB",
"L+	c #B5AC9A",
"M+	c #B5AA97",
"N+	c #CDCFCD",
"O+	c #FCFCF8",
"P+	c #AC997E",
"Q+	c #B4A68F",
"R+	c #BFB5A2",
"S+	c #BFB19D",
"T+	c #C7A898",
"U+	c #C9A293",
"V+	c #C9A094",
"W+	c #CA9F95",
"X+	c #C5AB9C",
"Y+	c #BFB6A4",
"Z+	c #B7AA98",
"`+	c #5D5C5F",
" @	c #314876",
".@	c #324E85",
"+@	c #304E87",
"@@	c #384879",
"#@	c #9D9C9F",
"$@	c #B7B4AE",
"%@	c #BDADA2",
"&@	c #C6AEA3",
"*@	c #CAA79B",
"=@	c #CDA397",
"-@	c #CAADA1",
";@	c #C5B6AA",
">@	c #C4C0B3",
",@	c #BCB5A5",
"'@	c #ACA08C",
")@	c #CBC9C2",
"!@	c #EDE8DD",
"~@	c #A6967A",
"{@	c #B8AE94",
"]@	c #C4B9A7",
"^@	c #BDB9A5",
"/@	c #C2C0AA",
"(@	c #C6C2AB",
"_@	c #C7C1AD",
":@	c #C6C0AE",
"<@	c #C6BFB0",
"[@	c #C4BFAD",
"}@	c #B8B9AD",
"|@	c #575B6A",
"1@	c #384A7A",
"2@	c #385089",
"3@	c #35508A",
"4@	c #364C77",
"5@	c #879199",
"6@	c #BCBAB1",
"7@	c #C4BFB2",
"8@	c #C3C1B4",
"9@	c #C5C1B4",
"0@	c #C9C1B5",
"a@	c #C9C0B4",
"b@	c #C7C2B3",
"c@	c #C9C5B7",
"d@	c #C3BDB1",
"e@	c #BFB8AC",
"f@	c #CDCECF",
"g@	c #D8CFC2",
"h@	c #AD9D83",
"i@	c #BCB39D",
"j@	c #C3BDAA",
"k@	c #C1BCA8",
"l@	c #C5BFAE",
"m@	c #C5C0AD",
"n@	c #C7C0AE",
"o@	c #C8C1AF",
"p@	c #C6C1B6",
"q@	c #C4C2B3",
"r@	c #B2B5AE",
"s@	c #5E697E",
"t@	c #41507C",
"u@	c #385186",
"v@	c #364F85",
"w@	c #3E527E",
"x@	c #6A7389",
"y@	c #BEBDB7",
"z@	c #C7C5B8",
"A@	c #C0B2A8",
"B@	c #C1A9A1",
"C@	c #C7B3A9",
"D@	c #C1AFA4",
"E@	c #C8C2B5",
"F@	c #CBC6BA",
"G@	c #C8C5B9",
"H@	c #BDB7A7",
"I@	c #B5AE9F",
"J@	c #C7BAA7",
"K@	c #B2A58B",
"L@	c #C0B8A3",
"M@	c #C5C1AD",
"N@	c #C4BEA9",
"O@	c #C8C1B2",
"P@	c #B8B5A5",
"Q@	c #A19A94",
"R@	c #ADAEA2",
"S@	c #899193",
"T@	c #A2A89F",
"U@	c #9AA394",
"V@	c #90939B",
"W@	c #8D8A9A",
"X@	c #8992AA",
"Y@	c #8993A8",
"Z@	c #9199AA",
"`@	c #A8ACAD",
" #	c #C3C1BD",
".#	c #C5C5BB",
"+#	c #BCA49E",
"@#	c #BFA69E",
"##	c #C4AEA4",
"$#	c #C2ADA3",
"%#	c #CDC4B9",
"&#	c #CDC7BC",
"*#	c #CDC9BD",
"=#	c #C2C0B1",
"-#	c #B3AC9C",
";#	c #CBCAC6",
">#	c #B8A58C",
",#	c #B5AB91",
"'#	c #C2BCA7",
")#	c #C8C4B0",
"!#	c #C5C0AE",
"~#	c #BEC0B4",
"{#	c #797F85",
"]#	c #A0A270",
"^#	c #A3A469",
"/#	c #878F65",
"(#	c #8A9475",
"_#	c #A0A766",
":#	c #A4A6A1",
"<#	c #B8B6B8",
"[#	c #AAB2B8",
"}#	c #B3BDBE",
"|#	c #B5BBBC",
"1#	c #B6BCBB",
"2#	c #B5BBB8",
"3#	c #B5BBB5",
"4#	c #BBB8B5",
"5#	c #BFBCB6",
"6#	c #C0C1BA",
"7#	c #B8B9B5",
"8#	c #C7C7C0",
"9#	c #CBCABE",
"0#	c #D1CDC0",
"a#	c #C6C6BA",
"b#	c #BBB3A6",
"c#	c #C2BEB9",
"d#	c #FEFFFE",
"e#	c #FFFEFD",
"f#	c #F8F5EF",
"g#	c #A7997B",
"h#	c #BAB199",
"i#	c #C7C0AD",
"j#	c #CCC6B5",
"k#	c #CAC6B8",
"l#	c #C1C1B4",
"m#	c #9498A0",
"n#	c #697680",
"o#	c #7D867B",
"p#	c #76818E",
"q#	c #626D8E",
"r#	c #838A8B",
"s#	c #B8B5AF",
"t#	c #AFB2B2",
"u#	c #A7ADAE",
"v#	c #A8B0B1",
"w#	c #A9AEAE",
"x#	c #ABB1AE",
"y#	c #ACB1B0",
"z#	c #B4B7B7",
"A#	c #B6B7B3",
"B#	c #BFBFB9",
"C#	c #B8B8B4",
"D#	c #C5C1B9",
"E#	c #D0C8BF",
"F#	c #D1D0C4",
"G#	c #CDCCC0",
"H#	c #C1BFB3",
"I#	c #BAB3A6",
"J#	c #CECECC",
"K#	c #CECECF",
"L#	c #CDCECE",
"M#	c #E9E1D6",
"N#	c #AB9D7E",
"O#	c #BEB8A3",
"P#	c #CCC9B8",
"Q#	c #D2CDBD",
"R#	c #D2CEBD",
"S#	c #D2CEC0",
"T#	c #CBCABD",
"U#	c #B0B3B4",
"V#	c #B9BAB7",
"W#	c #CBCBC2",
"X#	c #D1D1C7",
"Y#	c #D1D0C8",
"Z#	c #CDCFC6",
"`#	c #CBCCC5",
" $	c #CACDC6",
".$	c #C8CCC5",
"+$	c #C6CAC5",
"@$	c #C9CCC7",
"#$	c #C9CDC5",
"$$	c #CACFC6",
"%$	c #CCD1C8",
"&$	c #CFD1C8",
"*$	c #D2D3C9",
"=$	c #D4D5C9",
"-$	c #D7D6CB",
";$	c #D9D7CD",
">$	c #D7D8CC",
",$	c #D4D6C9",
"'$	c #CACBBF",
")$	c #B8B3A6",
"!$	c #CDCBC9",
"~$	c #FFFEFC",
"{$	c #D6CBBB",
"]$	c #B4AB92",
"^$	c #C8C5B4",
"/$	c #D3D3C6",
"($	c #D8D7CC",
"_$	c #DADACB",
":$	c #DADACE",
"<$	c #DADBCE",
"[$	c #DADAD0",
"}$	c #DBDBD0",
"|$	c #DCDDD1",
"1$	c #DBDDD1",
"2$	c #DBDCD2",
"3$	c #DADDD4",
"4$	c #D9DDD4",
"5$	c #D8DDD7",
"6$	c #D8DDD6",
"7$	c #D9E0D7",
"8$	c #DBE1D8",
"9$	c #DCE2D9",
"0$	c #DEE1DA",
"a$	c #E1E1DA",
"b$	c #E2E3DB",
"c$	c #E1E3DB",
"d$	c #E0E4DC",
"e$	c #E0E3D9",
"f$	c #D8DAD1",
"g$	c #C7C7BB",
"h$	c #C6C3BD",
"i$	c #CCCFCE",
"j$	c #C8BCA9",
"k$	c #BDBBA8",
"l$	c #CECEC1",
"m$	c #D7DAD0",
"n$	c #DCE0D6",
"o$	c #DDE2D7",
"p$	c #DDE2D8",
"q$	c #DEE3D9",
"r$	c #DFE3DB",
"s$	c #E1E5DD",
"t$	c #E3E7DF",
"u$	c #E2E6DF",
"v$	c #E2E7DF",
"w$	c #E3E7E1",
"x$	c #E4E8E3",
"y$	c #E3E9E4",
"z$	c #E3EAE5",
"A$	c #E4EBE7",
"B$	c #E5ECE9",
"C$	c #E6EDEA",
"D$	c #E7EEEB",
"E$	c #E9ECEA",
"F$	c #E9EDEB",
"G$	c #E7EDEA",
"H$	c #E6EBE5",
"I$	c #DFE1DB",
"J$	c #D2D6CC",
"K$	c #C2C0B5",
"L$	c #CDCFCC",
"M$	c #C2B4A0",
"N$	c #BABAAB",
"O$	c #C9CCC0",
"P$	c #D2D8D0",
"Q$	c #D9E1DB",
"R$	c #D9E3DC",
"S$	c #DAE4DE",
"T$	c #DCE5E0",
"U$	c #DCE5E2",
"V$	c #DEE7E3",
"W$	c #DFE9E5",
"X$	c #E1EBE6",
"Y$	c #E2ECE8",
"Z$	c #E3EEE9",
"`$	c #E4ECEA",
" %	c #E5EDEB",
".%	c #E6EDEB",
"+%	c #E5EEEA",
"@%	c #E6F0EB",
"#%	c #E7F1EC",
"$%	c #E6F0EC",
"%%	c #E8F2ED",
"&%	c #E7EFEB",
"*%	c #E8EEEA",
"=%	c #E5EEED",
"-%	c #E2E9E6",
";%	c #DADFDB",
">%	c #D0D3CC",
",%	c #BFBDAD",
"'%	c #CDCFCB",
")%	c #CECDCF",
"!%	c #B4B3A2",
"~%	c #C3C5B9",
"{%	c #CAD0C8",
"]%	c #CDD6CE",
"^%	c #CFD7CF",
"/%	c #D0D7CF",
"(%	c #D3D8D1",
"_%	c #D2D9D1",
":%	c #D2DCD3",
"<%	c #D1DCD4",
"[%	c #D3DDD6",
"}%	c #D2DDD6",
"|%	c #D4DCD5",
"1%	c #D5DDD6",
"2%	c #D6DED8",
"3%	c #D6DED7",
"4%	c #D8E0D8",
"5%	c #D8E0D9",
"6%	c #D9E0D9",
"7%	c #DAE0DB",
"8%	c #DBE0DB",
"9%	c #DBE0DC",
"0%	c #D9E0DC",
"a%	c #D9E0DA",
"b%	c #D3DBD1",
"c%	c #CBCDC4",
"d%	c #CECFCC",
"e%	c #BBAD97",
"f%	c #AFAB97",
"g%	c #BEBDB1",
"h%	c #C4C8BF",
"i%	c #C7CDC4",
"j%	c #C8CDC4",
"k%	c #C9CEC5",
"l%	c #CDD0C9",
"m%	c #CBD1C9",
"n%	c #CAD3CA",
"o%	c #CBD3C9",
"p%	c #CDD5CA",
"q%	c #CCD4CA",
"r%	c #CFD5CC",
"s%	c #D1D6CC",
"t%	c #D1D6CD",
"u%	c #D2D7CE",
"v%	c #D4D9CF",
"w%	c #D4D9D1",
"x%	c #D4D9D2",
"y%	c #D4D9D3",
"z%	c #D5DAD3",
"A%	c #D5DAD4",
"B%	c #D6DAD4",
"C%	c #D5DAD1",
"D%	c #CFD5C9",
"E%	c #C6C8BD",
"F%	c #BDB9A7",
"G%	c #CDCECD",
"H%	c #C1B39A",
"I%	c #AFA793",
"J%	c #BBBAAC",
"K%	c #C3C4B8",
"L%	c #C5C9BF",
"M%	c #C7CCC1",
"N%	c #C7CBC1",
"O%	c #C9CDC4",
"P%	c #CBCEC6",
"Q%	c #CAD0C7",
"R%	c #CBD1C6",
"S%	c #CDD3C8",
"T%	c #CED3C9",
"U%	c #CFD3C9",
"V%	c #D0D5CA",
"W%	c #D1D6CB",
"X%	c #D3D7CD",
"Y%	c #D2D7CD",
"Z%	c #D2D8CE",
"`%	c #D3D9CF",
" &	c #D5D9D0",
".&	c #D5DAD0",
"+&	c #D4D9D0",
"@&	c #D3D7CF",
"#&	c #D1D4C7",
"$&	c #C7C7B9",
"%&	c #C0BBAF",
"&&	c #D6D6D6",
"*&	c #F7F7F7",
"=&	c #D6C8B2",
"-&	c #A7997D",
";&	c #B6B4A4",
">&	c #C2C2B2",
",&	c #C3C6BB",
"'&	c #C4C8BD",
")&	c #C5CABE",
"!&	c #C7CCC0",
"~&	c #CACDC4",
"{&	c #C8CBC2",
"]&	c #C9CDC3",
"^&	c #CACFC5",
"/&	c #CCD0C6",
"(&	c #CDD1C7",
"_&	c #CCD0C7",
":&	c #CDD1C8",
"<&	c #CED2C9",
"[&	c #D0D4CA",
"}&	c #D1D5CC",
"|&	c #D2D5CD",
"1&	c #D4D5CD",
"2&	c #D5D6CE",
"3&	c #D5D6CD",
"4&	c #D0D3CB",
"5&	c #CBCCBF",
"6&	c #BEB9A8",
"7&	c #C8C4BE",
"8&	c #CFCFD0",
"9&	c #D9D9D9",
"0&	c #F9F9F9",
"a&	c #EDE7DF",
"b&	c #A99778",
"c&	c #B0AA95",
"d&	c #B8B9A7",
"e&	c #BDC0B1",
"f&	c #BFC2B4",
"g&	c #C1C4B6",
"h&	c #C3C6B9",
"i&	c #C4C7BD",
"j&	c #C5C8BF",
"k&	c #C7C9C0",
"l&	c #C9CBC3",
"m&	c #CBCDC5",
"n&	c #CCCEC5",
"o&	c #CCCEC6",
"p&	c #CED0C6",
"q&	c #CFD1C7",
"r&	c #D1D2C9",
"s&	c #D0D2C8",
"t&	c #D0D2CA",
"u&	c #D1D3CA",
"v&	c #D2D3CA",
"w&	c #D2D2CA",
"x&	c #D2D2C9",
"y&	c #D0D2C5",
"z&	c #CDCDC2",
"A&	c #C6C3B3",
"B&	c #BAB2A1",
"C&	c #D0D0CC",
"D&	c #DFDEDF",
"E&	c #F7F7F6",
"F&	c #D2CABC",
"G&	c #A2967A",
"H&	c #AEAA92",
"I&	c #B6B4A2",
"J&	c #B8B6A5",
"K&	c #B9B8A7",
"L&	c #BBBAA9",
"M&	c #BCBBAB",
"N&	c #BDBBAB",
"O&	c #BDBCAC",
"P&	c #BEBCAC",
"Q&	c #C0BEAF",
"R&	c #C1BFB0",
"S&	c #C3C0B0",
"T&	c #C3C0B1",
"U&	c #C3C1B1",
"V&	c #C5C3B3",
"W&	c #C4C2B1",
"X&	c #C5C3B1",
"Y&	c #C5C3B0",
"Z&	c #C4C1AF",
"`&	c #C3C0AE",
" *	c #C2C0AD",
".*	c #C2BFAE",
"+*	c #C0BDAC",
"@*	c #BDB6A3",
"#*	c #A89F89",
"$*	c #C2BFB6",
"%*	c #EBEBEA",
"&*	c #FAF9FA",
"**	c #F9F9F6",
"=*	c #B8B09F",
"-*	c #A2957B",
";*	c #ABA692",
">*	c #B1AC99",
",*	c #AFA993",
"'*	c #948C7A",
")*	c #A49E92",
"!*	c #AEA89D",
"~*	c #B2ACA1",
"{*	c #B2ADA2",
"]*	c #B4B0A4",
"^*	c #B5B1A6",
"/*	c #B6B2A6",
"(*	c #B7B2A7",
"_*	c #B7B3A7",
":*	c #B9B5AA",
"<*	c #B9B5AB",
"[*	c #BBB7AD",
"}*	c #BEBAB0",
"|*	c #C1BDB3",
"1*	c #C4C0B6",
"2*	c #C6C3B9",
"3*	c #B2AFA1",
"4*	c #B5B39E",
"5*	c #C9C7BA",
"6*	c #C5C7B7",
"7*	c #B3AA97",
"8*	c #A8A293",
"9*	c #F1F1F0",
"0*	c #FCFDFC",
"a*	c #C8C5BD",
"b*	c #B4B2A7",
"c*	c #B5B2A9",
"d*	c #B5B4AC",
"e*	c #DDDDD8",
"f*	c #FDFEFD",
"g*	c #E6E5E4",
"h*	c #D0CFCD",
"i*	c #CCC9C4",
"j*	c #E1DFDA",
"k*	c #FDFDFA",
". . . . . . . . . . . . . . . + . @ . @ . @ @ # . . . . . . . . . . . . . . . . ",
". . . . . . . . . . . . . . . $ % & * = - ; > , ' . . . . . . . . . . . . . . ) ",
". . . . . . . . . . . . . . @ ! ~ { ] ^ / ( _ : , . . . . . . . . . . . . . < [ ",
". . . . . . . . . . . . . . . } | 1 2 3 4 5 6 7 8 . . . . . . . . . . . . . 9 0 ",
". . . . . . . . . . . . . . + a b c d e f g h i j . . . . . . . . . . . . k l m ",
". . . . . . . . . . . . . . . n o p q r s t u v w . . . . . . . . . . . < x y m ",
". . . . . . . . . . . . . . . z A B C D E F G H I . . . . . . . . . . . J K m m ",
". . . . . . . . . . . . . . @ L M N O P Q R S T U . . . . . . . . . . V W m m m ",
". . . . . . . . . . . . . . . X Y Z `  ...+.@.#.$.. . . . . . . . . %.&.m m m m ",
". . . . . . . . . . . . . . . *.=.-.;. .>.,.'.).' . . . . . . . . . !.K m m m m ",
". . . . . . . . . . . . . . $.~.{.].^./.(._.:.<.[.. . . . . . . . V }.y m m m m ",
". . . . . . . . . . . . . . $.|.1.2.3.4.5.6.7.8.I . . . . . . . . 9.0 m m m m m ",
". . . . . . . . . . . . . . $.0.a.b.c.d.e.f.g.h.I . . . . . . . i.j.m m m m m l ",
". . . . . . . . . . . . . . $.k.l.m.n.o.p.q.r.s.I . . . . . . . !.0 m m m m W t.",
". . . . . . . . . . . . . . . u.v.w.x.y.z.A.B.C.%.%.%.%.%.%.%.< D.m m m m E.!.< ",
". . . . . . . . . . . . . . . %.F.G.H.I.J.K.L.M.N.O.O.x P.P.Q.R.S.m m m y l T.[ ",
". . . . . U.I V.W.X.Y.Z.`. +.+++@+#+$+%+&+*+=+-+;+>+,+'+)+!+~+{+]+^+m m m m m m ",
". . . . . U./+(+_+:+<+[+}+|+1+2+3+4+5+6+7+8+9+0+a+b+c+d+e+f+g+h+i+j+k+m m m m m ",
". . . . . l+m+n+o+p+q+r+s+t+u+v+w+x+y+z+A+B+C+D+E+F+G+H+I+J+K+L+M+N+m m m m m m ",
". . . . . O+P+Q+R+S+T+U+V+W+X+Y+Z+`+ @.@+@@@#@$@%@&@*@=@-@;@>@,@'@)@m m m m m m ",
". . . . . !@~@{@]@^@/@(@_@:@<@[@}@|@1@2@3@4@5@6@7@8@9@0@a@b@c@d@L+e@f@m m m m m ",
". . . . . g@h@i@j@k@l@m@n@o@p@q@r@s@t@u@v@w@x@y@z@A@B@C@D@E@F@G@H@I@k+m m m m m ",
". . . %.%.J@K@L@M@N@O@P@Q@R@S@T@U@V@W@X@Y@Z@`@ #.#+#@###$#%#&#*#=#-#;#m m m m m ",
". . . @ $ >#,#'#)#!#~#{#]#^#/#(#_#:#<#[#}#|#1#2#3#4#5#6#7#8#9#0#a#b#c#m m m m m ",
". . d#e#f#g#h#i#j#k#l#m#n#o#p#q#r#s#t#u#v#u#w#x#y#z#A#B#C#D#E#F#G#H#I#J#K#L#m m ",
". . d#I M#N#O#P#Q#R#S#T#U#V#W#X#Y#Z#`# $.$+$@$#$$$%$&$*$=$-$;$>$,$'$)$!$j+k+m m ",
". . ~$' {$]$^$/$($_$:$<$[$}$|$1$2$2$3$3$4$5$5$6$7$8$9$0$a$b$c$d$e$f$g$h$i$k+m m ",
". . I l+j$k$l$m$n$o$p$q$r$d$s$t$u$v$w$x$x$y$z$z$A$B$C$D$E$F$F$G$H$I$J$K$L$m m m ",
". . @ I M$N$O$P$Q$R$S$T$U$V$W$X$Y$Z$`$ %.%+%@%@%#%$%%%&%*%*%D$=%-%;%>%,%'%)%m m ",
". . d#@ _+!%~%{%]%]%^%/%(%_%:%<%[%}%|%1%2%3%4%5%6%;%7%8%9%9%9%0%a%b%c%^@d%f@m m ",
". . d#@ e%f%g%h%i%j%k%$$l%m%n%o%p%q%r%s%t%u%v%v%w%x%y%z%z%A%A%B%C%D%E%F%G%G%m }.",
". . d#%.H%I%J%K%L%M%N%O%P%$$Q%R%R%S%T%U%V%W%X%X%Y%Z%`%`%v% &.&+&@&#&$&%&L#m &&*&",
". . e#l+=&-&;&>&,&'&)&!&~&{&]&^&^&/&(&_&:&<&[&J$J$}&}&|&1&2&3&W%4&5&6&7&8&9&0&. ",
". . I ' a&b&c&d&e&f&g&h&i&i&j&k&l&c%m&n&o&p&q&r&s&t&u&v&w&v&x&y&z&A&B&C&D&E&%.. ",
". . . . < F&G&H&I&J&K&L&M&N&O&P&Q&R&S&T&U&U&U&V&W&X&Y&Z&`& *.*+*@*#*$*%*&*@ . . ",
". . . . . **=*-*;*>*,*'*)*!*~*{*]*^*/*(*_*:*<*[*}*|*1*2*3*4*5*6*7*8*9*< . . . . ",
". . . . . $ 0*a*b*c*d*e*f*d#d#%.%.%.%.%.I I e#I I + + I $ g*h*i*j*k*@ . . . . . ",
". . . . . . . . %.%.. . . . . . . . . . . . . . . . . . . . . . . . . . . . . . ",
". . . . . . . . . . . . . . . . . . . . . . . . . . . . . . . . . . . . . . . . ",
". . . . . . . . . . . . . . . . . . . . . . . . . . . . . . . . . . . . . . . . "};
