/* XPM */
static char * hsv_xpm[] = {
"40 44 5 1",
" 	c None",
".	c #FF0000",
"+	c #00FF00",
"@	c #0000FF",
"#	c #000000",
".............++++++++++++++@@@@@@@@@@@@@",
".............++++++++++++++@@@@@@@@@@@@@",
".............++++++++++++++@@@@@@@@@@@@@",
".............++++++++++++++@@@@@@@@@@@@@",
".............++++++++++++++@@@@@@@@@@@@@",
".............++++++++++++++@@@@@@@@@@@@@",
".............++++++++++++++@@@@@@@@@@@@@",
".............++++++++++++++@@@@@@@@@@@@@",
".............++++++++++++++@@@@@@@@@@@@@",
".............++++++++++++++@@@@@@@@@@@@@",
".............++++++++++++++@@@@@@@@@@@@@",
".............++++++++++++++@@@@@@@@@@@@@",
".............++++++++++++++@@@@@@@@@@@@@",
".............++++++++++++++@@@@@@@@@@@@@",
".............++++++++++++++@@@@@@@@@@@@@",
".............++++++++++++++@@@@@@@@@@@@@",
".............++++++++++++++@@@@@@@@@@@@@",
".............++++++++++++++@@@@@@@@@@@@@",
".............++++++++++++++@@@@@@@@@@@@@",
".............++++++++++++++@@@@@@@@@@@@@",
".............++++++++++++++@@@@@@@@@@@@@",
".............++++++++++++++@@@@@@@@@@@@@",
"                                        ",
"                                        ",
"                                        ",
"                                        ",
"                                        ",
" ##### #####     #######   ####   ##### ",
" ##### #####    ##   ###   ####   ##### ",
"  ##     ##    ##     ##    ##      ##  ",
"  ##     ##    ##     ##    ##      #   ",
"  ##     ##    ##            #     ##   ",
"  ##     ##    ###           ##    ##   ",
"  #########     #######      ##    #    ",
"  ##     ##         ####      ##  ##    ",
"  ##     ##            ##     ##  ##    ",
"  ##     ##    #       ##      #  #     ",
"  ##     ##    ##      #       ####     ",
"  ##     ##    ###    ##       ###      ",
" ##### #####   ########         ##      ",
"                                        ",
"                                        ",
"                                        ",
"                                        "};
