/* XPM */
static char * jumpmodule_xpm[] = {
"40 40 141 2",
"  	c None",
". 	c #F0F0F0",
"+ 	c #FDFDFD",
"@ 	c #F6F6F6",
"# 	c #FBFBFB",
"$ 	c #FCFCFC",
"% 	c #FEFEFE",
"& 	c #F4F4F4",
"* 	c #EFEFEF",
"= 	c #CFCFCF",
"- 	c #C8C8C8",
"; 	c #999999",
"> 	c #B2B2B2",
", 	c #A0A0A0",
"' 	c #D5D5D5",
") 	c #FFFFFF",
"! 	c #F9F9F9",
"~ 	c #FAFAFA",
"{ 	c #F7F7F7",
"] 	c #F8F8F8",
"^ 	c #DADADA",
"/ 	c #F1F1F1",
"( 	c #CDCDCD",
"_ 	c #989898",
": 	c #ABABAB",
"< 	c #A5A5A5",
"[ 	c #CACACA",
"} 	c #F3F3F3",
"| 	c #DDDDDD",
"1 	c #D9D9D9",
"2 	c #AFAFAF",
"3 	c #BBBBBB",
"4 	c #D2D2D2",
"5 	c #C6C6C6",
"6 	c #D4D4D4",
"7 	c #C1C1C1",
"8 	c #CCCCCC",
"9 	c #E0E0E0",
"0 	c #D3D3D3",
"a 	c #D8D8D8",
"b 	c #E9E9E9",
"c 	c #A9A9A9",
"d 	c #B5B5B5",
"e 	c #D0D0D0",
"f 	c #C3C3C3",
"g 	c #C5C5C5",
"h 	c #969696",
"i 	c #848484",
"j 	c #7F7F7F",
"k 	c #828282",
"l 	c #959595",
"m 	c #A7A7A7",
"n 	c #A8A8A8",
"o 	c #A3A3A3",
"p 	c #808080",
"q 	c #8B8B8B",
"r 	c #8F8F8F",
"s 	c #676767",
"t 	c #535353",
"u 	c #B4B4B4",
"v 	c #B6B6B6",
"w 	c #B0B0B0",
"x 	c #888888",
"y 	c #707070",
"z 	c #F2F2F2",
"A 	c #646464",
"B 	c #EAEAEA",
"C 	c #F5F5F5",
"D 	c #6C6C6C",
"E 	c #5E5E5E",
"F 	c #DEDEDE",
"G 	c #ECECEC",
"H 	c #D7D7D7",
"I 	c #D6D6D6",
"J 	c #666666",
"K 	c #9F9F9F",
"L 	c #7D7D7D",
"M 	c #ACACAC",
"N 	c #747474",
"O 	c #BABABA",
"P 	c #9A9A9A",
"Q 	c #939393",
"R 	c #8A8A8A",
"S 	c #727272",
"T 	c #929292",
"U 	c #737373",
"V 	c #C0C0C0",
"W 	c #C7C7C7",
"X 	c #E1E1E1",
"Y 	c #CBCBCB",
"Z 	c #DBDBDB",
"` 	c #EDEDED",
" .	c #DCDCDC",
"..	c #EEEEEE",
"+.	c #626262",
"@.	c #4B4B4B",
"#.	c #4E4E4E",
"$.	c #767676",
"%.	c #9E9E9E",
"&.	c #909090",
"*.	c #787878",
"=.	c #7E7E7E",
"-.	c #696969",
";.	c #EBEBEB",
">.	c #E3E3E3",
",.	c #E5E5E5",
"'.	c #DFDFDF",
").	c #E6E6E6",
"!.	c #C2C2C2",
"~.	c #D1D1D1",
"{.	c #C9C9C9",
"].	c #E2E2E2",
"^.	c #E4E4E4",
"/.	c #E8E8E8",
"(.	c #BCBCBC",
"_.	c #CECECE",
":.	c #E7E7E7",
"<.	c #8E8E8E",
"[.	c #5F5F5F",
"}.	c #3E3E3E",
"|.	c #525252",
"1.	c #464646",
"2.	c #474747",
"3.	c #494949",
"4.	c #6B6B6B",
"5.	c #A6A6A6",
"6.	c #AAAAAA",
"7.	c #A2A2A2",
"8.	c #B7B7B7",
"9.	c #BFBFBF",
"0.	c #C4C4C4",
"a.	c #B1B1B1",
"b.	c #B9B9B9",
"c.	c #BEBEBE",
"d.	c #B3B3B3",
"e.	c #AEAEAE",
"f.	c #979797",
"g.	c #A1A1A1",
"h.	c #A4A4A4",
"i.	c #BDBDBD",
"j.	c #ADADAD",
". + @ # $ % % & * $ % = - ; > , ' ) + % ! ~ $ ~ { ! + ) + # ~ ] @ $ ) % + % # ^ ",
"/ + ~ + % $ @ ] ! @ $ ' ( _ : < [ } # ) ] % ) + # $ % + + + + + $ # $ $ ! @ $ | ",
"* ~ ! # 1 2 3 4 4 5 = 6 7 8 9 0 a 1 4 b ] # $ ~ @ ! $ { { { { { { c d e ' f g : ",
"{ # $ ~ ( < c h i j k l m 2 n o p q r s ] % ) # } + $ % ) % # ~ ] t : < u v w x ",
"} % ~ { 1 ' # $ @ # ~ ] + % # ] * % } y ! { $ # z $ ] ! $ ) % ~ ] A # @ ! ~ ~ B ",
"* + % # 1 a $ ] } # % ! ! + + @ C ! C D % # ! $ { $ { % # % % + ) E + $ % ! $ F ",
"G % ! { H I + ] { ) $ % ) + # & $ ] ! J ! ] / # @ + ) + ! % + } ! s # ] % $ ! 9 ",
"; K L q M ( ] # ~ $ ) ) + % $ * ~ $ & N O u P ; q Q R S T M < o d U ] + $ % ! F ",
"V 8 W = 9 * + ] & { { { { { ! ! C & } F [ X I 0 W ' Y 3 ' a Y e Z Z ] ! & $ ` ' ",
"G # + % # ~ % ] { + + + + + ] @ $ $ # ] ] ] % C / ! $ $ C # # z ] ) % # + + $ I ",
"& + $ % % % ) ] C # # # # # $ ~ C ! % ) % % + % ~ $ % $ @ # + @ } + ) ) + { $  .",
"z ) ! # ~ ~ + ] ] ) ) ) ) ) # @ + $ $ ~ @ % B ] ..* z { % & b * * $ + @ { ! ` Z ",
"C ! ] # ~ ~ % ! C ] ~ # $ + # ] # + % ) $ ! k y +.@.T #.$.%.&.p #.t *.x =.-.#.-.",
"F } z C } / z ;.>.,.G } ! ~ ! ! # # ! ] @ C G ,.>.'.;.' ).* '.X  .' F I !.f ~.M ",
"3 ' = a H a '.^ 1 '.9 F I ( W {.~.1 '.].^./.G ,.H 9 e = 8 ( {.!.(._. .F e [ 6 > ",
"/ % # + + + ) ~ { ~ + % + # ~ ~ ! z B ].| 9 ^ | Z * & ! { ! % C @ ] # + $ ~ + '.",
"} } ~ $ % % % ] # % % % ) ) % { ! + ~ $ $ # # ] { # # + ) ~ # G ] + ! + ) % + ^ ",
"C + $ ~ ! ~ ! C ! % % + + ) + } ] + ! $ # # ! # } ~ ~ ~ $ # $ } ] % % % + ) % | ",
";.{ ~ + # % # ] @ # $ ! ! + # . ~ # ] $ ! % ! ~ ` # $ # ! $ ~ & ] # # # { + $ ].",
"a | 6 :.H >.I | 6 1 X a a ].Z ~.'.1  .,.6 ).I ^.[ '.].Z 1 ,.I H | ^  .F 4 ^.'.H ",
"F ].I /.Z /.^ F ' Z 9 ' H ].Z 0  .H  .].I /.I ].8 X ^. .1 ,.H ^ | ^  .F ~.^.F '.",
"z ) $ ) % % ) ! @ $ + ] # + $ ] . + ] @ ) + + & G { # + + ) % + ! ~ % $ $ $ # F ",
"z ) $ ) % % ) ! @ @ C # % { C } ).~ & B ~ ` G # @ ~ ;.] ~ ` :.* ~ { { ] ! ! # ^ ",
"z ) $ ) % % ) ! ..] + @ { ~ } 2 ; j k N j <.[.y }.|.1.-.k , K $.2.D 3.4.4 ) # ~.",
"z ) $ ) % % ) ! C 4 5.6.7.7 z } b * / ;.. C ;.B ( ,.;./ & C / G ].;.Z ,.~ ).5 h ",
").C / $ ] + ;.& 0 d /.@ G 4 (.:.& ..C / . { ! ] C { ! @ { { @ @ { ` b z ).w g Z ",
"& + $ + { ) & F 8.` ~ } ! & I !.:.# z # @ + % + ! $ ) % % % % % % ] C C 9.0 & X ",
"{ % / $ ! $ { c  .$ G G # & . (.' & $ { $ % ) % # + ) ) % + # ~ ~ $ } e _.@ / ^.",
"& ) % + ! C  .- _.2 0.{.O V e @ a.* ! ] $ $ ) $ ! ~ ) ) ) ) % # ~ @ :.b.'.0 9.6.",
"z # ~ $ # /.O f (.9 { ! ] ).c.d.,.: { & % $ + % $ $ $ ~ ) $ $ @ @ $ g 7.(.>.C ' ",
"} + ! } . d 8.).$ + + + + + # 9 5 e.0.{ C + % ! } ] + ~ $ } # ] ~ Z r W z { ] F ",
"H ..:.F f.2 ;.] * @ @ @ @ @ & & C d h 1 / { % ! { # ! z ~ $ } & ' Q 8 ..@ @ ..6 ",
". | F g.> } + ] C % % % % % $ & * % Z i ).# % z @ ) # + # ~ ).3 T I $ ] $ ] ! 9 ",
"9.a ,.e.@ ! . @ / $ $ $ $ $ ] b G * ! 5 h.b.` C z ~ $ / g 2 X f [ & ] $ ! # # ' ",
"# z 5 b ) $ % + $ % % % % % + # % + % @ 3 6 0.!.h., c.3 X } X i.,.+ % % % % % ].",
"H {.,.+ $ ~ ) ~ { ) ) ) ) ) ) { # $ { + ^.c./ ! z ] } ~ # ).0.` ] % ) ) ) ) ) X ",
"j.F { + ) % $ { { ~ ~ ~ ~ ~ $ z / ) ~ # ] 1 d :.{ ;.& ` g u . # $ # ~ ~ ~ ~ ~ '.",
"F ! { ~ % + @ C { ! ! ! ! ! # @ @ % # + . } ].f W ^ ' v 0.{ * ..@ ] ! ! ! ! ! ].",
"z $ % ) % ) % ! ! ) ) ) ) ) ) { ~ % # % # $ % { F ( 6 & $ + % } ] ) ) ) ) ) )  .",
"z ) + ) $ ~ % ~ ~ ) ) ) ) ) % } { % # % % $ ) # ~ % ) ) $ $ % } ] ) ) ) ) ) ) F "};
