/* XPM */
static char * effectvdotmodule_xpm[] = {
"40 40 142 2",
"  	g None",
". 	g #B7B7B7",
"+ 	g #949494",
"@ 	g #868686",
"# 	g #898989",
"$ 	g #A0A0A0",
"% 	g #BEBEBE",
"& 	g #9A9A9A",
"* 	g #8D8D8D",
"= 	g #8F8F8F",
"- 	g #A6A6A6",
"; 	g #C2C2C2",
"> 	g #9E9E9E",
", 	g #929292",
"' 	g #A9A9A9",
") 	g #969696",
"! 	g #9B9B9B",
"~ 	g #B5B5B5",
"{ 	g #848484",
"] 	g #6F6F6F",
"^ 	g #606060",
"/ 	g #656565",
"( 	g #797979",
"_ 	g #8B8B8B",
": 	g #747474",
"< 	g #6C6C6C",
"[ 	g #7E7E7E",
"} 	g #909090",
"| 	g #787878",
"1 	g #696969",
"2 	g #6E6E6E",
"3 	g #7F7F7F",
"4 	g #595959",
"5 	g #585858",
"6 	g #686868",
"7 	g #707070",
"8 	g #6A6A6A",
"9 	g #5C5C5C",
"0 	g #616161",
"a 	g #767676",
"b 	g #7B7B7B",
"c 	g #646464",
"d 	g #808080",
"e 	g #5B5B5B",
"f 	g #5F5F5F",
"g 	g #818181",
"h 	g #5E5E5E",
"i 	g #777777",
"j 	g #878787",
"k 	g #7C7C7C",
"l 	g #8C8C8C",
"m 	g #727272",
"n 	g #6B6B6B",
"o 	g #565656",
"p 	g #404040",
"q 	g #414141",
"r 	g #525252",
"s 	g #545454",
"t 	g #535353",
"u 	g #474747",
"v 	g #5D5D5D",
"w 	g #717171",
"x 	g #737373",
"y 	g #7D7D7D",
"z 	g #636363",
"A 	g #505050",
"B 	g #555555",
"C 	g #828282",
"D 	g #A5A5A5",
"E 	g #626262",
"F 	g #6D6D6D",
"G 	g #A2A2A2",
"H 	g #858585",
"I 	g #8A8A8A",
"J 	g #9D9D9D",
"K 	g #979797",
"L 	g #ABABAB",
"M 	g #C7C7C7",
"N 	g #A3A3A3",
"O 	g #ADADAD",
"P 	g #CBCBCB",
"Q 	g #A4A4A4",
"R 	g #C5C5C5",
"S 	g #A1A1A1",
"T 	g #939393",
"U 	g #757575",
"V 	g #676767",
"W 	g #7A7A7A",
"X 	g #494949",
"Y 	g #4C4C4C",
"Z 	g #3E3E3E",
"` 	g #5A5A5A",
" .	g #4B4B4B",
"..	g #3B3B3B",
"+.	g #484848",
"@.	g #888888",
"#.	g #4F4F4F",
"$.	g #515151",
"%.	g #383838",
"&.	g #3A3A3A",
"*.	g #444444",
"=.	g #323232",
"-.	g #4D4D4D",
";.	g #464646",
">.	g #303030",
",.	g #343434",
"'.	g #4A4A4A",
").	g #2D2D2D",
"!.	g #575757",
"~.	g #9C9C9C",
"{.	g #B0B0B0",
"].	g #989898",
"^.	g #9F9F9F",
"/.	g #838383",
"(.	g #A7A7A7",
"_.	g #4E4E4E",
":.	g #424242",
"<.	g #373737",
"[.	g #434343",
"}.	g #454545",
"|.	g #393939",
"1.	g #8E8E8E",
"2.	g #959595",
"3.	g #919191",
"4.	g #A8A8A8",
"5.	g #B1B1B1",
"6.	g #666666",
"7.	g #ACACAC",
"8.	g #AFAFAF",
"9.	g #B4B4B4",
"0.	g #D1D1D1",
"a.	g #3D3D3D",
"b.	g #353535",
"c.	g #363636",
"d.	g #3C3C3C",
"e.	g #AAAAAA",
"f.	g #999999",
"g.	g #CDCDCD",
"h.	g #3F3F3F",
"i.	g #333333",
"j.	g #2C2C2C",
"k.	g #2F2F2F",
". + @ # $ % & * = - ; > , + ' ; > + ) ' ; > , , - ; ! * = - % ) @ # $ ~ , { @ > ",
"@ ] ^ / ( _ : / < [ } | 1 2 3 * ] 4 5 6 7 8 9 0 : = a / 6 b _ 7 ^ c a d 8 e f 7 ",
"g 1 5 h i j ] h c k l m h h n m o p q r s t q u v w 2 9 ^ | @ n 5 e x y z A B < ",
"> C ( y l D # d C } - # b ] a d E r B F i ^ A t F k [ y d = G H ( ( I > [ w : H ",
"% J + K L M N K & O P Q y 2 * l : 9 ^ C } : 9 f 3 l : x } O R S T , - % & # # $ ",
"_ U V F 3 , W 8 ] g K 6 X u 5 9 Y Z q s `  ...Z A 4 +.Z t g , W 6 n b @.7 ^ E x ",
"W E A s 6 : f #.o F 3 $.%.&. .#.*.=.%.-.#.;.>.,.'.#.*.).Z m l m ^ E | H n 5 ` 7 ",
"= ] f f x d z !.f | * 6 B s 8 i ^ r o 2 W / s B 2 W V t 9 d - # d g = D @ ( ( I ",
"R S ) & O M - ~.> {.. W h / j ].k 8 7 * ^./.< 6 { T a v z @.P (.& & O R S T , - ",
"@ ] 0 V b j 7 ^ / ( F '.q  .f 1 5 '.#.0 7 ` '._.h 8 s q p B + [ 2 w g , W 6 n b ",
"y / o e x 3 c t 5 m B :.<.[.9 E s p }.9 6 s p }.9 / A |.&. .] i V 1 [ l m ^ E | ",
"> C i ( I G /.i b l W 0 ` z | # w z z | # w z z | # 2 f 9 F : { @ j , - # d g = ",
"~ + 1., $ R ^.2.K ' T ( < U 3.Q j : i + Q { : W ) 4.@.: ] { @.> S N 5.P (.& & O ",
"l | < w d ) k 7 a H 9 r +.#.E x c o ` 8 x c 5 h x W 0 -.-.5 4 b : | # ].[ 2 w g ",
"# m c 1 [ T ( 6.n { $._.Z ;.v 8 9 X _.z n 9  .r F 7 9 [.[.o Y i F 7 @ 2.( V 1 [ ",
"G H d /.= 7.= d g , W n z 6 k * : V 1 k = : V n d = ( 6.z | : j # _ K 8., j j , ",
". ~.I 3.5.R - & ~.{.} g ] 2 j T a z < * Q d 1 6 { T ( 6.] 3.# S N D 9.0.O $ $ 5.",
"@ m v E y I : 6 ] C 9 5 '.#.f a s [.;.e 6 B *.X 4 V t u _.E # { U | I > { : i # ",
"@.w v ^ W # w z 1 [ t '.a.*.5 V '.b...r 4  .c.d.r v _.a.}.h k k F 7 @ ].y F 7 @ ",
"e.3.j @.+ 7.3.# # , k f 4 0 x k E o e m d 6 4 9 w C F 0 6.y C # # _ K 8., # _ K ",
"0.e.J ~.O P L N D 9.# 2 E 7 * ].W 6.6 { {.H < 8 j ].k F d - Q Q N D 9.0.O N N 5.",
"> C x i j ! { U | I v t '._.f 6.t ;.'.4 ( e '.-.v < 5 Y t F 6 [ U | I > { U i j ",
"].y F 7 @ ].y F 7 @ s r p *.4 9 Y ..:.!.m !.:.*.!./ r [.+.0 f i F 7 @ ].y F 2 C ",
"8., # _ K 8., # _ K k n 0 z | H n f z | 2.i 6 c a # 2 z 6 k # I # _ K 8., # I + ",
"0.O N D 9.0.O N D 9.Q { m i + 4.g 8 : & ~ 3.( U 3.Q j : i + 0.O N D 9.0.O N N 5.",
"> { U | I > { U | I I f  .#.c 7 w 6.8 3 T b n < a 2 e  .` k > { U | I > { U | # ",
"].y F 7 @ ].y F 7 @ + V u }.9 a ( 6 < @ ].y F 2 d k s p $.{ ].y F 2 3 1.: c V b ",
"8., # _ K 8., # _ K 8., x z | - } # _ K 8., # _ K 8.a 0 x K 8., # H l > C i i H ",
"0.O J 2.- . f.T > 9.0.Q * H & 0.O N D 9.0.O N D 9.0.@ F @.9.0.O ^.& ' % & * * $ ",
"> [ < 7 g g V B 9 : d 6.$.4 7 > { U | I > { U | I > ` '.h I > C 2 F ( @.7 h 0 x ",
"2.| / n { j 9 :.*.e 6 B p Y | ].y F 7 @ ].y F 7 @ ].o &.+.1 ].( z E x g 1 t B F ",
"e.3.# _ K 8.y ^ e m # 2 v ] K 8., # _ K 8., # _ K 8.b ` $.6 8.= C [ I > C : : H ",
". j m b J M e.N D 9.. j V < ) g.7.N D 9.0.O N D 9.0.& 2 V 3.^.~.+ , - . + @ # $ ",
"g < o A c ( 1 e 6.3 l n +.Z e f./.U | I > { U | I > m +.a.o 9 5 }.'.^ g n h E x ",
"x 6._.Y ^ / r [.#.1 b ^ h.h.V T k F 7 @ ].y F 7 @ ].2 h.i.'. .[.=.%.-.1 o '.t 7 ",
"= ( 7 x { # 1 v z | * ] 0 x K 7.3.# _ K 8., # _ K 8.@.c B 2 : ^ r o 2 k E e < I ",
"Q { m U 3.Q { < n @.Q { / 8 ) M e.N D 9.0.O N D 9.0.^.U z 3 # w ` ^ C } a 0 / { ",
"2 `  .-.v V 4 '._.^ n #.&.Z 5 = i c 6.b _ x E 6.b 2.m Y p A 4 +.&.Z $.9  .d.q s ",
"z r p [.B 9 A a.q B !.q j.=.+.i E -.A 6 a h  .A 6 b z Z b.u Y q j.=.+.#.:.k.c. .",
"H F 0 E a H n ` 4 2 i v Y A 8 # w / 6 y , : V 8 y * : e t 6 : h #.r 8 i h A t 8 "};
