/* XPM */
static char * flashmodule_xpm[] = {
"40 40 608 2",
"  	c None",
". 	c #000000",
"+ 	c #020403",
"@ 	c #08080C",
"# 	c #050304",
"$ 	c #030208",
"% 	c #272A0D",
"& 	c #8D8A19",
"* 	c #767A1F",
"= 	c #12130F",
"- 	c #030506",
"; 	c #03020F",
"> 	c #08020E",
", 	c #050705",
"' 	c #01030E",
") 	c #55530F",
"! 	c #CCC12C",
"~ 	c #B59E2A",
"{ 	c #BAB026",
"] 	c #716F12",
"^ 	c #070213",
"/ 	c #010203",
"( 	c #020406",
"_ 	c #080609",
": 	c #706A18",
"< 	c #D6CB31",
"[ 	c #C8A846",
"} 	c #967B2C",
"| 	c #8F791C",
"1 	c #CDCA2C",
"2 	c #1F1C09",
"3 	c #020208",
"4 	c #010303",
"5 	c #030401",
"6 	c #06040C",
"7 	c #060408",
"8 	c #060409",
"9 	c #13120D",
"0 	c #7F7A22",
"a 	c #E5D337",
"b 	c #C4A646",
"c 	c #9A8135",
"d 	c #91782F",
"e 	c #866F21",
"f 	c #AD9725",
"g 	c #8F8E18",
"h 	c #080A03",
"i 	c #010200",
"j 	c #03030C",
"k 	c #040509",
"l 	c #050902",
"m 	c #05050E",
"n 	c #1C1E09",
"o 	c #A79E2C",
"p 	c #DBCE34",
"q 	c #BEA145",
"r 	c #95783C",
"s 	c #937E37",
"t 	c #917934",
"u 	c #8A7821",
"v 	c #846A16",
"w 	c #CEC931",
"x 	c #333504",
"y 	c #020204",
"z 	c #030402",
"A 	c #030505",
"B 	c #373213",
"C 	c #C2BE2B",
"D 	c #D4C03F",
"E 	c #B09657",
"F 	c #92812F",
"G 	c #94832D",
"H 	c #917C33",
"I 	c #968136",
"J 	c #897932",
"K 	c #8C712C",
"L 	c #A8941E",
"M 	c #A1A223",
"N 	c #0A0C04",
"O 	c #000300",
"P 	c #000102",
"Q 	c #030103",
"R 	c #020100",
"S 	c #010204",
"T 	c #01030A",
"U 	c #040405",
"V 	c #5A571A",
"W 	c #D2CD31",
"X 	c #D7BE46",
"Y 	c #A48E43",
"Z 	c #978638",
"` 	c #958541",
" .	c #908034",
"..	c #96823E",
"+.	c #917D2D",
"@.	c #8F7D36",
"#.	c #897135",
"$.	c #89731C",
"%.	c #B8B026",
"&.	c #585613",
"*.	c #030107",
"=.	c #040104",
"-.	c #030001",
";.	c #010102",
">.	c #010201",
",.	c #0D1003",
"'.	c #767814",
").	c #D9CF32",
"!.	c #C7B151",
"~.	c #A08F47",
"{.	c #92813A",
"].	c #95843C",
"^.	c #928139",
"/.	c #8E7E36",
"(.	c #8A7D3B",
"_.	c #8A7A36",
":.	c #897432",
"<.	c #927D34",
"[.	c #C9C22D",
"}.	c #7A7419",
"|.	c #010001",
"1.	c #030300",
"2.	c #020108",
"3.	c #040110",
"4.	c #211E05",
"5.	c #999422",
"6.	c #DFD736",
"7.	c #C0A959",
"8.	c #9D8A45",
"9.	c #92883D",
"0.	c #958840",
"a.	c #91833D",
"b.	c #958741",
"c.	c #8F813B",
"d.	c #90823D",
"e.	c #7F7738",
"f.	c #84752B",
"g.	c #B0A533",
"h.	c #BFBE30",
"i.	c #514F13",
"j.	c #040804",
"k.	c #020103",
"l.	c #020506",
"m.	c #020505",
"n.	c #2A2A0A",
"o.	c #C3BD21",
"p.	c #E7D247",
"q.	c #B9A256",
"r.	c #9B943E",
"s.	c #928A3A",
"t.	c #988846",
"u.	c #93843C",
"v.	c #9B8E46",
"w.	c #928547",
"x.	c #8A7E3E",
"y.	c #897D37",
"z.	c #A79733",
"A.	c #C7C33A",
"B.	c #7C7D20",
"C.	c #1C1811",
"D.	c #050405",
"E.	c #020703",
"F.	c #08070B",
"G.	c #484216",
"H.	c #CDCA30",
"I.	c #D1BE45",
"J.	c #B2A254",
"K.	c #968B41",
"L.	c #9B924A",
"M.	c #988C45",
"N.	c #9C8B42",
"O.	c #918843",
"P.	c #908547",
"Q.	c #8B7F3B",
"R.	c #9A913C",
"S.	c #C5C43F",
"T.	c #9C9A27",
"U.	c #2B2616",
"V.	c #05050A",
"W.	c #020501",
"X.	c #050406",
"Y.	c #030304",
"Z.	c #747217",
"`.	c #D9D031",
" +	c #D1BD49",
".+	c #A99D52",
"++	c #95904C",
"@+	c #978F4A",
"#+	c #9A8E48",
"$+	c #988B46",
"%+	c #988C4A",
"&+	c #8C8748",
"*+	c #938A40",
"=+	c #BEB93C",
"-+	c #B0B132",
";+	c #3E3C0D",
">+	c #06060B",
",+	c #010206",
"'+	c #030207",
")+	c #080003",
"!+	c #D5D827",
"~+	c #A39521",
"{+	c #A09143",
"]+	c #8F8A4E",
"^+	c #958F49",
"/+	c #958B4A",
"(+	c #989045",
"_+	c #928B4D",
":+	c #898744",
"<+	c #B1AB43",
"[+	c #C2BF34",
"}+	c #756F23",
"|+	c #130F0A",
"1+	c #06080F",
"2+	c #030302",
"3+	c #030205",
"4+	c #05020A",
"5+	c #020205",
"6+	c #6E6E14",
"7+	c #B9AB2E",
"8+	c #8B7720",
"9+	c #968E51",
"0+	c #999342",
"a+	c #979140",
"b+	c #989348",
"c+	c #B4AF51",
"d+	c #D3D045",
"e+	c #888823",
"f+	c #23200C",
"g+	c #030404",
"h+	c #020508",
"i+	c #030407",
"j+	c #00010B",
"k+	c #1A1802",
"l+	c #B2B01D",
"m+	c #938320",
"n+	c #9C8F3B",
"o+	c #9E9048",
"p+	c #9E943F",
"q+	c #988854",
"r+	c #A4962D",
"s+	c #D8CD27",
"t+	c #23220C",
"u+	c #030310",
"v+	c #010704",
"w+	c #020404",
"x+	c #000001",
"y+	c #010101",
"z+	c #020101",
"A+	c #000403",
"B+	c #060306",
"C+	c #716919",
"D+	c #E6E237",
"E+	c #B3A245",
"F+	c #9E9443",
"G+	c #989047",
"H+	c #9C9343",
"I+	c #9A8839",
"J+	c #B8A428",
"K+	c #8C920F",
"L+	c #0C0813",
"M+	c #010401",
"N+	c #03040B",
"O+	c #020201",
"P+	c #000002",
"Q+	c #050603",
"R+	c #040209",
"S+	c #060608",
"T+	c #070707",
"U+	c #090614",
"V+	c #716E14",
"W+	c #E4DD33",
"X+	c #DAC848",
"Y+	c #A19341",
"Z+	c #A1954D",
"`+	c #A09848",
" @	c #9B9649",
".@	c #9A9346",
"+@	c #958B2C",
"@@	c #C2BD2C",
"#@	c #544D19",
"$@	c #020300",
"%@	c #04060B",
"&@	c #060509",
"*@	c #010501",
"=@	c #040314",
"-@	c #23220D",
";@	c #9C9C1D",
">@	c #E9E237",
",@	c #C5B546",
"'@	c #A9984B",
")@	c #A19840",
"!@	c #9E934D",
"~@	c #9A9449",
"{@	c #979752",
"]@	c #919154",
"^@	c #8B8A43",
"/@	c #C6BD30",
"(@	c #83801B",
"_@	c #06050A",
":@	c #01020B",
"<@	c #020304",
"[@	c #030406",
"}@	c #040412",
"|@	c #353308",
"1@	c #BDB72C",
"2@	c #DED137",
"3@	c #BCAE4D",
"4@	c #A19947",
"5@	c #979141",
"6@	c #A99F51",
"7@	c #9F984C",
"8@	c #97934F",
"9@	c #918D51",
"0@	c #A3A14B",
"a@	c #CDCD3E",
"b@	c #8F932A",
"c@	c #222116",
"d@	c #060B09",
"e@	c #030508",
"f@	c #040205",
"g@	c #020206",
"h@	c #040501",
"i@	c #010304",
"j@	c #080B0D",
"k@	c #565313",
"l@	c #D6D42D",
"m@	c #D9CB43",
"n@	c #B2A74A",
"o@	c #9D9448",
"p@	c #A3964B",
"q@	c #A49A46",
"r@	c #9C984E",
"s@	c #959856",
"t@	c #949348",
"u@	c #C5C442",
"v@	c #A5A831",
"w@	c #29280C",
"x@	c #010100",
"y@	c #020002",
"z@	c #060103",
"A@	c #020209",
"B@	c #04020B",
"C@	c #120F02",
"D@	c #878516",
"E@	c #DED429",
"F@	c #D0BB59",
"G@	c #A69E52",
"H@	c #A29B58",
"I@	c #A19842",
"J@	c #9D9547",
"K@	c #9E9759",
"L@	c #929341",
"M@	c #B8B445",
"N@	c #CFCE37",
"O@	c #635D15",
"P@	c #0E0B05",
"Q@	c #01040A",
"R@	c #020102",
"S@	c #030202",
"T@	c #020606",
"U@	c #03020B",
"V@	c #2F2A07",
"W@	c #ACA723",
"X@	c #DCD439",
"Y@	c #C5BB5B",
"Z@	c #A29B59",
"`@	c #9D9855",
" #	c #A09E47",
".#	c #989654",
"+#	c #91924B",
"@#	c #A09F44",
"##	c #CDCC44",
"$#	c #787E1E",
"%#	c #131109",
"&#	c #09060C",
"*#	c #030301",
"=#	c #040309",
"-#	c #010004",
";#	c #050704",
">#	c #020609",
",#	c #424416",
"'#	c #C4C32D",
")#	c #DDCE4B",
"!#	c #B8AB5A",
"~#	c #A29D5C",
"{#	c #9B9C5D",
"]#	c #989853",
"^#	c #8F9450",
"/#	c #9A9B4B",
"(#	c #C1C043",
"_#	c #A1A31F",
":#	c #343611",
"<#	c #030308",
"[#	c #000100",
"}#	c #010000",
"|#	c #000103",
"1#	c #0A0B04",
"2#	c #756C13",
"3#	c #DED135",
"4#	c #D3C550",
"5#	c #AFA756",
"6#	c #9C975F",
"7#	c #989A56",
"8#	c #949957",
"9#	c #969756",
"0#	c #BAB93F",
"a#	c #BFC336",
"b#	c #474E0F",
"c#	c #07040F",
"d#	c #020104",
"e#	c #060501",
"f#	c #8D8C2F",
"g#	c #DAD224",
"h#	c #D1BB53",
"i#	c #A69D4C",
"j#	c #9B9C5F",
"k#	c #969951",
"l#	c #A3A569",
"m#	c #B8BB5D",
"n#	c #C6C840",
"o#	c #82821C",
"p#	c #181409",
"q#	c #040507",
"r#	c #02040A",
"s#	c #0D0B02",
"t#	c #A0A220",
"u#	c #9D901A",
"v#	c #9E8A3A",
"w#	c #9C9458",
"x#	c #9A9B56",
"y#	c #9CA154",
"z#	c #8C8F4E",
"A#	c #BAB42C",
"B#	c #AAA71A",
"C#	c #0A070E",
"D#	c #020400",
"E#	c #030106",
"F#	c #000104",
"G#	c #413F13",
"H#	c #C0B633",
"I#	c #8C771E",
"J#	c #9B904B",
"K#	c #9D9C53",
"L#	c #999A5A",
"M#	c #949556",
"N#	c #948D20",
"O#	c #C4C12C",
"P#	c #393706",
"Q#	c #01000D",
"R#	c #010300",
"S#	c #050502",
"T#	c #0C0B07",
"U#	c #A8A51E",
"V#	c #B8AA2F",
"W#	c #A9A04A",
"X#	c #9B9B5B",
"Y#	c #999651",
"Z#	c #9A945D",
"`#	c #8E9239",
" $	c #A59E22",
".$	c #A29E1A",
"+$	c #06000E",
"@$	c #030405",
"#$	c #020202",
"$$	c #020004",
"%$	c #010109",
"&$	c #292B09",
"*$	c #C8C92B",
"=$	c #E3D94A",
"-$	c #A69A4B",
";$	c #9F9C62",
">$	c #989846",
",$	c #979754",
"'$	c #8D904E",
")$	c #B7AE38",
"!$	c #D8DB34",
"~$	c #060504",
"{$	c #03040E",
"]$	c #03030B",
"^$	c #030306",
"/$	c #31300C",
"($	c #C2BF2B",
"_$	c #EBE63A",
":$	c #AE9E51",
"<$	c #9F994B",
"[$	c #959753",
"}$	c #9A9A5E",
"|$	c #A19B54",
"1$	c #CCCE43",
"2$	c #A4A52F",
"3$	c #2F3007",
"4$	c #050411",
"5$	c #030211",
"6$	c #050601",
"7$	c #020203",
"8$	c #010002",
"9$	c #06030C",
"0$	c #060903",
"a$	c #040408",
"b$	c #2C2811",
"c$	c #CACB28",
"d$	c #E6D549",
"e$	c #AA9956",
"f$	c #969246",
"g$	c #949057",
"h$	c #95944B",
"i$	c #B7B74B",
"j$	c #B6B82D",
"k$	c #48450D",
"l$	c #0C0C0B",
"m$	c #020402",
"n$	c #060704",
"o$	c #020301",
"p$	c #040407",
"q$	c #010103",
"r$	c #090A06",
"s$	c #030212",
"t$	c #2E290D",
"u$	c #CDC925",
"v$	c #E2D545",
"w$	c #ADA44F",
"x$	c #919048",
"y$	c #8A8943",
"z$	c #ABA448",
"A$	c #D0CD34",
"B$	c #79741E",
"C$	c #16130B",
"D$	c #03040A",
"E$	c #030305",
"F$	c #030307",
"G$	c #020401",
"H$	c #000003",
"I$	c #050308",
"J$	c #343509",
"K$	c #CFCC32",
"L$	c #E6D545",
"M$	c #A29844",
"N$	c #898044",
"O$	c #9D933F",
"P$	c #CBC54C",
"Q$	c #ADAB36",
"R$	c #363311",
"S$	c #050702",
"T$	c #050507",
"U$	c #000004",
"V$	c #040403",
"W$	c #030206",
"X$	c #2F2E0E",
"Y$	c #D6D32A",
"Z$	c #D9CE3B",
"`$	c #9D8D54",
" %	c #8E883C",
".%	c #B1AF3A",
"+%	c #C3C231",
"@%	c #4B4412",
"#%	c #0E0C0D",
"$%	c #040401",
"%%	c #010105",
"&%	c #010104",
"*%	c #040402",
"=%	c #3B3D11",
"-%	c #D5D42B",
";%	c #D8C943",
">%	c #958D40",
",%	c #9F9E3F",
"'%	c #C5BC39",
")%	c #837D23",
"!%	c #111109",
"~%	c #010307",
"{%	c #050104",
"]%	c #030002",
"^%	c #04040D",
"/%	c #46410B",
"(%	c #D0CF2A",
"_%	c #CFC33C",
":%	c #A49031",
"<%	c #CDC238",
"[%	c #9E9C23",
"}%	c #262105",
"|%	c #060309",
"1%	c #080904",
"2%	c #3A3F06",
"3%	c #DED931",
"4%	c #D5BD2A",
"5%	c #BEAF2D",
"6%	c #C5C13F",
"7%	c #535311",
"8%	c #070A04",
"9%	c #020309",
"0%	c #48440B",
"a%	c #DFD836",
"b%	c #D9CC34",
"c%	c #D2C848",
"d%	c #717121",
"e%	c #18170B",
"f%	c #020504",
"g%	c #040406",
"h%	c #45440E",
"i%	c #DDD631",
"j%	c #E2D74C",
"k%	c #A6AD25",
"l%	c #2D2909",
"m%	c #4B4A1B",
"n%	c #ADAC1E",
"o%	c #666415",
"p%	c #0B0E06",
"q%	c #03050A",
". . . . . . . . . . . . . . . . . . . . . . . . . . . . . + @ # $ % & * = - ; . ",
". . . . . . . . . . . . . . . . . . . . . . . . . . . . . > , ' ) ! ~ { ] ^ / . ",
". . . . . . . . . . . . . . . . . . . . . . . . . . . . . ( _ : < [ } | 1 2 3 . ",
". . . . . . . . . . . . . . . . . . . . . . . . 4 5 6 7 8 9 0 a b c d e f g h i ",
". . . . . . . . . . . . . . . . . . . . . . . . j k l m n o p q r s t u v w x y ",
". . . . . . . . . . . . . . . . . . . . . . . . z ( A B C D E F G H I J K L M N ",
". . . . . . . . . . . . . . . . . . . O P Q R S T U V W X Y Z `  ...+.@.#.$.%.&.",
". . . . . . . . . . . . . . . . . . . *.=.-.;.>.,.'.).!.~.{.].^.]./.(._.:.<.[.}.",
". . . . . . . . . . . . . . . . . . . |.1.2.3.4.5.6.7.8.9.0.a.b.c.d.e.f.g.h.i.j.",
". . . . . . . . . . . . . . . . . . . k.l.m.n.o.p.q.r.s.t.u.v.w.x.y.z.A.B.C.D.;.",
". . . . . . . . . . . . . . . . . . . E.F.G.H.I.J.K.L.M.N.O.P.Q.R.S.T.U.V.W.X.. ",
". . . . . . . . . . . . . . . . . . . Y.Z.`. +.+++@+#+$+%+&+*+=+-+;+>+,+A '+2.. ",
". . . . . . . . . . . . . . . . . . . )+!+~+{+]+^+/+(+_+:+<+[+}+|+1+2+3+4+'+i . ",
". . . . . . . . . . . . . . . . . . . 5+6+7+8+9+0+a+b+c+d+e+f+g+h+i+. . . . . . ",
". . . . . . . . . . . . . . . . . . . j+k+l+m+n+o+p+q+r+s+t+u+v+w+;.. . . . . . ",
". . . . . . . . . . . . . . x+y+. z+y+A+B+C+D+E+F+G+H+I+J+K+L+M+N+O+. . . . . . ",
". . . . . . . . . . . . . . P+Q+R+S+T+U+V+W+X+Y+Z+`+ @.@+@@@#@$@%@&@. . . . . . ",
". . . . . . . . . . . . . . z+'+*@=@-@;@>@,@'@)@!@~@{@]@^@/@(@_@:@<@. . . . . . ",
". . . . . . . . . . . . . . |.[@}@|@1@2@3@4@5@6@7@8@9@0@a@b@c@d@e@f@. . . . . . ",
". . . . . . . . . y+[@g@$@h@i@j@k@l@m@n@o@p@q@r@s@t@u@v@w@x@. . . . . . . . . . ",
". . . . . . . . . y@z@$@A@B@C@D@E@F@G@H@I@J@K@L@M@N@O@P@Q@x+. . . . . . . . . . ",
". . . . . . . . . R@S@T@U@V@W@X@Y@Z@`@ #.#+#@###$#%#&#*#=#x+. . . . . . . . . . ",
". . . . . . . . . -#;#>#,#'#)#!#~#{#]#^#/#(#_#:#<#[#P+x@}#. . . . . . . . . . . ",
". . . . . . . . . |#1#2#3#4#5#6#7#8#9#0#a#b#%@c#d#. . . . . . . . . . . . . . . ",
". . . . . . . . . e#f#g#h#i#j#k#l#m#n#o#p#q#r#;#|.. . . . . . . . . . . . . . . ",
". . . . . . . . . s#t#u#v#w#x#y#z#A#B#C#D#E#k.F#[#. . . . . . . . . . . . . . . ",
". . . . . . . . . x@G#H#I#J#K#L#M#N#O#P#Q#/ R#S#x+. . . . . . . . . . . . . . . ",
". . . . . . . . . S T#U#V#W#X#Y#Z#`# $.$+$T@T e#|.. . . . . . . . . . . . . . . ",
". . . . P+@$#$$$R %$&$*$=$-$;$>$,$'$)$!$~$r#{$#$|.. . . . . . . . . . . . . . . ",
". . . . . *.]$^$q#/$($_$:$<$[$}$|$1$2$3$4$5$6$7$;.. . . . . . . . . . . . . . . ",
". . . . 8$9$0$a$b$c$d$e$f$g$h$i$j$k$l$m$S n$o$p$x+. . . . . . . . . . . . . . . ",
". x+8$q$k.r$s$t$u$v$w$x$y$z$A$B$C$D$U E$P+q$F$G$x@. . . . . . . . . . . . . . . ",
"q$y P+H$d#I$J$K$L$M$N$O$P$Q$R$S$T$U$V$. . . . . . . . . . . . . . . . . . . . . ",
"W$P+2+[##$X$Y$Z$`$ %.%+%@%#%>#$ >.$%q$q$. . . . . . . . . . . . . . . . . . . . ",
"%%&%>.*%=%-%;%>%,%'%)%!%~%3+{%o$q$&%2+>.. . . . . . . . . . . . . . . . . . . . ",
"]%k ^%/%(%_%:%<%[%}%. . . . . . . . . . . . . . . . . . . . . . . . . . . . . . ",
"|%1%2%3%4%5%6%7%8%9%. . . . . . . . . . . . . . . . . . . . . . . . . . . . . . ",
"r#0%a%b%c%d%e%4 f%g%. . . . . . . . . . . . . . . . . . . . . . . . . . . . . . ",
"h%i%j%k%l%. . . . . . . . . . . . . . . . . . . . . . . . . . . . . . . . . . . ",
"m%n%o%p%q%. . . . . . . . . . . . . . . . . . . . . . . . . . . . . . . . . . . "};
