/* XPM */
static char * number2colormodule_xpm[] = {
"40 40 997 2",
"  	c None",
". 	c #000000",
"+ 	c #010000",
"@ 	c #010301",
"# 	c #020301",
"$ 	c #060202",
"% 	c #060401",
"& 	c #070004",
"* 	c #070503",
"= 	c #040301",
"- 	c #060201",
"; 	c #040201",
"> 	c #040401",
", 	c #030306",
"' 	c #060101",
") 	c #040100",
"! 	c #010101",
"~ 	c #000100",
"{ 	c #020101",
"] 	c #030205",
"^ 	c #020403",
"/ 	c #020204",
"( 	c #0A0303",
"_ 	c #1F0503",
": 	c #360402",
"< 	c #370502",
"[ 	c #2A0301",
"} 	c #130300",
"| 	c #040202",
"1 	c #020307",
"2 	c #020203",
"3 	c #030000",
"4 	c #020302",
"5 	c #2A0302",
"6 	c #740505",
"7 	c #C0090A",
"8 	c #E40607",
"9 	c #F10105",
"0 	c #F50207",
"a 	c #F00205",
"b 	c #D7060F",
"c 	c #980709",
"d 	c #430604",
"e 	c #090102",
"f 	c #020003",
"g 	c #000200",
"h 	c #010104",
"i 	c #010302",
"j 	c #0B0502",
"k 	c #650507",
"l 	c #D10907",
"m 	c #F90401",
"n 	c #FD0100",
"o 	c #F80302",
"p 	c #FA0302",
"q 	c #FC0203",
"r 	c #FB0303",
"s 	c #F70401",
"t 	c #FD0204",
"u 	c #EB0405",
"v 	c #9D0807",
"w 	c #2A0102",
"x 	c #040001",
"y 	c #020000",
"z 	c #000102",
"A 	c #030008",
"B 	c #0F0101",
"C 	c #8A060B",
"D 	c #EF0509",
"E 	c #FC0202",
"F 	c #FC0205",
"G 	c #F50603",
"H 	c #F80201",
"I 	c #FA0202",
"J 	c #FB0103",
"K 	c #FB0201",
"L 	c #F80202",
"M 	c #FB0207",
"N 	c #F80207",
"O 	c #C70608",
"P 	c #300201",
"Q 	c #020105",
"R 	c #010201",
"S 	c #020001",
"T 	c #030102",
"U 	c #0B0305",
"V 	c #810906",
"W 	c #F50307",
"X 	c #F90601",
"Y 	c #F80503",
"Z 	c #F40501",
"` 	c #EA0207",
" .	c #AF0806",
"..	c #860608",
"+.	c #7F0404",
"@.	c #8E080B",
"#.	c #BC0508",
"$.	c #EA0804",
"%.	c #FD0201",
"&.	c #FA0402",
"*.	c #F60301",
"=.	c #CF0309",
"-.	c #280402",
";.	c #030101",
">.	c #060304",
",.	c #4E0303",
"'.	c #EA070A",
").	c #F90402",
"!.	c #F90406",
"~.	c #F90404",
"{.	c #CA090E",
"].	c #470306",
"^.	c #0C0302",
"/.	c #010103",
"(.	c #010206",
"_.	c #050303",
":.	c #170305",
"<.	c #600403",
"[.	c #DF040A",
"}.	c #F80401",
"|.	c #F50501",
"1.	c #AC0408",
"2.	c #0F0303",
"3.	c #030402",
"4.	c #010200",
"5.	c #040002",
"6.	c #150104",
"7.	c #BE0709",
"8.	c #FC0303",
"9.	c #FA0101",
"0.	c #E10605",
"a.	c #3E0202",
"b.	c #080205",
"c.	c #030204",
"d.	c #070105",
"e.	c #0A0205",
"f.	c #040107",
"g.	c #020406",
"h.	c #050300",
"i.	c #630302",
"j.	c #F50403",
"k.	c #FA0200",
"l.	c #F40205",
"m.	c #4F0707",
"n.	c #080101",
"o.	c #010102",
"p.	c #470706",
"q.	c #F40405",
"r.	c #F80402",
"s.	c #FA0102",
"t.	c #FC0504",
"u.	c #8D0507",
"v.	c #030503",
"w.	c #040302",
"x.	c #1B0403",
"y.	c #860806",
"z.	c #AC0705",
"A.	c #5D0807",
"B.	c #0C0402",
"C.	c #0A0203",
"D.	c #170702",
"E.	c #DA0407",
"F.	c #FB0200",
"G.	c #A80809",
"H.	c #0C0202",
"I.	c #000203",
"J.	c #960308",
"K.	c #FB0402",
"L.	c #FA0206",
"M.	c #FB0208",
"N.	c #F70402",
"O.	c #4B0404",
"P.	c #030301",
"Q.	c #090206",
"R.	c #8A0607",
"S.	c #FA0503",
"T.	c #F60501",
"U.	c #F00808",
"V.	c #350505",
"W.	c #060302",
"X.	c #0D0102",
"Y.	c #BB0602",
"Z.	c #FB0100",
"`.	c #FE0000",
" +	c #E70405",
".+	c #280503",
"++	c #0C0301",
"@+	c #CC0404",
"#+	c #FA0205",
"$+	c #FE0200",
"%+	c #FD0105",
"&+	c #F80303",
"*+	c #3A0103",
"=+	c #070103",
"-+	c #090401",
";+	c #AB090B",
">+	c #EE050B",
",+	c #EB0608",
"'+	c #C00405",
")+	c #200403",
"!+	c #060305",
"~+	c #0F0403",
"{+	c #C00601",
"]+	c #F90201",
"^+	c #F60406",
"/+	c #4D0505",
"(+	c #030203",
"_+	c #180102",
":+	c #DC0508",
"<+	c #FE0201",
"[+	c #390203",
"}+	c #040101",
"|+	c #040306",
"1+	c #330406",
"2+	c #3F0303",
"3+	c #360303",
"4+	c #190403",
"5+	c #060404",
"6+	c #070203",
"7+	c #490303",
"8+	c #EE0505",
"9+	c #FA0204",
"0+	c #6B0608",
"a+	c #030002",
"b+	c #1B0202",
"c+	c #E00808",
"d+	c #FC0405",
"e+	c #FE0202",
"f+	c #390204",
"g+	c #010202",
"h+	c #030304",
"i+	c #020408",
"j+	c #020402",
"k+	c #040103",
"l+	c #050305",
"m+	c #040104",
"n+	c #0B0403",
"o+	c #B40B14",
"p+	c #FA0100",
"q+	c #FA0001",
"r+	c #7C0307",
"s+	c #030404",
"t+	c #030001",
"u+	c #010002",
"v+	c #010003",
"w+	c #1E0204",
"x+	c #D60708",
"y+	c #FC0402",
"z+	c #FC0107",
"A+	c #F40406",
"B+	c #3D0104",
"C+	c #040300",
"D+	c #2D0307",
"E+	c #360208",
"F+	c #2F0404",
"G+	c #0C0407",
"H+	c #080105",
"I+	c #580403",
"J+	c #F50408",
"K+	c #FC0005",
"L+	c #FE0006",
"M+	c #FD0307",
"N+	c #FB0404",
"O+	c #6D0605",
"P+	c #040206",
"Q+	c #000002",
"R+	c #0F0402",
"S+	c #CC0509",
"T+	c #FB0204",
"U+	c #FA0606",
"V+	c #FC0206",
"W+	c #F60505",
"X+	c #390306",
"Y+	c #000303",
"Z+	c #0F0102",
"`+	c #B5060E",
" @	c #F40602",
".@	c #EE0406",
"+@	c #97080B",
"@@	c #0E0202",
"#@	c #010305",
"$@	c #160203",
"%@	c #CD0406",
"&@	c #F80604",
"*@	c #560302",
"=@	c #000300",
"-@	c #060708",
";@	c #981207",
">@	c #F42004",
",@	c #F72805",
"'@	c #F41F05",
")@	c #E51402",
"!@	c #3C0207",
"~@	c #090506",
"{@	c #BC0403",
"]@	c #F90408",
"^@	c #F50303",
"/@	c #ED0702",
"(@	c #350103",
"_@	c #0A0106",
":@	c #B80710",
"<@	c #F9011B",
"[@	c #FB0027",
"}@	c #F50423",
"|@	c #E1051F",
"1@	c #2E030D",
"2@	c #010106",
"3@	c #030305",
"4@	c #050B02",
"5@	c #074A07",
"6@	c #0BA314",
"7@	c #5CD60D",
"8@	c #F7EB0A",
"9@	c #FAEE04",
"0@	c #FBEB0C",
"a@	c #F8D21D",
"b@	c #342707",
"c@	c #050204",
"d@	c #0A040C",
"e@	c #BA0807",
"f@	c #F50703",
"g@	c #FC0302",
"h@	c #F50308",
"i@	c #410308",
"j@	c #020405",
"k@	c #080206",
"l@	c #B20A8B",
"m@	c #FB02DD",
"n@	c #FB02EB",
"o@	c #FB04EB",
"p@	c #B608DB",
"q@	c #0D04B3",
"r@	c #030278",
"s@	c #010320",
"t@	c #00010A",
"u@	c #020103",
"v@	c #000101",
"w@	c #060009",
"x@	c #020706",
"y@	c #0B360D",
"z@	c #0EB415",
"A@	c #07F809",
"B@	c #05FB03",
"C@	c #15FB03",
"D@	c #C7FB09",
"E@	c #F9FD07",
"F@	c #FBFC04",
"G@	c #FBFC11",
"H@	c #2F2F0C",
"I@	c #040209",
"J@	c #0D0406",
"K@	c #B91B0B",
"L@	c #FB0308",
"M@	c #F80408",
"N@	c #F9060E",
"O@	c #400211",
"P@	c #020306",
"Q@	c #090306",
"R@	c #B508BA",
"S@	c #FC01FD",
"T@	c #FC02FA",
"U@	c #F305FD",
"V@	c #5804F9",
"W@	c #0202F8",
"X@	c #0202F6",
"Y@	c #0602DD",
"Z@	c #050668",
"`@	c #010212",
" #	c #010004",
".#	c #060509",
"+#	c #0B4B08",
"@#	c #06E507",
"##	c #06FC08",
"$#	c #07FB06",
"%#	c #04FB04",
"&#	c #09FB05",
"*#	c #58FC05",
"=#	c #F0FC06",
"-#	c #F9FB04",
";#	c #F9FA0D",
">#	c #3D3A09",
",#	c #0A090E",
"'#	c #080D04",
")#	c #BFA60F",
"!#	c #EA440B",
"~#	c #F90211",
"{#	c #F705A2",
"]#	c #49043F",
"^#	c #06020B",
"/#	c #0E050C",
"(#	c #B609B7",
"_#	c #FB02F8",
":#	c #FD02FA",
"<#	c #B703FB",
"[#	c #1305FA",
"}#	c #0303F6",
"|#	c #0003FA",
"1#	c #0105F5",
"2#	c #0301F6",
"3#	c #020493",
"4#	c #010017",
"5#	c #000105",
"6#	c #060507",
"7#	c #084E03",
"8#	c #0AEA0B",
"9#	c #05FB04",
"0#	c #03FC03",
"a#	c #01FE03",
"b#	c #0CF60E",
"c#	c #07D60B",
"d#	c #139E11",
"e#	c #728C13",
"f#	c #9FA311",
"g#	c #DBD612",
"h#	c #D3D11B",
"i#	c #BEB916",
"j#	c #C4C514",
"k#	c #F4F50C",
"l#	c #F9DD1A",
"m#	c #EE4198",
"n#	c #FC02F5",
"o#	c #D506D1",
"p#	c #BD09BE",
"q#	c #C007BA",
"r#	c #DD09E1",
"s#	c #B908BB",
"t#	c #8E0991",
"u#	c #2C078B",
"v#	c #05029D",
"w#	c #0403D8",
"x#	c #0303F4",
"y#	c #0101F8",
"z#	c #0004F3",
"A#	c #0102F7",
"B#	c #0400A2",
"C#	c #010010",
"D#	c #030200",
"E#	c #010203",
"F#	c #041E05",
"G#	c #11CF10",
"H#	c #02FD03",
"I#	c #02FB03",
"J#	c #0AFD01",
"K#	c #0BEF11",
"L#	c #09770A",
"M#	c #081908",
"N#	c #050309",
"O#	c #07020A",
"P#	c #17150D",
"Q#	c #7B850F",
"R#	c #F0F410",
"S#	c #FAFC04",
"T#	c #FBFA08",
"U#	c #F8FA6C",
"V#	c #F6CAF1",
"W#	c #F410F6",
"X#	c #F902FA",
"Y#	c #FC01FB",
"Z#	c #C308BE",
"`#	c #410542",
" $	c #0E0109",
".$	c #030409",
"+$	c #020008",
"@$	c #010228",
"#$	c #010288",
"$$	c #0302F1",
"%$	c #0004F6",
"&$	c #0001FA",
"*$	c #0401F7",
"=$	c #020169",
"-$	c #010105",
";$	c #040402",
">$	c #030405",
",$	c #050304",
"'$	c #0D830D",
")$	c #04FC02",
"!$	c #01FD02",
"~$	c #08FB08",
"{$	c #04F706",
"]$	c #0F6C0C",
"^$	c #030906",
"/$	c #030103",
"($	c #010601",
"_$	c #080507",
":$	c #070403",
"<$	c #0B0505",
"[$	c #7E7D15",
"}$	c #FDF706",
"|$	c #FDF919",
"1$	c #FAF9D7",
"2$	c #F5F9FB",
"3$	c #F776F0",
"4$	c #FD03FE",
"5$	c #CC09C7",
"6$	c #23072A",
"7$	c #05060C",
"8$	c #030207",
"9$	c #000304",
"0$	c #050005",
"a$	c #01020C",
"b$	c #03039A",
"c$	c #0102FB",
"d$	c #0100FB",
"e$	c #0000F5",
"f$	c #0601D7",
"g$	c #000123",
"h$	c #050404",
"i$	c #090106",
"j$	c #052507",
"k$	c #0BDC0D",
"l$	c #04FB05",
"m$	c #02FC05",
"n$	c #04FE03",
"o$	c #0AC60F",
"p$	c #090D09",
"q$	c #040304",
"r$	c #070808",
"s$	c #0B5D0A",
"t$	c #10980F",
"u$	c #0B570F",
"v$	c #060906",
"w$	c #050405",
"x$	c #141607",
"y$	c #C8E717",
"z$	c #EBFB76",
"A$	c #F6FBF6",
"B$	c #FBF8FB",
"C$	c #EFD1F7",
"D$	c #DA1CF4",
"E$	c #5A066B",
"F$	c #040703",
"G$	c #090309",
"H$	c #01032A",
"I$	c #030482",
"J$	c #04038F",
"K$	c #01033B",
"L$	c #010006",
"M$	c #01043A",
"N$	c #0102EC",
"O$	c #0200F9",
"P$	c #0001F8",
"Q$	c #0201F7",
"R$	c #030174",
"S$	c #000001",
"T$	c #040205",
"U$	c #07590A",
"V$	c #01FE02",
"W$	c #00FE01",
"X$	c #108411",
"Y$	c #010404",
"Z$	c #010505",
"`$	c #0D5209",
" %	c #07F410",
".%	c #07FC03",
"+%	c #0BF00A",
"@%	c #090E09",
"#%	c #0A620F",
"$%	c #1EEF12",
"%%	c #2DF9BD",
"&%	c #42F9F8",
"*%	c #46FAFA",
"=%	c #3EF4F5",
"-%	c #234ADA",
";%	c #08032A",
">%	c #040305",
",%	c #060111",
"'%	c #0004AE",
")%	c #0202F9",
"!%	c #0103F9",
"~%	c #0402C3",
"{%	c #020320",
"]%	c #050107",
"^%	c #01031F",
"/%	c #0103DE",
"(%	c #0003F6",
"_%	c #0001FB",
":%	c #0202FB",
"<%	c #0301C1",
"[%	c #00020B",
"}%	c #020108",
"|%	c #020201",
"1%	c #129511",
"2%	c #00FF01",
"3%	c #01FE01",
"4%	c #0F740E",
"5%	c #0A880F",
"6%	c #03FC05",
"7%	c #06FA07",
"8%	c #07FA07",
"9%	c #0DDB17",
"0%	c #0BB512",
"a%	c #0FF312",
"b%	c #05FB2B",
"c%	c #0BF8E5",
"d%	c #02FDFE",
"e%	c #01FCFD",
"f%	c #03FEFE",
"g%	c #0B86DC",
"h%	c #020114",
"i%	c #03011B",
"j%	c #0203D5",
"k%	c #0302F2",
"l%	c #0204EB",
"m%	c #05039F",
"n%	c #030115",
"o%	c #06000B",
"p%	c #010425",
"q%	c #0201E2",
"r%	c #0101F2",
"s%	c #0001F9",
"t%	c #0100F9",
"u%	c #0401E7",
"v%	c #00021D",
"w%	c #010300",
"x%	c #060209",
"y%	c #0BBB0F",
"z%	c #00FD01",
"A%	c #01FF02",
"B%	c #107410",
"C%	c #030104",
"D%	c #0B890B",
"E%	c #04FC06",
"F%	c #0AAC0C",
"G%	c #074706",
"H%	c #114009",
"I%	c #0B4609",
"J%	c #0D4A06",
"K%	c #0CAD45",
"L%	c #04FCF4",
"M%	c #04FDFD",
"N%	c #02FCFB",
"O%	c #09A6D9",
"P%	c #030312",
"Q%	c #070124",
"R%	c #0501D8",
"S%	c #010364",
"T%	c #000338",
"U%	c #000119",
"V%	c #020303",
"W%	c #02016D",
"X%	c #0201F3",
"Y%	c #0200FA",
"Z%	c #0101FB",
"`%	c #0003F4",
" &	c #0101F9",
".&	c #020136",
"+&	c #09040A",
"@&	c #04C50D",
"#&	c #00FF02",
"$&	c #107411",
"%&	c #060407",
"&&	c #0F8B0A",
"*&	c #04F909",
"=&	c #0F7508",
"-&	c #050206",
";&	c #010703",
">&	c #000403",
",&	c #087F4A",
"'&	c #07FDF2",
")&	c #00FEFE",
"!&	c #00FDFE",
"~&	c #13B6E0",
"{&	c #050113",
"]&	c #020404",
"^&	c #06021B",
"/&	c #0602CC",
"(&	c #040320",
"_&	c #030003",
":&	c #030004",
"<&	c #020102",
"[&	c #000217",
"}&	c #0501C9",
"|&	c #0102F2",
"1&	c #0201F2",
"2&	c #0101FD",
"3&	c #0103F4",
"4&	c #040241",
"5&	c #08C00F",
"6&	c #00FF03",
"7&	c #107311",
"8&	c #040303",
"9&	c #089105",
"0&	c #03FB04",
"a&	c #089205",
"b&	c #022202",
"c&	c #060D02",
"d&	c #050004",
"e&	c #077B44",
"f&	c #06FDF5",
"g&	c #0CADDA",
"h&	c #030311",
"i&	c #020304",
"j&	c #06031F",
"k&	c #0502D0",
"l&	c #01024D",
"m&	c #010225",
"n&	c #000309",
"o&	c #010009",
"p&	c #000207",
"q&	c #020184",
"r&	c #0002F6",
"s&	c #0100FD",
"t&	c #0100FA",
"u&	c #03023B",
"v&	c #0CA00F",
"w&	c #020202",
"x&	c #0A8E0A",
"y&	c #05FD03",
"z&	c #0CF70F",
"A&	c #0EEB0F",
"B&	c #146C14",
"C&	c #030504",
"D&	c #077F31",
"E&	c #04FEE7",
"F&	c #0E8EDD",
"G&	c #020214",
"H&	c #060205",
"I&	c #04021F",
"J&	c #0404D9",
"K&	c #0501E6",
"L&	c #0402DB",
"M&	c #02037D",
"N&	c #00010B",
"O&	c #030005",
"P&	c #01042D",
"Q&	c #0304E6",
"R&	c #0102FA",
"S&	c #0104E9",
"T&	c #010323",
"U&	c #020107",
"V&	c #0B0303",
"W&	c #09040E",
"X&	c #096B09",
"Y&	c #02FD04",
"Z&	c #02FE02",
"`&	c #0F7E0E",
" *	c #030107",
".*	c #040105",
"+*	c #056A05",
"@*	c #0CF908",
"#*	c #02FB07",
"$*	c #0AF50A",
"%*	c #0A550E",
"&*	c #090509",
"**	c #040204",
"=*	c #088D1D",
"-*	c #05FDCF",
";*	c #01FEFE",
">*	c #03FBFB",
",*	c #0759DB",
"'*	c #040229",
")*	c #060204",
"!*	c #0103BA",
"~*	c #0102FD",
"{*	c #0004F2",
"]*	c #0501D5",
"^*	c #010122",
"/*	c #060107",
"(*	c #010420",
"_*	c #0403D5",
":*	c #0400FB",
"<*	c #0201F8",
"[*	c #0105CE",
"}*	c #00030E",
"|*	c #040409",
"1*	c #093107",
"2*	c #05EB07",
"3*	c #02FE04",
"4*	c #03FC02",
"5*	c #01FE05",
"6*	c #10B90D",
"7*	c #060804",
"8*	c #060803",
"9*	c #0A0E06",
"0*	c #088914",
"a*	c #0BC515",
"b*	c #068008",
"c*	c #080F04",
"d*	c #070404",
"e*	c #0B0A0B",
"f*	c #07CC0D",
"g*	c #05F790",
"h*	c #03FBF9",
"i*	c #03FDFD",
"j*	c #0DE0F7",
"k*	c #0220ED",
"l*	c #000552",
"m*	c #01020D",
"n*	c #00043E",
"o*	c #0201AA",
"p*	c #0300BD",
"q*	c #03026A",
"r*	c #010207",
"s*	c #010336",
"t*	c #0301EB",
"u*	c #0302F9",
"v*	c #0301F8",
"w*	c #0302F6",
"x*	c #030289",
"y*	c #010600",
"z*	c #060503",
"A*	c #11A612",
"B*	c #03FE03",
"C*	c #06FA02",
"D*	c #04FB02",
"E*	c #07F40B",
"F*	c #105211",
"G*	c #050907",
"H*	c #040308",
"I*	c #030502",
"J*	c #0B090A",
"K*	c #0B0207",
"L*	c #040503",
"M*	c #04610E",
"N*	c #0BF506",
"O*	c #04FB33",
"P*	c #03FDEF",
"Q*	c #01FBFA",
"R*	c #0C97EF",
"S*	c #0005F6",
"T*	c #0202B9",
"U*	c #02021B",
"V*	c #020106",
"W*	c #02000B",
"X*	c #020009",
"Y*	c #00030B",
"Z*	c #03028A",
"`*	c #0502E5",
" =	c #020337",
".=	c #000301",
"+=	c #040004",
"@=	c #093409",
"#=	c #07EF08",
"$=	c #04FB03",
"%=	c #03FC08",
"&=	c #0AFB05",
"*=	c #09E312",
"==	c #0C4A09",
"-=	c #040805",
";=	c #090204",
">=	c #04050A",
",=	c #020803",
"'=	c #060406",
")=	c #07580A",
"!=	c #08E409",
"~=	c #05FB02",
"{=	c #03FB09",
"]=	c #0BF895",
"^=	c #07ECF8",
"/=	c #0B26F1",
"(=	c #0102F9",
"_=	c #0003F5",
":=	c #02019F",
"<=	c #010304",
"[=	c #04000E",
"}=	c #02010E",
"|=	c #04026B",
"1=	c #0403E8",
"2=	c #0301F5",
"3=	c #0002F5",
"4=	c #010398",
"5=	c #04020B",
"6=	c #040307",
"7=	c #0B6E0E",
"8=	c #05F60A",
"9=	c #06FD05",
"0=	c #04FD05",
"a=	c #02FE03",
"b=	c #08F507",
"c=	c #0AB409",
"d=	c #0B720D",
"e=	c #076008",
"f=	c #0A750A",
"g=	c #0DBB0D",
"h=	c #09F708",
"i=	c #04FD04",
"j=	c #02FD02",
"k=	c #06FC03",
"l=	c #0CEE28",
"m=	c #0865B8",
"n=	c #0604F8",
"o=	c #0402F9",
"p=	c #0102F8",
"q=	c #0100FC",
"r=	c #0302D8",
"s=	c #01028F",
"t=	c #030264",
"u=	c #040169",
"v=	c #020182",
"w=	c #0300C6",
"x=	c #0201EE",
"y=	c #0003F9",
"z=	c #0002F3",
"A=	c #0302C3",
"B=	c #040125",
"C=	c #060909",
"D=	c #0F7E0C",
"E=	c #05F70E",
"F=	c #06FC04",
"G=	c #03FC01",
"H=	c #05FB09",
"I=	c #04FE05",
"J=	c #03FD03",
"K=	c #04FA06",
"L=	c #06FC09",
"M=	c #04F808",
"N=	c #05F90A",
"O=	c #06F705",
"P=	c #097609",
"Q=	c #0C0831",
"R=	c #0307CE",
"S=	c #0101FC",
"T=	c #0003F7",
"U=	c #0102F6",
"V=	c #0101F6",
"W=	c #0401FB",
"X=	c #0101C1",
"Y=	c #02013A",
"Z=	c #040403",
"`=	c #050406",
" -	c #050C0C",
".-	c #096508",
"+-	c #13DA17",
"@-	c #01FE04",
"#-	c #03FD05",
"$-	c #04FE06",
"%-	c #01FC01",
"&-	c #08F809",
"*-	c #0AD807",
"=-	c #0D5A0D",
"--	c #070607",
";-	c #02020A",
">-	c #080428",
",-	c #0402A2",
"'-	c #0301F0",
")-	c #0201FC",
"!-	c #0001F7",
"~-	c #0102F5",
"{-	c #0201EB",
"]-	c #0501A1",
"^-	c #010321",
"/-	c #010204",
"(-	c #010007",
"_-	c #022905",
":-	c #058D0E",
"<-	c #0AD80D",
"[-	c #0DF40C",
"}-	c #06FD06",
"|-	c #05FC04",
"1-	c #0AF50D",
"2-	c #0AD20E",
"3-	c #0B870A",
"4-	c #062307",
"5-	c #000004",
"6-	c #020200",
"7-	c #000104",
"8-	c #000210",
"9-	c #010155",
"0-	c #0402A7",
"a-	c #0203E1",
"b-	c #0003F2",
"c-	c #0103F8",
"d-	c #0204DE",
"e-	c #0304AF",
"f-	c #03015C",
"g-	c #040007",
"h-	c #000003",
"i-	c #070604",
"j-	c #06120B",
"k-	c #09340C",
"l-	c #07540A",
"m-	c #095F0D",
"n-	c #065606",
"o-	c #053505",
"p-	c #0A110A",
"q-	c #060508",
"r-	c #000202",
"s-	c #01010F",
"t-	c #01022B",
"u-	c #000148",
"v-	c #010161",
"w-	c #01025C",
"x-	c #02024B",
"y-	c #01032C",
"z-	c #020002",
"A-	c #010501",
"B-	c #090303",
"C-	c #060403",
"D-	c #040106",
"E-	c #070205",
"F-	c #000601",
"G-	c #040003",
"H-	c #050102",
"I-	c #050104",
"J-	c #030302",
"K-	c #030202",
"L-	c #010001",
". . . . . . . . . . . . + @ # $ % & * = - ; > , ' ) . ! ! . . . . . . . . . . . ",
". . . . . . . . . . . . ~ { ] ^ / ( _ : < [ } | 1 2 . . . . . . . . . . . . . . ",
". . . . . . . . . . . . 3 4 | 5 6 7 8 9 0 a b c d e . . . . . . . . . . . . . . ",
". . . . . . . . . f g h i j k l m n o p q r s t u v w / x y { ~ . . . . . . . . ",
". . . . . . . . . z # A B C D E F G H q I J K L M N O P Q R ~ { . . . . . . . . ",
". . . . . . . . . S T U V W X Y Z `  ...+.@.#.$.%.&.*.=.-.;.@ y . . . . . . . . ",
". . . . . . . . . 4 >.,.'.).!.~.{.].^./.(._.:.<.[.q }.|.1.2.3.4.. . . . . . . . ",
". . . . . . . . . 5.6.7.8.K 9.0.a.b.c.d.e.f.g.h.i.j.k.k.l.m.n.o.. . . . . . . . ",
". . . . . . . . . T p.q.r.s.t.u.v.w.x.y.z.A.B.C.D.E.F.n H G.H.I.. . . . . . . . ",
". . . . . . . . . h.J.K.L.M.N.O.P.Q.R.S.T.U.V.W.X.Y.Z.`.Z. +.+;.. . . . . . . . ",
". . . . . . . . . ++@+#+$+%+&+*+=+-+;+>+,+'+)+!+~+{+Z.`.]+^+/+(+. . . . . . . . ",
". . . . . . . . . _+:+F <+%+&+[+}+|+1+2+3+4+5+6+7+8+n `.E 9+0+a+. . . . . . . . ",
". . . . . . . . . b+c+d+e+%+&+f+g+h+i+j+k+l+m+n+o+p+`.`.q+o r+s+. . . . . . . . ",
". . . . . . t+u+v+w+x+y+m z+A+B+C+5+D+E+F+G+H+3.I+J+K+L+M+N+O+P+. . . . . . . . ",
". . . . . . o.Q+T R+S+T+U+V+W+X+Y+Z+`+ @.@+@@@#@$@%@]+9.&+&@*@Y+. . . . . . . . ",
". . . . . . v+a+=@-@;@>@,@'@)@!@c.~@{@]@^@/@(@m+_@:@<@[@}@|@1@/.. . . . . . . . ",
". . . @ 2@@ 3@4@5@6@7@8@9@0@a@b@c@d@e@f@g@h@i@j@k@l@m@n@o@p@q@r@s@t@u@v@v@! . . ",
". . . w@_.x@y@z@A@B@C@D@E@F@G@H@I@J@K@L@M@N@O@P@Q@R@S@T@U@V@W@X@Y@Z@`@f  #~ . . ",
". . . j+.#+#@###$#%#&#*#=#-#;#>#,#'#)#!#~#{#]#^#/#(#_#:#<#[#}#|#1#2#3#4#a+5#. . ",
"v@+ v@6#7#8#9#0#a#b#c#d#e#f#g#h#i#j#k#l#m#n#o#p#q#r#s#t#u#v#w#x#y#z#A#B#C#R . . ",
"g+D#E#F#G#H#I#J#K#L#M#!+N#O#P#Q#R#S#T#U#V#W#X#Y#Z#`# $.$c.+$@$#$$$%$&$*$=$-$. . ",
";$>$,$'$)$!$~${$]$^$/$($_$W.:$<$[$}$|$1$2$3$4$5$6$7$j+8$9$m+0$a$b$c$d$e$f$g$. . ",
"h$i$j$k$l$m$n$o$p$q$r$s$t$u$v$w$x$y$z$A$B$C$D$E$F$G$H$I$J$K$L$T M$N$O$P$Q$R$S$. ",
"c.T$U$m$V$W$W$X$Y$Z$`$ %.%+%U$@%#%$%%%&%*%=%-%;%>%,%'%)%!%~%{%]%^%/%(%_%:%<%[%}%",
"|%j+1%2%2%2%3%4%/$T 5%6%7%8%9%0%a%b%c%d%e%f%g%h%>%i%j%k%l%m%n%o%p%q%r%s%t%u%v%2@",
"w%x%y%z%2%2%A%B%C%h+D%E%F%G%H%I%J%K%L%M%M%N%O%P%/ Q%R%S%T%U%2@V%W%X%Y%Z%`% &.&Q ",
"4 +&@&V$2%2%#&$&u@%&&&*&=&-&;&>&1 ,&'&)&!&)&~&{&]&^&/&(&_&:&<&[&}&|&1&2&3& &4&2 ",
"}+V%5&2%2%2%6&7&/$8&9&0&a&b&c&d&2 e&f&)&)&)&g&h&i&j&k&l&m&n&o&p&q&r&|#s&s&t&u&u@",
"$ h$v&2%2%2%6&7&/$w&x&y&z&A&B&C&2 D&E&)&)&)&F&G&H&I&J&K&L&M&N&O&P&Q&R& &s&S&T&U&",
"V&W&X&Y&!$Z&a#`& *.*+*@*#*$*%*&***=*-*;*!&>*,*'*)*`@!*~*{*]*^*/*(*_*:*<* &[*}*2@",
"( |*1*2*3*4*5*6*7*8*9*0*a*b*c*d*e*f*g*h*i*j*k*l*m*E#n*o*p*q*r*.*s*t*u*v*w*x*S$. ",
"/$y*z*A*B*C*D*E*F*G*H*I*J*K*L*Q@M*N*O*P*Q*R*S*T*U*V*o.W*a$2 X*Y*Z*c$c$ &`* =. . ",
".=+=4 @=#=$=%=&=*===-=;=>=,='=)=!=~={=]=^=/=(=_=:=s@/.}%<=[=}=|=1=r&2=3=4=5=. . ",
". . . 6=7=8=9=0=a=b=c=d=e=f=g=h=i=j=k=l=m=n=o=p=q=r=s=t=u=v=w=x=y=z= &A=B=Q . . ",
". . . -&C=D=E=F=G=H=I=J=K=I#L=M=3*N=O=P=Q=R=S=T=U=Q$Z%R&A#3=T=!%V=W=X=Y=c.}%. . ",
". . . Z=`= -.-+-@-!$a=#-$-%-%-l$&-*-=---;->-,-'-:%)-)-d$!-s%Z%~-{-]-^-/-(-u+. . ",
". . . Q { /.Z=_-:-<-[-}-|-l$1-2-3-4-c@5-6-7-8-9-0-a-b-p=c-A#d-e-f-a$g-z ~ h-. . ",
". . . . . . 6-- i-j-k-l-m-n-o-p-q-2 Y+. . . 7-r-s-t-u-v-w-x-y-m*7-S$z-. . . . . ",
". . . . . . r*A-% B-C-] ]%D-,$E-@ F- *. . . /.u+t+5.G-h Q G-H-I-+$(-g . . . . . ",
". . . . . . ~ T (+J-(+2 E#/.K-J-+=O&4.. . . u+L$5- #h-~ z L-v@o.L-~ z . . . . . "};
