/* XPM */
static char* staticcolormodule_xpm[] = {
"40 40 18 1",
"  c #000000",
"! c #000080",
"# c #C0C0C0",
"$ c #818181",
"% c #000081",
"& c #000099",
"' c #0066CC",
"( c #0066FF",
") c #0099FF",
"* c #333366",
"+ c #990000",
", c #CC0000",
"- c #CC6600",
". c #CCCC33",
"/ c #CC3300",
"0 c #FFCC33",
"1 c #FFFF33",
"2 c #FFFFFF",
"))))))))))))'%%%%%%%%%%%!*1111111111110-",
")))))))))))(&%%%%%%%%%%!*.111111111110--",
"))))))))))(&%%%%%%%%%%!*.111111111110---",
")))))))))(&%%%%%%%%%%!*.111111111110----",
"))))))))(&%%%%%%%%%%!*.111111111110-----",
")))))))(&%%%%%%%%%%!*.111111111110------",
"))))))(&%%%%%%%%%%!*.111111111110-------",
")))))(&%%%%%%%%%%!*.111111111110--------",
"))))(&%%%%%%%%%%!*.111111111110---------",
")))(&%%%%%%%%%%!*.111111111110----------",
"))(&%%%%%%%%%%!*.111111111110-----------",
")(&%%%%%%%%%%!*.1    1111110------------",
"'&%%%%%%%%%%!*.1 $$$$ 11110-------------",
"%%%%%%%%%%%!*.11 $$$$ 1110--------------",
"%%%%%%%%%%!*.111      110--------------/",
"%%%%%%%%%!*.1111 #### 10--------------,,",
"%%%%%%%%!*.11111 #### 0--------------,,,",
"%%%%%%%!*.111111 #### --------------,,,,",
"%%%%%%!*.11111  #####   -----------,,,,,",
"%%%%%!*.11111 ########## ---------,,,,,,",
"%%%%!*.111111            --------,,,,,,,",
"%%%!*.1111111 $$$$$$$$$$ -------,,,,,,,,",
"%%!*.11111111            ------,,,,,,,,,",
"%!*.111111111 2 22 22 22 -----,,,,,,,,,,",
"!*.1111111111 2 22 22 22 ----,,,,,,,,,,,",
"*.11111111111 2 22 22 22 ---,,,,,,,,,,,,",
"111111111111 22 22 22 22 --,,,,,,,,,,,,,",
"11111111111 22 22 22 22 --,,,,,,,,,,,,,,",
"1111111111             --,,,,,,,,,,,,,,+",
"1111111110--------------,,,,,,,,,,,,,,++",
"111111110--------------,,,,,,,,,,,,,,+++",
"11111110--------------,,,,,,,,,,,,,,++++",
"1111110--------------,,,,,,,,,,,,,,+++++",
"111110--------------,,,,,,,,,,,,,,++++++",
"11110--------------,,,,,,,,,,,,,,+++++++",
"1110--------------,,,,,,,,,,,,,,++++++++",
"110--------------,,,,,,,,,,,,,,+++++++++",
"10--------------,,,,,,,,,,,,,,++++++++++",
"0--------------,,,,,,,,,,,,,,+++++++++++",
"--------------/,,,,,,,,,,,,,++++++++++++"};
