/* XPM */
static char * audiowavegenmodule_xpm[] = {
"40 40 852 2",
"  	c None",
". 	c #060001",
"+ 	c #040004",
"@ 	c #050103",
"# 	c #0A0701",
"$ 	c #090500",
"% 	c #040200",
"& 	c #0F0A04",
"* 	c #1B2011",
"= 	c #100C04",
"- 	c #090100",
"; 	c #070001",
"> 	c #040002",
", 	c #060000",
"' 	c #070000",
") 	c #040401",
"! 	c #020301",
"~ 	c #020201",
"{ 	c #090B06",
"] 	c #1A1F17",
"^ 	c #0A0C08",
"/ 	c #020202",
"( 	c #030303",
"_ 	c #060703",
": 	c #030400",
"< 	c #090B07",
"[ 	c #181D15",
"} 	c #0C1009",
"| 	c #030402",
"1 	c #030002",
"2 	c #010003",
"3 	c #000102",
"4 	c #020001",
"5 	c #090201",
"6 	c #020702",
"7 	c #123B23",
"8 	c #000300",
"9 	c #000000",
"0 	c #000100",
"a 	c #060005",
"b 	c #050105",
"c 	c #000500",
"d 	c #233622",
"e 	c #000401",
"f 	c #010104",
"g 	c #010100",
"h 	c #030001",
"i 	c #1E321C",
"j 	c #000C00",
"k 	c #020104",
"l 	c #020004",
"m 	c #010400",
"n 	c #000601",
"o 	c #000700",
"p 	c #030500",
"q 	c #090200",
"r 	c #010800",
"s 	c #080400",
"t 	c #0E3A1B",
"u 	c #020803",
"v 	c #00030C",
"w 	c #000604",
"x 	c #050E00",
"y 	c #030708",
"z 	c #04070B",
"A 	c #010602",
"B 	c #020303",
"C 	c #030609",
"D 	c #000904",
"E 	c #1F3520",
"F 	c #010501",
"G 	c #153A1B",
"H 	c #041500",
"I 	c #000701",
"J 	c #000A01",
"K 	c #010601",
"L 	c #020904",
"M 	c #000403",
"N 	c #1A251B",
"O 	c #19271A",
"P 	c #182919",
"Q 	c #19261A",
"R 	c #1E231C",
"S 	c #112919",
"T 	c #202518",
"U 	c #235A36",
"V 	c #1C2C14",
"W 	c #1C291A",
"X 	c #131F0D",
"Y 	c #202A1E",
"Z 	c #5D6268",
"` 	c #9496A8",
" .	c #77788F",
"..	c #3C4E45",
"+.	c #101E17",
"@.	c #192820",
"#.	c #112D14",
"$.	c #355933",
"%.	c #11290B",
"&.	c #1C2918",
"*.	c #1B2619",
"=.	c #182C16",
"-.	c #182619",
";.	c #162617",
">.	c #295834",
",.	c #132D0F",
"'.	c #152C19",
").	c #1F2D1C",
"!.	c #1E2E21",
"~.	c #626978",
"{.	c #9194B1",
"].	c #797F95",
"^.	c #424F51",
"/.	c #080E08",
"(.	c #071007",
"_.	c #061308",
":.	c #061209",
"<.	c #0A0F09",
"[.	c #031508",
"}.	c #0C1108",
"|.	c #0F4625",
"1.	c #061702",
"2.	c #0A1601",
"3.	c #10190F",
"4.	c #51565F",
"5.	c #B6B8CF",
"6.	c #7C7B96",
"7.	c #9D9CB7",
"8.	c #92A2AD",
"9.	c #17252A",
"0.	c #06150D",
"a.	c #031D04",
"b.	c #21461C",
"c.	c #041D03",
"d.	c #071207",
"e.	c #080F07",
"f.	c #061406",
"g.	c #081307",
"h.	c #14401F",
"i.	c #001402",
"j.	c #071A0E",
"k.	c #0B1610",
"l.	c #647070",
"m.	c #B0B2D2",
"n.	c #7976A5",
"o.	c #A1A2C7",
"p.	c #A7AFBB",
"q.	c #000200",
"r.	c #010200",
"s.	c #060200",
"t.	c #010500",
"u.	c #080200",
"v.	c #0B361C",
"w.	c #020800",
"x.	c #020805",
"y.	c #262938",
"z.	c #A1A1C0",
"A.	c #626279",
"B.	c #12121F",
"C.	c #2D2C37",
"D.	c #A4A8C6",
"E.	c #6A6886",
"F.	c #10111B",
"G.	c #010B03",
"H.	c #21391E",
"I.	c #000D02",
"J.	c #000204",
"K.	c #020200",
"L.	c #060400",
"M.	c #15351A",
"N.	c #040B02",
"O.	c #030A09",
"P.	c #323348",
"Q.	c #A8ADC7",
"R.	c #515169",
"S.	c #0C0B22",
"T.	c #2C2C43",
"U.	c #9DA1BA",
"V.	c #000001",
"W.	c #020100",
"X.	c #0B0102",
"Y.	c #030301",
"Z.	c #0D0000",
"`.	c #11321D",
" +	c #070603",
".+	c #070B16",
"++	c #69688D",
"@+	c #AAA7D1",
"#+	c #0C0C17",
"$+	c #060704",
"%+	c #060705",
"&+	c #565173",
"*+	c #C3B6DC",
"=+	c #3C344F",
"-+	c #000306",
";+	c #2C392E",
">+	c #020205",
",+	c #06010A",
"'+	c #030000",
")+	c #080100",
"!+	c #1A321C",
"~+	c #070601",
"{+	c #0E0813",
"]+	c #7E769E",
"^+	c #9291B8",
"/+	c #0A0B11",
"(+	c #060804",
"_+	c #030408",
":+	c #41415C",
"<+	c #010004",
"[+	c #010202",
"}+	c #040003",
"|+	c #0B0105",
"1+	c #030405",
"2+	c #0D0204",
"3+	c #113823",
"4+	c #060701",
"5+	c #282835",
"6+	c #A19FC4",
"7+	c #494668",
"8+	c #040605",
"9+	c #040602",
"0+	c #0B0A12",
"a+	c #0A0B1B",
"b+	c #ABA7C1",
"c+	c #87829D",
"d+	c #13171F",
"e+	c #25372A",
"f+	c #020601",
"g+	c #060504",
"h+	c #020705",
"i+	c #040504",
"j+	c #030503",
"k+	c #163720",
"l+	c #000603",
"m+	c #343546",
"n+	c #A5A0BF",
"o+	c #3A3A51",
"p+	c #0E0D12",
"q+	c #020102",
"r+	c #0B0A0A",
"s+	c #060812",
"t+	c #010101",
"u+	c #010201",
"v+	c #000004",
"w+	c #070504",
"x+	c #010305",
"y+	c #040405",
"z+	c #113517",
"A+	c #050D0F",
"B+	c #58596C",
"C+	c #9B9BB8",
"D+	c #1F1E32",
"E+	c #050704",
"F+	c #02010C",
"G+	c #010709",
"H+	c #565965",
"I+	c #A9A8C4",
"J+	c #2C333F",
"K+	c #1B371E",
"L+	c #000901",
"M+	c #010001",
"N+	c #010805",
"O+	c #010404",
"P+	c #000703",
"Q+	c #16371E",
"R+	c #050F0A",
"S+	c #5E647A",
"T+	c #9492A5",
"U+	c #1E1E23",
"V+	c #010005",
"W+	c #050207",
"X+	c #030204",
"Y+	c #080909",
"Z+	c #030101",
"`+	c #010006",
" @	c #060502",
".@	c #010009",
"+@	c #000607",
"@@	c #21350D",
"#@	c #181F31",
"$@	c #9898BB",
"%@	c #787890",
"&@	c #0D0D16",
"*@	c #030404",
"=@	c #030305",
"-@	c #030304",
";@	c #1F1F28",
">@	c #A299C0",
",@	c #50556F",
"'@	c #204120",
")@	c #000008",
"!@	c #030302",
"~@	c #030004",
"{@	c #000402",
"]@	c #1F341D",
"^@	c #151E1A",
"/@	c #8E8EAE",
"(@	c #686479",
"_@	c #111111",
":@	c #040302",
"<@	c #020106",
"[@	c #06050E",
"}@	c #000507",
"|@	c #283B17",
"1@	c #303B52",
"2@	c #BABADA",
"3@	c #4E4F63",
"4@	c #03030A",
"5@	c #020204",
"6@	c #010103",
"7@	c #0E0C10",
"8@	c #797192",
"9@	c #7E829D",
"0@	c #244329",
"a@	c #040802",
"b@	c #000007",
"c@	c #020002",
"d@	c #213422",
"e@	c #233530",
"f@	c #A7A8C4",
"g@	c #423E50",
"h@	c #010000",
"i@	c #020000",
"j@	c #05040C",
"k@	c #223417",
"l@	c #747F9E",
"m@	c #9899B2",
"n@	c #21212F",
"o@	c #06070A",
"p@	c #010300",
"q@	c #444256",
"r@	c #A0A4C1",
"s@	c #415F4F",
"t@	c #030702",
"u@	c #000006",
"v@	c #010002",
"w@	c #030100",
"x@	c #1D2F26",
"y@	c #5C6E72",
"z@	c #9294AC",
"A@	c #1D1A27",
"B@	c #040404",
"C@	c #050500",
"D@	c #010008",
"E@	c #000708",
"F@	c #253620",
"G@	c #B1BAE0",
"H@	c #77798C",
"I@	c #0A0B15",
"J@	c #060803",
"K@	c #020300",
"L@	c #23212E",
"M@	c #9397B4",
"N@	c #6A8681",
"O@	c #000202",
"P@	c #000005",
"Q@	c #050301",
"R@	c #030401",
"S@	c #203132",
"T@	c #92A3B0",
"U@	c #67697C",
"V@	c #0B0911",
"W@	c #020101",
"X@	c #030300",
"Y@	c #02000A",
"Z@	c #01050A",
"`@	c #455545",
" #	c #ACB4E1",
".#	c #343746",
"+#	c #03050B",
"@#	c #010302",
"##	c #060802",
"$#	c #040700",
"%#	c #0E0A14",
"&#	c #6D708E",
"*#	c #8DA8AB",
"=#	c #030504",
"-#	c #000105",
";#	c #010301",
">#	c #3C4B54",
",#	c #A2B2C7",
"'#	c #353848",
")#	c #030106",
"!#	c #050304",
"~#	c #030108",
"{#	c #01000A",
"]#	c #01040A",
"^#	c #6E7C70",
"/#	c #878FC1",
"(#	c #060916",
"_#	c #010307",
":#	c #020501",
"<#	c #030900",
"[#	c #08050D",
"}#	c #4B4D6C",
"|#	c #A0BAC0",
"1#	c #0B0E0C",
"2#	c #000206",
"3#	c #050300",
"4#	c #030806",
"5#	c #687786",
"6#	c #9BAAC4",
"7#	c #121623",
"8#	c #040306",
"9#	c #0E2416",
"0#	c #123018",
"a#	c #133125",
"b#	c #0E300A",
"c#	c #18361E",
"d#	c #102C1C",
"e#	c #263F34",
"f#	c #A3B3CE",
"g#	c #5C736A",
"h#	c #13301B",
"i#	c #113321",
"j#	c #112D11",
"k#	c #193117",
"l#	c #26443D",
"m#	c #92B4BC",
"n#	c #54706E",
"o#	c #132E16",
"p#	c #153410",
"q#	c #143214",
"r#	c #133017",
"s#	c #0E2B13",
"t#	c #112F0E",
"u#	c #183415",
"v#	c #162E1B",
"w#	c #2E4145",
"x#	c #AEBED3",
"y#	c #72848F",
"z#	c #18311F",
"A#	c #122E13",
"B#	c #133115",
"C#	c #000B03",
"D#	c #011103",
"E#	c #030E0C",
"F#	c #030F04",
"G#	c #051005",
"H#	c #050F0B",
"I#	c #3F494A",
"J#	c #ABB1CE",
"K#	c #1A2422",
"L#	c #030D03",
"M#	c #010D06",
"N#	c #060D00",
"O#	c #0B0E02",
"P#	c #060F11",
"Q#	c #748492",
"R#	c #89939C",
"S#	c #080F0B",
"T#	c #030C01",
"U#	c #060F0A",
"V#	c #050E0A",
"W#	c #020C03",
"X#	c #030D01",
"Y#	c #030D00",
"Z#	c #040D09",
"`#	c #535866",
" $	c #BDC0D9",
".$	c #313643",
"+$	c #09110D",
"@$	c #020B03",
"#$	c #030C06",
"$$	c #040206",
"%$	c #080403",
"&$	c #030202",
"*$	c #02030A",
"=$	c #656875",
"-$	c #A7AEC3",
";$	c #010405",
">$	c #020103",
",$	c #0C0303",
"'$	c #060408",
")$	c #4F5562",
"!$	c #B1B1C4",
"~$	c #1B1523",
"{$	c #050006",
"]$	c #030005",
"^$	c #040006",
"/$	c #050107",
"($	c #030003",
"_$	c #070405",
":$	c #090811",
"<$	c #737289",
"[$	c #C6C5DD",
"}$	c #0B0B15",
"|$	c #050206",
"1$	c #050000",
"2$	c #050106",
"3$	c #060106",
"4$	c #060207",
"5$	c #11141F",
"6$	c #8891A4",
"7$	c #7F8F95",
"8$	c #010C09",
"9$	c #030203",
"0$	c #010205",
"a$	c #080306",
"b$	c #090403",
"c$	c #080D0B",
"d$	c #2C3B3E",
"e$	c #AEB3CA",
"f$	c #434156",
"g$	c #060507",
"h$	c #040403",
"i$	c #040402",
"j$	c #050402",
"k$	c #000404",
"l$	c #171A2C",
"m$	c #8A91AB",
"n$	c #97A1AF",
"o$	c #010907",
"p$	c #030506",
"q$	c #040506",
"r$	c #030201",
"s$	c #080501",
"t$	c #00000C",
"u$	c #010303",
"v$	c #393E4B",
"w$	c #9CA8C0",
"x$	c #4A5F55",
"y$	c #09090E",
"z$	c #030103",
"A$	c #000900",
"B$	c #22392E",
"C$	c #8493A8",
"D$	c #787C98",
"E$	c #090A0F",
"F$	c #030605",
"G$	c #020407",
"H$	c #3D4259",
"I$	c #9DACC4",
"J$	c #475B5B",
"K$	c #010902",
"L$	c #040A09",
"M$	c #000104",
"N$	c #020400",
"O$	c #050113",
"P$	c #090908",
"Q$	c #60616F",
"R$	c #8D8EAB",
"S$	c #3D4A36",
"T$	c #000600",
"U$	c #090306",
"V$	c #030701",
"W$	c #223827",
"X$	c #4B586D",
"Y$	c #9C9CC1",
"Z$	c #262233",
"`$	c #020109",
" %	c #040303",
".%	c #040304",
"+%	c #0F0C11",
"@%	c #6A6B87",
"#%	c #828BA5",
"$%	c #35463F",
"%%	c #020901",
"&%	c #070808",
"*%	c #030007",
"=%	c #010401",
"-%	c #04050C",
";%	c #030608",
">%	c #05040A",
",%	c #191723",
"'%	c #8C92A4",
")%	c #6A6476",
"!%	c #26422B",
"~%	c #060304",
"{%	c #030B01",
"]%	c #1D331F",
"^%	c #26303A",
"/%	c #A4A2C5",
"(%	c #484562",
"_%	c #030309",
":%	c #020403",
"<%	c #030403",
"[%	c #020404",
"}%	c #1F1A2C",
"|%	c #9A99AD",
"1%	c #585D66",
"2%	c #263F30",
"3%	c #030800",
"4%	c #040701",
"5%	c #05050A",
"6%	c #010507",
"7%	c #080C0D",
"8%	c #302A44",
"9%	c #9FAABD",
"0%	c #433C44",
"a%	c #123B25",
"b%	c #1E3520",
"c%	c #131719",
"d%	c #83819F",
"e%	c #717092",
"f%	c #131717",
"g%	c #020801",
"h%	c #050806",
"i%	c #060C03",
"j%	c #3E3E5B",
"k%	c #A6A5B7",
"l%	c #37393B",
"m%	c #1C3A28",
"n%	c #020600",
"o%	c #040503",
"p%	c #040102",
"q%	c #0A0807",
"r%	c #090A09",
"s%	c #060510",
"t%	c #7D7293",
"u%	c #858DA2",
"v%	c #1A1119",
"w%	c #153A27",
"x%	c #243623",
"y%	c #030505",
"z%	c #4B4760",
"A%	c #A09CBE",
"B%	c #272630",
"C%	c #000101",
"D%	c #8B88AD",
"E%	c #847D95",
"F%	c #100F12",
"G%	c #193524",
"H%	c #040502",
"I%	c #050002",
"J%	c #04030B",
"K%	c #050303",
"L%	c #030409",
"M%	c #161528",
"N%	c #BCB0D2",
"O%	c #4D5567",
"P%	c #0C0107",
"Q%	c #193D2B",
"R%	c #050501",
"S%	c #040103",
"T%	c #253623",
"U%	c #010701",
"V%	c #1C1928",
"W%	c #9793B0",
"X%	c #6F6C7F",
"Y%	c #06060F",
"Z%	c #04040A",
"`%	c #040408",
" &	c #26262A",
".&	c #B5B1D5",
"+&	c #4D445B",
"@&	c #060205",
"#&	c #183322",
"$&	c #040600",
"%&	c #060302",
"&&	c #070003",
"*&	c #262436",
"=&	c #07070B",
"-&	c #020510",
";&	c #6D6D87",
">&	c #A8A0C0",
",&	c #121E27",
"'&	c #103922",
")&	c #010802",
"!&	c #1E311C",
"~&	c #010700",
"{&	c #08080D",
"]&	c #5B5B6E",
"^&	c #B0AFC8",
"/&	c #343448",
"(&	c #04040F",
"_&	c #0B0C16",
":&	c #767788",
"<&	c #9798B2",
"[&	c #15111E",
"}&	c #14311D",
"|&	c #050900",
"1&	c #060102",
"2&	c #7A7A96",
"3&	c #090A1E",
"4&	c #2A3042",
"5&	c #B1B6CF",
"6&	c #57526A",
"7&	c #030A0A",
"8&	c #060501",
"9&	c #0C3B1E",
"0&	c #060C02",
"a&	c #000400",
"b&	c #010406",
"c&	c #010D03",
"d&	c #1A3319",
"e&	c #000800",
"f&	c #151B21",
"g&	c #A8ABC6",
"h&	c #8B8DAA",
"i&	c #111526",
"j&	c #414557",
"k&	c #B2B4D3",
"l&	c #474F59",
"m&	c #020304",
"n&	c #070900",
"o&	c #14361B",
"p&	c #030903",
"q&	c #B1B7D0",
"r&	c #A1A5C1",
"s&	c #AAB4C9",
"t&	c #8D97AB",
"u&	c #141625",
"v&	c #091C12",
"w&	c #121807",
"x&	c #184E27",
"y&	c #0D1D08",
"z&	c #0C1B0A",
"A&	c #061606",
"B&	c #17201B",
"C&	c #0B1612",
"D&	c #041E09",
"E&	c #274B29",
"F&	c #072005",
"G&	c #091906",
"H&	c #132018",
"I&	c #41495C",
"J&	c #AFB6D0",
"K&	c #ABB3C5",
"L&	c #A6AEC2",
"M&	c #8086A6",
"N&	c #0C1D16",
"O&	c #101A0F",
"P&	c #101B07",
"Q&	c #234F29",
"R&	c #071A07",
"S&	c #112218",
"T&	c #0D160C",
"U&	c #0B1B0A",
"V&	c #353C40",
"W&	c #585D6A",
"X&	c #47545C",
"Y&	c #202D2E",
"Z&	c #131B16",
"`&	c #0B2512",
" *	c #121D0B",
".*	c #155125",
"+*	c #0F2408",
"@*	c #0D210D",
"#*	c #0B220C",
"$*	c #0D1E0E",
"%*	c #0D200E",
"&*	c #082607",
"**	c #295527",
"=*	c #072406",
"-*	c #10220D",
";*	c #151F0F",
">*	c #161E17",
",*	c #31373B",
"'*	c #525861",
")*	c #485056",
"!*	c #1B2223",
"~*	c #0C220A",
"{*	c #0E200C",
"]*	c #0D220A",
"^*	c #1F5526",
"/*	c #0B2706",
"(*	c #0B230F",
"_*	c #0F2010",
":*	c #0D220D",
"<*	c #090308",
"[*	c #07020B",
"}*	c #04050B",
"|*	c #020206",
"1*	c #080300",
"2*	c #010A01",
"3*	c #0A3619",
"4*	c #010600",
"5*	c #040205",
"6*	c #20361F",
"7*	c #030502",
"8*	c #050802",
"9*	c #040704",
"0*	c #000106",
"a*	c #010109",
"b*	c #010407",
"c*	c #020402",
"d*	c #020401",
"e*	c #15361D",
"f*	c #010900",
"g*	c #080203",
"h*	c #0A0205",
"i*	c #040105",
"j*	c #050005",
"k*	c #100307",
"l*	c #020602",
"m*	c #0A0000",
"n*	c #123623",
"o*	c #040201",
"p*	c #080006",
"q*	c #060006",
"r*	c #070009",
"s*	c #070008",
"t*	c #253223",
"u*	c #060105",
"v*	c #050408",
"w*	c #090106",
"x*	c #090102",
"y*	c #1B3220",
"z*	c #050401",
"A*	c #060309",
"B*	c #09000A",
"C*	c #060202",
"D*	c #070202",
"E*	c #103B29",
"F*	c #030102",
"G*	c #20351C",
"H*	c #030104",
"I*	c #030105",
"J*	c #040300",
"K*	c #14351A",
"L*	c #000702",
"M*	c #000504",
"N*	c #000203",
"O*	c #060303",
"P*	c #000902",
"Q*	c #080503",
"R*	c #0D3A24",
"S*	c #1F381D",
"T*	c #040400",
"U*	c #12371A",
"V*	c #000A00",
"W*	c #020703",
"X*	c #030406",
"Y*	c #020305",
"Z*	c #040104",
"`*	c #090000",
" =	c #10361E",
".=	c #080701",
"+=	c #030009",
"@=	c #030107",
"#=	c #203422",
"$=	c #010204",
"%=	c #010502",
"&=	c #010402",
"*=	c #000201",
"==	c #020406",
"-=	c #020203",
";=	c #050203",
">=	c #15341E",
",=	c #020003",
"'=	c #020500",
")=	c #273828",
"!=	c #010102",
"~=	c #010801",
"{=	c #233022",
"]=	c #020503",
"^=	c #020302",
"/=	c #1F321F",
"(=	c #050307",
"_=	c #000002",
". + @ # $ % & * = - ; > > , ' ) ! ~ { ] ^ / ( ( ( ( ( ( _ : < [ } | / / / / / / ",
"1 2 3 4 5 6 , 7 8 9 9 9 9 9 9 0 a b c d e f 9 9 9 9 9 9 g h 8 i j k l 9 9 9 9 9 ",
"1 2 3 4 5 6 , 7 8 9 9 9 9 9 9 0 a b c d e f 9 9 9 9 9 9 g h 8 i j k l 9 9 9 9 9 ",
"1 2 3 4 5 6 , 7 8 9 9 9 9 9 9 0 a b c d e f 9 9 9 9 9 9 g h 8 i j k l 9 9 9 9 9 ",
"1 2 3 4 5 6 , 7 8 9 9 9 9 9 9 0 a b c d e f 9 9 9 9 9 9 g h 8 i j k l 9 9 9 9 9 ",
"1 2 3 4 5 6 , 7 8 9 9 9 9 9 9 0 a b c d e f 9 9 9 9 9 9 g h 8 i j k l 9 9 9 9 9 ",
"1 2 3 4 5 6 , 7 8 9 9 9 9 9 9 0 a b c d e f 9 9 9 9 9 9 g h 8 i j k l 9 9 9 9 9 ",
"m n o p q r s t u v w x e y z A B C D E o F c c c c c c o m c G H I n J K L e M ",
"N O P Q R S T U V W X Y Z `  ...+.@.#.$.%.&.*.*.*.*.*.*.=.-.;.>.,.'.).!.~.{.].^.",
"/.(._.:.<.[.}.|.1.2.3.4.5.6.7.8.9.0.a.b.c.d.e.e.e.e.e.e.f.(.g.h.i.j.k.l.m.n.o.p.",
"q.8 8 r.s.t.u.v.w.x.y.z.A.B.C.D.E.F.G.H.I.J.8 8 8 8 8 8 K.s.L.M.N.O.P.Q.R.S.T.U.",
"V.q.W., X.Y.Z.`. +.+++@+#+$+%+&+*+=+-+;+>+,+0 0 0 0 0 0 '+)+)+!+~+{+]+^+/+(+_+:+",
"<+3 [+}+|+1+2+3+4+5+6+7+8+9+0+a+b+c+d+e+f+g+9 9 9 9 9 9 h+i+j+k+l+m+n+o+p+q+r+s+",
"2 t+u+v+w+x+y+z+A+B+C+D+E+u+F+G+H+I+J+K+L+J.M+M+M+M+M+M+N+O+P+Q+R+S+T+U+V+W+X+Y+",
"4 Z+Z+`+ @.@+@@@#@$@%@&@*@( =@-@;@>@,@'@M )@9 9 9 9 9 9 !@~@{@]@^@/@(@_@9 ( ( t+",
"4 h :@<@!@[@}@|@1@2@3@4@0 ( 5@6@7@8@9@0@a@b@9 9 9 9 9 9 q+c@8 d@e@f@g@/ 9 / t+9 ",
"h@i@:@<@!@j@+@k@l@m@n@o@p@9 y+f !@q@r@s@t@u@9 9 9 9 9 9 v@w@p@x@y@z@A@B@/ 9 9 t+",
"h@4 Z+`+C@D@E@F@G@H@I@3 J@K@6@v+) L@M@N@O@P@9 9 9 9 9 9 l Q@R@S@T@U@V@B@t+9 / ( ",
"4 i@W@`+X@Y@Z@`@ #.#+#@###r.V.v+$#%#&#*#=#-#9 9 9 9 9 9 <+w@;#>#,#'#)#9 9 / / t+",
"!#i@W@~#g {#]#^#/#(#_#:#p@i+y+v+<#[#}#|#1#2#9 9 9 9 9 9 <+3#4#5#6#7#8#/ 9 t+9 9 ",
"9#0#a#b#c#d#e#f#g#h#h#h#h#h#h#i#j#k#l#m#n#o#p#q#r#s#q#t#u#v#w#x#y#z#A#B#B#B#B#B#",
"C#D#E#F#G#H#I#J#K#L#L#L#L#L#L#M#N#O#P#Q#R#S#T#G.U#V#W#X#Y#Z#`# $.$+$@$#$#$#$#$#$",
"g ! $$%$&$*$=$-$;$h h h h h h >$, ,$'$)$!$~${$]$^$/$($_$[+:$<$[$}$y+|$]$]$]$]$]$",
"1$2$3$4$[+5$6$7$8$9$9$9$9$9$9$0$a$b$c$d$e$f$l g$M+h$i$j$k$l$m$n$o$p$q$r$r$r$r$r$",
"s$~@k t$u$v$w$x$L+3 3 3 3 3 3 O@y$z$A$B$C$D$E$F$8 a@a@q.G$H$I$J$K$L$M$q.q.q.q.q.",
"N$0$<+O$P$Q$R$S$T$c@c@c@c@c@c@h$4$U$V$W$X$Y$Z$`$(  %.%k +%@%#%$%%%&%*%>$>$>$>$>$",
"=%-%;%>%,%'%)%!%c W.W.W.W.W.W.i+}+~%{%]%^%/%(%_%:%<%>$[%}%|%1%2%3%.%2$>$>$>$>$>$",
"4%5%6%7%8%9%0%a%m 0 0 0 0 0 0 q.>$!#j b%c%d%e%f%g%h%3 i%j%k%l%m%n%o%p%0 0 0 0 0 ",
"t+q%r%s%t%u%v%w%K.v@v@v@v@v@v@g @ ~%T$x%y%z%A%B%C%1+q$<%D%E%F%G%8 H%I%v@v@v@v@v@",
"J%K%L%M%N%O%P%Q%W.v@v@v@v@v@v@R%}+S%c T%U%V%W%X%Y%Z%`% &.&+&@&#&$&%&&&v@v@v@v@v@",
"*&=&-&;&>&,&. '&N$t+t+t+t+t+t+R@c@X+)&!&~&{&]&^&/&(&_&:&<&[&%&}&|&j$1&t+t+t+t+t+",
"2&3&4&5&6&7&8&9&0&a&a&a&a&a&a&a&q$b&c&d&e&A f&g&h&i&j&k&l&m&n&o&L+p&Y.a&a&a&a&a&",
"q&r&s&t&u&v&w&x&y&z&z&z&z&z&z&A&B&C&D&E&F&G&H&I&J&K&L&M&N&O&P&Q&R&S&T&U&U&U&U&U&",
"V&W&X&Y&Z&`& *.*+*@*@*@*@*@*@*#*$*%*&***=*-*;*>*,*'*)*!*~*{*]*^*/*(*_*:*:*:*:*:*",
"<*[*}*|*1*2*s.3*4*/ / / / / / @#5*-@o 6*K 7*8*9*0*a*b*c*d*K%) e*f*8+|$/ / / / / ",
"g*h*i*j*k*l*m*n*o*p*p*p*p*p*p*q*r*s*=%t*/ u*~ 5@<@v*9$g }+w*x*y*z*A*B*{${${${${$",
"q.q.O@3 C*T$D*E*8 g g g g g g q.F*q+T$G*T$!@H*l I*M+h@ +K@3#J*K*o <%z$0 0 0 0 0 ",
"e L*M*N*O*P*Q*R*a&8 8 8 8 8 8 c [+B A$S*o p@M+M+q+<%/ t+t.T*p U*V*W*B a&a&a&a&a&",
"X*:%Y*Z*q n%`* =.=l l l l l l f +=@=n #=e $=%=&=*=*@==2#-=@&;=>=K _++=v+v+v+v+v+",
"-=y+,=,=:@t.'=)=3%v@X+!=M+q+X+I*k -@~={=T$]=^=i+<%9 C%3 l &=~=/=e&k (=y+V.V._=_="};
