/* XPM */
static char * imagewritermodule_xpm[] = {
"40 40 262 2",
"  	c None",
". 	c #6EECE6",
"+ 	c #6EECE7",
"@ 	c #6FEFE8",
"# 	c #70F0E8",
"$ 	c #71F2E9",
"% 	c #70F1E8",
"& 	c #6EEDE7",
"* 	c #6DEBE6",
"= 	c #6DEAE6",
"- 	c #6BE8E5",
"; 	c #6FF0E8",
"> 	c #71F0E8",
", 	c #74E7E8",
"' 	c #79DAE7",
") 	c #7CD1E6",
"! 	c #7CD2E6",
"~ 	c #7BD4E6",
"{ 	c #79D9E7",
"] 	c #76E3E7",
"^ 	c #73EBE8",
"/ 	c #71EFE7",
"( 	c #78DDE6",
"_ 	c #8CA6E3",
": 	c #A268DE",
"< 	c #AE48DC",
"[ 	c #AC4EDD",
"} 	c #A858DD",
"| 	c #A366DE",
"1 	c #968AE1",
"2 	c #88B0E4",
"3 	c #7AD9E7",
"4 	c #72EFE8",
"5 	c #71F1E8",
"6 	c #76E2E7",
"7 	c #86B3E3",
"8 	c #A859DD",
"9 	c #C018D9",
"0 	c #C706D8",
"a 	c #C40DD8",
"b 	c #C114D9",
"c 	c #C017D9",
"d 	c #BA29DA",
"e 	c #B33CDB",
"f 	c #78DDE7",
"g 	c #73ECE8",
"h 	c #83BDE4",
"i 	c #A06DDF",
"j 	c #AD4BDC",
"k 	c #B13FDB",
"l 	c #B140DC",
"m 	c #AD4BDD",
"n 	c #AE4ADC",
"o 	c #B730DB",
"p 	c #BF1BD9",
"q 	c #C30ED8",
"r 	c #AF47DC",
"s 	c #81C3E5",
"t 	c #77E1E7",
"u 	c #9885E1",
"v 	c #B92AD9",
"w 	c #B631DA",
"x 	c #9883E0",
"y 	c #82BEE5",
"z 	c #7ECDE6",
"A 	c #82C1E5",
"B 	c #9392E2",
"C 	c #C115D9",
"D 	c #85BAE5",
"E 	c #72EDE8",
"F 	c #A560DE",
"G 	c #C30FD8",
"H 	c #B72FDA",
"I 	c #8E9FE2",
"J 	c #74E6E7",
"K 	c #81C5E5",
"L 	c #AC4FDD",
"M 	c #C212D8",
"N 	c #B23FDC",
"O 	c #84BBE5",
"P 	c #A561DE",
"Q 	c #B338DA",
"R 	c #8DA1E3",
"S 	c #7AD5E6",
"T 	c #79DBE7",
"U 	c #9789E1",
"V 	c #AF45DC",
"W 	c #7FC9E6",
"X 	c #A465DE",
"Y 	c #BE1BD8",
"Z 	c #B534DB",
"` 	c #A16BDF",
" .	c #A269DF",
"..	c #AA54DD",
"+.	c #C40CD8",
"@.	c #C113D9",
"#.	c #A06EDF",
"$.	c #78DCE7",
"%.	c #A463DE",
"&.	c #C016D8",
"*.	c #BA26DA",
"=.	c #BE1CD9",
"-.	c #BD20D9",
";.	c #BD1ED9",
">.	c #AD4CDD",
",.	c #86B5E4",
"'.	c #A26ADF",
").	c #BD1DD8",
"!.	c #B043DC",
"~.	c #75E6E8",
"{.	c #A464DE",
"].	c #B82BDA",
"^.	c #9981E0",
"/.	c #87B2E4",
"(.	c #80C8E6",
"_.	c #9E75E0",
":.	c #BF1AD9",
"<.	c #BD1FD8",
"[.	c #9687E0",
"}.	c #77DEE6",
"|.	c #76E4E8",
"1.	c #9490E2",
"2.	c #B731DB",
"3.	c #B82CDA",
"4.	c #9886E1",
"5.	c #77E0E7",
"6.	c #8AAAE3",
"7.	c #968BE1",
"8.	c #84BDE5",
"9.	c #73EAE8",
"0.	c #72EEE8",
"a.	c #909BE2",
"b.	c #BE1ED9",
"c.	c #9F73DF",
"d.	c #BE1DD9",
"e.	c #A06FDF",
"f.	c #7FCAE6",
"g.	c #88B2E4",
"h.	c #9F72DF",
"i.	c #88B1E4",
"j.	c #82C0E5",
"k.	c #87B3E4",
"l.	c #8AACE4",
"m.	c #B23DDC",
"n.	c #80C7E5",
"o.	c #9F71DF",
"p.	c #C40BD8",
"q.	c #9297E2",
"r.	c #B439DB",
"s.	c #9D77E0",
"t.	c #89AFE4",
"u.	c #7CD3E6",
"v.	c #A75BDE",
"w.	c #B72FDB",
"x.	c #9B7DE0",
"y.	c #AE49DC",
"z.	c #AB50DD",
"A.	c #B23EDC",
"B.	c #AF46DC",
"C.	c #8CA5E3",
"D.	c #8AABE3",
"E.	c #B633DB",
"F.	c #A85ADE",
"G.	c #7BD6E7",
"H.	c #A367DF",
"I.	c #BC22DA",
"J.	c #8DA3E3",
"K.	c #9983E1",
"L.	c #B92BDA",
"M.	c #AA53DD",
"N.	c #7DCFE6",
"O.	c #9982E0",
"P.	c #B044DC",
"Q.	c #BA28DA",
"R.	c #BA27DA",
"S.	c #C310D8",
"T.	c #C016D9",
"U.	c #89ADE4",
"V.	c #B437DB",
"W.	c #C607D8",
"X.	c #74E9E8",
"Y.	c #83C0E5",
"Z.	c #9491E2",
"`.	c #958EE1",
" +	c #AB51DD",
".+	c #C508D8",
"++	c #C50AD8",
"@+	c #8F9FE3",
"#+	c #74E8E8",
"$+	c #BF19D9",
"%+	c #BB25DA",
"&+	c #7AD8E7",
"*+	c #A75CDE",
"=+	c #B33BDB",
"-+	c #B82EDA",
";+	c #9198E2",
">+	c #9393E2",
",+	c #C509D8",
"'+	c #75E5E8",
")+	c #BD1FD9",
"!+	c #C606D8",
"~+	c #83BFE5",
"{+	c #A65EDE",
"]+	c #77DFE7",
"^+	c #9C79E0",
"/+	c #A368DF",
"(+	c #BC23DA",
"_+	c #C211D8",
":+	c #B33ADB",
"<+	c #9D76E0",
"[+	c #B536DB",
"}+	c #7BD5E6",
"|+	c #85B9E4",
"1+	c #8CA7E3",
"2+	c #B632DB",
"3+	c #BB26DA",
"4+	c #968CE1",
"5+	c #86B6E4",
"6+	c #9A80E0",
"7+	c #A65DDE",
"8+	c #7DCEE6",
"9+	c #83BEE5",
"0+	c #85B8E4",
"a+	c #B535DB",
"b+	c #A957DD",
"c+	c #A65FDE",
"d+	c #AD4DDD",
"e+	c #78DEE7",
"f+	c #B142DC",
"g+	c #A070DF",
"h+	c #80C6E5",
"i+	c #8BA7E3",
"j+	c #9199E2",
"k+	c #7CCFE5",
"l+	c #75E5E7",
"m+	c #7ECCE6",
"n+	c #AC50DD",
"o+	c #A955DD",
"p+	c #9294E2",
"q+	c #7AD6E6",
"r+	c #9E74DF",
"s+	c #958BE1",
"t+	c #74E4E7",
"u+	c #B634DB",
"v+	c #9788E1",
"w+	c #A958DD",
"x+	c #AE46DC",
"y+	c #7FC7E5",
"z+	c #7DD0E6",
"A+	c #82C2E5",
"B+	c #8F9DE2",
"C+	c #72EDE7",
"D+	c #87B4E4",
"E+	c #AF44DC",
"F+	c #C014D8",
"G+	c #B929D9",
"H+	c #89ABE3",
"I+	c #A856DD",
"J+	c #BC22D9",
"K+	c #8EA1E3",
"L+	c #9787E1",
"M+	c #A956DD",
". + @ # # $ $ $ $ $ $ $ $ $ $ $ $ $ $ $ $ $ $ $ $ $ $ $ $ $ $ $ $ $ $ $ $ $ % % ",
"% # % $ % $ $ $ $ $ $ $ $ $ $ $ $ $ $ $ $ $ $ $ $ $ $ $ $ $ $ $ $ $ $ $ % % # # ",
"$ % % % % $ $ $ $ $ $ $ $ $ $ $ $ $ $ $ $ $ $ $ $ $ $ $ $ $ $ $ $ $ % # % # & * ",
"$ $ $ $ $ $ $ $ $ % $ $ $ $ $ $ $ $ $ $ $ $ $ $ $ $ $ $ $ $ $ $ $ % # @ & + = - ",
"$ $ $ $ $ $ $ $ $ $ $ $ $ $ $ $ $ $ $ $ $ $ $ $ $ $ $ $ $ $ % % # # ; # % % % % ",
"$ $ $ $ $ $ $ $ $ $ $ $ $ $ $ $ $ $ $ $ $ $ $ $ $ $ $ $ % % % % % % $ $ $ $ $ $ ",
"$ $ $ $ > , ' ) ! ~ { ] ^ > $ $ $ $ $ $ $ $ $ $ $ $ $ $ $ % $ $ $ $ $ $ $ $ $ $ ",
"$ $ $ / ( _ : < [ } | 1 2 3 4 $ $ $ $ $ $ $ $ $ $ $ $ $ $ $ $ $ $ $ $ $ $ $ $ $ ",
"$ $ 5 6 7 8 9 0 a b c d e 1 f 5 $ $ $ $ $ $ $ $ $ $ $ $ $ $ $ $ $ $ $ $ $ $ $ $ ",
"$ $ g h i j k l m n o p q r s 4 $ $ $ $ $ $ $ $ $ $ $ $ $ $ $ $ $ $ $ $ $ $ $ $ ",
"$ $ t u v w x y z A B l C l D E $ $ $ $ $ $ $ $ $ $ $ $ $ $ $ $ $ $ $ $ $ $ $ $ ",
"$ $ 3 F G H I J $ 4 K L M N O E $ $ $ $ $ $ $ $ $ $ $ $ $ $ $ $ $ $ $ $ $ $ $ $ ",
"$ $ 3 P b Q R S T z U d 0 V W > $ $ $ $ $ $ $ $ $ $ $ $ $ $ $ $ $ $ $ $ $ $ $ $ ",
"$ $ { X Y Z F `  ...d +.@.#.$.$ $ $ $ $ $ $ $ $ $ $ $ $ $ $ $ $ $ $ $ $ $ $ $ $ ",
"$ $ ' %.&.*.=.-.;.@.0 @.>.,.g $ $ $ $ $ $ $ $ $ $ $ $ $ $ $ $ $ $ $ $ $ $ $ $ $ ",
"$ $ T '.).w !.< r l V #.,.~.$ $ $ $ $ $ $ $ $ $ $ $ $ $ $ $ $ $ $ $ $ $ $ $ $ $ ",
"$ $ 3 {.G ].^./.D O (.T g $ $ $ $ $ $ $ $ $ $ $ $ $ $ $ $ $ $ $ $ $ $ $ $ $ $ $ ",
"$ $ $._.:.<.[.}.E E > > , |.^ $ $ $ $ $ $ $ $ $ $ $ $ $ $ $ $ $ $ $ $ $ $ $ $ $ ",
"$ $ |.1.2.3.4.t $ $ > 5.6.7.8.^ g f ) ! $.9.$ $ $ $ $ > E g g 0.5 $ $ $ $ $ $ $ ",
"$ $ , a.2.b.c.f $ $ 0.K ..d.e.f.g.h.m [ '.i.~.$ $ $ 4 $.j.,.k.A T 9.9.9.4 $ $ $ ",
"$ $ 9.l.m.d. .' $ $ > n.r a !.o.e c 0 p.M [ O 0.$ 5 f q.[ l r.V s.2 2 k.3 4 $ $ ",
"$ $ ^ t.r.b F 3 $ $ $ u.v.C -.;.0 C w.d q p x.5.$ g k.y.b 9 @.M b.z.A.B.C., $ $ ",
"$ $ 9.D.E.q F.G.$ $ $ $.H.M p.p.I.P J.K.L.a M.N.5 t O.I.b.P.m Q.0 R.S.T.o.f $ $ ",
"$ $ ^ U.V.b F 3 $ $ $ |.x.@.W.@. .(.X.W z.c V Y.0.3 F G L.Z.j.`. +d .+++[ u.$ $ ",
"$ $ , @+2.9 P 3 $ $ $ #+`.$+W.%+l.E $ &+*+T.=+k.g 3 %.M -+;+~.$.>+R.,+0 e n.> $ ",
"$ $ '+Z.)+b '.T $ $ $ '+4.M !+Q.~+$ $ &+{+$+A.,.g ]+^+=.=./+(.{ u (+_++.:+D E $ ",
"$ $ ^ A <+'.t.#+$ $ $ ~.1.9 !+[+W $ $ }+} _+m.|+E 9.1+2+++3+H.4+ +T.M M A.5+g $ ",
"$ $ $ ^ $.' #+$ $ $ $ 0.s {+[+6+]+$ $ ' /+@.7+8+> 5 ! | 9 M p L.b.G 9 M r.k.g $ ",
"$ $ $ $ $ $ $ $ $ $ $ $ 9.8+9+3 > $ $ X.,.K.k., $ $ ^ 0+` :+=.S.M 3+a+9 l 5+g $ ",
"$ $ $ $ $ $ $ $ $ $ $ $ $ > 0.> $ $ $ $ X.6 X.$ $ $ $ ^ }+D.<+b+c+O.d+M N D E $ ",
"$ > , f ' ' $.|.g 5 $ $ $ $ $ $ $ > 9.'+|.~.g 5 $ $ $ $ 5 ^ e+~ G.O f+0 P.(.> $ ",
"> 5.D.<+/+ .g+7.U.h+) ~ u.) N.! ! K i+1.`.j+g.k+l+> $ $ $ $ $ $ 9._ E.M v.}+$ $ ",
"0.m+H.;.c =.:.(+E.f+n+ +z.z.m z.n+P.o %+L.L.V.o+p+q+> $ $ $ $ $ { r+d.p s.]+$ $ ",
"> { 1.L l e 3+T.G q M G G @.G @.q a S.:.(+T.+.+.*.s+t+$ $ $ $ #+D.=++.u+1+9.$ $ ",
"$ g &+8.k.6.v+%.>.B.z. +z.z.m z. +L o+'.s.w+)+W.,+x+y+4 $ > '+5+F.T.@.P z+5 $ $ ",
"$ $ > g ^ 9.|.{ N.8+! ~ u.) N.! ~ u.}+T ]+h+{+G W.*.^.O W A+B+} b.q P.6.X.$ $ $ ",
"$ $ $ $ $ $ $ $ $ $ $ $ $ $ $ $ $ $ $ $ $ C+D+E+q F+G+P.y.y.u+$+G A.@+6 $ $ $ $ ",
"$ $ $ $ $ $ $ $ $ $ $ $ $ $ $ $ $ $ $ $ $ $ J H+I+J+@.b G C T.b.d+K+t $ $ $ $ $ ",
"$ $ $ $ $ $ $ $ $ $ $ $ $ $ $ $ $ $ $ $ $ $ $ , j.L+%.M+[ b+H.O.|+|.$ $ $ $ $ $ ",
"$ $ $ $ $ $ $ $ $ $ $ $ $ $ $ $ $ $ $ $ $ $ $ $ 0.] 3 ! N.~ 3 t g $ $ $ $ $ $ $ "};
