/* XPM */
static char * effectvtransformmodule_xpm[] = {
"40 40 776 2",
"  	c None",
". 	c #474740",
"+ 	c #9C93A2",
"@ 	c #A096A2",
"# 	c #9E95A4",
"$ 	c #9F98A0",
"% 	c #A097A7",
"& 	c #A198A4",
"* 	c #A09AA0",
"= 	c #A39C9E",
"- 	c #A19AA3",
"; 	c #A299A4",
"> 	c #A49CA4",
", 	c #A39CA6",
"' 	c #A39BA1",
") 	c #A29BA5",
"! 	c #A29BA2",
"~ 	c #A499A6",
"{ 	c #A19AA2",
"] 	c #A29DA2",
"^ 	c #A399A0",
"/ 	c #A2979E",
"( 	c #A2989C",
"_ 	c #9F979F",
": 	c #9D959C",
"< 	c #9C939B",
"[ 	c #9C929B",
"} 	c #999099",
"| 	c #938E92",
"1 	c #4F5458",
"2 	c #B5B9CD",
"3 	c #B6BACB",
"4 	c #B6BCCF",
"5 	c #B7BDCE",
"6 	c #B9BFCF",
"7 	c #B9BDD0",
"8 	c #B9BFD3",
"9 	c #BAC0CE",
"0 	c #BBC0D1",
"a 	c #BBBFCF",
"b 	c #BABFD2",
"c 	c #BCBECF",
"d 	c #BCBFCF",
"e 	c #BDC0CE",
"f 	c #BBBECD",
"g 	c #BBBDCD",
"h 	c #BBBDCB",
"i 	c #BBBDCC",
"j 	c #BCBCCD",
"k 	c #B8BACB",
"l 	c #BABACB",
"m 	c #B9B8C7",
"n 	c #B8B7C2",
"o 	c #B7B6C3",
"p 	c #B5B4C2",
"q 	c #B4B2BF",
"r 	c #B4B1BE",
"s 	c #B0AEBB",
"t 	c #AEADB7",
"u 	c #545E66",
"v 	c #C5D5F0",
"w 	c #C7D7EF",
"x 	c #C5D7F0",
"y 	c #C5D8F0",
"z 	c #C6D8F0",
"A 	c #C7D8F0",
"B 	c #C8DAEF",
"C 	c #C7DBEC",
"D 	c #C9DBF1",
"E 	c #CADAF0",
"F 	c #CAD9ED",
"G 	c #CBDBF1",
"H 	c #CDDCF2",
"I 	c #CADEF5",
"J 	c #CCDDF0",
"K 	c #CCDCF3",
"L 	c #CFDCF4",
"M 	c #CDDDF2",
"N 	c #CDDEF3",
"O 	c #CFDDF1",
"P 	c #CCDCF0",
"Q 	c #CDDCF1",
"R 	c #CDDBEF",
"S 	c #CCDBF0",
"T 	c #CCDAF0",
"U 	c #D0D9F1",
"V 	c #CAD8EE",
"W 	c #C9D7EC",
"X 	c #C9D6ED",
"Y 	c #556257",
"Z 	c #C5D8F2",
"` 	c #CCDBF1",
" .	c #C6D8EE",
"..	c #C8D9F0",
"+.	c #CAD9EF",
"@.	c #C9D9F0",
"#.	c #CADAEE",
"$.	c #CADAEB",
"%.	c #CADBEF",
"&.	c #CCDDF1",
"*.	c #C7E2F4",
"=.	c #CDDEF0",
"-.	c #CEDCF4",
";.	c #CFDFF2",
">.	c #CDDFF3",
",.	c #CCDFF4",
"'.	c #D0E1ED",
").	c #CEDEF0",
"!.	c #CEDFEF",
"~.	c #D0DEE9",
"{.	c #CCDDEF",
"].	c #D7DBF5",
"^.	c #CCD9EE",
"/.	c #CAD9EB",
"(.	c #CCD6EE",
"_.	c #55605E",
":.	c #C4D6F1",
"<.	c #CAD9F0",
"[.	c #C7D8F1",
"}.	c #C8D8EF",
"|.	c #C8D9F1",
"1.	c #C9DAEF",
"2.	c #C9DBF0",
"3.	c #CBDBF0",
"4.	c #CADAF1",
"5.	c #C8DAEC",
"6.	c #CADFF4",
"7.	c #CDDEF1",
"8.	c #CDDCF5",
"9.	c #CFDEF4",
"0.	c #CDDEF2",
"a.	c #CDE0EE",
"b.	c #CDDDF1",
"c.	c #CEDDEE",
"d.	c #CDDDF0",
"e.	c #D2DAF1",
"f.	c #CAD8ED",
"g.	c #CAD7EE",
"h.	c #555D6F",
"i.	c #C4D6EF",
"j.	c #C3D8EF",
"k.	c #C6D7EE",
"l.	c #C8D7F1",
"m.	c #C7D9F2",
"n.	c #C8DAF2",
"o.	c #CADCF0",
"p.	c #CCDDF4",
"q.	c #CBDCF6",
"r.	c #CBDDF4",
"s.	c #CDDCF3",
"t.	c #CEDDF6",
"u.	c #CEDDF4",
"v.	c #CEDEF3",
"w.	c #CFDEF5",
"x.	c #CFDEF2",
"y.	c #CFDEF3",
"z.	c #D0DDF6",
"A.	c #CEDDF1",
"B.	c #CFDCF0",
"C.	c #CBDDF2",
"D.	c #CAD9EE",
"E.	c #C7D9EE",
"F.	c #555F68",
"G.	c #C6D7F0",
"H.	c #C5DAF0",
"I.	c #C6D7F1",
"J.	c #B7C5D9",
"K.	c #C9DDE8",
"L.	c #A2AEC5",
"M.	c #AEBCD2",
"N.	c #BDCBE1",
"O.	c #C8DBF2",
"P.	c #C9DDF2",
"Q.	c #CCDCF2",
"R.	c #CADCF1",
"S.	c #CBDDF3",
"T.	c #CEDEF6",
"U.	c #CCDEF2",
"V.	c #CEDEF1",
"W.	c #CFDFF3",
"X.	c #CDDFF0",
"Y.	c #CEDDF2",
"Z.	c #CEDCF3",
"`.	c #CBDAEF",
" +	c #C8D9ED",
".+	c #4A6470",
"++	c #C2D8EF",
"@+	c #C8D8F2",
"#+	c #C2D7E7",
"$+	c #D9EBF2",
"%+	c #7D879C",
"&+	c #A7B6CC",
"*+	c #C3D2E8",
"=+	c #C6DCF0",
"-+	c #C6D9F2",
";+	c #CCDAF2",
">+	c #CCE0F0",
",+	c #CBDEEF",
"'+	c #C6DFED",
")+	c #CCDCEE",
"!+	c #CBDCF0",
"~+	c #C9DDED",
"{+	c #CDDEF4",
"]+	c #D0DCF4",
"^+	c #D3DFF6",
"/+	c #D0DDF2",
"(+	c #CBDDED",
"_+	c #C8DFEE",
":+	c #CAD8F0",
"<+	c #C9D8F2",
"[+	c #4E626F",
"}+	c #C8D6F2",
"|+	c #C8D8F3",
"1+	c #C3D7E7",
"2+	c #D6E8F0",
"3+	c #7B869A",
"4+	c #A6B5CB",
"5+	c #C3D2E7",
"6+	c #C7DCF0",
"7+	c #CCDFF1",
"8+	c #CADCEE",
"9+	c #C2D8E9",
"0+	c #C8D7EA",
"a+	c #C8D9EC",
"b+	c #C7DAEC",
"c+	c #CDDDF3",
"d+	c #D0DCF3",
"e+	c #D2DFF5",
"f+	c #CFDDF2",
"g+	c #CCDDEE",
"h+	c #C9DEEE",
"i+	c #565E66",
"j+	c #C4D5EE",
"k+	c #C5D8EB",
"l+	c #C6D9F1",
"m+	c #C4D3E6",
"n+	c #DCE8F7",
"o+	c #9CA7B3",
"p+	c #A1B2D0",
"q+	c #8190B9",
"r+	c #BBCBE3",
"s+	c #C4D3E9",
"t+	c #C3D5E7",
"u+	c #C5D6EA",
"v+	c #CCDCF1",
"w+	c #CDDEEF",
"x+	c #B2BFD0",
"y+	c #848C98",
"z+	c #87909B",
"A+	c #909AA5",
"B+	c #78808B",
"C+	c #B7C5D7",
"D+	c #CFDFF1",
"E+	c #CDDFF1",
"F+	c #CEDFF2",
"G+	c #CEDEF4",
"H+	c #C8D8EE",
"I+	c #545D6E",
"J+	c #C4D7F0",
"K+	c #C6D7EF",
"L+	c #A3B0C1",
"M+	c #949DB2",
"N+	c #929DB2",
"O+	c #8E99AC",
"P+	c #B2C1D4",
"Q+	c #C7D8EE",
"R+	c #C9DCF1",
"S+	c #CADCED",
"T+	c #C6D7E9",
"U+	c #C6D6E9",
"V+	c #B4B5C2",
"W+	c #787276",
"X+	c #757A83",
"Y+	c #99A6B4",
"Z+	c #6976A9",
"`+	c #ADBCDE",
" @	c #CFDFF0",
".@	c #D0DFF0",
"+@	c #D0DFF2",
"@@	c #CCDDED",
"#@	c #CDDCEF",
"$@	c #5C5D62",
"%@	c #C3D5F1",
"&@	c #C2D5ED",
"*@	c #C4D7F3",
"=@	c #C7D9F1",
"-@	c #C9D6EC",
";@	c #C5DAED",
">@	c #C8DAEE",
",@	c #BDCBE0",
"'@	c #9AA8B8",
")@	c #A6AEC1",
"!@	c #B0BBCD",
"~@	c #B7C1D3",
"{@	c #B9C9DD",
"]@	c #B7C4D5",
"^@	c #838490",
"/@	c #666C75",
"(@	c #8B9AA9",
"_@	c #585D6B",
":@	c #A5B2C2",
"<@	c #D1E0F1",
"[@	c #D0DFF4",
"}@	c #D0DFF3",
"|@	c #D0DEF4",
"1@	c #CEDFF1",
"2@	c #CFDDF3",
"3@	c #CDDAF1",
"4@	c #605C5C",
"5@	c #C2D4F1",
"6@	c #C2D5EC",
"7@	c #C4D7F4",
"8@	c #C9D9F4",
"9@	c #CAD7E9",
"0@	c #C6DCEF",
"a@	c #C6DBF2",
"b@	c #B7C4D8",
"c@	c #8593A0",
"d@	c #979BAE",
"e@	c #A6AEBF",
"f@	c #B1B7C7",
"g@	c #B2C0D4",
"h@	c #B9C5D7",
"i@	c #91929D",
"j@	c #686E76",
"k@	c #8B9BAA",
"l@	c #595E6A",
"m@	c #A4B1C1",
"n@	c #D2E0F1",
"o@	c #D0DFF5",
"p@	c #D1DFF4",
"q@	c #D0DEF5",
"r@	c #CCDDF2",
"s@	c #535965",
"t@	c #BACAE3",
"u@	c #BCCDE6",
"v@	c #C0D2EA",
"w@	c #C7DAF0",
"x@	c #CADBF0",
"y@	c #CBDCEE",
"z@	c #B5C1D3",
"A@	c #9AA0B0",
"B@	c #B0BBCE",
"C@	c #B5C2D4",
"D@	c #CCD9E7",
"E@	c #A6B4C8",
"F@	c #B7C7D6",
"G@	c #8F95A0",
"H@	c #7F8A95",
"I@	c #A2B5C2",
"J@	c #819098",
"K@	c #ABB8C7",
"L@	c #D0DFF1",
"M@	c #CBDCEF",
"N@	c #5F646C",
"O@	c #D2E7F5",
"P@	c #D8F0FA",
"Q@	c #C2D4E6",
"R@	c #C9DBEE",
"S@	c #C8D5E9",
"T@	c #CADCF2",
"U@	c #CCDBF2",
"V@	c #B9C8D6",
"W@	c #B1BCC1",
"X@	c #6F767C",
"Y@	c #5C6167",
"Z@	c #606474",
"`@	c #97A5B6",
" #	c #CDE0F1",
".#	c #CBE0F0",
"+#	c #CEE1F1",
"@#	c #CFE2F3",
"##	c #CEE2F1",
"$#	c #D0E1F2",
"%#	c #BBC8D8",
"&#	c #CCDCE8",
"*#	c #B3BFCD",
"=#	c #A2ADBC",
"-#	c #CAD4EA",
";#	c #C2D0E2",
">#	c #CEDCEE",
",#	c #626772",
"'#	c #BFCFE0",
")#	c #D2E1EF",
"!#	c #A5B5E0",
"~#	c #B7C5DB",
"{#	c #C2D1E8",
"]#	c #C4D4E8",
"^#	c #C7D8EC",
"/#	c #CCDEEB",
"(#	c #C3D4E8",
"_#	c #B7C2D0",
":#	c #8D90A2",
"<#	c #A0ACBA",
"[#	c #B2C3D1",
"}#	c #D1E0EE",
"|#	c #A1B0C2",
"1#	c #D0E1F5",
"2#	c #CFE2F6",
"3#	c #D0E2F4",
"4#	c #D1E3F3",
"5#	c #D2E4F4",
"6#	c #CFE3F4",
"7#	c #BEC7D4",
"8#	c #B8AAB4",
"9#	c #91959D",
"0#	c #4D5052",
"a#	c #AEB6C0",
"b#	c #BBCAD8",
"c#	c #CCDEEE",
"d#	c #66646E",
"e#	c #BDC8DA",
"f#	c #B9B8CF",
"g#	c #9B9FD0",
"h#	c #ABB2CB",
"i#	c #D3EEFF",
"j#	c #DAF0FC",
"k#	c #DCF0FC",
"l#	c #E4F8FF",
"m#	c #C0D0E6",
"n#	c #C0CCDB",
"o#	c #CCD9E9",
"p#	c #CEDEEF",
"q#	c #D3E6F8",
"r#	c #DCEDF9",
"s#	c #93A2B2",
"t#	c #CFE2FB",
"u#	c #D0E4F6",
"v#	c #D2E3F4",
"w#	c #D6E5FB",
"x#	c #D1E4F4",
"y#	c #C6C2CA",
"z#	c #9E686F",
"A#	c #8B8890",
"B#	c #474A4B",
"C#	c #99A0AB",
"D#	c #B8C5D3",
"E#	c #CDDEEE",
"F#	c #CBDEF3",
"G#	c #58576A",
"H#	c #ABB7CD",
"I#	c #A3A9C1",
"J#	c #9FA9CD",
"K#	c #9BA1B7",
"L#	c #DEF3FF",
"M#	c #D7EAF5",
"N#	c #D8EBF4",
"O#	c #E4FAFF",
"P#	c #C2D2E6",
"Q#	c #BDCCDA",
"R#	c #B7C3D3",
"S#	c #BCCBDC",
"T#	c #C2D3E4",
"U#	c #C6D8E6",
"V#	c #A2B1C2",
"W#	c #CEE2F7",
"X#	c #D1E3F6",
"Y#	c #D1E3F5",
"Z#	c #D3E4F9",
"`#	c #D0E3F4",
" $	c #C4C5CF",
".$	c #A88089",
"+$	c #8B8B93",
"@$	c #444849",
"#$	c #969EA6",
"$$	c #CBDEF4",
"%$	c #49525E",
"&$	c #B9CADB",
"*$	c #CAD9EA",
"=$	c #B8C8DC",
"-$	c #ADABBB",
";$	c #D5DDE8",
">$	c #B0A38F",
",$	c #ABA19A",
"'$	c #A3AEC1",
")$	c #ADBCD3",
"!$	c #CDDFF5",
"~$	c #CEDFF0",
"{$	c #CCDEF0",
"]$	c #CFE1F2",
"^$	c #CFE3F7",
"/$	c #D2E4F6",
"($	c #D1E4F7",
"_$	c #D2E3F6",
":$	c #BFD1E0",
"<$	c #DCEBFB",
"[$	c #B3C4CB",
"}$	c #AAB8C0",
"|$	c #D6EBEF",
"1$	c #C3D4E2",
"2$	c #4F5770",
"3$	c #BDCEE2",
"4$	c #C0CFE3",
"5$	c #BECEE2",
"6$	c #B4B2C3",
"7$	c #E8F5FF",
"8$	c #BABEB7",
"9$	c #B3BBB3",
"0$	c #D0E3EE",
"a$	c #BACADC",
"b$	c #CEE0F3",
"c$	c #CCE2EC",
"d$	c #CFE1F4",
"e$	c #D1E5F8",
"f$	c #D3E4F5",
"g$	c #D2E4F3",
"h$	c #D4E4F8",
"i$	c #D3E4F6",
"j$	c #CCDEEF",
"k$	c #C1CEDE",
"l$	c #BECFE0",
"m$	c #C0D1E2",
"n$	c #BFD1DD",
"o$	c #C7D6E8",
"p$	c #CCDEF1",
"q$	c #536F78",
"r$	c #DFF6FF",
"s$	c #DAF6FF",
"t$	c #C6D8ED",
"u$	c #A7B1BA",
"v$	c #E8F6FF",
"w$	c #E5F6FF",
"x$	c #E4FBFF",
"y$	c #DEFAFF",
"z$	c #BCD2E2",
"A$	c #D1E0F0",
"B$	c #D6E4F1",
"C$	c #D2E1F0",
"D$	c #D1E2F3",
"E$	c #CDE4F3",
"F$	c #D2E4F5",
"G$	c #D1E4F9",
"H$	c #D1E2F5",
"I$	c #D4E4F5",
"J$	c #D1E5F5",
"K$	c #D3E3F6",
"L$	c #D2E3F8",
"M$	c #CFE7F1",
"N$	c #D0E2F0",
"O$	c #CEE2EF",
"P$	c #CCE2F6",
"Q$	c #CCE1EE",
"R$	c #CDDFEF",
"S$	c #C9DEE9",
"T$	c #576D77",
"U$	c #DAF5FF",
"V$	c #C6D8EC",
"W$	c #A7B3BE",
"X$	c #E6F4FF",
"Y$	c #E3F5FF",
"Z$	c #E2F9FF",
"`$	c #BBD1E1",
" %	c #D6E3F0",
".%	c #D1E1F0",
"+%	c #CDE4F4",
"@%	c #D2E5F4",
"#%	c #D1E4F8",
"$%	c #D1E3F4",
"%%	c #D4E4F6",
"&%	c #D1E4F6",
"*%	c #D2E4F7",
"=%	c #D0E7F2",
"-%	c #CCE0EF",
";%	c #CADEE9",
">%	c #5E687E",
",%	c #C8DAE8",
"'%	c #DEF4FF",
")%	c #B3C7E5",
"!%	c #BCCEE0",
"~%	c #B4CADA",
"{%	c #BCCCDF",
"]%	c #BFCDD9",
"^%	c #C7D8E8",
"/%	c #CFE5F5",
"(%	c #D2E3F3",
"_%	c #D5E5F5",
":%	c #D3E5F5",
"<%	c #D1E5F4",
"[%	c #D1E4F5",
"}%	c #D2E2F4",
"|%	c #CFE2F4",
"1%	c #CDE4F2",
"2%	c #CFE0F2",
"3%	c #CDDFF2",
"4%	c #CADDF3",
"5%	c #4A5562",
"6%	c #AAB6CB",
"7%	c #B1C2D4",
"8%	c #ABBDD6",
"9%	c #C9DCEF",
"0%	c #C9DCF0",
"a%	c #CCDFF2",
"b%	c #CCE1EF",
"c%	c #CDE0F3",
"d%	c #D0E2F3",
"e%	c #D0E4F8",
"f%	c #D1E2F4",
"g%	c #D2E3F7",
"h%	c #CEE4F1",
"i%	c #D2E5F6",
"j%	c #D3E5F4",
"k%	c #D2E3F5",
"l%	c #D0E4F4",
"m%	c #D2E1F4",
"n%	c #CEE3F0",
"o%	c #CEE0F1",
"p%	c #5A5675",
"q%	c #CDDEF6",
"r%	c #B4C6DA",
"s%	c #C8DEEB",
"t%	c #CAE2EC",
"u%	c #CDE1F1",
"v%	c #CEE4F2",
"w%	c #C9E6FB",
"x%	c #CFE4F3",
"y%	c #D2E8ED",
"z%	c #D3E2F4",
"A%	c #CFE6F7",
"B%	c #D4E6F7",
"C%	c #D2E2F5",
"D%	c #D0E0F0",
"E%	c #D2E2F6",
"F%	c #D2E2F2",
"G%	c #CFE2F1",
"H%	c #CDE2F1",
"I%	c #61567B",
"J%	c #C6D6F2",
"K%	c #C5D9F9",
"L%	c #ADBFD5",
"M%	c #CBDDF1",
"N%	c #CDDFEE",
"O%	c #CDE1F2",
"P%	c #C9E5FB",
"Q%	c #D0EBEB",
"R%	c #D3E3F4",
"S%	c #CFE6F5",
"T%	c #D5E6F8",
"U%	c #D1E1F2",
"V%	c #CFE0EC",
"W%	c #D2E1F6",
"X%	c #D4E2F3",
"Y%	c #D1E3EF",
"Z%	c #CDE3E9",
"`%	c #4F5568",
" &	c #B4C4DA",
".&	c #B3C6D8",
"+&	c #B7C9DC",
"@&	c #CADDF1",
"#&	c #CBDEF1",
"$&	c #CEE0F2",
"%&	c #D0E1F3",
"&&	c #D0E2F6",
"*&	c #D2E5F5",
"=&	c #D0E7F4",
"-&	c #D1E4F3",
";&	c #D0E5F6",
">&	c #D2E2F3",
",&	c #CEE2F3",
"'&	c #CEE1F0",
")&	c #CDE1F0",
"!&	c #CDE1EC",
"~&	c #575C72",
"{&	c #C4D8EE",
"]&	c #C6DAE8",
"^&	c #C6DBEE",
"/&	c #CADDF0",
"(&	c #CADEEF",
"_&	c #CBE0EC",
":&	c #CEE1EF",
"<&	c #CEE2F2",
"[&	c #D0E3F2",
"}&	c #D1E4F2",
"|&	c #D2E0F4",
"1&	c #D2E5F3",
"2&	c #D3E4F4",
"3&	c #D5E5F6",
"4&	c #D1E0ED",
"5&	c #CEE0F0",
"6&	c #CDE0EF",
"7&	c #CADFEF",
"8&	c #575C74",
"9&	c #C4D8EC",
"0&	c #C4D8EA",
"a&	c #C9E0F3",
"b&	c #CAE0F0",
"c&	c #CFE3F2",
"d&	c #CFE0F3",
"e&	c #D1E2F2",
"f&	c #D3E2F3",
"g&	c #D1E1F4",
"h&	c #CEE1F4",
"i&	c #CFE1F3",
"j&	c #C8DCEA",
"k&	c #5C5780",
"l&	c #C1D7ED",
"m&	c #C6DAEA",
"n&	c #CADEF2",
"o&	c #CDE2ED",
"p&	c #C9E1F1",
"q&	c #CDE0F0",
"r&	c #CEE2F4",
"s&	c #D8E8F9",
"t&	c #D1E2F1",
"u&	c #D2E1F3",
"v&	c #CFE2F7",
"w&	c #CFE4F5",
"x&	c #D3E4F2",
"y&	c #D1E6F1",
"z&	c #D1E0F6",
"A&	c #CCE2FA",
"B&	c #D0E1F7",
"C&	c #CFE0F4",
"D&	c #D2DEF5",
"E&	c #CEDCF1",
"F&	c #C4D8E6",
"G&	c #575D71",
"H&	c #C5D8EC",
"I&	c #C4DAE9",
"J&	c #C7DAEA",
"K&	c #CADEF0",
"L&	c #CCE1F0",
"M&	c #C9E1F0",
"N&	c #D7E5F4",
"O&	c #D0E2F7",
"P&	c #D0E4F5",
"Q&	c #D1E1F6",
"R&	c #CEE1F6",
"S&	c #D0E0F4",
"T&	c #D1DFF2",
"U&	c #CDDCF0",
"V&	c #C9DCE8",
"W&	c #575D70",
"X&	c #C4D9EC",
"Y&	c #C6DDEC",
"Z&	c #C7DCED",
"`&	c #C9DEEF",
" *	c #C8DCEE",
".*	c #CBDFEE",
"+*	c #CDE2F2",
"@*	c #CFE3F1",
"#*	c #CEE3ED",
"$*	c #D0E3F0",
"%*	c #CEE3F6",
"&*	c #D2E4F2",
"**	c #CFE4F0",
"=*	c #D4E3F4",
"-*	c #D0E2F2",
";*	c #CFE1F1",
">*	c #CBDEEE",
",*	c #CADCEF",
"'*	c #34383D",
")*	c #6F747D",
"!*	c #6D747B",
"~*	c #70757D",
"{*	c #71787E",
"]*	c #73787D",
"^*	c #72787E",
"/*	c #73787C",
"(*	c #727A7D",
"_*	c #73797E",
":*	c #72797E",
"<*	c #747B7F",
"[*	c #737980",
"}*	c #74797F",
"|*	c #767C7E",
"1*	c #747A7F",
"2*	c #757B80",
"3*	c #747C7E",
"4*	c #757B7E",
"5*	c #747A7E",
"6*	c #73797F",
"7*	c #747A7B",
"8*	c #71797C",
"9*	c #72787D",
"0*	c #71777C",
"a*	c #707879",
". + @ @ # $ % % & * = = - ; > > - , ' ' ) ! ~ ~ ; { ] ] ^ / ( ( _ : < < [ } | | ",
"1 2 3 3 4 5 6 6 7 8 9 9 0 a b b c d e e f g h h i j k k l m n n o p q q r s t t ",
"u v w w x y z z A B C C D E F F G H I I J K L L M N O O P Q R R S T U U V W X X ",
"Y Z ` `  ...+.+.@.#.$.$.%.E $.$.S &.*.*.=.-.;.;.>.,.'.'.).!.~.~.{.=.].].^./.(.(.",
"Y Z ` `  ...+.+.@.#.$.$.%.E $.$.S &.*.*.=.-.;.;.>.,.'.'.).!.~.~.{.=.].].^./.(.(.",
"_.:.<.<. .[.}.}.|.1.2.2.3.4.5.5.G M 6.6.7.8.9.9.0.N a.a.b.O c.c.{.d.e.e.^.f.g.g.",
"h.i.j.j.y k.l.l.m.n.o.o.K p.q.q.r.s.t.t.u.v.w.w.x.y.z.z.x.A.B.B.A.b.C.C.%.D.E.E.",
"F.G.H.H.I.J.K.K.L.M.N.N.O.P.Q.Q.R.S.T.T.M 0.U.U.V.0.W.W.X.A.P P A.Y.Z.Z.S `. + +",
".+++l.l.@+#+$+$+%+&+*+*+4.=+-+-+;+J >+>+V.,+'+'+)+!+~+~+{+]+^+^+/+(+_+_+&.:+<+<+",
".+++l.l.@+#+$+$+%+&+*+*+4.=+-+-+;+J >+>+V.,+'+'+)+!+~+~+{+]+^+^+/+(+_+_+&.:+<+<+",
"[+j.}+}+|+1+2+2+3+4+5+5+4.6+m.m.;+&.7+7+V.8+9+9+0+a+b+b+c+d+e+e+f+g+h+h+&.+.<+<+",
"i+j+k+k+l+m+n+n+o+p+q+q+r+s+t+t+u+v+w+w+M x+y+y+z+A+B+B+C+D+E+E+F+c+G+G+J #.H+H+",
"I+J+w w K+L+M+M+N+O+P+P+Q+R+S+S+)+T+u+u+U+V+W+W+X+Y+Z+Z+`+ @.@.@+@).@@@@#@3.#.#.",
"$@%@&@&@*@=@-@-@#.;@>@>@O.,@'@'@)@!@~@~@{@]@^@^@/@(@_@_@:@<@[@[@}@|@1@1@2@Q.3@3@",
"4@5@6@6@7@8@9@9@)+0@R+R+a@b@c@c@d@e@f@f@g@h@i@i@j@k@l@l@m@n@o@o@p@q@ @ @d+r@` ` ",
"4@5@6@6@7@8@9@9@)+0@R+R+a@b@c@c@d@e@f@f@g@h@i@i@j@k@l@l@m@n@o@o@p@q@ @ @d+r@` ` ",
"s@t@u@u@v@w@D.D.x@R.y@y@3.z@A@A@B@C@D@D@E@F@G@G@H@I@J@J@K@;.L@L@;.V.v.v.A.!+M@M@",
"N@O@P@P@Q@R@S@S@E T@U@U@v+V@W@W@X@Y@Z@Z@`@ #.#.#+#@#####$#%#&#&#*#=#-#-#;#y@>#>#",
",#'#)#)#!#~#{#{#]#^#/#/#(#_#:#:#<#[#}#}#|#1#2#2#3#4#5#5#6#7#8#8#9#0#a#a#b#c#K K ",
"d#e#f#f#g#h#i#i#j#k#l#l#m#n#o#o#p#q#r#r#s#1#t#t#u#v#w#w#x#y#z#z#A#B#C#C#D#E#F#F#",
"d#e#f#f#g#h#i#i#j#k#l#l#m#n#o#o#p#q#r#r#s#1#t#t#u#v#w#w#x#y#z#z#A#B#C#C#D#E#F#F#",
"G#H#I#I#J#K#L#L#M#N#O#O#P#Q#R#R#S#T#U#U#V#3#W#W#X#Y#Z#Z#`# $.$.$+$@$#$#$D#{.$$$$",
"%$&$*$*$=$-$;$;$>$,$'$'$)$!$=.=.).~${${$]$X#^$^$u#/$($($_$:$<$<$[$}$|$|$1$Q !+!+",
"2$3$4$4$5$6$7$7$8$9$0$0$a$b$c$c$d$X#e$e$f$g$h$h$i$f$x#x#x#j$k$k$l$m$n$n$o$E+p$p$",
"q$r$s$s$t$u$v$v$w$x$y$y$z$A$B$B$C$D$E$E$F$5#G$G$H$I$J$J$K$L$M$M$N$O$P$P$Q$R$S$S$",
"q$r$s$s$t$u$v$v$w$x$y$y$z$A$B$B$C$D$E$E$F$5#G$G$H$I$J$J$K$L$M$M$N$O$P$P$Q$R$S$S$",
"T$r$U$U$V$W$X$X$Y$Z$y$y$`$A$ % %.%D$+%+%F$@%#%#%$%%%&%&%_$*%=%=%N$O$P$P$Q$-%;%;%",
">%,%'%'%)%!%~%~%&${%]%]%^%d$/%/%3#(%_%_%:%<%J$J$[%Y#&%&%_$v#}%}%Y#|%1%1%2%3%4%4%",
"5%6%7%7%8%9%0%0%&.a%b%b%c%d%e%e%f%g%h%h%i%j%i%i%I$k%l%l%_$_$m%m%$%d%n%n%+#o%=.=.",
"p%q%t#t#r%2.s%s%&.R$t%t%u%v%w%w%x%F$y%y%z%v#A%A%<%B%C%C%%%5#D%D%E%z%F%F%G%H%c$c$",
"I%J%K%K%L%o.S$S$M%N%t%t%O%h%P%P%x%/$Q%Q%m%R%S%S%g$T%U%U%I$g$V%V%W%X%Y%Y%##H%Z%Z%",
"I%J%K%K%L%o.S$S$M%N%t%t%O%h%P%P%x%/$Q%Q%m%R%S%S%g$T%U%U%I$g$V%V%W%X%Y%Y%##H%Z%Z%",
"`% &.&.&+&M@@&@&#&>+c$c$$&%&&&&&(%*&=&=&-&R%[%[%x#:%;&;&F$k%>&>&f%F%,&,&'&)&!&!&",
"~&{&]&]&^&/&(&(&{$o%_&_&:&<&,&,&[&}&|&|&1&2&3&3&Y#F$k%k%v#E%>&>&D$$#4&4&5&6&7&7&",
"8&9&0&0&b+@&a&a&b&R$O$O$+#+#<%<%[&c&d&d&e&(%f&f&-&(%*&*&k%g&h&h&3#i&;.;.~$=.j&j&",
"k&9&l&l&m&n&o&o&p&q&r&r&2%g&s&s&(%W#<&<&t&u&v&v&w&x&y&y&E%z&A&A&B&C&D&D&V.E&F&F&",
"k&9&l&l&m&n&o&o&p&q&r&r&2%g&s&s&(%W#<&<&t&u&v&v&w&x&y&y&E%z&A&A&B&C&D&D&V.E&F&F&",
"G&H&I&I&J&K&L&L&M& #<&<&o%@#N&N&e&@#O&O&f%>&P&P&P&2&}&}&k%Q&R&R&S&d&T&T&~$U&V&V&",
"W&X&Y&Y&Z&`& * *.*-%N%N%]$+*@*@*#*$*%*%*}&&*****}&-&=*=*-*d%q&q&'&;*b$b$R$>*,*,*",
"'*)*!*!*~*{*]*]*^*/*(*(*_*:*<*<*[*}*|*|*1*2*3*3*4*5*5*5*}*6*7*7*_*_*8*8*9*0*a*a*"};
