/* XPM */
static char * imagebuffermodule_xpm[] = {
"40 40 430 2",
"  	c None",
". 	c #000000",
"+ 	c #010101",
"@ 	c #020202",
"# 	c #080808",
"$ 	c #050505",
"% 	c #090909",
"& 	c #070707",
"* 	c #0B0B0B",
"= 	c #0A0A0A",
"- 	c #030303",
"; 	c #060606",
"> 	c #151515",
", 	c #7B7B7B",
"' 	c #707070",
") 	c #6F6F6F",
"! 	c #777777",
"~ 	c #878787",
"{ 	c #444444",
"] 	c #404040",
"^ 	c #4A4A4A",
"/ 	c #848484",
"( 	c #737373",
"_ 	c #101010",
": 	c #6B6B6B",
"< 	c #696969",
"[ 	c #505050",
"} 	c #4E4E4E",
"| 	c #7A7A7A",
"1 	c #7D7D7D",
"2 	c #767676",
"3 	c #616161",
"4 	c #5D5D5D",
"5 	c #888888",
"6 	c #4B4B4B",
"7 	c #797979",
"8 	c #7C7C7C",
"9 	c #757575",
"0 	c #222222",
"a 	c #161616",
"b 	c #8D8D8D",
"c 	c #7F7F7F",
"d 	c #7E7E7E",
"e 	c #898989",
"f 	c #2C2C2C",
"g 	c #939393",
"h 	c #525252",
"i 	c #818181",
"j 	c #747474",
"k 	c #131313",
"l 	c #727272",
"m 	c #3B3B3B",
"n 	c #454545",
"o 	c #4D4D4D",
"p 	c #808080",
"q 	c #373737",
"r 	c #949494",
"s 	c #282828",
"t 	c #9D9D9D",
"u 	c #262626",
"v 	c #1B1B1B",
"w 	c #141414",
"x 	c #191919",
"y 	c #111111",
"z 	c #121212",
"A 	c #1D1D1D",
"B 	c #0F0F0F",
"C 	c #1A1A1A",
"D 	c #1E1E1E",
"E 	c #1F1F1F",
"F 	c #202020",
"G 	c #040404",
"H 	c #1C1C1C",
"I 	c #232323",
"J 	c #3A3A3A",
"K 	c #424242",
"L 	c #2D2D2D",
"M 	c #5A5A5A",
"N 	c #303030",
"O 	c #3F3F3F",
"P 	c #434343",
"Q 	c #393939",
"R 	c #272727",
"S 	c #353535",
"T 	c #414141",
"U 	c #363636",
"V 	c #0E0E0E",
"W 	c #333333",
"X 	c #2F2F2F",
"Y 	c #0D0D0D",
"Z 	c #2A2A2A",
"` 	c #3E3E3E",
" .	c #343434",
"..	c #2E2E2E",
"+.	c #181818",
"@.	c #383838",
"#.	c #5C5C5C",
"$.	c #474747",
"%.	c #252525",
"&.	c #575757",
"*.	c #585858",
"=.	c #0C0C0C",
"-.	c #484848",
";.	c #242424",
">.	c #292929",
",.	c #2B2B2B",
"'.	c #171717",
").	c #212121",
"!.	c #3D3D3D",
"~.	c #4F4F4F",
"{.	c #4C4C4C",
"].	c #3C3C3C",
"^.	c #464646",
"/.	c #010301",
"(.	c #050506",
"_.	c #2C2730",
":.	c #1A1B1C",
"<.	c #020102",
"[.	c #020602",
"}.	c #07060A",
"|.	c #36343B",
"1.	c #040106",
"2.	c #070508",
"3.	c #0F150E",
"4.	c #32352F",
"5.	c #030102",
"6.	c #070305",
"7.	c #050603",
"8.	c #3A4139",
"9.	c #050705",
"0.	c #010202",
"a.	c #060506",
"b.	c #090307",
"c.	c #3D3742",
"d.	c #040405",
"e.	c #000300",
"f.	c #070105",
"g.	c #181817",
"h.	c #312C32",
"i.	c #040205",
"j.	c #313131",
"k.	c #020402",
"l.	c #0B050B",
"m.	c #2F402E",
"n.	c #42A447",
"o.	c #2F382F",
"p.	c #010201",
"q.	c #000400",
"r.	c #0D060E",
"s.	c #396834",
"t.	c #479040",
"u.	c #212921",
"v.	c #060302",
"w.	c #020504",
"x.	c #060605",
"y.	c #1A1F1A",
"z.	c #417B3F",
"A.	c #1EAB1D",
"B.	c #07A906",
"C.	c #22A227",
"D.	c #23261A",
"E.	c #03050C",
"F.	c #050406",
"G.	c #050404",
"H.	c #070302",
"I.	c #030307",
"J.	c #030406",
"K.	c #0C070B",
"L.	c #254D22",
"M.	c #1EA51D",
"N.	c #04A906",
"O.	c #25AC2A",
"P.	c #376333",
"Q.	c #130E0F",
"R.	c #020206",
"S.	c #050809",
"T.	c #030403",
"U.	c #36383A",
"V.	c #0A0509",
"W.	c #090A0A",
"X.	c #3A492F",
"Y.	c #2A9C32",
"Z.	c #0BA809",
"`.	c #01AC01",
" +	c #07A405",
".+	c #07AC02",
"++	c #2B9C2C",
"@+	c #283D2A",
"#+	c #0F090F",
"$+	c #020605",
"%+	c #020405",
"&+	c #020503",
"*+	c #020507",
"=+	c #090107",
"-+	c #0E0C0E",
";+	c #364F35",
">+	c #20AA1D",
",+	c #03AC0A",
"'+	c #0BA40A",
")+	c #04A901",
"!+	c #12A712",
"~+	c #3A8E3B",
"{+	c #213821",
"]+	c #06050A",
"^+	c #150B14",
"/+	c #353434",
"(+	c #25372B",
"_+	c #41843C",
":+	c #1BAD1B",
"<+	c #07AC08",
"[+	c #02A404",
"}+	c #02A804",
"|+	c #04AA02",
"1+	c #09A605",
"2+	c #0EA813",
"3+	c #58B24A",
"4+	c #3D8743",
"5+	c #31422F",
"6+	c #1A1B18",
"7+	c #191A1B",
"8+	c #191F1F",
"9+	c #325432",
"0+	c #449045",
"a+	c #3CBB41",
"b+	c #06A408",
"c+	c #08A904",
"d+	c #05AB08",
"e+	c #04A305",
"f+	c #01B003",
"g+	c #04A803",
"h+	c #31AA2C",
"i+	c #356F35",
"j+	c #323731",
"k+	c #201D1F",
"l+	c #4F814C",
"m+	c #0EAD13",
"n+	c #05AB05",
"o+	c #03AA07",
"p+	c #05AC05",
"q+	c #03A704",
"r+	c #04A902",
"s+	c #01A904",
"t+	c #29B426",
"u+	c #15B116",
"v+	c #08A909",
"w+	c #1CAB1B",
"x+	c #35A932",
"y+	c #5BC05F",
"z+	c #2EA92C",
"A+	c #16AD17",
"B+	c #03A705",
"C+	c #2FBB2C",
"D+	c #19AC18",
"E+	c #07A90B",
"F+	c #06A605",
"G+	c #02AB03",
"H+	c #04A504",
"I+	c #05A904",
"J+	c #00AF00",
"K+	c #1EA11C",
"L+	c #456044",
"M+	c #070509",
"N+	c #1B271E",
"O+	c #2CA225",
"P+	c #04AA06",
"Q+	c #09A803",
"R+	c #04A903",
"S+	c #03AC05",
"T+	c #03A903",
"U+	c #08AA08",
"V+	c #38BC3C",
"W+	c #04A804",
"X+	c #04A506",
"Y+	c #00AA00",
"Z+	c #40BE43",
"`+	c #01A800",
" @	c #03A502",
".@	c #3CC13C",
"+@	c #06A808",
"@@	c #07A803",
"#@	c #07A904",
"$@	c #04A603",
"%@	c #07AB06",
"&@	c #3C983A",
"*@	c #0C0C09",
"=@	c #030203",
"-@	c #000101",
";@	c #090506",
">@	c #365730",
",@	c #12AC11",
"'@	c #05A801",
")@	c #01AA01",
"!@	c #32B935",
"~@	c #11A711",
"{@	c #02A901",
"]@	c #03A601",
"^@	c #22B923",
"/@	c #22B01C",
"(@	c #09A804",
"_@	c #06A602",
":@	c #02AA00",
"<@	c #27A426",
"[@	c #18351A",
"}@	c #0C050C",
"|@	c #000100",
"1@	c #070308",
"2@	c #050F0C",
"3@	c #32732A",
"4@	c #0FA316",
"5@	c #01A701",
"6@	c #03A600",
"7@	c #0DA809",
"8@	c #35BC39",
"9@	c #04AD02",
"0@	c #05A804",
"a@	c #02AA02",
"b@	c #01AA02",
"c@	c #06A906",
"d@	c #3ABE35",
"e@	c #0CA408",
"f@	c #04A704",
"g@	c #02AF05",
"h@	c #1F9D23",
"i@	c #235825",
"j@	c #0C070F",
"k@	c #060407",
"l@	c #010001",
"m@	c #050106",
"n@	c #060305",
"o@	c #0E0D0D",
"p@	c #387B37",
"q@	c #14A515",
"r@	c #35B730",
"s@	c #12AF12",
"t@	c #07A406",
"u@	c #01AB02",
"v@	c #04A706",
"w@	c #02A903",
"x@	c #41BE43",
"y@	c #01A901",
"z@	c #01A801",
"A@	c #02AA03",
"B@	c #05A602",
"C@	c #26AD26",
"D@	c #22B724",
"E@	c #06A806",
"F@	c #21A120",
"G@	c #2E602F",
"H@	c #0A070A",
"I@	c #09060A",
"J@	c #030603",
"K@	c #070506",
"L@	c #020001",
"M@	c #2E6531",
"N@	c #38A735",
"O@	c #31BD31",
"P@	c #08A307",
"Q@	c #05AC01",
"R@	c #08A802",
"S@	c #04A602",
"T@	c #41C040",
"U@	c #06A901",
"V@	c #05A901",
"W@	c #07AA01",
"X@	c #05A803",
"Y@	c #05AB04",
"Z@	c #0BAB0A",
"`@	c #33BD31",
" #	c #389E38",
".#	c #294B2A",
"+#	c #07070A",
"@#	c #030100",
"##	c #080409",
"$#	c #273428",
"%#	c #419941",
"&#	c #1CAC17",
"*#	c #03AA04",
"=#	c #02AB02",
"-#	c #0AA504",
";#	c #04A307",
">#	c #07A608",
",#	c #47B84A",
"'#	c #06A70D",
")#	c #02A405",
"!#	c #02A705",
"~#	c #07A805",
"{#	c #28AE24",
"]#	c #498844",
"^#	c #1E1F18",
"/#	c #0B0711",
"(#	c #030207",
"_#	c #030301",
":#	c #050002",
"<#	c #020502",
"[#	c #070A05",
"}#	c #151219",
"|#	c #314932",
"1#	c #428E46",
"2#	c #35B634",
"3#	c #10A810",
"4#	c #06A90B",
"5#	c #02AD04",
"6#	c #3FBF3C",
"7#	c #00B002",
"8#	c #03A906",
"9#	c #16AB1A",
"0#	c #36B53C",
"a#	c #3C813A",
"b#	c #283A1F",
"c#	c #08090D",
"d#	c #010402",
"e#	c #030702",
"f#	c #040004",
"g#	c #010404",
"h#	c #070407",
"i#	c #020101",
"j#	c #060806",
"k#	c #101813",
"l#	c #394939",
"m#	c #466343",
"n#	c #457B42",
"o#	c #5B8460",
"p#	c #487843",
"q#	c #43613E",
"r#	c #343F31",
"s#	c #12120F",
"t#	c #0C080D",
"u#	c #010107",
"v#	c #030101",
"w#	c #030201",
". . . + @ # # # $ % & & % * # = # - ; # = $ # = # ; % & # ; - $ & ; = @ . + . . ",
". . . . > , ' ) ! ~ { ~ ] ~ ^ / ( _ % : < [ } | 1 2 3 | 4 5 $ 6 7 8 9 0 . + . . ",
". . . @ a b 7 c d e f 5 f g h i j k & l m n o 8 p i q 9 j r s 7 1 t ' u . + . . ",
". . . @ $ v w > x y ; z - v A _ B $ - k C k k y > y D B E a F a * a y ; . + . . ",
". . . . . . . . . . @ - G G @ - - - k D E H * - @ G - $ - + - @ . . . . . . . . ",
". . . . . . . . . . + G - # % I J K m L M N O P Q H ; G @ @ - + . . . . . . . . ",
". . . . . . . . . . @ - # L O R * $ - @ ] $ - $ _ f ] 0 ; @ @ + . . . . . . . . ",
". . . . . . . + @ . @ y O S G + G @ G + { @ - @ @ @ # T q % @ @ . . + . . . . . ",
". . . . . . . G @ $ 0 U V m - G ; - + . O . . . + + V W k m w @ - @ - . . . . . ",
". . . . . . . @ G F s & - I F G - - + . O . . . . ; X k $ Y N y @ + + . . . . . ",
". . . . . . . & a Z ; G $ $ ` G G @ + . O . . . + B  .- - - # N V @ - + . . . . ",
". . . . . @ + & U # G G $ @ F R - @ - . ] + . . @ ..y + @ + G k f - @ . . . . . ",
". . . + - G - f +.- + . . + $ @.# - % $ { - + & _ @.# - - ; + - s D @ + . . . . ",
". . . . G - w #.a - @ . . . $ H L z $.$.M { O B O # - - @ + - # %.&.& + . . . . ",
". . . . + @ ` Y N  .% + . . G B *.@.$ + - @ =.T -.; $ - @ + B ] ;.C >.+ . . . . ",
". . . + $ =.q @ + k J v + + %  .=.@ . + + . . . k ..G + $ Z @.% @ & Q - - + + . ",
". . . + + u v . . + $ ,.@.y W Y $ . . . . . . . + '.,.'.] E - @ @ G X z - @ . . ",
". . . . @ @.= . . + + ; w [ C G - + . . . . . . + ; ..] # ; G + + - I ).+ @ + . ",
". . . + - O $ + . @ @ @ & ` - - @ @ . . . . . . + $ Y U G G G @ - - & m - + . . ",
". . . + % !.; + . + + - D %.. . + . . . . . . . . - @  .= @ + + @ - + O + @ + . ",
". . . + '.L - + . . + + f '.. . . . . . . . . . . @ . X y . . . . . . ` G - @ . ",
". . . + '.~.N X X X ..N {.w . . . . . . . . . . . @ . X !.X X X X X X [ G @ . . ",
". . . @ a ].+.'.'.'.a v O k . . . . . . . . . . . + - ..R '.'.'.'.'.'.^.- @ + . ",
". . . . z ..+ . . . /.(._.:.. @ + + . . . . . . <.[.}.|.B + + + @ + @ ` & @ @ . ",
". . . . G K + . . . 1.2.3.4.@ @ + @ . . . . . . 5.6.7.8.9.. @ + + G @ { @ + . . ",
". . . . @ m $ . . . 0.a.b.c.d.. @ + . . . . . . e.f.g.h.i.G @ . - @ k j.@ @ . . ",
". . . @ + j.y . . . k.l.m.n.o.G - p.. . . . . . q.r.s.t.u.+ @ - @ @ s C G + + . ",
". . . @ - A s v.w.x.y.z.A.B.C.D.E.2.F.(.G.H.I.J.K.L.M.N.O.P.Q.R.S.T.U.= . . . . ",
". . . + - G ] V.W.X.Y.Z.`. +.+++@+#+$+%+&+*+=+-+;+>+,+'+)+!+~+{+]+^+/+. . . . . ",
". . . . - G W (+_+:+<+[+}+|+1+2+3+4+5+6+7+8+9+0+a+b+c+d+e+f+g+h+i+j+k+. . . . . ",
". . . + - G # l+m+n+o+p+q+r+s+t+u+v+w+x+y+z+A+B+C+D+E+F+G+H+I+J+K+L+M++ . . . . ",
". . . . . . . N+O+P+Q+R+S+T+U+V+W+`.X+Y+Z+`+`+`+ @.@+@@@#@I+$@%@&@*@=@-@. . . . ",
". . . . . . . ;@>@,@R+`+'@)@!@~@{@T+X+Y+Z+`+`+`+]@^@/@(@_@:@r+<@[@}@|@. . . . . ",
". . . . . . . 1@2@3@4@5@6@7@8@9@0@a@X+Y+Z+`+`+`+b@c@d@e@f@g@h@i@j@k@@ l@. . . . ",
". . . . . . . m@n@o@p@q@`.r@s@R+t@u@v@w@x@y@z@5@A@B@C@D@E@F@G@H@I@J@K@L@. . . . ",
". . . . . . . . . . $ M@N@O@P@B.:@Q@R@S@T@U@V@W@X@Y@Z@`@ #.#+#9.. . . . . . . . ",
". . . . . . . . . . @###$#%#&#*#=#-#;#>#,#'#)#I+!#~#{#]#^#/#(#_#. . . . . . . . ",
". . . . . . . . . . :#<#[#}#|#1#2#3#4#5#6#7#8#9#0#a#b#c#d#e#=@f#. . . . . . . . ",
". . . . . . . . . . l@g#h#i#d#j#k#l#m#n#o#p#q#r#s#t#u#q.R.v#w#|@. . . . . . . . ",
". . . . . . . . . . . . . . . . . . + G G G + . . . . . . . . . . . . . . . . . "};
