/* XPM */
static char * effectvrdsmodule_xpm[] = {
"40 40 28 1",
" 	c None",
".	c #2D2A2D",
"+	c #322F32",
"@	c #474447",
"#	c #423F42",
"$	c #232023",
"%	c #383438",
"&	c #524F52",
"*	c #3D3A3D",
"=	c #615E61",
"-	c #862F31",
";	c #5C595C",
">	c #4C4A4C",
",	c #812A2C",
"'	c #282528",
")	c #191519",
"!	c #575457",
"~	c #1E1A1E",
"{	c #0E0A0E",
"]	c #767476",
"^	c #141014",
"/	c #6B696B",
"(	c #666466",
"_	c #090509",
":	c #706E70",
"<	c #807E80",
"[	c #858385",
"}	c #040004",
".+@#@$%#&*.%+=+%+-;$>.,&@*.%&>*.@%&%*.#@",
"'$*%.*..#)!$$@~&.'++>%$*#{!..*$%#$*+)@.~",
"&#&%#&+;>+#@&='@&+]^!&>>@.*>@#'!.>*#'#@#",
"@+@+%#@.##+#%#>~&*#)#!%'@%+!$+'*@#'#)@!+",
"%/%$$.=@+~~&!@))#(#^.*(%*)+=*.'.@#%*^.;>",
"@*++*>*%++###*~>>+*~>&.+*+*@$++*;).#.*&)",
"@=%#{#;!#{%;;>^+&!>''#&!&_*&@#+~*&+!_.*;",
">.'%~##'%~##.'$+@%+^%#*%%)%@'%~+.*~#^'%#",
"&*.>.;*.>.(#.#$:%*%$!&@%%+;*+%'>@++%'@*@",
"&#~;'&#~;$!#~;~&*'**+&*';)%@.**'@''=$)>+",
"&!>+$&!>+$&!>+$&=*+)>@(@$~;@>#^##(*+{;>!",
")##&;)#*!;)#*;;)#*!.#'+(&.'++(+#)*@;$#'+",
"#*#.#&%>.*&*>.%;*&$)=@@*.+&>@%^%&*%'.#>%",
"@.$!$@%'!$@'%!$@'++%+>'+&{@**@)+@&'._@!'",
"**%.@#+%*@**%@@%*%%.=#@*%%##@+.&#@+..=*'",
"**$%^+@%%{*@%%{+#.#~+%.+@~++'%+'*$$#~&)~",
"#@>'*.!&+*'(@@..@=*'@';>>*$>#@@.'#!#+++@",
";.%$'&@..~#;%.)%>**$+*;*%$'!*#'$.;&')$%]",
"+*+@@*%%.!%#*.@**%#@#*%%;*^>.=$*'&='+)*:",
"*&$*@=+@+%]@&+~=/@@+@/!&#$==&!^+/<&)~@[/",
"%%~'%+#~.+#>$$#~@*'%$@!'*~'@>%+)#@+*$'@*",
".)..'*'''@+%~%'+*%%)>%%*$#^@'@.$'*#~.~>+",
"$+%$>'.@.>$.*#%@~@#%@'*&*+$$#!..$+/'+$)(",
"*~@$**'!'.++#@~+@*&$%#%!+{>%&*{.%*(__%*:",
"%_>.$@~#.)@**%)'>@''.#*%*~#%#*)'@@%{$%+=",
"*%&)+!{=$+'&!+{*&*@)*%@&%..###+*.>#$%*';",
"*@'++#'>^#%@*$~>@*.^;+>$.#.%#.%#)#%'!^'*",
".@#)'%'@%~$>*%%$>**+.%%#&$~*@+>~)##!'}%%",
"+@'++~/.+$+!+.+%*>*'#*@*#%$#**#'~&*&+_%#",
"!+*^^+!*'^'/+>)~!@#.~&#+&^+###.^#*$&{~#*",
"@++.';.@+%+!'>$*#@&*%%=+=..&+=++%#=@'~&%",
"#%.''(%+%$%/#%$+:@*'+;@&@'%=@#~>=*>.#>*>",
"'+%)#@.'*~&.#*)>%%*'**'@>~%+*%+%#%+*'*+#",
"@+*)!#@+*$;*@%%@@#@$&#>@#%'#>@'#*&.'*+@>",
"*>*)+*%#%%~@#>$+#@>$>.@!@#$#!@%%@;~##.>#",
"#%.#*+@%$;##%%+!'>@$;>.#>@@+@&.;+>'*!*@.",
"*#{+#**'$%#%#^'@*#%)#@+@+'##@+$@##+..>#'",
"&**%@#>@$##>#@.**>>.##>>>.*>>@'#=.*#%@!$",
".+)+%.'+)+*'%'~%*.*^+%+#.)+%+*{%@.+~..+.",
"*&~>**@@%#@##@***#!.>#*>;+%@*;*#@@>&*#@&"};
