/* XPM */
static char * diffmodule_xpm[] = {
"40 40 560 2",
"  	c None",
". 	c #FFFFFF",
"+ 	c #FEFFFD",
"@ 	c #F8FFFF",
"# 	c #FBFFFF",
"$ 	c #FFFEFF",
"% 	c #FFFAFE",
"& 	c #FFFBFD",
"* 	c #FFFEFD",
"= 	c #FEFFFB",
"- 	c #FCFFFA",
"; 	c #FEDFE5",
"> 	c #FFE9EF",
", 	c #FFF6F9",
"' 	c #FFFBFF",
") 	c #FFFDFF",
"! 	c #FCFFFF",
"~ 	c #FEFFFF",
"{ 	c #FBFBFD",
"] 	c #FFFDFE",
"^ 	c #FFFDFB",
"/ 	c #FFF9F6",
"( 	c #FBECE5",
"_ 	c #EAC9D0",
": 	c #F7DCE3",
"< 	c #FFF3F7",
"[ 	c #FFFCFF",
"} 	c #FDFFFC",
"| 	c #F7FFFF",
"1 	c #FFFBFB",
"2 	c #FFE6E4",
"3 	c #F4CCCA",
"4 	c #F3DDE0",
"5 	c #FAEAED",
"6 	c #FFFAFA",
"7 	c #F7FCF6",
"8 	c #FFF6FA",
"9 	c #F5FFFF",
"0 	c #FFD8D9",
"a 	c #ECB4B5",
"b 	c #FFFCFB",
"c 	c #FBFFFD",
"d 	c #F4FFFE",
"e 	c #F1FFFC",
"f 	c #FBFFFB",
"g 	c #FCFBFF",
"h 	c #F9FFFD",
"i 	c #FFFAFF",
"j 	c #FFF9FF",
"k 	c #FEFCFF",
"l 	c #FFFFFD",
"m 	c #FDFCF8",
"n 	c #F9F8F4",
"o 	c #FBFAF6",
"p 	c #FFFFFA",
"q 	c #F8FCFB",
"r 	c #FFFFF6",
"s 	c #FFF7F0",
"t 	c #F8D5D3",
"u 	c #F9A6B6",
"v 	c #EEFFF4",
"w 	c #FCFFFB",
"x 	c #FBFDFC",
"y 	c #FBFBFB",
"z 	c #FFFBFC",
"A 	c #F9FBFA",
"B 	c #FAFCFB",
"C 	c #FFFEFC",
"D 	c #F6FCFA",
"E 	c #EFFFF8",
"F 	c #FFFDF6",
"G 	c #FFECEA",
"H 	c #FF9DB2",
"I 	c #EAFFF6",
"J 	c #FFF7F3",
"K 	c #FAFFF9",
"L 	c #FEF9FF",
"M 	c #FEFAF9",
"N 	c #FCFBF7",
"O 	c #FAFDF4",
"P 	c #F6FEF3",
"Q 	c #F3FEF0",
"R 	c #F4F8F9",
"S 	c #EFF3F4",
"T 	c #F7F8FA",
"U 	c #F4FFFD",
"V 	c #F1FFF6",
"W 	c #F9FBF0",
"X 	c #FFA1BB",
"Y 	c #F8EDE7",
"Z 	c #FCFDF5",
"` 	c #F9FAFC",
" .	c #FDFDFF",
"..	c #FFFDFC",
"+.	c #FFFAF8",
"@.	c #FFF6F2",
"#.	c #FFF6EF",
"$.	c #FFFBF3",
"%.	c #FFFBF1",
"&.	c #EBEFEE",
"*.	c #FAFEFD",
"=.	c #F8FCFF",
"-.	c #F3F8F4",
";.	c #FFFFFB",
">.	c #FBFFF8",
",.	c #FCA9BB",
"'.	c #F1D7D8",
").	c #F9FFFA",
"!.	c #FFEEF5",
"~.	c #F8FFFE",
"{.	c #F5FFFE",
"].	c #F8ECEC",
"^.	c #DBC1C2",
"/.	c #DCB5B6",
"(.	c #FFD3D5",
"_.	c #FFEFF1",
":.	c #FFFDFD",
"<.	c #F3F8FC",
"[.	c #E5FFF1",
"}.	c #FEFFFA",
"|.	c #FFBCD3",
"1.	c #FEBECC",
"2.	c #E6FFF9",
"3.	c #FFF5F6",
"4.	c #FFF3FD",
"5.	c #FAFCF9",
"6.	c #F2F8F6",
"7.	c #F5F5F5",
"8.	c #FFFCFD",
"9.	c #FFF7FB",
"0.	c #FFEEF3",
"a.	c #E9B6BF",
"b.	c #C08790",
"c.	c #FFE8E9",
"d.	c #FFF4F4",
"e.	c #FFF9FA",
"f.	c #FDF4F5",
"g.	c #F4F2F5",
"h.	c #F8F9FB",
"i.	c #E7FFF8",
"j.	c #FFCED7",
"k.	c #FFA4BE",
"l.	c #F8FFF8",
"m.	c #F9EFEE",
"n.	c #EBFFFF",
"o.	c #FFF7FF",
"p.	c #FCFCFC",
"q.	c #FBF5F7",
"r.	c #FCF0F2",
"s.	c #FFF8FD",
"t.	c #FFF7FD",
"u.	c #D9ABAD",
"v.	c #E7BDBF",
"w.	c #FFDFE0",
"x.	c #FFF7F8",
"y.	c #FFFAFB",
"z.	c #FFF8F0",
"A.	c #FFA0B6",
"B.	c #F4FFF2",
"C.	c #FFECEE",
"D.	c #F7FCFF",
"E.	c #F0F7FF",
"F.	c #FFF5FF",
"G.	c #F7F9F6",
"H.	c #FFFAFC",
"I.	c #F7F9F8",
"J.	c #F5FEFD",
"K.	c #F6FFFF",
"L.	c #F1FBFC",
"M.	c #FFEDEF",
"N.	c #FDC6C9",
"O.	c #DBAFB0",
"P.	c #E9C7C8",
"Q.	c #FFF0EF",
"R.	c #F5F9F8",
"S.	c #FF99B2",
"T.	c #F1FFF0",
"U.	c #F7F4EB",
"V.	c #FFFFF8",
"W.	c #FFF6FE",
"X.	c #EAE8F5",
"Y.	c #D8E0ED",
"Z.	c #F9FBF8",
"`.	c #FEFFE9",
" +	c #F9F9F7",
".+	c #FBFAFF",
"++	c #FFF6FF",
"@+	c #FFF4F7",
"#+	c #FFF1FF",
"$+	c #FDB2AC",
"%+	c #DE9E95",
"&+	c #B08BFC",
"*+	c #5639ED",
"=+	c #9D78E2",
"-+	c #D4CDBD",
";+	c #D1BFFD",
">+	c #C2C1FF",
",+	c #3051D6",
"'+	c #4162FF",
")+	c #1C22D2",
"!+	c #7E72FF",
"~+	c #F9FFFF",
"{+	c #FAFFFE",
"]+	c #F7FDFD",
"^+	c #FBF8FF",
"/+	c #F7F9EE",
"(+	c #F4F7E6",
"_+	c #FFFFF4",
":+	c #E3FFEF",
"<+	c #EAFFFD",
"[+	c #E3F3FF",
"}+	c #FCFFED",
"|+	c #FFFEE4",
"1+	c #490E78",
"2+	c #5D0BCF",
"3+	c #5511A2",
"4+	c #614CFF",
"5+	c #5C41FE",
"6+	c #282AD4",
"7+	c #4247D9",
"8+	c #AF8AFF",
"9+	c #CAAEFF",
"0+	c #D5E3FF",
"a+	c #E7F7FF",
"b+	c #F9F4FB",
"c+	c #FAF3FA",
"d+	c #FFF6FB",
"e+	c #F6FBF7",
"f+	c #FCF7FD",
"g+	c #FBF9FF",
"h+	c #F8F5FF",
"i+	c #F5F1FF",
"j+	c #FFF1F9",
"k+	c #FFE3FF",
"l+	c #CBC1FF",
"m+	c #7595FF",
"n+	c #202DDB",
"o+	c #2000FF",
"p+	c #0A00F5",
"q+	c #284FE8",
"r+	c #8A3A8F",
"s+	c #70699F",
"t+	c #7682A8",
"u+	c #C5D1E7",
"v+	c #E3FFFF",
"w+	c #FFF5EC",
"x+	c #FFFFE4",
"y+	c #F9FCF5",
"z+	c #FEFFEC",
"A+	c #FFFFF1",
"B+	c #FBFDF0",
"C+	c #FBFCF7",
"D+	c #D6CCFF",
"E+	c #9486DE",
"F+	c #1722EE",
"G+	c #030AF0",
"H+	c #2135FF",
"I+	c #2F4BC8",
"J+	c #B0A8E3",
"K+	c #D198CF",
"L+	c #FFDAF7",
"M+	c #E9ECCD",
"N+	c #FFD6D9",
"O+	c #F294A4",
"P+	c #FCD0CD",
"Q+	c #BFCBB5",
"R+	c #858B7D",
"S+	c #EDFFFB",
"T+	c #E8FFFF",
"U+	c #FFE7FF",
"V+	c #F3FAFF",
"W+	c #F6F1F8",
"X+	c #FEFEF6",
"Y+	c #F9FEF8",
"Z+	c #FCFAFF",
"`+	c #FFFFED",
" @	c #F8FAED",
".@	c #D9CFFF",
"+@	c #988AE2",
"@@	c #D4B9FE",
"#@	c #ABB4A3",
"$@	c #EDCFB5",
"%@	c #D29AB3",
"&@	c #FFE2FF",
"*@	c #F4FFFF",
"=@	c #E6FFF5",
"-@	c #FFF0FB",
";@	c #E993B0",
">@	c #F183A6",
",@	c #FFF4FF",
"'@	c #857F89",
")@	c #CFC6DB",
"!@	c #E0FFFF",
"~@	c #F8FFFD",
"{@	c #F0FEFE",
"]@	c #F3FFFD",
"^@	c #FAFFFC",
"/@	c #FBFFFC",
"(@	c #F7F4FF",
"_@	c #F9F5FF",
":@	c #F7F3E7",
"<@	c #C1C6DA",
"[@	c #D3BACD",
"}@	c #FDADBA",
"|@	c #FFCFE5",
"1@	c #FFFAF4",
"2@	c #E8F7E2",
"3@	c #EDFFEA",
"4@	c #FFFFE8",
"5@	c #FEFEE2",
"6@	c #FFFBE4",
"7@	c #E98F91",
"8@	c #FFBBBD",
"9@	c #B3A394",
"0@	c #DDCCC2",
"a@	c #FFE9DF",
"b@	c #FFEEE4",
"c@	c #FFFDF4",
"d@	c #F2FFFF",
"e@	c #FFFAF6",
"f@	c #FAF7FF",
"g@	c #FCF9FF",
"h@	c #F6F9E8",
"i@	c #FCFEF1",
"j@	c #FDFEF9",
"k@	c #98A8B7",
"l@	c #E6D9E2",
"m@	c #FFEAB6",
"n@	c #F5C583",
"o@	c #FFF7EF",
"p@	c #EEECED",
"q@	c #D9F2F7",
"r@	c #FAF3E9",
"s@	c #FFD4CE",
"t@	c #F7A099",
"u@	c #B87763",
"v@	c #F15B5D",
"w@	c #E26B6D",
"x@	c #FEBAB9",
"y@	c #FBFDFA",
"z@	c #FDFFE8",
"A@	c #FEFFF5",
"B@	c #FDFDFB",
"C@	c #E5E4EC",
"D@	c #9CB1A2",
"E@	c #FFDBFF",
"F@	c #DB90A5",
"G@	c #FFF9FB",
"H@	c #E9FFFF",
"I@	c #EEFFFF",
"J@	c #FCFFDB",
"K@	c #F8FFED",
"L@	c #FFFBF0",
"M@	c #FFF6F6",
"N@	c #FFECF8",
"O@	c #EE9DB0",
"P@	c #E50009",
"Q@	c #D31322",
"R@	c #FF8891",
"S@	c #FFEFF3",
"T@	c #F8FBFF",
"U@	c #FFF1FC",
"V@	c #FCFEFB",
"W@	c #F1FFFF",
"X@	c #E5F6EC",
"Y@	c #E2FFFF",
"Z@	c #FCF7FE",
"`@	c #9F889A",
" #	c #FFE9E7",
".#	c #E7B7B7",
"+#	c #F4D4D7",
"@#	c #FFFAFD",
"##	c #EFF5EB",
"$#	c #FCFFF1",
"%#	c #FBF7FF",
"&#	c #ECE5FF",
"*#	c #D8D0FF",
"=#	c #C8BFF4",
"-#	c #E90C38",
";#	c #C50F35",
">#	c #FF9EB8",
",#	c #FFE7F4",
"'#	c #F2FDF9",
")#	c #FAFAFA",
"!#	c #F9F9F9",
"~#	c #E0F9F5",
"{#	c #FFF4FD",
"]#	c #FFE4F1",
"^#	c #C1BDBE",
"/#	c #BBBFBE",
"(#	c #D5A79A",
"_#	c #FFD9D2",
":#	c #FFF8F8",
"<#	c #FDFCFF",
"[#	c #ECEDEF",
"}#	c #FDFBFF",
"|#	c #F0EEFB",
"1#	c #DDDAEB",
"2#	c #CECBDE",
"3#	c #D0CDE2",
"4#	c #E2DEF5",
"5#	c #F2EEFF",
"6#	c #FBD0C9",
"7#	c #FFF2E9",
"8#	c #9D9A91",
"9#	c #F2FFF8",
"0#	c #F2F2F4",
"a#	c #FFF4FC",
"b#	c #FFEEF9",
"c#	c #FEFEFE",
"d#	c #E1F4F0",
"e#	c #E7E8E3",
"f#	c #AB9393",
"g#	c #EDE6DE",
"h#	c #EBCEC0",
"i#	c #FFF9F1",
"j#	c #F5EFFB",
"k#	c #FCFCFF",
"l#	c #F9F6FF",
"m#	c #CAC5E3",
"n#	c #D0CCE7",
"o#	c #DBD8ED",
"p#	c #EBE9F7",
"q#	c #FAF9FF",
"r#	c #F7FFF6",
"s#	c #EDFFF5",
"t#	c #E6FFF6",
"u#	c #7FA095",
"v#	c #E4FFFB",
"w#	c #F3F9F7",
"x#	c #FFF4F8",
"y#	c #A39491",
"z#	c #E3B0B5",
"A#	c #FDCDCD",
"B#	c #F6F0FE",
"C#	c #ECEAFF",
"D#	c #F5F5FF",
"E#	c #D8D8F4",
"F#	c #BFBCD9",
"G#	c #D6D2ED",
"H#	c #FEFDFF",
"I#	c #EEF0E2",
"J#	c #FFEBF5",
"K#	c #FFF6FD",
"L#	c #FBF5F9",
"M#	c #979D9D",
"N#	c #E9F8F3",
"O#	c #F0FFFF",
"P#	c #E3FFF5",
"Q#	c #F8F8F8",
"R#	c #FFEBF2",
"S#	c #E8F0E5",
"T#	c #FFF0EB",
"U#	c #A67378",
"V#	c #FFE6ED",
"W#	c #FAF6FF",
"X#	c #E3E0FB",
"Y#	c #D1D1E9",
"Z#	c #D7D8EC",
"`#	c #ECEBFB",
" $	c #FAF9FE",
".$	c #FBFBF9",
"+$	c #FFF8FF",
"@$	c #F9E2EA",
"#$	c #BCA7AE",
"$$	c #FFF0F6",
"%$	c #E8F5EB",
"&$	c #FFFDED",
"*$	c #FF8090",
"=$	c #DA5566",
"-$	c #BA5162",
";$	c #FEEAEC",
">$	c #E5DBE4",
",$	c #C3C2E4",
"'$	c #C9C8E7",
")$	c #E5E5FF",
"!$	c #F4F5FF",
"~$	c #F1F1FD",
"{$	c #FAFBF6",
"]$	c #F8F9F1",
"^$	c #FDFEF8",
"/$	c #F9F8FE",
"($	c #F7F6FE",
"_$	c #E7FFFD",
":$	c #EFEEEC",
"<$	c #F0E6E7",
"[$	c #B3AAAD",
"}$	c #F6F0F4",
"|$	c #FBFFFA",
"1$	c #EAFCFF",
"2$	c #E9FFF3",
"3$	c #FFFAE3",
"4$	c #CD0009",
"5$	c #D50019",
"6$	c #C94157",
"7$	c #E5E4E9",
"8$	c #DBD9F1",
"9$	c #FCFDFF",
"0$	c #F6F8FF",
"a$	c #FEFEFF",
"b$	c #F6F6F8",
"c$	c #FEFEFC",
"d$	c #F4F4F2",
"e$	c #F7F3F4",
"f$	c #E5EFE6",
"g$	c #EDFCF5",
"h$	c #D7EAE6",
"i$	c #9AB0AD",
"j$	c #EEEEEE",
"k$	c #F7F7F7",
"l$	c #FFF7D6",
"m$	c #FF233B",
"n$	c #F50920",
"o$	c #F1667B",
"p$	c #F1F1FB",
"q$	c #F9FEFA",
"r$	c #FAFAF8",
"s$	c #FBFBFF",
"t$	c #FDFDFD",
"u$	c #FCFDF8",
"v$	c #FFF9FD",
"w$	c #FFFCF3",
"x$	c #FFFEFB",
"y$	c #FEF8FC",
"z$	c #EFE8F0",
"A$	c #989898",
"B$	c #D1D1D1",
"C$	c #858585",
"D$	c #F4F4F4",
"E$	c #BABABA",
"F$	c #CACACA",
"G$	c #888888",
"H$	c #ADADAD",
"I$	c #9D9D9D",
"J$	c #F6F6F6",
"K$	c #F2F2F2",
"L$	c #C1C1C1",
"M$	c #CFCFCF",
"N$	c #DDDDDD",
"O$	c #8A8A8A",
"P$	c #838383",
"Q$	c #878787",
"R$	c #EAEAEA",
"S$	c #A5A5A5",
"T$	c #F3F3F3",
"U$	c #949494",
"V$	c #EDEDED",
"W$	c #F1F1F1",
"X$	c #7E7E7E",
"Y$	c #F0F0F0",
"Z$	c #B9B9B9",
"`$	c #D7D7D7",
" %	c #F5FCF5",
".%	c #8D8D8D",
"+%	c #F7F5F8",
"@%	c #FCFFFD",
"#%	c #C4BFC5",
"$%	c #C0C0C0",
"%%	c #9C959D",
"&%	c #E9E9E9",
". + . . . . . . . . . . . . . . . . @ # $ % & * = - ; > , ' $ ) $ ) . . . . . . ",
"+ + . . . . . . . . . . . . . . . . ! ! ~ { ] ^ / ( _ : < [ $ ) ' ' . . . . . . ",
"+ } . . . . . . . . . . . . . . . . & . # | ~ 1 2 3 4 5 6 ~ # ! ) [ . . . . . . ",
"+ 7 . . . . . . . . . . . . . . . . 8 ) @ 9 ! 6 0 a b * c d e 9 # ~ . . . . . . ",
"f g h ! ] i j i i k ] l l l m n o p # q p r s t u v . . . . . . . . . . . . . . ",
"w $ x y z $ $ l c h A A B . l l l C [ D E F G H I J . . . . . . . . . . . . . . ",
"K L $ $ z M N O P Q # # ! R S T ~ ~ j U V W X Y Z p . . . . . . . . . . . . . . ",
"+ [ `  ...+.@.#.$.%.&.*.! ! ! ! ! =.-.;.>.,.'.).!.~.. . . . . . . . . . . . . . ",
"} [ {.# l ].^./.(._.^ :.:.] . ~ ! <.[.}.|.1.2.3.# 4.. . . . . . . . . . . . . . ",
"5.[ @ 6.7.8.9.0.a.b.c.d.e.1 f.g.h.# i.j.k.l.m.n.~ o.. . . . . . . . . . . . . . ",
"} ' p.. ~ . q.r.s.t.u.v.w.x.y.:.p.! z.A.B.C.w D.E.F.. . . . . . . . . . . . . . ",
"G.[ & H.I.J.| 9 K.L.M.N.O.P.Q.b l R.S.T.U.V.& W.X.Y.. . . . . . . . . . . . . . ",
"Z.i `.r . $  +;.. .+++@+#+$+%+&+*+=+-+i ;+>+,+'+)+!+~+~.h h {+]+# # . . . . . . ",
"} [ ) ^+[ $ /+(+_+;.:+<+[+}+|+1+2+3+4+5+6+7+8+9+0+a+b+c+d+' ) $ ~ ! . . . . . . ",
"e+f+g+h+) . r p ) i+j+k+l+m+n+o+p+q+r+s+t+u+v+F w+x+' i j j i 8.N y+. . . . . . ",
"w $ z+A+_+B+C+[ D+E+F+G+H+I+J+K+L+M+N+O+P+Q+R+S+T+U+V+# .+W+% * X+r . . . . . . ",
"Y+Z+`+A+_+ @C+[ .@+@@@=.#@$@%@&@*@=@F.-@;@>@,@'@)@!@).~@| {@]@^@}.r . . . . . . ",
"/@[ ) (@g+. r p ) _@:@<@[@}@|@1@2@) 3@4@5@6@7@8@9@0@a@b@c@~@d@]@+ e@. . . . . . ",
"} [ ) f@g@$ W h@i@j@k@l@m@n@o@p@V.k+F.q@n.~+r@s@t@u@v@w@x@/ {+K.$ j . . . . . . ",
"y@' z@A@. $ B@;.p.C@D@E@F@G@H@I@J@' K@L@M@$ ) ' N@O@P@Q@R@S@y.T@) U@. . . . . . ",
"V@' #+W@i X@9.Y@Z@`@ #.#+#@#l ##$#}+r p . ) %#&#*#=#-#;#>#,#[ @ '## )#. . . !#p.",
"} ' | ~#{#~ ]#W@^#/#(#_#:#' <#! ! [#) }#|#1#2#3#4#5#6#7#8#9#*@0#a#b#)#p.c#. . . ",
"V@[ | | ' d#' e#f#g#h#i#1 j#Z+k#l#' m#n#o#p#q#. ;.V.r#s#t#u#v#d@w#l . . p.c#. . ",
"y@[ s.x#~.Y@e y#z#A#@+' B#C#D#E#F#G#' ' ^+H#. p  @I#++J#K#L#M#N#O#P#. . . . p.Q#",
"/@) R#b S#c@T#U#z#V#i W#X#Y#Z#`#g+)  $$ $ . )#.$l l  .) o.+$@$#$$$' )#y . . . . ",
"w ) *@%$&$*$=$-$;$>$,$'$)$!$~$~ . {$]$^$;.l . H#/$($_$d@~+:$8.<$[$}$. . . y . . ",
"|$$ 1$2$3$4$5$6$7$8$9$0$a$a$$ b$. ~ ;.c$d$7.. . $ H#) e$;.}.f$g$h$i$j$p.. !#k$. ",
"K }#o.9#l$m$n$o$p$#+q$= .$r$$ $ s$ .<#$ $ . t$r$u$p v$b 1@w$V.x$y$z$A$B$. . p.t$",
"} [ c#c#. C$D$Q#. . . . . . . . . . . . . . . . . . . . . . . . . . D$E$F$. . p.",
"} [ 7.. . G$Q#. c#p.. . . . . . . . . . . . . . . . . . . . . . . . . c#H$I$J$. ",
"} [ . K$L$M$y t$. t$. . . . . . . . . . . . . . . . . . . . . . . . K$7.. N$O$P$",
"} [ . k$Q$. . 7.t$. . . . . . . . . . . . . . . . . . . . . . . . . . c#. . . c#",
"} [ D$R$S$p.. . y . . . . . . . . . . . . . . . . . . . . . . . . . T$. J$T$. !#",
"} [ . U$V$. W$. . p.. . . . . . . . . . . . . . . . . . . . . . . . . J$. . t$. ",
"} [ t$X$. . 7.y . p.. . . . . . . . . . . . . . . . . . . . . . . . p.. p.W$Y$Q#",
"} [ Z$`$. Y$. . V$. . . . . . . . . . . . . . . . . . . . . . . . . c#p.c#. . c#",
" %. .%k$. . . Q#. )#. . . . . . . . . . . . . . . . . . . . . . . . . . . . . . ",
"w +%I$7.c#t$. !#. p.. . . . . . . . . . . . . . . . . . . . . . . . . . . . . . ",
"@%#%$%y y t$. )#. t$. . . . . . . . . . . . . . . . . . . . . . . . . . . . . . ",
"+ %%&%. t$. . p.. t$. . . . . . . . . . . . . . . . . . . . . . . . . . . . . . "};
