/* XPM */
static char * sdlfontmodule_xpm[] = {
"40 40 180 2",
"  	c None",
". 	c #FEFEFE",
"+ 	c #FCFCFC",
"@ 	c #FBFBFB",
"# 	c #FDFDFD",
"$ 	c #F9F9F9",
"% 	c #FAFAFA",
"& 	c #F7F7F7",
"* 	c #B0B0B0",
"= 	c #6D6D6D",
"- 	c #6E6E6E",
"; 	c #8C8C8C",
"> 	c #F8F8F8",
", 	c #EBEBEB",
"' 	c #757575",
") 	c #767676",
"! 	c #777777",
"~ 	c #B9B9B9",
"{ 	c #D0D0D0",
"] 	c #696969",
"^ 	c #5F5F5F",
"/ 	c #6C6C6C",
"( 	c #E5E5E5",
"_ 	c #727272",
": 	c #717171",
"< 	c #B1B1B1",
"[ 	c #DDDDDD",
"} 	c #797979",
"| 	c #7B7B7B",
"1 	c #7A7A7A",
"2 	c #CBCBCB",
"3 	c #6B6B6B",
"4 	c #868686",
"5 	c #F1F1F1",
"6 	c #6A6A6A",
"7 	c #D9D9D9",
"8 	c #DFDFDF",
"9 	c #D8D8D8",
"0 	c #E7E7E7",
"a 	c #E4E4E4",
"b 	c #D1D1D1",
"c 	c #808080",
"d 	c #CCCCCC",
"e 	c #EDEDED",
"f 	c #B7B7B7",
"g 	c #C4C4C4",
"h 	c #E3E3E3",
"i 	c #7E7E7E",
"j 	c #E8E8E8",
"k 	c #636363",
"l 	c #939393",
"m 	c #C1C1C1",
"n 	c #E1E1E1",
"o 	c #DCDCDC",
"p 	c #B6B6B6",
"q 	c #676767",
"r 	c #E2E2E2",
"s 	c #4B4B4B",
"t 	c #626262",
"u 	c #616161",
"v 	c #3D3D3D",
"w 	c #E9E9E9",
"x 	c #404040",
"y 	c #595959",
"z 	c #FFFFFF",
"A 	c #848484",
"B 	c #898989",
"C 	c #686868",
"D 	c #737373",
"E 	c #C6C6C6",
"F 	c #555555",
"G 	c #707070",
"H 	c #969696",
"I 	c #D3D3D3",
"J 	c #E6E6E6",
"K 	c #DEDEDE",
"L 	c #DADADA",
"M 	c #5B5B5B",
"N 	c #BEBEBE",
"O 	c #ABABAB",
"P 	c #BFBFBF",
"Q 	c #959595",
"R 	c #D4D4D4",
"S 	c #A5A5A5",
"T 	c #7D7D7D",
"U 	c #B3B3B3",
"V 	c #EEEEEE",
"W 	c #7F7F7F",
"X 	c #747474",
"Y 	c #787878",
"Z 	c #F0F0F0",
"` 	c #878787",
" .	c #C0C0C0",
"..	c #7C7C7C",
"+.	c #CDCDCD",
"@.	c #B8B8B8",
"#.	c #F4F4F4",
"$.	c #EFEFEF",
"%.	c #F6F6F6",
"&.	c #EAEAEA",
"*.	c #9A9A9A",
"=.	c #888888",
"-.	c #ADADAD",
";.	c #D2D2D2",
">.	c #5A5A5A",
",.	c #BBBBBB",
"'.	c #F2F2F2",
").	c #9B9B9B",
"!.	c #AAAAAA",
"~.	c #999999",
"{.	c #E0E0E0",
"].	c #C3C3C3",
"^.	c #9F9F9F",
"/.	c #4C4C4C",
"(.	c #525252",
"_.	c #515151",
":.	c #9E9E9E",
"<.	c #CFCFCF",
"[.	c #B2B2B2",
"}.	c #4E4E4E",
"|.	c #9D9D9D",
"1.	c #5D5D5D",
"2.	c #ECECEC",
"3.	c #D5D5D5",
"4.	c #8F8F8F",
"5.	c #A1A1A1",
"6.	c #565656",
"7.	c #CACACA",
"8.	c #C5C5C5",
"9.	c #BABABA",
"0.	c #DBDBDB",
"a.	c #D6D6D6",
"b.	c #C7C7C7",
"c.	c #F5F5F5",
"d.	c #CECECE",
"e.	c #C9C9C9",
"f.	c #D7D7D7",
"g.	c #B4B4B4",
"h.	c #A8A8A8",
"i.	c #ACACAC",
"j.	c #4A4A4A",
"k.	c #8D8D8D",
"l.	c #474747",
"m.	c #919191",
"n.	c #A4A4A4",
"o.	c #AEAEAE",
"p.	c #6F6F6F",
"q.	c #656565",
"r.	c #A0A0A0",
"s.	c #C2C2C2",
"t.	c #A3A3A3",
"u.	c #AFAFAF",
"v.	c #838383",
"w.	c #A7A7A7",
"x.	c #F3F3F3",
"y.	c #A6A6A6",
"z.	c #989898",
"A.	c #646464",
"B.	c #575757",
"C.	c #9C9C9C",
"D.	c #B5B5B5",
"E.	c #A9A9A9",
"F.	c #454545",
"G.	c #606060",
"H.	c #666666",
"I.	c #949494",
"J.	c #909090",
"K.	c #858585",
"L.	c #A2A2A2",
"M.	c #363636",
"N.	c #5E5E5E",
"O.	c #818181",
"P.	c #929292",
"Q.	c #5C5C5C",
"R.	c #585858",
"S.	c #3B3B3B",
"T.	c #292929",
"U.	c #505050",
"V.	c #828282",
"W.	c #444444",
". + @ . . @ + # @ + $ # @ + + + + . @ + . . . + @ # . @ + # @ + + + . . @ # . % ",
"@ % # % + # # # $ @ + % @ + # + @ + + @ . + @ + % @ . + + $ & @ $ # + + + + $ + ",
"+ @ * = - ; > + , ' ) ! ~ . % { ] ^ / ( + , _ = : < + + [ } | 1 2 $ @ * = 3 4 5 ",
"# > 6 7 8 ) 9 @ 0 ' a b ' + # c d e f g + h i , j k + . l m n o p $ + q h r < ( ",
". > s t u v b + w x q y = + @ i w # @ & z a A @ + 3 # + B C D E $ % $ F _ D w z ",
"+ . G $ + H I . J ) K L M @ + 4 N n O P + J ) o K C # + Q ~ 8 R S % $ T + # . z ",
"+ + U $ + E 0 # V W X Y f @ + L T } c 0 . Z ` ! )  .+ + ( ` ! ..+.% $ @.% # @ z ",
"# + + + + % + @ > # % + # # + % # + # @ # + @ % % @ z + + # + % . + % . + + # z ",
"% > # @ @ + # # + @ . # @ # # + . + . # # # . # + > # + # . + @ # z z z z z z z ",
"+ % #.0 J $.+ + $ 5 + + $.. + %.> . . % &.&.%.+ # V @ % $.# + 5 # z z z z z z z ",
"# % W 3 G u #.. 9 *.# &.=.# . -.;.. . e } >.,.. # ' '.).!.+ @ ~.0 z z z z z z z ",
"# $ u $ {.,.5 # b 3 ].U G + . ^.2 . . + @ ,.U + @ /.X S % + # 4 r . z z z z z z ",
". & 6 > A (.h # ;._.l 4 3 . # :.2 @ $.<.@ ~ [.. # }.1 U > + # =.n # # # z z z z ",
". % u H |.1.2.+ 3.4.@ j 1 . . 5.+.# , 6.*.D 7.# + q Z | 8.@ + 4 ; ^.R + z z z z ",
"+ $ 8 9.@.3.$ @ e 0.@ %.a.+ # a V # @ +.~ b.c.+ % d.@ 2.I # @ L ~ 9.8 # z z z z ",
"+ @ + + # + + + @ @ @ # + . + + @ # % + + @ + # $ @ @ + # # . @ # + . z z z z z ",
"# # # # + + $ @ @ @ + % + + @ > @ @ @ + @ @ @ % # + % # @ @ + # @ + + # z z z z ",
"+ @ e.N ].{.,.N '.@ # f.].g.{ > @ % 3.-.h.2 + + 2.* i.N Z + + 2 -.O ;.+ z z z z ",
"+ @ j.~.k.l.^.m.n.+ + W A o.k r . %.k ).:.y 0 @ +.k ~.p.< # 5 1.*.~.q.c.z z z z ",
"# + C & , ] % 5 i # + A [ # r.s.# Z ! @ % A R . d C t.Y u.@ n =.$ > v.w z z z z ",
". # / @ $...@ > T # @ 4 r + w.s.+ Z - x.c.} 7 # +.] y.-.$.# ( ! x.U y &.z z z z ",
"# @ ; $ #.l @ x.z.# . *.J . p 7.@ > 4 q q._ '.% f.-.# z + + & Y A.B.s a z z z z ",
"+ + x.# + '.. + #.# # #.$ # & $ @ + > , &.x.$ . % c.+ . + @ + %., &.Z @ z z z z ",
"# + # . # + # # + @ . + . + # . . @ @ @ @ @ + # . + # # + + . + . @ $ z z z z z ",
"+ # # @ + @ % @ @ % % $ @ . + @ @ % $ # # + + # @ % # @ % + + + % # . z z z z z ",
"# + ` / - C.% % w i ' } D.$ + U ' C Y w # a.].% , u.. + n.a + 0.< % # . z z z z ",
"+ + : I I / x.# ,.' b e.E.# @ e 0.k n > # g y.# 8 B # # D.*.> 4 7.+ # . z z z z ",
"# + 6.t A.F.c.# J Y _ p.).. . # #.D # # + 8.w.+ {.B z # x.G.h H.> . . . z z z z ",
"% + X h ( G &.$ [ |.b.p q . z z c._ + . @ f.Y 2 C.:.z z z I.H.S . z z z z z z z ",
"# @ 9.$ $ 9.'.% V J.B 4 m . z z @ < . . @ $ i.B I.5 z z z a K., . z z z z z z z ",
"# # % # + % % + @ + . # + . z z @ @ + # # @ % # % @ z z z # @ % # z z z z z z z ",
". + @ # % + + $ + + + + + + . . # # + @ z + % @ $ . # + # @ + @ . . # . z z z z ",
"# . , + $ $.$ & x.@ @ , > + 5 & # & $.+ # 5 > + #.0 J h 5 # % 5 r 8 c.+ z z z z ",
"# > | c.].u % [.@.. & i.L., ) V @ e ` % # Q K @ R ' _ M.N @ x.H.6 C 6 & z z z z ",
"+ @ m.+.; N.0 : &.# % $ O.1.8.@ + %.^ g 8.k n # % & ^.O.& # #.C.Q P.Q.w z z z z ",
"@ @ d Q p.D.C._ & + + c.) (.m + % # <.X ^ f % + + * : #.@ . V G.9.,.R.j z z z z ",
"# @ '.y =.V S.S + # > Q C.&.k [ # . # b.5.. # @ 3.T.! v.3.+ e U.A V.W.j z z z z ",
"# . @ 8 e $ [ $.@ @ > 0.%.> , 0 + z . 5 e + + + $.{ <.;.2.@ @ n I a.o $ z z z z ",
". + . % % % + @ + @ % % + > + @ . z z # @ . # # # % + % % + % # + @ . . z z z z ",
". z # # z . . . # . . . . . # . . z z # # . z . # z . # + z + . # z . z z z z z "};
