/* XPM */
static char * effectvdiffmodule_xpm[] = {
"40 40 717 2",
"  	c None",
". 	c #6F6662",
"+ 	c #7B7D7B",
"@ 	c #7B7D76",
"# 	c #7B7D71",
"$ 	c #7B7D78",
"% 	c #61543A",
"& 	c #220003",
"* 	c #0E0004",
"= 	c #040004",
"- 	c #3D4944",
"; 	c #7B7D6C",
"> 	c #7B7D73",
", 	c #7B7D69",
"' 	c #7B7D64",
") 	c #7B7D6E",
"! 	c #72685A",
"~ 	c #7B7D55",
"{ 	c #7B7D66",
"] 	c #7B7D5C",
"^ 	c #7B7D4A",
"/ 	c #7B7D5F",
"( 	c #46372C",
"_ 	c #090004",
": 	c #172727",
"< 	c #7B7D57",
"[ 	c #7B7D61",
"} 	c #7B7D52",
"| 	c #7B7D48",
"1 	c #7B7D4F",
"2 	c #7B7D3E",
"3 	c #7B7D40",
"4 	c #7B7D4D",
"5 	c #646340",
"6 	c #7B7D2E",
"7 	c #7B7D36",
"8 	c #7B7D29",
"9 	c #7B7D3B",
"0 	c #7B7D2C",
"a 	c #817D3B",
"b 	c #230D09",
"c 	c #060809",
"d 	c #737A64",
"e 	c #7B7D21",
"f 	c #797548",
"g 	c #3D4935",
"h 	c #262F1A",
"i 	c #292C17",
"j 	c #383E2E",
"k 	c #65604E",
"l 	c #7B7D12",
"m 	c #7B7D0A",
"n 	c #7B7D24",
"o 	c #7B7D38",
"p 	c #7B7D26",
"q 	c #7B7D14",
"r 	c #787D0D",
"s 	c #686D17",
"t 	c #7B7D03",
"u 	c #767D0D",
"v 	c #737D0A",
"w 	c #717D0D",
"x 	c #737D03",
"y 	c #787D08",
"z 	c #756E2A",
"A 	c #283C30",
"B 	c #513F0C",
"C 	c #1E1013",
"D 	c #565B50",
"E 	c #7B7D0F",
"F 	c #7B7D05",
"G 	c #7B7D00",
"H 	c #55601D",
"I 	c #0B0D0B",
"J 	c #33311C",
"K 	c #797A6E",
"L 	c #7B7D08",
"M 	c #767D1C",
"N 	c #466022",
"O 	c #437D00",
"P 	c #617D00",
"Q 	c #407D00",
"R 	c #3E7D00",
"S 	c #457500",
"T 	c #555C29",
"U 	c #5A751F",
"V 	c #337A03",
"W 	c #4E5941",
"X 	c #2E3935",
"Y 	c #457D08",
"Z 	c #527800",
"` 	c #677800",
" .	c #586D00",
"..	c #160A06",
"+.	c #272A21",
"@.	c #717D38",
"#.	c #787D00",
"$.	c #5C7D00",
"%.	c #647D00",
"&.	c #617A00",
"*.	c #6E7D00",
"=.	c #737D00",
"-.	c #717D00",
";.	c #697D05",
">.	c #333421",
",.	c #074602",
"'.	c #113702",
").	c #0C2F02",
"!.	c #143102",
"~.	c #192F02",
"{.	c #1C3202",
"].	c #535148",
"^.	c #35460C",
"/.	c #164602",
"(.	c #544F37",
"_.	c #101515",
":.	c #396825",
"<.	c #143C02",
"[.	c #0E5101",
"}.	c #463402",
"|.	c #515644",
"1.	c #255B04",
"2.	c #185601",
"3.	c #205101",
"4.	c #234602",
"5.	c #205301",
"6.	c #2F4901",
"7.	c #255101",
"8.	c #316601",
"9.	c #325E01",
"0.	c #2D5901",
"a.	c #465906",
"b.	c #4C0017",
"c.	c #060004",
"d.	c #0B0004",
"e.	c #140B04",
"f.	c #665C44",
"g.	c #3F3E33",
"h.	c #110504",
"i.	c #423522",
"j.	c #3A3E33",
"k.	c #0E0504",
"l.	c #382F23",
"m.	c #151A13",
"n.	c #312C26",
"o.	c #130004",
"p.	c #100004",
"q.	c #180A06",
"r.	c #321022",
"s.	c #3F2F1D",
"t.	c #040504",
"u.	c #1A1F18",
"v.	c #2E3721",
"w.	c #33372B",
"x.	c #4D2F32",
"y.	c #0E1009",
"z.	c #383C26",
"A.	c #290003",
"B.	c #4C051D",
"C.	c #140004",
"D.	c #73694B",
"E.	c #2E2724",
"F.	c #524A32",
"G.	c #2E3426",
"H.	c #1B0004",
"I.	c #3D0520",
"J.	c #1E0004",
"K.	c #230004",
"L.	c #382018",
"M.	c #26100E",
"N.	c #1A1F1A",
"O.	c #312724",
"P.	c #574432",
"Q.	c #090504",
"R.	c #242C29",
"S.	c #1E0809",
"T.	c #190004",
"U.	c #4F0517",
"V.	c #480003",
"W.	c #6C4A27",
"X.	c #645A41",
"Y.	c #453728",
"Z.	c #674A3C",
"`.	c #160804",
" +	c #767E66",
".+	c #090509",
"++	c #625F1D",
"@+	c #AFAF4F",
"#+	c #70846B",
"$+	c #151518",
"%+	c #341212",
"&+	c #2E0003",
"*+	c #4B2721",
"=+	c #3D0D0D",
"-+	c #520003",
";+	c #430003",
">+	c #770002",
",+	c #BB3A1B",
"'+	c #47443D",
")+	c #303429",
"!+	c #593F42",
"~+	c #3C1F1C",
"{+	c #B76C23",
"]+	c #8F968F",
"^+	c #0E050E",
"/+	c #371F15",
"(+	c #962A09",
"_+	c #8D241D",
":+	c #CA7F4A",
"<+	c #04050E",
"[+	c #0B0D09",
"}+	c #531F21",
"|+	c #330003",
"1+	c #380003",
"2+	c #620002",
"3+	c #2B0003",
"4+	c #4E2417",
"5+	c #7E120F",
"6+	c #8C0002",
"7+	c #960002",
"8+	c #870002",
"9+	c #665A41",
"0+	c #130D0B",
"a+	c #352D2A",
"b+	c #2C2A17",
"c+	c #252018",
"d+	c #464921",
"e+	c #23201E",
"f+	c #040304",
"g+	c #424123",
"h+	c #232018",
"i+	c #363721",
"j+	c #82593D",
"k+	c #0E1509",
"l+	c #772A1B",
"m+	c #C50001",
"n+	c #B10001",
"o+	c #910002",
"p+	c #C00001",
"q+	c #D00001",
"r+	c #A60001",
"s+	c #A10002",
"t+	c #424022",
"u+	c #441D17",
"v+	c #923709",
"w+	c #D7480B",
"x+	c #B82206",
"y+	c #DA451B",
"z+	c #2D2528",
"A+	c #1E0504",
"B+	c #403803",
"C+	c #776A02",
"D+	c #A6AF06",
"E+	c #877502",
"F+	c #1E1504",
"G+	c #060304",
"H+	c #907A1C",
"I+	c #9F2722",
"J+	c #E50000",
"K+	c #EA0000",
"L+	c #EF0000",
"M+	c #FA0000",
"N+	c #F50000",
"O+	c #AB0001",
"P+	c #473028",
"Q+	c #5C5447",
"R+	c #3F200A",
"S+	c #9C8C45",
"T+	c #212C15",
"U+	c #352513",
"V+	c #0E0B04",
"W+	c #582003",
"X+	c #B8A201",
"Y+	c #B0BC0B",
"Z+	c #F4EF1A",
"`+	c #E5DA0B",
" @	c #231504",
".@	c #816002",
"+@	c #BE9917",
"@@	c #FFB500",
"#@	c #FFAA00",
"$@	c #FF9A00",
"%@	c #FF8000",
"&@	c #F48000",
"*@	c #3D2A2D",
"=@	c #1E2018",
"-@	c #616447",
";@	c #131513",
">@	c #4C4F37",
",@	c #282A2D",
"'@	c #8E5007",
")@	c #EFEF05",
"!@	c #F9FE3A",
"~@	c #CFCB5A",
"{@	c #CFD41B",
"]@	c #B6AF16",
"^@	c #C1BC10",
"/@	c #FFFF00",
"(@	c #F4FF10",
"_@	c #3D3518",
":@	c #331A13",
"<@	c #5C5442",
"[@	c #575F37",
"}@	c #192013",
"|@	c #3C5442",
"1@	c #2D3533",
"2@	c #2E0503",
"3@	c #EA6A00",
"4@	c #FAF400",
"5@	c #FAFF10",
"6@	c #FEFE6E",
"7@	c #FDFDA3",
"8@	c #F3D389",
"9@	c #483F1D",
"0@	c #A9BC15",
"a@	c #EFFF05",
"b@	c #191513",
"c@	c #5C5F41",
"d@	c #574F42",
"e@	c #2D352D",
"f@	c #580003",
"g@	c #E56500",
"h@	c #F4CF00",
"i@	c #FFFF1A",
"j@	c #7C742C",
"k@	c #8F991D",
"l@	c #FFFF10",
"m@	c #5C4F27",
"n@	c #1E1A0E",
"o@	c #1E150E",
"p@	c #5C5951",
"q@	c #28280E",
"r@	c #0E0509",
"s@	c #140509",
"t@	c #821002",
"u@	c #EA6500",
"v@	c #EFBF05",
"w@	c #EFEF00",
"x@	c #FFFA00",
"y@	c #FFFF05",
"z@	c #6E696E",
"A@	c #393F0A",
"B@	c #808401",
"C@	c #7D9401",
"D@	c #9C940B",
"E@	c #9A990C",
"F@	c #97A908",
"G@	c #9AA60B",
"H@	c #A4AE0B",
"I@	c #B3BE00",
"J@	c #C3D425",
"K@	c #1E1519",
"L@	c #0E100E",
"M@	c #5B7956",
"N@	c #1E0B04",
"O@	c #675517",
"P@	c #413C29",
"Q@	c #A6AEA9",
"R@	c #1A1538",
"S@	c #5D0503",
"T@	c #A62501",
"U@	c #C06A06",
"V@	c #D59510",
"W@	c #A2AF20",
"X@	c #EBF379",
"Y@	c #0E1A1E",
"Z@	c #45451D",
"`@	c #E7EF25",
" #	c #515A42",
".#	c #231A18",
"+#	c #525437",
"@#	c #3D3528",
"##	c #616E7B",
"$#	c #0C0B0E",
"%#	c #86845B",
"&#	c #A6942B",
"*#	c #4E4F17",
"=#	c #FFFF15",
"-#	c #F0F874",
";#	c #A9B4A9",
">#	c #81A9B9",
",#	c #9FA994",
"'#	c #CFDE55",
")#	c #666976",
"!#	c #867731",
"~#	c #FAFA10",
"{#	c #F4FF05",
"]#	c #382F2D",
"^#	c #67542C",
"/#	c #5C5F47",
"(#	c #332A18",
"_#	c #61795C",
":#	c #09050E",
"<#	c #2B250B",
"[#	c #709E70",
"}#	c #A08F2B",
"|#	c #808A0C",
"1#	c #B9BE84",
"2#	c #040009",
"3#	c #6C5512",
"4#	c #130D0E",
"5#	c #A0A730",
"6#	c #CACF3B",
"7#	c #5C542C",
"8#	c #574A27",
"9#	c #232518",
"0#	c #5C5F4C",
"a#	c #767E70",
"b#	c #0E1013",
"c#	c #23151E",
"d#	c #6C3A0D",
"e#	c #332A08",
"f#	c #141004",
"g#	c #8D6A1E",
"h#	c #D4D708",
"i#	c #F9F864",
"j#	c #0E101E",
"k#	c #775F27",
"l#	c #AA9960",
"m#	c #383523",
"n#	c #302513",
"o#	c #D7D415",
"p#	c #B5AF30",
"q#	c #4D4512",
"r#	c #041009",
"s#	c #4D1513",
"t#	c #383018",
"u#	c #4D4522",
"v#	c #2E2018",
"w#	c #666951",
"x#	c #6B7956",
"y#	c #191A1E",
"z#	c #98894B",
"A#	c #332513",
"B#	c #516F56",
"C#	c #888F2E",
"D#	c #B1BC27",
"E#	c #CAD700",
"F#	c #FFF400",
"G#	c #FFEA00",
"H#	c #FFFF25",
"I#	c #515971",
"J#	c #1E1004",
"K#	c #3A2A0D",
"L#	c #C4B889",
"M#	c #52522C",
"N#	c #9A9F20",
"O#	c #FFFF0A",
"P#	c #A08F31",
"Q#	c #52350D",
"R#	c #382508",
"S#	c #18100E",
"T#	c #44422D",
"U#	c #3D3A28",
"V#	c #666F56",
"W#	c #1E1A1E",
"X#	c #66645C",
"Y#	c #1E0A0E",
"Z#	c #140504",
"`#	c #582008",
" $	c #282803",
".$	c #88821E",
"+$	c #BF9215",
"@$	c #FFDF00",
"#$	c #FFDA00",
"$$	c #FFD400",
"%$	c #809480",
"&$	c #B4AE75",
"*$	c #1E1009",
"=$	c #333008",
"-$	c #BAA950",
";$	c #5F5C28",
">$	c #F4F415",
",$	c #938A36",
"'$	c #383008",
")$	c #33250E",
"!$	c #2D3A03",
"~$	c #190804",
"{$	c #383A13",
"]$	c #383F2D",
"^$	c #1E1A19",
"/$	c #717451",
"($	c #573F22",
"_$	c #2B2818",
":$	c #9AB960",
"<$	c #4E4426",
"[$	c #837714",
"}$	c #CFB70A",
"|$	c #FFA500",
"1$	c #FF9F00",
"2$	c #FFE400",
"3$	c #FFBF00",
"4$	c #FFEF20",
"5$	c #AD9E60",
"6$	c #1E1D09",
"7$	c #575A12",
"8$	c #A49E8A",
"9$	c #381B03",
"0$	c #8C966D",
"a$	c #64721C",
"b$	c #2E2A03",
"c$	c #233503",
"d$	c #43350D",
"e$	c #383A28",
"f$	c #3D3A32",
"g$	c #767951",
"h$	c #413F1A",
"i$	c #381508",
"j$	c #1E0B09",
"k$	c #874507",
"l$	c #232523",
"m$	c #97BC45",
"n$	c #977C13",
"o$	c #A46D23",
"p$	c #AF8F00",
"q$	c #AA6A06",
"r$	c #8A6423",
"s$	c #D7CC40",
"t$	c #545722",
"u$	c #909980",
"v$	c #5C4A17",
"w$	c #667F2C",
"x$	c #3B3208",
"y$	c #433508",
"z$	c #48450D",
"A$	c #232003",
"B$	c #424003",
"C$	c #0E1504",
"D$	c #33351D",
"E$	c #3D4522",
"F$	c #66643C",
"G$	c #4A1D27",
"H$	c #979975",
"I$	c #4F4527",
"J$	c #3D4A28",
"K$	c #393F14",
"L$	c #A7B13F",
"M$	c #D7A20B",
"N$	c #FEE934",
"O$	c #835F31",
"P$	c #7B6231",
"Q$	c #859460",
"R$	c #333A23",
"S$	c #94AE84",
"T$	c #1E300E",
"U$	c #583A03",
"V$	c #281B03",
"W$	c #282A08",
"X$	c #090B04",
"Y$	c #230504",
"Z$	c #283528",
"`$	c #332A1E",
" %	c #1B180B",
".%	c #DBDB61",
"+%	c #667A56",
"@%	c #1B0504",
"#%	c #616241",
"$%	c #431008",
"%%	c #60845B",
"&%	c #856C40",
"*%	c #4C2D15",
"=%	c #525F12",
"-%	c #99C88F",
";%	c #0E1014",
">%	c #959950",
",%	c #696432",
"'%	c #183503",
")%	c #483A03",
"!%	c #330B03",
"~%	c #231B04",
"{%	c #332503",
"]%	c #75450E",
"^%	c #F47A00",
"/%	c #E3E37E",
"(%	c #636456",
"_%	c #B4B96A",
":%	c #482A08",
"<%	c #332003",
"[%	c #544F1D",
"}%	c #67642C",
"|%	c #141504",
"1%	c #808F3B",
"2%	c #7D8965",
"3%	c #332A23",
"4%	c #352808",
"5%	c #292003",
"6%	c #382A03",
"7%	c #232004",
"8%	c #2A1A10",
"9%	c #EF1503",
"0%	c #F50500",
"a%	c #FF3A00",
"b%	c #E4D364",
"c%	c #958F4B",
"d%	c #381505",
"e%	c #AA8F45",
"f%	c #130804",
"g%	c #94C97F",
"h%	c #432003",
"i%	c #3D301D",
"j%	c #3D2508",
"k%	c #9A9460",
"l%	c #2E000E",
"m%	c #474712",
"n%	c #474A1D",
"o%	c #480503",
"p%	c #432503",
"q%	c #4B271E",
"r%	c #E50503",
"s%	c #D82808",
"t%	c #D9B974",
"u%	c #38220D",
"v%	c #815A22",
"w%	c #7C4A02",
"x%	c #16120E",
"y%	c #B5B45A",
"z%	c #261503",
"A%	c #62521D",
"B%	c #645A2C",
"C%	c #C4B455",
"D%	c #23252D",
"E%	c #4A1803",
"F%	c #433C26",
"G%	c #B7171A",
"H%	c #F50B00",
"I%	c #836C46",
"J%	c #48451D",
"K%	c #382003",
"L%	c #281A0E",
"M%	c #59400F",
"N%	c #717A2C",
"O%	c #4A3208",
"P%	c #51652C",
"Q%	c #131B04",
"R%	c #887A1E",
"S%	c #AD4209",
"T%	c #DF5515",
"U%	c #2D3532",
"V%	c #42350D",
"W%	c #342D1A",
"X%	c #230B03",
"Y%	c #95A37A",
"Z%	c #2E0509",
"`%	c #383003",
" &	c #3B2D0B",
".&	c #192004",
"+&	c #453A15",
"@&	c #581B0D",
"#&	c #476A32",
"$&	c #7C672C",
"%&	c #412F14",
"&&	c #1E0D03",
"*&	c #29000E",
"=&	c #290B03",
"-&	c #331B03",
";&	c #4D2D12",
">&	c #615A32",
",&	c #807A3B",
"'&	c #A29C50",
")&	c #282013",
"!&	c #1E3003",
"~&	c #33200E",
"{&	c #2E1509",
"]&	c #191B04",
"^&	c #767F36",
"/&	c #060804",
"(&	c #6E6F41",
"_&	c #232D1D",
":&	c #352D13",
"<&	c #0E0809",
"[&	c #958465",
"}&	c #11030E",
"|&	c #3F4A1D",
"1&	c #4F4236",
"2&	c #2D2F28",
"3&	c #1B2210",
"4&	c #6C400D",
"5&	c #BF946F",
"6&	c #493A2C",
"7&	c #6C551C",
"8&	c #040B04",
"9&	c #45301D",
"0&	c #793A12",
"a&	c #634D17",
"b&	c #282A18",
"c&	c #4D2003",
"d&	c #1D150B",
"e&	c #524512",
"f&	c #3B1503",
"g&	c #3E0503",
"h&	c #9B6F46",
"i&	c #162503",
"j&	c #77700C",
"k&	c #413224",
"l&	c #59470D",
"m&	c #483528",
"n&	c #121A0B",
"o&	c #3D452D",
"p&	c #281B06",
"q&	c #3B2F29",
"r&	c #431A0E",
"s&	c #191004",
"t&	c #0B180B",
"u&	c #38150B",
"v&	c #190504",
"w&	c #131210",
"x&	c #180A0E",
"y&	c #191504",
"z&	c #2C2A02",
"A&	c #66644C",
"B&	c #2C1D1A",
"C&	c #221D15",
"D&	c #2E1009",
"E&	c #1E100E",
"F&	c #626007",
"G&	c #1F1718",
"H&	c #200003",
". + @ # $ # @ # % & * = = - + $ ; > $ > > , + @ , > ; , @ ' @ @ > # # # ) ) > @ ",
"! ' ~ # { ] ^ / ( _ = = = : # < ) [ ' [ , { $ # > + ] } | / ~ ~ , < ~ 1 2 3 , 4 ",
"5 6 7 8 9 3 0 a b = = = = c d ^ | 8 7 e f g h i j k > 7 l m n o 4 9 p 2 q m l r ",
"s t u v w x y z A B C = = = D l E F G H I = = = = = J K q F G L F t G G G G t M ",
"N O P O Q R S T U V W = = = X Y Z `  ...= = = = = = = +.@.#.$.%.$.$.&.*.=.=.-.;.",
">.,.'.).!.~.{.].^./.(.= = = _.:.<.[.}.= = = = = = = = = |.1.2.3.4.5.6.7.8.9.0.a.",
"b._ = c.d.d.e.f.g.h.i.= = = = j._ k.l.= = = = = = = = = m.n.= o.c.d.d.= = c.p.q.",
"r.= = = = = s.t.u.v.= = = = = w.= x.y.= = = = = = = = = = z.= = = = = = = = = A.",
"B._ C.= C.* D.= = = = = = = = E.= F.= = = = = = = = = = = G._ = = = = = = = = H.",
"I._ J.K.C.L.M.= = = = = = = = N.O.P.= = Q.= = = = = _ t.= R.S.= T.= * = * C._ H.",
"U.K._ A.V.W.X.= = = = = = = = = Y.Z.`. +.+= = _ ++@+#+_ = $+%+* T.T.= * _ = _ &+",
"*+=+-+;+;+>+,+'+= = = = = = = = )+!+~+{+]+^+= /+(+_+:+<+= [+}+&+_ T.|+|+1+2+C.3+",
"= 4+5+6+7+8+7+9+= = = = = = = = 0+a+b+c+d+e+f+g+h+i+j+k+= = l+m+n+o+p+>+q+r+s+o+",
"t+= u+v+w+x+y+z+= = = = = = = = = = A+_ B+C+D+E+F+G+H+= = = I+J+K+J+L+J+M+N+J+O+",
"P+Q+.+R+S+T+U+= = = = = = = = = = = * V+W+X+Y+Z+`+ @.@= = = +@@@#@#@#@#@#@$@%@&@",
"*@=@-@;@>@,@= = = = = = = = = = = = = K.'@)@!@~@{@]@= = = = ^@/@/@/@/@/@/@/@/@(@",
"_@:@<@[@}@|@1@= = _ = = = = = = = = = 2@3@4@5@6@7@8@9@= = = 0@/@/@/@/@/@/@/@/@a@",
"K.= b@c@d@e@t.= = = = = = = = = = = = f@g@h@/@/@i@/@j@= = = k@/@/@/@/@/@/@/@/@l@",
"m@n@= o@p@q@_ = = = = = = = = = = V+r@s@t@u@v@w@x@y@z@= = = A@B@C@D@E@F@G@H@I@J@",
"_ [@K@= L@M@.+= = = = = = = = _ N@O@P@Q@R@S@T@U@V@W@X@Y@= = = = = = = = = = Z@`@",
"* =  #.#+#@###.+= = = = = = = $#%#&#*#=#-#;#>#,#'#y@=#)#= = = = = = = = c.!#~#{#",
"]#_ = ^#e+/#(#_#:#= = = = = = <#[#}#|#/@/@x@/@/@/@/@/@1#2#= = N@3#= = 4#5#/@/@6#",
"2@7#= = 8#9#0#e+a#b#= = = = c#d#e#f#g#h#/@/@/@/@/@x@x@i#j#= = k#l#m#n#o#/@/@p#q#",
"r#s#t#= = u#v#w#e+x#y#= = _ z#A#_ B#C#D#E#F#G#F#x@F#x@H#I#* J#K#L#M#N#/@O#P#Q#R#",
"S#= = = _ = T#U#V#W#X#W#= = Y#Z#`# $t..$+$@$G#@$#$$$G#/@%$Q.&$*$=$-$;$>$,$'$)$!$",
"_ = = = = = ~${$]$V#^$/$= = = ($a#= _$:$<$[$}$|$1$2$3$4$5$6$7$8$t.9$0$a$b$c$R#d$",
"= = = _ = = = = e$f$g$h+= = = h$i$j$k$k.l$m$n$o$p$q$r$s$t$u$= v$w$f+x$y$z$A$B$C$",
"= = = J.= = T.= = D$E$F$Q.= = = G$H$A#* I$J$K$L$M$N$O$P$* Q$R$= S$T$= U$V$W$* * ",
"= = = _ = = X$Y$= = Z$`$= = =  %.%+%@%#%$%= %%&%*%=%V+-%;%= >%f+,%D$c.'%)%= _ K.",
"= = = = = = k.= !%= = ~%{%= = ]%^%/%(%_%_ :%<%X$[%}%f+|%1%G+2%3%4%= C.5%= = _ X$",
"= = = = _ = Z#= C.= = = 6%7%8%9%0%a%b%c%d%e%* f%g%h%i%j%k%l%m%n%= = k.o%= _ = = ",
"= = = = = = = = * = = = = p%q%r%L+K+s%t%u%v%_ w%= x%y%z%A%B%C%D%= _ = * _ = = = ",
"= = = = = = = = C.= = = = = E%F%G%H%I%J%K%L%M%N%= O%P%Q%R%S%T%U%= = = = = = = C.",
"_ = = = = = = = = = = = = = = * V%W%X%Y%Z%`% &.&+&@&= #&$&%&&&= = = = = = = C.*&",
"= = = = = = = = = = = = = = = = =&-&G+;&>&t.,&* '&)&!&~&* = _ = = = = = = = = = ",
"= = = = = = = = = = = = = = = = = {&]&= ^&/&(&_&:&<&[&Q.= _ = = = = = = = = = }&",
"= = = = = = = = = = = = = |&= = = = 6%Q.1&2&3&4&5&6&7&_ = = = = = = = = = 8&9&0&",
"= = = = = = = = = = = = c.a&b&= = = = c&d&e&f&C.g&h&_ = = = = = i&j&= = = k&A+3+",
"= = = = = = = = = = = l&m&n&o&= = = = _ p&q&_ = r&s&= = = = = t&u&v&= = w&x&= &+",
"= = = = = = = = = _ y&z&A&Q.Z#_ = = = = Q.B&C&D&E&= = = = = = = = = F&V+G&= = H&"};
