/* XPM */
static char * effectvrevmodule_xpm[] = {
"40 40 6 1",
" 	c None",
".	c #101010",
"+	c #000000",
"@	c #050505",
"#	c #2A2A2A",
"$	c #303030",
".+++++++++++++++++++++++++++++++++++++++",
"++++++++++++++++++++++++++++++++++++++++",
"++++++++++++++++++++++++++++++++++++++++",
"++++++++++++++++++++++++++++++++++++++++",
"++++++++++++++++++++++++++++++++++++++++",
"++++++++++++++++++++++++++++++++++++++++",
"++++++++++++++++++++++++++++++++++++++++",
"++++++++++++++++++++++++++++++++++++++++",
"++++++++++++++++++++++++++++++++++++++++",
"++++++++++++++++++++++++++++++++++++++++",
"++++++++++++++++++++++++++++++++++++++++",
"++++++++++++++++++++++++++++++++++++++++",
"++++++++++++++++++++++++++++++++++++++++",
"@+++++++++++++++++++++++++++++++++++++++",
"########################################",
"++++++++++++++++++++++++++++++++++++++++",
"++++++++++++++++++++++++++++++++++++++++",
"++++++++++++++++++++++++++++++++++++++++",
"++++++++++++++++++++++++++++++++++++++++",
"++++++++++++++++++++++++++++++++++++++++",
"++++++++++++++++++++++++++++++++++++++++",
"++++++++++++++++++++++++++++++++++++++++",
"++++++++++++++++++++++++++++++++++++++++",
"++++++++++++++++++++++++++++++++++++++++",
"++++++++++++++++++++++++++++++++++++++++",
"++++++++++++++++++++++++++++++++++++++++",
"++++++++++++++++++++++++++++++++++++++++",
"++++++++++++++++++++++++++++++++++++++++",
"$#######################################",
"++++++++++++++++++++++++++++++++++++++++",
"++++++++++++++++++++++++++++++++++++++++",
"++++++++++++++++++++++++++++++++++++++++",
"++++++++++++++++++++++++++++++++++++++++",
"++++++++++++++++++++++++++++++++++++++++",
"++++++++++++++++++++++++++++++++++++++++",
"++++++++++++++++++++++++++++++++++++++++",
"++++++++++++++++++++++++++++++++++++++++",
"++++++++++++++++++++++++++++++++++++++++",
"++++++++++++++++++++++++++++++++++++++++",
"++++++++++++++++++++++++++++++++++++++++"};
