/* XPM */
static char* midicontrolmodule_xpm[] = {
"40 40 38 1",
"  c #000080",
"! c #C0C0C0",
"# c #222222",
"$ c #292929",
"% c #555555",
"& c #4D4D4D",
"' c #424242",
"( c #393939",
") c #000066",
"* c #330066",
"+ c #333333",
", c #333366",
"- c #333399",
". c #660033",
"/ c #663333",
"0 c #993333",
"1 c #996633",
"2 c #999999",
"3 c #CC9999",
"4 c #CCCC66",
"5 c #CCCC99",
"6 c #CCCCCC",
"7 c #FFCC66",
"8 c #FFFF99",
"9 c #FFFFCC",
": c #FFFF66",
"; c #C1C1C1",
"< c #969696",
"= c #CBCBCB",
"> c #B2B2B2",
"? c #D7D7D7",
"@ c #DDDDDD",
"A c #E3E3E3",
"B c #EAEAEA",
"C c #F1F1F1",
"D c #F8F8F8",
"E c #A4A0A0",
"F c #FFFFFF",
"!;===6??@@AABBCCDD?'E!;==6???@AABBCCDDDF",
"!;===6??@@AABBCCDD@'E!;==6???@AABBCCDDDF",
"!;===6??@@AABBCCDD@'E!;==6???@AABBCCDDDF",
"!;===6???@AABBCCDD@'E!;==6???@AABBCCDDDF",
"!;===6?888AABBCCDD@'E!;==6???@AABAABDDDF",
"!;===686?98ABBCCDD@'E!;==6???@AA@?0@BDDF",
"!;====86@B8ABBCCDD@'E!;==6???@AA?030ADDF",
"!;===8;6@BC8ABCCDD@'E!;==6???@A@60>0?CDF",
"!;===8;6@CD8ABCCDD@'E!;==6???@A?0>;60ADF",
"!;===8;6@CD8ABCCDD@'E!;==6???@A=0>?60@DF",
">>>!57>!?CD8ABCCDD@'E!;==6???@A=0>?60@DF",
">0007000;@B8ABCCDD@'E!;==6???@A=0>??0@CF",
"0!6A75!;00A8ABCCDD@'E!!!>>;6?@?=0>?@@0AF",
"!6BC8=??660A8BCCDD@'E>E----!6@?1@:88A1AF",
";?A8;=?@AAA18ACCDD@(<---!;--;==776?B7:AD",
";?A8;=?@ABBB8ACCDD@( ->;?@@?--40>6@BA1:D",
";?A8;=?@ABDD8@BCDC?- >;?@BCB@-*/>6@C@068",
"E;64E>!!;=?@40=??6-#<E>!!=?@4!  2>!6=0$;",
"&&4'('''''&%4(/+(-$#$(''''&:%(/*-+('(0$'",
"=?4>>!!!;=6@?4.)-!;+<>!;6?4?@=0>-,2!;0==",
"-?8;6??@ABCC@-*,E??'E=?AB8BCC@0=6->6@@0@",
"-->!6??@A@@6--<0>@?'E=?AB8BCA0=@@6-!A@06",
"=-->;??@?6---4E0>@?'E=?@8@BC?0=AB?--6?06",
"5>-->!!;!--;?:>0>??'E=?8?@BB?06ABA?--606",
"!!>-------=@A8!>06?'E=86?@B@0;?ABBA?--;0",
"!;;!>>!!;6?AA8;!0=6'E=86?@@?06AABBCB?-*.",
"!;===6??@@AABA8;=0;(E8=6???0=?AABBCCB@--",
"!;===6??@@AABA86?@0'4;=;;;0=6@AABBCCDCA@",
"!;===6??@@AABB88@A?44>>>00;6?@AABBCCDDDF",
"!;===6??@@AABBB8@B:&E000>!6??@AABBCCDDDF",
"!;===6??@@AABBCB88?'E>>!;6???@AABBCCDDDF",
"!;===6??@@AABBCCCC?'E!;==6???@AABBCCDDDF",
"!;===6??@@AABBCCDD@'E!;==6???@AABBCCDDDF",
"!;===6??@@AABBCCDD@'E!;==6???@AABBCCDDDF",
"!;===6??@@AABBCCDD@'E!;==6???@AABBCCDDDF",
"!;===6??@@AABBCCDD@'E!;==6???@AABBCCDDDF",
"!;===6??@@AABBCCDD@'E!;==6???@AABBCCDDDF",
"!;===6??@@AABBCCDD@'E!;==6???@AABBCCDDDF",
"!;===6??@@AABBCCDD@'E!;==6???@AABBCCDDDF",
"!;===6??@@AABBCCDD?'E!;==6???@AABBCCDDDF"};