/* XPM */
static char * effectvnoisemodule_xpm[] = {
"40 40 150 2",
"  	c None",
". 	c #0000C5",
"+ 	c #1010BC",
"@ 	c #2B2A92",
"# 	c #0B0A9B",
"$ 	c #0000C1",
"% 	c #212073",
"& 	c #383440",
"* 	c #423F42",
"= 	c #2D2A49",
"- 	c #1010B8",
"; 	c #16159D",
"> 	c #0000B5",
", 	c #0605BA",
"' 	c #312F6B",
") 	c #474447",
"! 	c #3D3A3D",
"~ 	c #524F52",
"{ 	c #5C5960",
"] 	c #2C2A56",
"^ 	c #1010AC",
"/ 	c #161589",
"( 	c #363478",
"_ 	c #1B1AAF",
": 	c #26259D",
"< 	c #514F6A",
"[ 	c #4C4A4C",
"} 	c #322F32",
"| 	c #5C595C",
"1 	c #11108C",
"2 	c #1515B5",
"3 	c #383438",
"4 	c #373458",
"5 	c #0000BD",
"6 	c #0B0AAB",
"7 	c #2D2A35",
"8 	c #2D2A2D",
"9 	c #615E61",
"0 	c #2625A1",
"a 	c #262589",
"b 	c #575457",
"c 	c #0C0A8B",
"d 	c #06059E",
"e 	c #111088",
"f 	c #302F97",
"g 	c #0505C2",
"h 	c #1C1A8E",
"i 	c #262579",
"j 	c #2D2A45",
"k 	c #2B2A9E",
"l 	c #1B1A9A",
"m 	c #312F7B",
"n 	c #28252C",
"o 	c #272571",
"p 	c #3D3A45",
"q 	c #1E1A1E",
"r 	c #2C2A82",
"s 	c #373454",
"t 	c #222053",
"u 	c #0605AA",
"v 	c #0B0AC3",
"w 	c #2D2A39",
"x 	c #312F67",
"y 	c #47444B",
"z 	c #0100A1",
"A 	c #413F7A",
"B 	c #212088",
"C 	c #0C0A93",
"D 	c #312F6F",
"E 	c #2C2A7E",
"F 	c #111098",
"G 	c #111084",
"H 	c #302F93",
"I 	c #262581",
"J 	c #27255C",
"K 	c #0C0A97",
"L 	c #161581",
"M 	c #373448",
"N 	c #0B0AAF",
"O 	c #373464",
"P 	c #3C3A55",
"Q 	c #2B2A9A",
"R 	c #282528",
"S 	c #413F5E",
"T 	c #171569",
"U 	c #3C3A75",
"V 	c #363480",
"W 	c #0B0ABF",
"X 	c #1615B1",
"Y 	c #1B1AA3",
"Z 	c #0605A6",
"` 	c #191519",
" .	c #0C0A67",
"..	c #21208C",
"+.	c #373468",
"@.	c #1C1A66",
"#.	c #38343C",
"$.	c #312F77",
"%.	c #1C1A5E",
"&.	c #37344C",
"*.	c #514F5A",
"=.	c #322F53",
"-.	c #3C3A4D",
";.	c #0605AE",
">.	c #1B1A96",
",.	c #514F62",
"'.	c #1C1A72",
").	c #282544",
"!.	c #322F43",
"~.	c #212084",
"{.	c #413F62",
"].	c #161591",
"^.	c #111090",
"/.	c #17157D",
"(.	c #666466",
"_.	c #0B0AA7",
":.	c #1B1A92",
"<.	c #1C1A6A",
"[.	c #1B1AA7",
"}.	c #161585",
"|.	c #272560",
"1.	c #0605B2",
"2.	c #0000AD",
"3.	c #1C1A8A",
"4.	c #161599",
"5.	c #232023",
"6.	c #1615A5",
"7.	c #3D3A41",
"8.	c #17156D",
"9.	c #514F56",
"0.	c #3C3A69",
"a.	c #28253C",
"b.	c #11109C",
"c.	c #1C1A7E",
"d.	c #20209C",
"e.	c #322F63",
"f.	c #222067",
"g.	c #2C2A5E",
"h.	c #37346C",
"i.	c #47445F",
"j.	c #37345C",
"k.	c #2020A8",
"l.	c #322F5B",
"m.	c #1010A4",
"n.	c #06058E",
"o.	c #1D1A3E",
"p.	c #282548",
"q.	c #222043",
"r.	c #2D2A4E",
"s.	c #212098",
". . . . . . . . . . . . . . . . . . . . . . . . . . . . . . . . . . . . . . . . ",
". . . . . . . . . . . . . . . . . . . . . . . . . . . . . . . . . . . . . . . . ",
". . . . . . . . . . . . . . . . . . . . . . . . . . . . . . . . . . . . . . . . ",
". . . . . . . . . . . . . . . . . . . . . . . . . . . . . . . . . . . . . . . . ",
". . . . . . . . . . . . . . . . . . . . . . . . . . . . . . . . . . . . . . . . ",
". . . . . . . . . . . . . . . . . . . . . . . . . . . . . . . . . . . . . . . . ",
". . . . . . . . . . . . . . . . + @ # . . . . . . . . . . . . . . . . . . . . . ",
". . . . . . . . . . . . . . $ % & * = - ; > . . . . . . . . . . . . . . . . . . ",
". . . . . . . . . . . . . , ' ) ! ) ~ { ~ ] ^ . . . . . . . . . . . . . . . . . ",
". . / ( _ . . . . . . , : < [ ! } [ * ) | [ 1 . . . . . . . . . . . . . . . . . ",
". 2 3 3 4 5 . . . . 6 7 ) * } 8 [ 9 * 8 [ } 0 . . . . . . . . . . . . . . . . . ",
". a b * c d . . . . e ) * 8 b ~ ! * * [ ) ) f . . . . . . . . . . . . . . . . . ",
". ' 3 ! e g . . . . h } ) } ) b ~ ~ ~ * ) } i . . . . . . . . . . . . . . . . . ",
". j * k l . . . . . m * [ b * * * ! n o p q r . . . . . . . . . . . . . . . . . ",
". s ! t u . . . . v w [ * ! 8 * 3 [ * x h y z . . . . . . . . . . . . . . . . . ",
". A 9 B C D . . . E ) b * [ } b F G h * ) H . . . . . . . . . . . . . . . . . . ",
". I ! J K 8 L v $ M [ [ ! ) * ~ M + l ! ! h . . . . . . . . . . . . . . . . . . ",
". N } ) O ) } P Q * ) ) 3 R ) | } S T } ~ U . . . . . . . . . . . . . . . . . . ",
". . V ~ ! [ ) [ [ ) ~ ) ! ! 3 [ * 3 3 * ) * W . . . . . . . . . . . . . . . . . ",
". . X 3 ! ! ) * ~ ) ~ 8 b * 8 ! } ) ) 9 ) ) Y . . . . . . . . . . . . . . . . . ",
". . Z `  ...! ! ~ b ) ! 3 } ) ! ! ! | ~ x +.@.. . . . . . . . . . . . . . . . . ",
". . . #.$.N ~ ~ } 3 3 * ) * 3 8 | } [ %.N &.*.W . . . . . . . . . . . . . . . . ",
". . . =.-.;.[ } ) [ 3 3 ~ ! 8 ~ ) 3 #.>.,.[ ! ; . . . . . . . . . . . . . . . . ",
". . . '.~ ).) ! 3 [ [ 3 8 ! * b ) * ! } ) !.) u . . . . . . . . . . . . . . . . ",
". . . ~.b ~ ) b [ * ~ * ! } 3 } * 8 ) ! {.].^.. . . . . . . . . . . . . . . . . ",
". . . /.) * 3 ) } * [ } } * [ ! ! ) 3 * ~.. . . . . . . . . . . . . . . . . . . ",
". . . 1 } ~ ! | ~ ) } ! 3 ! (.[ ) 3 3 & _.. . . . . . . . . . . . . . . . . . . ",
". . . :.) } [ ) b } ) R [ 9 (.[ [ 3 ! <.. . . . . . . . . . . . . . [.. . . . . ",
". . . }.* } 3 ! [ } [ [ } ) [ 3 * * |.1.. . . . . . . . . . . . . . 2.. . . . . ",
". . . 3.} * * [ } * ~ ) [ | [ ) 3 ! + . . . . . . . . . . . . . . . . . . . . . ",
". . . 4.! 3 8 8 5.8 ) } * } [ [ ! y 5 . . . . . . . . . . . . . . . . . . . . . ",
"g + g 6.) } ) 3 [ ! } 3 ! -.7.~ ! 8.. . . . . . . . . . . . . . . . . . . . . . ",
"h 9.#.0.! ) 3 [ [ 3 * [ ) a.b.c.d.$ . . . . . . . . . . . . . . . . . . . . . . ",
"e.} ! [ * } ) ) 3 } ! ! f.. . . . . . . . . . . . . . . . . . . . . . . . . . . ",
"g.* ) ) * b ) [ ! * * ! _.. . . . . . . . . . . . . . . . . . . . . . . . . . . ",
"e.~ ~ [ ! ) ~ ! ) } ) 1 . . . . . . . . . . . . . . . . . . . . . . . . . . . . ",
"t ! ! } ) ! ! ~ 3 ~ h.. . . . . . . . . . . . . . . . . . . . . . . . . . . . . ",
"c >.i.* ! [ * 8 ! ~ j.. . . . . . . . . . . . . . . . . . . . . . . . . . . . . ",
"k.l.[ ! ! * b | 3 * * m.. . . . . . . . . . . . . . . . . . . . . . . . . . . . ",
"5 n.%.o.p.4 q.r.p.q.=.s.. . . . . . . . . . . g . . . . . . . . . . . . . . . . "};
