/* XPM */
static char * audiobdmodule_xpm[] = {
"40 40 211 2",
"  	c None",
". 	c #F4F4F4",
"+ 	c #F3F3F3",
"@ 	c #F5F5F5",
"# 	c #F0F0F0",
"$ 	c #F2F2F2",
"% 	c #EDEDED",
"& 	c #EFEFEF",
"* 	c #F1F1F1",
"= 	c #F6F6F6",
"- 	c #ECECEC",
"; 	c #E4E4E4",
"> 	c #E5E5E5",
", 	c #E6E6E6",
"' 	c #E8E8E8",
") 	c #E2E2E2",
"! 	c #DCDCDC",
"~ 	c #E0E0E0",
"{ 	c #E3E3E3",
"] 	c #D8D8D8",
"^ 	c #E1E1E1",
"/ 	c #E7E7E7",
"( 	c #DADADA",
"_ 	c #D5D5D5",
": 	c #FDFDFD",
"< 	c #FEFEFE",
"[ 	c #FFFFFF",
"} 	c #FAFAFA",
"| 	c #FCFCFC",
"1 	c #FBFBFB",
"2 	c #F8F8F8",
"3 	c #CCCCCC",
"4 	c #F9F9F9",
"5 	c #BDBDBD",
"6 	c #D9D9D9",
"7 	c #D2D2D2",
"8 	c #EBEBEB",
"9 	c #B1B1B1",
"0 	c #C2C2C2",
"a 	c #CECECE",
"b 	c #CBCBCB",
"c 	c #A9A9A9",
"d 	c #C5C5C5",
"e 	c #CFCFCF",
"f 	c #C0C0C0",
"g 	c #EAEAEA",
"h 	c #E9E9E9",
"i 	c #ACACAC",
"j 	c #C3C3C3",
"k 	c #D4D4D4",
"l 	c #D6D6D6",
"m 	c #BBBBBB",
"n 	c #AEAEAE",
"o 	c #DEDEDE",
"p 	c #C4C4C4",
"q 	c #F7F7F7",
"r 	c #B9B9B9",
"s 	c #DDDDDD",
"t 	c #9B9B9B",
"u 	c #939393",
"v 	c #ABABAB",
"w 	c #DBDBDB",
"x 	c #BFBFBF",
"y 	c #A8A8A8",
"z 	c #949494",
"A 	c #EEEEEE",
"B 	c #7B7B7B",
"C 	c #BABABA",
"D 	c #8C8C8C",
"E 	c #646464",
"F 	c #C8C8C8",
"G 	c #B6B6B6",
"H 	c #A1A1A1",
"I 	c #C9C9C9",
"J 	c #CDCDCD",
"K 	c #585858",
"L 	c #8A8A8A",
"M 	c #D1D1D1",
"N 	c #4A4A4A",
"O 	c #444444",
"P 	c #B2B2B2",
"Q 	c #C1C1C1",
"R 	c #9D9D9D",
"S 	c #B3B3B3",
"T 	c #6A6A6A",
"U 	c #929292",
"V 	c #404040",
"W 	c #717171",
"X 	c #5D5D5D",
"Y 	c #8B8B8B",
"Z 	c #BCBCBC",
"` 	c #B8B8B8",
" .	c #242424",
"..	c #212121",
"+.	c #6B6B6B",
"@.	c #DFDFDF",
"#.	c #7C7C7C",
"$.	c #D0D0D0",
"%.	c #727272",
"&.	c #5C5C5C",
"*.	c #5E5E5E",
"=.	c #7A7A7A",
"-.	c #3B3B3B",
";.	c #B7B7B7",
">.	c #4E4E4E",
",.	c #434343",
"'.	c #353535",
").	c #3A3A3A",
"!.	c #BEBEBE",
"~.	c #3D3D3D",
"{.	c #1E1E1E",
"].	c #757575",
"^.	c #3F3F3F",
"/.	c #6E6E6E",
"(.	c #989898",
"_.	c #9C9C9C",
":.	c #1C1C1C",
"<.	c #060606",
"[.	c #2D2D2D",
"}.	c #A7A7A7",
"|.	c #555555",
"1.	c #181818",
"2.	c #565656",
"3.	c #2E2E2E",
"4.	c #323232",
"5.	c #151515",
"6.	c #9A9A9A",
"7.	c #333333",
"8.	c #383838",
"9.	c #515151",
"0.	c #575757",
"a.	c #363636",
"b.	c #656565",
"c.	c #070707",
"d.	c #4C4C4C",
"e.	c #B5B5B5",
"f.	c #1D1D1D",
"g.	c #0D0D0D",
"h.	c #131313",
"i.	c #040404",
"j.	c #222222",
"k.	c #141414",
"l.	c #313131",
"m.	c #090909",
"n.	c #000000",
"o.	c #050505",
"p.	c #303030",
"q.	c #0F0F0F",
"r.	c #0B0B0B",
"s.	c #0E0E0E",
"t.	c #3C3C3C",
"u.	c #0A0A0A",
"v.	c #111111",
"w.	c #272727",
"x.	c #030303",
"y.	c #020202",
"z.	c #121212",
"A.	c #414141",
"B.	c #010101",
"C.	c #0C0C0C",
"D.	c #080808",
"E.	c #252525",
"F.	c #101010",
"G.	c #191919",
"H.	c #1A1A1A",
"I.	c #262626",
"J.	c #626262",
"K.	c #232323",
"L.	c #838383",
"M.	c #888888",
"N.	c #2F2F2F",
"O.	c #393939",
"P.	c #606060",
"Q.	c #8F8F8F",
"R.	c #454545",
"S.	c #292929",
"T.	c #545454",
"U.	c #919191",
"V.	c #3E3E3E",
"W.	c #A2A2A2",
"X.	c #808080",
"Y.	c #666666",
"Z.	c #282828",
"`.	c #424242",
" +	c #A5A5A5",
".+	c #AFAFAF",
"++	c #C6C6C6",
"@+	c #B0B0B0",
"#+	c #9E9E9E",
"$+	c #5B5B5B",
"%+	c #C7C7C7",
"&+	c #909090",
"*+	c #616161",
"=+	c #505050",
"-+	c #AAAAAA",
";+	c #D3D3D3",
">+	c #161616",
",+	c #7F7F7F",
"'+	c #676767",
")+	c #595959",
"!+	c #969696",
"~+	c #7E7E7E",
"{+	c #D7D7D7",
"]+	c #5A5A5A",
"^+	c #474747",
"/+	c #CACACA",
"(+	c #8E8E8E",
"_+	c #A3A3A3",
":+	c #8D8D8D",
"<+	c #6F6F6F",
"[+	c #B4B4B4",
". . + . @ + # + @ . . $ % + $ + . # & * * + + + $ = . # % - * * $ . . $ * $ @ . ",
"; > , ' ' ) ! ~ ; ) ) { > , ] ^ / ; > ; > ( { ; , / > > > ( > ^ ; , , ; { ; / _ ",
": < < [ < : } | < < [ } : : = : : : < } : 1 < } : 1 | < 2 2 : < < < < : : : 2 3 ",
"4 [ < : [ [ [ 1 2 [ [ < [ [ < < 1 1 : : < [ 4 , @ : : : | < 2 2 [ [ [ < < < : 5 ",
"; [ < < [ [ < 6 ^ < < [ < : } . @ : [ < < : = 7 8 < 4 } [ | 8 & [ [ [ [ < < [ 9 ",
"~ < < < [ : | 0 a : 1 : : : } % * | 1 1 1 : @ b ' [ : 1 < 4 8 8 < < [ | : : + c ",
"! : 1 < : < < d e < : < | < | ~ # : 4 | | 1 ' f g | < | < 1 ' h < : [ < < | , i ",
"~ | } < 4 [ | j k } : : 1 : 4 e g [ 1 < < | 8 9 ; < 1 @ } < l m = < : [ < < > n ",
"o 2 < = : < : p a | < 1 | | q r s < < | 2 : ' t ] < | , . | l u ^ } : [ } [ - v ",
"c ~ [ w | < : p x [ [ 2 2 } $ y w : 1 [ | < o z ! < = 3 A } 6 B C ; : [ | | { D ",
"E F : e ; [ % G H } 4 : 6 s A t _ : | | : [ ! D _ : { D I : J K L r - q | @ M N ",
"O P = 7 Q 4 ( R B 6 k [ S S & B L { < 8 s + ~ T U # 6 V W } 3 K X Y Z ` ) ^ b  .",
"..+.@.P #.$.I %.&.B *.- D =.a T -.v l n c ;.3 >.,.` $.'.).0 !.~.{.&.].^./.(._.:.",
"<.[.}.|.1.2.&.3.~.4.5.6.7.8.].9.1.0.].a.~.^.b.{.c.d.e.f.g.0.t h.i.g.j.h.k...l.m.",
"n.o.p.q.r.<.c.s.5.m.i.t.<.u.v.f.c.v.w.x.x.x.m.o.y.z.A.o.y.z.p.y.B.u.i.y.c.x.y.<.",
"B.i.i.y.n.C.<.y.r.x.B.g.y.n.x.y.o.x.B.i.y.o.B.i.x.y.x.x.x.i.x.x.i.i.x.y.n.B.B.<.",
"m.o.x.x.m.x.i.y.x.i.i.y.i.n.o.x.i.i.B.o.i.n.x.B.n.D.<.D.B.o.o.B.n.y.i.B.y.B.B.B.",
"o.i.<.y.i.y.y.B.y.i.y.y.y.o.B.B.B.B.o.B.x.B.y.y.x.x.B.y.B.o.y.y.i.B.B.n.B.B.y.n.",
"x.n.o.y.i.y.B.y.n.n.i.D.y.i.x.B.y.B.y.<.x.x.i.y.y.x.B.B.o.y.o.n.y.x.i.B.<.y.x.B.",
"B.y.n.x.x.o.i.D.y.x.B.o.B.<.y.i.y.x.c.y.x.i.x.<.x.y.u.o.i.y.x.n.<.B.x.B.c.i.i.x.",
"B.m.E.u.u.B.F.F.h.v.F.l.B.G.o.i.z.H.j.v.I.E.c.B.o.w.J.D.D.C.K.c.i.y.o.B.B.u.C.g.",
"5.V i 3.-.).L.M.N.O.P.Q.[.R.S.G.T.U.B V.W.X.m.r.5.Y.j 8.<.*.H Z.y.<.r.C.m.s...m.",
"`. +h y .+_.^ .+E M ;.++@+.+#+$+B ] %+&+b $.*+=+=.-+;+A.>+. I 3.G.Y.X.,+'+'+,+1.",
")+$.& 8 g 7 A e.!+q $ | # & , ~+_.} 4 + 4 h 7 >.#+!.{+]+^+q /+d.$+@+x M b Q I l.",
"(+/ | | | 2 : C G 1 < 1 < [ A M.!.[ } : : q @.E Q # @._+@+} %+:+e._ > } } - 3 <+",
"-+= < [ | < [ j ++| < } [ [ + t 6 [ : [ [ = ~ !+{ [ # / . < b j g % 2 [ < | e  +",
"m [ [ : | [ [ 3 ^ | [ | [ [ . y - : [ < : } @.e.4 [ 2 2 : | J $.< [ [ [ [ [ > m ",
"k [ < < < [ < b & | [ < [ [ + v . | < | : [ @.S q [ : | : | {+6 : < < < [ [ g J ",
"{ : | < [ < : I & : [ [ [ [ + n + < [ : : 1 ) [+@ : 1 : < 4 ^ ; | < [ [ [ < / 3 ",
"' < : [ < | < 3 h [ [ : [ [ q f + [ 4 [ 1 : @.r } < < : < < A # | [ [ < [ : > 3 ",
"= [ [ [ < | < ;+8 [ < | [ < = a q < 4 < | < @.!.1 [ : | : | - % : [ < < [ < / $.",
"[ [ [ [ [ [ [ ~ q [ : < [ [ q 6 : < [ [ [ [ ; J | [ : : } [ g - [ [ [ [ [ [ , o ",
"< [ [ [ [ [ [ . < [ | [ [ [ } { : < < < < [ - {+: [ < < | [ 8 - [ [ [ [ [ [ = + ",
"< [ [ [ [ [ [ [ [ < : [ [ < | # < : : < < [ * { [ [ < < [ : A % < [ [ [ [ [ [ [ ",
"[ [ [ [ [ [ [ [ [ [ [ [ [ [ < 1 [ [ [ [ : : @ - < [ [ < [ | . + [ [ [ [ [ [ [ [ ",
"< [ [ [ [ [ [ [ [ [ [ [ [ < : : | < : < : : | q : < [ : < 1 4 4 [ [ [ [ [ [ [ [ ",
"| [ < < < [ [ [ [ [ < < [ [ < : : [ [ [ : < [ : : | < | < 1 : : [ [ < [ [ [ : < ",
"[ < | | | : | : < : | : | < | | : [ | [ < < : [ 1 : : : [ 1 [ : < < | : 1 : 1 [ ",
"h g h ' % - ^ & & * * % - 8 > % 8 # 8 * h g - h 8 8 A & / w g % - 8 % 8 { A g 8 ",
"/ & - ' * * ! { g g g A 8 / , / A 8 , % / w A % # - g % , / g g * 8 - h w 8 A $ "};
