/* XPM */
static char *colorizemodule_xpm[]={
"40 44 3 1",
"a c #0000ff",
"# c #00ff00",
". c #ff0000",
".............##############aaaaaaaaaaaaa",
".............##############aaaaaaaaaaaaa",
".............##############aaaaaaaaaaaaa",
".............##############aaaaaaaaaaaaa",
".............##############aaaaaaaaaaaaa",
".............##############aaaaaaaaaaaaa",
".............##############aaaaaaaaaaaaa",
".............##############aaaaaaaaaaaaa",
".............##############aaaaaaaaaaaaa",
".............##############aaaaaaaaaaaaa",
".............##############aaaaaaaaaaaaa",
".............##############aaaaaaaaaaaaa",
".............##############aaaaaaaaaaaaa",
".............##############aaaaaaaaaaaaa",
".............##############aaaaaaaaaaaaa",
".............##############aaaaaaaaaaaaa",
".............##############aaaaaaaaaaaaa",
".............##############aaaaaaaaaaaaa",
".............##############aaaaaaaaaaaaa",
".............##############aaaaaaaaaaaaa",
".............##############aaaaaaaaaaaaa",
".............##############aaaaaaaaaaaaa",
"#############aaaaaaaaaaaaaa.............",
"#############aaaaaaaaaaaaaa.............",
"#############aaaaaaaaaaaaaa.............",
"#############aaaaaaaaaaaaaa.............",
"#############aaaaaaaaaaaaaa.............",
"#############aaaaaaaaaaaaaa.............",
"#############aaaaaaaaaaaaaa.............",
"#############aaaaaaaaaaaaaa.............",
"#############aaaaaaaaaaaaaa.............",
"#############aaaaaaaaaaaaaa.............",
"#############aaaaaaaaaaaaaa.............",
"#############aaaaaaaaaaaaaa.............",
"#############aaaaaaaaaaaaaa.............",
"#############aaaaaaaaaaaaaa.............",
"#############aaaaaaaaaaaaaa.............",
"#############aaaaaaaaaaaaaa.............",
"#############aaaaaaaaaaaaaa.............",
"#############aaaaaaaaaaaaaa.............",
"#############aaaaaaaaaaaaaa.............",
"#############aaaaaaaaaaaaaa.............",
"#############aaaaaaaaaaaaaa.............",
"#############aaaaaaaaaaaaaa............."};
