/* XPM */
static char * cubesmodule_xpm[] = {
"40 44 2 1",
" 	c None",
".	c #000000",
"                                        ",
"                                        ",
"                                        ",
"                                        ",
"                                        ",
"                                        ",
"                                        ",
"                                        ",
"                                        ",
"                          ......        ",
"                         ........       ",
"                        ..........      ",
"                       ............     ",
"                       ............     ",
"                       ............     ",
"                       ............     ",
"         .....         ............     ",
"       .........        ...........     ",
"       .........        ..........      ",
"      ...........        ........       ",
"      ...........        .......        ",
"      ...........  .. ........          ",
"      .......................           ",
"      ........................          ",
"       .......................          ",
"       ........................         ",
"         .......................        ",
"              ..................        ",
"              ..................        ",
"              ..................        ",
"              .....................     ",
"          ..........................    ",
"         ...........................    ",
"         ...........................    ",
"         ...........................    ",
"         ...... .............. ....     ",
"          ....  ..............          ",
"                  ..........            ",
"                   ........             ",
"                                        ",
"                                        ",
"                                        ",
"                                        ",
"                                        "};
