/* XPM */
static char *flagmodule_xpm[] = {
/* width height num_colors chars_per_pixel */
"    40    40      256            2",
/* colors */
"`` c #2c3c57",
"`. c #bc9e54",
"`# c #6c6e6c",
"`a c #4c566c",
"`b c #ecd264",
"`c c #5c6eb4",
"`d c #4456ac",
"`e c #949eb4",
"`f c #b4bacb",
"`g c #3c4598",
"`h c #7c88ac",
"`i c #8c8664",
"`j c #5c62af",
"`k c #acb0ac",
"`l c #444972",
"`m c #ccd2e3",
"`n c #6c6a7c",
"`o c #7478b0",
"`p c #7c767c",
"`q c #e4ebfa",
"`r c #cccab4",
"`s c #5c667c",
"`t c #444bb7",
"`u c #7c86f2",
"`v c #6c7b91",
"`w c #4c56d1",
"`x c #5c62cc",
"`y c #9c9eec",
"`z c #c4c7d1",
"`A c #344274",
"`B c #444f97",
"`C c #d4def4",
"`D c #4c5791",
"`E c #a4a2aa",
"`F c #948a64",
"`G c #a4aec9",
"`H c #7478e2",
"`I c #6470d6",
"`J c #444a81",
"`K c #c4c1cd",
"`L c #9495af",
"`M c #545fb1",
"`N c #64708e",
"`O c #5c5e8c",
"`P c #b4bddc",
"`Q c #74869f",
"`R c #545e97",
"`S c #5c68d2",
"`T c #b4b5ca",
"`U c #344254",
"`V c #5c6ab4",
"`W c #dcdae7",
"`X c #ecf6fc",
"`Y c #4451a6",
"`Z c #6c77e6",
"`0 c #444e80",
"`1 c #848da2",
"`2 c #8492ac",
"`3 c #8c92fc",
"`4 c #4c56a0",
"`5 c #a4a6b2",
"`6 c #747eec",
"`7 c #4c4a9c",
"`8 c #d4daeb",
".` c #546294",
".. c #74829a",
".# c #3c4a79",
".a c #e4e4f0",
".b c #545ab3",
".c c #9ca1bc",
".d c #bcc2d3",
".e c #3c4a97",
".f c #cccad6",
".g c #5c66dc",
".h c #746f71",
".i c #7c7e84",
".j c #8c8ae8",
".k c #6c7b9c",
".l c #5460cd",
".m c #acb6ca",
".n c #646fe7",
".o c #54527c",
".p c #a4a8be",
".q c #c4ba8c",
".r c #bcbccb",
".s c #d4d4e0",
".t c #7478c4",
".u c #f4f2fc",
".v c #4c5280",
".w c #8482f4",
".x c #cccedd",
".y c #5c63c0",
".z c #b4b6ac",
".A c #ecf2fc",
".B c #c4cee4",
".C c #34428c",
".D c #4c5199",
".E c #4c5ebc",
".F c #64768c",
".G c #6468d1",
".H c #344268",
".I c #747ef4",
".J c #5c6a9c",
".K c #c4b664",
".L c #5c5c84",
".M c #6c71af",
".N c #4c57c2",
".O c #9ca6b4",
".P c #acaeb8",
".Q c #445068",
".R c #eceaf2",
".S c #4c52c3",
".T c #bcc6dc",
".U c #dce6f4",
".V c #9498a0",
".W c #acb2d6",
".X c #9496d4",
".Y c #7c869a",
".Z c #8492a4",
".0 c #8c92cc",
".1 c #5459a0",
".2 c #5c6496",
".3 c #343e6c",
".4 c #6c7684",
".5 c #dcd28c",
".6 c #9c9faa",
".7 c #8486d4",
".8 c #646698",
"#` c #8489f7",
"#. c #a4a29c",
"## c #dcce8c",
"#a c #c4ae84",
"#b c #bcaa84",
"#c c #9ca6cc",
"#d c #9c867c",
"#e c #e4e27c",
"#f c #7c729c",
"#g c #a49a84",
"#h c #d4ae4c",
"#i c #7c8298",
"#j c #8c86b4",
"#k c #747eb4",
"#l c #7c82c4",
"#m c #fcfefc",
"#n c #acaacc",
"#o c #545e74",
"#p c #dcdaa0",
"#q c #848ebc",
"#r c #9c9254",
"#s c #949aaf",
"#t c #8c9abc",
"#u c #646e80",
"#v c #54577f",
"#w c #3c46ac",
"#x c #847a8c",
"#y c #6c72a0",
"#z c #bcc2dd",
"#A c #5c6a8c",
"#B c #5c6ac0",
"#C c #444aa8",
"#D c #6c76b4",
"#E c #646a9c",
"#F c #ccc6cc",
"#G c #444ec7",
"#H c #5c61e1",
"#I c #746e84",
"#J c #8c8ef9",
"#K c #545ee0",
"#L c #5458d4",
"#M c #dcdfea",
"#N c #9c92bc",
"#O c #8c95af",
"#P c #aca9ab",
"#Q c #4c5070",
"#R c #847e8c",
"#S c #9ca6bf",
"#T c #7c7aa4",
"#U c #8c867c",
"#V c #3c4a88",
"#W c #545ac1",
"#X c #bcaa9c",
"#Y c #847e74",
"#Z c #d4ced7",
"#0 c #6c769c",
"#1 c #8c92a0",
"#2 c #a4a6dc",
"#3 c #343e5b",
"#4 c #4c58af",
"#5 c #44469c",
"#6 c #6466ae",
"#7 c #b4b2ac",
"#8 c #747d90",
"a` c #3c4579",
"a. c #545a91",
"a# c #ac9ea4",
"aa c #acb1c7",
"ab c #6c70dc",
"ac c #6c7294",
"ad c #3c465c",
"ae c #4c51a8",
"af c #8c8da2",
"ag c #9496f8",
"ah c #7c7fe9",
"ai c #646ae0",
"aj c #747e9f",
"ak c #6c72e8",
"al c #acaabc",
"am c #3c4686",
"an c #545fbf",
"ao c #3c456a",
"ap c #7c81f6",
"aq c #c4c8de",
"ar c #9c9a9c",
"as c #6c7080",
"at c #b4bcd4",
"au c #7c86bc",
"av c #ccd3ec",
"aw c #747abc",
"ax c #5c638c",
"ay c #4c5adc",
"az c #747aec",
"aA c #444a8c",
"aB c #c4c2dc",
"aC c #bcbedc",
"aD c #b4b6d4",
"aE c #f4f8fc",
"aF c #6c76f4",
"aG c #444e8c",
"aH c #e4e6fc",
"aI c #cccae4",
"aJ c #bcbdd4",
"aK c #d4d6ec",
"aL c #747ad4",
"aM c #4c518c",
"aN c #6c6ebc",
"aO c #ecedfc",
"aP c #7c89a4",
"aQ c #5c62a4",
"aR c #e4d68c",
"aS c #9ca0b4",
"aT c #6466a4",
"aU c #7c82b4",
"aV c #dce1f4",
"aW c #8c92bc",
"aX c #646eac",
"aY c #847674",
"aZ c #646ab1",
"a0 c #444a97",
"a1 c #b4aeb4",
"a2 c #9c9ab4",
"a3 c #646ac4",
"a4 c #5c5e9c",
"a5 c #545ea4",
"a6 c #d4daf4",
"a7 c #5462a4",
"a8 c #acb6d4",
/* pixels */
".r.r.r.r.r`f`TaaaaaDaaaa.Waaa8a8aDa8a8.W.W`Ta8aD`T`T`T`T`Taaaa.p`E.c#s`L#1af.iaf",
"`K`K`K`z#F`KaJaJ.daJa8a8.WaDat`PaJ`PatatataDatatataD`T`T`T`Talal#SaSa2#O#iaTaf#1",
"`K#F#F#F.faq`z.xaI.TaJataCaC#z.Taq#z#zaCaCaCataJaJaJat`T`T`Taaal.paS`e`1.1.8.Vaf",
"`z#F.f.x.x.s.x.s.s.faq#zaq.B.x.x.BaIaqaq.T#zaCaJaCaJaJaJ`T`Taa.p.p.c`La.`4.8.V#1",
"#F#F.x#Z#Z#Z.s#M`W.s.x.x`maKaKaK`8`8av.x.Baq#z#z#zaJaJat`T`Taa#n.p.6`Ran.b.8ar#O",
"`z.f.f#Z.s`8#M#M#M`8aKaK`W`8#MaVaV.aaV`8aK.xaIaqaq#zaJaJaJ`TaaaaaSax#W.b#4.8arar",
"#F.f.x.s.s`W#M.a#M#M#M#MaVaVaV.aaOaOaO`q.aa6`m.xaqaq`K#zaJ`T`T.p.8aeanan`4.8.6.6",
"`z.f.x.s.s#M#M.a.a#M#MaV.a.a.RaOaOaE.A.uaO`q#MaK.xaIaq#z.daJaa#E`B#Wan.y.D.8`E.6",
"`z.f#Z.s`W#M.a.a.a#M.a.a.aaHaO.AaEaEaEaE#m.u`qaV`8`m.xaIaq`f#y.Dae.g.GanaG#E`E`E",
"`z.f.f.s`W.a.a.a.a#M.a.aaH.RaOaE#m#m#m#m#maEaO.R#MaKaK.x.d#y.Dae#H.Gab#4`0#E`E`5",
"`z.f.f.s#M.a.R.a.a.a#M.a`qaO.AaE#m#maE#m#m#m.u`qaV`Wav.r#y.1.D`w`H`Z#B`4`J#E#P`5",
"`K.f.x.s#M.a.a.a.a#M.aaH`qaO.uaE#m#m#m#maEaE.u.RaV`8aa#E.1.D.Sab`H`H`M`B.D#E#P`5",
"`K`z.f`W`W.a.a.a.a#M.a.aaOaO.AaE#m#maE#maEaE.A`q#M.paT`R.Dae.lap`6`I#4`BaG.8al`5",
".d.f.f.s`W#M.a#M#M.a#M.a`q`q.AaEaE#m#maE.u.uaOaV#OaTa4ae`4.Sapapah.y`4aG.D.2`k`E",
".r`z`z.s.s#M`W#M#M#MaVaH.a`q.AaEaEaEaE.u.A`q`8aU#6aQ`4`D.Sai#``uaban`BaG`B#Ea1.6",
".r.d`z#Z.s.s.s`8#M#MaVaVaH`qaOaOaE.A.A.AaOaq`o`jaQa..1ae`w`u#`ap`S.E`B`Jae.2`k.6",
"`T.r`z`z`m`m.s.s`8`W#MaVaVaVaH`qaO`qaO`q`GaX`jaQ`R.1`D.Nak`3#``Z.y#4`J#V`4.2`ka2",
"`T.r.d`z.f.f`m`m.saK`8a6aVaVaVaH`q.U`CaWaX`VaQa4.1.``j#H#J#Jap`I.l`Y.#`Jae.2#P`e",
"aa`T.r.d`z`z.x.x`m`maKaK`8`CaVaV`CaqawaZ.yaQaQ#4a5.1#Lahag#`.I`S.E`Bamam#4.2#P.V",
".P.m`f.r.d`z.Taq.x`mavav`8a6a6a6#caX`V`ja4aT`Oa5.D.N#N#2ag`uak`x#4aAa`am#4.8#P.V",
".p.Paa`f.r.d.daqaqaq`mavavav.TaU`j`jaQ`j`j#U#U`B.S.t#e#p.jap.n.l`dama`aA#4.2`k#1",
".p.Paa`T`fat.d.d.Taqaq.B.B.W.MaQaQ`j`j`Maj.K`p#4.Sab#p`r#`az`San`Ya`a``g.Eax#P#1",
"aS.p`Gaa`T`faJaJ.d.T.T#z.0.8aQa7`j.y#Bab`V#Ia.#G#K.w`y#`ap`Z.g.N`Bama`.e.b.2`kaf",
"aS.p.paaaa`T`fatataC`P#l.2`R.`a7.y`I#B.1`4`D`tayai#J#`ah`6ak.l#4.ea``Aa0`Max`k`1",
"`e.O`5`G.Paa.maDat.W#D`Ra.a5`M`S#B#Eax`R.D`Y#G#Hap#`#`apaz`I.l`daAa``A`B#4.2#P`1",
"`e.6.c.p`G`Gaaaa`G#Da.a.`R#4a7.1`4`n`i`Dae#C`wak#`#n.jah`I`San`Yam`Aa`#C#4.8`k.Y",
"#s#saS.O#S.p.p`G#ka.`D`D`4`D`4`D`D.h`i#yaG`t#Hap.XaR##aL`S.y#4a0am.3`A`Y#4ax#7.Y",
"#O#O`e`e#S#S#Sau`D`D`DaMaG.DaG`B.D`R#y.D.e`wakapap##.qa3`M`4`Y`Ba`.Ha``B#4ax#7.Y",
"#O.V#t#s`e#t.JaM.v`0`0aG`0aGaG`B`4an`Ma0#w#H.Iaz.I`L`o`j#4.D#4a0`A.Ha``Y#4ax.z..",
".Z`2#O#O#qaQaM`0`0`0`0aGaGaGaG`D`Ma7`Ba0#G.nazaz`Z.G`j.baM`B`d`Ba`#3a``Y`4ax#7#i",
"`1`1`2`ha.`0`J`l`l`0`0`JaAaGaG`MaQa5`B#w#K`Z.7`H`I.y#4aM.#ae.N`B.H.3`A`Y`4`O`k..",
"aP`1`2.``l.#`Ja``l`J`J#V`JaG`Ba7`F`#a0`t.gab#Pa#aN`4`D`J`0`Y#4`B.H#3a``Y`4`O.z#8",
"aPaPaP#Q`lama``l.#.#a``J#V`0`Y`p#r`#a0.l#L#j`b#aa5.D`0`l`Y`Y`d`B.H``a``Y`Y.L`k#8",
".YaP`1#oa`amaoaoa``la`#V`J#V`BaM.h#v.b#W#L.G#b#ga.aA`l#Vae#C`Y.e.H``a`a0`B`O`k#8",
".YaPaP#u.#`lao`la`a`.#am.#a`#V.#aMaA#d#f.N.yaN`R`J`JaoaG`4.e`Y#V#3```A`B`B#v#7`v",
"..`Q.Y#8a`aoaoa`a`a`#VaAam#Va``B`BaY#h`p.lan`M`4`laoa``B`Y`g`Yam.3``.3a0a0#v`k.4",
"...Y`QaP#Qaoaoaoa`a`#Vama`a`a0`Y#5`7`.#x#W.DaeaGaoao`J`Y`Y`g`Bam````aoamam#v`k.4",
"....#i..`sadaoaoa`a`ama``Aa`a0am`ga0a4.1`4`BaeaGaoa``J`Y#4`Y#C.#`U#3.HaAam.o#P.4",
"#8aj....`vadaoaoa`a`.H.3a`a`.C`g#5a0#C`4`B`B`BaGaoa``B#W.y`c#E#A#o.Q`l`0#V#v#P#u",
"`v`vaj..aj`aao.3.H.3.3`A.3.3am.C#5#5a0`JaAaA`Ba``lax#0aj...k.k`v.F.F`N`N#u`##.#u"
};
