/* XPM */
static char * audiovismodule_xpm[] = {
"40 40 622 2",
"  	c None",
". 	c #FCFAF8",
"+ 	c #FDFEFC",
"@ 	c #FCFDFC",
"# 	c #FCFBFE",
"$ 	c #FCFCFD",
"% 	c #FDFCFE",
"& 	c #FCFDFD",
"* 	c #FBFEFB",
"= 	c #F3FDF8",
"- 	c #F5FAF4",
"; 	c #FEFCFA",
"> 	c #FCFDFE",
", 	c #FCFEFF",
"' 	c #FEFEFE",
") 	c #FDFDFD",
"! 	c #F4F4F4",
"~ 	c #FBFBFA",
"{ 	c #FEFDFE",
"] 	c #FCFBFF",
"^ 	c #FCFCFC",
"/ 	c #FFFFFF",
"( 	c #F7F5F6",
"_ 	c #FCFFFF",
": 	c #F7FFFE",
"< 	c #F5FEFD",
"[ 	c #F6FEFF",
"} 	c #F4FEFE",
"| 	c #F6FFFF",
"1 	c #F2FDFC",
"2 	c #F6FCFC",
"3 	c #F1F5F4",
"4 	c #F9FBFB",
"5 	c #FEFEFF",
"6 	c #F6F6F6",
"7 	c #FBFDFA",
"8 	c #FEFDFD",
"9 	c #FDF8FE",
"0 	c #F7ECF9",
"a 	c #F3F3F3",
"b 	c #F3F7F8",
"c 	c #FBFBFD",
"d 	c #FEF9FA",
"e 	c #FEF9FE",
"f 	c #FEFAFC",
"g 	c #FCFBF9",
"h 	c #FEFCFE",
"i 	c #FEF9FD",
"j 	c #FBF8FC",
"k 	c #F0F2F5",
"l 	c #F9FFFF",
"m 	c #FEFCFD",
"n 	c #FEFBFC",
"o 	c #F2F2F2",
"p 	c #FBFDFB",
"q 	c #FEFCFC",
"r 	c #FBF3FC",
"s 	c #F4DDF0",
"t 	c #FFFDFF",
"u 	c #FBFBFB",
"v 	c #F7F7F7",
"w 	c #FDFCFA",
"x 	c #F7F6FF",
"y 	c #F8D8F0",
"z 	c #F5F5F5",
"A 	c #FAFAFA",
"B 	c #FDFDFB",
"C 	c #F8F7FF",
"D 	c #F9DAF0",
"E 	c #FDFDFE",
"F 	c #FDFCF9",
"G 	c #F8F6FF",
"H 	c #F8D8EF",
"I 	c #FDFEFE",
"J 	c #F1F1F1",
"K 	c #F8F8F8",
"L 	c #F9F9F9",
"M 	c #F0F0F0",
"N 	c #FBFCFC",
"O 	c #F9F9F6",
"P 	c #F6F4FD",
"Q 	c #F6D5EC",
"R 	c #F9F9FA",
"S 	c #EAEAEA",
"T 	c #EEEEEE",
"U 	c #E8E8E8",
"V 	c #E2E2E2",
"W 	c #F4F5F6",
"X 	c #F1F1EE",
"Y 	c #EEECF8",
"Z 	c #EECDE6",
"` 	c #F0F1F2",
" .	c #EFEFEF",
"..	c #E7E7E7",
"+.	c #FDFCFB",
"@.	c #FAFBFB",
"#.	c #F9EEFB",
"$.	c #F4DEF1",
"%.	c #F4D9F1",
"&.	c #F2DBF1",
"*.	c #FFFEFF",
"=.	c #FCFBFC",
"-.	c #F4CAEE",
";.	c #F4D6F1",
">.	c #FBFAFC",
",.	c #F0AEEC",
"'.	c #F6CAF2",
").	c #FBFBFC",
"!.	c #E894E6",
"~.	c #F3BEEF",
"{.	c #FFFFFE",
"].	c #FBF9FC",
"^.	c #FBFCF9",
"/.	c #EB91E9",
"(.	c #F2B9EF",
"_.	c #FEFFFD",
":.	c #FBFCFB",
"<.	c #E796E4",
"[.	c #F3B5F1",
"}.	c #FCFDFB",
"|.	c #F8FDFC",
"1.	c #F7FDFD",
"2.	c #E495E8",
"3.	c #F3ACF7",
"4.	c #E788E8",
"5.	c #E278E2",
"6.	c #FDF6FC",
"7.	c #E6E6E6",
"8.	c #EDEDED",
"9.	c #E0E0E0",
"0.	c #F5EDF1",
"a.	c #F3EEF2",
"b.	c #E171DF",
"c.	c #CC3DC6",
"d.	c #EFE0ED",
"e.	c #EBEBEB",
"f.	c #E5E5E5",
"g.	c #ECECEC",
"h.	c #FCFBFD",
"i.	c #F7FBFB",
"j.	c #E779EB",
"k.	c #D53CD8",
"l.	c #FEEDFE",
"m.	c #FCFCF8",
"n.	c #FCF9FE",
"o.	c #E37BE9",
"p.	c #D533DA",
"q.	c #FBEAF8",
"r.	c #FBFEFD",
"s.	c #FEFDFF",
"t.	c #FCFEFE",
"u.	c #FAFDF6",
"v.	c #E88AE9",
"w.	c #D22AD3",
"x.	c #F6E1F4",
"y.	c #FAFEFD",
"z.	c #F7FBFA",
"A.	c #E894E5",
"B.	c #D833D7",
"C.	c #F9DDF9",
"D.	c #FBFEFE",
"E.	c #FEFFFF",
"F.	c #FAF9FC",
"G.	c #FAF3FA",
"H.	c #DD84D8",
"I.	c #E34BE2",
"J.	c #F4CCF2",
"K.	c #FBFDFD",
"L.	c #FEFEFB",
"M.	c #FBFCFE",
"N.	c #FEFCFF",
"O.	c #FADDFC",
"P.	c #E377E1",
"Q.	c #DB53DC",
"R.	c #E9BBE8",
"S.	c #FDFEFA",
"T.	c #F2F1F2",
"U.	c #EDB6F1",
"V.	c #E467E3",
"W.	c #E164E4",
"X.	c #E8B6E7",
"Y.	c #FAFBFC",
"Z.	c #FDFDFA",
"`.	c #FAFAFB",
" +	c #FDFEFD",
".+	c #FCFEFC",
"++	c #F6F3F6",
"@+	c #E17CDF",
"#+	c #E05BDF",
"$+	c #DD5EE0",
"%+	c #EFA6E7",
"&+	c #F9FCFB",
"*+	c #FEFEFD",
"=+	c #FBFEFA",
"-+	c #F1F5F0",
";+	c #FDF9FE",
">+	c #DB59D8",
",+	c #DB39D6",
"'+	c #DD66E0",
")+	c #EDAEE8",
"!+	c #F4FDF8",
"~+	c #FDF6F7",
"{+	c #F7F6F7",
"]+	c #F2F5F1",
"^+	c #DFE4DE",
"/+	c #F3D9F5",
"(+	c #D839D8",
"_+	c #D721D0",
":+	c #DE71DF",
"<+	c #EEB0ED",
"[+	c #EDF8F2",
"}+	c #F8F3F3",
"|+	c #F3F3F6",
"1+	c #F0EFF0",
"2+	c #FAF8FA",
"3+	c #F9F7FA",
"4+	c #EDE8ED",
"5+	c #E7AAE7",
"6+	c #C71FCA",
"7+	c #DB31D7",
"8+	c #E077DC",
"9+	c #EDA3EA",
"0+	c #F8FBFB",
"a+	c #FCF8F7",
"b+	c #F9F9FB",
"c+	c #FBFAFA",
"d+	c #F7F3F8",
"e+	c #F7EDF7",
"f+	c #EBD6ED",
"g+	c #E67EDF",
"h+	c #D32CD8",
"i+	c #DD51DF",
"j+	c #E47ADC",
"k+	c #E280E1",
"l+	c #FBF0FF",
"m+	c #FEF9FC",
"n+	c #F8F7F7",
"o+	c #FFF3FB",
"p+	c #F2DAF0",
"q+	c #FCFBFA",
"r+	c #F7FBF8",
"s+	c #F8FCF6",
"t+	c #FBFCFD",
"u+	c #F6FBF5",
"v+	c #EDEFEC",
"w+	c #FCF9F2",
"x+	c #FDEDFD",
"y+	c #F8FAF8",
"z+	c #F6F7FC",
"A+	c #FBDEF9",
"B+	c #FBFEFC",
"C+	c #F9E9F6",
"D+	c #F6C3EF",
"E+	c #F0A4F1",
"F+	c #DC4EDF",
"G+	c #D834D5",
"H+	c #D858DF",
"I+	c #E581E1",
"J+	c #D872DE",
"K+	c #F7BEFA",
"L+	c #F6F7F5",
"M+	c #F7F9FB",
"N+	c #F8FEF3",
"O+	c #F1EDEE",
"P+	c #F7FCF7",
"Q+	c #F7FEF8",
"R+	c #F8FAF7",
"S+	c #FDF7FD",
"T+	c #FDFCFD",
"U+	c #F9FAFE",
"V+	c #FEFCFB",
"W+	c #F0FDFB",
"X+	c #FAFBF7",
"Y+	c #ECFCF8",
"Z+	c #F8DDFA",
"`+	c #E7C3EA",
" @	c #FFF9FF",
".@	c #F2E6F7",
"+@	c #FDF0FE",
"@@	c #F6FAF0",
"#@	c #F7FAF9",
"$@	c #FAF9FA",
"%@	c #FEFBF1",
"&@	c #F9F2F5",
"*@	c #F5F7F4",
"=@	c #F0D4F3",
"-@	c #FAF9F2",
";@	c #FAF9F7",
">@	c #F3FAF9",
",@	c #F2CDF2",
"'@	c #F8FAFD",
")@	c #F5BDF0",
"!@	c #DE73DB",
"~@	c #D651DC",
"{@	c #D73CDC",
"]@	c #E254DE",
"^@	c #E16CE7",
"/@	c #E582E2",
"(@	c #D75BD7",
"_@	c #EB9AEB",
":@	c #F2EAF0",
"<@	c #F8F2F9",
"[@	c #F8EFFA",
"}@	c #F3F7F4",
"|@	c #FCF9FB",
"1@	c #F8F8F5",
"2@	c #F4FCFC",
"3@	c #FAFAFF",
"4@	c #F8FEFE",
"5@	c #F4FEFD",
"6@	c #FDFBFA",
"7@	c #F3FDFF",
"8@	c #F9F7F8",
"9@	c #F3F9FC",
"0@	c #F0C8F5",
"a@	c #E6A2EC",
"b@	c #FBD0FB",
"c@	c #F4C5F4",
"d@	c #F5B5F6",
"e@	c #FDFBF8",
"f@	c #F9FCED",
"g@	c #F8E1F3",
"h@	c #F5F6E7",
"i@	c #FAE1F7",
"j@	c #F4DDF8",
"k@	c #E9B9EC",
"l@	c #F3EAEB",
"m@	c #F4D7F4",
"n@	c #F4EFF4",
"o@	c #ECBAEE",
"p@	c #F6E2F8",
"q@	c #ED86E6",
"r@	c #D337D5",
"s@	c #CE1FD5",
"t@	c #D94BD7",
"u@	c #E077DE",
"v@	c #DB75DF",
"w@	c #EC85EB",
"x@	c #E654DF",
"y@	c #F098F3",
"z@	c #F8D9F9",
"A@	c #EFE4EE",
"B@	c #ECB0F1",
"C@	c #E0F0E0",
"D@	c #FEF7FE",
"E@	c #FEFDF7",
"F@	c #FAF8FC",
"G@	c #FDFBFC",
"H@	c #F9FEF6",
"I@	c #FCFCF9",
"J@	c #F8F5FF",
"K@	c #FCF9FA",
"L@	c #F6B4F0",
"M@	c #ED8CE8",
"N@	c #DD54DF",
"O@	c #E67BE1",
"P@	c #EA96E2",
"Q@	c #D04ECD",
"R@	c #E9BEED",
"S@	c #FBE1F1",
"T@	c #EA98E4",
"U@	c #E4DFEF",
"V@	c #EDB2F2",
"W@	c #DB72D5",
"X@	c #E77EE1",
"Y@	c #F1A9EC",
"Z@	c #E67CE9",
"`@	c #EDA5EE",
" #	c #E47DEA",
".#	c #E99BE9",
"+#	c #DE56DE",
"@#	c #D324D6",
"##	c #D117D4",
"$#	c #E374DF",
"%#	c #F0B9EF",
"&#	c #DE8EDF",
"*#	c #EB86EB",
"=#	c #DC50D5",
"-#	c #EA84EB",
";#	c #E49FE5",
">#	c #F3BEF0",
",#	c #E266E1",
"'#	c #EBE0E5",
")#	c #F9EDFA",
"!#	c #F7FDF7",
"~#	c #F3FDF0",
"{#	c #FEFAFE",
"]#	c #FAF7F6",
"^#	c #F5F3F4",
"/#	c #EFCBE8",
"(#	c #FDFDF7",
"_#	c #C542B9",
":#	c #C628C4",
"<#	c #DC2FDC",
"[#	c #E257DE",
"}#	c #DE6ADA",
"|#	c #E056E2",
"1#	c #C544C2",
"2#	c #E478DF",
"3#	c #DF63DB",
"4#	c #F1A5F9",
"5#	c #CF59D8",
"6#	c #E24EDE",
"7#	c #D337CC",
"8#	c #D741D7",
"9#	c #CF25D2",
"0#	c #C42FC6",
"a#	c #D343D9",
"b#	c #DB56D8",
"c#	c #D443D5",
"d#	c #D545D5",
"e#	c #E54BE5",
"f#	c #E491E0",
"g#	c #F3DFF4",
"h#	c #EDB3EA",
"i#	c #E488E5",
"j#	c #D76CD5",
"k#	c #DD66DD",
"l#	c #CB56CA",
"m#	c #E55FE1",
"n#	c #DF49DC",
"o#	c #DD93DA",
"p#	c #EFC2F3",
"q#	c #F7D7F8",
"r#	c #F7F0F7",
"s#	c #ECFCF6",
"t#	c #FADAFC",
"u#	c #EECBF5",
"v#	c #F2D5F7",
"w#	c #EA98E1",
"x#	c #FFF4FC",
"y#	c #C739C6",
"z#	c #D51FE2",
"A#	c #CE30D3",
"B#	c #D448DA",
"C#	c #C645CE",
"D#	c #EA7DF5",
"E#	c #DA1ECB",
"F#	c #E94AE6",
"G#	c #C031C9",
"H#	c #E337D5",
"I#	c #D43BD5",
"J#	c #D23BDD",
"K#	c #D62DD7",
"L#	c #D008CF",
"M#	c #D11DD0",
"N#	c #E23DE2",
"O#	c #E44FE4",
"P#	c #CF2AC9",
"Q#	c #E65FE4",
"R#	c #E07ADE",
"S#	c #E67BE7",
"T#	c #F4B6F0",
"U#	c #F4F0F7",
"V#	c #FAD6F8",
"W#	c #EEA0EF",
"X#	c #E6A0EA",
"Y#	c #E760E0",
"Z#	c #E45DDF",
"`#	c #D325D4",
" $	c #D132D5",
".$	c #CE47D5",
"+$	c #E780E8",
"@$	c #E676E0",
"#$	c #E59ED9",
"$$	c #F7D7F7",
"%$	c #D660D4",
"&$	c #D655CE",
"*$	c #EA9BEF",
"=$	c #E056D6",
"-$	c #E3ABED",
";$	c #D260D7",
">$	c #E573E7",
",$	c #E477E5",
"'$	c #E899E4",
")$	c #E09CDD",
"!$	c #EEA6EE",
"~$	c #E171D7",
"{$	c #EF83F1",
"]$	c #D253D3",
"^$	c #D225CB",
"/$	c #E68BE1",
"($	c #E36FE5",
"_$	c #DB73D7",
":$	c #D632DA",
"<$	c #E588E2",
"[$	c #EEAFE8",
"}$	c #E59BE5",
"|$	c #D844CE",
"1$	c #ECA7F4",
"2$	c #EFAFEA",
"3$	c #ECAFEE",
"4$	c #F8DAF5",
"5$	c #FCF6FA",
"6$	c #F4E4F0",
"7$	c #EFC7ED",
"8$	c #F1CCE8",
"9$	c #DD87D8",
"0$	c #EBB3EB",
"a$	c #DD75DB",
"b$	c #D945D9",
"c$	c #DE48E3",
"d$	c #CC22C9",
"e$	c #DE35E0",
"f$	c #C336C6",
"g$	c #DA57DC",
"h$	c #D133D0",
"i$	c #D72FD5",
"j$	c #D637CF",
"k$	c #CD28D2",
"l$	c #D742D7",
"m$	c #E7BFE7",
"n$	c #E8CEEA",
"o$	c #EAD1EE",
"p$	c #F7F3F9",
"q$	c #F2F2F5",
"r$	c #EDE0F0",
"s$	c #F1C1EB",
"t$	c #F3CEF7",
"u$	c #E6BCEB",
"v$	c #E099E1",
"w$	c #EED7E6",
"x$	c #F3C4EB",
"y$	c #F0D6EC",
"z$	c #ECA6EE",
"A$	c #F0D3F4",
"B$	c #F1DCF0",
"C$	c #EBD8F1",
"D$	c #E79ADE",
"E$	c #F0DBF5",
"F$	c #F2D8EB",
"G$	c #E3CBE3",
"H$	c #F5EBF7",
"I$	c #F3F9F9",
"J$	c #F6F8F8",
"K$	c #FBEDFB",
"L$	c #F5F4F6",
"M$	c #F0D3F3",
"N$	c #EDE9F2",
"O$	c #F5D5F6",
"P$	c #E4A8E6",
"Q$	c #E9B3EF",
"R$	c #E8A4E9",
"S$	c #CE85D4",
"T$	c #EA92EB",
"U$	c #DD7DDF",
"V$	c #E787E8",
"W$	c #E782EA",
"X$	c #E497E3",
"Y$	c #EBAAED",
"Z$	c #E5ACE1",
"`$	c #F2F0F3",
" %	c #F5F5F0",
".%	c #FBF2F1",
"+%	c #FAF8F0",
"@%	c #F4F1ED",
"#%	c #F5F4F1",
"$%	c #F7EFF5",
"%%	c #EEF1EC",
"&%	c #F1F9F0",
"*%	c #F4EFF8",
"=%	c #E8F5E5",
"-%	c #F7F0F2",
";%	c #E9FAEC",
">%	c #F3F3F2",
",%	c #F4F9F9",
"'%	c #F2EFF1",
")%	c #EFF7F4",
"!%	c #FAEAF5",
"~%	c #EAF1ED",
"{%	c #F5F5F3",
"]%	c #E9E6E6",
"^%	c #F5F5FA",
"/%	c #F0F6F5",
"(%	c #EFF6F0",
"_%	c #F5F6F6",
":%	c #ECF6EE",
"<%	c #F2F1F5",
"[%	c #ECF8EE",
"}%	c #F1F6F4",
"|%	c #F2F1F1",
"1%	c #EAF0F0",
"2%	c #F2EBF0",
"3%	c #F7F4F9",
"4%	c #F0F6EA",
"5%	c #F0F8EC",
"6%	c #E8F2E6",
"7%	c #EDF7EE",
"8%	c #F8F7FC",
"9%	c #E8F9F0",
"0%	c #F0F3EE",
"a%	c #FAF1FC",
"b%	c #FDF9FD",
"c%	c #FAFBFF",
"d%	c #FEF7FC",
"e%	c #FDFCF8",
"f%	c #F9FDF3",
"g%	c #F4F7F7",
"h%	c #FDFAFF",
"i%	c #F8FEFC",
"j%	c #FCFEF3",
"k%	c #FDFBFF",
"l%	c #FEF8FB",
"m%	c #FDF9FC",
"n%	c #FFFDFC",
"o%	c #FAFCFC",
"p%	c #F8FBFC",
"q%	c #F9F4F8",
"r%	c #FDFDFF",
"s%	c #FEFEFC",
"t%	c #FCF9FD",
"u%	c #FAF7FC",
"v%	c #FCFAFC",
"w%	c #EBF2EC",
"x%	c #F7F5F2",
"y%	c #F9FBF7",
"z%	c #FEFDFC",
"A%	c #FDFBFD",
"B%	c #F8F8FC",
"C%	c #FDFBFB",
"D%	c #F3FDF4",
"E%	c #F9F6F1",
". + @ # $ % # & * = - ; > , ' ' ' ' ' ) ! ~ ) { ] ' ' ' ' ' ! ) ) ' ' ' ' ^ / ) ",
"( _ : < [ [ } | 1 2 3 4 5 5 ' ' ' ' ' ' 6 7 8 9 0 { ' ' ' ' a ' / ' ' ' ' ' ^ ) ",
"b c d d e f g h i j k l m n / / / ' ' ) o p q r s t / / ' ' o ) ' / / / / ) ' ' ",
"u ' ) ) ' ) ' ' ' u v ' ) ^ ' ' ' ' ' ) v > w x y 5 ' ' ) ) z ) ' ' ' ' ' ' ' / ",
"v ) ' ' ' ' ' ' ' A z ' ' ' ' ' ' / ' ) o & B C D 5 ' ' ' ) z ) ' ' ' ' ' ' ' ' ",
"A ' ' ' ) ' ) ) ) u v ) ) ^ ) ) ) / ' ) ! E F G H I ' ) ' ' 6 ^ ) ) ' ) ) ) ) ' ",
"J u A ^ K ^ A A A v a A u L A A A ^ A u M N O P Q R ^ L u K M A ) A u A u u A u ",
"S z o z T z a a a T U J a J a a a 6 o o V W X Y Z ` a J a  ...M a J o J o ! a ! ",
"A / ' / ) / / / / ^ v ) ) ' / / / ' ) ' z +.@.#.$.' / ' / ' ! ' ' ' / ' ' ' ' ' ",
"z / / / / / / / / u z ^ ' / / / / / ' ^ o $ N %.&.*./ / / ^ o ' / / / / / / / ' ",
"^ / / / / / / / / ^ 6 ) ' / / / / / ' ) ! =.* -.;.*./ / / ' ! ' ' / / / / / / ' ",
"K ' / / / / / / / ^ 6 ) ' / / / / / ' ) ! >.7 ,.'./ / / / ' ! ' ' / / / / / / ' ",
"v / / / / / / / / u z ^ ' / / / / / ' ^ o ).~ !.~.{./ / / ^ o ' / / / / / / / ' ",
") ' / / / / / / / ^ v ' ) / / / / ' ) ' 6 ].^./.(._./ / / ' ! / ' / / / / ' ' ' ",
"v ' / / ) ' ) ) ) A a ) ) ) ) ) ) ' ^ ^ M E :.<.[.}.' ) ) ^ J ) ) ) ) ) ) ) ' ' ",
"J ' ' ' ) / ' ' ' ^ 6 ' ) ) ' ' ' ' ) ) ! |.1.2.3.' ' ' ' ' ! ' ' ' ' ' ' ' ' ' ",
"A u ) ) u ' ' ' ' ^ 6 ' ' ) ' ' ' ' ) ) ! E 4 4.5.6./ ' ' ' z ) ' ' ' ' ' ) ) ' ",
"..6  .J T M T T T S 7.8.M 8.T T T J  .T 9.0.a.b.c.d. .T  .e.f.g.M T T T T M J J ",
"u ) ' / ) / / / / ) K ' ' ) / / / / ' ' ! h.i.j.k.l./ ' / ) K ^ / ' / ' / / ' / ",
"v ) / / ' / / / / ^ z ' ' ' / / / ' ' ) a m.n.o.p.q.r.s.t.& z ) ' / / / / / ' ' ",
"6 / / / / / / / / ^ 6 ' ) ' / / / ) ) ' ! u.@ v.w.x.y.{ _ I ! ' ' / / / / / / ' ",
"' ' / / / / / / / ^ 6 / ' / / / / / ' / ! { z.A.B.C.D.' , E.z / / / / / / / / ' ",
"K ' / / / / / / / A a ^ ) ' / / / ) ^ ^ M F.G.H.I.J.K.L.M.$ o ^ ^ / / / / / / ' ",
") ) / / / / / / / ^ v ' ' ' / / / ' ' / ! N.O.P.Q.R.).S.> E.! / / / / / / / / ' ",
"6 ' / / / / / / / u ! ' ' ' / / / ' ' E T.h U.V.W.X.Y.Z.`. +a ' ' / / / / ' / / ",
"K ' / ' ' ' ' ' ' u ! ' ) ) ' ' ' .++ ) ++h @+#+$+%+1.e &+*+a ) ) ) ' ' ' / / / ",
"v ) ^ ) ' ) ) ) ) u 6 ) ) u ^ ^ ^ ) p =+-+;+>+,+'+)+!+~+& ) z ^ ) ) ) ) ) ) ^ ) ",
"e.a a z z 6 o o o 8.g.M v o ! ! ! {+o ]+^+/+(+_+:+<+[+}+|+1+S M z a a o a z ! z ",
"v ^ ^ ^ v ) u u u K z u ^ L u u u ^ 2+3+4+5+6+7+8+9+0+a+b+c+! A ^ ^ ^ u ^ u A u ",
"z ' 6 ) ' ' ' ' ' u z ) ^ ) ' ' ' ' d+e+f+g+h+i+j+k+l+m+K.' a ) ) ) ' ' ' / / / ",
"n+o+p+q+r+N s+% t+u+v+w+x+b+y+z+A+B+C+D+E+F+G+H+I+J+K+L+M+N+O+P+Q+R+S+T+U+V+W+X+",
"Y+Z+`+ @.@+@@@#@$@%@&@*@=@-@;@>@,@'@)@!@~@{@]@^@/@(@_@:@<@[@}@|@1@2@3@4@5@6@7@8@",
"9@0@a@b@c@d@e@f@g@h@i@j@k@l@m@n@o@p@q@r@s@t@u@v@w@x@y@z@A@B@C@D@E@F@G@T+H@I@J@K@",
"L@M@N@O@P@Q@R@S@T@U@V@W@X@Y@Z@`@ #.#+#@###$#%#&#*#=#-#;#>#,#'#)#!#c+~#{#]#^#/#(#",
"_#:#<#[#}#|#1#2#3#4#5#6#7#8#9#0#a#b#c#d#e#f#g#h#i#j#k#l#m#n#o#p#q#r#s#t#u#v#w#x#",
"y#z#A#B#C#D#E#F#G#H#I#J#K#L#M#N#O#P#Q#R#S#T#U#V#W#X#Y#Z#`# $.$+$@$#$$$%$&$*$=$-$",
";$>$,$'$)$!$~${$]$^$/$($_$:$<$[$}$|$1$2$3$4$5$6$7$8$9$0$a$b$c$d$e$f$g$h$i$j$k$l$",
"m$n$o$p$q$r$s$t$u$v$w$x$y$z$A$B$C$D$E$F$G$H$I$J$K$L$M$N$O$P$Q$R$S$T$U$V$W$X$Y$Z$",
"`$ %.%+%@%#%$%%%&%*%=%-%;%>%,%'%)%!%~%{%]%^%/%(%_%:%<%[%}%|%1%2%3%4%5%6%7%8%9%0%",
"a%b%h.& c%=.d%e%f%F.g%h%i%j%k%l%m%n%o%p%q%r%*.s%s%t%u%v%& m.w%x%y%z%A%% B%C%D%E%"};
