/* XPM */
static const char *gruener_mann[] = {
/* columns rows colors chars-per-pixel */
"16 16 68 1",
"  c #2b0b29",
". c #2d1426",
"X c #2f162a",
"o c #2c1b25",
"O c #2e1a29",
"+ c #320e2a",
"@ c #350030",
"# c #31152b",
"$ c #311b2b",
"% c #311230",
"& c #262626",
"* c #27252a",
"= c #262e2b",
"- c #282427",
"; c #2c242a",
": c #2b2b2b",
"> c #25332c",
", c #243b2a",
"< c #283d31",
"1 c #30222c",
"2 c #1f4328",
"3 c #1c4e2e",
"4 c #1a5d2a",
"5 c #1e5230",
"6 c #136e32",
"7 c #1d6131",
"8 c #186a33",
"9 c #147e2e",
"0 c #117533",
"q c #187134",
"w c #234a2c",
"e c #234332",
"r c #224c32",
"t c #205830",
"y c #0e8427",
"u c #0f8328",
"i c #0d8a25",
"p c #0b8d29",
"a c #0e8437",
"s c #06962a",
"d c #049d2f",
"f c #099326",
"g c #0c932c",
"h c #0c9c2b",
"j c #039d36",
"k c #0b9237",
"l c #0f9932",
"z c #13802c",
"x c #188633",
"c c #119031",
"v c #119a32",
"b c #07a624",
"n c #04a22c",
"m c #04ac22",
"M c #05ac2e",
"N c #08a22b",
"B c #08a926",
"V c #05b625",
"C c #03b52c",
"Z c #04b134",
"A c #01bc32",
"S c #03be39",
"D c #09b737",
"F c #00cf2c",
"G c #01c532",
"H c #06d02a",
"J c #00d131",
"K c #00df30",
/* pixels */
"&:&:&;.=O--&&:&:",
"&&&&-3yju,-&&&&&",
"::&&-,pbhG -&:&&",
"&&:&-3dfh09w-&:&",
"&:#;&&6mMOo;&&&&",
":&G,#O4ns=&&:&&:",
"&$qZl=niVz.&:&::",
"::.qMZfVGG;&&:&&",
":::$<tvcgZy+&&&:",
"-:::1:VvCJA4.:::",
":::$:CvD@xdH4$::",
"::rcCvv%:#7FD8;:",
"::1exD%1::1tKw1:",
":::1e11<::1v,1::",
"::::1:<:<1:11:::",
"<:::<111<:::::<:"
};
