/* XPM */
static const char * node_xpm[] = {
"50 50 56 1",
" 	c None",
".	c #FFFFFF",
"+	c #292929",
"@	c #313131",
"#	c #393939",
"$	c #4A4A4A",
"%	c #525252",
"&	c #737373",
"*	c #7B7B7B",
"=	c #848484",
"-	c #8C8C8C",
";	c #949494",
">	c #9C9C9C",
",	c #A5A5A5",
"'	c #ADADAD",
")	c #B5B5B5",
"!	c #BDBDBD",
"~	c #C6C6C6",
"{	c #CECECE",
"]	c #ADA5A5",
"^	c #C6C6BD",
"/	c #C6CEC6",
"(	c #B5BDB5",
"_	c #A5ADA5",
":	c #ADB5AD",
"<	c #BDC6BD",
"[	c #8C948C",
"}	c #949C94",
"|	c #9CA59C",
"1	c #848C84",
"2	c #7B847B",
"3	c #B5BDBD",
"4	c #A5ADAD",
"5	c #ADB5B5",
"6	c #8C9494",
"7	c #949C9C",
"8	c #9CA5A5",
"9	c #848C8C",
"0	c #737B7B",
"a	c #7B8484",
"b	c #A5A5AD",
"c	c #ADADB5",
"d	c #BDBDC6",
"e	c #8C8C94",
"f	c #94949C",
"g	c #9C9CA5",
"h	c #84848C",
"i	c #73737B",
"j	c #7B7B84",
"k	c #310842",
"l	c #391042",
"m	c #310839",
"n	c #ADA5AD",
"o	c #B5ADB5",
"p	c #A59CA5",
"q	c #000000",
"                                                  ",
"                                                  ",
"  qqqqqqqqqqqqqqqqqqqqqqqqqqqqqqqqqqqqqqqqqqqqqq  ",
",@q----;;;;}>>>>>,,,,,''''')))))!!!!!~~~~~{~{{{q@ ",
"qqq---6[;;;>f>>>,>,,,,4]''5')))3)!!!~!!~~~~{~{{qqq",
",+q--qqqqqqqqqqqqqqqqqqqqqqqqqqqqqqqqqqqqqqqq~{q# ",
" 'q9-q-;;;;f>>>>p|,,,,''''')))))!!!!<d~~~~~~q~{q  ",
"  q--q;m;;;};>>>>|p,,,4,''''5)))!(!!~!^<~~l~q{~q  ",
"  q--q-6;;;>>>>>8p|,,,]'''')'))))!!!!!~~~~~~q~~q  ",
"  q9-q-;-;;;f}>>>>,p,,b_'''')')))!3!!!!!^~~~q~~q  ",
"  q=-q--;;;f;>>>>,>8,,,n_''''))))))!!!d^d!~~q~~q  ",
"  q--q-;6;;};>>>>>|,,,,_n'':c)))))!!!!!!!~!~q~~q  ",
"  q-9q--;;;;>;>>>g,>,,,]4'''':))))!)!!!!d^!~q~dq  ",
"  qh1q-[;e;;;>7>>>|,8,,,]4'''o:))))(!(!!!!!<q<~q  ",
"  q1-q---;;;;;>>>>>p>,,4,,''':'c)))))!!!!!d!q^!q  ",
"  q=-q-;[6;;;>;>>|>,|,,,,]4''c':))))!))!!!!!qd!q  ",
"  qh1q---;;;;;>>>>g>p|,,,']''''o:o))))!)!(!!q!!q  ",
"  q=-q----;;;;7;>>>>,p|,,,b]''''):))))))3!)!q!!q  ",
"  q=hq---;[;;;;>>>>>>|,,,,,_4''''o'))))))))3q)!q  ",
"  q=1q----e;;;;}f>>8>,gp,,4]b]''''':c)))))))q()q  ",
"  q=hq----[;;;;>}>>>>>|,8,,,]44''':o::))))))q))q  ",
"  q==q9----;e;;;f}>>>p>|p,,,,]4]''''o'o:o)))q))q  ",
"  q==q=-----[;;;;;>>>>>p||,,,,,44'''''')':c)q))q  ",
"  q==q-=----;;;;;>;>>>g|>p8,,b]_],''''''''o:q')q  ",
"  q==q=----e[;6;;;>f>>>>p|p8,,,,_','''''''''qo'q  ",
"  q==q=h1----e;;;;;}>>>>>>|p|,,,,,b,4]4'''''q''q  ",
"  q2=q==-h-----6;;f;f}>>>g>|p,8,,,,]_b']4'''q''q  ",
"  qj=q===1---[e;;;;};>>>>>>>g|>,,,,,,,,4]4,'q''q  ",
"  q2=q==h-=----[;6;;;f;>>>>g|>,>,,,,,,,,,,',q_bq  ",
"  q*aq====-9----;-;;;};>;>>>>>p|p|p8,,,,,,,,q],q  ",
"  q**q======-----;;;;;;;7>>>>>>>8>,>8,,,,,,,q,,q  ",
"  q*=qa====-9------6;;;;;>}>>>>>>>>,>,>8,,,,q,,q  ",
"  q**q=*=====-9--6[;;;;;;;>f>>>>>>|>g>,>>8|pq,8q  ",
"  q**q*=a===h1-------;;;;;;;}f>>>>>>>>>,>p|,q>,q  ",
"  q**q2**a=====9----6-6;;;;>;>}f>>>>>>>>|>>>q|>q  ",
"  q**qj*======-=------;-;;;;;;;>}f>>>>>>>>>>qg>q  ",
"  q**q**=*a====h1-9----6-;;;;;f;;>;}>>>>>>>>q>>q  ",
"  q0*q***=*=======-------6-;;;;;;;;>;7;>7>>>q>>q  ",
"  q&*q****a*a===h1h=------;-6;;;;;;;;;};;7;>q7>q  ",
"  q&0q*****=*=====1=9--------;-;;;;;;;;>};f;q};q  ",
"  qi*q******=*=====h=1-9------;[;;;;;;;;;;;;q;>q  ",
"  q&&q0******a*j=====h==---------e[;;;;;;;;;q;;q  ",
"  q&&q&m0******2*a======9=------------6-6;k;q;;q  ",
"  q&&q*i*0*****=*======-==-=9------e-;-;-;[;q[6q  ",
" @q&&qqqqqqqqqqqqqqqqqqqqqqqqqqqqqqqqqqqqqqqqe-q$ ",
"qqq&&&&&&*0*******a*=========-91--------------[qqq",
"'%q&&&&0&&&&0********a*==========h=-9----------q+ ",
"  qqqqqqqqqqqqqqqqqqqqqqqqqqqqqqqqqqqqqqqqqqqqqq  ",
"                                                  ",
"                                                  "};
