/* XPM */
static const char *roter_mann[] = {
/* columns rows colors chars-per-pixel */
"16 16 54 1",
"  c #042a2b",
". c #0c2a2a",
"X c #122726",
"o c #142a2a",
"O c #1c2726",
"+ c #1f2728",
"@ c #1e2b2b",
"# c #262626",
"$ c #252728",
"% c #232825",
"& c #262a2a",
"* c #292726",
"= c #2b2a2a",
"- c #232f30",
"; c #302727",
": c #322926",
"> c #312829",
", c #3d2627",
"< c #3f2825",
"1 c #3d2929",
"2 c #402628",
"3 c #4e2624",
"4 c #532424",
"5 c #5d2724",
"6 c #6c231f",
"7 c #632526",
"8 c #6e2323",
"9 c #7a2323",
"0 c #96201e",
"q c #8e2325",
"w c #912422",
"e c #a21f1b",
"r c #ab1f1c",
"t c #b31e18",
"y c #a41f20",
"u c #a2201a",
"i c #ad2220",
"p c #c51c1a",
"a c #d11b14",
"s c #d61d1a",
"d c #dc1a15",
"f c #e01615",
"g c #e31a15",
"h c #eb1611",
"j c #e91a14",
"k c #e91818",
"l c #f6190f",
"z c #fc150d",
"x c #fd190e",
"c c #f31513",
"v c #f31812",
"b c #fd1512",
"n c #f91618",
"m c #f91a14",
/* pixels */
"======*&&======&",
"===&=%.>:o+&##=#",
"===&#,ejlm<*#=##",
"#=##*0lggaj%&###",
"&#%O+ 0ggp.O####",
"=O#449ecla6:O X#",
".sxbxjbdfzbcbsio",
"&*7rrchczdzt083$",
"=&+o.%vbzx, XO$=",
"====# xjgb+%=*#=",
"===== vddj =====",
"=====oikcyo==&=&",
"=-===-9js9-==&==",
"=====-3gn2======",
"-====-5qw5-=====",
"-=====----==-==="
};
