/* XPM */
static char *mirrormodule_xpm[]={
"40 44 2 1",
". c #000000",
"# c #ffffff",
"....................####################",
"....................####################",
"....................####################",
"....................####################",
"....................####################",
"....................####################",
"....................####################",
"....................####################",
"....................####################",
"....................####################",
"....................####################",
"....................####################",
"....................####################",
"....................####################",
"....................####################",
"....................####################",
"....................####################",
"....................####################",
"....................####################",
"....................####################",
"....................####################",
"....................####################",
"####################....................",
"####################....................",
"####################....................",
"####################....................",
"####################....................",
"####################....................",
"####################....................",
"####################....................",
"####################....................",
"####################....................",
"####################....................",
"####################....................",
"####################....................",
"####################....................",
"####################....................",
"####################....................",
"####################....................",
"####################....................",
"####################....................",
"####################....................",
"####################....................",
"####################...................."};
