/* XPM */
static char *watermodule_xpm[] = {
/* width height num_colors chars_per_pixel */
"    32    32      256            2",
/* colors */
"`` c #0406fc",
"`. c #0482fc",
"`# c #04befc",
"`a c #5482fc",
"`b c #0446fc",
"`c c #54befc",
"`d c #04a2fc",
"`e c #0466fc",
"`f c #04defc",
"`g c #3c66fc",
"`h c #3c82fc",
"`i c #3ca2fc",
"`j c #3cbefc",
"`k c #54a2fc",
"`l c #0426fc",
"`m c #2c5afc",
"`n c #54d6fc",
"`o c #0492fc",
"`p c #1c66fc",
"`q c #0456fc",
"`r c #04b2fc",
"`s c #04cefc",
"`t c #3cdefc",
"`u c #3c76fc",
"`v c #7ca2fc",
"`w c #0436fc",
"`x c #7cd6fc",
"`y c #5492fc",
"`z c #0416fc",
"`A c #1c82fc",
"`B c #1ca2fc",
"`C c #04eefc",
"`D c #3cb2fc",
"`E c #3ccefc",
"`F c #1c92fc",
"`G c #1c76fc",
"`H c #1cc2fc",
"`I c #1c46fc",
"`J c #74befc",
"`K c #0476fc",
"`L c #54b2fc",
"`M c #1c56fc",
"`N c #54cafc",
"`O c #3c92fc",
"`P c #1cb2fc",
"`Q c #5476fc",
"`R c #1c3efc",
"`S c #74e2fc",
"`T c #748efc",
"`U c #1cdefc",
"`V c #2caefc",
"`W c #1c6efc",
"`X c #1cd2fc",
"`Y c #040efc",
"`Z c #048afc",
"`0 c #04c6fc",
"`1 c #548afc",
"`2 c #044efc",
"`3 c #04aafc",
"`4 c #046efc",
"`5 c #04e6fc",
"`6 c #3c6efc",
"`7 c #3cc6fc",
"`8 c #54aafc",
".` c #042efc",
".. c #3c5afc",
".# c #54defc",
".a c #049afc",
".b c #045efc",
".c c #04d6fc",
".d c #043efc",
".e c #549afc",
".f c #041efc",
".g c #1c8afc",
".h c #1caafc",
".i c #2cdafc",
".j c #1c9afc",
".k c #54c6fc",
".l c #3c8afc",
".m c #04bafc",
".n c #3c7efc",
".o c #74b6fc",
".p c #7cdefc",
".q c #04f6fc",
".r c #3cbafc",
".s c #1c7efc",
".t c #1ccafc",
".u c #1c4efc",
".v c #047efc",
".w c #54bafc",
".x c #1c5efc",
".y c #54d2fc",
".z c #3c9afc",
".A c #1cbafc",
".B c #547efc",
".C c #7ce2fc",
".D c #3caafc",
".E c #2c72fc",
".F c #3c62fc",
".G c #040afc",
".H c #0486fc",
".I c #04c2fc",
".J c #5486fc",
".K c #044afc",
".L c #54c2fc",
".M c #04a6fc",
".N c #046afc",
".O c #04e2fc",
".P c #3c6afc",
".Q c #3ca6fc",
".R c #3cc2fc",
".S c #54a6fc",
".T c #042afc",
".U c #54dafc",
".V c #0496fc",
".W c #1c6afc",
".X c #045afc",
".Y c #04b6fc",
".Z c #04d2fc",
".0 c #3ce2fc",
".1 c #3c7afc",
".2 c #7ca6fc",
".3 c #043afc",
".4 c #7cdafc",
".5 c #5496fc",
".6 c #041afc",
".7 c #1c86fc",
".8 c #1ca6fc",
"#` c #04f2fc",
"#. c #3cd6fc",
"## c #3cb6fc",
"#a c #3cd2fc",
"#b c #1c96fc",
"#c c #1c7afc",
"#d c #1cc6fc",
"#e c #047afc",
"#f c #54b6fc",
"#g c #1c5afc",
"#h c #54cefc",
"#i c #3c96fc",
"#j c #1cb6fc",
"#k c #547afc",
"#l c #1c42fc",
"#m c #1c72fc",
"#n c #0412fc",
"#o c #048efc",
"#p c #04cafc",
"#q c #548efc",
"#r c #0452fc",
"#s c #04aefc",
"#t c #0472fc",
"#u c #04eafc",
"#v c #3c72fc",
"#w c #3ccafc",
"#x c #54aefc",
"#y c #0432fc",
"#z c #3c5efc",
"#A c #54e2fc",
"#B c #049efc",
"#C c #0462fc",
"#D c #04dafc",
"#E c #0442fc",
"#F c #549efc",
"#G c #0422fc",
"#H c #1c8efc",
"#I c #1caefc",
"#J c #1c9efc",
"#K c #3c8efc",
"#L c #1c52fc",
"#M c #7ce6fc",
"#N c #3caefc",
"#O c #000000",
"#P c #000000",
"#Q c #000000",
"#R c #000000",
"#S c #000000",
"#T c #000000",
"#U c #000000",
"#V c #000000",
"#W c #000000",
"#X c #000000",
"#Y c #000000",
"#Z c #000000",
"#0 c #000000",
"#1 c #000000",
"#2 c #000000",
"#3 c #000000",
"#4 c #000000",
"#5 c #000000",
"#6 c #000000",
"#7 c #000000",
"#8 c #000000",
"a` c #000000",
"a. c #000000",
"a# c #000000",
"aa c #000000",
"ab c #000000",
"ac c #000000",
"ad c #000000",
"ae c #000000",
"af c #000000",
"ag c #000000",
"ah c #000000",
"ai c #000000",
"aj c #000000",
"ak c #000000",
"al c #000000",
"am c #000000",
"an c #000000",
"ao c #000000",
"ap c #000000",
"aq c #000000",
"ar c #000000",
"as c #000000",
"at c #000000",
"au c #000000",
"av c #000000",
"aw c #000000",
"ax c #000000",
"ay c #000000",
"az c #000000",
"aA c #000000",
"aB c #000000",
"aC c #000000",
"aD c #000000",
"aE c #000000",
"aF c #000000",
"aG c #000000",
"aH c #000000",
"aI c #000000",
"aJ c #000000",
"aK c #000000",
"aL c #000000",
"aM c #000000",
"aN c #000000",
"aO c #000000",
"aP c #000000",
"aQ c #000000",
"aR c #000000",
"aS c #000000",
"aT c #000000",
"aU c #000000",
"aV c #000000",
"aW c #000000",
"aX c #000000",
"aY c #000000",
"aZ c #000000",
"a0 c #000000",
"a1 c #000000",
"a2 c #000000",
"a3 c #000000",
"a4 c #000000",
"a5 c #000000",
"a6 c #000000",
"a7 c #000000",
"a8 c #000000",
/* pixels */
"````.G`Y#n`z.6.f#G`l.T.`#y`w.3.d#E`b.K`2#r`q.X.b#C`e.N`4#t`K#e.v",
"`````Y`Y`z`z.f.f`l`l.`.``w.3.d#E`b.K`2#r`q.X.b#C`e.N`4#t`K#e.v.v",
".G`Y`Y`z`z.f.f`l`l.`.``w.u`g.B`a.J.E`p`q.X.b#C`e.N`4#t`K#e.v`.`.",
"`Y#n#n.6.6#G#G.T.T`I.F#k#k`a`a.J.J`1`1#q`y`h`G`e`4`4`K`K.v.v.H.H",
"#n`z`z.f.f`l`l#l#z`Q#k.B.B`a.J`1#q#q`y`y.5.5.l.s#t`K#e.v`..H`Z#o",
"`z.6.6#G#G.T#l#z`Q.B.B`a`6.x`2#r#r.W`h.5.e.e#F#F`O.7.v.v.H`Z#o#o",
".6.f.f`l`R`m`Q`Q#k.P`M`b.x.E`1`1`y.n#m`e.N.s#K`k.S.z#H.H`Z#o`o`o",
".f#G#G.T`m`Q`T`g#L#E`M.E.J`1#q#q`y.5.5.l.s`4.7#i`8`8`i#b#o`o.V.a",
"#G`l`l#l`Q`T#k#L`M`6`a.J`1#q`y.5.5.e.e#F#F`O.g.v#H#x`L.Q`o.V.a.a",
"`l.T#l#z`Q`g#L`M`6.J`1`1.n.W.b#C`e#c#K`k`k.S.z#H.H`i`L#f`B.a#B`d",
".T.`#z`Q#k#L`M`6.J.J.1.W.W.n.5.5.5#K.s`A#i`8`8`i#b.j.D.w`V.h`d`d",
".``I`Q#k.P#E`6`a`1`p`q.W.n.5.5.e#F#F`O.g.v#H#x`L.Q`o`B.w`c##.M.M",
"#y.F#k.B`M#g`a`1.1#r.W.n.5.e#F#F`k`k.S.z#H.H`i`L#f`B.a`c.L.k`3#s",
"`w#k.B`a`b`6.J`1.W.W`h.5`h#c`4#t`K.7.z#x`i#b.j#f.w`V#B`c.L.k#s#s",
"`m#k.B`6#g`1`1.n`q.n.5.e#c`4#t#t#e.v#H#x#x.Q`o`V.w`c#I.r.k`N.A.Y",
".B.B.J.x.E`1#q`W`W.5.5.l`4#t`K#e.v`..H`i`L.w`B.8`c.L.r`P.k#h`7.Y",
"`v`a.J`2`1#q`y.b`h.5.e.s#t#t#e#e`.`.`Z.j#f.w`V#B`c.L.k#s`N#h.y.m",
"`v.J`1#r`1`y`y#C.5.e`k#t`K#e.v`..H`Z#o`o#f.w`c`d.L.k`N`r#h.y`n`#",
"`v.J`1`q#q`y.5`e.l#F`k`A#e#e`.`.`Z#o`o`B.w`c.r.M.k`N#h.Y#h.y`n`0",
"`1`1#q.W`h.5.e#c.s#F`k#i.v`..H`Z#o`o.V`V`c.L#I`P.k#h`7`H.y`n#.`0",
".E#q`y`h#m.5.e.l#t`O.S`8#H.H`Z#o`o.V.8`c`c.r`3`j`N#h`H#w`n.U`X#p",
"`q#q`y.5`e.l#F`k`A.g.z`8`i#b#o`o.V.8`D.L.r#j#j`N#h#w`#`n.U.U`s.Z",
".X`h.5.e`G.s#F`k#i.v#H`i#x`L#f#f.w`c`c.r#j#s.R#h.y#d.I`n.U#A.Z.Z",
".b#m.5.e#K#t`O.S`8#H.H#b.Q#f.w.w`c.L.r#j#s#j#h#h`E.I.t.U.#`t.c#D",
"#C`e.l#F#F.7.7.z`8#x`i.j#J`V`c`c.L.r#j#j.R#h.y`E.t.t#..#`t`U#D#D",
"`e.N.s#K`k#i.g`F`i#x`L#f.D.8#B`d.M`P`j`N`N.y#w.t`0#a.##A`U.c`f.O",
".N`4#t.7.S.o`8`F#b.Q.w.w.w`c`c.L.k.k`N#h.y`E.t.t#a`S#A.0#D`f.O`5",
"`4#t`K`K.z`8`J`i.j`o`B`V`c.L.L.k`N#h#h#w#d.I.t#..##A.i`U.O.O`5#u",
"#t`K#e.v#H`i`L`L#f`V.8#B#I.r.k`N#h`7`H`##d#a.U.##A.0`U.O.O`5`C`C",
"`K#e.v.v.H`Z.j.D.w.w`c`c.r`P#s`r.Y`H#w`n.U.U.#`t`U#D`f.O#u#u`C#`",
"#e.v`..H`Z#o`o`B`V`c.L.L.k.k`N#h#h.y`n`n.#.#`t`U.c`f`5`5#u`C#`.q",
".v.v`..H#o#o.V.V#B`V.L`x`x`x.4.4.4.p.C.C.#.i.Z.c`f.O`5#u`C#`.q.q"
};
