/* XPM */
static char *gephex-logo[] = {
/* columns rows colors chars-per-pixel */
"32 32 3 1",
"  c black",
". c red",
"X c None",
/* pixels */
"XXXXXXXXXXXXXXXXXXXXXXXXXXXXXXXX",
"XXXXXXX..................XXXXXXX",
"XXXXXXX..................XXXXXXX",
"XXXXXXX..................XXXXXXX",
"XXXXXXX..................XXXXXXX",
"XXXXXXX..................XXXXXXX",
"XXXXXXX..................XXXXXXX",
"X......XXXXXX......XXXXXX......X",
"X......XXXXXX......XXXXXX......X",
"X......XXXXXX......XXXXXX......X",
"X......XXXXXX......XXXXXX......X",
"X......XXXXXX......XXXXXX......X",
"X......XXXXXX......XXXXXX......X",
"X..............................X",
"X..............................X",
"X..............................X",
"X..............................X",
"X..............................X",
"X..............................X",
"X..............................X",
"X..............................X",
"X..............................X",
"X..............................X",
"X..............................X",
"X..............................X",
"X......XXXXXX......XXXXXX......X",
"X......XXXXXX......XXXXXX......X",
"X......XXXXXX......XXXXXX......X",
"X......XXXXXX......XXXXXX......X",
"X......XXXXXX......XXXXXX......X",
" ......XXXXXX......XXXXXX......X",
"XXXXXXXXXXXXXXXXXXXXXXXXXXXXXXXX"
};
