/* XPM */
static char * audioenergymodule_xpm[] = {
"40 40 888 2",
"  	c None",
". 	c #A7A7A7",
"+ 	c #ACACAC",
"@ 	c #BCBCBC",
"# 	c #BEBEBE",
"$ 	c #BFBFBF",
"% 	c #BDBDBD",
"& 	c #B7B7B7",
"* 	c #909090",
"= 	c #9B9B9B",
"- 	c #8C8C8C",
"; 	c #ABABAB",
"> 	c #BBBBBB",
", 	c #3B3B3B",
"' 	c #3D3D3D",
") 	c #414141",
"! 	c #424242",
"~ 	c #404040",
"{ 	c #444444",
"] 	c #3E3E3E",
"^ 	c #313131",
"/ 	c #2F2F2F",
"( 	c #393939",
"_ 	c #3F3F3F",
": 	c #000000",
"< 	c #010101",
"[ 	c #020202",
"} 	c #030303",
"| 	c #010102",
"1 	c #030103",
"2 	c #050304",
"3 	c #030403",
"4 	c #050101",
"5 	c #040302",
"6 	c #020101",
"7 	c #020302",
"8 	c #000003",
"9 	c #000101",
"0 	c #0A0102",
"a 	c #030402",
"b 	c #030002",
"c 	c #020203",
"d 	c #000102",
"e 	c #020102",
"f 	c #010300",
"g 	c #060101",
"h 	c #260001",
"i 	c #0D0302",
"j 	c #020005",
"k 	c #010501",
"l 	c #010203",
"m 	c #000001",
"n 	c #010301",
"o 	c #070104",
"p 	c #080300",
"q 	c #1E0109",
"r 	c #3D0102",
"s 	c #4B0104",
"t 	c #030101",
"u 	c #0E1C0C",
"v 	c #030702",
"w 	c #010001",
"x 	c #010000",
"y 	c #030001",
"z 	c #000100",
"A 	c #030000",
"B 	c #020000",
"C 	c #010200",
"D 	c #080103",
"E 	c #120500",
"F 	c #470108",
"G 	c #580704",
"H 	c #760305",
"I 	c #090301",
"J 	c #192B0E",
"K 	c #030603",
"L 	c #000301",
"M 	c #000200",
"N 	c #03050A",
"O 	c #540004",
"P 	c #6B0302",
"Q 	c #7B0402",
"R 	c #7D0C02",
"S 	c #5F0107",
"T 	c #202D0A",
"U 	c #050805",
"V 	c #040001",
"W 	c #000300",
"X 	c #130002",
"Y 	c #020100",
"Z 	c #1B0201",
"` 	c #860102",
" .	c #910202",
"..	c #8F0705",
"+.	c #721A05",
"@.	c #7E1213",
"#.	c #283606",
"$.	c #090F05",
"%.	c #010202",
"&.	c #050002",
"*.	c #210306",
"=.	c #060205",
"-.	c #180201",
";.	c #060404",
">.	c #320207",
",.	c #060202",
"'.	c #0D0103",
").	c #050103",
"!.	c #6E0203",
"~.	c #A50401",
"{.	c #A70004",
"].	c #850A0A",
"^.	c #572B0B",
"/.	c #5C2D18",
"(.	c #2C500E",
"_.	c #223815",
":.	c #0E1C0D",
"<.	c #0D240B",
"[.	c #020306",
"}.	c #030005",
"|.	c #080000",
"1.	c #600208",
"2.	c #070208",
"3.	c #600202",
"4.	c #320406",
"5.	c #680103",
"6.	c #050406",
"7.	c #270303",
"8.	c #280405",
"9.	c #070403",
"0.	c #910406",
"a.	c #A80101",
"b.	c #910404",
"c.	c #6C1F0F",
"d.	c #345410",
"e.	c #354A11",
"f.	c #1A6F13",
"g.	c #17690F",
"h.	c #1D6713",
"i.	c #0F9510",
"j.	c #072E08",
"k.	c #0A0309",
"l.	c #060302",
"m.	c #0F0000",
"n.	c #92020A",
"o.	c #180400",
"p.	c #980106",
"q.	c #6C1504",
"r.	c #8F0402",
"s.	c #150204",
"t.	c #750107",
"u.	c #500102",
"v.	c #500106",
"w.	c #9D0304",
"x.	c #9E070A",
"y.	c #831A13",
"z.	c #4C4512",
"A.	c #2D6D0B",
"B.	c #18770A",
"C.	c #0D820E",
"D.	c #0C9910",
"E.	c #099509",
"F.	c #06A103",
"G.	c #148112",
"H.	c #073207",
"I.	c #050604",
"J.	c #050408",
"K.	c #160100",
"L.	c #9C0303",
"M.	c #440401",
"N.	c #AB0103",
"O.	c #66320C",
"P.	c #8D0704",
"Q.	c #720202",
"R.	c #910409",
"S.	c #8F0205",
"T.	c #890506",
"U.	c #840E05",
"V.	c #62230B",
"W.	c #404712",
"X.	c #366113",
"Y.	c #296910",
"Z.	c #13830C",
"`.	c #1D8A10",
" +	c #10920D",
".+	c #0D980D",
"++	c #139E14",
"@+	c #1E920D",
"#+	c #218213",
"$+	c #286111",
"%+	c #0D1808",
"&+	c #090103",
"*+	c #120404",
"=+	c #070001",
"-+	c #250200",
";+	c #A00301",
">+	c #990202",
",+	c #AA0105",
"'+	c #4E440A",
")+	c #970B05",
"!+	c #980503",
"~+	c #9D0201",
"{+	c #980504",
"]+	c #83110B",
"^+	c #613E14",
"/+	c #3E5D11",
"(+	c #286215",
"_+	c #1B640B",
":+	c #157811",
"<+	c #13890D",
"[+	c #3C9212",
"}+	c #1C9509",
"|+	c #0D950B",
"1+	c #19980E",
"2+	c #4BAE10",
"3+	c #4C960E",
"4+	c #4B8D18",
"5+	c #528716",
"6+	c #2C3A0C",
"7+	c #0A0604",
"8+	c #020404",
"9+	c #030302",
"0+	c #020201",
"a+	c #260205",
"b+	c #140201",
"c+	c #360306",
"d+	c #030203",
"e+	c #2D0304",
"f+	c #9E0201",
"g+	c #A60201",
"h+	c #A10204",
"i+	c #455A10",
"j+	c #602E0C",
"k+	c #930402",
"l+	c #920605",
"m+	c #82140B",
"n+	c #702B11",
"o+	c #475111",
"p+	c #346511",
"q+	c #1E790F",
"r+	c #0F950D",
"s+	c #0D9D0B",
"t+	c #238B0C",
"u+	c #62A81B",
"v+	c #359610",
"w+	c #22A310",
"x+	c #4FAD17",
"y+	c #4E9D16",
"z+	c #5B9B15",
"A+	c #6B9A11",
"B+	c #799619",
"C+	c #8F9A15",
"D+	c #6A6916",
"E+	c #15140D",
"F+	c #040306",
"G+	c #020205",
"H+	c #570104",
"I+	c #260103",
"J+	c #510103",
"K+	c #030204",
"L+	c #2B0103",
"M+	c #9B0101",
"N+	c #9F0302",
"O+	c #8C0A05",
"P+	c #36670F",
"Q+	c #335E14",
"R+	c #513409",
"S+	c #582C10",
"T+	c #563C17",
"U+	c #3C5315",
"V+	c #306515",
"W+	c #297515",
"X+	c #1D9119",
"Y+	c #0B9711",
"Z+	c #0F950C",
"`+	c #4DA110",
" @	c #73B012",
".@	c #6CA819",
"+@	c #3B9417",
"@@	c #559B0D",
"#@	c #75AA15",
"$@	c #83A51B",
"%@	c #99AD17",
"&@	c #A4A41C",
"*@	c #9D9B17",
"=@	c #9E9E1B",
"-@	c #929420",
";@	c #3A3816",
">@	c #070703",
",@	c #740103",
"'@	c #3A0305",
")@	c #620405",
"!@	c #070105",
"~@	c #360203",
"{@	c #9F0202",
"]@	c #960202",
"^@	c #7A1C0C",
"/@	c #397015",
"(@	c #30660C",
"_@	c #2E6A13",
":@	c #20510F",
"<@	c #315717",
"[@	c #2F5E18",
"}@	c #206810",
"|@	c #1D7A12",
"1@	c #0C8F0E",
"2@	c #0C860A",
"3@	c #219B12",
"4@	c #58AB12",
"5@	c #68A216",
"6@	c #7A9A18",
"7@	c #629715",
"8@	c #649E19",
"9@	c #8DA71A",
"0@	c #A9AC1F",
"a@	c #B1B122",
"b@	c #B5B51C",
"c@	c #AEB21D",
"d@	c #9FA01E",
"e@	c #A09B2E",
"f@	c #93943D",
"g@	c #59583C",
"h@	c #141512",
"i@	c #010100",
"j@	c #880102",
"k@	c #7C0303",
"l@	c #8C0606",
"m@	c #160206",
"n@	c #600203",
"o@	c #A80403",
"p@	c #8E0A07",
"q@	c #5A3F15",
"r@	c #33680D",
"s@	c #396B12",
"t@	c #20710C",
"u@	c #128710",
"v@	c #127311",
"w@	c #157A1B",
"x@	c #109010",
"y@	c #088B0B",
"z@	c #1B8C0D",
"A@	c #2D7A13",
"B@	c #3EA011",
"C@	c #61B618",
"D@	c #7DB616",
"E@	c #9BB11E",
"F@	c #A0A922",
"G@	c #8E9A16",
"H@	c #A6AB1B",
"I@	c #A3A218",
"J@	c #A8A819",
"K@	c #A8A81B",
"L@	c #A6A722",
"M@	c #A2A339",
"N@	c #949451",
"O@	c #8C855E",
"P@	c #85816E",
"Q@	c #676665",
"R@	c #2B2B2B",
"S@	c #030305",
"T@	c #9C0102",
"U@	c #950101",
"V@	c #A50302",
"W@	c #78040A",
"X@	c #860201",
"Y@	c #8D0505",
"Z@	c #79230F",
"`@	c #395913",
" #	c #346C12",
".#	c #2A6815",
"+#	c #127609",
"@#	c #0C9C0A",
"##	c #0B9108",
"$#	c #118C0B",
"%#	c #0C9405",
"&#	c #139508",
"*#	c #34A713",
"=#	c #5EA712",
"-#	c #5FA515",
";#	c #56A615",
">#	c #8FBB1E",
",#	c #B0B819",
"'#	c #ABAA1B",
")#	c #A9A824",
"!#	c #9D9B14",
"~#	c #A1A519",
"{#	c #A2A61D",
"]#	c #9D9D2E",
"^#	c #99963E",
"/#	c #918F57",
"(#	c #88866E",
"_#	c #82817B",
":#	c #6E706E",
"<#	c #696C6D",
"[#	c #626262",
"}#	c #403E3C",
"|#	c #0C0908",
"1#	c #040101",
"2#	c #A10303",
"3#	c #990304",
"4#	c #A40303",
"5#	c #900307",
"6#	c #900A08",
"7#	c #662B12",
"8#	c #445615",
"9#	c #296C13",
"0#	c #236A14",
"a#	c #157D11",
"b#	c #0B9F10",
"c#	c #079E0B",
"d#	c #109612",
"e#	c #079309",
"f#	c #109509",
"g#	c #27951A",
"h#	c #43A211",
"i#	c #61B317",
"j#	c #80AD19",
"k#	c #6E961B",
"l#	c #99A419",
"m#	c #B9BB1A",
"n#	c #C0C11E",
"o#	c #B5AF1F",
"p#	c #A7A62D",
"q#	c #929631",
"r#	c #979A39",
"s#	c #959256",
"t#	c #8D8763",
"u#	c #858175",
"v#	c #7B7A7A",
"w#	c #6F7073",
"x#	c #6A6B6D",
"y#	c #626363",
"z#	c #575656",
"A#	c #494F54",
"B#	c #39444D",
"C#	c #111822",
"D#	c #020207",
"E#	c #AA0103",
"F#	c #A00406",
"G#	c #920A06",
"H#	c #68200E",
"I#	c #612515",
"J#	c #434F1A",
"K#	c #256B0F",
"L#	c #237E17",
"M#	c #108414",
"N#	c #118B0F",
"O#	c #10990F",
"P#	c #239012",
"Q#	c #2A800E",
"R#	c #2F8E13",
"S#	c #489A15",
"T#	c #4B9912",
"U#	c #57A011",
"V#	c #6DA615",
"W#	c #A0B11C",
"X#	c #A7AD1D",
"Y#	c #9E9B1A",
"Z#	c #A9A920",
"`#	c #B2B317",
" $	c #B9BA27",
".$	c #A4A643",
"+$	c #99965E",
"@$	c #7E7D58",
"#$	c #84856D",
"$$	c #797972",
"%$	c #727274",
"&$	c #707074",
"*$	c #6B6E6E",
"=$	c #555556",
"-$	c #494F55",
";$	c #364656",
">$	c #273F57",
",$	c #1C3657",
"'$	c #0E213D",
")$	c #03050D",
"!$	c #B31718",
"~$	c #92100A",
"{$	c #6F2516",
"]$	c #444F11",
"^$	c #305A12",
"/$	c #217417",
"($	c #198912",
"_$	c #128B10",
":$	c #0DA00F",
"<$	c #0DA00A",
"[$	c #2B920C",
"}$	c #5DA515",
"|$	c #669E13",
"1$	c #4B9D14",
"2$	c #59A419",
"3$	c #6AA31A",
"4$	c #709912",
"5$	c #8FA61C",
"6$	c #AAB01D",
"7$	c #B5B61B",
"8$	c #AFB11C",
"9$	c #9D9E1B",
"0$	c #9FA126",
"a$	c #A1A232",
"b$	c #A39E5B",
"c$	c #98937A",
"d$	c #888482",
"e$	c #70726E",
"f$	c #737172",
"g$	c #676666",
"h$	c #62625F",
"i$	c #5B5B58",
"j$	c #4D5156",
"k$	c #434D58",
"l$	c #324659",
"m$	c #243E5B",
"n$	c #183659",
"o$	c #13305A",
"p$	c #12325D",
"q$	c #546275",
"r$	c #442926",
"s$	c #82483E",
"t$	c #435D11",
"u$	c #36710B",
"v$	c #2A7E17",
"w$	c #0C9B12",
"x$	c #0DA70F",
"y$	c #08910A",
"z$	c #0C990B",
"A$	c #12AA0A",
"B$	c #4BA117",
"C$	c #64AA12",
"D$	c #7FAA1B",
"E$	c #669B15",
"F$	c #78A41A",
"G$	c #8DA419",
"H$	c #9CA11B",
"I$	c #A2A11C",
"J$	c #A9A71D",
"K$	c #A8A916",
"L$	c #ABAE1C",
"M$	c #A4A536",
"N$	c #8E8F43",
"O$	c #8B8854",
"P$	c #8D856B",
"Q$	c #888583",
"R$	c #818085",
"S$	c #747377",
"T$	c #5F5B5C",
"U$	c #585859",
"V$	c #535857",
"W$	c #454B50",
"X$	c #394958",
"Y$	c #29415B",
"Z$	c #19395C",
"`$	c #11355E",
" %	c #093160",
".%	c #143964",
"+%	c #415065",
"@%	c #413F46",
"#%	c #060204",
"$%	c #11160F",
"%%	c #556042",
"&%	c #417620",
"*%	c #1E8311",
"=%	c #0C9B07",
"-%	c #0AA607",
";%	c #10970D",
">%	c #1B790F",
",%	c #209D11",
"'%	c #53AD13",
")%	c #73BE1A",
"!%	c #97AB16",
"~%	c #9B9F21",
"{%	c #939812",
"]%	c #ADB021",
"^%	c #A5A519",
"/%	c #A2A11B",
"(%	c #A1A21B",
"_%	c #A1A224",
":%	c #9D9C37",
"<%	c #9E9C4D",
"[%	c #98916D",
"}%	c #878079",
"|%	c #727071",
"1%	c #6A6C6E",
"2%	c #6C6C6B",
"3%	c #6F6F6C",
"4%	c #626260",
"5%	c #515960",
"6%	c #364555",
"7%	c #2C4359",
"8%	c #203B58",
"9%	c #16375D",
"0%	c #0E315C",
"a%	c #0F315D",
"b%	c #2F4B70",
"c%	c #333C46",
"d%	c #050707",
"e%	c #050407",
"f%	c #080808",
"g%	c #050605",
"h%	c #0B0809",
"i%	c #384630",
"j%	c #318E33",
"k%	c #14A612",
"l%	c #0CA70A",
"m%	c #299D15",
"n%	c #43A115",
"o%	c #46950E",
"p%	c #4E9511",
"q%	c #78B014",
"r%	c #B4C11C",
"s%	c #BCB71D",
"t%	c #A9A51D",
"u%	c #A6A61A",
"v%	c #B0B31A",
"w%	c #A0A121",
"x%	c #9D9E2D",
"y%	c #919342",
"z%	c #8D8C55",
"A%	c #898369",
"B%	c #7E7E74",
"C%	c #7A7B77",
"D%	c #757576",
"E%	c #616365",
"F%	c #57585A",
"G%	c #555759",
"H%	c #535459",
"I%	c #3F4E60",
"J%	c #284565",
"K%	c #133961",
"L%	c #143159",
"M%	c #0C305E",
"N%	c #1C3D63",
"O%	c #394A60",
"P%	c #181D1B",
"Q%	c #0E0E0E",
"R%	c #0D0D0D",
"S%	c #383838",
"T%	c #3B3B3A",
"U%	c #080706",
"V%	c #050509",
"W%	c #191C17",
"X%	c #367435",
"Y%	c #34A621",
"Z%	c #51A515",
"`%	c #5CA513",
" &	c #65A114",
".&	c #739C18",
"+&	c #839717",
"@&	c #A9AE20",
"#&	c #C3C321",
"$&	c #B4B51A",
"%&	c #B7B636",
"&&	c #9F9F2C",
"*&	c #999840",
"=&	c #959354",
"-&	c #888162",
";&	c #847F6E",
">&	c #797A78",
",&	c #6D6E6F",
"'&	c #686868",
")&	c #666764",
"!&	c #5F5E5F",
"~&	c #52575D",
"{&	c #3E4953",
"]&	c #304254",
"^&	c #25405B",
"/&	c #183A60",
"(&	c #0B336C",
"_&	c #0D3363",
":&	c #324159",
"<&	c #2D3642",
"[&	c #090B09",
"}&	c #0B070C",
"|&	c #323232",
"1&	c #050505",
"2&	c #070707",
"3&	c #060405",
"4&	c #030902",
"5&	c #08060B",
"6&	c #374427",
"7&	c #71A835",
"8&	c #6AA616",
"9&	c #87A318",
"0&	c #9BA11B",
"a&	c #A2A41B",
"b&	c #A1A217",
"c&	c #B7BA25",
"d&	c #A9A937",
"e&	c #8E8952",
"f&	c #878266",
"g&	c #827F63",
"h&	c #85827A",
"i&	c #737270",
"j&	c #6C6E70",
"k&	c #68696A",
"l&	c #5E5E60",
"m&	c #545357",
"n&	c #4A4E56",
"o&	c #3B4B5C",
"p&	c #294561",
"q&	c #1C3A5E",
"r&	c #12325A",
"s&	c #10315E",
"t&	c #1C3B65",
"u&	c #3E4F66",
"v&	c #16181D",
"w&	c #030304",
"x&	c #050303",
"y&	c #060303",
"z&	c #040404",
"A&	c #010201",
"B&	c #0D090B",
"C&	c #211E22",
"D&	c #191B19",
"E&	c #020505",
"F&	c #19171D",
"G&	c #787E43",
"H&	c #A7AC28",
"I&	c #AFAE22",
"J&	c #ABAA19",
"K&	c #A6A71D",
"L&	c #969725",
"M&	c #90912F",
"N&	c #9D9954",
"O&	c #9F9B7D",
"P&	c #88857D",
"Q&	c #6F6D70",
"R&	c #67696B",
"S&	c #666966",
"T&	c #61635E",
"U&	c #5A5955",
"V&	c #4C4F54",
"W&	c #414A5A",
"X&	c #334559",
"Y&	c #264058",
"Z&	c #193A64",
"`&	c #0E3464",
" *	c #123266",
".*	c #314668",
"+*	c #313B45",
"@*	c #060505",
"#*	c #010105",
"$*	c #0C0C0C",
"%*	c #2D2D2D",
"&*	c #2C2C2C",
"**	c #0C0A0C",
"=*	c #4E4E2A",
"-*	c #A7AB3A",
";*	c #AFB324",
">*	c #9E9F30",
",*	c #999648",
"'*	c #928F59",
")*	c #807C62",
"!*	c #7F7F73",
"~*	c #80817D",
"{*	c #78777A",
"]*	c #5E5E5D",
"^*	c #545655",
"/*	c #505557",
"(*	c #484F53",
"_*	c #364552",
":*	c #29415A",
"<*	c #1A3856",
"[*	c #11325D",
"}*	c #0D305F",
"|*	c #1F3969",
"1*	c #364B61",
"2*	c #171D20",
"3*	c #020204",
"4*	c #030405",
"5*	c #030407",
"6*	c #1F1E19",
"7*	c #7C7C4B",
"8*	c #A2A55C",
"9*	c #948F64",
"0*	c #868073",
"a*	c #757478",
"b*	c #6B6C6E",
"c*	c #676768",
"d*	c #6B6B6D",
"e*	c #60615F",
"f*	c #4C5459",
"g*	c #344456",
"h*	c #2A4055",
"i*	c #223E59",
"j*	c #15375C",
"k*	c #0F2F58",
"l*	c #132E5F",
"m*	c #2F4968",
"n*	c #2E363D",
"o*	c #080B08",
"p*	c #050309",
"q*	c #272827",
"r*	c #38393B",
"s*	c #37373A",
"t*	c #040506",
"u*	c #070909",
"v*	c #45443B",
"w*	c #8C8B82",
"x*	c #7D7C7D",
"y*	c #777577",
"z*	c #6A696B",
"A*	c #606064",
"B*	c #545456",
"C*	c #494F4F",
"D*	c #3D4F5F",
"E*	c #254568",
"F*	c #16345A",
"G*	c #0D2C56",
"H*	c #0E3060",
"I*	c #1B3A6B",
"J*	c #3B4B5E",
"K*	c #1A181D",
"L*	c #060307",
"M*	c #060606",
"N*	c #141414",
"O*	c #666666",
"P*	c #727272",
"Q*	c #5E5D5C",
"R*	c #4C4F53",
"S*	c #424B57",
"T*	c #354257",
"U*	c #213856",
"V*	c #153964",
"W*	c #0B386C",
"X*	c #122F59",
"Y*	c #2A364B",
"Z*	c #0A0A0A",
"`*	c #1F1F1F",
" =	c #242424",
".=	c #3C3C3C",
"+=	c #252525",
"@=	c #656568",
"#=	c #3F4A5A",
"$=	c #274161",
"%=	c #1A3A5B",
"&=	c #0F335B",
"*=	c #0C2E5B",
"==	c #1D3B66",
"-=	c #384862",
";=	c #161814",
">=	c #262626",
",=	c #212121",
"'=	c #0B0B0B",
")=	c #101010",
"!=	c #232323",
"~=	c #303030",
"{=	c #181719",
"]=	c #48505D",
"^=	c #2C4563",
"/=	c #103360",
"(=	c #0D3061",
"_=	c #364768",
":=	c #2A3237",
"<=	c #07090D",
"[=	c #040406",
"}=	c #060709",
"|=	c #48515B",
"1=	c #667993",
"2=	c #3E5268",
"3=	c #15181B",
"4=	c #050203",
"5=	c #040405",
"6=	c #020501",
"7=	c #171717",
"8=	c #2E2E2E",
"9=	c #11161B",
"0=	c #1A1E22",
"a=	c #20201F",
"b=	c #1D1D1D",
"c=	c #1B1B1B",
"d=	c #1A1A1A",
"e=	c #050705",
"f=	c #262825",
"g=	c #2F2F30",
"h=	c #2C2C2D",
"i=	c #282828",
"j=	c #454545",
"k=	c #464646",
"l=	c #434343",
"m=	c #454446",
"n=	c #474649",
"o=	c #454646",
"p=	c #484848",
"q=	c #717171",
"r=	c #7A7A7A",
"s=	c #797979",
"t=	c #7B7B7B",
"u=	c #787878",
". + @ # @ # @ $ @ @ % % % # $ $ # @ & * = - * ; % % # # @ # $ % % # > % @ $ $ # ",
", ' ) ! ) ) ) ! ~ ~ ) ) ) ) ) ) ~ ~ { ] , ^ / ( ) ! ! ! _ ~ ) ) ) ) ~ ! ~ ~ _ _ ",
": < < < < : : < [ [ < : : : : : < } < [ } [ } [ } [ [ [ : : : : : : < < < < : < ",
": < : : : : < : : : : : : | [ 1 2 3 4 5 6 7 < < < < : : : : : : : : < : : : : : ",
": : : : : : : : : : : : : 8 9 | [ 0 a b [ c : : : : : : : : : : : : : : : : : : ",
": : : : : : : : : : : : : d e f g h i j k l m : : : : : : : : : : : : : : : : : ",
": : : : : : : : : : : : : n o p q r s t u v w : : : : : : : : : : : : : : : : : ",
": : : : x y x z A z B : : C D E F G H I J K 6 B B : : : : : : : : : : : : : : : ",
": : : : z L z : M A z : : A N O P Q R S T U B 6 < : : : : : : : : : : : : : : : ",
": : : : x V x t W X Y < < z Z `  ...+.@.#.$.5 %.< : : : : : : : : : : : : : : : ",
": : : : &.*.=.-.;.>.,.,.'.).!.~.{.].^./.(._.:.<.[.| z }.: : : : : : : : : : : : ",
": : : : |.1.2.3.4.5.6.7.8.9.0.a.b.c.d.e.f.g.h.i.j.k.l.v : : : : : : : : : : : : ",
": : : : m.n.o.p.q.r.s.t.u.v.w.x.y.z.A.B.C.D.E.F.G.H.I.J.: : : : : : : : : : : : ",
": : : : K.L.M.N.O.P.Q.R.S.T.U.V.W.X.Y.Z.`. +.+++@+#+$+%+: : : : : : : : : : : : ",
"&+t *+=+-+;+>+,+'+)+!+~+{+]+^+/+(+_+:+<+[+}+|+1+2+3+4+5+6+7+8+l 9+0+: : : : : : ",
"a+b+c+d+e+f+g+h+i+j+k+l+m+n+o+p+q+r+s+t+u+v+w+x+y+z+A+B+C+D+E+F+G+[ : : : : : : ",
"H+I+J+K+L+M+N+O+P+Q+R+S+T+U+V+W+X+Y+Z+`+ @.@+@@@#@$@%@&@*@=@-@;@>@< : : : : : : ",
",@'@)@!@~@{@]@^@/@(@_@:@<@[@}@|@1@2@3@4@5@6@7@8@9@0@a@b@c@d@e@f@g@h@: m m 9 : i@",
"j@k@l@m@n@o@p@q@r@s@t@u@v@w@x@y@z@A@B@C@D@E@F@G@H@I@J@K@L@M@N@O@P@Q@R@S@d+< 0+i@",
"T@U@V@W@X@Y@Z@`@ #.#+#@###$#%#&#*#=#-#;#>#,#'#)#!#~#{#]#^#/#(#_#:#<#[#}#|#1#[ | ",
"2#3#4#5#6#7#8#9#0#a#b#c#d#e#f#g#h#i#j#k#l#m#n#o#p#q#r#s#t#u#v#w#x#y#z#A#B#C#D#6 ",
"E#F#G#H#I#J#K#L#M#N#O#P#Q#R#S#T#U#V#W#X#Y#Z#`# $.$+$@$#$$$%$&$*$y#=$-$;$>$,$'$)$",
"!$~${$]$^$/$($_$:$<$[$}$|$1$2$3$4$5$6$7$8$9$0$a$b$c$d$e$f$g$h$i$j$k$l$m$n$o$p$q$",
"r$s$t$u$v$w$x$y$z$A$B$C$D$E$F$G$H$I$J$K$L$M$N$O$P$Q$R$S$T$U$V$W$X$Y$Z$`$ %.%+%@%",
"#%$%%%&%*%=%-%;%>%,%'%)%!%~%{%]%^%/%(%_%:%<%[%}%|%1%2%3%4%5%6%7%8%9%0%a%b%c%d%e%",
"f%g%h%i%j%k%l%m%n%o%p%q%r%s%t%u%v%w%x%y%z%A%B%C%D%E%F%G%H%I%J%K%L%M%N%O%P%Q%R%Q%",
"S%T%U%V%W%X%Y%Z%`% &.&+&@&#&$&%&&&*&=&-&;&>&,&'&)&!&~&{&]&^&/&(&_&:&<&[&}&|&( ' ",
"1&2&3&v 4&5&6&7&8&9&0&a&b&^%c&d&e&f&g&h&i&j&k&l&m&n&o&p&q&r&s&t&u&v&w&x&y&z&1&1&",
": A&n B&C&D&E&F&G&H&I&J&K&L&M&N&O&P&Q&R&S&T&U&V&W&X&Y&Z&`& *.*+*@*e | #*C < < } ",
": : } $*%*&*z&| **=*-*;*>*,*'*)*!*~*{*]*^*/*(*_*:*<*[*}*|*1*2*z&< < : : : : : : ",
": < z&< } } [ 3*4*5*6*7*8*9*0*a*b*c*d*e*f*g*h*i*j*k*l*m*n*o*p*[ [ < : : : : : : ",
": < } < < [ z&q*r*s*t*u*v*w*x*y*z*A*B*C*D*E*F*G*H*I*J*K*E&L*E&[ } < : : : : : : ",
"[ M*} [ < < [ z&z&z&[ } } N*O*P*Q*R*S*T*U*V*W*X*Y*r*z&[ : : : : : Z*`*Q%[ : : : ",
"[  =' ' .=+=< : : < [ R%Q%Q%2&{ @=#=$=%=&=*===-=;=0+[ : : : : : : 2&>=,=< : : : ",
"< 1&'=)='=Z*} : < : < !=/ ~=} M*{=]=^=/=(=_=:=<=[=[ < < : : : : : : } } [ : : : ",
"1&< < : < < : [ < : < < [ < [ [ 6 }=|=1=2=3=4=5=6=9 : < : : : : : : [ } [ : : < ",
"} [ < < < < < < < < < < < [ [ 7=R@8=R%9=0=a=`*b='=[ < < < < < < < < < < < < < < ",
"[ [ < < < < < < < < < < < [ < $*c=d=2&e=f=g=h=i=)=< < < < < < < < < < < < < < [ ",
"] j=k=k=k=k=k=k=k=k=k=k=k=k=l=k=k={ k=m=n=j=o=k=p=k=k=k=k=k=k=k=k=k=k=k=k=k=k=k=",
"q=r=r=r=r=r=r=s=r=r=s=r=r=s=t=r=r=r=r=r=r=r=u=r=u=r=r=r=r=r=r=r=r=r=r=r=r=r=s=s="};
