/* XPM */
static char *frbinmodule_xpm[] = {
/* width height num_colors chars_per_pixel */
"    40    40      256            2",
/* colors */
"`` c #dddddd",
"`. c #dedede",
"`# c #dfdfdf",
"`a c #e0e0e0",
"`b c #e1e1e1",
"`c c #e2e2e2",
"`d c #e3e3e3",
"`e c #e4e4e4",
"`f c #e5e5e5",
"`g c #e6e6e6",
"`h c #e7e7e7",
"`i c #e8e8e8",
"`j c #e9e9e9",
"`k c #eaeaea",
"`l c #6e6e6e",
"`m c #eeeeee",
"`n c #222222",
"`o c #bbbbbb",
"`p c #777777",
"`q c #4c4c4c",
"`r c #000000",
"`s c #3b3b3b",
"`t c #a5a5a5",
"`u c #1d1d1d",
"`v c #999999",
"`w c #909090",
"`x c #444444",
"`y c #3f3f3f",
"`z c #333333",
"`A c #555555",
"`B c #484848",
"`C c #aaaaaa",
"`D c #888888",
"`E c #666666",
"`F c #cccccc",
"`G c #5d5d5d",
"`H c #2e2e2e",
"`I c #373737",
"`J c #8c8c8c",
"`K c #111111",
"`L c #7f7f7f",
"`M c #ffffff",
"`N c #bfbfbf",
"`O c #f6f6f6",
"`P c #a1a1a1",
"`Q c #727272",
"`R c #2a2a2a",
"`S c #191919",
"`T c #040404",
"`U c #595959",
"`V c #c3c3c3",
"`W c #000000",
"`X c #000000",
"`Y c #000000",
"`Z c #000000",
"`0 c #000000",
"`1 c #000000",
"`2 c #000000",
"`3 c #000000",
"`4 c #000000",
"`5 c #000000",
"`6 c #000000",
"`7 c #000000",
"`8 c #000000",
".` c #000000",
".. c #000000",
".# c #000000",
".a c #000000",
".b c #000000",
".c c #000000",
".d c #000000",
".e c #000000",
".f c #000000",
".g c #000000",
".h c #000000",
".i c #000000",
".j c #000000",
".k c #000000",
".l c #000000",
".m c #000000",
".n c #000000",
".o c #000000",
".p c #000000",
".q c #000000",
".r c #000000",
".s c #000000",
".t c #000000",
".u c #000000",
".v c #000000",
".w c #000000",
".x c #000000",
".y c #000000",
".z c #000000",
".A c #000000",
".B c #000000",
".C c #000000",
".D c #000000",
".E c #000000",
".F c #000000",
".G c #000000",
".H c #000000",
".I c #000000",
".J c #000000",
".K c #000000",
".L c #000000",
".M c #000000",
".N c #000000",
".O c #000000",
".P c #000000",
".Q c #000000",
".R c #000000",
".S c #000000",
".T c #000000",
".U c #000000",
".V c #000000",
".W c #000000",
".X c #000000",
".Y c #000000",
".Z c #000000",
".0 c #000000",
".1 c #000000",
".2 c #000000",
".3 c #000000",
".4 c #000000",
".5 c #000000",
".6 c #000000",
".7 c #000000",
".8 c #000000",
"#` c #000000",
"#. c #000000",
"## c #000000",
"#a c #000000",
"#b c #000000",
"#c c #000000",
"#d c #000000",
"#e c #000000",
"#f c #000000",
"#g c #000000",
"#h c #000000",
"#i c #000000",
"#j c #000000",
"#k c #000000",
"#l c #000000",
"#m c #000000",
"#n c #000000",
"#o c #000000",
"#p c #000000",
"#q c #000000",
"#r c #000000",
"#s c #000000",
"#t c #000000",
"#u c #000000",
"#v c #000000",
"#w c #000000",
"#x c #000000",
"#y c #000000",
"#z c #000000",
"#A c #000000",
"#B c #000000",
"#C c #000000",
"#D c #000000",
"#E c #000000",
"#F c #000000",
"#G c #000000",
"#H c #000000",
"#I c #000000",
"#J c #000000",
"#K c #000000",
"#L c #000000",
"#M c #000000",
"#N c #000000",
"#O c #000000",
"#P c #000000",
"#Q c #000000",
"#R c #000000",
"#S c #000000",
"#T c #000000",
"#U c #000000",
"#V c #000000",
"#W c #000000",
"#X c #000000",
"#Y c #000000",
"#Z c #000000",
"#0 c #000000",
"#1 c #000000",
"#2 c #000000",
"#3 c #000000",
"#4 c #000000",
"#5 c #000000",
"#6 c #000000",
"#7 c #000000",
"#8 c #000000",
"a` c #000000",
"a. c #000000",
"a# c #000000",
"aa c #000000",
"ab c #000000",
"ac c #000000",
"ad c #000000",
"ae c #000000",
"af c #000000",
"ag c #000000",
"ah c #000000",
"ai c #000000",
"aj c #000000",
"ak c #000000",
"al c #000000",
"am c #000000",
"an c #000000",
"ao c #000000",
"ap c #000000",
"aq c #000000",
"ar c #000000",
"as c #000000",
"at c #000000",
"au c #000000",
"av c #000000",
"aw c #000000",
"ax c #000000",
"ay c #000000",
"az c #000000",
"aA c #000000",
"aB c #000000",
"aC c #000000",
"aD c #000000",
"aE c #000000",
"aF c #000000",
"aG c #000000",
"aH c #000000",
"aI c #000000",
"aJ c #000000",
"aK c #000000",
"aL c #000000",
"aM c #000000",
"aN c #000000",
"aO c #000000",
"aP c #000000",
"aQ c #000000",
"aR c #000000",
"aS c #000000",
"aT c #000000",
"aU c #000000",
"aV c #000000",
"aW c #000000",
"aX c #000000",
"aY c #000000",
"aZ c #000000",
"a0 c #000000",
"a1 c #000000",
"a2 c #000000",
"a3 c #000000",
"a4 c #000000",
"a5 c #000000",
"a6 c #000000",
"a7 c #000000",
"a8 c #000000",
/* pixels */
"```````.`.`.`#`#`#`a`a`a`b`b`b`c`c`c`d`d`d`e`e`e`f`f`f`g`g`g`h`h`h`i`i`i`j`j`j`k",
"```````.`.`.`#`#`#`a`a`a`b`b`b`c`c`c`d`d`d`e`e`e`f`f`f`g`g`g`h`h`h`i`i`i`j`j`j`k",
"```````.`.`.`#`#`#`a`a`a`b`b`b`c`c`c`d`d`d`e`e`e`f`f`f`g`g`g`h`h`h`i`i`i`j`j`j`k",
"```````.`.`.`#`#`#`a`a`a`b`b`b`c`c`c`d`d`d`e`e`e`f`f`f`g`g`g`h`h`h`i`i`i`j`j`j`k",
"```````.`.`.`#`#`#`a`a`a`b`b`b`c`c`c`d`d`d`e`e`e`f`f`f`g`g`g`h`h`h`i`i`i`j`j`j`k",
"```````.`.`.`#`#`#`a`a`a`b`b`b`c`c`c`d`d`d`e`e`e`f`f`f`g`g`g`h`h`h`i`i`i`j`j`j`k",
"```````.`.`.`#`#`#`a`a`a`b`b`b`c`c`c`d`d`d`e`e`e`f`f`f`g`g`g`h`h`h`i`i`i`j`j`j`k",
"```````.`.`.`#`#`#`a`a`a`b`````l`l`l`l`l`l`l`l`l`````f`g`g`g`h`h`h`i`i`i`j`j`j`k",
"```````.`.`.`#`m`````l`l`l`l`n`n`n`n`n`n`n`n`n`n`n`l`l`l`l`l`````h`i`i`i`j`j`j`k",
"```````.`.`.`o`l`n`n`n`n`n`n`n`n`n`n`n`n`n`n`n`n`n`n`n`n`n`n`n`n`o`o`i`i`j`j`j`k",
"```````.`.`o`n`n`n`n`n`n`n`n`n`n`p`p`p`p`p`p`p`p`n`n`n`n`n`n`n`n`n`n`o`i`j`j`j`k",
"```````o`o`n`n`n`n`n`n`n`n`q`p`p`r`r`r`r`r`r`r`r`p`p`n`n`n`n`n`n`n`n`n`o```j`j`k",
"```````o`n`n`n`n`n`n`n`n`p`s`r`r`p`p`p`p`p`p`p`p`r`r`p`p`n`n`n`n`n`n`n`n`o`j`j`k",
"`````t`n`n`n`n`n`n`n`q`s`r`u`s`v`w`q`x`y`s`z`A`q`q`s`r`r`s`q`n`n`n`n`n`n`B```j`k",
"`````l`n`n`n`n`n`n`n`p`r`r`s`o`r`C`D`v`x`r`p`r`E`x`r`p`r`r`p`n`n`n`n`n`n`n`o`j`k",
"`````l`n`n`n`n`n`n`n`p`r`r`C`r`F`r`o`v`q`D`r`p`r`A`x`p`r`r`p`n`n`n`n`n`n`n`o`j`k",
"`````l`n`n`n`n`n`n`n`n`p`r`s`F`r`o`r`C`D`r`D`r`p`z`p`r`r`p`n`n`n`n`n`n`n`n`o`j`k",
"`````G`n`n`n`n`n`n`n`n`n`p`s`p`p`r`F`r`C`v`r`D`r`p`E`p`p`n`n`n`n`n`n`n`n`l`r`j`k",
"`````H`o`l`n`n`n`n`n`n`n`n`I`q`q`p`p`p`p`p`p`p`p`q`q`n`n`n`n`n`n`n`n`n`l`J`r`p`k",
"`````r`K`n`o`n`n`n`n`n`n`n`n`n`n`n`n`n`n`n`n`n`n`n`n`n`n`n`n`n`n`n`n`o`r`r`r`p`p",
"`````L`K`K`z`o`l`n`n`n`n`n`n`n`n`n`n`n`n`n`n`n`n`n`n`n`n`n`n`n`n`o`o`r`r`r`p`p`p",
"`````L`r`K`n`x`L`o`o`n`n`n`n`n`n`n`n`n`n`n`n`n`n`n`n`n`n`n`n`o`o`r`r`r`r`r`p`p`p",
"`````L`r`r`n`n`A```M`o`o`o`o`n`n`n`n`n`n`n`n`n`n`n`o`o`o`o`o`K`K`r`r`r`r`r`p`p`p",
"`````N`r`r`r`r`u`p`f`M`M`O`F`o`o`C`P`v`J`L`L`L`L`Q`R`n`n`S`K`T`r`r`r`r`r`U`p`p`k",
"```````r`r`r`r`n`r`r`r`M```V`o`v`v`E`E`A`x`x`z`z`n`K`n`K`r`r`r`r`r`r`p`p`p`p`j`k",
"```````.`r`r`r`r`x`o`M`r`r`r`C`v`D`E`A`x`x`z`z`n`S`r`r`r`r`K`r`r`p`p`p`p`p`j`j`k",
"```````.`r`r`r`r`r`p`m`M`M`F`r`r`r`r`r`r`r`r`r`r`r`K`K`K`r`r`s`p`p`p`p`p`o`j`j`k",
"```````.`.`r`r`r`r`p`p`p`p```o`v`D`p`E`x`x`z`z`n`S`K`r`r`p`p`p`p`p`p`p`i`j`j`j`k",
"```````.`.`L`r`r`r`r`L`o`o`p`p`p`p`G`G`A`q`q`x`s`p`p`p`p`p`p`p`o`o`i`i`i`j`j`j`k",
"```````.`.`.`#`r`r`r`r`r`b`b`b`c`c`p`p`p`p`p`p`p`p`p`p`g`g`g`h`h`h`i`i`i`j`j`j`k",
"```````.`.`.`#`L`r`r`r`r`r`r`b`c`c`c`d`d`d`e`e`e`f`f`f`g`g`g`h`h`h`i`i`i`j`j`j`k",
"```````.`.`.`#`o`r`r`r`r`r`r`r`r`c`c`d`d`d`e`e`e`f`f`f`g`g`g`h`h`h`i`i`i`j`j`j`k",
"```````.`.`.`#`#`p`r`r`r`r`r`r`r`c`c`d`d`d`e`e`e`f`f`f`g`g`g`h`h`h`i`i`i`j`j`j`k",
"```````.`.`.`#`#`#`o`o`s`r`r`r`r`c`c`d`d`d`e`e`e`f`f`f`g`g`g`h`h`h`i`i`i`j`j`j`k",
"```````.`.`.`#`#`#`a`a`a`b`p`p`p`p`c`d`d`d`e`e`e`f`f`f`g`g`g`h`h`h`i`i`i`j`j`j`k",
"```````.`.`.`#`#`#`a`a`a`b`b`b`p`p`p`p`d`d`e`e`e`f`f`f`g`g`g`h`h`h`i`i`i`j`j`j`k",
"```````.`.`.`#`#`#`a`a`a`b`b`b`c`c`c`d`o`d`e`e`e`f`f`f`g`g`g`h`h`h`i`i`i`j`j`j`k",
"```````.`.`.`#`#`#`a`a`a`b`b`b`c`c`c`d`d`d`e`e`e`f`f`f`g`g`g`h`h`h`i`i`i`j`j`j`k",
"```````.`.`.`#`#`#`a`a`a`b`b`b`c`c`c`d`d`d`e`e`e`f`f`f`g`g`g`h`h`h`i`i`i`j`j`j`k",
"```````.`.`.`#`#`#`a`a`a`b`b`b`c`c`c`d`d`d`e`e`e`f`f`f`g`g`g`h`h`h`i`i`i`j`j`j`k"
};
