/* XPM */
static char *rotozoommodule_xpm[] = {
/* width height num_colors chars_per_pixel */
"    40    40      256            2",
/* colors */
"`` c #000000",
"`. c #000080",
"`# c #008000",
"`a c #008080",
"`b c #800000",
"`c c #800080",
"`d c #808000",
"`e c #c0c0c0",
"`f c #c0dcc0",
"`g c #f0caa6",
"`h c #040404",
"`i c #080808",
"`j c #0c0c0c",
"`k c #111111",
"`l c #161616",
"`m c #1c1c1c",
"`n c #222222",
"`o c #292929",
"`p c #555555",
"`q c #4d4d4d",
"`r c #424242",
"`s c #393939",
"`t c #818181",
"`u c #000081",
"`v c #008100",
"`w c #008181",
"`x c #810000",
"`y c #810081",
"`z c #818100",
"`A c #000033",
"`B c #000066",
"`C c #000099",
"`D c #0000cc",
"`E c #003300",
"`F c #003333",
"`G c #003366",
"`H c #003399",
"`I c #0033cc",
"`J c #0033ff",
"`K c #006600",
"`L c #006633",
"`M c #006666",
"`N c #006699",
"`O c #0066cc",
"`P c #0066ff",
"`Q c #009900",
"`R c #009933",
"`S c #009966",
"`T c #009999",
"`U c #0099cc",
"`V c #0099ff",
"`W c #00cc00",
"`X c #00cc33",
"`Y c #00cc66",
"`Z c #00cc99",
"`0 c #00cccc",
"`1 c #00ccff",
"`2 c #00ff66",
"`3 c #00ff99",
"`4 c #00ffcc",
"`5 c #330000",
"`6 c #330033",
"`7 c #330066",
"`8 c #330099",
".` c #3300cc",
".. c #3300ff",
".# c #333300",
".a c #333333",
".b c #333366",
".c c #333399",
".d c #3333cc",
".e c #3333ff",
".f c #336600",
".g c #336633",
".h c #336666",
".i c #336699",
".j c #3366cc",
".k c #3366ff",
".l c #339900",
".m c #339933",
".n c #339966",
".o c #339999",
".p c #3399cc",
".q c #3399ff",
".r c #33cc00",
".s c #33cc33",
".t c #33cc66",
".u c #33cc99",
".v c #33cccc",
".w c #33ccff",
".x c #33ff33",
".y c #33ff66",
".z c #33ff99",
".A c #33ffcc",
".B c #33ffff",
".C c #660000",
".D c #660033",
".E c #660066",
".F c #660099",
".G c #6600cc",
".H c #6600ff",
".I c #663300",
".J c #663333",
".K c #663366",
".L c #663399",
".M c #6633cc",
".N c #6633ff",
".O c #666600",
".P c #666633",
".Q c #666666",
".R c #666699",
".S c #6666cc",
".T c #669900",
".U c #669933",
".V c #669966",
".W c #669999",
".X c #6699cc",
".Y c #6699ff",
".Z c #66cc00",
".0 c #66cc33",
".1 c #66cc99",
".2 c #66cccc",
".3 c #66ccff",
".4 c #66ff00",
".5 c #66ff33",
".6 c #66ff99",
".7 c #66ffcc",
".8 c #cc00ff",
"#` c #ff00cc",
"#. c #999900",
"## c #993399",
"#a c #990099",
"#b c #9900cc",
"#c c #990000",
"#d c #993333",
"#e c #990066",
"#f c #9933cc",
"#g c #9900ff",
"#h c #996600",
"#i c #996633",
"#j c #993366",
"#k c #996699",
"#l c #9966cc",
"#m c #9933ff",
"#n c #999933",
"#o c #999966",
"#p c #999999",
"#q c #9999cc",
"#r c #9999ff",
"#s c #99cc00",
"#t c #99cc33",
"#u c #66cc66",
"#v c #99cc99",
"#w c #99cccc",
"#x c #99ccff",
"#y c #99ff00",
"#z c #99ff33",
"#A c #99cc66",
"#B c #99ff99",
"#C c #99ffcc",
"#D c #99ffff",
"#E c #cc0000",
"#F c #990033",
"#G c #cc0066",
"#H c #cc0099",
"#I c #cc00cc",
"#J c #993300",
"#K c #cc3333",
"#L c #cc3366",
"#M c #cc3399",
"#N c #cc33cc",
"#O c #cc33ff",
"#P c #cc6600",
"#Q c #cc6633",
"#R c #996666",
"#S c #cc6699",
"#T c #cc66cc",
"#U c #9966ff",
"#V c #cc9900",
"#W c #cc9933",
"#X c #cc9966",
"#Y c #cc9999",
"#Z c #cc99cc",
"#0 c #cc99ff",
"#1 c #cccc00",
"#2 c #cccc33",
"#3 c #cccc66",
"#4 c #cccc99",
"#5 c #cccccc",
"#6 c #ccccff",
"#7 c #ccff00",
"#8 c #ccff33",
"a` c #99ff66",
"a. c #ccff99",
"a# c #ccffcc",
"aa c #ccffff",
"ab c #cc0033",
"ac c #ff0066",
"ad c #ff0099",
"ae c #cc3300",
"af c #ff3333",
"ag c #ff3366",
"ah c #ff3399",
"ai c #ff33cc",
"aj c #ff33ff",
"ak c #ff6600",
"al c #ff6633",
"am c #cc6666",
"an c #ff6699",
"ao c #ff66cc",
"ap c #cc66ff",
"aq c #ff9900",
"ar c #ff9933",
"as c #ff9966",
"at c #ff9999",
"au c #ff99cc",
"av c #ff99ff",
"aw c #ffcc00",
"ax c #ffcc33",
"ay c #ffcc66",
"az c #ffcc99",
"aA c #ffcccc",
"aB c #ffccff",
"aC c #ffff33",
"aD c #ccff66",
"aE c #ffff99",
"aF c #ffffcc",
"aG c #6666ff",
"aH c #66ff66",
"aI c #66ffff",
"aJ c #ff6666",
"aK c #ff66ff",
"aL c #ffff66",
"aM c #c1c1c1",
"aN c #5f5f5f",
"aO c #777777",
"aP c #868686",
"aQ c #969696",
"aR c #cbcbcb",
"aS c #b2b2b2",
"aT c #d7d7d7",
"aU c #dddddd",
"aV c #e3e3e3",
"aW c #eaeaea",
"aX c #f1f1f1",
"aY c #f8f8f8",
"aZ c #f0fbff",
"a0 c #a4a0a0",
"a1 c #808080",
"a2 c #0000ff",
"a3 c #00ff00",
"a4 c #00ffff",
"a5 c #ff0000",
"a6 c #ff00ff",
"a7 c #ffff00",
"a8 c #ffffff",
/* pixels */
"```h`j`k`m````````````````````````````a8a8``````````````````````````````````````",
"```h`k`l`m``````````````````````````a8.X.Xa8````````````````````````````````````",
"```h`k`k`l````````````````````````a8.X.X.X.XaY``````````````````````````````````",
"```h`k``````````````````````````a8.X.X.X.R.X.XaY````````````````````````````````",
"```h``````````````````````````a8#q.X.X.X.X.X.S.XaY``````````````````````````````",
"```h````````````````````````a8.R.X#q.X.X.X.X.X.R.XaY`r````.a````````````````````",
"```````````````````m`l`l`ma8`n.b.i#q.X#q.X.X.R.X.h.ba8`s```h````````````````````",
"```h`j`````m```l`l`m`A`ma8`m`A.a.b.2#q.X.X.X.R.h.b`s`qa8.b``````````````````````",
"```h``````a8a8a8a8a8a8a8a8a8a8a8a8a8a8a8a8a8a8a8a8a8a8a8a8aZa8a8a8a8````````````",
"```h`````la8`l`m`o`ma8`o`s`q`s.a`o.h.X.X.W`q.a`n.a`s.a.a`qaZ`n`s`Fa8````````````",
"```h`k`l`la8`l`n`oa8`n.a.Ja8a8a8#R.R.X.S.R`o`m`F.a.a`F`o`F`sa8.a`ma8````````````",
"```h`k`k`ka8`l`ra8.K#R#o#XaZatataYaYa8.h.a`m`A`m`n`n`m`n`o`o.gaY`oa8````````````",
"```h`k`k`laZ`na8am#Yazata8azazaz#X`r.aa8a8a8`n`m`m`A`n`m`F`o`r`maZa8````````````",
"```h`k`k`ka8a8#k#X#X#YazaYazatas#Y`o`o`l`m`ra8a8a8a8`m`m`A.a`s`F.aa8````````````",
"```h`k`l`laZ`m#R#Ram#Yasa8at#4atas`m`l`6aN#Ram#Yam#Sa8a8a8`l`n`m`ma8a8`l````````",
"```h`k`kaZa8`m#R#R#X#Xa8atazasat#X`l`m.J.Jam#X#Yat#X#R.J`sa8a8a8`ma8`la8````````",
"```h`ka8`la8`paN#R#R#ja8am#Yam`q.J`m`6.JaNam#Yat#Xat#Ram.J`n`na8`Fa8`n`laZ`h````",
"```ha8.J`qa8`p.J.J`oa8`s#R#Xam#Ram.J.J.P#R#i#Ratatat#R#R#i`l`ma8`ma8`s`o.ga8````",
"``a8#i.K.Ja8`p#d#R#ia8am#i#Yasas#X#i#R.J.J#R#R#Xam#R#Ram.P`la8`m`maZaN.g`p`qa8`h",
"a8#i.J#i.Ja8.J#R#X#Sa8asamamat#Satamam#R#R#R#Ras#R#R#X#i`p`la8`o`saZ.g`q`q`q`qa8",
"a8.J#iaN.Ja8.JaN#Ra8asam#R#Ratas#d#Ramatat#iam#S#X#R#damaN`la8`o`sa8`s.g`q.h.ga8",
"`ha8#i#d`sa8.a.J.Pa8#R#R.K.Jamam#R#i#Xasam#R#YaJatat#X#X.Ja8`n`n`Fa8.a.a.g`qa8`h",
"```ha8#i.aa8.C`p.Ja8#d#R#R#R#Xam.J#Ram#R#R.J#damamazatam`pa8`n`o`oa8.g`o`qa8````",
"```i`jaZ.Ja8`o.Ja8#R#i.J#R#X`gam.J#iam#d#jamas#Xamam#X#RamaY`s`n`na8`n`oa8```h``",
"```i`j``a8a8.J`oa8a8#R#R#Yatasam.J#R#X#R#i#SamamamamamamaY`n`o.a`Fa8`ma8````````",
"```h``````a8#i#R.J.Ja8aYa8am#Y#R`n.J.Kamamat#X#Xamam`s`oa8`o.g`l`ma8a8``````````",
"```h``````a8a8#R#i#R#R#R#Ra8aYa8`5`n.J#R#X#Yasan#Xam.#a8`o`o`o`m`na8````````````",
"```h``````a8#Ra8#R#R#R#R#R#R#R#Ra8a8a8#R#Ram#R#i#d#RaNa8`s`s`s.Ja8a8````````````",
"```h``````a8am#Xa8amam#Xamamamamam#Xama8aYa8am#R#R#Raga8.J.J.PaY`pa8````````````",
"```h``````a8#Y#X#Sa8#X#S#X#o#X#Xam#Xam#X#Xama8a8a8#Ra8#MaN.JaZ`q.Qa8````````````",
"```h`````ha8#X#Y#X#YaY#Xamam#S#X#S#X#Y#X#S#X#X#Y#Xa8a8amaha8.PaN#Ra8````````````",
"```h``````a8#Ramam#Xama8#X#Y#X#X#Xam#Xamam#Xamamam#Xamama8ah#R#5`ea8````````````",
"```h`k````a8a8a8a8a8a8a8a8a8a8a8a8a8a8a8a8a8a8a8a8a8a8a8a8aYa8a8a8a8````````````",
"```h`k`````h```````h`h`h`ha8amamamamamam#Xamam#Xam#Xa8`i````````````````````````",
"```h`k``````````````````````aY#i#i#i#Ram#iam#Xam#Xa8`h``````````````````````````",
"```h``````````````````````````a8.J.J#i#i#i#Ram#Xa8`h````````````````````````````",
"````````````````````````````````a8`o`k`l#d.J#iaY`````````````h``````````````````",
"``````````````````````````````````a8`5`l`l.Ja8``````````````````````````````````",
"````````````````````````````````````a8`l`la8`h``````````````````````````````````",
"```h`j`k``````````````````````````````a8a8`h````````````````````````````````````"
};
