/* XPM */
static char *planemodule_xpm[] = {
/* width height num_colors chars_per_pixel */
"    40    40        8            1",
/* colors */
"` c #041023",
". c #0481db",
"# c #044a8e",
"a c #04baf4",
"b c #04a0e9",
"c c #042f5f",
"d c #0466c0",
"e c #04d9fc",
/* pixels */
"d#ccd..cc#b#cc..c`..#c.dcc.dccd.#c#d.dcc",
"..dccd.d#c#b#c#.#cd.##.#c#.#c#.#c#..#ccd",
"#d.d#c#d.#cd.c#.dcdb#d.dcddc#.dc#ddcc#.d",
"cc#d.dccd.#cd.c#dcc.#c.cc.c#.dc#.#ccd.d#",
".dcc#d.#c#d##d#cd##.d#.##dcddc#.#cd.d#c#",
"#d.d#c#ddc#d##d##dcd##dcdc#d##d#cdd#c#dd",
"#c##dd#cdd#cd##d#dcd#cdcd#.##.c#.#c#dd##",
"d.####.dc#.##d#ddd##d##dddd#dcd.#c.d#c##",
"#d#dd#cd.#c.d#dc##d#..ddcdc##d.c#.#cddd#",
"dc##cd.#cd.c##ddd##cd#c###dd###..c#.#cdd",
"#dddddc#.#cdddcdcdd#dd#.dc##dddcd.#cddd#",
".ccd##d.cc.d#cdddd#c####d.d#c#ddcc.d##dc",
"dd..dd.c#.#cc.d##cc####cc##.dc#d.#c.#d.b",
"cddc#.dd.d##.dccc#db....##cc.d#c.ddd.#c#",
"d.##.dcc.d#ddccd...dddd...#cc.d##.c#.d##",
".dcc.#`d.#c.dc#..##cc`c##..#cdd##.#c#dcc",
"bd#d.##d.cc.cc..#cccccccc#.dc#dc#.##d.d#",
"b#`c.#`#dcc.##.#cccc#c#cccddcddccdc`#bc`",
"bd#d.d##.dc#dcd#ccdd..ddc##dc.cc.d##..##",
"adc`#bcc#bd#dd#dcd.aaaa.#cdcdd#..#cc.#`c",
".dc`#b.#c#.ccdd##dab..bad##dd##.###.b#``",
"da.d##.#c#d.#c#d#dddddddddd#cd.d#cd.##dd",
"...c`c#b.#`cd.dcddc.##.c##cd.dc`#.b#`cc.",
"`#.d#dd#d.#ddcc.dddbdd.dd..ccddd.d#dd#..",
"`cdab#c`cdb.#c#dccd.c`.#ccd#cd.bd``c#aa.",
"#ddd..ccdd#c#.ad#c.dccd.c#.b.#cc.dc#..#.",
".#``cdbb.c``#.dc#.a.d#.b.#cd.c``#.bbdc``",
"dc```dbbbd##d.```#.#``#.#``cdd##dbbb#```",
".#c`#.dc#d.bad#`c..c``#bdc`#.ab.dccd.#``",
".b..b#```cdbb....ab..d.bb..d.bb#````db..",
"#.ee.#```cd.c`c#dbbddddbbdcc`#..c```#.ee",
"#bbbb.#ccdb#````#b#c``c#b#````#b#c##.bbb",
"b.#c#.bb.ab#````db#````#bd````#bab.b.#c#",
".#```c#.eea.##cd.b#c```db.##cd.aea.#````",
"c`````cda.d.b.baea.ddd..aebb.bdd.adc````",
"c`````#b.#ccc#dbeb......ae.d#ccc#.b#````",
"d#c``#.bd`````cda.#cccc#.adc`````da.c```",
"abd##da.c`````c.bd``````dadc`````c.add#d",
"d.bbbebdc`````#bb#``````db.#`````cdaabba",
"#d.aeead#`````#b.#``````#bb#````c#daeea."
};
