/* XPM */
static char *colorcyclermodule_xpm[] = {
/* width height num_colors chars_per_pixel */
"    40    40      256            2",
/* colors */
"`` c #64363c",
"`. c #238486",
"`# c #a4868c",
"`a c #a42020",
"`b c #08c5c9",
"`c c #ca4240",
"`d c #40c4c4",
"`e c #d01112",
"`f c #44595c",
"`g c #79b5b4",
"`h c #3e8586",
"`i c #0be3e4",
"`j c #b46264",
"`k c #12a4a9",
"`l c #d02425",
"`m c #b28482",
"`n c #3cdfdf",
"`o c #4c5457",
"`p c #5c4144",
"`q c #28c4c4",
"`r c #dc4542",
"`s c #982d2f",
"`t c #24a4a6",
"`u c #6ccccc",
"`v c #ef2421",
"`w c #27e5e5",
"`x c #ce6461",
"`y c #08d5d8",
"`z c #149699",
"`A c #b09896",
"`B c #744246",
"`C c #91b4b2",
"`D c #346f73",
"`E c #54e1e0",
"`F c #57c7c7",
"`G c #e25554",
"`H c #81aaa9",
"`I c #0cb3b7",
"`J c #cf3432",
"`K c #4c6c6e",
"`L c #b92c2e",
"`M c #b8181c",
"`N c #f40504",
"`O c #0cf2f4",
"`P c #653c3d",
"`Q c #d27471",
"`R c #c05454",
"`S c #c48684",
"`T c #28b4b7",
"`U c #309595",
"`V c #94a1a1",
"`W c #28eff0",
"`X c #19d5d8",
"`Y c #7c2627",
"`Z c #17c3c5",
"`0 c #3ceae8",
"`1 c #645457",
"`2 c #f7342d",
"`3 c #437174",
"`4 c #71c0c1",
"`5 c #14e3e6",
"`6 c #b07878",
"`7 c #fa1510",
"`8 c #2c8282",
".` c #5bd5d3",
".. c #98adaa",
".# c #28d5d6",
".a c #f14441",
".b c #3ca2a4",
".c c #526162",
".d c #963736",
".e c #6dd7d4",
".f c #aca4a3",
".g c #19b3b7",
".h c #b92426",
".i c #e12727",
".j c #b1918d",
".k c #e26460",
".l c #764747",
".m c #8fbfbc",
".n c #df352f",
".o c #4c4e54",
".p c #7dcbca",
".q c #159c9f",
".r c #8a3032",
".s c #f04c47",
".t c #41d2d1",
".u c #346a6c",
".v c #11adb2",
".w c #a62b2b",
".x c #247e84",
".y c #54e7e9",
".z c #e15d58",
".A c #82c0bf",
".B c #14eced",
".C c #208c8f",
".D c #c94c4b",
".E c #4ce3e2",
".F c #0adcde",
".G c #bc9792",
".H c #9eb2ae",
".I c #d15451",
".J c #2abdbe",
".K c #34f1f0",
".L c #c07472",
".M c #08cccf",
".N c #28acac",
".O c #f52c26",
".P c #843b3e",
".Q c #c43737",
".R c #6a4c4e",
".S c #ac1f21",
".T c #cc2d2b",
".U c #34e9e9",
".V c #64dfdc",
".W c #0bbcc0",
".X c #cc3d3f",
".Y c #f80c06",
".Z c #ce7c7a",
".0 c #a4a4a3",
".1 c #18ddde",
".2 c #14cbca",
".3 c #f33c37",
".4 c #fa1c17",
".5 c #64d7d6",
".6 c #27dcdd",
".7 c #dd6b68",
".8 c #c07c78",
"#` c #43e6e5",
"#. c #40b4b8",
"## c #64b6bc",
"#a c #3c989c",
"#b c #9c9294",
"#c c #4c7a84",
"#d c #3c7c84",
"#e c #40ced0",
"#f c #b46e74",
"#g c #28ccd0",
"#h c #d41a14",
"#i c #3cbebc",
"#j c #328d8f",
"#k c #742f2f",
"#l c #84b5b1",
"#m c #bc827c",
"#n c #64c7c9",
"#o c #8c221c",
"#p c #4ceae7",
"#q c #5c605f",
"#r c #4cd5d8",
"#s c #446365",
"#t c #a49492",
"#u c #0beced",
"#v c #e04c48",
"#w c #cc6c68",
"#x c #c48b89",
"#y c #2f9da1",
"#z c #1abdc2",
"#A c #dc3c38",
"#B c #ce5b5a",
"#C c #5c595c",
"#D c #8ca2a4",
"#E c #c42d2f",
"#F c #c41b1e",
"#G c #1cf6f8",
"#H c #3c8e8c",
"#I c #c05c58",
"#J c #34a3a4",
"#K c #249294",
"#L c #a4acac",
"#M c #a4362c",
"#N c #bc908c",
"#O c #5c4a48",
"#P c #347e7c",
"#Q c #c46c6a",
"#R c #d44544",
"#S c #dc0e0c",
"#T c #1ca6a4",
"#U c #fc241f",
"#V c #ec5350",
"#W c #dc7674",
"#X c #34b6b4",
"#Y c #34d6dc",
"#Z c #c42424",
"#0 c #249e9f",
"#1 c #1caaac",
"#2 c #ec5a57",
"#3 c #d44b4a",
"#4 c #fc3a34",
"#5 c #34dedc",
"#6 c #34cccc",
"#7 c #4cc6c4",
"#8 c #c46564",
"a` c #34aaac",
"a. c #4cbdbc",
"a# c #a12627",
"aa c #b18a87",
"ab c #72d2d2",
"ac c #90bab7",
"ad c #2e767b",
"ae c #57ced1",
"af c #4c7274",
"ag c #94a6ac",
"ah c #24f6f8",
"ai c #7c2a27",
"aj c #3cf2ec",
"ak c #5adada",
"al c #536667",
"am c #8a3637",
"an c #44dadc",
"ao c #ac3230",
"ap c #7cbabc",
"aq c #4c5a5c",
"ar c #943234",
"as c #29eaec",
"at c #b09e9b",
"au c #bc3234",
"av c #6c4244",
"aw c #70c6c4",
"ax c #7fc6c4",
"ay c #949a9c",
"az c #445e61",
"aA c #5c4648",
"aB c #b81e1c",
"aC c #447674",
"aD c #ac2627",
"aE c #5cbebc",
"aF c #84bab7",
"aG c #bc8a8c",
"aH c #64ced4",
"aI c #a49a9c",
"aJ c #6c3434",
"aK c #44e1e1",
"aL c #2ca6ac",
"aM c #74cdcb",
"aN c #1c9396",
"aO c #7c4040",
"aP c #5ce0dd",
"aQ c #546e74",
"aR c #cc8481",
"aS c #9ca1a0",
"aT c #84221e",
"aU c #44ecea",
"aV c #6c5254",
"aW c #1ce3e4",
"aX c #b4a29c",
"aY c #544c4e",
"aZ c #3c686c",
"a0 c #2c7d7f",
"a1 c #1cecee",
"a2 c #8c3e3c",
"a3 c #d42c30",
"a4 c #d43d3b",
"a5 c #1ccbcd",
"a6 c #447d81",
"a7 c #bc6a64",
"a8 c #3caaac",
/* pixels */
"`i`X`b#T#P`o.r.S#h`r.Z`C`E`w`Z#j.R`a#S`v.a#w.G.Hab.V.y.y.y.Vabac`A.L#v.i#F`aav#O",
"aW.1a5.g`U`Kav`a#Z#A#w...``wa5`U#O`a#S.i.3`Qat.m.e.yaUaUaU.EaP.p..aa#8a4.T.Sam.l",
"aU.Uas`5`Z#TaZ.l`a`l#v#maxaK`X`taqa#`e.i#vaR#Lab#p.K#G#G#G#G`W`0akaFat.L`r`l.h.S",
"ab.5#pasaW.2#0al.P#F.n`xag#r.6.Nal.r`e.i`G#x.m.V.K#G`O`O#u`i#ua1.U.Eaw.0.L#v.i#h",
"#L`C.p.E.UaW`Z#j#O.w#h#3.jaM#5.JaC.r`e.i`G`Aax#pah`O`i.F.M`y`y.F`5`W.EaM.0`Q#R.n",
"`S#N#Lax`Eas.1.NaCam#F.n.L`CaK`q`h.P`e.i.z`AaMaja1`i.M.W`I.v`I.W`y`5as#`aM.0#w.z",
".z.7`S.0aM.Easa5#j.R.S`l#BaIae#g#H`B`M.i.z`Aab.U.B.F.W`k`z.CaN.q`I.M`i`W#`aMaI#m",
".3.a.k`S..aM#`.6.N`K`s`l#R.jaw#6#a.R`M.i.Iat.5.U`5`b`k.Cad`D.uad.C.v.M.1as.E.A.H",
"#U.O.3.z#m`C.e#5`q`8`B.S`J.L`g#e.b#C`a`l`GaIabas.1.W.qad#s`o.o`faZ.C.v.M`5.Uakab",
".Y`7.O`r.k.j.A`E#g#y#C.w.T#Iagaea8al`s`l.I`Aabas.1`I`..u.o`p```paYaZ.C`I`ya1`0.E",
"`N.Y`7.O#v.Z#LaHan`T`3.r#Z.I#t`Fa8aQar#Z#3.j`u.U`X.v`.`f`paJ#k#k`P`fad.q`b`i`W.K",
"`N`N.Y#U.3`x`Aax.ta5`h`B.h`c`m`4#.#c.P#Z#Raaax`n`X.v.x`o`Pai`Y`YaJaA.uaN`I.Fa1ah",
"`N`N.Y`7.O`G`Sac#r#g`U`1a#`J.L`ga.`haO.ha4#m.A`n`X.ga0`o`P`YaTaTai`paz`..g`y`Oah",
"`N`N`N`7`v.a`Q...`.##T.ca#`J`j`Ha.#a.RaDa4.Lac.E.#`Ia0`faJai#o#o`Y`p`f`8.v`y.B#G",
"`N`N`N`N`v.3.k.0ae.6`T`3.r#E.I`Va.#J`1.w`J`x..#r.6.g.C`f`PaiaTaTai`paz`8.v`y`O#G",
"`N`N`N`N.4`2.z.jaM#Y`Z`haO.h`c#taEa`al`s.T#BaS.`.6`b.CaZaAaJ`Y`Y#kaA#s.C`I`y`Oah",
".Y`N`N.Y`7.O`GaGax`n#g#j.RaDa4`m###XaCam#Z.I`A`u#Y.2.q`D`o`PaJ#k`P.o`DaN.W.Fahah",
".Y.Y`N.Y`7.O#V`SaFaK`X#y#Ca#`J`6`g#i`haO.h#R`maw`n`X.va0azaA`P`PaAaz`.`k.M`5`W.K",
".4`7.Y.Y`7.O.s.8ac.E.6aL.c`s.Ta7`H#i`U.l.h`J.LaFan.1`IaN`D`oaAaA`o.uaN`I`ya1.KaU",
"`v`v`7`7.4.O.a.Z...E.6`T`Kam#E#I#D`d#J#Ca#a3`x`C#raW`b.qa0#s`o`oaza0.q`b`i`W#`aP",
"`2.O.4`7.4.O.s`Q..ak`w#za6.P.h`Ray#7.Nal`s.T.IaS.``w.M`I.C`Dazaz`D`..v.M#u.UaP.p",
".a.3#U#U#U`2.a`Q...5`wa5`haA.h.D#b`F`Tafam#Z#R.j#n`w.F.W.q.x`D.uadaN`I`y.B`0`u.m",
"`G.s`2.O#U`2.s`Q.0.5.U.2`U.Ra#.Q`##n`q`haO.h#A`map.U`5`b`k.Cadad`.`z.W`ya1#`ax`C",
".7.k.3`2`2#4.s`Q.fab.U.1#0#Ca#.X`6`4#6`U.R.h`J#Q#laK`5`y`I`z.x.x`..q.W.F.B#`awac",
"aR`Q#V.a#4.3#V`Q.f`u`0.1.N.car#E#f`g#6#J#qa#a3#Iag`Ea1.F.W.q.C`..C.q`I`y.B.U.5.p",
"`A#x.k.s.a.a#V#wat.p#``w`T`3am`L`j`H.t#X`K`s#Z.IaI.``W.F`b.v.C`.`.`z`I.M`i`W.EaP",
"#Lat`Q#2.s.s#2#W`Aax.E`w`Z`h`B.h`R`Vae.Ja6.P#F#R.jaH`W`5.M.v`z`.`..C`k`I.F#u`Waj",
".m.HaR.7#2#V#V.7.G.A.y`w.2#j.RaD`R#t`F#g#H.l.h.X`m`4`0.B`y`I.q`..x.xaN`k`b.F.B#G",
".pac.G#W.k#2#2.7#N.maPas`X#0`o.w.X`maw#6#y`1.S`Ja7.m#`.B`y.W`z`.adad.xaN.v`b.F#u",
"abaxaX.Z.7.z.z.7#x`C.5.U.1#T.car.Q`6ap#e.N.c`s.T#8...Ea1.F.W`z.x.u#s.u.x`z.v.M`y",
"aPab#L#x#W.k#2.7#x.H.e`0.1.gafamaua7`C#e`Tafam`L#BaSaPas`i.W.qa0#s`faz.ua0`z`I.W",
".y.e`C#N`Q.k.k.7aR#Lab#``w#z#daOau#I`Vae`q`haO.h.D.j.5as`i`b.qadaz.o.o`f#s.xaN`k",
"aUaP.m.G.Z.7#2.7.Z.fax`E`wa5`UaVao.D#t#n#6`U.RaD`caaaw.U`5`b`kad`faY`paY`o.ua0.C",
"aj`EaxaXaR.7#2.k`Q.Gac.V.U`X#0#C#M.X`6ap#eaL#q.w.X.8aF#`.B.M`k.x`faA`P`P`p`o.uad",
".K.E.p.faR.7#2.z.7#x.Hab`0.1.gaf.d.Q#8`C#e`T`K.d#E#Q`C`E`w.F.v.Caz`p`````PaYazaZ",
"`WaUaM.f#x.7#2#V.k.Z.f.paU`w#za6.P#E#B`Vae.Ja6.Pau#BaI.`as.1.W.CaZaA``aJ```p`o#s",
"`W#`ab#LaR.7#V#V#2.Zatax`Easa5`h.l`L.D#taH`q#a.l`L.D.jaM`0`5`baN`DaY`P```P`p`o#s",
"`W#`ab#L#x.k#V.s#V.7#xac.5as`X`U`1.h.X`m`4#e#y`1ao`c#maF.EaW`y`ka0`f`p`p`PaYaq#s",
"`WaKab#LaR.k.s.a.s.zaR#Lab`0.6`t#q`s`J.L`g.t`Tal.d`J#w`Cakas.F`I.CaZ.oaA.o`o#s`D",
"`WaKab#LaR.k.s#4.s#2.Z.fab#`aW.N#q.w`J#Q#l.t`TaQ.d.Q#8...`as.F.W#K.u`f.oaY`faZ`D"
};
