/* XPM */
static char* font2dmodule_xpm[] = {
"40 40 3 1 14 16",
"  c None",
"! c #000000",
"# c #000080",
"                                        ",
"                                        ",
"                                        ",
"                                        ",
"                                        ",
"                                        ",
"                                        ",
"                                        ",
"                                        ",
"  ######## ####### ##     ##########    ",
"  ######## ####### ###   ###########    ",
"     ##    ##       ### ###    ##       ",
"     ##    ##        #####     ##       ",
"     ##    #######    ###      ##       ",
"     ##    #######    ###      ##       ",
"     ##    ##        #####     ##       ",
"     ##    ##       ###  ##    ##       ",
"     ##    ####### ###   ###   ##       ",
"     ##     ###### ##     ##   ##       ",
"                                        ",
"                                        ",
"             ###    ######              ",
"            ## ##   ##   ##             ",
"           ##   ##  ##    ##            ",
"           ##   ##  ##    ##            ",
"                ##  ##    ##            ",
"               ##   ##    ##            ",
"               ##   ##    ##            ",
"              ##    ##    ##            ",
"             ##     ##    ##            ",
"             ##     ##    ##            ",
"            ##      ##    ##            ",
"           ##       ##   ##             ",
"           #######  ######              ",
"                                        ",
"                                        ",
"                                        ",
"                                        ",
"                                        ",
"                                        "};